<svg width="665" height="539" viewBox="0 0 665 539" fill="none" xmlns="http://www.w3.org/2000/svg">
<g filter="url(#filter0_bd_128_1823)">
<rect x="49" y="45" width="567" height="441" rx="12" fill="url(#paint0_radial_128_1823)" fill-opacity="0.8" shape-rendering="crispEdges"/>
<g filter="url(#filter1_ii_128_1823)">
<rect x="86" y="114" width="154" height="48" rx="8" fill="#262637"/>
</g>
<rect x="86.5" y="114.5" width="153" height="47" rx="7.5" stroke="white"/>
<g filter="url(#filter2_ii_128_1823)">
<rect x="255" y="114" width="154" height="48" rx="8" fill="#262637"/>
</g>
<g filter="url(#filter3_ii_128_1823)">
<rect x="424" y="114" width="154" height="48" rx="8" fill="#262637"/>
</g>
<g filter="url(#filter4_ii_128_1823)">
<rect x="86" y="194" width="492" height="48" rx="8" fill="#262637"/>
</g>
<g filter="url(#filter5_ii_128_1823)">
<rect x="86" y="280" width="492" height="103" rx="8" fill="#262637"/>
</g>
<line x1="86" y1="177.5" x2="578" y2="177.5" stroke="#262637"/>
<path d="M140.682 131.12V132.146H134.796L134.472 136.34C135.432 135.812 136.416 135.548 137.424 135.548C139.944 135.548 141.204 136.712 141.204 139.04C141.204 140.384 140.856 141.404 140.16 142.1C139.464 142.796 138.492 143.144 137.244 143.144C136.224 143.144 135.12 143.024 133.932 142.784L133.356 142.658L133.5 141.74C134.856 142.016 136.026 142.154 137.01 142.154C137.994 142.154 138.744 141.89 139.26 141.362C139.788 140.834 140.052 140.096 140.052 139.148C140.052 138.188 139.812 137.516 139.332 137.132C138.852 136.736 138.18 136.538 137.316 136.538C136.86 136.538 136.386 136.61 135.894 136.754C135.402 136.886 135.024 137.024 134.76 137.168L134.346 137.366L133.518 137.222L133.86 131.12H140.682ZM143.536 133.424C143.884 132.476 144.352 131.828 144.94 131.48C145.54 131.12 146.254 130.94 147.082 130.94C147.922 130.94 148.594 131.042 149.098 131.246C149.602 131.438 150.04 131.768 150.412 132.236C151.156 133.148 151.528 134.762 151.528 137.078C151.528 139.382 151.168 140.978 150.448 141.866C149.74 142.742 148.678 143.18 147.262 143.18C145.846 143.18 144.784 142.748 144.076 141.884C143.368 141.008 143.014 139.472 143.014 137.276C143.014 135.656 143.188 134.372 143.536 133.424ZM149.026 132.38C148.594 132.08 148.006 131.93 147.262 131.93C146.53 131.93 145.948 132.074 145.516 132.362C144.616 132.974 144.166 134.618 144.166 137.294C144.166 139.154 144.418 140.432 144.922 141.128C145.426 141.824 146.212 142.172 147.28 142.172C147.976 142.172 148.54 142.04 148.972 141.776C149.908 141.2 150.376 139.7 150.376 137.276C150.376 134.636 149.926 133.004 149.026 132.38ZM157.384 142.064C157.708 141.464 157.978 140.78 158.194 140.012C158.41 139.232 158.518 138.38 158.518 137.456V134H164.332V142.064H165.16V145.232H164.116V143.018H157.762V145.232H156.718V142.064H157.384ZM159.544 137.582C159.544 138.506 159.448 139.328 159.256 140.048C159.076 140.768 158.842 141.44 158.554 142.064H163.27V134.954H159.544V137.582ZM166.877 134H167.939V137.996H172.925V134H173.987V143H172.925V138.95H167.939V143H166.877V134ZM182.472 142.1L183.012 142.046L183.048 142.928C181.692 143.096 180.546 143.18 179.61 143.18C178.314 143.168 177.408 142.784 176.892 142.028C176.376 141.272 176.118 140.108 176.118 138.536C176.118 135.392 177.354 133.82 179.826 133.82C181.014 133.82 181.902 134.162 182.49 134.846C183.078 135.518 183.372 136.598 183.372 138.086L183.336 138.95H177.216C177.216 140.054 177.402 140.876 177.774 141.416C178.158 141.944 178.806 142.208 179.718 142.208C180.642 142.208 181.56 142.172 182.472 142.1ZM177.216 138.05H182.292C182.292 136.862 182.094 136.016 181.698 135.512C181.314 135.008 180.69 134.756 179.826 134.756C178.974 134.756 178.326 135.02 177.882 135.548C177.438 136.064 177.216 136.898 177.216 138.05ZM191.596 143.018V135.044H191.452L187.096 143.018H185.404V134H186.466V141.902H186.61L190.966 134H192.658V143.018H191.596ZM187.816 131.102C188.104 131.402 188.506 131.552 189.022 131.552C189.538 131.552 189.94 131.402 190.228 131.102C190.528 130.802 190.684 130.418 190.696 129.95H191.632C191.608 130.658 191.356 131.246 190.876 131.714C190.408 132.17 189.79 132.398 189.022 132.398C188.254 132.398 187.636 132.17 187.168 131.714C186.7 131.246 186.454 130.658 186.43 129.95H187.348C187.36 130.43 187.516 130.814 187.816 131.102Z" fill="white"/>
<path d="M88.04 77.392H94.064C95.712 77.392 96.944 77.736 97.76 78.424C98.592 79.096 99.008 80.16 99.008 81.616C99.008 82.656 98.824 83.472 98.456 84.064C98.104 84.64 97.576 85.096 96.872 85.432C98.632 86.04 99.512 87.344 99.512 89.344C99.512 91.008 99.072 92.2 98.192 92.92C97.312 93.64 96.04 94 94.376 94H88.04V77.392ZM94.184 86.368H89.888V92.368H94.304C95.392 92.368 96.216 92.144 96.776 91.696C97.352 91.232 97.64 90.424 97.64 89.272C97.64 88.664 97.52 88.152 97.28 87.736C97.056 87.32 96.752 87.024 96.368 86.848C95.664 86.528 94.936 86.368 94.184 86.368ZM93.992 79.024H89.888V84.76H94.16C95.184 84.76 95.928 84.52 96.392 84.04C96.872 83.544 97.112 82.808 97.112 81.832C97.112 80.84 96.856 80.128 96.344 79.696C95.848 79.248 95.064 79.024 93.992 79.024ZM107.317 88.384C108.037 88.384 108.541 88.536 108.829 88.84C109.117 89.16 109.253 89.704 109.237 90.472C109.221 91.224 109.093 91.744 108.853 92.032C108.613 92.32 108.101 92.464 107.317 92.464H104.293V88.384H107.317ZM107.317 94C108.565 94 109.493 93.736 110.101 93.208C110.709 92.664 111.013 91.752 111.013 90.472C111.013 89.224 110.717 88.312 110.125 87.736C109.549 87.144 108.637 86.848 107.389 86.848H104.293V82H102.517V94H107.317ZM112.741 82V94H114.493V82H112.741ZM125.499 88.072C125.515 89.656 125.307 90.792 124.875 91.48C124.443 92.168 123.579 92.512 122.283 92.512C121.547 92.512 120.963 92.4 120.531 92.176C120.099 91.936 119.771 91.616 119.547 91.216C119.323 90.816 119.179 90.344 119.115 89.8C119.051 89.24 119.019 88.648 119.019 88.024C119.019 87.4 119.051 86.816 119.115 86.272C119.195 85.712 119.347 85.224 119.571 84.808C119.811 84.392 120.147 84.064 120.579 83.824C121.011 83.584 121.595 83.464 122.331 83.464C123.579 83.464 124.419 83.832 124.851 84.568C125.251 85.304 125.467 86.472 125.499 88.072ZM122.451 81.856C121.779 81.856 121.195 81.968 120.699 82.192C120.203 82.416 119.723 82.76 119.259 83.224C119.467 82.44 119.699 81.808 119.955 81.328C120.227 80.832 120.563 80.44 120.963 80.152C121.363 79.864 121.843 79.664 122.403 79.552C122.963 79.424 123.643 79.344 124.443 79.312C124.795 79.28 125.107 79.248 125.379 79.216C125.651 79.168 125.883 79.08 126.075 78.952C126.267 78.824 126.411 78.64 126.507 78.4C126.619 78.16 126.675 77.824 126.675 77.392H125.307C125.227 77.552 125.139 77.64 125.043 77.656C124.979 77.672 124.843 77.688 124.635 77.704C124.443 77.72 124.179 77.744 123.843 77.776C121.315 77.936 119.603 78.712 118.707 80.104C117.827 81.464 117.347 83.568 117.267 86.416C117.251 86.736 117.251 87.152 117.267 87.664C117.299 88.16 117.331 88.76 117.363 89.464C117.443 91.064 117.923 92.248 118.803 93.016C119.683 93.768 120.907 94.144 122.475 94.144C123.467 94.144 124.267 93.992 124.875 93.688C125.499 93.368 125.979 92.936 126.315 92.392C126.667 91.848 126.907 91.208 127.035 90.472C127.163 89.72 127.227 88.912 127.227 88.048C127.227 87.168 127.163 86.352 127.035 85.6C126.923 84.848 126.691 84.2 126.339 83.656C125.987 83.096 125.499 82.656 124.875 82.336C124.267 82.016 123.459 81.856 122.451 81.856ZM138.263 92.512L138.959 92.44L139.007 93.856C137.183 94.112 135.623 94.24 134.327 94.24C132.599 94.24 131.375 93.744 130.655 92.752C129.935 91.744 129.575 90.184 129.575 88.072C129.575 83.864 131.247 81.76 134.591 81.76C136.207 81.76 137.415 82.216 138.215 83.128C139.015 84.024 139.415 85.44 139.415 87.376L139.319 88.744H131.399C131.399 90.072 131.639 91.056 132.119 91.696C132.599 92.336 133.431 92.656 134.615 92.656C135.815 92.656 137.031 92.608 138.263 92.512ZM137.615 87.304C137.615 85.832 137.375 84.792 136.895 84.184C136.431 83.576 135.663 83.272 134.591 83.272C133.535 83.272 132.735 83.592 132.191 84.232C131.663 84.872 131.391 85.896 131.375 87.304H137.615ZM142.22 99.328V82H143.996V82.864C145.212 82.128 146.412 81.76 147.596 81.76C149.116 81.76 150.22 82.248 150.908 83.224C151.596 84.184 151.94 85.776 151.94 88C151.94 90.224 151.532 91.824 150.716 92.8C149.916 93.76 148.58 94.24 146.708 94.24C145.732 94.24 144.836 94.152 144.02 93.976V99.328H142.22ZM147.332 83.368C146.852 83.368 146.332 83.448 145.772 83.608C145.228 83.768 144.796 83.928 144.476 84.088L144.02 84.328V92.416C145.156 92.592 146.02 92.68 146.612 92.68C147.908 92.68 148.812 92.312 149.324 91.576C149.852 90.84 150.116 89.64 150.116 87.976C150.116 86.312 149.876 85.128 149.396 84.424C148.932 83.72 148.244 83.368 147.332 83.368ZM163.084 94.024V83.92H162.892L157.54 94.024H154.876V82H156.652V91.984H156.844L162.196 82H164.836V94.024H163.084ZM167.275 82H177.451V83.536H173.251V94H171.475V83.536H167.275V82ZM188.068 92.512L188.764 92.44L188.812 93.856C186.988 94.112 185.428 94.24 184.132 94.24C182.404 94.24 181.18 93.744 180.46 92.752C179.74 91.744 179.38 90.184 179.38 88.072C179.38 83.864 181.052 81.76 184.396 81.76C186.012 81.76 187.22 82.216 188.02 83.128C188.82 84.024 189.22 85.44 189.22 87.376L189.124 88.744H181.204C181.204 90.072 181.444 91.056 181.924 91.696C182.404 92.336 183.236 92.656 184.42 92.656C185.62 92.656 186.836 92.608 188.068 92.512ZM187.42 87.304C187.42 85.832 187.18 84.792 186.7 84.184C186.236 83.576 185.468 83.272 184.396 83.272C183.34 83.272 182.54 83.592 181.996 84.232C181.468 84.872 181.196 85.896 181.18 87.304H187.42ZM197.298 82H207.066V94H205.29V83.56H199.074V94H197.298V82ZM218.677 92.512L219.373 92.44L219.421 93.856C217.597 94.112 216.037 94.24 214.741 94.24C213.013 94.24 211.789 93.744 211.069 92.752C210.349 91.744 209.989 90.184 209.989 88.072C209.989 83.864 211.661 81.76 215.005 81.76C216.621 81.76 217.829 82.216 218.629 83.128C219.429 84.024 219.829 85.44 219.829 87.376L219.733 88.744H211.813C211.813 90.072 212.053 91.056 212.533 91.696C213.013 92.336 213.845 92.656 215.029 92.656C216.229 92.656 217.445 92.608 218.677 92.512ZM218.029 87.304C218.029 85.832 217.789 84.792 217.309 84.184C216.845 83.576 216.077 83.272 215.005 83.272C213.949 83.272 213.149 83.592 212.605 84.232C212.077 84.872 211.805 85.896 211.789 87.304H218.029ZM222.634 99.328V82H224.41V82.864C225.626 82.128 226.826 81.76 228.01 81.76C229.53 81.76 230.634 82.248 231.322 83.224C232.01 84.184 232.354 85.776 232.354 88C232.354 90.224 231.946 91.824 231.13 92.8C230.33 93.76 228.994 94.24 227.122 94.24C226.146 94.24 225.25 94.152 224.434 93.976V99.328H222.634ZM227.746 83.368C227.266 83.368 226.746 83.448 226.186 83.608C225.642 83.768 225.21 83.928 224.89 84.088L224.434 84.328V92.416C225.57 92.592 226.434 92.68 227.026 92.68C228.322 92.68 229.226 92.312 229.738 91.576C230.266 90.84 230.53 89.64 230.53 87.976C230.53 86.312 230.29 85.128 229.81 84.424C229.346 83.72 228.658 83.368 227.746 83.368ZM243.499 94.024V83.92H243.307L237.955 94.024H235.291V82H237.067V91.984H237.259L242.611 82H245.251V94.024H243.499ZM248.169 87.976C248.169 85.784 248.561 84.2 249.345 83.224C250.129 82.248 251.449 81.76 253.305 81.76C255.177 81.76 256.497 82.248 257.265 83.224C258.049 84.2 258.441 85.784 258.441 87.976C258.441 90.168 258.073 91.76 257.337 92.752C256.601 93.744 255.257 94.24 253.305 94.24C251.353 94.24 250.009 93.744 249.273 92.752C248.537 91.76 248.169 90.168 248.169 87.976ZM250.017 87.928C250.017 89.688 250.225 90.92 250.641 91.624C251.073 92.328 251.961 92.68 253.305 92.68C254.665 92.68 255.553 92.336 255.969 91.648C256.385 90.944 256.593 89.712 256.593 87.952C256.593 86.192 256.361 84.984 255.897 84.328C255.433 83.656 254.569 83.32 253.305 83.32C252.057 83.32 251.193 83.656 250.713 84.328C250.249 84.984 250.017 86.184 250.017 87.928ZM261.328 92.464C262.256 90.72 262.72 88.768 262.72 86.608V82H270.856V92.464H272.008V96.664H270.256V94.024H262.096V96.664H260.368V92.464H261.328ZM264.424 86.776C264.424 87.944 264.312 88.992 264.088 89.92C263.864 90.832 263.576 91.68 263.224 92.464H269.104V83.56H264.424V86.776Z" fill="white"/>
<path d="M91.222 253.846H89.374L89.948 255.596L89.262 255.806L88.688 254.042L87.19 255.148L86.756 254.588L88.268 253.482L86.784 252.404L87.218 251.816L88.702 252.908L89.276 251.144L89.962 251.368L89.402 253.146H91.222V253.846ZM93.0689 261V251.312H95.0149L97.7589 259.502L100.503 251.312H102.449V261H101.371V252.46H101.175L98.3609 260.65H97.1569L94.3429 252.46H94.1469V261H93.0689ZM109.433 261.014V255.12H109.321L106.199 261.014H104.645V254H105.681V259.824H105.793L108.915 254H110.455V261.014H109.433ZM112.465 254H113.501V257.01H117.127V254H118.163V261H117.127V257.92H113.501V261H112.465V254ZM124.964 261.014V255.12H124.852L121.73 261.014H120.176V254H121.212V259.824H121.324L124.446 254H125.986V261.014H124.964ZM135.304 254V261H134.296V254.952H134.184L132.182 260.44H131.146L129.116 254.952H129.004V261H127.996V254H129.774L131.664 259.32L133.554 254H135.304ZM142.263 256.114V259.698C142.291 260.043 142.561 260.249 143.075 260.314L143.033 261.14C142.295 261.14 141.74 260.953 141.367 260.58C140.527 260.953 139.687 261.14 138.847 261.14C138.203 261.14 137.713 260.958 137.377 260.594C137.041 260.23 136.873 259.707 136.873 259.026C136.873 258.345 137.045 257.845 137.391 257.528C137.736 257.201 138.277 257.001 139.015 256.926L141.213 256.716V256.114C141.213 255.638 141.11 255.297 140.905 255.092C140.699 254.887 140.419 254.784 140.065 254.784C139.318 254.784 138.543 254.831 137.741 254.924L137.307 254.966L137.265 254.168C138.291 253.963 139.201 253.86 139.995 253.86C140.788 253.86 141.362 254.042 141.717 254.406C142.081 254.77 142.263 255.339 142.263 256.114ZM137.951 258.97C137.951 259.829 138.305 260.258 139.015 260.258C139.649 260.258 140.275 260.151 140.891 259.936L141.213 259.824V257.514L139.141 257.71C138.721 257.747 138.417 257.869 138.231 258.074C138.044 258.279 137.951 258.578 137.951 258.97ZM148.52 261V254.91H146.042C145.958 256.282 145.884 257.243 145.818 257.794C145.753 258.335 145.706 258.699 145.678 258.886C145.65 259.063 145.627 259.208 145.608 259.32C145.468 260.02 145.268 260.487 145.006 260.72C144.745 260.944 144.278 261.061 143.606 261.07V260.174C143.952 260.165 144.194 260.09 144.334 259.95C144.474 259.801 144.596 259.455 144.698 258.914C144.81 258.373 144.913 257.304 145.006 255.708L145.104 254H149.556V261H148.52ZM154.367 257.724C154.787 257.724 155.081 257.813 155.249 257.99C155.417 258.177 155.496 258.494 155.487 258.942C155.477 259.381 155.403 259.684 155.263 259.852C155.123 260.02 154.824 260.104 154.367 260.104H152.603V257.724H154.367ZM154.367 261C155.095 261 155.636 260.846 155.991 260.538C156.345 260.221 156.523 259.689 156.523 258.942C156.523 258.214 156.35 257.682 156.005 257.346C155.669 257.001 155.137 256.828 154.409 256.828H152.603V254H151.567V261H154.367ZM157.979 254H159.015V257.01H162.641V254H163.677V261H162.641V257.92H159.015V261H157.979V254ZM170.632 256.114V259.698C170.66 260.043 170.93 260.249 171.444 260.314L171.402 261.14C170.664 261.14 170.109 260.953 169.736 260.58C168.896 260.953 168.056 261.14 167.216 261.14C166.572 261.14 166.082 260.958 165.746 260.594C165.41 260.23 165.242 259.707 165.242 259.026C165.242 258.345 165.414 257.845 165.76 257.528C166.105 257.201 166.646 257.001 167.384 256.926L169.582 256.716V256.114C169.582 255.638 169.479 255.297 169.274 255.092C169.068 254.887 168.788 254.784 168.434 254.784C167.687 254.784 166.912 254.831 166.11 254.924L165.676 254.966L165.634 254.168C166.66 253.963 167.57 253.86 168.364 253.86C169.157 253.86 169.731 254.042 170.086 254.406C170.45 254.77 170.632 255.339 170.632 256.114ZM166.32 258.97C166.32 259.829 166.674 260.258 167.384 260.258C168.018 260.258 168.644 260.151 169.26 259.936L169.582 259.824V257.514L167.51 257.71C167.09 257.747 166.786 257.869 166.6 258.074C166.413 258.279 166.32 258.578 166.32 258.97ZM172.073 261L173.711 258.522C173.189 258.391 172.825 258.139 172.619 257.766C172.442 257.439 172.344 256.94 172.325 256.268C172.297 254.756 173.025 254 174.509 254H177.351V261H176.315V258.648H174.803L173.263 261H172.073ZM176.315 257.724V254.924H174.649C174.136 254.924 173.791 255.031 173.613 255.246C173.455 255.442 173.38 255.797 173.389 256.31C173.399 256.833 173.483 257.192 173.641 257.388C173.828 257.612 174.164 257.724 174.649 257.724H176.315ZM185.056 253.86C185.364 253.86 185.886 253.916 186.624 254.028L186.96 254.07L186.918 254.924C186.171 254.84 185.62 254.798 185.266 254.798C184.472 254.798 183.931 254.989 183.642 255.372C183.362 255.745 183.222 256.445 183.222 257.472C183.222 258.489 183.352 259.199 183.614 259.6C183.884 260.001 184.44 260.202 185.28 260.202L186.932 260.076L186.974 260.944C186.106 261.075 185.457 261.14 185.028 261.14C183.936 261.14 183.18 260.86 182.76 260.3C182.349 259.74 182.144 258.797 182.144 257.472C182.144 256.137 182.368 255.204 182.816 254.672C183.264 254.131 184.01 253.86 185.056 253.86ZM188.955 263.24C189.189 263.249 189.366 263.249 189.487 263.24C189.842 263.212 190.113 262.918 190.299 262.358L190.747 261H190.005L187.877 254H188.941L190.733 260.076H191.069L193.001 254H194.023L191.195 262.624C190.953 263.221 190.705 263.627 190.453 263.842C190.211 264.057 189.935 264.164 189.627 264.164C189.329 264.164 189.105 264.145 188.955 264.108V263.24ZM202.693 254V261H201.685V254.952H201.573L199.571 260.44H198.535L196.505 254.952H196.393V261H195.385V254H197.163L199.053 259.32L200.943 254H202.693ZM212.017 254V261H211.009V254.952H210.897L208.895 260.44H207.859L205.829 254.952H205.717V261H204.709V254H206.487L208.377 259.32L210.267 254H212.017ZM218.975 256.114V259.698C219.003 260.043 219.274 260.249 219.787 260.314L219.745 261.14C219.008 261.14 218.453 260.953 218.079 260.58C217.239 260.953 216.399 261.14 215.559 261.14C214.915 261.14 214.425 260.958 214.089 260.594C213.753 260.23 213.585 259.707 213.585 259.026C213.585 258.345 213.758 257.845 214.103 257.528C214.449 257.201 214.99 257.001 215.727 256.926L217.925 256.716V256.114C217.925 255.638 217.823 255.297 217.617 255.092C217.412 254.887 217.132 254.784 216.777 254.784C216.031 254.784 215.256 254.831 214.453 254.924L214.019 254.966L213.977 254.168C215.004 253.963 215.914 253.86 216.707 253.86C217.501 253.86 218.075 254.042 218.429 254.406C218.793 254.77 218.975 255.339 218.975 256.114ZM214.663 258.97C214.663 259.829 215.018 260.258 215.727 260.258C216.362 260.258 216.987 260.151 217.603 259.936L217.925 259.824V257.514L215.853 257.71C215.433 257.747 215.13 257.869 214.943 258.074C214.757 258.279 214.663 258.578 214.663 258.97ZM228.911 261.014V255.12H228.799L225.677 261.014H224.123V254H225.159V259.824H225.271L228.393 254H229.933V261.014H228.911ZM231.944 254H232.98V257.01H236.606V254H237.642V261H236.606V257.92H232.98V261H231.944V254ZM243.98 258.984C243.99 259.385 243.882 259.679 243.658 259.866C243.444 260.043 243.056 260.132 242.496 260.132H240.69V257.808H242.65C243.528 257.808 243.971 258.2 243.98 258.984ZM243.854 255.918C243.854 256.609 243.448 256.954 242.636 256.954H240.69V254.882H242.72C243.476 254.882 243.854 255.227 243.854 255.918ZM242.482 261C244.218 261 245.086 260.328 245.086 258.984C245.086 258.648 245.007 258.317 244.848 257.99C244.69 257.654 244.442 257.425 244.106 257.304C244.218 257.257 244.316 257.197 244.4 257.122C244.484 257.038 244.564 256.949 244.638 256.856C244.834 256.567 244.928 256.217 244.918 255.806C244.909 254.602 244.167 254 242.692 254H239.654V261H242.482ZM251.278 260.132L251.684 260.09L251.712 260.916C250.648 261.065 249.738 261.14 248.982 261.14C247.974 261.14 247.26 260.851 246.84 260.272C246.42 259.684 246.21 258.774 246.21 257.542C246.21 255.087 247.185 253.86 249.136 253.86C250.078 253.86 250.783 254.126 251.25 254.658C251.716 255.181 251.95 256.007 251.95 257.136L251.894 257.934H247.274C247.274 258.709 247.414 259.283 247.694 259.656C247.974 260.029 248.459 260.216 249.15 260.216C249.85 260.216 250.559 260.188 251.278 260.132ZM250.9 257.094C250.9 256.235 250.76 255.629 250.48 255.274C250.209 254.919 249.761 254.742 249.136 254.742C248.52 254.742 248.053 254.929 247.736 255.302C247.428 255.675 247.269 256.273 247.26 257.094H250.9ZM256.204 253.86C256.512 253.86 257.035 253.916 257.772 254.028L258.108 254.07L258.066 254.924C257.319 254.84 256.769 254.798 256.414 254.798C255.621 254.798 255.079 254.989 254.79 255.372C254.51 255.745 254.37 256.445 254.37 257.472C254.37 258.489 254.501 259.199 254.762 259.6C255.033 260.001 255.588 260.202 256.428 260.202L258.08 260.076L258.122 260.944C257.254 261.075 256.605 261.14 256.176 261.14C255.084 261.14 254.328 260.86 253.908 260.3C253.497 259.74 253.292 258.797 253.292 257.472C253.292 256.137 253.516 255.204 253.964 254.672C254.412 254.131 255.159 253.86 256.204 253.86ZM259.096 254H265.032V254.896H262.582V261H261.546V254.896H259.096V254ZM271.253 261.014V255.12H271.141L268.019 261.014H266.465V254H267.501V259.824H267.613L270.735 254H272.275V261.014H271.253ZM274.285 254H275.321V260.09H278.835V254H279.871V260.09H280.613V262.554H279.591V261H274.285V254ZM286.976 261.014V255.12H286.864L283.742 261.014H282.188V254H283.224V259.824H283.336L286.458 254H287.998V261.014H286.976ZM294.796 261.014V255.12H294.684L291.562 261.014H290.008V254H291.044V259.824H291.156L294.278 254H295.818V261.014H294.796ZM305.342 251.76V261H304.264V252.964L301.884 254.532L301.394 253.72L304.334 251.76H305.342ZM311.636 251.606C312.402 251.606 313.022 251.751 313.498 252.04C314.506 252.637 315.01 254.131 315.01 256.52C315.01 258.209 314.73 259.404 314.17 260.104C313.61 260.795 312.77 261.14 311.65 261.14C310.53 261.14 309.686 260.799 309.116 260.118C308.556 259.427 308.276 258.205 308.276 256.45C308.276 254.686 308.552 253.44 309.102 252.712C309.662 251.975 310.507 251.606 311.636 251.606ZM311.65 252.572C311.118 252.572 310.698 252.684 310.39 252.908C309.728 253.365 309.396 254.574 309.396 256.534C309.396 257.915 309.578 258.872 309.942 259.404C310.306 259.927 310.876 260.188 311.65 260.188C312.425 260.188 312.994 259.922 313.358 259.39C313.722 258.858 313.904 257.873 313.904 256.436C313.904 254.989 313.727 253.986 313.372 253.426C313.027 252.857 312.453 252.572 311.65 252.572ZM319.47 251.606C320.236 251.606 320.856 251.751 321.332 252.04C322.34 252.637 322.844 254.131 322.844 256.52C322.844 258.209 322.564 259.404 322.004 260.104C321.444 260.795 320.604 261.14 319.484 261.14C318.364 261.14 317.52 260.799 316.95 260.118C316.39 259.427 316.11 258.205 316.11 256.45C316.11 254.686 316.386 253.44 316.936 252.712C317.496 251.975 318.341 251.606 319.47 251.606ZM319.484 252.572C318.952 252.572 318.532 252.684 318.224 252.908C317.562 253.365 317.23 254.574 317.23 256.534C317.23 257.915 317.412 258.872 317.776 259.404C318.14 259.927 318.71 260.188 319.484 260.188C320.259 260.188 320.828 259.922 321.192 259.39C321.556 258.858 321.738 257.873 321.738 256.436C321.738 254.989 321.561 253.986 321.206 253.426C320.861 252.857 320.287 252.572 319.484 252.572ZM328.673 258.088C328.673 259.488 329.429 260.188 330.941 260.188C331.725 260.188 332.313 260.025 332.705 259.698C333.106 259.362 333.307 258.825 333.307 258.088V251.312H334.371V258.06C334.371 259.143 334.081 259.927 333.503 260.412C332.933 260.897 332.089 261.14 330.969 261.14C329.849 261.14 329.004 260.897 328.435 260.412C327.875 259.927 327.595 259.143 327.595 258.06V251.312H328.673V258.088ZM339.348 252.11C337.948 252.11 337.248 252.637 337.248 253.692C337.248 254.28 337.407 254.686 337.724 254.91C338.051 255.125 338.704 255.344 339.684 255.568C340.674 255.783 341.374 256.067 341.784 256.422C342.195 256.767 342.4 257.341 342.4 258.144C342.4 260.132 341.369 261.126 339.306 261.126C338.625 261.126 337.771 261.047 336.744 260.888L336.24 260.818L336.352 259.922C337.622 260.09 338.588 260.174 339.25 260.174C340.632 260.174 341.322 259.525 341.322 258.228C341.322 257.705 341.168 257.332 340.86 257.108C340.562 256.875 339.997 256.679 339.166 256.52C338.074 256.287 337.3 255.988 336.842 255.624C336.385 255.251 336.156 254.63 336.156 253.762C336.156 252.026 337.197 251.158 339.278 251.158C339.96 251.158 340.776 251.228 341.728 251.368L342.204 251.438L342.106 252.348C340.809 252.189 339.89 252.11 339.348 252.11ZM347.72 261H344.262V251.312H347.72C349.298 251.312 350.343 251.937 350.856 253.188C351.155 253.907 351.304 254.849 351.304 256.016C351.304 258.452 350.698 259.987 349.484 260.622C348.999 260.874 348.411 261 347.72 261ZM350.198 256.016C350.198 254.159 349.783 253.001 348.952 252.544C348.616 252.357 348.206 252.264 347.72 252.264H345.34V260.048H347.72C349.372 260.048 350.198 258.704 350.198 256.016Z" fill="#B6B6DD"/>
<path d="M100.19 212.312H103.704C104.665 212.312 105.384 212.513 105.86 212.914C106.345 213.306 106.588 213.927 106.588 214.776C106.588 215.383 106.481 215.859 106.266 216.204C106.061 216.54 105.753 216.806 105.342 217.002C106.369 217.357 106.882 218.117 106.882 219.284C106.882 220.255 106.625 220.95 106.112 221.37C105.599 221.79 104.857 222 103.886 222H100.19V212.312ZM103.774 217.548H101.268V221.048H103.844C104.479 221.048 104.959 220.917 105.286 220.656C105.622 220.385 105.79 219.914 105.79 219.242C105.79 218.887 105.72 218.589 105.58 218.346C105.449 218.103 105.272 217.931 105.048 217.828C104.637 217.641 104.213 217.548 103.774 217.548ZM103.662 213.264H101.268V216.61H103.76C104.357 216.61 104.791 216.47 105.062 216.19C105.342 215.901 105.482 215.471 105.482 214.902C105.482 214.323 105.333 213.908 105.034 213.656C104.745 213.395 104.287 213.264 103.662 213.264ZM112.961 219.984C112.97 220.385 112.863 220.679 112.639 220.866C112.424 221.043 112.037 221.132 111.477 221.132H109.671V218.808H111.631C112.508 218.808 112.952 219.2 112.961 219.984ZM112.835 216.918C112.835 217.609 112.429 217.954 111.617 217.954H109.671V215.882H111.701C112.457 215.882 112.835 216.227 112.835 216.918ZM111.463 222C113.199 222 114.067 221.328 114.067 219.984C114.067 219.648 113.988 219.317 113.829 218.99C113.67 218.654 113.423 218.425 113.087 218.304C113.199 218.257 113.297 218.197 113.381 218.122C113.465 218.038 113.544 217.949 113.619 217.856C113.815 217.567 113.908 217.217 113.899 216.806C113.89 215.602 113.148 215 111.673 215H108.635V222H111.463ZM120.258 221.132L120.664 221.09L120.692 221.916C119.628 222.065 118.718 222.14 117.962 222.14C116.954 222.14 116.24 221.851 115.82 221.272C115.4 220.684 115.19 219.774 115.19 218.542C115.19 216.087 116.166 214.86 118.116 214.86C119.059 214.86 119.764 215.126 120.23 215.658C120.697 216.181 120.93 217.007 120.93 218.136L120.874 218.934H116.254C116.254 219.709 116.394 220.283 116.674 220.656C116.954 221.029 117.44 221.216 118.13 221.216C118.83 221.216 119.54 221.188 120.258 221.132ZM119.88 218.094C119.88 217.235 119.74 216.629 119.46 216.274C119.19 215.919 118.742 215.742 118.116 215.742C117.5 215.742 117.034 215.929 116.716 216.302C116.408 216.675 116.25 217.273 116.24 218.094H119.88ZM122.539 221.104C123.08 220.087 123.351 218.948 123.351 217.688V215H128.097V221.104H128.769V223.554H127.747V222.014H122.987V223.554H121.979V221.104H122.539ZM124.345 217.786C124.345 218.467 124.279 219.079 124.149 219.62C124.018 220.152 123.85 220.647 123.645 221.104H127.075V215.91H124.345V217.786ZM135.052 222.014V216.12H134.94L131.818 222.014H130.264V215H131.3V220.824H131.412L134.534 215H136.074V222.014H135.052ZM137.496 215H143.432V215.896H140.982V222H139.946V215.896H137.496V215ZM149.625 221.132L150.031 221.09L150.059 221.916C148.995 222.065 148.085 222.14 147.329 222.14C146.321 222.14 145.607 221.851 145.187 221.272C144.767 220.684 144.557 219.774 144.557 218.542C144.557 216.087 145.533 214.86 147.483 214.86C148.426 214.86 149.131 215.126 149.597 215.658C150.064 216.181 150.297 217.007 150.297 218.136L150.241 218.934H145.621C145.621 219.709 145.761 220.283 146.041 220.656C146.321 221.029 146.807 221.216 147.497 221.216C148.197 221.216 148.907 221.188 149.625 221.132ZM149.247 218.094C149.247 217.235 149.107 216.629 148.827 216.274C148.557 215.919 148.109 215.742 147.483 215.742C146.867 215.742 146.401 215.929 146.083 216.302C145.775 216.675 145.617 217.273 145.607 218.094H149.247ZM157.628 214.86C157.936 214.86 158.459 214.916 159.196 215.028L159.532 215.07L159.49 215.924C158.743 215.84 158.193 215.798 157.838 215.798C157.045 215.798 156.503 215.989 156.214 216.372C155.934 216.745 155.794 217.445 155.794 218.472C155.794 219.489 155.925 220.199 156.186 220.6C156.457 221.001 157.012 221.202 157.852 221.202L159.504 221.076L159.546 221.944C158.678 222.075 158.029 222.14 157.6 222.14C156.508 222.14 155.752 221.86 155.332 221.3C154.921 220.74 154.716 219.797 154.716 218.472C154.716 217.137 154.94 216.204 155.388 215.672C155.836 215.131 156.583 214.86 157.628 214.86ZM161.528 224.24C161.761 224.249 161.938 224.249 162.06 224.24C162.414 224.212 162.685 223.918 162.872 223.358L163.32 222H162.578L160.45 215H161.514L163.306 221.076H163.642L165.574 215H166.596L163.768 223.624C163.525 224.221 163.278 224.627 163.026 224.842C162.783 225.057 162.508 225.164 162.2 225.164C161.901 225.164 161.677 225.145 161.528 225.108V224.24ZM175.265 215V222H174.257V215.952H174.145L172.143 221.44H171.107L169.077 215.952H168.965V222H167.957V215H169.735L171.625 220.32L173.515 215H175.265ZM184.589 215V222H183.581V215.952H183.469L181.467 221.44H180.431L178.401 215.952H178.289V222H177.281V215H179.059L180.949 220.32L182.839 215H184.589ZM187.026 224.24C187.259 224.249 187.436 224.249 187.558 224.24C187.912 224.212 188.183 223.918 188.37 223.358L188.818 222H188.076L185.948 215H187.012L188.804 221.076H189.14L191.072 215H192.094L189.266 223.624C189.023 224.221 188.776 224.627 188.524 224.842C188.281 225.057 188.006 225.164 187.698 225.164C187.399 225.164 187.175 225.145 187.026 225.108V224.24ZM201.319 222.014V216.12H201.207L198.085 222.014H196.531V215H197.567V220.824H197.679L200.801 215H202.341V222.014H201.319ZM204.352 215H205.388V218.01H209.014V215H210.05V222H209.014V218.92H205.388V222H204.352V215ZM216.389 219.984C216.398 220.385 216.291 220.679 216.067 220.866C215.852 221.043 215.465 221.132 214.905 221.132H213.099V218.808H215.059C215.936 218.808 216.379 219.2 216.389 219.984ZM216.263 216.918C216.263 217.609 215.857 217.954 215.045 217.954H213.099V215.882H215.129C215.885 215.882 216.263 216.227 216.263 216.918ZM214.891 222C216.627 222 217.495 221.328 217.495 219.984C217.495 219.648 217.415 219.317 217.257 218.99C217.098 218.654 216.851 218.425 216.515 218.304C216.627 218.257 216.725 218.197 216.809 218.122C216.893 218.038 216.972 217.949 217.047 217.856C217.243 217.567 217.336 217.217 217.327 216.806C217.317 215.602 216.575 215 215.101 215H212.063V222H214.891ZM223.686 221.132L224.092 221.09L224.12 221.916C223.056 222.065 222.146 222.14 221.39 222.14C220.382 222.14 219.668 221.851 219.248 221.272C218.828 220.684 218.618 219.774 218.618 218.542C218.618 216.087 219.593 214.86 221.544 214.86C222.487 214.86 223.191 215.126 223.658 215.658C224.125 216.181 224.358 217.007 224.358 218.136L224.302 218.934H219.682C219.682 219.709 219.822 220.283 220.102 220.656C220.382 221.029 220.867 221.216 221.558 221.216C222.258 221.216 222.967 221.188 223.686 221.132ZM223.308 218.094C223.308 217.235 223.168 216.629 222.888 216.274C222.617 215.919 222.169 215.742 221.544 215.742C220.928 215.742 220.461 215.929 220.144 216.302C219.836 216.675 219.677 217.273 219.668 218.094H223.308ZM228.612 214.86C228.92 214.86 229.443 214.916 230.18 215.028L230.516 215.07L230.474 215.924C229.728 215.84 229.177 215.798 228.822 215.798C228.029 215.798 227.488 215.989 227.198 216.372C226.918 216.745 226.778 217.445 226.778 218.472C226.778 219.489 226.909 220.199 227.17 220.6C227.441 221.001 227.996 221.202 228.836 221.202L230.488 221.076L230.53 221.944C229.662 222.075 229.014 222.14 228.584 222.14C227.492 222.14 226.736 221.86 226.316 221.3C225.906 220.74 225.7 219.797 225.7 218.472C225.7 217.137 225.924 216.204 226.372 215.672C226.82 215.131 227.567 214.86 228.612 214.86ZM231.504 215H237.44V215.896H234.99V222H233.954V215.896H231.504V215ZM243.661 222.014V216.12H243.549L240.427 222.014H238.873V215H239.909V220.824H240.021L243.143 215H244.683V222.014H243.661ZM246.694 215H247.73V221.09H251.244V215H252.28V221.09H253.022V223.554H252V222H246.694V215ZM259.384 222.014V216.12H259.272L256.15 222.014H254.596V215H255.632V220.824H255.744L258.866 215H260.406V222.014H259.384ZM267.204 222.014V216.12H267.092L263.97 222.014H262.416V215H263.452V220.824H263.564L266.686 215H268.226V222.014H267.204Z" fill="#B6B6DD"/>
<path d="M269.702 293.312V294.278H264.788V297.316H267.714C268.544 297.316 269.188 297.587 269.646 298.128C270.103 298.669 270.322 299.355 270.304 300.186C270.276 302.062 269.412 303 267.714 303H263.71V293.312H269.702ZM264.788 298.268V302.048H267.672C268.726 302.048 269.254 301.418 269.254 300.158C269.254 298.898 268.726 298.268 267.672 298.268H264.788ZM274.736 299.724C275.156 299.724 275.45 299.813 275.618 299.99C275.786 300.177 275.865 300.494 275.856 300.942C275.846 301.381 275.772 301.684 275.632 301.852C275.492 302.02 275.193 302.104 274.736 302.104H272.972V299.724H274.736ZM274.736 303C275.464 303 276.005 302.846 276.36 302.538C276.714 302.221 276.892 301.689 276.892 300.942C276.892 300.214 276.719 299.682 276.374 299.346C276.038 299.001 275.506 298.828 274.778 298.828H272.972V296H271.936V303H274.736ZM277.9 296V303H278.922V296H277.9ZM283.55 295.86C283.858 295.86 284.38 295.916 285.118 296.028L285.454 296.07L285.412 296.924C284.665 296.84 284.114 296.798 283.76 296.798C282.966 296.798 282.425 296.989 282.136 297.372C281.856 297.745 281.716 298.445 281.716 299.472C281.716 300.489 281.846 301.199 282.108 301.6C282.378 302.001 282.934 302.202 283.774 302.202L285.426 302.076L285.468 302.944C284.6 303.075 283.951 303.14 283.522 303.14C282.43 303.14 281.674 302.86 281.254 302.3C280.843 301.74 280.638 300.797 280.638 299.472C280.638 298.137 280.862 297.204 281.31 296.672C281.758 296.131 282.504 295.86 283.55 295.86ZM286.441 296H292.377V296.896H289.927V303H288.891V296.896H286.441V296ZM293.811 306.108V296H294.847V296.504C295.556 296.075 296.256 295.86 296.947 295.86C297.833 295.86 298.477 296.145 298.879 296.714C299.28 297.274 299.481 298.203 299.481 299.5C299.481 300.797 299.243 301.731 298.767 302.3C298.3 302.86 297.521 303.14 296.429 303.14C295.859 303.14 295.337 303.089 294.861 302.986V306.108H293.811ZM296.793 296.798C296.513 296.798 296.209 296.845 295.883 296.938C295.565 297.031 295.313 297.125 295.127 297.218L294.861 297.358V302.076C295.523 302.179 296.027 302.23 296.373 302.23C297.129 302.23 297.656 302.015 297.955 301.586C298.263 301.157 298.417 300.457 298.417 299.486C298.417 298.515 298.277 297.825 297.997 297.414C297.726 297.003 297.325 296.798 296.793 296.798ZM303.994 299.724C304.414 299.724 304.708 299.813 304.876 299.99C305.044 300.177 305.123 300.494 305.114 300.942C305.104 301.381 305.03 301.684 304.89 301.852C304.75 302.02 304.451 302.104 303.994 302.104H302.23V299.724H303.994ZM303.994 303C304.722 303 305.263 302.846 305.618 302.538C305.972 302.221 306.15 301.689 306.15 300.942C306.15 300.214 305.977 299.682 305.632 299.346C305.296 299.001 304.764 298.828 304.036 298.828H302.23V296H301.194V303H303.994ZM307.158 296V303H308.18V296H307.158ZM314.978 303.014V297.12H314.866L311.744 303.014H310.19V296H311.226V301.824H311.338L314.46 296H316V303.014H314.978ZM311.856 292.836C311.874 293.191 311.991 293.475 312.206 293.69C312.42 293.905 312.71 294.012 313.074 294.012C313.447 294.012 313.741 293.905 313.956 293.69C314.17 293.475 314.282 293.191 314.292 292.836H315.16C315.132 293.396 314.931 293.863 314.558 294.236C314.184 294.609 313.69 294.796 313.074 294.796C312.467 294.796 311.977 294.609 311.604 294.236C311.23 293.863 311.03 293.396 311.002 292.836H311.856ZM325.412 300.984C325.421 301.385 325.314 301.679 325.09 301.866C324.875 302.043 324.488 302.132 323.928 302.132H322.122V299.808H324.082C324.959 299.808 325.403 300.2 325.412 300.984ZM325.286 297.918C325.286 298.609 324.88 298.954 324.068 298.954H322.122V296.882H324.152C324.908 296.882 325.286 297.227 325.286 297.918ZM323.914 303C325.65 303 326.518 302.328 326.518 300.984C326.518 300.648 326.439 300.317 326.28 299.99C326.121 299.654 325.874 299.425 325.538 299.304C325.65 299.257 325.748 299.197 325.832 299.122C325.916 299.038 325.995 298.949 326.07 298.856C326.266 298.567 326.359 298.217 326.35 297.806C326.341 296.602 325.599 296 324.124 296H321.086V303H323.914ZM330.749 299.724C331.169 299.724 331.463 299.813 331.631 299.99C331.799 300.177 331.879 300.494 331.869 300.942C331.86 301.381 331.785 301.684 331.645 301.852C331.505 302.02 331.207 302.104 330.749 302.104H328.985V299.724H330.749ZM330.749 303C331.477 303 332.019 302.846 332.373 302.538C332.728 302.221 332.905 301.689 332.905 300.942C332.905 300.214 332.733 299.682 332.387 299.346C332.051 299.001 331.519 298.828 330.791 298.828H328.985V296H327.949V303H330.749ZM333.913 296V303H334.935V296H333.913ZM341.356 299.542C341.365 300.466 341.244 301.129 340.992 301.53C340.74 301.931 340.236 302.132 339.48 302.132C339.05 302.132 338.71 302.067 338.458 301.936C338.206 301.796 338.014 301.609 337.884 301.376C337.753 301.143 337.669 300.867 337.632 300.55C337.594 300.223 337.576 299.878 337.576 299.514C337.576 299.15 337.594 298.809 337.632 298.492C337.678 298.165 337.767 297.881 337.898 297.638C338.038 297.395 338.234 297.204 338.486 297.064C338.738 296.924 339.078 296.854 339.508 296.854C340.236 296.854 340.726 297.069 340.978 297.498C341.211 297.927 341.337 298.609 341.356 299.542ZM339.578 295.916C339.186 295.916 338.845 295.981 338.556 296.112C338.266 296.243 337.986 296.443 337.716 296.714C337.837 296.257 337.972 295.888 338.122 295.608C338.28 295.319 338.476 295.09 338.71 294.922C338.943 294.754 339.223 294.637 339.55 294.572C339.876 294.497 340.273 294.451 340.74 294.432C340.945 294.413 341.127 294.395 341.286 294.376C341.444 294.348 341.58 294.297 341.692 294.222C341.804 294.147 341.888 294.04 341.944 293.9C342.009 293.76 342.042 293.564 342.042 293.312H341.244C341.197 293.405 341.146 293.457 341.09 293.466C341.052 293.475 340.973 293.485 340.852 293.494C340.74 293.503 340.586 293.517 340.39 293.536C338.915 293.629 337.916 294.082 337.394 294.894C336.88 295.687 336.6 296.915 336.554 298.576C336.544 298.763 336.544 299.005 336.554 299.304C336.572 299.593 336.591 299.943 336.61 300.354C336.656 301.287 336.936 301.978 337.45 302.426C337.963 302.865 338.677 303.084 339.592 303.084C340.17 303.084 340.637 302.995 340.992 302.818C341.356 302.631 341.636 302.379 341.832 302.062C342.037 301.745 342.177 301.371 342.252 300.942C342.326 300.503 342.364 300.032 342.364 299.528C342.364 299.015 342.326 298.539 342.252 298.1C342.186 297.661 342.051 297.283 341.846 296.966C341.64 296.639 341.356 296.383 340.992 296.196C340.637 296.009 340.166 295.916 339.578 295.916ZM343.733 299.486C343.733 298.207 343.962 297.283 344.419 296.714C344.877 296.145 345.647 295.86 346.729 295.86C347.821 295.86 348.591 296.145 349.039 296.714C349.497 297.283 349.725 298.207 349.725 299.486C349.725 300.765 349.511 301.693 349.081 302.272C348.652 302.851 347.868 303.14 346.729 303.14C345.591 303.14 344.807 302.851 344.377 302.272C343.948 301.693 343.733 300.765 343.733 299.486ZM344.811 299.458C344.811 300.485 344.933 301.203 345.175 301.614C345.427 302.025 345.945 302.23 346.729 302.23C347.523 302.23 348.041 302.029 348.283 301.628C348.526 301.217 348.647 300.499 348.647 299.472C348.647 298.445 348.512 297.741 348.241 297.358C347.971 296.966 347.467 296.77 346.729 296.77C346.001 296.77 345.497 296.966 345.217 297.358C344.947 297.741 344.811 298.441 344.811 299.458ZM351.438 306.108V296H352.474V296.504C353.183 296.075 353.883 295.86 354.574 295.86C355.46 295.86 356.104 296.145 356.506 296.714C356.907 297.274 357.108 298.203 357.108 299.5C357.108 300.797 356.87 301.731 356.394 302.3C355.927 302.86 355.148 303.14 354.056 303.14C353.486 303.14 352.964 303.089 352.488 302.986V306.108H351.438ZM354.42 296.798C354.14 296.798 353.836 296.845 353.51 296.938C353.192 297.031 352.94 297.125 352.754 297.218L352.488 297.358V302.076C353.15 302.179 353.654 302.23 354 302.23C354.756 302.23 355.283 302.015 355.582 301.586C355.89 301.157 356.044 300.457 356.044 299.486C356.044 298.515 355.904 297.825 355.624 297.414C355.353 297.003 354.952 296.798 354.42 296.798ZM364.515 295.86C364.823 295.86 365.345 295.916 366.083 296.028L366.419 296.07L366.377 296.924C365.63 296.84 365.079 296.798 364.725 296.798C363.931 296.798 363.39 296.989 363.101 297.372C362.821 297.745 362.681 298.445 362.681 299.472C362.681 300.489 362.811 301.199 363.073 301.6C363.343 302.001 363.899 302.202 364.739 302.202L366.391 302.076L366.433 302.944C365.565 303.075 364.916 303.14 364.487 303.14C363.395 303.14 362.639 302.86 362.219 302.3C361.808 301.74 361.603 300.797 361.603 299.472C361.603 298.137 361.827 297.204 362.275 296.672C362.723 296.131 363.469 295.86 364.515 295.86ZM368.414 305.24C368.648 305.249 368.825 305.249 368.946 305.24C369.301 305.212 369.572 304.918 369.758 304.358L370.206 303H369.464L367.336 296H368.4L370.192 302.076H370.528L372.46 296H373.482L370.654 304.624C370.412 305.221 370.164 305.627 369.912 305.842C369.67 306.057 369.394 306.164 369.086 306.164C368.788 306.164 368.564 306.145 368.414 306.108V305.24ZM382.152 296V303H381.144V296.952H381.032L379.03 302.44H377.994L375.964 296.952H375.852V303H374.844V296H376.622L378.512 301.32L380.402 296H382.152ZM391.476 296V303H390.468V296.952H390.356L388.354 302.44H387.318L385.288 296.952H385.176V303H384.168V296H385.946L387.836 301.32L389.726 296H391.476ZM396.292 299.724C396.712 299.724 397.006 299.813 397.174 299.99C397.342 300.177 397.422 300.494 397.412 300.942C397.403 301.381 397.328 301.684 397.188 301.852C397.048 302.02 396.75 302.104 396.292 302.104H394.528V299.724H396.292ZM396.292 303C397.02 303 397.562 302.846 397.916 302.538C398.271 302.221 398.448 301.689 398.448 300.942C398.448 300.214 398.276 299.682 397.93 299.346C397.594 299.001 397.062 298.828 396.334 298.828H394.528V296H393.492V303H396.292ZM399.456 296V303H400.478V296H399.456Z" fill="#B6B6DD"/>
<path d="M102.81 361.4V368H102.2V362.08L100.44 363.26L100.15 362.78L102.23 361.4H102.81ZM105.316 362.68C105.509 362.153 105.769 361.793 106.096 361.6C106.429 361.4 106.826 361.3 107.286 361.3C107.752 361.3 108.126 361.357 108.406 361.47C108.686 361.577 108.929 361.76 109.136 362.02C109.549 362.527 109.756 363.423 109.756 364.71C109.756 365.99 109.556 366.877 109.156 367.37C108.762 367.857 108.172 368.1 107.386 368.1C106.599 368.1 106.009 367.86 105.616 367.38C105.222 366.893 105.026 366.04 105.026 364.82C105.026 363.92 105.122 363.207 105.316 362.68ZM108.366 362.1C108.126 361.933 107.799 361.85 107.386 361.85C106.979 361.85 106.656 361.93 106.416 362.09C105.916 362.43 105.666 363.343 105.666 364.83C105.666 365.863 105.806 366.573 106.086 366.96C106.366 367.347 106.802 367.54 107.396 367.54C107.782 367.54 108.096 367.467 108.336 367.32C108.856 367 109.116 366.167 109.116 364.82C109.116 363.353 108.866 362.447 108.366 362.1ZM110.911 362.68C111.105 362.153 111.365 361.793 111.691 361.6C112.025 361.4 112.421 361.3 112.881 361.3C113.348 361.3 113.721 361.357 114.001 361.47C114.281 361.577 114.525 361.76 114.731 362.02C115.145 362.527 115.351 363.423 115.351 364.71C115.351 365.99 115.151 366.877 114.751 367.37C114.358 367.857 113.768 368.1 112.981 368.1C112.195 368.1 111.605 367.86 111.211 367.38C110.818 366.893 110.621 366.04 110.621 364.82C110.621 363.92 110.718 363.207 110.911 362.68ZM113.961 362.1C113.721 361.933 113.395 361.85 112.981 361.85C112.575 361.85 112.251 361.93 112.011 362.09C111.511 362.43 111.261 363.343 111.261 364.83C111.261 365.863 111.401 366.573 111.681 366.96C111.961 367.347 112.398 367.54 112.991 367.54C113.378 367.54 113.691 367.467 113.931 367.32C114.451 367 114.711 366.167 114.711 364.82C114.711 363.353 114.461 362.447 113.961 362.1ZM119.424 365.96C119.424 367.013 120.001 367.54 121.154 367.54C121.754 367.54 122.204 367.417 122.504 367.17C122.804 366.923 122.954 366.52 122.954 365.96V361.05H123.574V365.96C123.574 366.713 123.371 367.26 122.964 367.6C122.558 367.933 121.961 368.1 121.174 368.1C120.394 368.1 119.804 367.933 119.404 367.6C119.011 367.26 118.814 366.713 118.814 365.96V361.05H119.424V365.96ZM127.15 361.49C126.077 361.49 125.54 361.9 125.54 362.72C125.54 363.2 125.66 363.523 125.9 363.69C126.147 363.857 126.624 364.01 127.33 364.15C128.044 364.29 128.55 364.483 128.85 364.73C129.157 364.977 129.31 365.39 129.31 365.97C129.31 366.717 129.124 367.257 128.75 367.59C128.384 367.917 127.844 368.08 127.13 368.08C126.61 368.08 126.007 368.033 125.32 367.94L124.96 367.89L125.03 367.36C125.944 367.473 126.65 367.53 127.15 367.53C127.65 367.53 128.03 367.41 128.29 367.17C128.55 366.923 128.68 366.567 128.68 366.1C128.68 365.627 128.564 365.307 128.33 365.14C128.104 364.967 127.737 364.833 127.23 364.74C126.73 364.647 126.364 364.563 126.13 364.49C125.897 364.41 125.677 364.3 125.47 364.16C125.27 364.013 125.127 363.83 125.04 363.61C124.954 363.383 124.91 363.1 124.91 362.76C124.91 361.547 125.644 360.94 127.11 360.94C127.55 360.94 128.124 360.987 128.83 361.08L129.16 361.13L129.11 361.66C128.19 361.547 127.537 361.49 127.15 361.49ZM133.211 368H130.681V361.05H133.211C134.857 361.05 135.681 362.177 135.681 364.43C135.681 366.81 134.857 368 133.211 368ZM135.041 364.43C135.041 362.55 134.431 361.61 133.211 361.61H131.301V367.45H133.211C134.431 367.45 135.041 366.443 135.041 364.43Z" fill="#B6B6DD"/>
<path d="M493.757 361.4V368H493.147V362.08L491.387 363.26L491.097 362.78L493.177 361.4H493.757ZM498.46 362.68C498.654 362.153 498.914 361.793 499.24 361.6C499.574 361.4 499.97 361.3 500.43 361.3C500.897 361.3 501.27 361.357 501.55 361.47C501.83 361.577 502.074 361.76 502.28 362.02C502.694 362.527 502.9 363.423 502.9 364.71C502.9 365.99 502.7 366.877 502.3 367.37C501.907 367.857 501.317 368.1 500.53 368.1C499.744 368.1 499.154 367.86 498.76 367.38C498.367 366.893 498.17 366.04 498.17 364.82C498.17 363.92 498.267 363.207 498.46 362.68ZM501.51 362.1C501.27 361.933 500.944 361.85 500.53 361.85C500.124 361.85 499.8 361.93 499.56 362.09C499.06 362.43 498.81 363.343 498.81 364.83C498.81 365.863 498.95 366.573 499.23 366.96C499.51 367.347 499.947 367.54 500.54 367.54C500.927 367.54 501.24 367.467 501.48 367.32C502 367 502.26 366.167 502.26 364.82C502.26 363.353 502.01 362.447 501.51 362.1ZM504.056 362.68C504.249 362.153 504.509 361.793 504.836 361.6C505.169 361.4 505.566 361.3 506.026 361.3C506.493 361.3 506.866 361.357 507.146 361.47C507.426 361.577 507.669 361.76 507.876 362.02C508.289 362.527 508.496 363.423 508.496 364.71C508.496 365.99 508.296 366.877 507.896 367.37C507.503 367.857 506.913 368.1 506.126 368.1C505.339 368.1 504.749 367.86 504.356 367.38C503.963 366.893 503.766 366.04 503.766 364.82C503.766 363.92 503.863 363.207 504.056 362.68ZM507.106 362.1C506.866 361.933 506.539 361.85 506.126 361.85C505.719 361.85 505.396 361.93 505.156 362.09C504.656 362.43 504.406 363.343 504.406 364.83C504.406 365.863 504.546 366.573 504.826 366.96C505.106 367.347 505.543 367.54 506.136 367.54C506.523 367.54 506.836 367.467 507.076 367.32C507.596 367 507.856 366.167 507.856 364.82C507.856 363.353 507.606 362.447 507.106 362.1ZM509.652 362.68C509.845 362.153 510.105 361.793 510.432 361.6C510.765 361.4 511.162 361.3 511.622 361.3C512.088 361.3 512.462 361.357 512.742 361.47C513.022 361.577 513.265 361.76 513.472 362.02C513.885 362.527 514.092 363.423 514.092 364.71C514.092 365.99 513.892 366.877 513.492 367.37C513.098 367.857 512.508 368.1 511.722 368.1C510.935 368.1 510.345 367.86 509.952 367.38C509.558 366.893 509.362 366.04 509.362 364.82C509.362 363.92 509.458 363.207 509.652 362.68ZM512.702 362.1C512.462 361.933 512.135 361.85 511.722 361.85C511.315 361.85 510.992 361.93 510.752 362.09C510.252 362.43 510.002 363.343 510.002 364.83C510.002 365.863 510.142 366.573 510.422 366.96C510.702 367.347 511.138 367.54 511.732 367.54C512.118 367.54 512.432 367.467 512.672 367.32C513.192 367 513.452 366.167 513.452 364.82C513.452 363.353 513.202 362.447 512.702 362.1ZM517.445 362.68C517.638 362.153 517.898 361.793 518.225 361.6C518.558 361.4 518.955 361.3 519.415 361.3C519.881 361.3 520.255 361.357 520.535 361.47C520.815 361.577 521.058 361.76 521.265 362.02C521.678 362.527 521.885 363.423 521.885 364.71C521.885 365.99 521.685 366.877 521.285 367.37C520.891 367.857 520.301 368.1 519.515 368.1C518.728 368.1 518.138 367.86 517.745 367.38C517.351 366.893 517.155 366.04 517.155 364.82C517.155 363.92 517.251 363.207 517.445 362.68ZM520.495 362.1C520.255 361.933 519.928 361.85 519.515 361.85C519.108 361.85 518.785 361.93 518.545 362.09C518.045 362.43 517.795 363.343 517.795 364.83C517.795 365.863 517.935 366.573 518.215 366.96C518.495 367.347 518.931 367.54 519.525 367.54C519.911 367.54 520.225 367.467 520.465 367.32C520.985 367 521.245 366.167 521.245 364.82C521.245 363.353 520.995 362.447 520.495 362.1ZM523.04 362.68C523.234 362.153 523.494 361.793 523.82 361.6C524.154 361.4 524.55 361.3 525.01 361.3C525.477 361.3 525.85 361.357 526.13 361.47C526.41 361.577 526.654 361.76 526.86 362.02C527.274 362.527 527.48 363.423 527.48 364.71C527.48 365.99 527.28 366.877 526.88 367.37C526.487 367.857 525.897 368.1 525.11 368.1C524.324 368.1 523.734 367.86 523.34 367.38C522.947 366.893 522.75 366.04 522.75 364.82C522.75 363.92 522.847 363.207 523.04 362.68ZM526.09 362.1C525.85 361.933 525.524 361.85 525.11 361.85C524.704 361.85 524.38 361.93 524.14 362.09C523.64 362.43 523.39 363.343 523.39 364.83C523.39 365.863 523.53 366.573 523.81 366.96C524.09 367.347 524.527 367.54 525.12 367.54C525.507 367.54 525.82 367.467 526.06 367.32C526.58 367 526.84 366.167 526.84 364.82C526.84 363.353 526.59 362.447 526.09 362.1ZM528.636 362.68C528.829 362.153 529.089 361.793 529.416 361.6C529.749 361.4 530.146 361.3 530.606 361.3C531.073 361.3 531.446 361.357 531.726 361.47C532.006 361.577 532.249 361.76 532.456 362.02C532.869 362.527 533.076 363.423 533.076 364.71C533.076 365.99 532.876 366.877 532.476 367.37C532.083 367.857 531.493 368.1 530.706 368.1C529.919 368.1 529.329 367.86 528.936 367.38C528.543 366.893 528.346 366.04 528.346 364.82C528.346 363.92 528.443 363.207 528.636 362.68ZM531.686 362.1C531.446 361.933 531.119 361.85 530.706 361.85C530.299 361.85 529.976 361.93 529.736 362.09C529.236 362.43 528.986 363.343 528.986 364.83C528.986 365.863 529.126 366.573 529.406 366.96C529.686 367.347 530.123 367.54 530.716 367.54C531.103 367.54 531.416 367.467 531.656 367.32C532.176 367 532.436 366.167 532.436 364.82C532.436 363.353 532.186 362.447 531.686 362.1ZM537.149 365.96C537.149 367.013 537.726 367.54 538.879 367.54C539.479 367.54 539.929 367.417 540.229 367.17C540.529 366.923 540.679 366.52 540.679 365.96V361.05H541.299V365.96C541.299 366.713 541.096 367.26 540.689 367.6C540.282 367.933 539.686 368.1 538.899 368.1C538.119 368.1 537.529 367.933 537.129 367.6C536.736 367.26 536.539 366.713 536.539 365.96V361.05H537.149V365.96ZM544.875 361.49C543.802 361.49 543.265 361.9 543.265 362.72C543.265 363.2 543.385 363.523 543.625 363.69C543.872 363.857 544.348 364.01 545.055 364.15C545.768 364.29 546.275 364.483 546.575 364.73C546.882 364.977 547.035 365.39 547.035 365.97C547.035 366.717 546.848 367.257 546.475 367.59C546.108 367.917 545.568 368.08 544.855 368.08C544.335 368.08 543.732 368.033 543.045 367.94L542.685 367.89L542.755 367.36C543.668 367.473 544.375 367.53 544.875 367.53C545.375 367.53 545.755 367.41 546.015 367.17C546.275 366.923 546.405 366.567 546.405 366.1C546.405 365.627 546.288 365.307 546.055 365.14C545.828 364.967 545.462 364.833 544.955 364.74C544.455 364.647 544.088 364.563 543.855 364.49C543.622 364.41 543.402 364.3 543.195 364.16C542.995 364.013 542.852 363.83 542.765 363.61C542.678 363.383 542.635 363.1 542.635 362.76C542.635 361.547 543.368 360.94 544.835 360.94C545.275 360.94 545.848 360.987 546.555 361.08L546.885 361.13L546.835 361.66C545.915 361.547 545.262 361.49 544.875 361.49ZM550.935 368H548.405V361.05H550.935C552.582 361.05 553.405 362.177 553.405 364.43C553.405 366.81 552.582 368 550.935 368ZM552.765 364.43C552.765 362.55 552.155 361.61 550.935 361.61H549.025V367.45H550.935C552.155 367.45 552.765 366.443 552.765 364.43Z" fill="#B6B6DD"/>
<path d="M302.99 131.12V143H301.892V132.344L298.724 134.468L298.202 133.604L301.946 131.12H302.99ZM307.5 133.424C307.848 132.476 308.316 131.828 308.904 131.48C309.504 131.12 310.218 130.94 311.046 130.94C311.886 130.94 312.558 131.042 313.062 131.246C313.566 131.438 314.004 131.768 314.376 132.236C315.12 133.148 315.492 134.762 315.492 137.078C315.492 139.382 315.132 140.978 314.412 141.866C313.704 142.742 312.642 143.18 311.226 143.18C309.81 143.18 308.748 142.748 308.04 141.884C307.332 141.008 306.978 139.472 306.978 137.276C306.978 135.656 307.152 134.372 307.5 133.424ZM312.99 132.38C312.558 132.08 311.97 131.93 311.226 131.93C310.494 131.93 309.912 132.074 309.48 132.362C308.58 132.974 308.13 134.618 308.13 137.294C308.13 139.154 308.382 140.432 308.886 141.128C309.39 141.824 310.176 142.172 311.244 142.172C311.94 142.172 312.504 142.04 312.936 141.776C313.872 141.2 314.34 139.7 314.34 137.276C314.34 134.636 313.89 133.004 312.99 132.38ZM317.572 133.424C317.92 132.476 318.388 131.828 318.976 131.48C319.576 131.12 320.29 130.94 321.118 130.94C321.958 130.94 322.63 131.042 323.134 131.246C323.638 131.438 324.076 131.768 324.448 132.236C325.192 133.148 325.564 134.762 325.564 137.078C325.564 139.382 325.204 140.978 324.484 141.866C323.776 142.742 322.714 143.18 321.298 143.18C319.882 143.18 318.82 142.748 318.112 141.884C317.404 141.008 317.05 139.472 317.05 137.276C317.05 135.656 317.224 134.372 317.572 133.424ZM323.062 132.38C322.63 132.08 322.042 131.93 321.298 131.93C320.566 131.93 319.984 132.074 319.552 132.362C318.652 132.974 318.202 134.618 318.202 137.294C318.202 139.154 318.454 140.432 318.958 141.128C319.462 141.824 320.248 142.172 321.316 142.172C322.012 142.172 322.576 142.04 323.008 141.776C323.944 141.2 324.412 139.7 324.412 137.276C324.412 134.636 323.962 133.004 323.062 132.38ZM331.42 142.064C331.744 141.464 332.014 140.78 332.23 140.012C332.446 139.232 332.554 138.38 332.554 137.456V134H338.368V142.064H339.196V145.232H338.152V143.018H331.798V145.232H330.754V142.064H331.42ZM333.58 137.582C333.58 138.506 333.484 139.328 333.292 140.048C333.112 140.768 332.878 141.44 332.59 142.064H337.306V134.954H333.58V137.582ZM340.913 134H341.975V137.996H346.961V134H348.023V143H346.961V138.95H341.975V143H340.913V134ZM356.508 142.1L357.048 142.046L357.084 142.928C355.728 143.096 354.582 143.18 353.646 143.18C352.35 143.168 351.444 142.784 350.928 142.028C350.412 141.272 350.154 140.108 350.154 138.536C350.154 135.392 351.39 133.82 353.862 133.82C355.05 133.82 355.938 134.162 356.526 134.846C357.114 135.518 357.408 136.598 357.408 138.086L357.372 138.95H351.252C351.252 140.054 351.438 140.876 351.81 141.416C352.194 141.944 352.842 142.208 353.754 142.208C354.678 142.208 355.596 142.172 356.508 142.1ZM351.252 138.05H356.328C356.328 136.862 356.13 136.016 355.734 135.512C355.35 135.008 354.726 134.756 353.862 134.756C353.01 134.756 352.362 135.02 351.918 135.548C351.474 136.064 351.252 136.898 351.252 138.05ZM365.633 143.018V135.044H365.489L361.133 143.018H359.441V134H360.503V141.902H360.647L365.003 134H366.695V143.018H365.633ZM361.853 131.102C362.141 131.402 362.543 131.552 363.059 131.552C363.575 131.552 363.977 131.402 364.265 131.102C364.565 130.802 364.721 130.418 364.733 129.95H365.669C365.645 130.658 365.393 131.246 364.913 131.714C364.445 132.17 363.827 132.398 363.059 132.398C362.291 132.398 361.673 132.17 361.205 131.714C360.737 131.246 360.491 130.658 360.467 129.95H361.385C361.397 130.43 361.553 130.814 361.853 131.102Z" fill="white"/>
<path d="M299.042 332H288.914V330.44L293.546 325.568C294.346 324.736 294.93 324.104 295.298 323.672C295.666 323.24 295.994 322.728 296.282 322.136C296.586 321.544 296.738 320.952 296.738 320.36C296.738 319.336 296.458 318.616 295.898 318.2C295.338 317.784 294.466 317.576 293.282 317.576C292.242 317.576 291.082 317.712 289.802 317.984L289.178 318.104L289.034 316.568C290.554 316.136 292.122 315.92 293.738 315.92C295.354 315.92 296.57 316.264 297.386 316.952C298.218 317.624 298.634 318.696 298.634 320.168C298.634 321.288 298.386 322.264 297.89 323.096C297.394 323.928 296.538 324.928 295.322 326.096L291.098 330.392H299.042V332ZM312.136 316.16V317.84H304.432L304 323C305.232 322.344 306.472 322.016 307.72 322.016C311.08 322.016 312.76 323.576 312.76 326.696C312.76 328.488 312.296 329.856 311.368 330.8C310.44 331.744 309.136 332.216 307.456 332.216C306.112 332.216 304.624 332.04 302.992 331.688L302.2 331.52L302.416 330.056C304.256 330.408 305.8 330.584 307.048 330.584C308.312 330.584 309.264 330.264 309.904 329.624C310.544 328.968 310.864 328.056 310.864 326.888C310.864 325.72 310.568 324.896 309.976 324.416C309.4 323.92 308.576 323.672 307.504 323.672C306.928 323.672 306.32 323.752 305.68 323.912C305.056 324.072 304.576 324.232 304.24 324.392L303.736 324.632L302.464 324.392L302.896 316.16H312.136ZM325.901 332H315.773V330.44L320.405 325.568C321.205 324.736 321.789 324.104 322.157 323.672C322.525 323.24 322.853 322.728 323.141 322.136C323.445 321.544 323.597 320.952 323.597 320.36C323.597 319.336 323.317 318.616 322.757 318.2C322.197 317.784 321.325 317.576 320.141 317.576C319.101 317.576 317.941 317.712 316.661 317.984L316.037 318.104L315.893 316.568C317.413 316.136 318.981 315.92 320.597 315.92C322.213 315.92 323.429 316.264 324.245 316.952C325.077 317.624 325.493 318.696 325.493 320.168C325.493 321.288 325.245 322.264 324.749 323.096C324.253 323.928 323.397 324.928 322.181 326.096L317.957 330.392H325.901V332ZM336.588 327.008C336.588 329.408 337.884 330.608 340.476 330.608C341.82 330.608 342.828 330.328 343.5 329.768C344.188 329.192 344.532 328.272 344.532 327.008V315.392H346.356V326.96C346.356 328.816 345.86 330.16 344.868 330.992C343.892 331.824 342.444 332.24 340.524 332.24C338.604 332.24 337.156 331.824 336.18 330.992C335.22 330.16 334.74 328.816 334.74 326.96V315.392H336.588V327.008ZM354.89 316.76C352.49 316.76 351.29 317.664 351.29 319.472C351.29 320.48 351.562 321.176 352.106 321.56C352.666 321.928 353.786 322.304 355.466 322.688C357.162 323.056 358.362 323.544 359.066 324.152C359.77 324.744 360.122 325.728 360.122 327.104C360.122 330.512 358.354 332.216 354.818 332.216C353.65 332.216 352.186 332.08 350.426 331.808L349.562 331.688L349.754 330.152C351.93 330.44 353.586 330.584 354.722 330.584C357.09 330.584 358.274 329.472 358.274 327.248C358.274 326.352 358.01 325.712 357.482 325.328C356.97 324.928 356.002 324.592 354.578 324.32C352.706 323.92 351.378 323.408 350.594 322.784C349.81 322.144 349.418 321.08 349.418 319.592C349.418 316.616 351.202 315.128 354.77 315.128C355.938 315.128 357.338 315.248 358.97 315.488L359.786 315.608L359.618 317.168C357.394 316.896 355.818 316.76 354.89 316.76ZM369.241 332H363.313V315.392H369.241C371.945 315.392 373.737 316.464 374.617 318.608C375.129 319.84 375.385 321.456 375.385 323.456C375.385 327.632 374.345 330.264 372.265 331.352C371.433 331.784 370.425 332 369.241 332ZM373.489 323.456C373.489 320.272 372.777 318.288 371.353 317.504C370.777 317.184 370.073 317.024 369.241 317.024H365.161V330.368H369.241C372.073 330.368 373.489 328.064 373.489 323.456Z" fill="white"/>
<path d="M466.482 131.39C467.61 131.09 468.804 130.94 470.064 130.94C471.336 130.94 472.254 131.18 472.818 131.66C473.394 132.14 473.682 132.914 473.682 133.982C473.682 135.17 473.13 136.04 472.026 136.592L471.81 136.7C472.542 136.928 473.088 137.246 473.448 137.654C473.808 138.062 473.988 138.728 473.988 139.652C473.988 140.84 473.676 141.728 473.052 142.316C472.44 142.892 471.48 143.18 470.172 143.18C469.044 143.18 467.928 143.06 466.824 142.82L466.284 142.712L466.392 141.776C467.676 142.04 468.906 142.172 470.082 142.172C471.918 142.172 472.836 141.35 472.836 139.706C472.836 138.17 471.966 137.36 470.226 137.276H467.814V136.304H470.208C470.748 136.304 471.27 136.094 471.774 135.674C472.278 135.254 472.53 134.684 472.53 133.964C472.53 133.244 472.332 132.728 471.936 132.416C471.552 132.092 470.886 131.93 469.938 131.93C468.99 131.93 468.024 132.026 467.04 132.218L466.59 132.308L466.482 131.39ZM483.808 132.128C482.764 132.008 481.714 131.948 480.658 131.948C479.614 131.948 478.798 132.332 478.21 133.1C477.622 133.856 477.328 134.948 477.328 136.376L477.796 136.196C478.816 135.812 479.71 135.62 480.478 135.62C483.118 135.62 484.438 136.832 484.438 139.256C484.438 140.504 484.084 141.47 483.376 142.154C482.668 142.838 481.654 143.18 480.334 143.18C477.562 143.18 476.176 141.116 476.176 136.988C476.176 134.924 476.572 133.4 477.364 132.416C478.168 131.432 479.29 130.94 480.73 130.94C481.546 130.94 482.452 131.012 483.448 131.156L483.916 131.21L483.808 132.128ZM480.406 136.61C479.974 136.61 479.5 136.676 478.984 136.808C478.468 136.928 478.06 137.054 477.76 137.186L477.31 137.384C477.346 140.576 478.354 142.172 480.334 142.172C481.294 142.172 482.026 141.926 482.53 141.434C483.034 140.93 483.286 140.216 483.286 139.292C483.286 137.504 482.326 136.61 480.406 136.61ZM493.79 131.12V132.146H487.904L487.58 136.34C488.54 135.812 489.524 135.548 490.532 135.548C493.052 135.548 494.312 136.712 494.312 139.04C494.312 140.384 493.964 141.404 493.268 142.1C492.572 142.796 491.6 143.144 490.352 143.144C489.332 143.144 488.228 143.024 487.04 142.784L486.464 142.658L486.608 141.74C487.964 142.016 489.134 142.154 490.118 142.154C491.102 142.154 491.852 141.89 492.368 141.362C492.896 140.834 493.16 140.096 493.16 139.148C493.16 138.188 492.92 137.516 492.44 137.132C491.96 136.736 491.288 136.538 490.424 136.538C489.968 136.538 489.494 136.61 489.002 136.754C488.51 136.886 488.132 137.024 487.868 137.168L487.454 137.366L486.626 137.222L486.968 131.12H493.79ZM500.42 142.064C500.744 141.464 501.014 140.78 501.23 140.012C501.446 139.232 501.554 138.38 501.554 137.456V134H507.368V142.064H508.196V145.232H507.152V143.018H500.798V145.232H499.754V142.064H500.42ZM502.58 137.582C502.58 138.506 502.484 139.328 502.292 140.048C502.112 140.768 501.878 141.44 501.59 142.064H506.306V134.954H502.58V137.582ZM509.913 134H510.975V137.996H515.961V134H517.023V143H515.961V138.95H510.975V143H509.913V134ZM525.508 142.1L526.048 142.046L526.084 142.928C524.728 143.096 523.582 143.18 522.646 143.18C521.35 143.168 520.444 142.784 519.928 142.028C519.412 141.272 519.154 140.108 519.154 138.536C519.154 135.392 520.39 133.82 522.862 133.82C524.05 133.82 524.938 134.162 525.526 134.846C526.114 135.518 526.408 136.598 526.408 138.086L526.372 138.95H520.252C520.252 140.054 520.438 140.876 520.81 141.416C521.194 141.944 521.842 142.208 522.754 142.208C523.678 142.208 524.596 142.172 525.508 142.1ZM520.252 138.05H525.328C525.328 136.862 525.13 136.016 524.734 135.512C524.35 135.008 523.726 134.756 522.862 134.756C522.01 134.756 521.362 135.02 520.918 135.548C520.474 136.064 520.252 136.898 520.252 138.05ZM534.633 143.018V135.044H534.489L530.133 143.018H528.441V134H529.503V141.902H529.647L534.003 134H535.695V143.018H534.633ZM530.853 131.102C531.141 131.402 531.543 131.552 532.059 131.552C532.575 131.552 532.977 131.402 533.265 131.102C533.565 130.802 533.721 130.418 533.733 129.95H534.669C534.645 130.658 534.393 131.246 533.913 131.714C533.445 132.17 532.827 132.398 532.059 132.398C531.291 132.398 530.673 132.17 530.205 131.714C529.737 131.246 529.491 130.658 529.467 129.95H530.385C530.397 130.43 530.553 130.814 530.853 131.102Z" fill="white"/>
<line x1="101" y1="351" x2="552" y2="351" stroke="#696977" stroke-width="4" stroke-linecap="round"/>
<line x1="101" y1="351" x2="197" y2="351" stroke="#D46BFE" stroke-width="4" stroke-linecap="round"/>
<circle cx="201" cy="351" r="6" fill="white"/>
<circle cx="201" cy="351" r="5" fill="#D46BFE"/>
<path d="M244.28 436V423.52H243.9L238.52 436H235.7V422.16H237.22V434.64H237.64L242.94 422.16H245.82V436H244.28ZM248.956 426H250.436V430.3H255.616V426H257.096V436H255.616V431.6H250.436V436H248.956V426ZM266.151 433.12C266.165 433.693 266.011 434.113 265.691 434.38C265.385 434.633 264.831 434.76 264.031 434.76H261.451V431.44H264.251C265.505 431.44 266.138 432 266.151 433.12ZM265.971 428.74C265.971 429.727 265.391 430.22 264.231 430.22H261.451V427.26H264.351C265.431 427.26 265.971 427.753 265.971 428.74ZM264.011 436C266.491 436 267.731 435.04 267.731 433.12C267.731 432.64 267.618 432.167 267.391 431.7C267.165 431.22 266.811 430.893 266.331 430.72C266.491 430.653 266.631 430.567 266.751 430.46C266.871 430.34 266.985 430.213 267.091 430.08C267.371 429.667 267.505 429.167 267.491 428.58C267.478 426.86 266.418 426 264.311 426H259.971V436H264.011ZM276.576 434.76L277.156 434.7L277.196 435.88C275.676 436.093 274.376 436.2 273.296 436.2C271.856 436.2 270.836 435.787 270.236 434.96C269.636 434.12 269.336 432.82 269.336 431.06C269.336 427.553 270.729 425.8 273.516 425.8C274.863 425.8 275.869 426.18 276.536 426.94C277.203 427.687 277.536 428.867 277.536 430.48L277.456 431.62H270.856C270.856 432.727 271.056 433.547 271.456 434.08C271.856 434.613 272.549 434.88 273.536 434.88C274.536 434.88 275.549 434.84 276.576 434.76ZM276.036 430.42C276.036 429.193 275.836 428.327 275.436 427.82C275.049 427.313 274.409 427.06 273.516 427.06C272.636 427.06 271.969 427.327 271.516 427.86C271.076 428.393 270.849 429.247 270.836 430.42H276.036ZM283.614 425.8C284.054 425.8 284.8 425.88 285.854 426.04L286.334 426.1L286.274 427.32C285.207 427.2 284.42 427.14 283.914 427.14C282.78 427.14 282.007 427.413 281.594 427.96C281.194 428.493 280.994 429.493 280.994 430.96C280.994 432.413 281.18 433.427 281.554 434C281.94 434.573 282.734 434.86 283.934 434.86L286.294 434.68L286.354 435.92C285.114 436.107 284.187 436.2 283.574 436.2C282.014 436.2 280.934 435.8 280.334 435C279.747 434.2 279.454 432.853 279.454 430.96C279.454 429.053 279.774 427.72 280.414 426.96C281.054 426.187 282.12 425.8 283.614 425.8ZM287.745 426H296.225V427.28H292.725V436H291.245V427.28H287.745V426ZM305.112 436.02V427.6H304.952L300.492 436.02H298.272V426H299.752V434.32H299.912L304.372 426H306.572V436.02H305.112ZM309.444 440.44V426H310.924V426.72C311.937 426.107 312.937 425.8 313.924 425.8C315.191 425.8 316.111 426.207 316.684 427.02C317.257 427.82 317.544 429.147 317.544 431C317.544 432.853 317.204 434.187 316.524 435C315.857 435.8 314.744 436.2 313.184 436.2C312.371 436.2 311.624 436.127 310.944 435.98V440.44H309.444ZM313.704 427.14C313.304 427.14 312.871 427.207 312.404 427.34C311.951 427.473 311.591 427.607 311.324 427.74L310.944 427.94V434.68C311.891 434.827 312.611 434.9 313.104 434.9C314.184 434.9 314.937 434.593 315.364 433.98C315.804 433.367 316.024 432.367 316.024 430.98C316.024 429.593 315.824 428.607 315.424 428.02C315.037 427.433 314.464 427.14 313.704 427.14ZM319.551 430.98C319.551 429.153 319.877 427.833 320.531 427.02C321.184 426.207 322.284 425.8 323.831 425.8C325.391 425.8 326.491 426.207 327.131 427.02C327.784 427.833 328.111 429.153 328.111 430.98C328.111 432.807 327.804 434.133 327.191 434.96C326.577 435.787 325.457 436.2 323.831 436.2C322.204 436.2 321.084 435.787 320.471 434.96C319.857 434.133 319.551 432.807 319.551 430.98ZM321.091 430.94C321.091 432.407 321.264 433.433 321.611 434.02C321.971 434.607 322.711 434.9 323.831 434.9C324.964 434.9 325.704 434.613 326.051 434.04C326.397 433.453 326.571 432.427 326.571 430.96C326.571 429.493 326.377 428.487 325.991 427.94C325.604 427.38 324.884 427.1 323.831 427.1C322.791 427.1 322.071 427.38 321.671 427.94C321.284 428.487 321.091 429.487 321.091 430.94ZM336.737 433.12C336.751 433.693 336.597 434.113 336.277 434.38C335.971 434.633 335.417 434.76 334.617 434.76H332.037V431.44H334.837C336.091 431.44 336.724 432 336.737 433.12ZM336.557 428.74C336.557 429.727 335.977 430.22 334.817 430.22H332.037V427.26H334.937C336.017 427.26 336.557 427.753 336.557 428.74ZM334.597 436C337.077 436 338.317 435.04 338.317 433.12C338.317 432.64 338.204 432.167 337.977 431.7C337.751 431.22 337.397 430.893 336.917 430.72C337.077 430.653 337.217 430.567 337.337 430.46C337.457 430.34 337.571 430.213 337.677 430.08C337.957 429.667 338.091 429.167 338.077 428.58C338.064 426.86 337.004 426 334.897 426H330.557V436H334.597ZM347.422 429.02V434.14C347.462 434.633 347.849 434.927 348.582 435.02L348.522 436.2C347.469 436.2 346.675 435.933 346.142 435.4C344.942 435.933 343.742 436.2 342.542 436.2C341.622 436.2 340.922 435.94 340.442 435.42C339.962 434.9 339.722 434.153 339.722 433.18C339.722 432.207 339.969 431.493 340.462 431.04C340.955 430.573 341.729 430.287 342.782 430.18L345.922 429.88V429.02C345.922 428.34 345.775 427.853 345.482 427.56C345.189 427.267 344.789 427.12 344.282 427.12C343.215 427.12 342.109 427.187 340.962 427.32L340.342 427.38L340.282 426.24C341.749 425.947 343.049 425.8 344.182 425.8C345.315 425.8 346.135 426.06 346.642 426.58C347.162 427.1 347.422 427.913 347.422 429.02ZM341.262 433.1C341.262 434.327 341.769 434.94 342.782 434.94C343.689 434.94 344.582 434.787 345.462 434.48L345.922 434.32V431.02L342.962 431.3C342.362 431.353 341.929 431.527 341.662 431.82C341.395 432.113 341.262 432.54 341.262 433.1ZM349.541 426H358.021V427.28H354.521V436H353.041V427.28H349.541V426ZM364.069 431.32C364.669 431.32 365.089 431.447 365.329 431.7C365.569 431.967 365.682 432.42 365.669 433.06C365.656 433.687 365.549 434.12 365.349 434.36C365.149 434.6 364.722 434.72 364.069 434.72H361.549V431.32H364.069ZM364.069 436C365.109 436 365.882 435.78 366.389 435.34C366.896 434.887 367.149 434.127 367.149 433.06C367.149 432.02 366.902 431.26 366.409 430.78C365.929 430.287 365.169 430.04 364.129 430.04H361.549V426H360.069V436H364.069ZM377.364 425.8C377.804 425.8 378.55 425.88 379.604 426.04L380.084 426.1L380.024 427.32C378.957 427.2 378.17 427.14 377.664 427.14C376.53 427.14 375.757 427.413 375.344 427.96C374.944 428.493 374.744 429.493 374.744 430.96C374.744 432.413 374.93 433.427 375.304 434C375.69 434.573 376.484 434.86 377.684 434.86L380.044 434.68L380.104 435.92C378.864 436.107 377.937 436.2 377.324 436.2C375.764 436.2 374.684 435.8 374.084 435C373.497 434.2 373.204 432.853 373.204 430.96C373.204 429.053 373.524 427.72 374.164 426.96C374.804 426.187 375.87 425.8 377.364 425.8ZM389.135 434.76L389.715 434.7L389.755 435.88C388.235 436.093 386.935 436.2 385.855 436.2C384.415 436.2 383.395 435.787 382.795 434.96C382.195 434.12 381.895 432.82 381.895 431.06C381.895 427.553 383.288 425.8 386.075 425.8C387.421 425.8 388.428 426.18 389.095 426.94C389.761 427.687 390.095 428.867 390.095 430.48L390.015 431.62H383.415C383.415 432.727 383.615 433.547 384.015 434.08C384.415 434.613 385.108 434.88 386.095 434.88C387.095 434.88 388.108 434.84 389.135 434.76ZM388.595 430.42C388.595 429.193 388.395 428.327 387.995 427.82C387.608 427.313 386.968 427.06 386.075 427.06C385.195 427.06 384.528 427.327 384.075 427.86C383.635 428.393 383.408 429.247 383.395 430.42H388.595ZM399.272 436.02V427.6H399.112L394.652 436.02H392.432V426H393.912V434.32H394.072L398.532 426H400.732V436.02H399.272ZM394.812 421.48C394.839 421.987 395.006 422.393 395.312 422.7C395.619 423.007 396.032 423.16 396.552 423.16C397.086 423.16 397.506 423.007 397.812 422.7C398.119 422.393 398.279 421.987 398.292 421.48H399.532C399.492 422.28 399.206 422.947 398.672 423.48C398.139 424.013 397.432 424.28 396.552 424.28C395.686 424.28 394.986 424.013 394.452 423.48C393.919 422.947 393.632 422.28 393.592 421.48H394.812ZM410.484 426V436H409.004V432.16C408.884 432.2 408.724 432.253 408.524 432.32C408.324 432.373 408.011 432.447 407.584 432.54C407.157 432.62 406.691 432.66 406.184 432.66C405.237 432.66 404.464 432.42 403.864 431.94C403.277 431.447 402.984 430.76 402.984 429.88V426H404.444V429.88C404.444 430.84 405.044 431.333 406.244 431.36C406.697 431.373 407.144 431.333 407.584 431.24C408.024 431.147 408.344 431.073 408.544 431.02C408.757 430.953 408.911 430.9 409.004 430.86V426H410.484ZM420.43 429.02V434.14C420.47 434.633 420.856 434.927 421.59 435.02L421.53 436.2C420.476 436.2 419.683 435.933 419.15 435.4C417.95 435.933 416.75 436.2 415.55 436.2C414.63 436.2 413.93 435.94 413.45 435.42C412.97 434.9 412.73 434.153 412.73 433.18C412.73 432.207 412.976 431.493 413.47 431.04C413.963 430.573 414.736 430.287 415.79 430.18L418.93 429.88V429.02C418.93 428.34 418.783 427.853 418.49 427.56C418.196 427.267 417.796 427.12 417.29 427.12C416.223 427.12 415.116 427.187 413.97 427.32L413.35 427.38L413.29 426.24C414.756 425.947 416.056 425.8 417.19 425.8C418.323 425.8 419.143 426.06 419.65 426.58C420.17 427.1 420.43 427.913 420.43 429.02ZM414.27 433.1C414.27 434.327 414.776 434.94 415.79 434.94C416.696 434.94 417.59 434.787 418.47 434.48L418.93 434.32V431.02L415.97 431.3C415.37 431.353 414.936 431.527 414.67 431.82C414.403 432.113 414.27 432.54 414.27 433.1ZM427.129 425.8C427.569 425.8 428.316 425.88 429.369 426.04L429.849 426.1L429.789 427.32C428.723 427.2 427.936 427.14 427.429 427.14C426.296 427.14 425.523 427.413 425.109 427.96C424.709 428.493 424.509 429.493 424.509 430.96C424.509 432.413 424.696 433.427 425.069 434C425.456 434.573 426.249 434.86 427.449 434.86L429.809 434.68L429.869 435.92C428.629 436.107 427.703 436.2 427.089 436.2C425.529 436.2 424.449 435.8 423.849 435C423.263 434.2 422.969 432.853 422.969 430.96C422.969 429.053 423.289 427.72 423.929 426.96C424.569 426.187 425.636 425.8 427.129 425.8Z" fill="white"/>
<rect x="182.5" y="402.5" width="299" height="53" rx="7.5" stroke="white"/>
<rect x="49.5" y="45.5" width="566" height="440" rx="11.5" stroke="url(#paint1_linear_128_1823)" shape-rendering="crispEdges"/>
</g>
<defs>
<filter id="filter0_bd_128_1823" x="0" y="0" width="665" height="539" filterUnits="userSpaceOnUse" color-interpolation-filters="sRGB">
<feFlood flood-opacity="0" result="BackgroundImageFix"/>
<feGaussianBlur in="BackgroundImageFix" stdDeviation="10.5"/>
<feComposite in2="SourceAlpha" operator="in" result="effect1_backgroundBlur_128_1823"/>
<feColorMatrix in="SourceAlpha" type="matrix" values="0 0 0 0 0 0 0 0 0 0 0 0 0 0 0 0 0 0 127 0" result="hardAlpha"/>
<feOffset dy="4"/>
<feGaussianBlur stdDeviation="24.5"/>
<feComposite in2="hardAlpha" operator="out"/>
<feColorMatrix type="matrix" values="0 0 0 0 0 0 0 0 0 0 0 0 0 0 0 0 0 0 0.3 0"/>
<feBlend mode="normal" in2="effect1_backgroundBlur_128_1823" result="effect2_dropShadow_128_1823"/>
<feBlend mode="normal" in="SourceGraphic" in2="effect2_dropShadow_128_1823" result="shape"/>
</filter>
<filter id="filter1_ii_128_1823" x="84" y="112" width="158" height="52" filterUnits="userSpaceOnUse" color-interpolation-filters="sRGB">
<feFlood flood-opacity="0" result="BackgroundImageFix"/>
<feBlend mode="normal" in="SourceGraphic" in2="BackgroundImageFix" result="shape"/>
<feColorMatrix in="SourceAlpha" type="matrix" values="0 0 0 0 0 0 0 0 0 0 0 0 0 0 0 0 0 0 127 0" result="hardAlpha"/>
<feOffset dx="2" dy="2"/>
<feGaussianBlur stdDeviation="2"/>
<feComposite in2="hardAlpha" operator="arithmetic" k2="-1" k3="1"/>
<feColorMatrix type="matrix" values="0 0 0 0 0 0 0 0 0 0 0 0 0 0 0 0 0 0 0.15 0"/>
<feBlend mode="normal" in2="shape" result="effect1_innerShadow_128_1823"/>
<feColorMatrix in="SourceAlpha" type="matrix" values="0 0 0 0 0 0 0 0 0 0 0 0 0 0 0 0 0 0 127 0" result="hardAlpha"/>
<feOffset dx="-2" dy="-2"/>
<feGaussianBlur stdDeviation="2"/>
<feComposite in2="hardAlpha" operator="arithmetic" k2="-1" k3="1"/>
<feColorMatrix type="matrix" values="0 0 0 0 1 0 0 0 0 1 0 0 0 0 1 0 0 0 0.15 0"/>
<feBlend mode="normal" in2="effect1_innerShadow_128_1823" result="effect2_innerShadow_128_1823"/>
</filter>
<filter id="filter2_ii_128_1823" x="253" y="112" width="158" height="52" filterUnits="userSpaceOnUse" color-interpolation-filters="sRGB">
<feFlood flood-opacity="0" result="BackgroundImageFix"/>
<feBlend mode="normal" in="SourceGraphic" in2="BackgroundImageFix" result="shape"/>
<feColorMatrix in="SourceAlpha" type="matrix" values="0 0 0 0 0 0 0 0 0 0 0 0 0 0 0 0 0 0 127 0" result="hardAlpha"/>
<feOffset dx="2" dy="2"/>
<feGaussianBlur stdDeviation="2"/>
<feComposite in2="hardAlpha" operator="arithmetic" k2="-1" k3="1"/>
<feColorMatrix type="matrix" values="0 0 0 0 0 0 0 0 0 0 0 0 0 0 0 0 0 0 0.15 0"/>
<feBlend mode="normal" in2="shape" result="effect1_innerShadow_128_1823"/>
<feColorMatrix in="SourceAlpha" type="matrix" values="0 0 0 0 0 0 0 0 0 0 0 0 0 0 0 0 0 0 127 0" result="hardAlpha"/>
<feOffset dx="-2" dy="-2"/>
<feGaussianBlur stdDeviation="2"/>
<feComposite in2="hardAlpha" operator="arithmetic" k2="-1" k3="1"/>
<feColorMatrix type="matrix" values="0 0 0 0 1 0 0 0 0 1 0 0 0 0 1 0 0 0 0.15 0"/>
<feBlend mode="normal" in2="effect1_innerShadow_128_1823" result="effect2_innerShadow_128_1823"/>
</filter>
<filter id="filter3_ii_128_1823" x="422" y="112" width="158" height="52" filterUnits="userSpaceOnUse" color-interpolation-filters="sRGB">
<feFlood flood-opacity="0" result="BackgroundImageFix"/>
<feBlend mode="normal" in="SourceGraphic" in2="BackgroundImageFix" result="shape"/>
<feColorMatrix in="SourceAlpha" type="matrix" values="0 0 0 0 0 0 0 0 0 0 0 0 0 0 0 0 0 0 127 0" result="hardAlpha"/>
<feOffset dx="2" dy="2"/>
<feGaussianBlur stdDeviation="2"/>
<feComposite in2="hardAlpha" operator="arithmetic" k2="-1" k3="1"/>
<feColorMatrix type="matrix" values="0 0 0 0 0 0 0 0 0 0 0 0 0 0 0 0 0 0 0.15 0"/>
<feBlend mode="normal" in2="shape" result="effect1_innerShadow_128_1823"/>
<feColorMatrix in="SourceAlpha" type="matrix" values="0 0 0 0 0 0 0 0 0 0 0 0 0 0 0 0 0 0 127 0" result="hardAlpha"/>
<feOffset dx="-2" dy="-2"/>
<feGaussianBlur stdDeviation="2"/>
<feComposite in2="hardAlpha" operator="arithmetic" k2="-1" k3="1"/>
<feColorMatrix type="matrix" values="0 0 0 0 1 0 0 0 0 1 0 0 0 0 1 0 0 0 0.15 0"/>
<feBlend mode="normal" in2="effect1_innerShadow_128_1823" result="effect2_innerShadow_128_1823"/>
</filter>
<filter id="filter4_ii_128_1823" x="84" y="192" width="496" height="52" filterUnits="userSpaceOnUse" color-interpolation-filters="sRGB">
<feFlood flood-opacity="0" result="BackgroundImageFix"/>
<feBlend mode="normal" in="SourceGraphic" in2="BackgroundImageFix" result="shape"/>
<feColorMatrix in="SourceAlpha" type="matrix" values="0 0 0 0 0 0 0 0 0 0 0 0 0 0 0 0 0 0 127 0" result="hardAlpha"/>
<feOffset dx="2" dy="2"/>
<feGaussianBlur stdDeviation="2"/>
<feComposite in2="hardAlpha" operator="arithmetic" k2="-1" k3="1"/>
<feColorMatrix type="matrix" values="0 0 0 0 0 0 0 0 0 0 0 0 0 0 0 0 0 0 0.15 0"/>
<feBlend mode="normal" in2="shape" result="effect1_innerShadow_128_1823"/>
<feColorMatrix in="SourceAlpha" type="matrix" values="0 0 0 0 0 0 0 0 0 0 0 0 0 0 0 0 0 0 127 0" result="hardAlpha"/>
<feOffset dx="-2" dy="-2"/>
<feGaussianBlur stdDeviation="2"/>
<feComposite in2="hardAlpha" operator="arithmetic" k2="-1" k3="1"/>
<feColorMatrix type="matrix" values="0 0 0 0 1 0 0 0 0 1 0 0 0 0 1 0 0 0 0.15 0"/>
<feBlend mode="normal" in2="effect1_innerShadow_128_1823" result="effect2_innerShadow_128_1823"/>
</filter>
<filter id="filter5_ii_128_1823" x="84" y="278" width="496" height="107" filterUnits="userSpaceOnUse" color-interpolation-filters="sRGB">
<feFlood flood-opacity="0" result="BackgroundImageFix"/>
<feBlend mode="normal" in="SourceGraphic" in2="BackgroundImageFix" result="shape"/>
<feColorMatrix in="SourceAlpha" type="matrix" values="0 0 0 0 0 0 0 0 0 0 0 0 0 0 0 0 0 0 127 0" result="hardAlpha"/>
<feOffset dx="2" dy="2"/>
<feGaussianBlur stdDeviation="2"/>
<feComposite in2="hardAlpha" operator="arithmetic" k2="-1" k3="1"/>
<feColorMatrix type="matrix" values="0 0 0 0 0 0 0 0 0 0 0 0 0 0 0 0 0 0 0.15 0"/>
<feBlend mode="normal" in2="shape" result="effect1_innerShadow_128_1823"/>
<feColorMatrix in="SourceAlpha" type="matrix" values="0 0 0 0 0 0 0 0 0 0 0 0 0 0 0 0 0 0 127 0" result="hardAlpha"/>
<feOffset dx="-2" dy="-2"/>
<feGaussianBlur stdDeviation="2"/>
<feComposite in2="hardAlpha" operator="arithmetic" k2="-1" k3="1"/>
<feColorMatrix type="matrix" values="0 0 0 0 1 0 0 0 0 1 0 0 0 0 1 0 0 0 0.15 0"/>
<feBlend mode="normal" in2="effect1_innerShadow_128_1823" result="effect2_innerShadow_128_1823"/>
</filter>
<radialGradient id="paint0_radial_128_1823" cx="0" cy="0" r="1" gradientUnits="userSpaceOnUse" gradientTransform="translate(65.7862 67.2888) rotate(110.029) scale(560.896 698.194)">
<stop stop-color="#656579"/>
<stop offset="1" stop-color="#282839"/>
</radialGradient>
<linearGradient id="paint1_linear_128_1823" x1="49" y1="45" x2="528.484" y2="595.64" gradientUnits="userSpaceOnUse">
<stop stop-opacity="0"/>
<stop offset="1" stop-color="white" stop-opacity="0.42"/>
</linearGradient>
</defs>
</svg>
