<svg width="1180" height="239" viewBox="0 0 1180 239" fill="none" xmlns="http://www.w3.org/2000/svg">
<path d="M2.044 27.096C2.66 25.7333 3.17333 24.1933 3.584 22.476C3.99467 20.74 4.2 18.8453 4.2 16.792V9.624H15.652V27.096H17.304V33.396H15.176V29H2.828V33.396H0.7V27.096H2.044ZM6.328 17.072C6.328 18.9573 6.12267 20.7773 5.712 22.532C5.30133 24.2867 4.83467 25.808 4.312 27.096H13.468V11.528H6.328V17.072ZM29.5282 27.264L30.3402 27.18L30.3962 28.832C28.2682 29.1307 26.4482 29.28 24.9362 29.28C22.9202 29.28 21.4922 28.7013 20.6522 27.544C19.8122 26.368 19.3922 24.548 19.3922 22.084C19.3922 17.1747 21.3429 14.72 25.2442 14.72C27.1295 14.72 28.5389 15.252 29.4722 16.316C30.4055 17.3613 30.8722 19.0133 30.8722 21.272L30.7602 22.868H21.5202C21.5202 24.4173 21.8002 25.5653 22.3602 26.312C22.9202 27.0587 23.8909 27.432 25.2722 27.432C26.6722 27.432 28.0909 27.376 29.5282 27.264ZM28.7722 21.188C28.7722 19.4707 28.4922 18.2573 27.9322 17.548C27.3909 16.8387 26.4949 16.484 25.2442 16.484C24.0122 16.484 23.0789 16.8573 22.4442 17.604C21.8282 18.3507 21.5109 19.5453 21.4922 21.188H28.7722ZM34.1449 15H45.5409V29H43.4689V16.82H36.2169V29H34.1449V15ZM48.9508 21.972C48.9508 19.4147 49.4081 17.5667 50.3228 16.428C51.2374 15.2893 52.7774 14.72 54.9428 14.72C57.1268 14.72 58.6668 15.2893 59.5628 16.428C60.4774 17.5667 60.9348 19.4147 60.9348 21.972C60.9348 24.5293 60.5054 26.3867 59.6468 27.544C58.7881 28.7013 57.2201 29.28 54.9428 29.28C52.6654 29.28 51.0974 28.7013 50.2388 27.544C49.3801 26.3867 48.9508 24.5293 48.9508 21.972ZM51.1068 21.916C51.1068 23.9693 51.3494 25.4067 51.8348 26.228C52.3388 27.0493 53.3748 27.46 54.9428 27.46C56.5294 27.46 57.5654 27.0587 58.0508 26.256C58.5361 25.4347 58.7788 23.9973 58.7788 21.944C58.7788 19.8907 58.5081 18.4813 57.9668 17.716C57.4254 16.932 56.4174 16.54 54.9428 16.54C53.4868 16.54 52.4788 16.932 51.9188 17.716C51.3774 18.4813 51.1068 19.8813 51.1068 21.916ZM67.1103 21.104C68.1183 21.104 68.9583 20.9173 69.6303 20.544C70.3956 20.1333 70.7783 19.536 70.7783 18.752C70.7783 17.968 70.517 17.4173 69.9943 17.1C69.4716 16.7827 68.5943 16.6147 67.3623 16.596C66.1303 16.5773 64.805 16.736 63.3863 17.072L63.3023 15.392C63.5263 15.336 63.7503 15.2893 63.9743 15.252C64.1983 15.196 64.6463 15.112 65.3183 15C66.009 14.8693 66.8116 14.804 67.7263 14.804C71.0676 14.804 72.7476 16.0733 72.7663 18.612C72.8036 20.0493 72.253 21.0947 71.1143 21.748C71.861 22.0653 72.4023 22.476 72.7383 22.98C73.0743 23.484 73.2423 24.1933 73.2423 25.108C73.2423 27.9453 71.329 29.3173 67.5023 29.224C65.8223 29.1867 64.385 29.0187 63.1903 28.72L63.3023 26.956C64.161 27.124 64.8423 27.2453 65.3463 27.32C65.8503 27.3947 66.653 27.432 67.7543 27.432C68.8556 27.432 69.705 27.264 70.3023 26.928C70.8996 26.592 71.1983 25.976 71.1983 25.08C71.1983 24.1653 70.825 23.5307 70.0783 23.176C69.4436 22.8773 68.4543 22.728 67.1103 22.728H65.4303V21.104H67.1103ZM86.2404 29.028V17.24H86.0164L79.7724 29.028H76.6644V15H78.7364V26.648H78.9604L85.2044 15H88.2844V29.028H86.2404ZM91.1291 15H103.001V16.792H98.1011V29H96.0291V16.792H91.1291V15ZM104.804 32.444L106.092 26.004H108.416L106.54 32.444H104.804ZM120.634 23.176C120.634 25.976 122.146 27.376 125.17 27.376C126.738 27.376 127.914 27.0493 128.698 26.396C129.501 25.724 129.902 24.6507 129.902 23.176V9.624H132.03V23.12C132.03 25.2853 131.452 26.8533 130.294 27.824C129.156 28.7947 127.466 29.28 125.226 29.28C122.986 29.28 121.297 28.7947 120.158 27.824C119.038 26.8533 118.478 25.2853 118.478 23.12V9.624H120.634V23.176ZM141.986 11.22C139.186 11.22 137.786 12.2747 137.786 14.384C137.786 15.56 138.103 16.372 138.738 16.82C139.391 17.2493 140.698 17.688 142.658 18.136C144.636 18.5653 146.036 19.1347 146.858 19.844C147.679 20.5347 148.09 21.6827 148.09 23.288C148.09 27.264 146.027 29.252 141.902 29.252C140.539 29.252 138.831 29.0933 136.778 28.776L135.77 28.636L135.994 26.844C138.532 27.18 140.464 27.348 141.79 27.348C144.552 27.348 145.934 26.0507 145.934 23.456C145.934 22.4107 145.626 21.664 145.01 21.216C144.412 20.7493 143.283 20.3573 141.622 20.04C139.438 19.5733 137.888 18.976 136.974 18.248C136.059 17.5013 135.602 16.26 135.602 14.524C135.602 11.052 137.683 9.316 141.846 9.316C143.208 9.316 144.842 9.456 146.746 9.736L147.698 9.876L147.502 11.696C144.907 11.3787 143.068 11.22 141.986 11.22ZM158.73 29H151.814V9.624H158.73C161.884 9.624 163.975 10.8747 165.002 13.376C165.599 14.8133 165.898 16.6987 165.898 19.032C165.898 23.904 164.684 26.9747 162.258 28.244C161.287 28.748 160.111 29 158.73 29ZM163.686 19.032C163.686 15.3173 162.855 13.0027 161.194 12.088C160.522 11.7147 159.7 11.528 158.73 11.528H153.97V27.096H158.73C162.034 27.096 163.686 24.408 163.686 19.032Z" fill="#D46BFE"/>
<path d="M8.558 63.48V78H6.864V65.372L3.124 67.836L2.354 66.56L6.974 63.48H8.558ZM18.4485 63.238C19.6512 63.238 20.6265 63.4653 21.3745 63.92C22.9585 64.8587 23.7505 67.2053 23.7505 70.96C23.7505 73.6147 23.3105 75.492 22.4305 76.592C21.5505 77.6773 20.2305 78.22 18.4705 78.22C16.7105 78.22 15.3832 77.6847 14.4885 76.614C13.6085 75.5287 13.1685 73.6073 13.1685 70.85C13.1685 68.078 13.6012 66.12 14.4665 64.976C15.3465 63.8173 16.6739 63.238 18.4485 63.238ZM18.4705 64.756C17.6345 64.756 16.9745 64.932 16.4905 65.284C15.4492 66.0027 14.9285 67.902 14.9285 70.982C14.9285 73.1527 15.2145 74.656 15.7865 75.492C16.3585 76.3133 17.2532 76.724 18.4705 76.724C19.6879 76.724 20.5825 76.306 21.1545 75.47C21.7265 74.634 22.0125 73.0867 22.0125 70.828C22.0125 68.5547 21.7339 66.978 21.1765 66.098C20.6339 65.2033 19.7319 64.756 18.4705 64.756ZM30.7591 63.238C31.9618 63.238 32.9371 63.4653 33.6851 63.92C35.2691 64.8587 36.0611 67.2053 36.0611 70.96C36.0611 73.6147 35.6211 75.492 34.7411 76.592C33.8611 77.6773 32.5411 78.22 30.7811 78.22C29.0211 78.22 27.6938 77.6847 26.7991 76.614C25.9191 75.5287 25.4791 73.6073 25.4791 70.85C25.4791 68.078 25.9118 66.12 26.7771 64.976C27.6571 63.8173 28.9844 63.238 30.7591 63.238ZM30.7811 64.756C29.9451 64.756 29.2851 64.932 28.8011 65.284C27.7598 66.0027 27.2391 67.902 27.2391 70.982C27.2391 73.1527 27.5251 74.656 28.0971 75.492C28.6691 76.3133 29.5638 76.724 30.7811 76.724C31.9984 76.724 32.8931 76.306 33.4651 75.47C34.0371 74.634 34.3231 73.0867 34.3231 70.828C34.3231 68.5547 34.0444 66.978 33.4871 66.098C32.9444 65.2033 32.0424 64.756 30.7811 64.756ZM38.4276 72.72V71.18H45.0936V72.72H38.4276ZM57.3801 78H48.0961V76.57L52.3421 72.104C53.0755 71.3413 53.6108 70.762 53.9481 70.366C54.2855 69.97 54.5861 69.5007 54.8501 68.958C55.1288 68.4153 55.2681 67.8727 55.2681 67.33C55.2681 66.3913 55.0115 65.7313 54.4981 65.35C53.9848 64.9687 53.1855 64.778 52.1001 64.778C51.1468 64.778 50.0835 64.9027 48.9101 65.152L48.3381 65.262L48.2061 63.854C49.5995 63.458 51.0368 63.26 52.5181 63.26C53.9995 63.26 55.1141 63.5753 55.8621 64.206C56.6248 64.822 57.0061 65.8047 57.0061 67.154C57.0061 68.1807 56.7788 69.0753 56.3241 69.838C55.8695 70.6007 55.0848 71.5173 53.9701 72.588L50.0981 76.526H57.3801V78ZM65.0267 63.238C66.2293 63.238 67.2047 63.4653 67.9527 63.92C69.5367 64.8587 70.3287 67.2053 70.3287 70.96C70.3287 73.6147 69.8887 75.492 69.0087 76.592C68.1287 77.6773 66.8087 78.22 65.0487 78.22C63.2887 78.22 61.9613 77.6847 61.0667 76.614C60.1867 75.5287 59.7467 73.6073 59.7467 70.85C59.7467 68.078 60.1793 66.12 61.0447 64.976C61.9247 63.8173 63.252 63.238 65.0267 63.238ZM65.0487 64.756C64.2127 64.756 63.5527 64.932 63.0687 65.284C62.0273 66.0027 61.5067 67.902 61.5067 70.982C61.5067 73.1527 61.7927 74.656 62.3647 75.492C62.9367 76.3133 63.8313 76.724 65.0487 76.724C66.266 76.724 67.1607 76.306 67.7327 75.47C68.3047 74.634 68.5907 73.0867 68.5907 70.828C68.5907 68.5547 68.312 66.978 67.7547 66.098C67.212 65.2033 66.31 64.756 65.0487 64.756ZM77.3372 63.238C78.5399 63.238 79.5152 63.4653 80.2632 63.92C81.8472 64.8587 82.6392 67.2053 82.6392 70.96C82.6392 73.6147 82.1992 75.492 81.3192 76.592C80.4392 77.6773 79.1192 78.22 77.3592 78.22C75.5992 78.22 74.2719 77.6847 73.3772 76.614C72.4972 75.5287 72.0572 73.6073 72.0572 70.85C72.0572 68.078 72.4899 66.12 73.3552 64.976C74.2352 63.8173 75.5626 63.238 77.3372 63.238ZM77.3592 64.756C76.5232 64.756 75.8632 64.932 75.3792 65.284C74.3379 66.0027 73.8172 67.902 73.8172 70.982C73.8172 73.1527 74.1032 74.656 74.6752 75.492C75.2472 76.3133 76.1419 76.724 77.3592 76.724C78.5766 76.724 79.4712 76.306 80.0432 75.47C80.6152 74.634 80.9012 73.0867 80.9012 70.828C80.9012 68.5547 80.6226 66.978 80.0652 66.098C79.5226 65.2033 78.6206 64.756 77.3592 64.756ZM89.6478 63.238C90.8504 63.238 91.8258 63.4653 92.5738 63.92C94.1578 64.8587 94.9498 67.2053 94.9498 70.96C94.9498 73.6147 94.5098 75.492 93.6298 76.592C92.7498 77.6773 91.4298 78.22 89.6698 78.22C87.9098 78.22 86.5824 77.6847 85.6878 76.614C84.8078 75.5287 84.3678 73.6073 84.3678 70.85C84.3678 68.078 84.8004 66.12 85.6658 64.976C86.5458 63.8173 87.8731 63.238 89.6478 63.238ZM89.6698 64.756C88.8338 64.756 88.1738 64.932 87.6898 65.284C86.6484 66.0027 86.1278 67.902 86.1278 70.982C86.1278 73.1527 86.4138 74.656 86.9858 75.492C87.5578 76.3133 88.4524 76.724 89.6698 76.724C90.8871 76.724 91.7818 76.306 92.3538 75.47C92.9258 74.634 93.2118 73.0867 93.2118 70.828C93.2118 68.5547 92.9331 66.978 92.3758 66.098C91.8331 65.2033 90.9311 64.756 89.6698 64.756Z" fill="white"/>
<path d="M306.138 63.238C307.341 63.238 308.316 63.4653 309.064 63.92C310.648 64.8587 311.44 67.2053 311.44 70.96C311.44 73.6147 311 75.492 310.12 76.592C309.24 77.6773 307.92 78.22 306.16 78.22C304.4 78.22 303.073 77.6847 302.178 76.614C301.298 75.5287 300.858 73.6073 300.858 70.85C300.858 68.078 301.291 66.12 302.156 64.976C303.036 63.8173 304.363 63.238 306.138 63.238ZM306.16 64.756C305.324 64.756 304.664 64.932 304.18 65.284C303.139 66.0027 302.618 67.902 302.618 70.982C302.618 73.1527 302.904 74.656 303.476 75.492C304.048 76.3133 304.943 76.724 306.16 76.724C307.377 76.724 308.272 76.306 308.844 75.47C309.416 74.634 309.702 73.0867 309.702 70.828C309.702 68.5547 309.423 66.978 308.866 66.098C308.323 65.2033 307.421 64.756 306.16 64.756ZM313.059 80.706L314.071 75.646H315.897L314.423 80.706H313.059ZM318.793 63.854C320.172 63.4433 321.646 63.238 323.215 63.238C324.799 63.238 325.943 63.5387 326.647 64.14C327.351 64.7413 327.703 65.702 327.703 67.022C327.703 67.6967 327.608 68.188 327.417 68.496C327.241 68.7893 327.094 69.0167 326.977 69.178C326.874 69.3393 326.735 69.4933 326.559 69.64C326.236 69.8893 325.98 70.0653 325.789 70.168L325.547 70.322C326.398 70.63 327.028 71.026 327.439 71.51C327.85 71.9793 328.055 72.7567 328.055 73.842C328.055 75.3233 327.674 76.4233 326.911 77.142C326.163 77.8607 324.975 78.22 323.347 78.22C322.056 78.22 320.692 78.0733 319.255 77.78L318.573 77.626L318.727 76.24C320.311 76.5627 321.792 76.724 323.171 76.724C325.268 76.7093 326.317 75.7707 326.317 73.908C326.317 72.1627 325.32 71.2533 323.325 71.18H320.399V69.728H323.325C323.941 69.728 324.535 69.486 325.107 69.002C325.679 68.5033 325.965 67.8507 325.965 67.044C325.965 66.2373 325.738 65.658 325.283 65.306C324.828 64.9393 324.066 64.756 322.995 64.756C321.822 64.756 320.663 64.866 319.519 65.086L318.947 65.196L318.793 63.854ZM331.016 72.72V71.18H337.682V72.72H331.016ZM345.304 63.238C346.507 63.238 347.482 63.4653 348.23 63.92C349.814 64.8587 350.606 67.2053 350.606 70.96C350.606 73.6147 350.166 75.492 349.286 76.592C348.406 77.6773 347.086 78.22 345.326 78.22C343.566 78.22 342.239 77.6847 341.344 76.614C340.464 75.5287 340.024 73.6073 340.024 70.85C340.024 68.078 340.457 66.12 341.322 64.976C342.202 63.8173 343.529 63.238 345.304 63.238ZM345.326 64.756C344.49 64.756 343.83 64.932 343.346 65.284C342.305 66.0027 341.784 67.902 341.784 70.982C341.784 73.1527 342.07 74.656 342.642 75.492C343.214 76.3133 344.109 76.724 345.326 76.724C346.543 76.724 347.438 76.306 348.01 75.47C348.582 74.634 348.868 73.0867 348.868 70.828C348.868 68.5547 348.589 66.978 348.032 66.098C347.489 65.2033 346.587 64.756 345.326 64.756ZM352.225 80.706L353.237 75.646H355.063L353.589 80.706H352.225ZM364.295 78V75.162H357.255V73.842L361.391 63.48H363.239L359.037 73.666H364.295V69.134H365.989V73.666H367.837V75.162H365.989V78H364.295Z" fill="white"/>
<path d="M606.138 63.238C607.341 63.238 608.316 63.4653 609.064 63.92C610.648 64.8587 611.44 67.2053 611.44 70.96C611.44 73.6147 611 75.492 610.12 76.592C609.24 77.6773 607.92 78.22 606.16 78.22C604.4 78.22 603.073 77.6847 602.178 76.614C601.298 75.5287 600.858 73.6073 600.858 70.85C600.858 68.078 601.291 66.12 602.156 64.976C603.036 63.8173 604.363 63.238 606.138 63.238ZM606.16 64.756C605.324 64.756 604.664 64.932 604.18 65.284C603.139 66.0027 602.618 67.902 602.618 70.982C602.618 73.1527 602.904 74.656 603.476 75.492C604.048 76.3133 604.943 76.724 606.16 76.724C607.377 76.724 608.272 76.306 608.844 75.47C609.416 74.634 609.702 73.0867 609.702 70.828C609.702 68.5547 609.423 66.978 608.866 66.098C608.323 65.2033 607.421 64.756 606.16 64.756ZM613.059 80.706L614.071 75.646H615.897L614.423 80.706H613.059ZM627.703 63.48V65.02H620.641L620.245 69.75C621.374 69.1487 622.511 68.848 623.655 68.848C626.735 68.848 628.275 70.278 628.275 73.138C628.275 74.7807 627.85 76.0347 626.999 76.9C626.148 77.7653 624.953 78.198 623.413 78.198C622.181 78.198 620.817 78.0367 619.321 77.714L618.595 77.56L618.793 76.218C620.48 76.5407 621.895 76.702 623.039 76.702C624.198 76.702 625.07 76.4087 625.657 75.822C626.244 75.2207 626.537 74.3847 626.537 73.314C626.537 72.2433 626.266 71.488 625.723 71.048C625.195 70.5933 624.44 70.366 623.457 70.366C622.929 70.366 622.372 70.4393 621.785 70.586C621.213 70.7327 620.773 70.8793 620.465 71.026L620.003 71.246L618.837 71.026L619.233 63.48H627.703ZM631.016 72.72V71.18H637.682V72.72H631.016ZM645.304 63.238C646.507 63.238 647.482 63.4653 648.23 63.92C649.814 64.8587 650.606 67.2053 650.606 70.96C650.606 73.6147 650.166 75.492 649.286 76.592C648.406 77.6773 647.086 78.22 645.326 78.22C643.566 78.22 642.239 77.6847 641.344 76.614C640.464 75.5287 640.024 73.6073 640.024 70.85C640.024 68.078 640.457 66.12 641.322 64.976C642.202 63.8173 643.529 63.238 645.304 63.238ZM645.326 64.756C644.49 64.756 643.83 64.932 643.346 65.284C642.305 66.0027 641.784 67.902 641.784 70.982C641.784 73.1527 642.07 74.656 642.642 75.492C643.214 76.3133 644.109 76.724 645.326 76.724C646.543 76.724 647.438 76.306 648.01 75.47C648.582 74.634 648.868 73.0867 648.868 70.828C648.868 68.5547 648.589 66.978 648.032 66.098C647.489 65.2033 646.587 64.756 645.326 64.756ZM652.225 80.706L653.237 75.646H655.063L653.589 80.706H652.225ZM666.979 65.02C665.659 64.844 664.376 64.756 663.129 64.756C661.882 64.756 660.922 65.1887 660.247 66.054C659.572 66.9193 659.235 68.1587 659.235 69.772L659.785 69.552C660.152 69.42 660.636 69.2807 661.237 69.134C661.853 68.9873 662.396 68.914 662.865 68.914C666.121 68.914 667.749 70.4173 667.749 73.424C667.749 74.964 667.302 76.152 666.407 76.988C665.527 77.8093 664.28 78.22 662.667 78.22C659.206 78.22 657.475 75.7047 657.475 70.674C657.475 68.1367 657.966 66.2667 658.949 65.064C659.946 63.8613 661.347 63.26 663.151 63.26C664.339 63.26 665.468 63.348 666.539 63.524L667.133 63.634L666.979 65.02ZM662.755 70.432C662.256 70.432 661.706 70.5053 661.105 70.652C660.518 70.784 660.056 70.916 659.719 71.048L659.213 71.268C659.228 72.94 659.506 74.2673 660.049 75.25C660.606 76.2327 661.45 76.724 662.579 76.724C663.708 76.724 664.559 76.4453 665.131 75.888C665.703 75.316 665.989 74.5167 665.989 73.49C665.989 72.4487 665.703 71.6787 665.131 71.18C664.574 70.6813 663.782 70.432 662.755 70.432Z" fill="white"/>
<path d="M906.138 63.238C907.341 63.238 908.316 63.4653 909.064 63.92C910.648 64.8587 911.44 67.2053 911.44 70.96C911.44 73.6147 911 75.492 910.12 76.592C909.24 77.6773 907.92 78.22 906.16 78.22C904.4 78.22 903.073 77.6847 902.178 76.614C901.298 75.5287 900.858 73.6073 900.858 70.85C900.858 68.078 901.291 66.12 902.156 64.976C903.036 63.8173 904.363 63.238 906.138 63.238ZM906.16 64.756C905.324 64.756 904.664 64.932 904.18 65.284C903.139 66.0027 902.618 67.902 902.618 70.982C902.618 73.1527 902.904 74.656 903.476 75.492C904.048 76.3133 904.943 76.724 906.16 76.724C907.377 76.724 908.272 76.306 908.844 75.47C909.416 74.634 909.702 73.0867 909.702 70.828C909.702 68.5547 909.423 66.978 908.866 66.098C908.323 65.2033 907.421 64.756 906.16 64.756ZM913.059 80.706L914.071 75.646H915.897L914.423 80.706H913.059ZM918.903 65.02V63.48H927.923V65.702L922.335 78.22L920.729 77.714L926.207 65.592V65.02H918.903ZM931.016 72.72V71.18H937.682V72.72H931.016ZM945.304 63.238C946.507 63.238 947.482 63.4653 948.23 63.92C949.814 64.8587 950.606 67.2053 950.606 70.96C950.606 73.6147 950.166 75.492 949.286 76.592C948.406 77.6773 947.086 78.22 945.326 78.22C943.566 78.22 942.239 77.6847 941.344 76.614C940.464 75.5287 940.024 73.6073 940.024 70.85C940.024 68.078 940.457 66.12 941.322 64.976C942.202 63.8173 943.529 63.238 945.304 63.238ZM945.326 64.756C944.49 64.756 943.83 64.932 943.346 65.284C942.305 66.0027 941.784 67.902 941.784 70.982C941.784 73.1527 942.07 74.656 942.642 75.492C943.214 76.3133 944.109 76.724 945.326 76.724C946.543 76.724 947.438 76.306 948.01 75.47C948.582 74.634 948.868 73.0867 948.868 70.828C948.868 68.5547 948.589 66.978 948.032 66.098C947.489 65.2033 946.587 64.756 945.326 64.756ZM952.225 80.706L953.237 75.646H955.063L953.589 80.706H952.225ZM958.685 64.206C959.609 63.5607 960.878 63.238 962.491 63.238C964.104 63.238 965.38 63.5607 966.319 64.206C967.272 64.8367 967.749 65.7753 967.749 67.022C967.749 67.9313 967.566 68.628 967.199 69.112C966.832 69.5813 966.209 70.014 965.329 70.41C966.209 70.806 966.869 71.2753 967.309 71.818C967.749 72.346 967.969 73.094 967.969 74.062C967.969 76.834 966.15 78.22 962.513 78.22C958.89 78.22 957.079 76.9147 957.079 74.304C957.079 73.2627 957.277 72.4707 957.673 71.928C958.084 71.3853 958.722 70.8793 959.587 70.41C958.795 70.014 958.216 69.5667 957.849 69.068C957.497 68.5547 957.321 67.8653 957.321 67C957.321 65.768 957.776 64.8367 958.685 64.206ZM958.883 74.018C958.883 75.7927 960.093 76.68 962.513 76.68C964.948 76.68 966.165 75.7487 966.165 73.886C966.165 73.1087 965.945 72.5367 965.505 72.17C965.08 71.7887 964.442 71.4733 963.591 71.224H961.281C960.474 71.444 959.873 71.774 959.477 72.214C959.081 72.6393 958.883 73.2407 958.883 74.018ZM965.945 67.22C965.945 65.592 964.808 64.778 962.535 64.778C960.262 64.778 959.125 65.5847 959.125 67.198C959.125 67.8433 959.301 68.364 959.653 68.76C960.005 69.156 960.548 69.486 961.281 69.75H963.591C964.383 69.5007 964.97 69.178 965.351 68.782C965.747 68.386 965.945 67.8653 965.945 67.22Z" fill="white"/>
<path d="M10.802 125H1.518V123.57L5.764 119.104C6.49733 118.341 7.03267 117.762 7.37 117.366C7.70733 116.97 8.008 116.501 8.272 115.958C8.55067 115.415 8.69 114.873 8.69 114.33C8.69 113.391 8.43333 112.731 7.92 112.35C7.40667 111.969 6.60733 111.778 5.522 111.778C4.56867 111.778 3.50533 111.903 2.332 112.152L1.76 112.262L1.628 110.854C3.02133 110.458 4.45867 110.26 5.94 110.26C7.42133 110.26 8.536 110.575 9.284 111.206C10.0467 111.822 10.428 112.805 10.428 114.154C10.428 115.181 10.2007 116.075 9.746 116.838C9.29133 117.601 8.50667 118.517 7.392 119.588L3.52 123.526H10.802V125ZM18.4485 110.238C19.6512 110.238 20.6265 110.465 21.3745 110.92C22.9585 111.859 23.7505 114.205 23.7505 117.96C23.7505 120.615 23.3105 122.492 22.4305 123.592C21.5505 124.677 20.2305 125.22 18.4705 125.22C16.7105 125.22 15.3832 124.685 14.4885 123.614C13.6085 122.529 13.1685 120.607 13.1685 117.85C13.1685 115.078 13.6012 113.12 14.4665 111.976C15.3465 110.817 16.6739 110.238 18.4485 110.238ZM18.4705 111.756C17.6345 111.756 16.9745 111.932 16.4905 112.284C15.4492 113.003 14.9285 114.902 14.9285 117.982C14.9285 120.153 15.2145 121.656 15.7865 122.492C16.3585 123.313 17.2532 123.724 18.4705 123.724C19.6879 123.724 20.5825 123.306 21.1545 122.47C21.7265 121.634 22.0125 120.087 22.0125 117.828C22.0125 115.555 21.7339 113.978 21.1765 113.098C20.6339 112.203 19.7319 111.756 18.4705 111.756ZM30.7591 110.238C31.9618 110.238 32.9371 110.465 33.6851 110.92C35.2691 111.859 36.0611 114.205 36.0611 117.96C36.0611 120.615 35.6211 122.492 34.7411 123.592C33.8611 124.677 32.5411 125.22 30.7811 125.22C29.0211 125.22 27.6938 124.685 26.7991 123.614C25.9191 122.529 25.4791 120.607 25.4791 117.85C25.4791 115.078 25.9118 113.12 26.7771 111.976C27.6571 110.817 28.9844 110.238 30.7591 110.238ZM30.7811 111.756C29.9451 111.756 29.2851 111.932 28.8011 112.284C27.7598 113.003 27.2391 114.902 27.2391 117.982C27.2391 120.153 27.5251 121.656 28.0971 122.492C28.6691 123.313 29.5638 123.724 30.7811 123.724C31.9984 123.724 32.8931 123.306 33.4651 122.47C34.0371 121.634 34.3231 120.087 34.3231 117.828C34.3231 115.555 34.0444 113.978 33.4871 113.098C32.9444 112.203 32.0424 111.756 30.7811 111.756ZM45.4896 110.48V125H43.7956V112.372L40.0556 114.836L39.2856 113.56L43.9056 110.48H45.4896ZM50.7382 119.72V118.18H57.4042V119.72H50.7382ZM69.3827 110.48V112.02H62.3207L61.9247 116.75C63.054 116.149 64.1907 115.848 65.3347 115.848C68.4147 115.848 69.9547 117.278 69.9547 120.138C69.9547 121.781 69.5293 123.035 68.6787 123.9C67.828 124.765 66.6327 125.198 65.0927 125.198C63.8607 125.198 62.4967 125.037 61.0007 124.714L60.2747 124.56L60.4727 123.218C62.1593 123.541 63.5747 123.702 64.7187 123.702C65.8773 123.702 66.75 123.409 67.3367 122.822C67.9233 122.221 68.2167 121.385 68.2167 120.314C68.2167 119.243 67.9453 118.488 67.4027 118.048C66.8747 117.593 66.1193 117.366 65.1367 117.366C64.6087 117.366 64.0513 117.439 63.4647 117.586C62.8927 117.733 62.4527 117.879 62.1447 118.026L61.6827 118.246L60.5167 118.026L60.9127 110.48H69.3827ZM77.3372 110.238C78.5399 110.238 79.5152 110.465 80.2632 110.92C81.8472 111.859 82.6392 114.205 82.6392 117.96C82.6392 120.615 82.1992 122.492 81.3192 123.592C80.4392 124.677 79.1192 125.22 77.3592 125.22C75.5992 125.22 74.2719 124.685 73.3772 123.614C72.4972 122.529 72.0572 120.607 72.0572 117.85C72.0572 115.078 72.4899 113.12 73.3552 111.976C74.2352 110.817 75.5626 110.238 77.3372 110.238ZM77.3592 111.756C76.5232 111.756 75.8632 111.932 75.3792 112.284C74.3379 113.003 73.8172 114.902 73.8172 117.982C73.8172 120.153 74.1032 121.656 74.6752 122.492C75.2472 123.313 76.1419 123.724 77.3592 123.724C78.5766 123.724 79.4712 123.306 80.0432 122.47C80.6152 121.634 80.9012 120.087 80.9012 117.828C80.9012 115.555 80.6226 113.978 80.0652 113.098C79.5226 112.203 78.6206 111.756 77.3592 111.756ZM89.6478 110.238C90.8504 110.238 91.8258 110.465 92.5738 110.92C94.1578 111.859 94.9498 114.205 94.9498 117.96C94.9498 120.615 94.5098 122.492 93.6298 123.592C92.7498 124.677 91.4298 125.22 89.6698 125.22C87.9098 125.22 86.5824 124.685 85.6878 123.614C84.8078 122.529 84.3678 120.607 84.3678 117.85C84.3678 115.078 84.8004 113.12 85.6658 111.976C86.5458 110.817 87.8731 110.238 89.6478 110.238ZM89.6698 111.756C88.8338 111.756 88.1738 111.932 87.6898 112.284C86.6484 113.003 86.1278 114.902 86.1278 117.982C86.1278 120.153 86.4138 121.656 86.9858 122.492C87.5578 123.313 88.4524 123.724 89.6698 123.724C90.8871 123.724 91.7818 123.306 92.3538 122.47C92.9258 121.634 93.2118 120.087 93.2118 117.828C93.2118 115.555 92.9331 113.978 92.3758 113.098C91.8331 112.203 90.9311 111.756 89.6698 111.756ZM101.958 110.238C103.161 110.238 104.136 110.465 104.884 110.92C106.468 111.859 107.26 114.205 107.26 117.96C107.26 120.615 106.82 122.492 105.94 123.592C105.06 124.677 103.74 125.22 101.98 125.22C100.22 125.22 98.893 124.685 97.9983 123.614C97.1183 122.529 96.6783 120.607 96.6783 117.85C96.6783 115.078 97.111 113.12 97.9763 111.976C98.8563 110.817 100.184 110.238 101.958 110.238ZM101.98 111.756C101.144 111.756 100.484 111.932 100 112.284C98.959 113.003 98.4383 114.902 98.4383 117.982C98.4383 120.153 98.7243 121.656 99.2963 122.492C99.8683 123.313 100.763 123.724 101.98 123.724C103.198 123.724 104.092 123.306 104.664 122.47C105.236 121.634 105.522 120.087 105.522 117.828C105.522 115.555 105.244 113.978 104.686 113.098C104.144 112.203 103.242 111.756 101.98 111.756Z" fill="white"/>
<path d="M306.138 110.238C307.341 110.238 308.316 110.465 309.064 110.92C310.648 111.859 311.44 114.205 311.44 117.96C311.44 120.615 311 122.492 310.12 123.592C309.24 124.677 307.92 125.22 306.16 125.22C304.4 125.22 303.073 124.685 302.178 123.614C301.298 122.529 300.858 120.607 300.858 117.85C300.858 115.078 301.291 113.12 302.156 111.976C303.036 110.817 304.363 110.238 306.138 110.238ZM306.16 111.756C305.324 111.756 304.664 111.932 304.18 112.284C303.139 113.003 302.618 114.902 302.618 117.982C302.618 120.153 302.904 121.656 303.476 122.492C304.048 123.313 304.943 123.724 306.16 123.724C307.377 123.724 308.272 123.306 308.844 122.47C309.416 121.634 309.702 120.087 309.702 117.828C309.702 115.555 309.423 113.978 308.866 113.098C308.323 112.203 307.421 111.756 306.16 111.756ZM313.059 127.706L314.071 122.646H315.897L314.423 127.706H313.059ZM325.129 125V122.162H318.089V120.842L322.225 110.48H324.073L319.871 120.666H325.129V116.134H326.823V120.666H328.671V122.162H326.823V125H325.129ZM331.016 119.72V118.18H337.682V119.72H331.016ZM345.304 110.238C346.507 110.238 347.482 110.465 348.23 110.92C349.814 111.859 350.606 114.205 350.606 117.96C350.606 120.615 350.166 122.492 349.286 123.592C348.406 124.677 347.086 125.22 345.326 125.22C343.566 125.22 342.239 124.685 341.344 123.614C340.464 122.529 340.024 120.607 340.024 117.85C340.024 115.078 340.457 113.12 341.322 111.976C342.202 110.817 343.529 110.238 345.304 110.238ZM345.326 111.756C344.49 111.756 343.83 111.932 343.346 112.284C342.305 113.003 341.784 114.902 341.784 117.982C341.784 120.153 342.07 121.656 342.642 122.492C343.214 123.313 344.109 123.724 345.326 123.724C346.543 123.724 347.438 123.306 348.01 122.47C348.582 121.634 348.868 120.087 348.868 117.828C348.868 115.555 348.589 113.978 348.032 113.098C347.489 112.203 346.587 111.756 345.326 111.756ZM352.225 127.706L353.237 122.646H355.063L353.589 127.706H352.225ZM366.869 110.48V112.02H359.807L359.411 116.75C360.54 116.149 361.677 115.848 362.821 115.848C365.901 115.848 367.441 117.278 367.441 120.138C367.441 121.781 367.016 123.035 366.165 123.9C365.314 124.765 364.119 125.198 362.579 125.198C361.347 125.198 359.983 125.037 358.487 124.714L357.761 124.56L357.959 123.218C359.646 123.541 361.061 123.702 362.205 123.702C363.364 123.702 364.236 123.409 364.823 122.822C365.41 122.221 365.703 121.385 365.703 120.314C365.703 119.243 365.432 118.488 364.889 118.048C364.361 117.593 363.606 117.366 362.623 117.366C362.095 117.366 361.538 117.439 360.951 117.586C360.379 117.733 359.939 117.879 359.631 118.026L359.169 118.246L358.003 118.026L358.399 110.48H366.869Z" fill="white"/>
<path d="M606.138 110.238C607.341 110.238 608.316 110.465 609.064 110.92C610.648 111.859 611.44 114.205 611.44 117.96C611.44 120.615 611 122.492 610.12 123.592C609.24 124.677 607.92 125.22 606.16 125.22C604.4 125.22 603.073 124.685 602.178 123.614C601.298 122.529 600.858 120.607 600.858 117.85C600.858 115.078 601.291 113.12 602.156 111.976C603.036 110.817 604.363 110.238 606.138 110.238ZM606.16 111.756C605.324 111.756 604.664 111.932 604.18 112.284C603.139 113.003 602.618 114.902 602.618 117.982C602.618 120.153 602.904 121.656 603.476 122.492C604.048 123.313 604.943 123.724 606.16 123.724C607.377 123.724 608.272 123.306 608.844 122.47C609.416 121.634 609.702 120.087 609.702 117.828C609.702 115.555 609.423 113.978 608.866 113.098C608.323 112.203 607.421 111.756 606.16 111.756ZM613.059 127.706L614.071 122.646H615.897L614.423 127.706H613.059ZM618.903 112.02V110.48H627.923V112.702L622.335 125.22L620.729 124.714L626.207 112.592V112.02H618.903ZM631.016 119.72V118.18H637.682V119.72H631.016ZM645.304 110.238C646.507 110.238 647.482 110.465 648.23 110.92C649.814 111.859 650.606 114.205 650.606 117.96C650.606 120.615 650.166 122.492 649.286 123.592C648.406 124.677 647.086 125.22 645.326 125.22C643.566 125.22 642.239 124.685 641.344 123.614C640.464 122.529 640.024 120.607 640.024 117.85C640.024 115.078 640.457 113.12 641.322 111.976C642.202 110.817 643.529 110.238 645.304 110.238ZM645.326 111.756C644.49 111.756 643.83 111.932 643.346 112.284C642.305 113.003 641.784 114.902 641.784 117.982C641.784 120.153 642.07 121.656 642.642 122.492C643.214 123.313 644.109 123.724 645.326 123.724C646.543 123.724 647.438 123.306 648.01 122.47C648.582 121.634 648.868 120.087 648.868 117.828C648.868 115.555 648.589 113.978 648.032 113.098C647.489 112.203 646.587 111.756 645.326 111.756ZM652.225 127.706L653.237 122.646H655.063L653.589 127.706H652.225ZM658.685 111.206C659.609 110.561 660.878 110.238 662.491 110.238C664.104 110.238 665.38 110.561 666.319 111.206C667.272 111.837 667.749 112.775 667.749 114.022C667.749 114.931 667.566 115.628 667.199 116.112C666.832 116.581 666.209 117.014 665.329 117.41C666.209 117.806 666.869 118.275 667.309 118.818C667.749 119.346 667.969 120.094 667.969 121.062C667.969 123.834 666.15 125.22 662.513 125.22C658.89 125.22 657.079 123.915 657.079 121.304C657.079 120.263 657.277 119.471 657.673 118.928C658.084 118.385 658.722 117.879 659.587 117.41C658.795 117.014 658.216 116.567 657.849 116.068C657.497 115.555 657.321 114.865 657.321 114C657.321 112.768 657.776 111.837 658.685 111.206ZM658.883 121.018C658.883 122.793 660.093 123.68 662.513 123.68C664.948 123.68 666.165 122.749 666.165 120.886C666.165 120.109 665.945 119.537 665.505 119.17C665.08 118.789 664.442 118.473 663.591 118.224H661.281C660.474 118.444 659.873 118.774 659.477 119.214C659.081 119.639 658.883 120.241 658.883 121.018ZM665.945 114.22C665.945 112.592 664.808 111.778 662.535 111.778C660.262 111.778 659.125 112.585 659.125 114.198C659.125 114.843 659.301 115.364 659.653 115.76C660.005 116.156 660.548 116.486 661.281 116.75H663.591C664.383 116.501 664.97 116.178 665.351 115.782C665.747 115.386 665.945 114.865 665.945 114.22Z" fill="white"/>
<path d="M906.138 110.238C907.341 110.238 908.316 110.465 909.064 110.92C910.648 111.859 911.44 114.205 911.44 117.96C911.44 120.615 911 122.492 910.12 123.592C909.24 124.677 907.92 125.22 906.16 125.22C904.4 125.22 903.073 124.685 902.178 123.614C901.298 122.529 900.858 120.607 900.858 117.85C900.858 115.078 901.291 113.12 902.156 111.976C903.036 110.817 904.363 110.238 906.138 110.238ZM906.16 111.756C905.324 111.756 904.664 111.932 904.18 112.284C903.139 113.003 902.618 114.902 902.618 117.982C902.618 120.153 902.904 121.656 903.476 122.492C904.048 123.313 904.943 123.724 906.16 123.724C907.377 123.724 908.272 123.306 908.844 122.47C909.416 121.634 909.702 120.087 909.702 117.828C909.702 115.555 909.423 113.978 908.866 113.098C908.323 112.203 907.421 111.756 906.16 111.756ZM913.059 127.706L914.071 122.646H915.897L914.423 127.706H913.059ZM922.643 123.724C925.298 123.724 926.632 122.037 926.647 118.664C925.18 119.221 923.919 119.5 922.863 119.5C919.695 119.5 918.111 118.026 918.111 115.078C918.111 113.597 918.566 112.423 919.475 111.558C920.384 110.693 921.609 110.26 923.149 110.26C924.924 110.26 926.244 110.92 927.109 112.24C927.974 113.545 928.407 115.474 928.407 118.026C928.407 120.563 927.916 122.397 926.933 123.526C925.965 124.655 924.535 125.22 922.643 125.22C921.543 125.22 920.406 125.117 919.233 124.912L918.661 124.824L918.815 123.46C920.135 123.636 921.411 123.724 922.643 123.724ZM922.995 118.004C923.89 118.004 924.924 117.806 926.097 117.41L926.669 117.212C926.625 113.575 925.452 111.756 923.149 111.756C922.122 111.756 921.316 112.057 920.729 112.658C920.157 113.245 919.871 114.051 919.871 115.078C919.871 117.029 920.912 118.004 922.995 118.004ZM931.016 119.72V118.18H937.682V119.72H931.016ZM947.724 110.48V125H946.03V112.372L942.29 114.836L941.52 113.56L946.14 110.48H947.724Z" fill="white"/>
<path d="M10.494 157.48V159.02H3.432L3.036 163.75C4.16533 163.149 5.302 162.848 6.446 162.848C9.526 162.848 11.066 164.278 11.066 167.138C11.066 168.781 10.6407 170.035 9.79 170.9C8.93933 171.765 7.744 172.198 6.204 172.198C4.972 172.198 3.608 172.037 2.112 171.714L1.386 171.56L1.584 170.218C3.27067 170.541 4.686 170.702 5.83 170.702C6.98867 170.702 7.86133 170.409 8.448 169.822C9.03467 169.221 9.328 168.385 9.328 167.314C9.328 166.243 9.05667 165.488 8.514 165.048C7.986 164.593 7.23067 164.366 6.248 164.366C5.72 164.366 5.16267 164.439 4.576 164.586C4.004 164.733 3.564 164.879 3.256 165.026L2.794 165.246L1.628 165.026L2.024 157.48H10.494ZM18.4485 157.238C19.6512 157.238 20.6265 157.465 21.3745 157.92C22.9585 158.859 23.7505 161.205 23.7505 164.96C23.7505 167.615 23.3105 169.492 22.4305 170.592C21.5505 171.677 20.2305 172.22 18.4705 172.22C16.7105 172.22 15.3832 171.685 14.4885 170.614C13.6085 169.529 13.1685 167.607 13.1685 164.85C13.1685 162.078 13.6012 160.12 14.4665 158.976C15.3465 157.817 16.6739 157.238 18.4485 157.238ZM18.4705 158.756C17.6345 158.756 16.9745 158.932 16.4905 159.284C15.4492 160.003 14.9285 161.902 14.9285 164.982C14.9285 167.153 15.2145 168.656 15.7865 169.492C16.3585 170.313 17.2532 170.724 18.4705 170.724C19.6879 170.724 20.5825 170.306 21.1545 169.47C21.7265 168.634 22.0125 167.087 22.0125 164.828C22.0125 162.555 21.7339 160.978 21.1765 160.098C20.6339 159.203 19.7319 158.756 18.4705 158.756ZM30.7591 157.238C31.9618 157.238 32.9371 157.465 33.6851 157.92C35.2691 158.859 36.0611 161.205 36.0611 164.96C36.0611 167.615 35.6211 169.492 34.7411 170.592C33.8611 171.677 32.5411 172.22 30.7811 172.22C29.0211 172.22 27.6938 171.685 26.7991 170.614C25.9191 169.529 25.4791 167.607 25.4791 164.85C25.4791 162.078 25.9118 160.12 26.7771 158.976C27.6571 157.817 28.9844 157.238 30.7591 157.238ZM30.7811 158.756C29.9451 158.756 29.2851 158.932 28.8011 159.284C27.7598 160.003 27.2391 161.902 27.2391 164.982C27.2391 167.153 27.5251 168.656 28.0971 169.492C28.6691 170.313 29.5638 170.724 30.7811 170.724C31.9984 170.724 32.8931 170.306 33.4651 169.47C34.0371 168.634 34.3231 167.087 34.3231 164.828C34.3231 162.555 34.0444 160.978 33.4871 160.098C32.9444 159.203 32.0424 158.756 30.7811 158.756ZM45.4896 157.48V172H43.7956V159.372L40.0556 161.836L39.2856 160.56L43.9056 157.48H45.4896ZM50.7382 166.72V165.18H57.4042V166.72H50.7382ZM69.6907 172H60.4067V170.57L64.6527 166.104C65.386 165.341 65.9213 164.762 66.2587 164.366C66.596 163.97 66.8967 163.501 67.1607 162.958C67.4393 162.415 67.5787 161.873 67.5787 161.33C67.5787 160.391 67.322 159.731 66.8087 159.35C66.2953 158.969 65.496 158.778 64.4107 158.778C63.4573 158.778 62.394 158.903 61.2207 159.152L60.6487 159.262L60.5167 157.854C61.91 157.458 63.3473 157.26 64.8287 157.26C66.31 157.26 67.4247 157.575 68.1727 158.206C68.9353 158.822 69.3167 159.805 69.3167 161.154C69.3167 162.181 69.0893 163.075 68.6347 163.838C68.18 164.601 67.3953 165.517 66.2807 166.588L62.4087 170.526H69.6907V172ZM81.6932 157.48V159.02H74.6312L74.2352 163.75C75.3646 163.149 76.5012 162.848 77.6452 162.848C80.7252 162.848 82.2652 164.278 82.2652 167.138C82.2652 168.781 81.8399 170.035 80.9892 170.9C80.1386 171.765 78.9432 172.198 77.4032 172.198C76.1712 172.198 74.8072 172.037 73.3112 171.714L72.5852 171.56L72.7832 170.218C74.4699 170.541 75.8852 170.702 77.0292 170.702C78.1879 170.702 79.0606 170.409 79.6472 169.822C80.2339 169.221 80.5272 168.385 80.5272 167.314C80.5272 166.243 80.2559 165.488 79.7132 165.048C79.1852 164.593 78.4299 164.366 77.4472 164.366C76.9192 164.366 76.3619 164.439 75.7752 164.586C75.2032 164.733 74.7632 164.879 74.4552 165.026L73.9932 165.246L72.8272 165.026L73.2232 157.48H81.6932ZM89.6478 157.238C90.8504 157.238 91.8258 157.465 92.5738 157.92C94.1578 158.859 94.9498 161.205 94.9498 164.96C94.9498 167.615 94.5098 169.492 93.6298 170.592C92.7498 171.677 91.4298 172.22 89.6698 172.22C87.9098 172.22 86.5824 171.685 85.6878 170.614C84.8078 169.529 84.3678 167.607 84.3678 164.85C84.3678 162.078 84.8004 160.12 85.6658 158.976C86.5458 157.817 87.8731 157.238 89.6478 157.238ZM89.6698 158.756C88.8338 158.756 88.1738 158.932 87.6898 159.284C86.6484 160.003 86.1278 161.902 86.1278 164.982C86.1278 167.153 86.4138 168.656 86.9858 169.492C87.5578 170.313 88.4524 170.724 89.6698 170.724C90.8871 170.724 91.7818 170.306 92.3538 169.47C92.9258 168.634 93.2118 167.087 93.2118 164.828C93.2118 162.555 92.9331 160.978 92.3758 160.098C91.8331 159.203 90.9311 158.756 89.6698 158.756ZM101.958 157.238C103.161 157.238 104.136 157.465 104.884 157.92C106.468 158.859 107.26 161.205 107.26 164.96C107.26 167.615 106.82 169.492 105.94 170.592C105.06 171.677 103.74 172.22 101.98 172.22C100.22 172.22 98.893 171.685 97.9983 170.614C97.1183 169.529 96.6783 167.607 96.6783 164.85C96.6783 162.078 97.111 160.12 97.9763 158.976C98.8563 157.817 100.184 157.238 101.958 157.238ZM101.98 158.756C101.144 158.756 100.484 158.932 100 159.284C98.959 160.003 98.4383 161.902 98.4383 164.982C98.4383 167.153 98.7243 168.656 99.2963 169.492C99.8683 170.313 100.763 170.724 101.98 170.724C103.198 170.724 104.092 170.306 104.664 169.47C105.236 168.634 105.522 167.087 105.522 164.828C105.522 162.555 105.244 160.978 104.686 160.098C104.144 159.203 103.242 158.756 101.98 158.756ZM114.269 157.238C115.472 157.238 116.447 157.465 117.195 157.92C118.779 158.859 119.571 161.205 119.571 164.96C119.571 167.615 119.131 169.492 118.251 170.592C117.371 171.677 116.051 172.22 114.291 172.22C112.531 172.22 111.204 171.685 110.309 170.614C109.429 169.529 108.989 167.607 108.989 164.85C108.989 162.078 109.422 160.12 110.287 158.976C111.167 157.817 112.494 157.238 114.269 157.238ZM114.291 158.756C113.455 158.756 112.795 158.932 112.311 159.284C111.27 160.003 110.749 161.902 110.749 164.982C110.749 167.153 111.035 168.656 111.607 169.492C112.179 170.313 113.074 170.724 114.291 170.724C115.508 170.724 116.403 170.306 116.975 169.47C117.547 168.634 117.833 167.087 117.833 164.828C117.833 162.555 117.554 160.978 116.997 160.098C116.454 159.203 115.552 158.756 114.291 158.756Z" fill="white"/>
<path d="M306.138 157.238C307.341 157.238 308.316 157.465 309.064 157.92C310.648 158.859 311.44 161.205 311.44 164.96C311.44 167.615 311 169.492 310.12 170.592C309.24 171.677 307.92 172.22 306.16 172.22C304.4 172.22 303.073 171.685 302.178 170.614C301.298 169.529 300.858 167.607 300.858 164.85C300.858 162.078 301.291 160.12 302.156 158.976C303.036 157.817 304.363 157.238 306.138 157.238ZM306.16 158.756C305.324 158.756 304.664 158.932 304.18 159.284C303.139 160.003 302.618 161.902 302.618 164.982C302.618 167.153 302.904 168.656 303.476 169.492C304.048 170.313 304.943 170.724 306.16 170.724C307.377 170.724 308.272 170.306 308.844 169.47C309.416 168.634 309.702 167.087 309.702 164.828C309.702 162.555 309.423 160.978 308.866 160.098C308.323 159.203 307.421 158.756 306.16 158.756ZM313.059 174.706L314.071 169.646H315.897L314.423 174.706H313.059ZM327.813 159.02C326.493 158.844 325.21 158.756 323.963 158.756C322.716 158.756 321.756 159.189 321.081 160.054C320.406 160.919 320.069 162.159 320.069 163.772L320.619 163.552C320.986 163.42 321.47 163.281 322.071 163.134C322.687 162.987 323.23 162.914 323.699 162.914C326.955 162.914 328.583 164.417 328.583 167.424C328.583 168.964 328.136 170.152 327.241 170.988C326.361 171.809 325.114 172.22 323.501 172.22C320.04 172.22 318.309 169.705 318.309 164.674C318.309 162.137 318.8 160.267 319.783 159.064C320.78 157.861 322.181 157.26 323.985 157.26C325.173 157.26 326.302 157.348 327.373 157.524L327.967 157.634L327.813 159.02ZM323.589 164.432C323.09 164.432 322.54 164.505 321.939 164.652C321.352 164.784 320.89 164.916 320.553 165.048L320.047 165.268C320.062 166.94 320.34 168.267 320.883 169.25C321.44 170.233 322.284 170.724 323.413 170.724C324.542 170.724 325.393 170.445 325.965 169.888C326.537 169.316 326.823 168.517 326.823 167.49C326.823 166.449 326.537 165.679 325.965 165.18C325.408 164.681 324.616 164.432 323.589 164.432ZM331.016 166.72V165.18H337.682V166.72H331.016ZM345.304 157.238C346.507 157.238 347.482 157.465 348.23 157.92C349.814 158.859 350.606 161.205 350.606 164.96C350.606 167.615 350.166 169.492 349.286 170.592C348.406 171.677 347.086 172.22 345.326 172.22C343.566 172.22 342.239 171.685 341.344 170.614C340.464 169.529 340.024 167.607 340.024 164.85C340.024 162.078 340.457 160.12 341.322 158.976C342.202 157.817 343.529 157.238 345.304 157.238ZM345.326 158.756C344.49 158.756 343.83 158.932 343.346 159.284C342.305 160.003 341.784 161.902 341.784 164.982C341.784 167.153 342.07 168.656 342.642 169.492C343.214 170.313 344.109 170.724 345.326 170.724C346.543 170.724 347.438 170.306 348.01 169.47C348.582 168.634 348.868 167.087 348.868 164.828C348.868 162.555 348.589 160.978 348.032 160.098C347.489 159.203 346.587 158.756 345.326 158.756ZM352.225 174.706L353.237 169.646H355.063L353.589 174.706H352.225ZM358.069 159.02V157.48H367.089V159.702L361.501 172.22L359.895 171.714L365.373 159.592V159.02H358.069Z" fill="white"/>
<path d="M608.558 157.48V172H606.864V159.372L603.124 161.836L602.354 160.56L606.974 157.48H608.558ZM613.807 166.72V165.18H620.473V166.72H613.807ZM630.515 157.48V172H628.821V159.372L625.081 161.836L624.311 160.56L628.931 157.48H630.515ZM635.016 174.706L636.028 169.646H637.854L636.38 174.706H635.016ZM647.724 157.48V172H646.03V159.372L642.29 161.836L641.52 160.56L646.14 157.48H647.724Z" fill="white"/>
<path d="M908.558 157.48V172H906.864V159.372L903.124 161.836L902.354 160.56L906.974 157.48H908.558ZM913.059 174.706L914.071 169.646H915.897L914.423 174.706H913.059ZM928.011 172H918.727V170.57L922.973 166.104C923.706 165.341 924.242 164.762 924.579 164.366C924.916 163.97 925.217 163.501 925.481 162.958C925.76 162.415 925.899 161.873 925.899 161.33C925.899 160.391 925.642 159.731 925.129 159.35C924.616 158.969 923.816 158.778 922.731 158.778C921.778 158.778 920.714 158.903 919.541 159.152L918.969 159.262L918.837 157.854C920.23 157.458 921.668 157.26 923.149 157.26C924.63 157.26 925.745 157.575 926.493 158.206C927.256 158.822 927.637 159.805 927.637 161.154C927.637 162.181 927.41 163.075 926.955 163.838C926.5 164.601 925.716 165.517 924.601 166.588L920.729 170.526H928.011V172ZM931.016 166.72V165.18H937.682V166.72H931.016ZM947.724 157.48V172H946.03V159.372L942.29 161.836L941.52 160.56L946.14 157.48H947.724ZM952.225 174.706L953.237 169.646H955.063L953.589 174.706H952.225ZM957.959 157.854C959.338 157.443 960.812 157.238 962.381 157.238C963.965 157.238 965.109 157.539 965.813 158.14C966.517 158.741 966.869 159.702 966.869 161.022C966.869 161.697 966.774 162.188 966.583 162.496C966.407 162.789 966.26 163.017 966.143 163.178C966.04 163.339 965.901 163.493 965.725 163.64C965.402 163.889 965.146 164.065 964.955 164.168L964.713 164.322C965.564 164.63 966.194 165.026 966.605 165.51C967.016 165.979 967.221 166.757 967.221 167.842C967.221 169.323 966.84 170.423 966.077 171.142C965.329 171.861 964.141 172.22 962.513 172.22C961.222 172.22 959.858 172.073 958.421 171.78L957.739 171.626L957.893 170.24C959.477 170.563 960.958 170.724 962.337 170.724C964.434 170.709 965.483 169.771 965.483 167.908C965.483 166.163 964.486 165.253 962.491 165.18H959.565V163.728H962.491C963.107 163.728 963.701 163.486 964.273 163.002C964.845 162.503 965.131 161.851 965.131 161.044C965.131 160.237 964.904 159.658 964.449 159.306C963.994 158.939 963.232 158.756 962.161 158.756C960.988 158.756 959.829 158.866 958.685 159.086L958.113 159.196L957.959 157.854Z" fill="white"/>
<path d="M10.802 219H1.518V217.57L5.764 213.104C6.49733 212.341 7.03267 211.762 7.37 211.366C7.70733 210.97 8.008 210.501 8.272 209.958C8.55067 209.415 8.69 208.873 8.69 208.33C8.69 207.391 8.43333 206.731 7.92 206.35C7.40667 205.969 6.60733 205.778 5.522 205.778C4.56867 205.778 3.50533 205.903 2.332 206.152L1.76 206.262L1.628 204.854C3.02133 204.458 4.45867 204.26 5.94 204.26C7.42133 204.26 8.536 204.575 9.284 205.206C10.0467 205.822 10.428 206.805 10.428 208.154C10.428 209.181 10.2007 210.075 9.746 210.838C9.29133 211.601 8.50667 212.517 7.392 213.588L3.52 217.526H10.802V219ZM22.8045 204.48V206.02H15.7425L15.3465 210.75C16.4759 210.149 17.6125 209.848 18.7565 209.848C21.8365 209.848 23.3765 211.278 23.3765 214.138C23.3765 215.781 22.9512 217.035 22.1005 217.9C21.2499 218.765 20.0545 219.198 18.5145 219.198C17.2825 219.198 15.9185 219.037 14.4225 218.714L13.6965 218.56L13.8945 217.218C15.5812 217.541 16.9965 217.702 18.1405 217.702C19.2992 217.702 20.1719 217.409 20.7585 216.822C21.3452 216.221 21.6385 215.385 21.6385 214.314C21.6385 213.243 21.3672 212.488 20.8245 212.048C20.2965 211.593 19.5412 211.366 18.5585 211.366C18.0305 211.366 17.4732 211.439 16.8865 211.586C16.3145 211.733 15.8745 211.879 15.5665 212.026L15.1045 212.246L13.9385 212.026L14.3345 204.48H22.8045ZM30.7591 204.238C31.9618 204.238 32.9371 204.465 33.6851 204.92C35.2691 205.859 36.0611 208.205 36.0611 211.96C36.0611 214.615 35.6211 216.492 34.7411 217.592C33.8611 218.677 32.5411 219.22 30.7811 219.22C29.0211 219.22 27.6938 218.685 26.7991 217.614C25.9191 216.529 25.4791 214.607 25.4791 211.85C25.4791 209.078 25.9118 207.12 26.7771 205.976C27.6571 204.817 28.9844 204.238 30.7591 204.238ZM30.7811 205.756C29.9451 205.756 29.2851 205.932 28.8011 206.284C27.7598 207.003 27.2391 208.902 27.2391 211.982C27.2391 214.153 27.5251 215.656 28.0971 216.492C28.6691 217.313 29.5638 217.724 30.7811 217.724C31.9984 217.724 32.8931 217.306 33.4651 216.47C34.0371 215.634 34.3231 214.087 34.3231 211.828C34.3231 209.555 34.0444 207.978 33.4871 207.098C32.9444 206.203 32.0424 205.756 30.7811 205.756ZM43.0696 204.238C44.2723 204.238 45.2476 204.465 45.9956 204.92C47.5796 205.859 48.3716 208.205 48.3716 211.96C48.3716 214.615 47.9316 216.492 47.0516 217.592C46.1716 218.677 44.8516 219.22 43.0916 219.22C41.3316 219.22 40.0043 218.685 39.1096 217.614C38.2296 216.529 37.7896 214.607 37.7896 211.85C37.7896 209.078 38.2223 207.12 39.0876 205.976C39.9676 204.817 41.295 204.238 43.0696 204.238ZM43.0916 205.756C42.2556 205.756 41.5956 205.932 41.1116 206.284C40.0703 207.003 39.5496 208.902 39.5496 211.982C39.5496 214.153 39.8356 215.656 40.4076 216.492C40.9796 217.313 41.8743 217.724 43.0916 217.724C44.309 217.724 45.2036 217.306 45.7756 216.47C46.3476 215.634 46.6336 214.087 46.6336 211.828C46.6336 209.555 46.355 207.978 45.7976 207.098C45.255 206.203 44.353 205.756 43.0916 205.756ZM57.8002 204.48V219H56.1062V206.372L52.3662 208.836L51.5962 207.56L56.2162 204.48H57.8002ZM70.0827 214.402C70.0827 214.534 70.0754 214.725 70.0607 214.974C70.0607 215.209 70.0534 215.465 70.0387 215.744C70.0241 216.008 70.0094 216.265 69.9947 216.514C69.9801 216.749 69.9654 216.939 69.9507 217.086L76.2647 207.208H78.6407V219H76.8367V212.048C76.8367 211.813 76.8367 211.505 76.8367 211.124C76.8514 210.743 76.8661 210.369 76.8807 210.002C76.8954 209.621 76.9101 209.335 76.9247 209.144L70.6547 219H68.2567V207.208H70.0827V214.402ZM96.7094 210.178C96.7094 210.911 96.4894 211.483 96.0494 211.894C95.6094 212.305 95.0448 212.583 94.3554 212.73V212.818C95.0888 212.921 95.7268 213.185 96.2694 213.61C96.8121 214.021 97.0834 214.666 97.0834 215.546C97.0834 216.045 96.9881 216.507 96.7974 216.932C96.6214 217.357 96.3428 217.724 95.9614 218.032C95.5801 218.34 95.0888 218.582 94.4874 218.758C93.8861 218.919 93.1601 219 92.3094 219H87.2274V207.208H92.2874C93.1234 207.208 93.8714 207.303 94.5314 207.494C95.2061 207.67 95.7341 207.978 96.1154 208.418C96.5114 208.843 96.7094 209.43 96.7094 210.178ZM95.0814 215.546C95.0814 214.871 94.8248 214.387 94.3114 214.094C93.7981 213.801 93.0428 213.654 92.0454 213.654H89.1634V217.438H92.0894C93.0574 217.438 93.7981 217.299 94.3114 217.02C94.8248 216.727 95.0814 216.235 95.0814 215.546ZM94.7514 210.42C94.7514 209.863 94.5461 209.459 94.1354 209.21C93.7394 208.946 93.0868 208.814 92.1774 208.814H89.1634V212.048H91.8254C92.7788 212.048 93.5048 211.916 94.0034 211.652C94.5021 211.388 94.7514 210.977 94.7514 210.42ZM99.9032 219V207.208H101.839V212.048H104.897C105.924 212.048 106.767 212.173 107.427 212.422C108.087 212.671 108.579 213.045 108.901 213.544C109.224 214.028 109.385 214.644 109.385 215.392C109.385 216.125 109.224 216.763 108.901 217.306C108.593 217.849 108.102 218.267 107.427 218.56C106.767 218.853 105.895 219 104.809 219H99.9032ZM104.633 217.438C105.469 217.438 106.151 217.299 106.679 217.02C107.207 216.727 107.471 216.221 107.471 215.502C107.471 214.783 107.229 214.299 106.745 214.05C106.261 213.786 105.565 213.654 104.655 213.654H101.839V217.438H104.633ZM111.343 219V207.208H113.279V219H111.343ZM133.02 207.208V219H117.026V207.208H118.962V217.372H124.044V207.208H125.98V217.372H131.084V207.208H133.02ZM141.346 206.988C142.358 206.988 143.223 207.208 143.942 207.648C144.675 208.088 145.233 208.711 145.614 209.518C146.01 210.31 146.208 211.241 146.208 212.312V213.478H138.134C138.163 214.813 138.501 215.832 139.146 216.536C139.806 217.225 140.723 217.57 141.896 217.57C142.644 217.57 143.304 217.504 143.876 217.372C144.463 217.225 145.064 217.02 145.68 216.756V218.45C145.079 218.714 144.485 218.905 143.898 219.022C143.311 219.154 142.615 219.22 141.808 219.22C140.693 219.22 139.703 218.993 138.838 218.538C137.987 218.083 137.32 217.409 136.836 216.514C136.367 215.605 136.132 214.497 136.132 213.192C136.132 211.901 136.345 210.794 136.77 209.87C137.21 208.946 137.819 208.235 138.596 207.736C139.388 207.237 140.305 206.988 141.346 206.988ZM141.324 208.572C140.4 208.572 139.667 208.873 139.124 209.474C138.596 210.061 138.281 210.882 138.178 211.938H144.184C144.184 211.263 144.081 210.677 143.876 210.178C143.671 209.679 143.355 209.291 142.93 209.012C142.519 208.719 141.984 208.572 141.324 208.572Z" fill="white"/>
<path d="M306.138 204.238C307.341 204.238 308.316 204.465 309.064 204.92C310.648 205.859 311.44 208.205 311.44 211.96C311.44 214.615 311 216.492 310.12 217.592C309.24 218.677 307.92 219.22 306.16 219.22C304.4 219.22 303.073 218.685 302.178 217.614C301.298 216.529 300.858 214.607 300.858 211.85C300.858 209.078 301.291 207.12 302.156 205.976C303.036 204.817 304.363 204.238 306.138 204.238ZM306.16 205.756C305.324 205.756 304.664 205.932 304.18 206.284C303.139 207.003 302.618 208.902 302.618 211.982C302.618 214.153 302.904 215.656 303.476 216.492C304.048 217.313 304.943 217.724 306.16 217.724C307.377 217.724 308.272 217.306 308.844 216.47C309.416 215.634 309.702 214.087 309.702 211.828C309.702 209.555 309.423 207.978 308.866 207.098C308.323 206.203 307.421 205.756 306.16 205.756ZM313.059 221.706L314.071 216.646H315.897L314.423 221.706H313.059ZM319.519 205.206C320.443 204.561 321.712 204.238 323.325 204.238C324.938 204.238 326.214 204.561 327.153 205.206C328.106 205.837 328.583 206.775 328.583 208.022C328.583 208.931 328.4 209.628 328.033 210.112C327.666 210.581 327.043 211.014 326.163 211.41C327.043 211.806 327.703 212.275 328.143 212.818C328.583 213.346 328.803 214.094 328.803 215.062C328.803 217.834 326.984 219.22 323.347 219.22C319.724 219.22 317.913 217.915 317.913 215.304C317.913 214.263 318.111 213.471 318.507 212.928C318.918 212.385 319.556 211.879 320.421 211.41C319.629 211.014 319.05 210.567 318.683 210.068C318.331 209.555 318.155 208.865 318.155 208C318.155 206.768 318.61 205.837 319.519 205.206ZM319.717 215.018C319.717 216.793 320.927 217.68 323.347 217.68C325.782 217.68 326.999 216.749 326.999 214.886C326.999 214.109 326.779 213.537 326.339 213.17C325.914 212.789 325.276 212.473 324.425 212.224H322.115C321.308 212.444 320.707 212.774 320.311 213.214C319.915 213.639 319.717 214.241 319.717 215.018ZM326.779 208.22C326.779 206.592 325.642 205.778 323.369 205.778C321.096 205.778 319.959 206.585 319.959 208.198C319.959 208.843 320.135 209.364 320.487 209.76C320.839 210.156 321.382 210.486 322.115 210.75H324.425C325.217 210.501 325.804 210.178 326.185 209.782C326.581 209.386 326.779 208.865 326.779 208.22ZM331.016 213.72V212.18H337.682V213.72H331.016ZM345.304 204.238C346.507 204.238 347.482 204.465 348.23 204.92C349.814 205.859 350.606 208.205 350.606 211.96C350.606 214.615 350.166 216.492 349.286 217.592C348.406 218.677 347.086 219.22 345.326 219.22C343.566 219.22 342.239 218.685 341.344 217.614C340.464 216.529 340.024 214.607 340.024 211.85C340.024 209.078 340.457 207.12 341.322 205.976C342.202 204.817 343.529 204.238 345.304 204.238ZM345.326 205.756C344.49 205.756 343.83 205.932 343.346 206.284C342.305 207.003 341.784 208.902 341.784 211.982C341.784 214.153 342.07 215.656 342.642 216.492C343.214 217.313 344.109 217.724 345.326 217.724C346.543 217.724 347.438 217.306 348.01 216.47C348.582 215.634 348.868 214.087 348.868 211.828C348.868 209.555 348.589 207.978 348.032 207.098C347.489 206.203 346.587 205.756 345.326 205.756ZM352.225 221.706L353.237 216.646H355.063L353.589 221.706H352.225ZM361.809 217.724C364.464 217.724 365.798 216.037 365.813 212.664C364.346 213.221 363.085 213.5 362.029 213.5C358.861 213.5 357.277 212.026 357.277 209.078C357.277 207.597 357.732 206.423 358.641 205.558C359.55 204.693 360.775 204.26 362.315 204.26C364.09 204.26 365.41 204.92 366.275 206.24C367.14 207.545 367.573 209.474 367.573 212.026C367.573 214.563 367.082 216.397 366.099 217.526C365.131 218.655 363.701 219.22 361.809 219.22C360.709 219.22 359.572 219.117 358.399 218.912L357.827 218.824L357.981 217.46C359.301 217.636 360.577 217.724 361.809 217.724ZM362.161 212.004C363.056 212.004 364.09 211.806 365.263 211.41L365.835 211.212C365.791 207.575 364.618 205.756 362.315 205.756C361.288 205.756 360.482 206.057 359.895 206.658C359.323 207.245 359.037 208.051 359.037 209.078C359.037 211.029 360.078 212.004 362.161 212.004Z" fill="white"/>
<path d="M608.558 204.48V219H606.864V206.372L603.124 208.836L602.354 207.56L606.974 204.48H608.558ZM613.059 221.706L614.071 216.646H615.897L614.423 221.706H613.059ZM628.011 219H618.727V217.57L622.973 213.104C623.706 212.341 624.242 211.762 624.579 211.366C624.916 210.97 625.217 210.501 625.481 209.958C625.76 209.415 625.899 208.873 625.899 208.33C625.899 207.391 625.642 206.731 625.129 206.35C624.616 205.969 623.816 205.778 622.731 205.778C621.778 205.778 620.714 205.903 619.541 206.152L618.969 206.262L618.837 204.854C620.23 204.458 621.668 204.26 623.149 204.26C624.63 204.26 625.745 204.575 626.493 205.206C627.256 205.822 627.637 206.805 627.637 208.154C627.637 209.181 627.41 210.075 626.955 210.838C626.5 211.601 625.716 212.517 624.601 213.588L620.729 217.526H628.011V219ZM631.016 213.72V212.18H637.682V213.72H631.016ZM647.724 204.48V219H646.03V206.372L642.29 208.836L641.52 207.56L646.14 204.48H647.724ZM652.225 221.706L653.237 216.646H655.063L653.589 221.706H652.225ZM657.959 204.854C659.338 204.443 660.812 204.238 662.381 204.238C663.965 204.238 665.109 204.539 665.813 205.14C666.517 205.741 666.869 206.702 666.869 208.022C666.869 208.697 666.774 209.188 666.583 209.496C666.407 209.789 666.26 210.017 666.143 210.178C666.04 210.339 665.901 210.493 665.725 210.64C665.402 210.889 665.146 211.065 664.955 211.168L664.713 211.322C665.564 211.63 666.194 212.026 666.605 212.51C667.016 212.979 667.221 213.757 667.221 214.842C667.221 216.323 666.84 217.423 666.077 218.142C665.329 218.861 664.141 219.22 662.513 219.22C661.222 219.22 659.858 219.073 658.421 218.78L657.739 218.626L657.893 217.24C659.477 217.563 660.958 217.724 662.337 217.724C664.434 217.709 665.483 216.771 665.483 214.908C665.483 213.163 664.486 212.253 662.491 212.18H659.565V210.728H662.491C663.107 210.728 663.701 210.486 664.273 210.002C664.845 209.503 665.131 208.851 665.131 208.044C665.131 207.237 664.904 206.658 664.449 206.306C663.994 205.939 663.232 205.756 662.161 205.756C660.988 205.756 659.829 205.866 658.685 206.086L658.113 206.196L657.959 204.854Z" fill="white"/>
<path d="M908.558 204.48V219H906.864V206.372L903.124 208.836L902.354 207.56L906.974 204.48H908.558ZM913.059 221.706L914.071 216.646H915.897L914.423 221.706H913.059ZM927.813 206.02C926.493 205.844 925.21 205.756 923.963 205.756C922.716 205.756 921.756 206.189 921.081 207.054C920.406 207.919 920.069 209.159 920.069 210.772L920.619 210.552C920.986 210.42 921.47 210.281 922.071 210.134C922.687 209.987 923.23 209.914 923.699 209.914C926.955 209.914 928.583 211.417 928.583 214.424C928.583 215.964 928.136 217.152 927.241 217.988C926.361 218.809 925.114 219.22 923.501 219.22C920.04 219.22 918.309 216.705 918.309 211.674C918.309 209.137 918.8 207.267 919.783 206.064C920.78 204.861 922.181 204.26 923.985 204.26C925.173 204.26 926.302 204.348 927.373 204.524L927.967 204.634L927.813 206.02ZM923.589 211.432C923.09 211.432 922.54 211.505 921.939 211.652C921.352 211.784 920.89 211.916 920.553 212.048L920.047 212.268C920.062 213.94 920.34 215.267 920.883 216.25C921.44 217.233 922.284 217.724 923.413 217.724C924.542 217.724 925.393 217.445 925.965 216.888C926.537 216.316 926.823 215.517 926.823 214.49C926.823 213.449 926.537 212.679 925.965 212.18C925.408 211.681 924.616 211.432 923.589 211.432ZM931.016 213.72V212.18H937.682V213.72H931.016ZM947.724 204.48V219H946.03V206.372L942.29 208.836L941.52 207.56L946.14 204.48H947.724ZM952.225 221.706L953.237 216.646H955.063L953.589 221.706H952.225ZM958.685 205.206C959.609 204.561 960.878 204.238 962.491 204.238C964.104 204.238 965.38 204.561 966.319 205.206C967.272 205.837 967.749 206.775 967.749 208.022C967.749 208.931 967.566 209.628 967.199 210.112C966.832 210.581 966.209 211.014 965.329 211.41C966.209 211.806 966.869 212.275 967.309 212.818C967.749 213.346 967.969 214.094 967.969 215.062C967.969 217.834 966.15 219.22 962.513 219.22C958.89 219.22 957.079 217.915 957.079 215.304C957.079 214.263 957.277 213.471 957.673 212.928C958.084 212.385 958.722 211.879 959.587 211.41C958.795 211.014 958.216 210.567 957.849 210.068C957.497 209.555 957.321 208.865 957.321 208C957.321 206.768 957.776 205.837 958.685 205.206ZM958.883 215.018C958.883 216.793 960.093 217.68 962.513 217.68C964.948 217.68 966.165 216.749 966.165 214.886C966.165 214.109 965.945 213.537 965.505 213.17C965.08 212.789 964.442 212.473 963.591 212.224H961.281C960.474 212.444 959.873 212.774 959.477 213.214C959.081 213.639 958.883 214.241 958.883 215.018ZM965.945 208.22C965.945 206.592 964.808 205.778 962.535 205.778C960.262 205.778 959.125 206.585 959.125 208.198C959.125 208.843 959.301 209.364 959.653 209.76C960.005 210.156 960.548 210.486 961.281 210.75H963.591C964.383 210.501 964.97 210.178 965.351 209.782C965.747 209.386 965.945 208.865 965.945 208.22Z" fill="white"/>
<path d="M313.356 10.52V12.48H304.368L303.864 18.5C305.301 17.7347 306.748 17.352 308.204 17.352C312.124 17.352 314.084 19.172 314.084 22.812C314.084 24.9027 313.543 26.4987 312.46 27.6C311.377 28.7013 309.856 29.252 307.896 29.252C306.328 29.252 304.592 29.0467 302.688 28.636L301.764 28.44L302.016 26.732C304.163 27.1427 305.964 27.348 307.42 27.348C308.895 27.348 310.005 26.9747 310.752 26.228C311.499 25.4627 311.872 24.3987 311.872 23.036C311.872 21.6733 311.527 20.712 310.836 20.152C310.164 19.5733 309.203 19.284 307.952 19.284C307.28 19.284 306.571 19.3773 305.824 19.564C305.096 19.7507 304.536 19.9373 304.144 20.124L303.556 20.404L302.072 20.124L302.576 10.52H313.356ZM323.48 10.212C325.011 10.212 326.252 10.5013 327.204 11.08C329.22 12.2747 330.228 15.2613 330.228 20.04C330.228 23.4187 329.668 25.808 328.548 27.208C327.428 28.5893 325.748 29.28 323.508 29.28C321.268 29.28 319.579 28.5987 318.44 27.236C317.32 25.8547 316.76 23.4093 316.76 19.9C316.76 16.372 317.311 13.88 318.412 12.424C319.532 10.9493 321.221 10.212 323.48 10.212ZM323.508 12.144C322.444 12.144 321.604 12.368 320.988 12.816C319.663 13.7307 319 16.148 319 20.068C319 22.8307 319.364 24.744 320.092 25.808C320.82 26.8533 321.959 27.376 323.508 27.376C325.057 27.376 326.196 26.844 326.924 25.78C327.652 24.716 328.016 22.7467 328.016 19.872C328.016 16.9787 327.661 14.972 326.952 13.852C326.261 12.7133 325.113 12.144 323.508 12.144ZM339.448 27.208C340.531 25.1733 341.072 22.896 341.072 20.376V15H350.564V27.208H351.908V32.108H349.864V29.028H340.344V32.108H338.328V27.208H339.448ZM343.06 20.572C343.06 21.9347 342.93 23.1573 342.668 24.24C342.407 25.304 342.071 26.2933 341.66 27.208H348.52V16.82H343.06V20.572ZM354.899 15H356.971V21.02H364.223V15H366.295V29H364.223V22.84H356.971V29H354.899V15ZM379.841 27.264L380.653 27.18L380.709 28.832C378.581 29.1307 376.761 29.28 375.249 29.28C373.233 29.28 371.805 28.7013 370.965 27.544C370.125 26.368 369.705 24.548 369.705 22.084C369.705 17.1747 371.655 14.72 375.557 14.72C377.442 14.72 378.851 15.252 379.785 16.316C380.718 17.3613 381.185 19.0133 381.185 21.272L381.073 22.868H371.833C371.833 24.4173 372.113 25.5653 372.673 26.312C373.233 27.0587 374.203 27.432 375.585 27.432C376.985 27.432 378.403 27.376 379.841 27.264ZM379.085 21.188C379.085 19.4707 378.805 18.2573 378.245 17.548C377.703 16.8387 376.807 16.484 375.557 16.484C374.325 16.484 373.391 16.8573 372.757 17.604C372.141 18.3507 371.823 19.5453 371.805 21.188H379.085ZM394.033 29.028V17.24H393.809L387.565 29.028H384.457V15H386.529V26.648H386.753L392.997 15H396.077V29.028H394.033ZM387.789 8.672C387.827 9.38133 388.06 9.95067 388.489 10.38C388.919 10.8093 389.497 11.024 390.225 11.024C390.972 11.024 391.56 10.8093 391.989 10.38C392.419 9.95067 392.643 9.38133 392.661 8.672H394.397C394.341 9.792 393.94 10.7253 393.193 11.472C392.447 12.2187 391.457 12.592 390.225 12.592C389.012 12.592 388.032 12.2187 387.285 11.472C386.539 10.7253 386.137 9.792 386.081 8.672H387.789ZM399.034 32.444L400.322 26.004H402.646L400.77 32.444H399.034ZM408.656 29.112L414.396 9.932L415.74 10.38L410 29.504L408.656 29.112ZM405.1 14.104C405.1 11.528 406.127 10.24 408.18 10.24C410.234 10.24 411.26 11.528 411.26 14.104C411.26 15.4293 410.99 16.4187 410.448 17.072C409.907 17.7253 409.151 18.052 408.18 18.052C407.21 18.052 406.454 17.7253 405.912 17.072C405.371 16.4187 405.1 15.4293 405.1 14.104ZM406.808 14.104C406.808 15.784 407.266 16.624 408.18 16.624C409.114 16.624 409.58 15.784 409.58 14.104C409.58 13.264 409.468 12.648 409.244 12.256C409.039 11.864 408.684 11.668 408.18 11.668C407.695 11.668 407.34 11.864 407.116 12.256C406.911 12.648 406.808 13.264 406.808 14.104ZM413.08 25.304C413.08 22.7467 414.098 21.468 416.132 21.468C418.186 21.468 419.212 22.756 419.212 25.332C419.212 26.6387 418.942 27.628 418.4 28.3C417.859 28.9533 417.103 29.28 416.132 29.28C415.162 29.28 414.406 28.9533 413.864 28.3C413.342 27.628 413.08 26.6293 413.08 25.304ZM414.76 25.304C414.76 27.0027 415.218 27.852 416.132 27.852C416.655 27.852 417.019 27.6467 417.224 27.236C417.43 26.8253 417.532 26.1907 417.532 25.332C417.532 24.4733 417.43 23.8573 417.224 23.484C417.019 23.092 416.664 22.896 416.16 22.896C415.656 22.896 415.292 23.092 415.068 23.484C414.863 23.8573 414.76 24.464 414.76 25.304ZM431.177 21.104C432.185 21.104 433.025 20.9173 433.697 20.544C434.462 20.1333 434.845 19.536 434.845 18.752C434.845 17.968 434.583 17.4173 434.061 17.1C433.538 16.7827 432.661 16.6147 431.429 16.596C430.197 16.5773 428.871 16.736 427.453 17.072L427.369 15.392C427.593 15.336 427.817 15.2893 428.041 15.252C428.265 15.196 428.713 15.112 429.385 15C430.075 14.8693 430.878 14.804 431.793 14.804C435.134 14.804 436.814 16.0733 436.833 18.612C436.87 20.0493 436.319 21.0947 435.181 21.748C435.927 22.0653 436.469 22.476 436.805 22.98C437.141 23.484 437.309 24.1933 437.309 25.108C437.309 27.9453 435.395 29.3173 431.569 29.224C429.889 29.1867 428.451 29.0187 427.257 28.72L427.369 26.956C428.227 27.124 428.909 27.2453 429.413 27.32C429.917 27.3947 430.719 27.432 431.821 27.432C432.922 27.432 433.771 27.264 434.369 26.928C434.966 26.592 435.265 25.976 435.265 25.08C435.265 24.1653 434.891 23.5307 434.145 23.176C433.51 22.8773 432.521 22.728 431.177 22.728H429.497V21.104H431.177ZM450.615 19.228V26.396C450.671 27.0867 451.212 27.4973 452.239 27.628L452.155 29.28C450.68 29.28 449.57 28.9067 448.823 28.16C447.143 28.9067 445.463 29.28 443.783 29.28C442.495 29.28 441.515 28.916 440.843 28.188C440.171 27.46 439.835 26.4147 439.835 25.052C439.835 23.6893 440.18 22.6907 440.871 22.056C441.562 21.4027 442.644 21.0013 444.119 20.852L448.515 20.432V19.228C448.515 18.276 448.31 17.5947 447.899 17.184C447.488 16.7733 446.928 16.568 446.219 16.568C444.726 16.568 443.176 16.6613 441.571 16.848L440.703 16.932L440.619 15.336C442.672 14.9253 444.492 14.72 446.079 14.72C447.666 14.72 448.814 15.084 449.523 15.812C450.251 16.54 450.615 17.6787 450.615 19.228ZM441.991 24.94C441.991 26.6573 442.7 27.516 444.119 27.516C445.388 27.516 446.639 27.3013 447.871 26.872L448.515 26.648V22.028L444.371 22.42C443.531 22.4947 442.924 22.7373 442.551 23.148C442.178 23.5587 441.991 24.156 441.991 24.94ZM460.855 27.208C461.937 25.1733 462.479 22.896 462.479 20.376V15H471.971V27.208H473.315V32.108H471.271V29.028H461.751V32.108H459.735V27.208H460.855ZM464.467 20.572C464.467 21.9347 464.336 23.1573 464.075 24.24C463.813 25.304 463.477 26.2933 463.067 27.208H469.927V16.82H464.467V20.572ZM485.825 27.264L486.637 27.18L486.693 28.832C484.565 29.1307 482.745 29.28 481.233 29.28C479.217 29.28 477.789 28.7013 476.949 27.544C476.109 26.368 475.689 24.548 475.689 22.084C475.689 17.1747 477.64 14.72 481.541 14.72C483.426 14.72 484.836 15.252 485.769 16.316C486.702 17.3613 487.169 19.0133 487.169 21.272L487.057 22.868H477.817C477.817 24.4173 478.097 25.5653 478.657 26.312C479.217 27.0587 480.188 27.432 481.569 27.432C482.969 27.432 484.388 27.376 485.825 27.264ZM485.069 21.188C485.069 19.4707 484.789 18.2573 484.229 17.548C483.688 16.8387 482.792 16.484 481.541 16.484C480.309 16.484 479.376 16.8573 478.741 17.604C478.125 18.3507 477.808 19.5453 477.789 21.188H485.069ZM490.442 15H492.514V21.02H499.766V15H501.838V29H499.766V22.84H492.514V29H490.442V15ZM511.464 22.448C512.304 22.448 512.892 22.6253 513.228 22.98C513.564 23.3533 513.722 23.988 513.704 24.884C513.685 25.7613 513.536 26.368 513.256 26.704C512.976 27.04 512.378 27.208 511.464 27.208H507.936V22.448H511.464ZM511.464 29C512.92 29 514.002 28.692 514.712 28.076C515.421 27.4413 515.776 26.3773 515.776 24.884C515.776 23.428 515.43 22.364 514.74 21.692C514.068 21.0013 513.004 20.656 511.548 20.656H507.936V15H505.864V29H511.464Z" fill="#D46BFE"/>
<path d="M610.892 10.52V29H608.736V12.928L603.976 16.064L602.996 14.44L608.876 10.52H610.892ZM623.48 10.212C625.011 10.212 626.252 10.5013 627.204 11.08C629.22 12.2747 630.228 15.2613 630.228 20.04C630.228 23.4187 629.668 25.808 628.548 27.208C627.428 28.5893 625.748 29.28 623.508 29.28C621.268 29.28 619.579 28.5987 618.44 27.236C617.32 25.8547 616.76 23.4093 616.76 19.9C616.76 16.372 617.311 13.88 618.412 12.424C619.532 10.9493 621.221 10.212 623.48 10.212ZM623.508 12.144C622.444 12.144 621.604 12.368 620.988 12.816C619.663 13.7307 619 16.148 619 20.068C619 22.8307 619.364 24.744 620.092 25.808C620.82 26.8533 621.959 27.376 623.508 27.376C625.057 27.376 626.196 26.844 626.924 25.78C627.652 24.716 628.016 22.7467 628.016 19.872C628.016 16.9787 627.661 14.972 626.952 13.852C626.261 12.7133 625.113 12.144 623.508 12.144ZM639.148 10.212C640.679 10.212 641.92 10.5013 642.872 11.08C644.888 12.2747 645.896 15.2613 645.896 20.04C645.896 23.4187 645.336 25.808 644.216 27.208C643.096 28.5893 641.416 29.28 639.176 29.28C636.936 29.28 635.247 28.5987 634.108 27.236C632.988 25.8547 632.428 23.4093 632.428 19.9C632.428 16.372 632.979 13.88 634.08 12.424C635.2 10.9493 636.889 10.212 639.148 10.212ZM639.176 12.144C638.112 12.144 637.272 12.368 636.656 12.816C635.331 13.7307 634.668 16.148 634.668 20.068C634.668 22.8307 635.032 24.744 635.76 25.808C636.488 26.8533 637.627 27.376 639.176 27.376C640.725 27.376 641.864 26.844 642.592 25.78C643.32 24.716 643.684 22.7467 643.684 19.872C643.684 16.9787 643.329 14.972 642.62 13.852C641.929 12.7133 640.781 12.144 639.176 12.144ZM655.116 27.208C656.199 25.1733 656.74 22.896 656.74 20.376V15H666.232V27.208H667.576V32.108H665.532V29.028H656.012V32.108H653.996V27.208H655.116ZM658.728 20.572C658.728 21.9347 658.598 23.1573 658.336 24.24C658.075 25.304 657.739 26.2933 657.328 27.208H664.188V16.82H658.728V20.572ZM670.567 15H672.639V21.02H679.891V15H681.963V29H679.891V22.84H672.639V29H670.567V15ZM695.509 27.264L696.321 27.18L696.377 28.832C694.249 29.1307 692.429 29.28 690.917 29.28C688.901 29.28 687.473 28.7013 686.633 27.544C685.793 26.368 685.373 24.548 685.373 22.084C685.373 17.1747 687.323 14.72 691.225 14.72C693.11 14.72 694.519 15.252 695.453 16.316C696.386 17.3613 696.853 19.0133 696.853 21.272L696.741 22.868H687.501C687.501 24.4173 687.781 25.5653 688.341 26.312C688.901 27.0587 689.871 27.432 691.253 27.432C692.653 27.432 694.071 27.376 695.509 27.264ZM694.753 21.188C694.753 19.4707 694.473 18.2573 693.913 17.548C693.371 16.8387 692.475 16.484 691.225 16.484C689.993 16.484 689.059 16.8573 688.425 17.604C687.809 18.3507 687.491 19.5453 687.473 21.188H694.753ZM709.701 29.028V17.24H709.477L703.233 29.028H700.125V15H702.197V26.648H702.421L708.665 15H711.745V29.028H709.701ZM703.457 8.672C703.495 9.38133 703.728 9.95067 704.157 10.38C704.587 10.8093 705.165 11.024 705.893 11.024C706.64 11.024 707.228 10.8093 707.657 10.38C708.087 9.95067 708.311 9.38133 708.329 8.672H710.065C710.009 9.792 709.608 10.7253 708.861 11.472C708.115 12.2187 707.125 12.592 705.893 12.592C704.68 12.592 703.7 12.2187 702.953 11.472C702.207 10.7253 701.805 9.792 701.749 8.672H703.457ZM714.702 32.444L715.99 26.004H718.314L716.438 32.444H714.702ZM724.324 29.112L730.064 9.932L731.408 10.38L725.668 29.504L724.324 29.112ZM720.768 14.104C720.768 11.528 721.795 10.24 723.848 10.24C725.902 10.24 726.928 11.528 726.928 14.104C726.928 15.4293 726.658 16.4187 726.116 17.072C725.575 17.7253 724.819 18.052 723.848 18.052C722.878 18.052 722.122 17.7253 721.58 17.072C721.039 16.4187 720.768 15.4293 720.768 14.104ZM722.476 14.104C722.476 15.784 722.934 16.624 723.848 16.624C724.782 16.624 725.248 15.784 725.248 14.104C725.248 13.264 725.136 12.648 724.912 12.256C724.707 11.864 724.352 11.668 723.848 11.668C723.363 11.668 723.008 11.864 722.784 12.256C722.579 12.648 722.476 13.264 722.476 14.104ZM728.748 25.304C728.748 22.7467 729.766 21.468 731.8 21.468C733.854 21.468 734.88 22.756 734.88 25.332C734.88 26.6387 734.61 27.628 734.068 28.3C733.527 28.9533 732.771 29.28 731.8 29.28C730.83 29.28 730.074 28.9533 729.532 28.3C729.01 27.628 728.748 26.6293 728.748 25.304ZM730.428 25.304C730.428 27.0027 730.886 27.852 731.8 27.852C732.323 27.852 732.687 27.6467 732.892 27.236C733.098 26.8253 733.2 26.1907 733.2 25.332C733.2 24.4733 733.098 23.8573 732.892 23.484C732.687 23.092 732.332 22.896 731.828 22.896C731.324 22.896 730.96 23.092 730.736 23.484C730.531 23.8573 730.428 24.464 730.428 25.304ZM752.473 24.968C752.491 25.7707 752.277 26.3587 751.829 26.732C751.399 27.0867 750.625 27.264 749.505 27.264H745.893V22.616H749.813C751.567 22.616 752.454 23.4 752.473 24.968ZM752.221 18.836C752.221 20.2173 751.409 20.908 749.785 20.908H745.893V16.764H749.953C751.465 16.764 752.221 17.4547 752.221 18.836ZM749.477 29C752.949 29 754.685 27.656 754.685 24.968C754.685 24.296 754.526 23.6333 754.209 22.98C753.891 22.308 753.397 21.8507 752.725 21.608C752.949 21.5147 753.145 21.3933 753.313 21.244C753.481 21.076 753.639 20.8987 753.789 20.712C754.181 20.1333 754.367 19.4333 754.349 18.612C754.33 16.204 752.846 15 749.897 15H743.821V29H749.477ZM763.644 27.208C764.726 25.1733 765.268 22.896 765.268 20.376V15H774.76V27.208H776.104V32.108H774.06V29.028H764.54V32.108H762.524V27.208H763.644ZM767.256 20.572C767.256 21.9347 767.125 23.1573 766.864 24.24C766.602 25.304 766.266 26.2933 765.856 27.208H772.716V16.82H767.256V20.572ZM788.614 27.264L789.426 27.18L789.482 28.832C787.354 29.1307 785.534 29.28 784.022 29.28C782.006 29.28 780.578 28.7013 779.738 27.544C778.898 26.368 778.478 24.548 778.478 22.084C778.478 17.1747 780.429 14.72 784.33 14.72C786.215 14.72 787.625 15.252 788.558 16.316C789.491 17.3613 789.958 19.0133 789.958 21.272L789.846 22.868H780.606C780.606 24.4173 780.886 25.5653 781.446 26.312C782.006 27.0587 782.977 27.432 784.358 27.432C785.758 27.432 787.177 27.376 788.614 27.264ZM787.858 21.188C787.858 19.4707 787.578 18.2573 787.018 17.548C786.477 16.8387 785.581 16.484 784.33 16.484C783.098 16.484 782.165 16.8573 781.53 17.604C780.914 18.3507 780.597 19.5453 780.578 21.188H787.858ZM793.231 15H795.303V21.02H802.555V15H804.627V29H802.555V22.84H795.303V29H793.231V15ZM814.253 22.448C815.093 22.448 815.681 22.6253 816.017 22.98C816.353 23.3533 816.511 23.988 816.493 24.884C816.474 25.7613 816.325 26.368 816.045 26.704C815.765 27.04 815.167 27.208 814.253 27.208H810.725V22.448H814.253ZM814.253 29C815.709 29 816.791 28.692 817.501 28.076C818.21 27.4413 818.565 26.3773 818.565 24.884C818.565 23.428 818.219 22.364 817.529 21.692C816.857 21.0013 815.793 20.656 814.337 20.656H810.725V15H808.653V29H814.253Z" fill="#D46BFE"/>
<path d="M902.016 10.996C903.771 10.4733 905.647 10.212 907.644 10.212C909.66 10.212 911.116 10.5947 912.012 11.36C912.908 12.1253 913.356 13.348 913.356 15.028C913.356 15.8867 913.253 16.512 913.048 16.904C912.843 17.296 912.656 17.5947 912.488 17.8C912.32 17.9867 912.124 18.1733 911.9 18.36C911.489 18.6773 911.163 18.9013 910.92 19.032L910.612 19.228C911.695 19.62 912.497 20.124 913.02 20.74C913.543 21.3373 913.804 22.3267 913.804 23.708C913.804 25.5933 913.319 26.9933 912.348 27.908C911.396 28.8227 909.884 29.28 907.812 29.28C906.169 29.28 904.433 29.0933 902.604 28.72L901.736 28.524L901.932 26.76C903.948 27.1707 905.833 27.376 907.588 27.376C910.257 27.3573 911.592 26.1627 911.592 23.792C911.592 21.5707 910.323 20.4133 907.784 20.32H904.06V18.472H907.784C908.568 18.472 909.324 18.164 910.052 17.548C910.78 16.9133 911.144 16.0827 911.144 15.056C911.144 14.0293 910.855 13.292 910.276 12.844C909.697 12.3773 908.727 12.144 907.364 12.144C905.871 12.144 904.396 12.284 902.94 12.564L902.212 12.704L902.016 10.996ZM929.164 12.48C927.484 12.256 925.851 12.144 924.264 12.144C922.677 12.144 921.455 12.6947 920.596 13.796C919.737 14.8973 919.308 16.4747 919.308 18.528L920.008 18.248C920.475 18.08 921.091 17.9027 921.856 17.716C922.64 17.5293 923.331 17.436 923.928 17.436C928.072 17.436 930.144 19.3493 930.144 23.176C930.144 25.136 929.575 26.648 928.436 27.712C927.316 28.7573 925.729 29.28 923.676 29.28C919.271 29.28 917.068 26.0787 917.068 19.676C917.068 16.4467 917.693 14.0667 918.944 12.536C920.213 11.0053 921.996 10.24 924.292 10.24C925.804 10.24 927.241 10.352 928.604 10.576L929.36 10.716L929.164 12.48ZM923.788 19.368C923.153 19.368 922.453 19.4613 921.688 19.648C920.941 19.816 920.353 19.984 919.924 20.152L919.28 20.432C919.299 22.56 919.653 24.2493 920.344 25.5C921.053 26.7507 922.127 27.376 923.564 27.376C925.001 27.376 926.084 27.0213 926.812 26.312C927.54 25.584 927.904 24.5667 927.904 23.26C927.904 21.9347 927.54 20.9547 926.812 20.32C926.103 19.6853 925.095 19.368 923.788 19.368ZM944.692 10.52V12.48H935.704L935.2 18.5C936.637 17.7347 938.084 17.352 939.54 17.352C943.46 17.352 945.42 19.172 945.42 22.812C945.42 24.9027 944.879 26.4987 943.796 27.6C942.713 28.7013 941.192 29.252 939.232 29.252C937.664 29.252 935.928 29.0467 934.024 28.636L933.1 28.44L933.352 26.732C935.499 27.1427 937.3 27.348 938.756 27.348C940.231 27.348 941.341 26.9747 942.088 26.228C942.835 25.4627 943.208 24.3987 943.208 23.036C943.208 21.6733 942.863 20.712 942.172 20.152C941.5 19.5733 940.539 19.284 939.288 19.284C938.616 19.284 937.907 19.3773 937.16 19.564C936.432 19.7507 935.872 19.9373 935.48 20.124L934.892 20.404L933.408 20.124L933.912 10.52H944.692ZM955.116 27.208C956.199 25.1733 956.74 22.896 956.74 20.376V15H966.232V27.208H967.576V32.108H965.532V29.028H956.012V32.108H953.996V27.208H955.116ZM958.728 20.572C958.728 21.9347 958.598 23.1573 958.336 24.24C958.075 25.304 957.739 26.2933 957.328 27.208H964.188V16.82H958.728V20.572ZM970.567 15H972.639V21.02H979.891V15H981.963V29H979.891V22.84H972.639V29H970.567V15ZM995.509 27.264L996.321 27.18L996.377 28.832C994.249 29.1307 992.429 29.28 990.917 29.28C988.901 29.28 987.473 28.7013 986.633 27.544C985.793 26.368 985.373 24.548 985.373 22.084C985.373 17.1747 987.323 14.72 991.225 14.72C993.11 14.72 994.519 15.252 995.453 16.316C996.386 17.3613 996.853 19.0133 996.853 21.272L996.741 22.868H987.501C987.501 24.4173 987.781 25.5653 988.341 26.312C988.901 27.0587 989.871 27.432 991.253 27.432C992.653 27.432 994.071 27.376 995.509 27.264ZM994.753 21.188C994.753 19.4707 994.473 18.2573 993.913 17.548C993.371 16.8387 992.475 16.484 991.225 16.484C989.993 16.484 989.059 16.8573 988.425 17.604C987.809 18.3507 987.491 19.5453 987.473 21.188H994.753ZM1009.7 29.028V17.24H1009.48L1003.23 29.028H1000.13V15H1002.2V26.648H1002.42L1008.67 15H1011.75V29.028H1009.7ZM1003.46 8.672C1003.49 9.38133 1003.73 9.95067 1004.16 10.38C1004.59 10.8093 1005.17 11.024 1005.89 11.024C1006.64 11.024 1007.23 10.8093 1007.66 10.38C1008.09 9.95067 1008.31 9.38133 1008.33 8.672H1010.07C1010.01 9.792 1009.61 10.7253 1008.86 11.472C1008.11 12.2187 1007.13 12.592 1005.89 12.592C1004.68 12.592 1003.7 12.2187 1002.95 11.472C1002.21 10.7253 1001.81 9.792 1001.75 8.672H1003.46ZM1014.7 32.444L1015.99 26.004H1018.31L1016.44 32.444H1014.7ZM1024.32 29.112L1030.06 9.932L1031.41 10.38L1025.67 29.504L1024.32 29.112ZM1020.77 14.104C1020.77 11.528 1021.8 10.24 1023.85 10.24C1025.9 10.24 1026.93 11.528 1026.93 14.104C1026.93 15.4293 1026.66 16.4187 1026.12 17.072C1025.58 17.7253 1024.82 18.052 1023.85 18.052C1022.88 18.052 1022.12 17.7253 1021.58 17.072C1021.04 16.4187 1020.77 15.4293 1020.77 14.104ZM1022.48 14.104C1022.48 15.784 1022.93 16.624 1023.85 16.624C1024.78 16.624 1025.25 15.784 1025.25 14.104C1025.25 13.264 1025.14 12.648 1024.91 12.256C1024.71 11.864 1024.35 11.668 1023.85 11.668C1023.36 11.668 1023.01 11.864 1022.78 12.256C1022.58 12.648 1022.48 13.264 1022.48 14.104ZM1028.75 25.304C1028.75 22.7467 1029.77 21.468 1031.8 21.468C1033.85 21.468 1034.88 22.756 1034.88 25.332C1034.88 26.6387 1034.61 27.628 1034.07 28.3C1033.53 28.9533 1032.77 29.28 1031.8 29.28C1030.83 29.28 1030.07 28.9533 1029.53 28.3C1029.01 27.628 1028.75 26.6293 1028.75 25.304ZM1030.43 25.304C1030.43 27.0027 1030.89 27.852 1031.8 27.852C1032.32 27.852 1032.69 27.6467 1032.89 27.236C1033.1 26.8253 1033.2 26.1907 1033.2 25.332C1033.2 24.4733 1033.1 23.8573 1032.89 23.484C1032.69 23.092 1032.33 22.896 1031.83 22.896C1031.32 22.896 1030.96 23.092 1030.74 23.484C1030.53 23.8573 1030.43 24.464 1030.43 25.304ZM1052.47 24.968C1052.49 25.7707 1052.28 26.3587 1051.83 26.732C1051.4 27.0867 1050.62 27.264 1049.5 27.264H1045.89V22.616H1049.81C1051.57 22.616 1052.45 23.4 1052.47 24.968ZM1052.22 18.836C1052.22 20.2173 1051.41 20.908 1049.78 20.908H1045.89V16.764H1049.95C1051.46 16.764 1052.22 17.4547 1052.22 18.836ZM1049.48 29C1052.95 29 1054.68 27.656 1054.68 24.968C1054.68 24.296 1054.53 23.6333 1054.21 22.98C1053.89 22.308 1053.4 21.8507 1052.72 21.608C1052.95 21.5147 1053.14 21.3933 1053.31 21.244C1053.48 21.076 1053.64 20.8987 1053.79 20.712C1054.18 20.1333 1054.37 19.4333 1054.35 18.612C1054.33 16.204 1052.85 15 1049.9 15H1043.82V29H1049.48ZM1063.64 27.208C1064.73 25.1733 1065.27 22.896 1065.27 20.376V15H1074.76V27.208H1076.1V32.108H1074.06V29.028H1064.54V32.108H1062.52V27.208H1063.64ZM1067.26 20.572C1067.26 21.9347 1067.12 23.1573 1066.86 24.24C1066.6 25.304 1066.27 26.2933 1065.86 27.208H1072.72V16.82H1067.26V20.572ZM1088.61 27.264L1089.43 27.18L1089.48 28.832C1087.35 29.1307 1085.53 29.28 1084.02 29.28C1082.01 29.28 1080.58 28.7013 1079.74 27.544C1078.9 26.368 1078.48 24.548 1078.48 22.084C1078.48 17.1747 1080.43 14.72 1084.33 14.72C1086.22 14.72 1087.62 15.252 1088.56 16.316C1089.49 17.3613 1089.96 19.0133 1089.96 21.272L1089.85 22.868H1080.61C1080.61 24.4173 1080.89 25.5653 1081.45 26.312C1082.01 27.0587 1082.98 27.432 1084.36 27.432C1085.76 27.432 1087.18 27.376 1088.61 27.264ZM1087.86 21.188C1087.86 19.4707 1087.58 18.2573 1087.02 17.548C1086.48 16.8387 1085.58 16.484 1084.33 16.484C1083.1 16.484 1082.16 16.8573 1081.53 17.604C1080.91 18.3507 1080.6 19.5453 1080.58 21.188H1087.86ZM1093.23 15H1095.3V21.02H1102.55V15H1104.63V29H1102.55V22.84H1095.3V29H1093.23V15ZM1114.25 22.448C1115.09 22.448 1115.68 22.6253 1116.02 22.98C1116.35 23.3533 1116.51 23.988 1116.49 24.884C1116.47 25.7613 1116.32 26.368 1116.04 26.704C1115.76 27.04 1115.17 27.208 1114.25 27.208H1110.72V22.448H1114.25ZM1114.25 29C1115.71 29 1116.79 28.692 1117.5 28.076C1118.21 27.4413 1118.56 26.3773 1118.56 24.884C1118.56 23.428 1118.22 22.364 1117.53 21.692C1116.86 21.0013 1115.79 20.656 1114.34 20.656H1110.72V15H1108.65V29H1114.25Z" fill="#D46BFE"/>
<path fill-rule="evenodd" clip-rule="evenodd" d="M580 238V191H281V239H280V191H0V190H280V143H0V142H280V95H0V94H280V47H0V46H280V1H281V46H580V0H581V46H880V0H881V46H1180V47H881V94H1180V95H881V142H1180V143H881V190H1180V191H881V238H880V191H581V238H580ZM880 190V143H581V190H880ZM880 142V95H581V142H880ZM880 94V47H581V94H880ZM580 143V190H281V143H580ZM580 95V142H281V95H580ZM580 47V94H281V47H580Z" fill="#68688D"/>
</svg>
