<svg width="319" height="280" viewBox="0 0 319 280" fill="none" xmlns="http://www.w3.org/2000/svg">
<g filter="url(#filter0_f_128_1816)">
<circle cx="177.462" cy="110.371" r="27.0642" transform="rotate(48.4312 177.462 110.371)" fill="#DA7EFF" fill-opacity="0.4"/>
</g>
<g filter="url(#filter1_ii_128_1816)">
<circle cx="177.501" cy="109.726" r="32.4834" transform="rotate(48.4312 177.501 109.726)" fill="#53199C"/>
</g>
<g filter="url(#filter2_f_128_1816)">
<circle cx="192.671" cy="112.553" r="9.47433" transform="rotate(48.4312 192.671 112.553)" fill="#8744DD"/>
</g>
<path d="M147.773 96.9677C130.451 91.98 118.433 89.8753 117.638 92.0978C116.429 95.4778 141.635 107.587 173.938 119.143C206.24 130.7 233.407 137.329 234.616 133.949C235.401 131.755 225.063 125.887 208.881 118.878" stroke="#F2BB9E"/>
<circle cx="119.279" cy="92.2191" r="11" transform="rotate(48.4312 119.279 92.2191)" fill="#191931"/>
<circle cx="19.5238" cy="151.47" r="11" transform="rotate(4.33565 19.5238 151.47)" fill="#191931"/>
<circle cx="23.2118" cy="102.827" r="11" transform="rotate(4.33565 23.2118 102.827)" fill="#191931"/>
<circle cx="38.4477" cy="251.014" r="11" transform="rotate(20.4374 38.4477 251.014)" fill="#191931"/>
<line x1="34.1177" y1="108.263" x2="57.1461" y2="122.743" stroke="#434363"/>
<line x1="30.6568" y1="148.195" x2="51.3037" y2="141.048" stroke="#434363"/>
<line x1="44.2237" y1="241.993" x2="68.7394" y2="145.583" stroke="#434363"/>
<circle cx="70.6366" cy="135.554" r="20" transform="rotate(4.33565 70.6366 135.554)" fill="#F2BB9E"/>
<circle cx="71.0185" cy="136.018" r="14" transform="rotate(4.33565 71.0185 136.018)" fill="#191931"/>
<line x1="88.3254" y1="131.095" x2="148.075" y2="120.881" stroke="url(#paint0_linear_128_1816)"/>
<path d="M45.5341 198.706L51.2341 177.946H56.2741L61.9741 198.706H59.6941L58.1941 193.366H49.3141L47.8141 198.706H45.5341ZM52.9741 179.926L49.8241 191.296H57.6841L54.5341 179.926H52.9741ZM67.0952 198.706H64.8452V183.706H67.0652V184.756C68.5652 183.856 70.0252 183.406 71.4452 183.406C73.3052 183.406 74.6052 183.916 75.3452 184.936C76.0052 184.536 76.8552 184.186 77.8952 183.886C78.9552 183.566 79.8852 183.406 80.6852 183.406C82.6852 183.406 84.0252 183.946 84.7052 185.026C85.4052 186.086 85.7552 188.006 85.7552 190.786V198.706H83.5052V190.846C83.5052 188.766 83.3052 187.346 82.9052 186.586C82.5052 185.806 81.6552 185.416 80.3552 185.416C79.6952 185.416 79.0152 185.516 78.3152 185.716C77.6152 185.896 77.0752 186.076 76.6952 186.256L76.1252 186.526C76.3852 187.186 76.5152 188.646 76.5152 190.906V198.706H74.2652V190.966C74.2652 188.806 74.0652 187.346 73.6652 186.586C73.2852 185.806 72.4352 185.416 71.1152 185.416C70.4752 185.416 69.8152 185.516 69.1352 185.716C68.4752 185.896 67.9652 186.076 67.6052 186.256L67.0952 186.526V198.706ZM96.5533 183.406C98.5733 183.406 99.9833 183.986 100.783 185.146C101.603 186.286 102.013 188.296 102.013 191.176C102.013 194.056 101.503 196.086 100.483 197.266C99.4833 198.426 97.6333 199.006 94.9333 199.006C94.0933 199.006 92.7033 198.926 90.7633 198.766L89.9233 198.676V177.166H92.1433V184.456C93.6633 183.756 95.1333 183.406 96.5533 183.406ZM94.9033 196.996C96.8633 196.996 98.1533 196.556 98.7733 195.676C99.4133 194.776 99.7333 193.266 99.7333 191.146C99.7333 189.026 99.4833 187.546 98.9833 186.706C98.4833 185.846 97.5933 185.416 96.3133 185.416C95.1533 185.416 93.9633 185.636 92.7433 186.076L92.1433 186.286V196.846C93.4433 196.946 94.3633 196.996 94.9033 196.996ZM116.304 188.236V195.916C116.364 196.656 116.944 197.096 118.044 197.236L117.954 199.006C116.374 199.006 115.184 198.606 114.384 197.806C112.584 198.606 110.784 199.006 108.984 199.006C107.604 199.006 106.554 198.616 105.834 197.836C105.114 197.056 104.754 195.936 104.754 194.476C104.754 193.016 105.124 191.946 105.864 191.266C106.604 190.566 107.764 190.136 109.344 189.976L114.054 189.526V188.236C114.054 187.216 113.834 186.486 113.394 186.046C112.954 185.606 112.354 185.386 111.594 185.386C109.994 185.386 108.334 185.486 106.614 185.686L105.684 185.776L105.594 184.066C107.794 183.626 109.744 183.406 111.444 183.406C113.144 183.406 114.374 183.796 115.134 184.576C115.914 185.356 116.304 186.576 116.304 188.236ZM107.064 194.356C107.064 196.196 107.824 197.116 109.344 197.116C110.704 197.116 112.044 196.886 113.364 196.426L114.054 196.186V191.236L109.614 191.656C108.714 191.736 108.064 191.996 107.664 192.436C107.264 192.876 107.064 193.516 107.064 194.356ZM125.454 185.416C123.274 185.416 122.184 186.176 122.184 187.696C122.184 188.396 122.434 188.896 122.934 189.196C123.434 189.476 124.574 189.776 126.354 190.096C128.134 190.396 129.394 190.826 130.134 191.386C130.874 191.946 131.244 192.996 131.244 194.536C131.244 196.076 130.744 197.206 129.744 197.926C128.764 198.646 127.324 199.006 125.424 199.006C124.184 199.006 122.724 198.866 121.044 198.586L120.144 198.436L120.264 196.486C122.544 196.826 124.264 196.996 125.424 196.996C126.584 196.996 127.464 196.816 128.064 196.456C128.684 196.076 128.994 195.456 128.994 194.596C128.994 193.716 128.734 193.126 128.214 192.826C127.694 192.506 126.554 192.206 124.794 191.926C123.034 191.646 121.784 191.236 121.044 190.696C120.304 190.156 119.934 189.156 119.934 187.696C119.934 186.236 120.444 185.156 121.464 184.456C122.504 183.756 123.794 183.406 125.334 183.406C126.554 183.406 128.084 183.546 129.924 183.826L130.764 183.976L130.704 185.896C128.484 185.576 126.734 185.416 125.454 185.416ZM139.399 185.416C137.219 185.416 136.129 186.176 136.129 187.696C136.129 188.396 136.379 188.896 136.879 189.196C137.379 189.476 138.519 189.776 140.299 190.096C142.079 190.396 143.339 190.826 144.079 191.386C144.819 191.946 145.189 192.996 145.189 194.536C145.189 196.076 144.689 197.206 143.689 197.926C142.709 198.646 141.269 199.006 139.369 199.006C138.129 199.006 136.669 198.866 134.989 198.586L134.089 198.436L134.209 196.486C136.489 196.826 138.209 196.996 139.369 196.996C140.529 196.996 141.409 196.816 142.009 196.456C142.629 196.076 142.939 195.456 142.939 194.596C142.939 193.716 142.679 193.126 142.159 192.826C141.639 192.506 140.499 192.206 138.739 191.926C136.979 191.646 135.729 191.236 134.989 190.696C134.249 190.156 133.879 189.156 133.879 187.696C133.879 186.236 134.389 185.156 135.409 184.456C136.449 183.756 137.739 183.406 139.279 183.406C140.499 183.406 142.029 183.546 143.869 183.826L144.709 183.976L144.649 185.896C142.429 185.576 140.679 185.416 139.399 185.416ZM159.224 188.236V195.916C159.284 196.656 159.864 197.096 160.964 197.236L160.874 199.006C159.294 199.006 158.104 198.606 157.304 197.806C155.504 198.606 153.704 199.006 151.904 199.006C150.524 199.006 149.474 198.616 148.754 197.836C148.034 197.056 147.674 195.936 147.674 194.476C147.674 193.016 148.044 191.946 148.784 191.266C149.524 190.566 150.684 190.136 152.264 189.976L156.974 189.526V188.236C156.974 187.216 156.754 186.486 156.314 186.046C155.874 185.606 155.274 185.386 154.514 185.386C152.914 185.386 151.254 185.486 149.534 185.686L148.604 185.776L148.514 184.066C150.714 183.626 152.664 183.406 154.364 183.406C156.064 183.406 157.294 183.796 158.054 184.576C158.834 185.356 159.224 186.576 159.224 188.236ZM149.984 194.356C149.984 196.196 150.744 197.116 152.264 197.116C153.624 197.116 154.964 196.886 156.284 196.426L156.974 196.186V191.236L152.534 191.656C151.634 191.736 150.984 191.996 150.584 192.436C150.184 192.876 149.984 193.516 149.984 194.356ZM175.184 177.166V198.706H172.964V197.686C171.424 198.566 169.904 199.006 168.404 199.006C167.604 199.006 166.904 198.906 166.304 198.706C165.704 198.506 165.144 198.146 164.624 197.626C163.544 196.546 163.004 194.556 163.004 191.656C163.004 188.736 163.484 186.636 164.444 185.356C165.424 184.056 167.034 183.406 169.274 183.406C170.434 183.406 171.664 183.536 172.964 183.796V177.166H175.184ZM166.364 196.006C166.684 196.386 167.024 196.646 167.384 196.786C167.744 196.926 168.204 196.996 168.764 196.996C169.344 196.996 169.984 196.906 170.684 196.726C171.404 196.526 171.964 196.336 172.364 196.156L172.964 195.886V185.716C171.684 185.476 170.494 185.356 169.394 185.356C167.874 185.356 166.814 185.846 166.214 186.826C165.614 187.786 165.314 189.286 165.314 191.326C165.314 193.646 165.664 195.206 166.364 196.006ZM178.882 191.176C178.882 188.436 179.372 186.456 180.352 185.236C181.332 184.016 182.982 183.406 185.302 183.406C187.642 183.406 189.292 184.016 190.252 185.236C191.232 186.456 191.722 188.436 191.722 191.176C191.722 193.916 191.262 195.906 190.342 197.146C189.422 198.386 187.742 199.006 185.302 199.006C182.862 199.006 181.182 198.386 180.262 197.146C179.342 195.906 178.882 193.916 178.882 191.176ZM181.192 191.146C181.192 193.326 181.452 194.856 181.972 195.736C182.512 196.616 183.622 197.056 185.302 197.056C187.002 197.056 188.112 196.626 188.632 195.766C189.152 194.886 189.412 193.346 189.412 191.146C189.412 188.946 189.122 187.436 188.542 186.616C187.962 185.776 186.882 185.356 185.302 185.356C183.742 185.356 182.662 185.776 182.062 186.616C181.482 187.436 181.192 188.946 181.192 191.146ZM195.392 198.706V183.706H197.612V185.746C199.352 184.546 201.182 183.756 203.102 183.376V185.656C202.262 185.816 201.382 186.066 200.462 186.406C199.562 186.746 198.872 187.046 198.392 187.306L197.642 187.696V198.706H195.392ZM212.355 205.366V183.706H214.575V184.786C216.095 183.866 217.595 183.406 219.075 183.406C220.975 183.406 222.355 184.016 223.215 185.236C224.075 186.436 224.505 188.426 224.505 191.206C224.505 193.986 223.995 195.986 222.975 197.206C221.975 198.406 220.305 199.006 217.965 199.006C216.745 199.006 215.625 198.896 214.605 198.676V205.366H212.355ZM218.745 185.416C218.145 185.416 217.495 185.516 216.795 185.716C216.115 185.916 215.575 186.116 215.175 186.316L214.605 186.616V196.726C216.025 196.946 217.105 197.056 217.845 197.056C219.465 197.056 220.595 196.596 221.235 195.676C221.895 194.756 222.225 193.256 222.225 191.176C222.225 189.096 221.925 187.616 221.325 186.736C220.745 185.856 219.885 185.416 218.745 185.416ZM228.175 198.706V183.706H230.395V185.746C232.135 184.546 233.965 183.756 235.885 183.376V185.656C235.045 185.816 234.165 186.066 233.245 186.406C232.345 186.746 231.655 187.046 231.175 187.306L230.425 187.696V198.706H228.175ZM237.593 191.176C237.593 188.436 238.083 186.456 239.063 185.236C240.043 184.016 241.693 183.406 244.013 183.406C246.353 183.406 248.003 184.016 248.963 185.236C249.943 186.456 250.433 188.436 250.433 191.176C250.433 193.916 249.973 195.906 249.053 197.146C248.133 198.386 246.453 199.006 244.013 199.006C241.573 199.006 239.893 198.386 238.973 197.146C238.053 195.906 237.593 193.916 237.593 191.176ZM239.903 191.146C239.903 193.326 240.163 194.856 240.683 195.736C241.223 196.616 242.333 197.056 244.013 197.056C245.713 197.056 246.823 196.626 247.343 195.766C247.863 194.886 248.123 193.346 248.123 191.146C248.123 188.946 247.833 187.436 247.253 186.616C246.673 185.776 245.593 185.356 244.013 185.356C242.453 185.356 241.373 185.776 240.773 186.616C240.193 187.436 239.903 188.946 239.903 191.146ZM259.893 205.756C257.493 205.756 255.813 205.426 254.853 204.766C253.913 204.126 253.443 202.946 253.443 201.226C253.443 200.406 253.623 199.736 253.983 199.216C254.343 198.716 254.953 198.146 255.813 197.506C255.253 197.126 254.973 196.436 254.973 195.436C254.973 195.096 255.223 194.466 255.723 193.546L255.993 193.066C254.413 192.346 253.623 190.836 253.623 188.536C253.623 185.116 255.493 183.406 259.233 183.406C260.193 183.406 261.083 183.506 261.903 183.706L262.353 183.796L266.793 183.676V185.596L263.943 185.536C264.603 186.196 264.933 187.196 264.933 188.536C264.933 190.416 264.463 191.736 263.523 192.496C262.603 193.236 261.143 193.606 259.143 193.606C258.603 193.606 258.113 193.566 257.673 193.486C257.313 194.366 257.133 194.936 257.133 195.196C257.133 195.816 257.323 196.206 257.703 196.366C258.083 196.506 259.233 196.576 261.153 196.576C263.073 196.576 264.453 196.876 265.293 197.476C266.133 198.076 266.553 199.246 266.553 200.986C266.553 204.166 264.333 205.756 259.893 205.756ZM255.663 201.046C255.663 202.106 255.953 202.836 256.533 203.236C257.133 203.656 258.223 203.866 259.803 203.866C261.403 203.866 262.543 203.646 263.223 203.206C263.923 202.766 264.273 202.026 264.273 200.986C264.273 199.966 264.023 199.306 263.523 199.006C263.023 198.706 262.043 198.556 260.583 198.556L257.343 198.406C256.683 198.886 256.233 199.306 255.993 199.666C255.773 200.026 255.663 200.486 255.663 201.046ZM255.873 188.536C255.873 189.716 256.133 190.556 256.653 191.056C257.193 191.556 258.073 191.806 259.293 191.806C260.513 191.806 261.383 191.556 261.903 191.056C262.423 190.556 262.683 189.716 262.683 188.536C262.683 187.336 262.423 186.486 261.903 185.986C261.383 185.486 260.513 185.236 259.293 185.236C258.073 185.236 257.193 185.496 256.653 186.016C256.133 186.516 255.873 187.356 255.873 188.536ZM269.513 198.706V183.706H271.733V185.746C273.473 184.546 275.303 183.756 277.223 183.376V185.656C276.383 185.816 275.503 186.066 274.583 186.406C273.683 186.746 272.993 187.046 272.513 187.306L271.763 187.696V198.706H269.513ZM290.474 188.236V195.916C290.534 196.656 291.114 197.096 292.214 197.236L292.124 199.006C290.544 199.006 289.354 198.606 288.554 197.806C286.754 198.606 284.954 199.006 283.154 199.006C281.774 199.006 280.724 198.616 280.004 197.836C279.284 197.056 278.924 195.936 278.924 194.476C278.924 193.016 279.294 191.946 280.034 191.266C280.774 190.566 281.934 190.136 283.514 189.976L288.224 189.526V188.236C288.224 187.216 288.004 186.486 287.564 186.046C287.124 185.606 286.524 185.386 285.764 185.386C284.164 185.386 282.504 185.486 280.784 185.686L279.854 185.776L279.764 184.066C281.964 183.626 283.914 183.406 285.614 183.406C287.314 183.406 288.544 183.796 289.304 184.576C290.084 185.356 290.474 186.576 290.474 188.236ZM281.234 194.356C281.234 196.196 281.994 197.116 283.514 197.116C284.874 197.116 286.214 196.886 287.534 196.426L288.224 196.186V191.236L283.784 191.656C282.884 191.736 282.234 191.996 281.834 192.436C281.434 192.876 281.234 193.516 281.234 194.356ZM297.164 198.706H294.914V183.706H297.134V184.756C298.634 183.856 300.094 183.406 301.514 183.406C303.374 183.406 304.674 183.916 305.414 184.936C306.074 184.536 306.924 184.186 307.964 183.886C309.024 183.566 309.954 183.406 310.754 183.406C312.754 183.406 314.094 183.946 314.774 185.026C315.474 186.086 315.824 188.006 315.824 190.786V198.706H313.574V190.846C313.574 188.766 313.374 187.346 312.974 186.586C312.574 185.806 311.724 185.416 310.424 185.416C309.764 185.416 309.084 185.516 308.384 185.716C307.684 185.896 307.144 186.076 306.764 186.256L306.194 186.526C306.454 187.186 306.584 188.646 306.584 190.906V198.706H304.334V190.966C304.334 188.806 304.134 187.346 303.734 186.586C303.354 185.806 302.504 185.416 301.184 185.416C300.544 185.416 299.884 185.516 299.204 185.716C298.544 185.896 298.034 186.076 297.674 186.256L297.164 186.526V198.706Z" fill="white"/>
<defs>
<filter id="filter0_f_128_1816" x="67.3975" y="0.306641" width="220.129" height="220.129" filterUnits="userSpaceOnUse" color-interpolation-filters="sRGB">
<feFlood flood-opacity="0" result="BackgroundImageFix"/>
<feBlend mode="normal" in="SourceGraphic" in2="BackgroundImageFix" result="shape"/>
<feGaussianBlur stdDeviation="41.5" result="effect1_foregroundBlur_128_1816"/>
</filter>
<filter id="filter1_ii_128_1816" x="145.017" y="77.2419" width="66.9675" height="66.9675" filterUnits="userSpaceOnUse" color-interpolation-filters="sRGB">
<feFlood flood-opacity="0" result="BackgroundImageFix"/>
<feBlend mode="normal" in="SourceGraphic" in2="BackgroundImageFix" result="shape"/>
<feColorMatrix in="SourceAlpha" type="matrix" values="0 0 0 0 0 0 0 0 0 0 0 0 0 0 0 0 0 0 127 0" result="hardAlpha"/>
<feOffset dx="2" dy="2"/>
<feGaussianBlur stdDeviation="4"/>
<feComposite in2="hardAlpha" operator="arithmetic" k2="-1" k3="1"/>
<feColorMatrix type="matrix" values="0 0 0 0 0.831373 0 0 0 0 0.419608 0 0 0 0 0.996078 0 0 0 0.66 0"/>
<feBlend mode="normal" in2="shape" result="effect1_innerShadow_128_1816"/>
<feColorMatrix in="SourceAlpha" type="matrix" values="0 0 0 0 0 0 0 0 0 0 0 0 0 0 0 0 0 0 127 0" result="hardAlpha"/>
<feOffset dx="1" dy="1"/>
<feGaussianBlur stdDeviation="2"/>
<feComposite in2="hardAlpha" operator="arithmetic" k2="-1" k3="1"/>
<feColorMatrix type="matrix" values="0 0 0 0 0.831373 0 0 0 0 0.419608 0 0 0 0 0.996078 0 0 0 0.36 0"/>
<feBlend mode="normal" in2="effect1_innerShadow_128_1816" result="effect2_innerShadow_128_1816"/>
</filter>
<filter id="filter2_f_128_1816" x="155.197" y="75.0786" width="74.9489" height="74.9487" filterUnits="userSpaceOnUse" color-interpolation-filters="sRGB">
<feFlood flood-opacity="0" result="BackgroundImageFix"/>
<feBlend mode="normal" in="SourceGraphic" in2="BackgroundImageFix" result="shape"/>
<feGaussianBlur stdDeviation="14" result="effect1_foregroundBlur_128_1816"/>
</filter>
<linearGradient id="paint0_linear_128_1816" x1="148.159" y1="121.374" x2="84.92" y2="132.876" gradientUnits="userSpaceOnUse">
<stop stop-color="#53199C"/>
<stop offset="1" stop-color="#F2BB9E"/>
</linearGradient>
</defs>
</svg>
