<svg width="277" height="276" viewBox="0 0 277 276" fill="none" xmlns="http://www.w3.org/2000/svg">
<path d="M23.72 198L29.42 177.24H34.46L40.16 198H37.88L36.38 192.66H27.5L26 198H23.72ZM31.16 179.22L28.01 190.59H35.87L32.72 179.22H31.16ZM41.0938 183H43.4938L47.0038 196.05H48.1138L51.7438 183H54.0538L49.8238 198H45.3238L41.0938 183ZM67.3027 187.53V195.21C67.3627 195.95 67.9427 196.39 69.0427 196.53L68.9527 198.3C67.3727 198.3 66.1827 197.9 65.3827 197.1C63.5827 197.9 61.7827 198.3 59.9827 198.3C58.6027 198.3 57.5527 197.91 56.8327 197.13C56.1127 196.35 55.7527 195.23 55.7527 193.77C55.7527 192.31 56.1227 191.24 56.8627 190.56C57.6027 189.86 58.7627 189.43 60.3427 189.27L65.0527 188.82V187.53C65.0527 186.51 64.8327 185.78 64.3927 185.34C63.9527 184.9 63.3527 184.68 62.5927 184.68C60.9927 184.68 59.3327 184.78 57.6127 184.98L56.6827 185.07L56.5927 183.36C58.7927 182.92 60.7427 182.7 62.4427 182.7C64.1427 182.7 65.3727 183.09 66.1327 183.87C66.9127 184.65 67.3027 185.87 67.3027 187.53ZM58.0627 193.65C58.0627 195.49 58.8227 196.41 60.3427 196.41C61.7027 196.41 63.0427 196.18 64.3627 195.72L65.0527 195.48V190.53L60.6127 190.95C59.7127 191.03 59.0627 191.29 58.6627 191.73C58.2627 192.17 58.0627 192.81 58.0627 193.65ZM73.992 198H71.742V183H73.962V184.05C75.582 183.15 77.132 182.7 78.612 182.7C80.612 182.7 81.952 183.24 82.632 184.32C83.332 185.4 83.682 187.32 83.682 190.08V198H81.462V190.14C81.462 188.06 81.252 186.64 80.832 185.88C80.432 185.1 79.562 184.71 78.222 184.71C77.582 184.71 76.902 184.81 76.182 185.01C75.482 185.19 74.942 185.37 74.562 185.55L73.992 185.82V198ZM95.5374 184.95H90.7674V192.12C90.7674 193.84 90.8874 194.97 91.1274 195.51C91.3874 196.05 91.9874 196.32 92.9274 196.32L95.5974 196.14L95.7474 198C94.4074 198.22 93.3874 198.33 92.6874 198.33C91.1274 198.33 90.0474 197.95 89.4474 197.19C88.8474 196.43 88.5474 194.98 88.5474 192.84V184.95H86.4174V183H88.5474V178.41H90.7674V183H95.5374V184.95ZM98.285 198V183H100.535V198H98.285ZM98.285 179.61V177H100.535V179.61H98.285ZM109.558 184.71C107.378 184.71 106.288 185.47 106.288 186.99C106.288 187.69 106.538 188.19 107.038 188.49C107.538 188.77 108.678 189.07 110.458 189.39C112.238 189.69 113.498 190.12 114.238 190.68C114.978 191.24 115.348 192.29 115.348 193.83C115.348 195.37 114.848 196.5 113.848 197.22C112.868 197.94 111.428 198.3 109.528 198.3C108.288 198.3 106.828 198.16 105.148 197.88L104.248 197.73L104.368 195.78C106.648 196.12 108.368 196.29 109.528 196.29C110.688 196.29 111.568 196.11 112.168 195.75C112.788 195.37 113.098 194.75 113.098 193.89C113.098 193.01 112.838 192.42 112.318 192.12C111.798 191.8 110.658 191.5 108.898 191.22C107.138 190.94 105.888 190.53 105.148 189.99C104.408 189.45 104.038 188.45 104.038 186.99C104.038 185.53 104.548 184.45 105.568 183.75C106.608 183.05 107.898 182.7 109.438 182.7C110.658 182.7 112.188 182.84 114.028 183.12L114.868 183.27L114.808 185.19C112.588 184.87 110.838 184.71 109.558 184.71ZM133.365 191.01H128.085V198H125.775V177.24H133.365C135.625 177.24 137.295 177.79 138.375 178.89C139.455 179.99 139.995 181.67 139.995 183.93C139.995 188.65 137.785 191.01 133.365 191.01ZM128.085 188.97H133.335C136.195 188.97 137.625 187.29 137.625 183.93C137.625 182.33 137.285 181.16 136.605 180.42C135.925 179.66 134.835 179.28 133.335 179.28H128.085V188.97ZM152.528 183H154.778V198H152.528V196.95C151.028 197.85 149.548 198.3 148.088 198.3C146.048 198.3 144.688 197.77 144.008 196.71C143.348 195.65 143.018 193.69 143.018 190.83V183H145.268V190.8C145.268 192.98 145.458 194.44 145.838 195.18C146.218 195.92 147.078 196.29 148.418 196.29C149.078 196.29 149.748 196.2 150.428 196.02C151.108 195.82 151.628 195.63 151.988 195.45L152.528 195.18V183ZM161.355 198H159.105V183H161.325V184.05C162.825 183.15 164.285 182.7 165.705 182.7C167.565 182.7 168.865 183.21 169.605 184.23C170.265 183.83 171.115 183.48 172.155 183.18C173.215 182.86 174.145 182.7 174.945 182.7C176.945 182.7 178.285 183.24 178.965 184.32C179.665 185.38 180.015 187.3 180.015 190.08V198H177.765V190.14C177.765 188.06 177.565 186.64 177.165 185.88C176.765 185.1 175.915 184.71 174.615 184.71C173.955 184.71 173.275 184.81 172.575 185.01C171.875 185.19 171.335 185.37 170.955 185.55L170.385 185.82C170.645 186.48 170.775 187.94 170.775 190.2V198H168.525V190.26C168.525 188.1 168.325 186.64 167.925 185.88C167.545 185.1 166.695 184.71 165.375 184.71C164.735 184.71 164.075 184.81 163.395 185.01C162.735 185.19 162.225 185.37 161.865 185.55L161.355 185.82V198ZM184.183 204.66V183H186.403V184.08C187.923 183.16 189.423 182.7 190.903 182.7C192.803 182.7 194.183 183.31 195.043 184.53C195.903 185.73 196.333 187.72 196.333 190.5C196.333 193.28 195.823 195.28 194.803 196.5C193.803 197.7 192.133 198.3 189.793 198.3C188.573 198.3 187.453 198.19 186.433 197.97V204.66H184.183ZM190.573 184.71C189.973 184.71 189.323 184.81 188.623 185.01C187.943 185.21 187.403 185.41 187.003 185.61L186.433 185.91V196.02C187.853 196.24 188.933 196.35 189.673 196.35C191.293 196.35 192.423 195.89 193.063 194.97C193.723 194.05 194.053 192.55 194.053 190.47C194.053 188.39 193.753 186.91 193.153 186.03C192.573 185.15 191.713 184.71 190.573 184.71Z" fill="white"/>
<g filter="url(#filter0_f_128_1818)">
<ellipse cx="26.6614" cy="26.6928" rx="26.6614" ry="26.6928" transform="matrix(-1 -8.74228e-08 -8.74228e-08 1 136.411 83.5071)" fill="#DA7EFF" fill-opacity="0.4"/>
</g>
<g filter="url(#filter1_ii_128_1818)">
<ellipse cx="32" cy="32.0376" rx="32" ry="32.0376" transform="matrix(-1 -8.74228e-08 -8.74228e-08 1 142.2 77.7117)" fill="#53199C"/>
</g>
<g filter="url(#filter2_f_128_1818)">
<ellipse cx="9.33333" cy="9.3443" rx="9.33333" ry="9.3443" transform="matrix(-1 -8.74228e-08 -8.74228e-08 1 107.533 91.061)" fill="#8744DD"/>
</g>
<ellipse cx="11" cy="11" rx="11" ry="11" transform="matrix(0.285807 -0.958287 -0.958103 -0.286424 203.75 106.241)" fill="#191931"/>
<circle cx="11" cy="11" r="11" transform="matrix(-1 -8.74228e-08 -8.74228e-08 1 277 152.241)" fill="#191931"/>
<circle cx="11" cy="11" r="11" transform="matrix(-1 -8.74228e-08 -8.74228e-08 1 277 103.226)" fill="#191931"/>
<ellipse cx="11" cy="11" rx="11" ry="11" transform="matrix(-0.960684 0.277645 0.277044 0.960857 247.016 247.904)" fill="#191931"/>
<line y1="-0.5" x2="27.3065" y2="-0.5" transform="matrix(-0.884158 0.467187 0.46633 0.884611 254.869 119.341)" stroke="#434363"/>
<line y1="-0.5" x2="21.9313" y2="-0.5" transform="matrix(-0.917385 -0.398001 -0.397215 0.917726 254.869 159.627)" stroke="#434363"/>
<line y1="-0.5" x2="30.7504" y2="-0.5" transform="matrix(0.333357 0.942801 0.942554 -0.334054 201.497 102.064)" stroke="#434363"/>
<line y1="-0.5" x2="99.948" y2="-0.5" transform="matrix(-0.172276 -0.985049 -0.98498 0.172669 233.881 252.197)" stroke="#434363"/>
<circle cx="20" cy="20" r="20" transform="matrix(-1 -8.74228e-08 -8.74228e-08 1 236.091 123.369)" fill="#F2BB9E"/>
<ellipse cx="14" cy="14" rx="14" ry="14" transform="matrix(-1 -8.74228e-08 -8.74228e-08 1 230 129)" fill="#191931"/>
<line y1="-0.5" x2="60.8375" y2="-0.5" transform="matrix(-0.970075 -0.242804 -0.242268 0.970209 198.534 138.141)" stroke="url(#paint0_linear_128_1818)"/>
<defs>
<filter id="filter0_f_128_1818" x="0.0878906" y="0.50708" width="219.323" height="219.385" filterUnits="userSpaceOnUse" color-interpolation-filters="sRGB">
<feFlood flood-opacity="0" result="BackgroundImageFix"/>
<feBlend mode="normal" in="SourceGraphic" in2="BackgroundImageFix" result="shape"/>
<feGaussianBlur stdDeviation="41.5" result="effect1_foregroundBlur_128_1818"/>
</filter>
<filter id="filter1_ii_128_1818" x="78.1997" y="77.7117" width="66" height="66.0752" filterUnits="userSpaceOnUse" color-interpolation-filters="sRGB">
<feFlood flood-opacity="0" result="BackgroundImageFix"/>
<feBlend mode="normal" in="SourceGraphic" in2="BackgroundImageFix" result="shape"/>
<feColorMatrix in="SourceAlpha" type="matrix" values="0 0 0 0 0 0 0 0 0 0 0 0 0 0 0 0 0 0 127 0" result="hardAlpha"/>
<feOffset dx="2" dy="2"/>
<feGaussianBlur stdDeviation="4"/>
<feComposite in2="hardAlpha" operator="arithmetic" k2="-1" k3="1"/>
<feColorMatrix type="matrix" values="0 0 0 0 0.831373 0 0 0 0 0.419608 0 0 0 0 0.996078 0 0 0 0.66 0"/>
<feBlend mode="normal" in2="shape" result="effect1_innerShadow_128_1818"/>
<feColorMatrix in="SourceAlpha" type="matrix" values="0 0 0 0 0 0 0 0 0 0 0 0 0 0 0 0 0 0 127 0" result="hardAlpha"/>
<feOffset dx="1" dy="1"/>
<feGaussianBlur stdDeviation="2"/>
<feComposite in2="hardAlpha" operator="arithmetic" k2="-1" k3="1"/>
<feColorMatrix type="matrix" values="0 0 0 0 0.831373 0 0 0 0 0.419608 0 0 0 0 0.996078 0 0 0 0.36 0"/>
<feBlend mode="normal" in2="effect1_innerShadow_128_1818" result="effect2_innerShadow_128_1818"/>
</filter>
<filter id="filter2_f_128_1818" x="60.8665" y="63.061" width="74.6666" height="74.6885" filterUnits="userSpaceOnUse" color-interpolation-filters="sRGB">
<feFlood flood-opacity="0" result="BackgroundImageFix"/>
<feBlend mode="normal" in="SourceGraphic" in2="BackgroundImageFix" result="shape"/>
<feGaussianBlur stdDeviation="14" result="effect1_foregroundBlur_128_1818"/>
</filter>
<linearGradient id="paint0_linear_128_1818" x1="60.8375" y1="0.000151784" x2="-3.67018" y2="0.687202" gradientUnits="userSpaceOnUse">
<stop stop-color="#53199C"/>
<stop offset="1" stop-color="#F2BB9E"/>
</linearGradient>
</defs>
</svg>
