<svg width="273" height="338" viewBox="0 0 273 338" fill="none" xmlns="http://www.w3.org/2000/svg">
<path d="M1.72 313L7.42 292.24H12.46L18.16 313H15.88L14.38 307.66H5.5L4 313H1.72ZM9.16 294.22L6.01 305.59H13.87L10.72 294.22H9.16ZM19.0938 298H21.4938L25.0038 311.05H26.1138L29.7438 298H32.0538L27.8238 313H23.3238L19.0938 298ZM45.3027 302.53V310.21C45.3627 310.95 45.9427 311.39 47.0427 311.53L46.9527 313.3C45.3727 313.3 44.1827 312.9 43.3827 312.1C41.5827 312.9 39.7827 313.3 37.9827 313.3C36.6027 313.3 35.5527 312.91 34.8327 312.13C34.1127 311.35 33.7527 310.23 33.7527 308.77C33.7527 307.31 34.1227 306.24 34.8627 305.56C35.6027 304.86 36.7627 304.43 38.3427 304.27L43.0527 303.82V302.53C43.0527 301.51 42.8327 300.78 42.3927 300.34C41.9527 299.9 41.3527 299.68 40.5927 299.68C38.9927 299.68 37.3327 299.78 35.6127 299.98L34.6827 300.07L34.5927 298.36C36.7927 297.92 38.7427 297.7 40.4427 297.7C42.1427 297.7 43.3727 298.09 44.1327 298.87C44.9127 299.65 45.3027 300.87 45.3027 302.53ZM36.0627 308.65C36.0627 310.49 36.8227 311.41 38.3427 311.41C39.7027 311.41 41.0427 311.18 42.3627 310.72L43.0527 310.48V305.53L38.6127 305.95C37.7127 306.03 37.0627 306.29 36.6627 306.73C36.2627 307.17 36.0627 307.81 36.0627 308.65ZM51.992 313H49.742V298H51.962V299.05C53.582 298.15 55.132 297.7 56.612 297.7C58.612 297.7 59.952 298.24 60.632 299.32C61.332 300.4 61.682 302.32 61.682 305.08V313H59.462V305.14C59.462 303.06 59.252 301.64 58.832 300.88C58.432 300.1 57.562 299.71 56.222 299.71C55.582 299.71 54.902 299.81 54.182 300.01C53.482 300.19 52.942 300.37 52.562 300.55L51.992 300.82V313ZM73.5374 299.95H68.7674V307.12C68.7674 308.84 68.8874 309.97 69.1274 310.51C69.3874 311.05 69.9874 311.32 70.9274 311.32L73.5974 311.14L73.7474 313C72.4074 313.22 71.3874 313.33 70.6874 313.33C69.1274 313.33 68.0474 312.95 67.4474 312.19C66.8474 311.43 66.5474 309.98 66.5474 307.84V299.95H64.4174V298H66.5474V293.41H68.7674V298H73.5374V299.95ZM76.285 313V298H78.535V313H76.285ZM76.285 294.61V292H78.535V294.61H76.285ZM87.5575 299.71C85.3775 299.71 84.2875 300.47 84.2875 301.99C84.2875 302.69 84.5375 303.19 85.0375 303.49C85.5375 303.77 86.6775 304.07 88.4575 304.39C90.2375 304.69 91.4975 305.12 92.2375 305.68C92.9775 306.24 93.3475 307.29 93.3475 308.83C93.3475 310.37 92.8475 311.5 91.8475 312.22C90.8675 312.94 89.4275 313.3 87.5275 313.3C86.2875 313.3 84.8275 313.16 83.1475 312.88L82.2475 312.73L82.3675 310.78C84.6475 311.12 86.3675 311.29 87.5275 311.29C88.6875 311.29 89.5675 311.11 90.1675 310.75C90.7875 310.37 91.0975 309.75 91.0975 308.89C91.0975 308.01 90.8375 307.42 90.3175 307.12C89.7975 306.8 88.6575 306.5 86.8975 306.22C85.1375 305.94 83.8875 305.53 83.1475 304.99C82.4075 304.45 82.0375 303.45 82.0375 301.99C82.0375 300.53 82.5475 299.45 83.5675 298.75C84.6075 298.05 85.8975 297.7 87.4375 297.7C88.6575 297.7 90.1875 297.84 92.0275 298.12L92.8675 298.27L92.8075 300.19C90.5875 299.87 88.8375 299.71 87.5575 299.71ZM103.775 313V292.24H116.405V294.28H106.085V301.45H114.605V303.46H106.085V310.96H116.405V313H103.775ZM131.223 291.46V313H129.003V311.98C127.463 312.86 125.943 313.3 124.443 313.3C123.643 313.3 122.943 313.2 122.343 313C121.743 312.8 121.183 312.44 120.663 311.92C119.583 310.84 119.043 308.85 119.043 305.95C119.043 303.03 119.523 300.93 120.483 299.65C121.463 298.35 123.073 297.7 125.313 297.7C126.473 297.7 127.703 297.83 129.003 298.09V291.46H131.223ZM122.403 310.3C122.723 310.68 123.063 310.94 123.423 311.08C123.783 311.22 124.243 311.29 124.803 311.29C125.383 311.29 126.023 311.2 126.723 311.02C127.443 310.82 128.003 310.63 128.403 310.45L129.003 310.18V300.01C127.723 299.77 126.533 299.65 125.433 299.65C123.913 299.65 122.853 300.14 122.253 301.12C121.653 302.08 121.353 303.58 121.353 305.62C121.353 307.94 121.703 309.5 122.403 310.3ZM144.942 298H147.192V313H144.942V311.95C143.442 312.85 141.962 313.3 140.502 313.3C138.462 313.3 137.102 312.77 136.422 311.71C135.762 310.65 135.432 308.69 135.432 305.83V298H137.682V305.8C137.682 307.98 137.872 309.44 138.252 310.18C138.632 310.92 139.492 311.29 140.832 311.29C141.492 311.29 142.162 311.2 142.842 311.02C143.522 310.82 144.042 310.63 144.402 310.45L144.942 310.18V298ZM157.129 297.7C157.789 297.7 158.909 297.82 160.489 298.06L161.209 298.15L161.119 299.98C159.519 299.8 158.339 299.71 157.579 299.71C155.879 299.71 154.719 300.12 154.099 300.94C153.499 301.74 153.199 303.24 153.199 305.44C153.199 307.62 153.479 309.14 154.039 310C154.619 310.86 155.809 311.29 157.609 311.29L161.149 311.02L161.239 312.88C159.379 313.16 157.989 313.3 157.069 313.3C154.729 313.3 153.109 312.7 152.209 311.5C151.329 310.3 150.889 308.28 150.889 305.44C150.889 302.58 151.369 300.58 152.329 299.44C153.289 298.28 154.889 297.7 157.129 297.7ZM175.176 302.53V310.21C175.236 310.95 175.816 311.39 176.916 311.53L176.826 313.3C175.246 313.3 174.056 312.9 173.256 312.1C171.456 312.9 169.656 313.3 167.856 313.3C166.476 313.3 165.426 312.91 164.706 312.13C163.986 311.35 163.626 310.23 163.626 308.77C163.626 307.31 163.996 306.24 164.736 305.56C165.476 304.86 166.636 304.43 168.216 304.27L172.926 303.82V302.53C172.926 301.51 172.706 300.78 172.266 300.34C171.826 299.9 171.226 299.68 170.466 299.68C168.866 299.68 167.206 299.78 165.486 299.98L164.556 300.07L164.466 298.36C166.666 297.92 168.616 297.7 170.316 297.7C172.016 297.7 173.246 298.09 174.006 298.87C174.786 299.65 175.176 300.87 175.176 302.53ZM165.936 308.65C165.936 310.49 166.696 311.41 168.216 311.41C169.576 311.41 170.916 311.18 172.236 310.72L172.926 310.48V305.53L168.486 305.95C167.586 306.03 166.936 306.29 166.536 306.73C166.136 307.17 165.936 307.81 165.936 308.65ZM187.385 299.95H182.615V307.12C182.615 308.84 182.735 309.97 182.975 310.51C183.235 311.05 183.835 311.32 184.775 311.32L187.445 311.14L187.595 313C186.255 313.22 185.235 313.33 184.535 313.33C182.975 313.33 181.895 312.95 181.295 312.19C180.695 311.43 180.395 309.98 180.395 307.84V299.95H178.265V298H180.395V293.41H182.615V298H187.385V299.95ZM190.133 313V298H192.383V313H190.133ZM190.133 294.61V292H192.383V294.61H190.133ZM196.035 305.47C196.035 302.73 196.525 300.75 197.505 299.53C198.485 298.31 200.135 297.7 202.455 297.7C204.795 297.7 206.445 298.31 207.405 299.53C208.385 300.75 208.875 302.73 208.875 305.47C208.875 308.21 208.415 310.2 207.495 311.44C206.575 312.68 204.895 313.3 202.455 313.3C200.015 313.3 198.335 312.68 197.415 311.44C196.495 310.2 196.035 308.21 196.035 305.47ZM198.345 305.44C198.345 307.62 198.605 309.15 199.125 310.03C199.665 310.91 200.775 311.35 202.455 311.35C204.155 311.35 205.265 310.92 205.785 310.06C206.305 309.18 206.565 307.64 206.565 305.44C206.565 303.24 206.275 301.73 205.695 300.91C205.115 300.07 204.035 299.65 202.455 299.65C200.895 299.65 199.815 300.07 199.215 300.91C198.635 301.73 198.345 303.24 198.345 305.44ZM214.795 313H212.545V298H214.765V299.05C216.385 298.15 217.935 297.7 219.415 297.7C221.415 297.7 222.755 298.24 223.435 299.32C224.135 300.4 224.485 302.32 224.485 305.08V313H222.265V305.14C222.265 303.06 222.055 301.64 221.635 300.88C221.235 300.1 220.365 299.71 219.025 299.71C218.385 299.71 217.705 299.81 216.985 300.01C216.285 300.19 215.745 300.37 215.365 300.55L214.795 300.82V313Z" fill="white"/>
<g filter="url(#filter0_f_128_1819)">
<circle cx="113.503" cy="227.628" r="26.6614" transform="rotate(148.454 113.503 227.628)" fill="#DA7EFF" fill-opacity="0.4"/>
</g>
<g filter="url(#filter1_ii_128_1819)">
<circle cx="114.123" cy="227.776" r="32" transform="rotate(148.454 114.123 227.776)" fill="#53199C"/>
</g>
<g filter="url(#filter2_f_128_1819)">
<circle cx="108.779" cy="242.008" r="9.33333" transform="rotate(148.454 108.779 242.008)" fill="#8744DD"/>
</g>
<circle cx="196.408" cy="197.553" r="11" transform="rotate(41.8289 196.408 197.553)" fill="#191931"/>
<circle cx="218.668" cy="101.199" r="11" transform="rotate(148.454 218.668 101.199)" fill="#191931"/>
<circle cx="244.19" cy="142.772" r="11" transform="rotate(148.454 244.19 142.772)" fill="#191931"/>
<circle cx="144.992" cy="31.6362" r="11" transform="rotate(164.556 144.992 31.6362)" fill="#191931"/>
<line x1="232.168" y1="144.76" x2="205.023" y2="146.526" stroke="#434363"/>
<line x1="211.568" y1="110.378" x2="199.028" y2="128.27" stroke="#434363"/>
<line x1="195.32" y1="186.842" x2="188.929" y2="156.908" stroke="#434363"/>
<line x1="145.6" y1="42.3314" x2="182.243" y2="134.814" stroke="#434363"/>
<circle cx="186.584" cy="144.052" r="20" transform="rotate(148.454 186.584 144.052)" fill="#F2BB9E"/>
<circle cx="186.256" cy="144.255" r="14" transform="rotate(148.454 186.256 144.255)" fill="#191931"/>
<line x1="174.865" y1="158.033" x2="132.441" y2="201.328" stroke="url(#paint0_linear_128_1819)"/>
<defs>
<filter id="filter0_f_128_1819" x="3.83789" y="117.962" width="219.33" height="219.33" filterUnits="userSpaceOnUse" color-interpolation-filters="sRGB">
<feFlood flood-opacity="0" result="BackgroundImageFix"/>
<feBlend mode="normal" in="SourceGraphic" in2="BackgroundImageFix" result="shape"/>
<feGaussianBlur stdDeviation="41.5" result="effect1_foregroundBlur_128_1819"/>
</filter>
<filter id="filter1_ii_128_1819" x="82.118" y="195.771" width="66.009" height="66.009" filterUnits="userSpaceOnUse" color-interpolation-filters="sRGB">
<feFlood flood-opacity="0" result="BackgroundImageFix"/>
<feBlend mode="normal" in="SourceGraphic" in2="BackgroundImageFix" result="shape"/>
<feColorMatrix in="SourceAlpha" type="matrix" values="0 0 0 0 0 0 0 0 0 0 0 0 0 0 0 0 0 0 127 0" result="hardAlpha"/>
<feOffset dx="2" dy="2"/>
<feGaussianBlur stdDeviation="4"/>
<feComposite in2="hardAlpha" operator="arithmetic" k2="-1" k3="1"/>
<feColorMatrix type="matrix" values="0 0 0 0 0.831373 0 0 0 0 0.419608 0 0 0 0 0.996078 0 0 0 0.66 0"/>
<feBlend mode="normal" in2="shape" result="effect1_innerShadow_128_1819"/>
<feColorMatrix in="SourceAlpha" type="matrix" values="0 0 0 0 0 0 0 0 0 0 0 0 0 0 0 0 0 0 127 0" result="hardAlpha"/>
<feOffset dx="1" dy="1"/>
<feGaussianBlur stdDeviation="2"/>
<feComposite in2="hardAlpha" operator="arithmetic" k2="-1" k3="1"/>
<feColorMatrix type="matrix" values="0 0 0 0 0.831373 0 0 0 0 0.419608 0 0 0 0 0.996078 0 0 0 0.36 0"/>
<feBlend mode="normal" in2="effect1_innerShadow_128_1819" result="effect2_innerShadow_128_1819"/>
</filter>
<filter id="filter2_f_128_1819" x="71.4441" y="204.673" width="74.6693" height="74.6692" filterUnits="userSpaceOnUse" color-interpolation-filters="sRGB">
<feFlood flood-opacity="0" result="BackgroundImageFix"/>
<feBlend mode="normal" in="SourceGraphic" in2="BackgroundImageFix" result="shape"/>
<feGaussianBlur stdDeviation="14" result="effect1_foregroundBlur_128_1819"/>
</filter>
<linearGradient id="paint0_linear_128_1819" x1="132.084" y1="200.978" x2="176.58" y2="154.593" gradientUnits="userSpaceOnUse">
<stop stop-color="#53199C"/>
<stop offset="1" stop-color="#F2BB9E"/>
</linearGradient>
</defs>
</svg>
