<svg width="324" height="280" viewBox="0 0 324 280" fill="none" xmlns="http://www.w3.org/2000/svg">
<path d="M127.177 202L132.877 181.24H137.917L143.617 202H141.337L139.837 196.66H130.957L129.457 202H127.177ZM134.617 183.22L131.467 194.59H139.327L136.177 183.22H134.617ZM144.551 187H146.951L150.461 200.05H151.571L155.201 187H157.511L153.281 202H148.781L144.551 187ZM170.76 191.53V199.21C170.82 199.95 171.4 200.39 172.5 200.53L172.41 202.3C170.83 202.3 169.64 201.9 168.84 201.1C167.04 201.9 165.24 202.3 163.44 202.3C162.06 202.3 161.01 201.91 160.29 201.13C159.57 200.35 159.21 199.23 159.21 197.77C159.21 196.31 159.58 195.24 160.32 194.56C161.06 193.86 162.22 193.43 163.8 193.27L168.51 192.82V191.53C168.51 190.51 168.29 189.78 167.85 189.34C167.41 188.9 166.81 188.68 166.05 188.68C164.45 188.68 162.79 188.78 161.07 188.98L160.14 189.07L160.05 187.36C162.25 186.92 164.2 186.7 165.9 186.7C167.6 186.7 168.83 187.09 169.59 187.87C170.37 188.65 170.76 189.87 170.76 191.53ZM161.52 197.65C161.52 199.49 162.28 200.41 163.8 200.41C165.16 200.41 166.5 200.18 167.82 199.72L168.51 199.48V194.53L164.07 194.95C163.17 195.03 162.52 195.29 162.12 195.73C161.72 196.17 161.52 196.81 161.52 197.65ZM177.449 202H175.199V187H177.419V188.05C179.039 187.15 180.589 186.7 182.069 186.7C184.069 186.7 185.409 187.24 186.089 188.32C186.789 189.4 187.139 191.32 187.139 194.08V202H184.919V194.14C184.919 192.06 184.709 190.64 184.289 189.88C183.889 189.1 183.019 188.71 181.679 188.71C181.039 188.71 180.359 188.81 179.639 189.01C178.939 189.19 178.399 189.37 178.019 189.55L177.449 189.82V202ZM198.995 188.95H194.225V196.12C194.225 197.84 194.345 198.97 194.585 199.51C194.845 200.05 195.445 200.32 196.385 200.32L199.055 200.14L199.205 202C197.865 202.22 196.845 202.33 196.145 202.33C194.585 202.33 193.505 201.95 192.905 201.19C192.305 200.43 192.005 198.98 192.005 196.84V188.95H189.875V187H192.005V182.41H194.225V187H198.995V188.95ZM201.742 202V187H203.992V202H201.742ZM201.742 183.61V181H203.992V183.61H201.742ZM213.015 188.71C210.835 188.71 209.745 189.47 209.745 190.99C209.745 191.69 209.995 192.19 210.495 192.49C210.995 192.77 212.135 193.07 213.915 193.39C215.695 193.69 216.955 194.12 217.695 194.68C218.435 195.24 218.805 196.29 218.805 197.83C218.805 199.37 218.305 200.5 217.305 201.22C216.325 201.94 214.885 202.3 212.985 202.3C211.745 202.3 210.285 202.16 208.605 201.88L207.705 201.73L207.825 199.78C210.105 200.12 211.825 200.29 212.985 200.29C214.145 200.29 215.025 200.11 215.625 199.75C216.245 199.37 216.555 198.75 216.555 197.89C216.555 197.01 216.295 196.42 215.775 196.12C215.255 195.8 214.115 195.5 212.355 195.22C210.595 194.94 209.345 194.53 208.605 193.99C207.865 193.45 207.495 192.45 207.495 190.99C207.495 189.53 208.005 188.45 209.025 187.75C210.065 187.05 211.355 186.7 212.895 186.7C214.115 186.7 215.645 186.84 217.485 187.12L218.325 187.27L218.265 189.19C216.045 188.87 214.295 188.71 213.015 188.71ZM234.962 182.95C231.962 182.95 230.462 184.08 230.462 186.34C230.462 187.6 230.802 188.47 231.482 188.95C232.182 189.41 233.582 189.88 235.682 190.36C237.802 190.82 239.302 191.43 240.182 192.19C241.062 192.93 241.502 194.16 241.502 195.88C241.502 200.14 239.292 202.27 234.872 202.27C233.412 202.27 231.582 202.1 229.382 201.76L228.302 201.61L228.542 199.69C231.262 200.05 233.332 200.23 234.752 200.23C237.712 200.23 239.192 198.84 239.192 196.06C239.192 194.94 238.862 194.14 238.202 193.66C237.562 193.16 236.352 192.74 234.572 192.4C232.232 191.9 230.572 191.26 229.592 190.48C228.612 189.68 228.122 188.35 228.122 186.49C228.122 182.77 230.352 180.91 234.812 180.91C236.272 180.91 238.022 181.06 240.062 181.36L241.082 181.51L240.872 183.46C238.092 183.12 236.122 182.95 234.962 182.95ZM245.102 202V187H247.352V202H245.102ZM245.102 183.61V181H247.352V183.61H245.102ZM257.454 209.05C255.054 209.05 253.374 208.72 252.414 208.06C251.474 207.42 251.004 206.24 251.004 204.52C251.004 203.7 251.184 203.03 251.544 202.51C251.904 202.01 252.514 201.44 253.374 200.8C252.814 200.42 252.534 199.73 252.534 198.73C252.534 198.39 252.784 197.76 253.284 196.84L253.554 196.36C251.974 195.64 251.184 194.13 251.184 191.83C251.184 188.41 253.054 186.7 256.794 186.7C257.754 186.7 258.644 186.8 259.464 187L259.914 187.09L264.354 186.97V188.89L261.504 188.83C262.164 189.49 262.494 190.49 262.494 191.83C262.494 193.71 262.024 195.03 261.084 195.79C260.164 196.53 258.704 196.9 256.704 196.9C256.164 196.9 255.674 196.86 255.234 196.78C254.874 197.66 254.694 198.23 254.694 198.49C254.694 199.11 254.884 199.5 255.264 199.66C255.644 199.8 256.794 199.87 258.714 199.87C260.634 199.87 262.014 200.17 262.854 200.77C263.694 201.37 264.114 202.54 264.114 204.28C264.114 207.46 261.894 209.05 257.454 209.05ZM253.224 204.34C253.224 205.4 253.514 206.13 254.094 206.53C254.694 206.95 255.784 207.16 257.364 207.16C258.964 207.16 260.104 206.94 260.784 206.5C261.484 206.06 261.834 205.32 261.834 204.28C261.834 203.26 261.584 202.6 261.084 202.3C260.584 202 259.604 201.85 258.144 201.85L254.904 201.7C254.244 202.18 253.794 202.6 253.554 202.96C253.334 203.32 253.224 203.78 253.224 204.34ZM253.434 191.83C253.434 193.01 253.694 193.85 254.214 194.35C254.754 194.85 255.634 195.1 256.854 195.1C258.074 195.1 258.944 194.85 259.464 194.35C259.984 193.85 260.244 193.01 260.244 191.83C260.244 190.63 259.984 189.78 259.464 189.28C258.944 188.78 258.074 188.53 256.854 188.53C255.634 188.53 254.754 188.79 254.214 189.31C253.694 189.81 253.434 190.65 253.434 191.83ZM269.324 202H267.074V187H269.294V188.05C270.914 187.15 272.464 186.7 273.944 186.7C275.944 186.7 277.284 187.24 277.964 188.32C278.664 189.4 279.014 191.32 279.014 194.08V202H276.794V194.14C276.794 192.06 276.584 190.64 276.164 189.88C275.764 189.1 274.894 188.71 273.554 188.71C272.914 188.71 272.234 188.81 271.514 189.01C270.814 189.19 270.274 189.37 269.894 189.55L269.324 189.82V202ZM293.778 191.53V199.21C293.838 199.95 294.418 200.39 295.518 200.53L295.428 202.3C293.848 202.3 292.658 201.9 291.858 201.1C290.058 201.9 288.258 202.3 286.458 202.3C285.078 202.3 284.028 201.91 283.308 201.13C282.588 200.35 282.228 199.23 282.228 197.77C282.228 196.31 282.598 195.24 283.338 194.56C284.078 193.86 285.238 193.43 286.818 193.27L291.528 192.82V191.53C291.528 190.51 291.308 189.78 290.868 189.34C290.428 188.9 289.828 188.68 289.068 188.68C287.468 188.68 285.808 188.78 284.088 188.98L283.158 189.07L283.068 187.36C285.268 186.92 287.218 186.7 288.918 186.7C290.618 186.7 291.848 187.09 292.608 187.87C293.388 188.65 293.778 189.87 293.778 191.53ZM284.538 197.65C284.538 199.49 285.298 200.41 286.818 200.41C288.178 200.41 289.518 200.18 290.838 199.72L291.528 199.48V194.53L287.088 194.95C286.188 195.03 285.538 195.29 285.138 195.73C284.738 196.17 284.538 196.81 284.538 197.65ZM298.397 202V180.46H300.647V202H298.397Z" fill="white"/>
<g filter="url(#filter0_f_128_1817)">
<circle cx="213.986" cy="112.093" r="26.6614" transform="rotate(19.8276 213.986 112.093)" fill="#DA7EFF" fill-opacity="0.4"/>
</g>
<g filter="url(#filter1_ii_128_1817)">
<circle cx="213.715" cy="111.517" r="32" transform="rotate(19.8276 213.715 111.517)" fill="#53199C"/>
</g>
<g filter="url(#filter2_f_128_1817)">
<circle cx="228.169" cy="106.807" r="9.33333" transform="rotate(19.8276 228.169 106.807)" fill="#8744DD"/>
</g>
<circle cx="49.567" cy="108.858" r="11" transform="rotate(19.8276 49.567 108.858)" fill="#191931"/>
<circle cx="66.1136" cy="62.9672" r="11" transform="rotate(19.8276 66.1136 62.9672)" fill="#191931"/>
<circle cx="67.3744" cy="225.021" r="11" transform="rotate(19.8276 67.3744 225.021)" fill="#191931"/>
<line x1="75.1715" y1="71.1187" x2="93.4958" y2="91.2228" stroke="#434363"/>
<line x1="61.1705" y1="108.675" x2="82.9762" y2="107.303" stroke="#434363"/>
<line x1="73.0539" y1="215.938" x2="96.5423" y2="119.273" stroke="#434363"/>
<circle cx="103.074" cy="107.172" r="20" transform="rotate(19.8276 103.074 107.172)" fill="#F2BB9E"/>
<circle cx="102.727" cy="106.434" r="14" transform="rotate(19.8276 102.727 106.434)" fill="#191931"/>
<line x1="121.311" y1="107.6" x2="181.618" y2="113.716" stroke="url(#paint0_linear_128_1817)"/>
<g filter="url(#filter3_f_128_1817)">
<circle cx="213.842" cy="110.912" r="27.0642" transform="rotate(7.29173 213.842 110.912)" fill="#DA7EFF" fill-opacity="0.4"/>
</g>
<g filter="url(#filter4_ii_128_1817)">
<circle cx="213.447" cy="110.401" r="32.4834" transform="rotate(7.29173 213.447 110.401)" fill="#53199C"/>
</g>
<g filter="url(#filter5_f_128_1817)">
<circle cx="226.732" cy="102.549" r="9.47433" transform="rotate(7.29173 226.732 102.549)" fill="#8744DD"/>
</g>
<path d="M182.665 120.351C166.338 127.99 155.903 134.311 156.766 136.508C158.079 139.849 185.028 132.386 216.959 119.837C248.889 107.289 273.71 94.4085 272.397 91.0674C271.545 88.8993 259.898 91.2809 243.1 96.649" stroke="#F2BB9E"/>
<circle cx="158.082" cy="135.52" r="11" transform="rotate(7.29173 158.082 135.52)" fill="#191931"/>
<defs>
<filter id="filter0_f_128_1817" x="104.317" y="2.4248" width="219.337" height="219.337" filterUnits="userSpaceOnUse" color-interpolation-filters="sRGB">
<feFlood flood-opacity="0" result="BackgroundImageFix"/>
<feBlend mode="normal" in="SourceGraphic" in2="BackgroundImageFix" result="shape"/>
<feGaussianBlur stdDeviation="41.5" result="effect1_foregroundBlur_128_1817"/>
</filter>
<filter id="filter1_ii_128_1817" x="181.706" y="79.5083" width="66.0176" height="66.0173" filterUnits="userSpaceOnUse" color-interpolation-filters="sRGB">
<feFlood flood-opacity="0" result="BackgroundImageFix"/>
<feBlend mode="normal" in="SourceGraphic" in2="BackgroundImageFix" result="shape"/>
<feColorMatrix in="SourceAlpha" type="matrix" values="0 0 0 0 0 0 0 0 0 0 0 0 0 0 0 0 0 0 127 0" result="hardAlpha"/>
<feOffset dx="2" dy="2"/>
<feGaussianBlur stdDeviation="4"/>
<feComposite in2="hardAlpha" operator="arithmetic" k2="-1" k3="1"/>
<feColorMatrix type="matrix" values="0 0 0 0 0.831373 0 0 0 0 0.419608 0 0 0 0 0.996078 0 0 0 0.66 0"/>
<feBlend mode="normal" in2="shape" result="effect1_innerShadow_128_1817"/>
<feColorMatrix in="SourceAlpha" type="matrix" values="0 0 0 0 0 0 0 0 0 0 0 0 0 0 0 0 0 0 127 0" result="hardAlpha"/>
<feOffset dx="1" dy="1"/>
<feGaussianBlur stdDeviation="2"/>
<feComposite in2="hardAlpha" operator="arithmetic" k2="-1" k3="1"/>
<feColorMatrix type="matrix" values="0 0 0 0 0.831373 0 0 0 0 0.419608 0 0 0 0 0.996078 0 0 0 0.36 0"/>
<feBlend mode="normal" in2="effect1_innerShadow_128_1817" result="effect2_innerShadow_128_1817"/>
</filter>
<filter id="filter2_f_128_1817" x="190.833" y="69.4712" width="74.6718" height="74.6719" filterUnits="userSpaceOnUse" color-interpolation-filters="sRGB">
<feFlood flood-opacity="0" result="BackgroundImageFix"/>
<feBlend mode="normal" in="SourceGraphic" in2="BackgroundImageFix" result="shape"/>
<feGaussianBlur stdDeviation="14" result="effect1_foregroundBlur_128_1817"/>
</filter>
<filter id="filter3_f_128_1817" x="103.775" y="0.844971" width="220.134" height="220.134" filterUnits="userSpaceOnUse" color-interpolation-filters="sRGB">
<feFlood flood-opacity="0" result="BackgroundImageFix"/>
<feBlend mode="normal" in="SourceGraphic" in2="BackgroundImageFix" result="shape"/>
<feGaussianBlur stdDeviation="41.5" result="effect1_foregroundBlur_128_1817"/>
</filter>
<filter id="filter4_ii_128_1817" x="180.96" y="77.9138" width="66.974" height="66.9739" filterUnits="userSpaceOnUse" color-interpolation-filters="sRGB">
<feFlood flood-opacity="0" result="BackgroundImageFix"/>
<feBlend mode="normal" in="SourceGraphic" in2="BackgroundImageFix" result="shape"/>
<feColorMatrix in="SourceAlpha" type="matrix" values="0 0 0 0 0 0 0 0 0 0 0 0 0 0 0 0 0 0 127 0" result="hardAlpha"/>
<feOffset dx="2" dy="2"/>
<feGaussianBlur stdDeviation="4"/>
<feComposite in2="hardAlpha" operator="arithmetic" k2="-1" k3="1"/>
<feColorMatrix type="matrix" values="0 0 0 0 0.831373 0 0 0 0 0.419608 0 0 0 0 0.996078 0 0 0 0.66 0"/>
<feBlend mode="normal" in2="shape" result="effect1_innerShadow_128_1817"/>
<feColorMatrix in="SourceAlpha" type="matrix" values="0 0 0 0 0 0 0 0 0 0 0 0 0 0 0 0 0 0 127 0" result="hardAlpha"/>
<feOffset dx="1" dy="1"/>
<feGaussianBlur stdDeviation="2"/>
<feComposite in2="hardAlpha" operator="arithmetic" k2="-1" k3="1"/>
<feColorMatrix type="matrix" values="0 0 0 0 0.831373 0 0 0 0 0.419608 0 0 0 0 0.996078 0 0 0 0.36 0"/>
<feBlend mode="normal" in2="effect1_innerShadow_128_1817" result="effect2_innerShadow_128_1817"/>
</filter>
<filter id="filter5_f_128_1817" x="189.257" y="65.0737" width="74.9506" height="74.9509" filterUnits="userSpaceOnUse" color-interpolation-filters="sRGB">
<feFlood flood-opacity="0" result="BackgroundImageFix"/>
<feBlend mode="normal" in="SourceGraphic" in2="BackgroundImageFix" result="shape"/>
<feGaussianBlur stdDeviation="14" result="effect1_foregroundBlur_128_1817"/>
</filter>
<linearGradient id="paint0_linear_128_1817" x1="181.567" y1="114.214" x2="117.554" y2="108.407" gradientUnits="userSpaceOnUse">
<stop stop-color="#53199C"/>
<stop offset="1" stop-color="#F2BB9E"/>
</linearGradient>
</defs>
</svg>
