<svg width="452" height="373" viewBox="0 0 452 373" fill="none" xmlns="http://www.w3.org/2000/svg">
<g filter="url(#filter0_f_128_1815)">
<circle cx="235.907" cy="143.423" r="26.6614" transform="rotate(46.5729 235.907 143.423)" fill="#DA7EFF" fill-opacity="0.4"/>
</g>
<g filter="url(#filter1_ii_128_1815)">
<circle cx="235.925" cy="142.787" r="32" transform="rotate(46.5729 235.925 142.787)" fill="#53199C"/>
</g>
<g filter="url(#filter2_f_128_1815)">
<circle cx="250.952" cy="145.085" r="9.33333" transform="rotate(46.5729 250.952 145.085)" fill="#8744DD"/>
</g>
<circle cx="146.901" cy="148.449" r="11" transform="rotate(46.5729 146.901 148.449)" fill="#191931"/>
<circle cx="90.5344" cy="66.5415" r="11" transform="rotate(46.5729 90.5344 66.5415)" fill="#191931"/>
<circle cx="125.963" cy="33.0068" r="11" transform="rotate(46.5729 125.963 33.0068)" fill="#191931"/>
<circle cx="54.1604" cy="178.29" r="11" transform="rotate(46.5729 54.1604 178.29)" fill="#191931"/>
<line x1="130.383" y1="44.3623" x2="137.7" y2="70.5619" stroke="#434363"/>
<line x1="100.979" y1="71.5998" x2="121.069" y2="80.1874" stroke="#434363"/>
<line x1="146.702" y1="137.685" x2="142.809" y2="107.325" stroke="#434363"/>
<line x1="63.3199" y1="172.735" x2="127.797" y2="96.9823" stroke="#434363"/>
<circle cx="139.076" cy="89.1154" r="20" transform="rotate(46.5729 139.076 89.1154)" fill="#F2BB9E"/>
<circle cx="138.792" cy="89.7915" r="14" transform="rotate(46.5729 138.792 89.7915)" fill="#191931"/>
<line x1="155.169" y1="97.7047" x2="206.272" y2="130.306" stroke="url(#paint0_linear_128_1815)"/>
<circle cx="328.224" cy="247.687" r="11" transform="rotate(-104.81 328.224 247.687)" fill="#191931"/>
<circle cx="338.474" cy="346.586" r="11" transform="rotate(-104.81 338.474 346.586)" fill="#191931"/>
<circle cx="291.312" cy="359.055" r="11" transform="rotate(-104.81 291.312 359.055)" fill="#191931"/>
<circle cx="423.928" cy="265.91" r="11" transform="rotate(-104.81 423.928 265.91)" fill="#191931"/>
<line x1="292.871" y1="346.97" x2="298.997" y2="320.466" stroke="#434363"/>
<line x1="331.729" y1="337.143" x2="318.206" y2="319.982" stroke="#434363"/>
<line x1="323.243" y1="257.231" x2="312.12" y2="285.747" stroke="#434363"/>
<line x1="413.227" y1="266.399" x2="320.344" y2="302.017" stroke="#434363"/>
<circle cx="306.675" cy="303.52" r="20" transform="rotate(-104.81 306.675 303.52)" fill="#F2BB9E"/>
<circle cx="307.113" cy="304.114" r="14" transform="rotate(-104.81 307.113 304.114)" fill="#191931"/>
<line x1="296.651" y1="288.253" x2="239.552" y2="173.222" stroke="url(#paint1_linear_128_1815)"/>
<path d="M143.484 223L149.184 202.24L154.224 202.24L159.924 223L157.644 223L156.144 217.66L147.264 217.66L145.764 223L143.484 223ZM150.924 204.22L147.774 215.59L155.634 215.59L152.484 204.22L150.924 204.22ZM160.857 208L163.257 208L166.767 221.05L167.877 221.05L171.507 208L173.817 208L169.587 223L165.087 223L160.857 208ZM187.066 212.53L187.066 220.21C187.126 220.95 187.706 221.39 188.806 221.53L188.716 223.3C187.136 223.3 185.946 222.9 185.146 222.1C183.346 222.9 181.546 223.3 179.746 223.3C178.366 223.3 177.316 222.91 176.596 222.13C175.876 221.35 175.516 220.23 175.516 218.77C175.516 217.31 175.886 216.24 176.626 215.56C177.366 214.86 178.526 214.43 180.106 214.27L184.816 213.82L184.816 212.53C184.816 211.51 184.596 210.78 184.156 210.34C183.716 209.9 183.116 209.68 182.356 209.68C180.756 209.68 179.096 209.78 177.376 209.98L176.446 210.07L176.356 208.36C178.556 207.92 180.506 207.7 182.206 207.7C183.906 207.7 185.136 208.09 185.896 208.87C186.676 209.65 187.066 210.87 187.066 212.53ZM177.826 218.65C177.826 220.49 178.586 221.41 180.106 221.41C181.466 221.41 182.806 221.18 184.126 220.72L184.816 220.48L184.816 215.53L180.376 215.95C179.476 216.03 178.826 216.29 178.426 216.73C178.026 217.17 177.826 217.81 177.826 218.65ZM193.756 223L191.506 223L191.506 208L193.726 208L193.726 209.05C195.346 208.15 196.896 207.7 198.376 207.7C200.376 207.7 201.716 208.24 202.396 209.32C203.096 210.4 203.446 212.32 203.446 215.08L203.446 223L201.226 223L201.226 215.14C201.226 213.06 201.016 211.64 200.596 210.88C200.196 210.1 199.326 209.71 197.986 209.71C197.346 209.71 196.666 209.81 195.946 210.01C195.246 210.19 194.706 210.37 194.326 210.55L193.756 210.82L193.756 223ZM215.301 209.95L210.531 209.95L210.531 217.12C210.531 218.84 210.651 219.97 210.891 220.51C211.151 221.05 211.751 221.32 212.691 221.32L215.361 221.14L215.511 223C214.171 223.22 213.151 223.33 212.451 223.33C210.891 223.33 209.811 222.95 209.211 222.19C208.611 221.43 208.311 219.98 208.311 217.84L208.311 209.95L206.181 209.95L206.181 208L208.311 208L208.311 203.41L210.531 203.41L210.531 208L215.301 208L215.301 209.95ZM218.049 223L218.049 208L220.299 208L220.299 223L218.049 223ZM218.049 204.61L218.049 202L220.299 202L220.299 204.61L218.049 204.61ZM229.321 209.71C227.141 209.71 226.051 210.47 226.051 211.99C226.051 212.69 226.301 213.19 226.801 213.49C227.301 213.77 228.441 214.07 230.221 214.39C232.001 214.69 233.261 215.12 234.001 215.68C234.741 216.24 235.111 217.29 235.111 218.83C235.111 220.37 234.611 221.5 233.611 222.22C232.631 222.94 231.191 223.3 229.291 223.3C228.051 223.3 226.591 223.16 224.911 222.88L224.011 222.73L224.131 220.78C226.411 221.12 228.131 221.29 229.291 221.29C230.451 221.29 231.331 221.11 231.931 220.75C232.551 220.37 232.861 219.75 232.861 218.89C232.861 218.01 232.601 217.42 232.081 217.12C231.561 216.8 230.421 216.5 228.661 216.22C226.901 215.94 225.651 215.53 224.911 214.99C224.171 214.45 223.801 213.45 223.801 211.99C223.801 210.53 224.311 209.45 225.331 208.75C226.371 208.05 227.661 207.7 229.201 207.7C230.421 207.7 231.951 207.84 233.791 208.12L234.631 208.27L234.571 210.19C232.351 209.87 230.601 209.71 229.321 209.71ZM245.538 202.24L253.068 202.24C255.128 202.24 256.668 202.67 257.688 203.53C258.728 204.37 259.248 205.7 259.248 207.52C259.248 208.82 259.018 209.84 258.558 210.58C258.118 211.3 257.458 211.87 256.578 212.29C258.778 213.05 259.878 214.68 259.878 217.18C259.878 219.26 259.328 220.75 258.228 221.65C257.128 222.55 255.538 223 253.458 223L245.538 223L245.538 202.24ZM253.218 213.46L247.848 213.46L247.848 220.96L253.368 220.96C254.728 220.96 255.758 220.68 256.458 220.12C257.178 219.54 257.538 218.53 257.538 217.09C257.538 216.33 257.388 215.69 257.088 215.17C256.808 214.65 256.428 214.28 255.948 214.06C255.068 213.66 254.158 213.46 253.218 213.46ZM252.978 204.28L247.848 204.28L247.848 211.45L253.188 211.45C254.468 211.45 255.398 211.15 255.978 210.55C256.578 209.93 256.878 209.01 256.878 207.79C256.878 206.55 256.558 205.66 255.918 205.12C255.298 204.56 254.318 204.28 252.978 204.28ZM272.995 208L275.245 208L275.245 223L272.995 223L272.995 221.95C271.495 222.85 270.015 223.3 268.555 223.3C266.515 223.3 265.155 222.77 264.475 221.71C263.815 220.65 263.485 218.69 263.485 215.83L263.485 208L265.735 208L265.735 215.8C265.735 217.98 265.925 219.44 266.305 220.18C266.685 220.92 267.545 221.29 268.885 221.29C269.545 221.29 270.215 221.2 270.895 221.02C271.575 220.82 272.095 220.63 272.455 220.45L272.995 220.18L272.995 208ZM278.162 208L280.412 208L284.162 221.05L285.152 221.05L288.932 208L291.182 208L284.942 229.66L282.692 229.66L284.642 223L282.422 223L278.162 208ZM294.074 223L294.074 208L296.324 208L296.324 223L294.074 223ZM294.074 204.61L294.074 202L296.324 202L296.324 204.61L294.074 204.61ZM302.887 223L300.637 223L300.637 208L302.857 208L302.857 209.05C304.477 208.15 306.027 207.7 307.507 207.7C309.507 207.7 310.847 208.24 311.527 209.32C312.227 210.4 312.577 212.32 312.577 215.08L312.577 223L310.357 223L310.357 215.14C310.357 213.06 310.147 211.64 309.727 210.88C309.327 210.1 308.457 209.71 307.117 209.71C306.477 209.71 305.797 209.81 305.077 210.01C304.377 210.19 303.837 210.37 303.457 210.55L302.887 210.82L302.887 223ZM322.54 230.05C320.14 230.05 318.46 229.72 317.5 229.06C316.56 228.42 316.09 227.24 316.09 225.52C316.09 224.7 316.27 224.03 316.63 223.51C316.99 223.01 317.6 222.44 318.46 221.8C317.9 221.42 317.62 220.73 317.62 219.73C317.62 219.39 317.87 218.76 318.37 217.84L318.64 217.36C317.06 216.64 316.27 215.13 316.27 212.83C316.27 209.41 318.14 207.7 321.88 207.7C322.84 207.7 323.73 207.8 324.55 208L325 208.09L329.44 207.97L329.44 209.89L326.59 209.83C327.25 210.49 327.58 211.49 327.58 212.83C327.58 214.71 327.11 216.03 326.17 216.79C325.25 217.53 323.79 217.9 321.79 217.9C321.25 217.9 320.76 217.86 320.32 217.78C319.96 218.66 319.78 219.23 319.78 219.49C319.78 220.11 319.97 220.5 320.35 220.66C320.73 220.8 321.88 220.87 323.8 220.87C325.72 220.87 327.1 221.17 327.94 221.77C328.78 222.37 329.2 223.54 329.2 225.28C329.2 228.46 326.98 230.05 322.54 230.05ZM318.31 225.34C318.31 226.4 318.6 227.13 319.18 227.53C319.78 227.95 320.87 228.16 322.45 228.16C324.05 228.16 325.19 227.94 325.87 227.5C326.57 227.06 326.92 226.32 326.92 225.28C326.92 224.26 326.67 223.6 326.17 223.3C325.67 223 324.69 222.85 323.23 222.85L319.99 222.7C319.33 223.18 318.88 223.6 318.64 223.96C318.42 224.32 318.31 224.78 318.31 225.34ZM318.52 212.83C318.52 214.01 318.78 214.85 319.3 215.35C319.84 215.85 320.72 216.1 321.94 216.1C323.16 216.1 324.03 215.85 324.55 215.35C325.07 214.85 325.33 214.01 325.33 212.83C325.33 211.63 325.07 210.78 324.55 210.28C324.03 209.78 323.16 209.53 321.94 209.53C320.72 209.53 319.84 209.79 319.3 210.31C318.78 210.81 318.52 211.65 318.52 212.83Z" fill="white"/>
<defs>
<filter id="filter0_f_128_1815" x="126.245" y="33.762" width="219.323" height="219.323" filterUnits="userSpaceOnUse" color-interpolation-filters="sRGB">
<feFlood flood-opacity="0" result="BackgroundImageFix"/>
<feBlend mode="normal" in="SourceGraphic" in2="BackgroundImageFix" result="shape"/>
<feGaussianBlur stdDeviation="41.5" result="effect1_foregroundBlur_128_1815"/>
</filter>
<filter id="filter1_ii_128_1815" x="203.925" y="110.787" width="66.0001" height="66" filterUnits="userSpaceOnUse" color-interpolation-filters="sRGB">
<feFlood flood-opacity="0" result="BackgroundImageFix"/>
<feBlend mode="normal" in="SourceGraphic" in2="BackgroundImageFix" result="shape"/>
<feColorMatrix in="SourceAlpha" type="matrix" values="0 0 0 0 0 0 0 0 0 0 0 0 0 0 0 0 0 0 127 0" result="hardAlpha"/>
<feOffset dx="2" dy="2"/>
<feGaussianBlur stdDeviation="4"/>
<feComposite in2="hardAlpha" operator="arithmetic" k2="-1" k3="1"/>
<feColorMatrix type="matrix" values="0 0 0 0 0.831373 0 0 0 0 0.419608 0 0 0 0 0.996078 0 0 0 0.66 0"/>
<feBlend mode="normal" in2="shape" result="effect1_innerShadow_128_1815"/>
<feColorMatrix in="SourceAlpha" type="matrix" values="0 0 0 0 0 0 0 0 0 0 0 0 0 0 0 0 0 0 127 0" result="hardAlpha"/>
<feOffset dx="1" dy="1"/>
<feGaussianBlur stdDeviation="2"/>
<feComposite in2="hardAlpha" operator="arithmetic" k2="-1" k3="1"/>
<feColorMatrix type="matrix" values="0 0 0 0 0.831373 0 0 0 0 0.419608 0 0 0 0 0.996078 0 0 0 0.36 0"/>
<feBlend mode="normal" in2="effect1_innerShadow_128_1815" result="effect2_innerShadow_128_1815"/>
</filter>
<filter id="filter2_f_128_1815" x="213.619" y="107.752" width="74.6667" height="74.6665" filterUnits="userSpaceOnUse" color-interpolation-filters="sRGB">
<feFlood flood-opacity="0" result="BackgroundImageFix"/>
<feBlend mode="normal" in="SourceGraphic" in2="BackgroundImageFix" result="shape"/>
<feGaussianBlur stdDeviation="14" result="effect1_foregroundBlur_128_1815"/>
</filter>
<linearGradient id="paint0_linear_128_1815" x1="206.003" y1="130.728" x2="151.451" y2="96.7345" gradientUnits="userSpaceOnUse">
<stop stop-color="#53199C"/>
<stop offset="1" stop-color="#F2BB9E"/>
</linearGradient>
<linearGradient id="paint1_linear_128_1815" x1="240" y1="173" x2="303.261" y2="293.562" gradientUnits="userSpaceOnUse">
<stop stop-color="#53199C"/>
<stop offset="1" stop-color="#F2BB9E"/>
</linearGradient>
</defs>
</svg>
