<svg width="78" height="48" viewBox="0 0 78 48" fill="none" xmlns="http://www.w3.org/2000/svg">
<g filter="url(#filter0_d_22_111)">
<path d="M4.50072 25.5894H4V26.1024H4.50072V25.5894ZM4.50072 23.304V22.791H4V23.304H4.50072ZM15.7669 23.304H16.2676V22.791H15.7669V23.304ZM15.7669 25.5894V26.1024H16.2676V25.5894H15.7669ZM11.4181 25.5894V25.0764H10.9174V25.5894H11.4181ZM11.4181 39.1171V39.6301H11.9189V39.1171H11.4181ZM8.89452 39.1171H8.3938V39.6301H8.89452V39.1171ZM8.89452 25.5894H9.39523V25.0764H8.89452V25.5894ZM5.00144 25.5894V23.304H4V25.5894H5.00144ZM4.50072 23.817H15.7669V22.791H4.50072V23.817ZM15.2662 23.304V25.5894H16.2676V23.304H15.2662ZM15.7669 25.0764H11.4181V26.1024H15.7669V25.0764ZM10.9174 25.5894V39.1171H11.9189V25.5894H10.9174ZM11.4181 38.6041H8.89452V39.6301H11.4181V38.6041ZM9.39523 39.1171V25.5894H8.3938V39.1171H9.39523ZM8.89452 25.0764H4.50072V26.1024H8.89452V25.0764ZM16.0369 39.1171H15.5362V39.6301H16.0369V39.1171ZM16.0369 27.5747V27.0617H15.5362V27.5747H16.0369ZM18.4704 27.5747H18.9711V27.0617H18.4704V27.5747ZM18.4704 28.9598H17.9697V29.9028L18.7424 29.3905L18.4704 28.9598ZM22.3009 27.3208H22.8016V26.7022L22.2083 26.8166L22.3009 27.3208ZM22.3009 29.837L22.398 30.3403L22.8016 30.2585V29.837H22.3009ZM18.9886 30.8527L19.1782 31.3276L19.1848 31.3248L19.1913 31.3219L18.9886 30.8527ZM18.4929 31.0605L18.3034 30.5857L17.9922 30.7161V31.0605H18.4929ZM18.4929 39.1171V39.6301H18.9937V39.1171H18.4929ZM16.5376 39.1171V27.5747H15.5362V39.1171H16.5376ZM16.0369 28.0877H18.4704V27.0617H16.0369V28.0877ZM17.9697 27.5747V28.9598H18.9711V27.5747H17.9697ZM18.7424 29.3905C19.9739 28.5741 21.1905 28.0569 22.3935 27.8249L22.2083 26.8166C20.8577 27.0771 19.5206 27.6526 18.1984 28.5291L18.7424 29.3905ZM21.8002 27.3208V29.837H22.8016V27.3208H21.8002ZM22.2038 29.3338C20.8863 29.6006 19.7448 29.9488 18.786 30.3836L19.1913 31.3219C20.0651 30.9256 21.1319 30.5967 22.398 30.3403L22.2038 29.3338ZM18.7991 30.3779L18.3034 30.5857L18.6825 31.5353L19.1782 31.3276L18.7991 30.3779ZM17.9922 31.0605V39.1171H18.9937V31.0605H17.9922ZM18.4929 38.6041H16.0369V39.6301H18.4929V38.6041ZM31.0057 27.5747V27.0617H30.505V27.5747H31.0057ZM33.4392 27.5747H33.9399V27.0617H33.4392V27.5747ZM33.4392 39.1171V39.6301H33.9399V39.1171H33.4392ZM31.0057 39.1171H30.505V39.6301H31.0057V39.1171ZM31.0057 38.4015H31.5064V37.5145L30.7561 37.9568L31.0057 38.4015ZM24.8545 38.1014L24.4299 38.3733L24.4309 38.375L24.432 38.3768L24.8545 38.1014ZM24.0658 27.5747V27.0617H23.5651V27.5747H24.0658ZM26.5219 27.5747H27.0226V27.0617H26.5219V27.5747ZM26.8598 36.4162L27.3106 36.1928L26.8598 36.4162ZM30.6677 36.6701L30.4819 36.1938L30.4732 36.1974L30.4644 36.2013L30.6677 36.6701ZM31.0057 36.5316L31.1917 37.0079L31.5064 36.8789V36.5316H31.0057ZM31.0057 28.0877H33.4392V27.0617H31.0057V28.0877ZM32.9384 27.5747V39.1171H33.9399V27.5747H32.9384ZM33.4392 38.6041H31.0057V39.6301H33.4392V38.6041ZM31.5064 39.1171V38.4015H30.505V39.1171H31.5064ZM30.7561 37.9568C29.7093 38.5738 28.7817 38.858 27.9639 38.858V39.884C29.0088 39.884 30.1091 39.5219 31.2555 38.8461L30.7561 37.9568ZM27.9639 38.858C26.4842 38.858 25.6663 38.4528 25.2769 37.826L24.432 38.3768C25.0942 39.4428 26.3492 39.884 27.9639 39.884V38.858ZM25.2791 37.8295C24.8338 37.0996 24.5666 35.728 24.5666 33.5998H23.5651C23.5651 35.7501 23.8236 37.3795 24.4299 38.3733L25.2791 37.8295ZM24.5666 33.5998V27.5747H23.5651V33.5998H24.5666ZM24.0658 28.0877H26.5219V27.0617H24.0658V28.0877ZM26.0211 27.5747V33.6229H27.0226V27.5747H26.0211ZM26.0211 33.6229C26.0211 34.3277 26.0497 34.9294 26.1094 35.4232C26.1682 35.9084 26.261 36.326 26.4091 36.6396L27.3106 36.1928C27.2334 36.0293 27.1572 35.7428 27.1033 35.2969C27.0503 34.8596 27.0226 34.3033 27.0226 33.6229H26.0211ZM26.4091 36.6396C26.7614 37.3856 27.5442 37.6448 28.4371 37.6448V36.6188C27.6776 36.6188 27.4089 36.4009 27.3106 36.1928L26.4091 36.6396ZM28.4371 37.6448C29.3115 37.6448 30.1252 37.4786 30.8712 37.1389L30.4644 36.2013C29.8585 36.4773 29.185 36.6188 28.4371 36.6188V37.6448ZM30.8537 37.1464L31.1917 37.0079L30.8199 36.0553L30.4819 36.1938L30.8537 37.1464ZM31.5064 36.5316V27.5747H30.505V36.5316H31.5064ZM44.2316 29.9524L44.1643 30.4608L44.7198 30.5379L44.7321 29.9637L44.2316 29.9524ZM38.7112 29.8832L38.9688 30.3231L38.9718 30.3212L38.9746 30.3194L38.7112 29.8832ZM38.7563 31.6607L38.5322 32.1196L38.5362 32.1216L38.5402 32.1235L38.7563 31.6607ZM41.1447 32.2609L41.0556 32.7657L41.0588 32.7664L41.0623 32.7669L41.1447 32.2609ZM43.8261 33.2997L43.4941 33.6838L43.8261 33.2997ZM43.4655 38.5169L43.1714 38.1017L43.1696 38.1031L43.1676 38.1045L43.4655 38.5169ZM36.6833 38.9786L36.7732 38.474L36.7682 38.473L36.7629 38.4721L36.6833 38.9786ZM35.9848 38.8632L35.4846 38.8407L35.4648 39.2969L35.9049 39.3696L35.9848 38.8632ZM36.0749 36.7625L36.141 36.254L35.5988 36.1799L35.5747 36.7399L36.0749 36.7625ZM41.663 36.8317L41.4166 36.3851L41.4124 36.3875L41.4081 36.3901L41.663 36.8317ZM41.6855 34.8926L41.4369 35.338L41.4492 35.3451L41.4614 35.3514L41.6855 34.8926ZM39.3647 34.3155L39.2793 34.821L39.2828 34.8216L39.2861 34.8221L39.3647 34.3155ZM36.6833 33.3228L36.987 32.915L36.6833 33.3228ZM36.9988 28.2211L36.7069 27.8042L36.7051 27.8055L36.7033 27.8069L36.9988 28.2211ZM43.5782 27.7132L43.6733 27.2096L43.6681 27.2086L43.6631 27.2077L43.5782 27.7132ZM44.2767 27.8517L44.7772 27.863L44.7864 27.4303L44.3718 27.3481L44.2767 27.8517ZM44.2987 29.4441C42.5244 29.1976 41.2111 29.0701 40.3786 29.0701V30.0961C41.1382 30.0961 42.3935 30.2148 44.1643 30.4608L44.2987 29.4441ZM40.3786 29.0701C39.5737 29.0701 38.892 29.1651 38.4476 29.447L38.9746 30.3194C39.1611 30.2011 39.591 30.0961 40.3786 30.0961V29.0701ZM38.4536 29.4433C37.9762 29.7368 37.7599 30.2214 37.7599 30.7835H38.7613C38.7613 30.5145 38.8454 30.399 38.9688 30.3231L38.4536 29.4433ZM37.7599 30.7835C37.7599 31.0609 37.8152 31.3311 37.9511 31.5715C38.0886 31.8147 38.2904 31.9957 38.5322 32.1196L38.9801 31.2019C38.8915 31.1565 38.8457 31.1066 38.8176 31.0574C38.7883 31.0054 38.7613 30.9216 38.7613 30.7835H37.7599ZM38.5402 32.1235C38.7625 32.2324 39.0905 32.3348 39.4931 32.436C39.9049 32.5395 40.4269 32.6493 41.0556 32.7657L41.2336 31.7561C40.6157 31.6417 40.116 31.5361 39.7317 31.4395C39.3381 31.3406 39.0955 31.2583 38.9724 31.1979L38.5402 32.1235ZM41.0623 32.7669C42.2969 32.9777 43.0757 33.3042 43.4941 33.6838L44.158 32.9157C43.5249 32.3411 42.5162 31.975 41.2268 31.7549L41.0623 32.7669ZM43.4941 33.6838C43.8576 34.0138 44.114 34.6731 44.114 35.8391H45.1154C45.1154 34.5734 44.8458 33.5399 44.158 32.9157L43.4941 33.6838ZM44.114 35.8391C44.114 36.937 43.7747 37.6531 43.1714 38.1017L43.7595 38.9321C44.6883 38.2418 45.1154 37.1727 45.1154 35.8391H44.114ZM43.1676 38.1045C42.539 38.5812 41.5591 38.858 40.1533 38.858V39.884C41.6615 39.884 42.8897 39.5915 43.7632 38.9293L43.1676 38.1045ZM40.1533 38.858C39.2788 38.858 38.1549 38.7327 36.7732 38.474L36.5932 39.4832C38.0057 39.7478 39.1949 39.884 40.1533 39.884V38.858ZM36.7629 38.4721L36.0644 38.3567L35.9049 39.3696L36.6034 39.4851L36.7629 38.4721ZM36.485 38.8857L36.5752 36.785L35.5747 36.7399L35.4846 38.8407L36.485 38.8857ZM36.0086 37.271C37.8127 37.5174 39.1406 37.6448 39.973 37.6448V36.6188C39.2129 36.6188 37.9424 36.5 36.141 36.254L36.0086 37.271ZM39.973 37.6448C40.7814 37.6448 41.4632 37.5485 41.9176 37.2734L41.4081 36.3901C41.2015 36.5151 40.7567 36.6188 39.973 36.6188V37.6448ZM41.9093 37.2783C42.4361 36.9733 42.6819 36.4555 42.6819 35.8391H41.6805C41.6805 36.146 41.5806 36.29 41.4166 36.3851L41.9093 37.2783ZM42.6819 35.8391C42.6819 35.5474 42.6298 35.2644 42.4984 35.0136C42.364 34.757 42.1614 34.5629 41.9093 34.4337L41.4614 35.3514C41.5398 35.3916 41.5851 35.4399 41.6159 35.4987C41.6499 35.5634 41.6805 35.669 41.6805 35.8391H42.6819ZM41.9338 34.4472C41.7103 34.3163 41.3783 34.2086 40.9867 34.1113C40.5817 34.0105 40.0657 33.9099 39.443 33.8088L39.2861 34.8221C39.8952 34.9211 40.3819 35.0167 40.7504 35.1083C41.1327 35.2033 41.3453 35.2842 41.4369 35.338L41.9338 34.4472ZM39.4498 33.81C38.2628 33.5998 37.4629 33.2872 36.987 32.915L36.3794 33.7306C37.0451 34.251 38.0328 34.6002 39.2793 34.821L39.4498 33.81ZM36.987 32.915C36.6004 32.6128 36.3278 31.9989 36.3278 30.8758H35.3264C35.3264 32.1228 35.6243 33.1402 36.3794 33.7306L36.987 32.915ZM36.3278 30.8758C36.3278 29.8183 36.668 29.1039 37.2942 28.6353L36.7033 27.8069C35.767 28.5078 35.3264 29.5633 35.3264 30.8758H36.3278ZM37.2904 28.638C37.9819 28.1301 38.8862 27.8569 40.0406 27.8569V26.8309C38.7313 26.8309 37.6079 27.1424 36.7069 27.8042L37.2904 28.638ZM40.0406 27.8569C40.9635 27.8569 42.1124 27.9754 43.4933 28.2188L43.6631 27.2077C42.2498 26.9585 41.0403 26.8309 40.0406 26.8309V27.8569ZM43.4831 28.2169L44.1816 28.3554L44.3718 27.3481L43.6733 27.2096L43.4831 28.2169ZM43.776 27.8405L43.7309 29.9412L44.7321 29.9637L44.7772 27.863L43.776 27.8405ZM53.036 29.7216V30.2346H53.5367V29.7216H53.036ZM49.9266 29.7216V29.2086H49.4258V29.7216H49.9266ZM50.1294 36.6701L50.586 36.4596L50.1294 36.6701ZM51.1658 37.1318V37.6448H51.1751L51.1841 37.6445L51.1658 37.1318ZM53.0135 37.0626L53.5135 37.0331L53.4852 36.5315L52.9952 36.5499L53.0135 37.0626ZM53.1262 39.0709L53.2215 39.5745L53.6512 39.4891L53.6261 39.0415L53.1262 39.0709ZM48.1916 38.4707L47.7995 38.7899L47.802 38.7931L47.8045 38.7961L48.1916 38.4707ZM47.4931 29.7216H47.9938V29.2086H47.4931V29.7216ZM46.051 29.7216H45.5503V30.2346H46.051V29.7216ZM46.051 27.5747V27.0617H45.5503V27.5747H46.051ZM47.4931 27.5747V28.0877H47.9938V27.5747H47.4931ZM47.4931 24.2274V23.7144H46.9924V24.2274H47.4931ZM49.9266 24.2274H50.4273V23.7144H49.9266V24.2274ZM49.9266 27.5747H49.4258V28.0877H49.9266V27.5747ZM53.036 27.5747H53.5367V27.0617H53.036V27.5747ZM53.036 29.2086H49.9266V30.2346H53.036V29.2086ZM49.4258 29.7216V34.8003H50.4273V29.7216H49.4258ZM49.4258 34.8003C49.4258 35.2803 49.4431 35.6912 49.4797 36.0285C49.5152 36.3559 49.5726 36.6526 49.6727 36.8806L50.586 36.4596C50.551 36.3798 50.5072 36.211 50.4749 35.9151C50.4438 35.6291 50.4273 35.259 50.4273 34.8003H49.4258ZM49.6727 36.8806C49.9353 37.4783 50.5592 37.6448 51.1658 37.6448V36.6188C50.9268 36.6188 50.7768 36.5848 50.6897 36.5459C50.6136 36.512 50.595 36.4804 50.586 36.4596L49.6727 36.8806ZM51.1841 37.6445L53.0318 37.5752L52.9952 36.5499L51.1476 36.6192L51.1841 37.6445ZM52.5135 37.092L52.6262 39.1004L53.6261 39.0415L53.5135 37.0331L52.5135 37.092ZM53.0308 38.5673C52.0321 38.7659 51.3043 38.858 50.8279 38.858V39.884C51.4032 39.884 52.2073 39.7762 53.2215 39.5745L53.0308 38.5673ZM50.8279 38.858C49.6014 38.858 48.9154 38.5656 48.5786 38.1453L47.8045 38.7961C48.4294 39.5763 49.501 39.884 50.8279 39.884V38.858ZM48.5836 38.1515C48.4174 37.9374 48.2654 37.5902 48.1578 37.0664C48.0509 36.5471 47.9938 35.8868 47.9938 35.0773H46.9924C46.9924 35.9299 47.0519 36.6662 47.1779 37.2781C47.3028 37.8854 47.5001 38.4039 47.7995 38.7899L48.5836 38.1515ZM47.9938 35.0773V29.7216H46.9924V35.0773H47.9938ZM47.4931 29.2086H46.051V30.2346H47.4931V29.2086ZM46.5517 29.7216V27.5747H45.5503V29.7216H46.5517ZM46.051 28.0877H47.4931V27.0617H46.051V28.0877ZM47.9938 27.5747V24.2274H46.9924V27.5747H47.9938ZM47.4931 24.7404H49.9266V23.7144H47.4931V24.7404ZM49.4258 24.2274V27.5747H50.4273V24.2274H49.4258ZM49.9266 28.0877H53.036V27.0617H49.9266V28.0877ZM52.5353 27.5747V29.7216H53.5367V27.5747H52.5353Z" fill="white"/>
<path d="M4 16.0272L7.77989 0.343439H12.7228L16.5251 16.0272H14.0201L13.1925 12.6615H7.3102L6.48265 16.0272H4ZM9.70338 2.47277L7.80225 10.4177H12.7005L10.8217 2.47277H9.70338ZM17.0173 4.5792H19.567L21.7142 13.8979H22.4299L24.6665 4.5792H27.1492L24.2416 16.0272H19.9025L17.0173 4.5792ZM37.1775 8.10519V13.3255C37.1924 13.6613 37.2744 13.9131 37.4236 14.0811C37.5876 14.2337 37.8336 14.3329 38.1616 14.3787L38.0945 16.2791C36.8122 16.2791 35.8206 15.9967 35.1198 15.4319C33.927 15.9967 32.7266 16.2791 31.5189 16.2791C29.2972 16.2791 28.1864 15.0656 28.1864 12.6386C28.1864 11.4785 28.4847 10.639 29.081 10.12C29.6923 9.60106 30.6242 9.28815 31.8767 9.1813L34.762 8.92945V8.10519C34.762 7.49463 34.6278 7.06724 34.3594 6.82301C34.1059 6.57879 33.7257 6.45668 33.2187 6.45668C32.2644 6.45668 31.0716 6.51773 29.6401 6.63985L28.9244 6.68564L28.8349 4.92264C30.4602 4.52578 31.9513 4.32735 33.3082 4.32735C34.68 4.32735 35.6641 4.63263 36.2605 5.24319C36.8719 5.83849 37.1775 6.79249 37.1775 8.10519ZM32.1675 10.9443C31.1386 11.0359 30.6242 11.6083 30.6242 12.6615C30.6242 13.7147 31.079 14.2413 31.9886 14.2413C32.7341 14.2413 33.5244 14.1192 34.3594 13.875L34.762 13.7376V10.6924L32.1675 10.9443ZM42.6761 16.0272H40.2382V4.5792H42.6538V5.28898C43.7423 4.64789 44.7711 4.32735 45.7403 4.32735C47.2314 4.32735 48.2453 4.76237 48.7821 5.63242C49.3338 6.48721 49.6097 7.90676 49.6097 9.89108V16.0272H47.1941V9.95977C47.1941 8.72338 47.0599 7.8457 46.7915 7.32673C46.538 6.80775 46.0087 6.54826 45.2035 6.54826C44.4431 6.54826 43.7124 6.7009 43.0116 7.00618L42.6761 7.14356V16.0272ZM58.4644 6.70853H55.3779V11.7457C55.3779 12.6768 55.445 13.295 55.5792 13.6002C55.7134 13.9055 56.0563 14.0582 56.608 14.0582L58.4421 13.9895L58.5539 15.9814C57.5549 16.1799 56.7944 16.2791 56.2725 16.2791C55.0051 16.2791 54.1328 15.9814 53.6557 15.3861C53.1935 14.7908 52.9623 13.6689 52.9623 12.0204V6.70853H51.5309V4.5792H52.9623V1.25928H55.3779V4.5792H58.4644V6.70853ZM60.4637 16.0272V4.5792H62.9016V16.0272H60.4637ZM60.4637 2.63304V0H62.9016V2.63304H60.4637ZM73.6198 6.93749C71.8603 6.69327 70.5854 6.57116 69.7952 6.57116C69.0049 6.57116 68.4532 6.67037 68.1401 6.86881C67.8418 7.05197 67.6927 7.34962 67.6927 7.76175C67.6927 8.17388 67.8568 8.4639 68.1848 8.6318C68.5277 8.7997 69.318 8.99814 70.5556 9.2271C71.8081 9.44079 72.6953 9.78423 73.2172 10.2574C73.7391 10.7306 74 11.5701 74 12.776C74 13.9818 73.6198 14.8671 72.8593 15.4319C72.1138 15.9967 71.0178 16.2791 69.5715 16.2791C68.6619 16.2791 67.5138 16.1493 66.1271 15.8898L65.4337 15.7754L65.5232 13.6918C67.3125 13.936 68.6023 14.0582 69.3926 14.0582C70.1828 14.0582 70.742 13.9589 71.07 13.7605C71.413 13.5621 71.5844 13.2339 71.5844 12.776C71.5844 12.3181 71.4204 12.0051 71.0924 11.8372C70.7793 11.6541 70.0114 11.4633 68.7887 11.2648C67.5809 11.0511 66.6937 10.723 66.1271 10.2803C65.5605 9.83766 65.2772 9.02866 65.2772 7.85334C65.2772 6.67801 65.6649 5.80033 66.4402 5.22029C67.2305 4.64026 68.237 4.35024 69.4597 4.35024C70.4139 4.35024 71.5844 4.47236 72.9712 4.71658L73.6645 4.85396L73.6198 6.93749Z" fill="white"/>
<line x1="4" y1="19.0352" x2="35.7442" y2="19.0352" stroke="#7000FF"/>
</g>
<defs>
<filter id="filter0_d_22_111" x="0" y="0" width="78" height="47.8843" filterUnits="userSpaceOnUse" color-interpolation-filters="sRGB">
<feFlood flood-opacity="0" result="BackgroundImageFix"/>
<feColorMatrix in="SourceAlpha" type="matrix" values="0 0 0 0 0 0 0 0 0 0 0 0 0 0 0 0 0 0 127 0" result="hardAlpha"/>
<feOffset dy="4"/>
<feGaussianBlur stdDeviation="2"/>
<feComposite in2="hardAlpha" operator="out"/>
<feColorMatrix type="matrix" values="0 0 0 0 0 0 0 0 0 0 0 0 0 0 0 0 0 0 0.25 0"/>
<feBlend mode="normal" in2="BackgroundImageFix" result="effect1_dropShadow_22_111"/>
<feBlend mode="normal" in="SourceGraphic" in2="effect1_dropShadow_22_111" result="shape"/>
</filter>
</defs>
</svg>
