<svg width="682" height="632" viewBox="0 0 682 632" fill="none" xmlns="http://www.w3.org/2000/svg">
<g filter="url(#filter0_bd_243_51)">
<rect x="49" y="45" width="280" height="255" rx="18" fill="url(#paint0_radial_243_51)" fill-opacity="0.8" shape-rendering="crispEdges"/>
<g filter="url(#filter1_ii_243_51)">
<rect x="68" y="113" width="240" height="125" rx="14" fill="#262637"/>
</g>
<path d="M160.452 154.12V199H155.216V159.968L143.656 167.584L141.276 163.64L155.556 154.12H160.452ZM191.023 153.372C194.74 153.372 197.755 154.075 200.067 155.48C204.963 158.381 207.411 165.635 207.411 177.24C207.411 185.445 206.051 191.248 203.331 194.648C200.611 198.003 196.531 199.68 191.091 199.68C185.651 199.68 181.548 198.025 178.783 194.716C176.063 191.361 174.703 185.423 174.703 176.9C174.703 168.332 176.04 162.28 178.715 158.744C181.435 155.163 185.537 153.372 191.023 153.372ZM191.091 158.064C188.507 158.064 186.467 158.608 184.971 159.696C181.752 161.917 180.143 167.788 180.143 177.308C180.143 184.017 181.027 188.664 182.795 191.248C184.563 193.787 187.328 195.056 191.091 195.056C194.853 195.056 197.619 193.764 199.387 191.18C201.155 188.596 202.039 183.813 202.039 176.832C202.039 169.805 201.177 164.932 199.455 162.212C197.777 159.447 194.989 158.064 191.091 158.064ZM229.074 153.372C232.791 153.372 235.806 154.075 238.118 155.48C243.014 158.381 245.462 165.635 245.462 177.24C245.462 185.445 244.102 191.248 241.382 194.648C238.662 198.003 234.582 199.68 229.142 199.68C223.702 199.68 219.599 198.025 216.834 194.716C214.114 191.361 212.754 185.423 212.754 176.9C212.754 168.332 214.091 162.28 216.766 158.744C219.486 155.163 223.588 153.372 229.074 153.372ZM229.142 158.064C226.558 158.064 224.518 158.608 223.022 159.696C219.803 161.917 218.194 167.788 218.194 177.308C218.194 184.017 219.078 188.664 220.846 191.248C222.614 193.787 225.379 195.056 229.142 195.056C232.904 195.056 235.67 193.764 237.438 191.18C239.206 188.596 240.09 183.813 240.09 176.832C240.09 169.805 239.228 164.932 237.506 162.212C235.828 159.447 233.04 158.064 229.142 158.064Z" fill="white"/>
<path d="M137.82 193.18C137.82 197.24 135.71 199.27 131.49 199.27H131.04L130.62 202.72C129.6 202.66 129.09 202.59 129.09 202.51L129.51 199.18L125.22 198.64L125.46 196.81C127 197.03 128.43 197.18 129.75 197.26L130.74 189.76C128.7 189.28 127.24 188.67 126.36 187.93C125.5 187.17 125.07 185.93 125.07 184.21C125.07 180.67 127.19 178.9 131.43 178.9C131.73 178.9 131.96 178.91 132.12 178.93L132.63 175.06H134.16L133.65 179.02L137.4 179.47L137.22 181.33C135.84 181.17 134.57 181.04 133.41 180.94L132.51 187.93C134.45 188.39 135.82 188.98 136.62 189.7C137.42 190.42 137.82 191.58 137.82 193.18ZM127.29 184.09C127.29 185.17 127.56 185.94 128.1 186.4C128.64 186.86 129.61 187.26 131.01 187.6L131.88 180.85H131.58C128.72 180.85 127.29 181.93 127.29 184.09ZM135.6 193.33C135.6 192.37 135.35 191.66 134.85 191.2C134.35 190.74 133.48 190.36 132.24 190.06L131.31 197.32H131.37C134.19 197.32 135.6 195.99 135.6 193.33Z" fill="white"/>
<path d="M157.932 225V208.32H160.716L165.876 222.912L171.012 208.32H173.796V225H172.308V209.856H171.972L166.74 224.448H164.988L159.756 209.856H159.42V225H157.932ZM187.523 225V209.64H181.811L181.667 212.208C181.395 216.88 181.019 220.24 180.539 222.288C180.267 223.424 179.827 224.184 179.219 224.568C178.611 224.952 177.771 225.136 176.699 225.12V223.728C177.515 223.68 178.083 223.536 178.403 223.296C178.723 223.04 178.979 222.496 179.171 221.664C179.603 219.84 179.939 216.728 180.179 212.328L180.395 208.32H189.011V225H187.523ZM199.301 219.192H194.693V225H193.205V208.32H199.301C201.077 208.32 202.381 208.752 203.213 209.616C204.061 210.48 204.485 211.808 204.485 213.6C204.485 217.328 202.757 219.192 199.301 219.192ZM194.693 217.872H199.301C201.733 217.872 202.949 216.448 202.949 213.6C202.949 212.24 202.661 211.24 202.085 210.6C201.509 209.96 200.581 209.64 199.301 209.64H194.693V217.872ZM206.417 223.68C206.977 222.48 207.449 221.112 207.833 219.576C208.217 218.024 208.409 216.344 208.409 214.536V208.32H218.009V223.68H219.425V228.6H217.961V225H206.801V228.6H205.337V223.68H206.417ZM209.849 214.776C209.849 216.472 209.689 217.952 209.369 219.216C209.065 220.48 208.809 221.424 208.601 222.048C208.393 222.672 208.185 223.216 207.977 223.68H216.521V209.64H209.849V214.776Z" fill="white"/>
<path d="M165.204 125.32V126.664H156.564V132.424H161.892C163.3 132.424 164.372 132.848 165.108 133.696C165.844 134.544 166.212 135.72 166.212 137.224C166.212 140.408 164.772 142 161.892 142H155.076V125.32H165.204ZM156.564 133.744V140.68H161.892C163.796 140.68 164.748 139.512 164.748 137.176C164.748 136.088 164.5 135.248 164.004 134.656C163.508 134.048 162.804 133.744 161.892 133.744H156.564ZM170.378 133.744C170.378 136.288 170.714 138.12 171.386 139.24C172.058 140.344 173.378 140.896 175.346 140.896C177.33 140.896 178.658 140.352 179.33 139.264C180.002 138.176 180.338 136.36 180.338 133.816C180.338 131.256 179.986 129.384 179.282 128.2C178.578 127.016 177.266 126.424 175.346 126.424C173.362 126.424 172.026 127.064 171.338 128.344C170.97 129 170.714 129.752 170.57 130.6C170.442 131.448 170.378 132.496 170.378 133.744ZM181.874 133.792C181.874 136.768 181.402 138.92 180.458 140.248C179.53 141.576 177.826 142.24 175.346 142.24C172.882 142.24 171.178 141.56 170.234 140.2C169.306 138.84 168.842 136.696 168.842 133.768C168.842 130.824 169.314 128.64 170.258 127.216C171.202 125.792 172.898 125.08 175.346 125.08C177.794 125.08 179.49 125.792 180.434 127.216C181.394 128.624 181.874 130.816 181.874 133.792ZM194.933 142V126.64H189.221L189.077 129.208C188.805 133.88 188.429 137.24 187.949 139.288C187.677 140.424 187.237 141.184 186.629 141.568C186.021 141.952 185.181 142.136 184.109 142.12V140.728C184.925 140.68 185.493 140.536 185.813 140.296C186.133 140.04 186.389 139.496 186.581 138.664C187.013 136.84 187.349 133.728 187.589 129.328L187.805 125.32H196.421V142H194.933ZM200.615 142V125.32H210.623V126.664H202.103V132.856H209.183V134.176H202.103V140.68H210.623V142H200.615ZM213.858 142V125.32H223.866V126.664H215.346V132.856H222.426V134.176H215.346V140.68H223.866V142H213.858Z" fill="white"/>
<path d="M73.726 264.014V257.812H73.614L70.226 264.014H68.91V257H69.736V263.146H69.848L73.236 257H74.552V264.014H73.726ZM76.3748 257H77.2008V260.108H81.0788V257H81.9048V264H81.0788V260.85H77.2008V264H76.3748V257ZM88.0423 260.304C88.1263 260.332 88.2196 260.383 88.3223 260.458C88.4343 260.533 88.5416 260.631 88.6443 260.752C88.8963 261.079 89.0223 261.485 89.0223 261.97C89.0223 263.323 88.173 264 86.4743 264H83.7303V257H86.6843C88.131 257 88.8543 257.611 88.8543 258.834C88.8543 259.254 88.7796 259.562 88.6303 259.758C88.4903 259.945 88.3643 260.08 88.2523 260.164C88.1496 260.239 88.0796 260.285 88.0423 260.304ZM84.5563 259.996H86.6843C87.5523 259.996 87.9863 259.604 87.9863 258.82C87.9863 258.092 87.5896 257.728 86.7963 257.728H84.5563V259.996ZM86.4883 263.272C87.1043 263.272 87.529 263.174 87.7623 262.978C87.9956 262.782 88.1123 262.46 88.1123 262.012C88.1123 261.144 87.6363 260.71 86.6843 260.71H84.5563V263.272H86.4883ZM95.4086 263.3L95.8286 263.258L95.8566 263.944C94.8019 264.075 93.9106 264.14 93.1826 264.14C92.1746 264.131 91.4699 263.832 91.0686 263.244C90.6673 262.656 90.4666 261.751 90.4666 260.528C90.4666 258.083 91.4279 256.86 93.3506 256.86C94.2746 256.86 94.9653 257.126 95.4226 257.658C95.8799 258.181 96.1086 259.021 96.1086 260.178L96.0806 260.85H91.3206C91.3206 261.709 91.4653 262.348 91.7546 262.768C92.0533 263.179 92.5573 263.384 93.2666 263.384C93.9853 263.384 94.6993 263.356 95.4086 263.3ZM91.3206 260.15H95.2686C95.2686 259.226 95.1146 258.568 94.8066 258.176C94.5079 257.784 94.0226 257.588 93.3506 257.588C92.6879 257.588 92.1839 257.793 91.8386 258.204C91.4933 258.605 91.3206 259.254 91.3206 260.15ZM100.433 256.86C100.853 256.86 101.353 256.907 101.931 257L102.253 257.042L102.211 257.756C101.474 257.663 100.928 257.616 100.573 257.616C99.7426 257.616 99.1733 257.821 98.8653 258.232C98.5573 258.633 98.4033 259.38 98.4033 260.472C98.4033 261.555 98.5433 262.311 98.8233 262.74C99.1033 263.169 99.6866 263.384 100.573 263.384L102.239 263.258L102.267 263.972C101.437 264.084 100.821 264.14 100.419 264.14C99.3086 264.14 98.548 263.865 98.1373 263.314C97.736 262.763 97.5353 261.816 97.5353 260.472C97.5353 259.128 97.7546 258.19 98.1933 257.658C98.6413 257.126 99.388 256.86 100.433 256.86ZM103.256 257H109.122V257.742H106.602V264H105.776V257.742H103.256V257ZM115.261 264.014V257.812H115.149L111.761 264.014H110.445V257H111.271V263.146H111.383L114.771 257H116.087V264.014H115.261ZM118.05 267.15V257H118.876V257.532C119.604 257.084 120.369 256.86 121.172 256.86C121.984 256.86 122.586 257.145 122.978 257.714C123.379 258.283 123.58 259.212 123.58 260.5C123.58 261.779 123.347 262.707 122.88 263.286C122.413 263.855 121.639 264.14 120.556 264.14C119.977 264.14 119.417 264.079 118.876 263.958V267.15H118.05ZM121.004 257.616C120.696 257.616 120.365 257.667 120.01 257.77C119.655 257.873 119.38 257.98 119.184 258.092L118.876 258.246V263.23C119.511 263.342 120.061 263.398 120.528 263.398C121.331 263.398 121.895 263.174 122.222 262.726C122.549 262.269 122.712 261.522 122.712 260.486C122.712 259.441 122.567 258.703 122.278 258.274C121.998 257.835 121.573 257.616 121.004 257.616ZM125.084 260.486C125.084 259.17 125.303 258.237 125.742 257.686C126.19 257.135 126.946 256.86 128.01 256.86C129.083 256.86 129.839 257.135 130.278 257.686C130.726 258.237 130.95 259.17 130.95 260.486C130.95 261.802 130.745 262.74 130.334 263.3C129.933 263.86 129.163 264.14 128.024 264.14C126.885 264.14 126.111 263.86 125.7 263.3C125.289 262.74 125.084 261.802 125.084 260.486ZM125.952 260.458C125.952 261.569 126.078 262.339 126.33 262.768C126.591 263.188 127.151 263.398 128.01 263.398C128.878 263.398 129.443 263.183 129.704 262.754C129.965 262.325 130.096 261.564 130.096 260.472C130.096 259.371 129.947 258.619 129.648 258.218C129.359 257.807 128.817 257.602 128.024 257.602C127.231 257.602 126.685 257.803 126.386 258.204C126.097 258.605 125.952 259.357 125.952 260.458ZM136.933 260.304C137.017 260.332 137.11 260.383 137.213 260.458C137.325 260.533 137.432 260.631 137.535 260.752C137.787 261.079 137.913 261.485 137.913 261.97C137.913 263.323 137.064 264 135.365 264H132.621V257H135.575C137.022 257 137.745 257.611 137.745 258.834C137.745 259.254 137.67 259.562 137.521 259.758C137.381 259.945 137.255 260.08 137.143 260.164C137.04 260.239 136.97 260.285 136.933 260.304ZM133.447 259.996H135.575C136.443 259.996 136.877 259.604 136.877 258.82C136.877 258.092 136.48 257.728 135.687 257.728H133.447V259.996ZM135.379 263.272C135.995 263.272 136.42 263.174 136.653 262.978C136.886 262.782 137.003 262.46 137.003 262.012C137.003 261.144 136.527 260.71 135.575 260.71H133.447V263.272H135.379ZM144.481 259.086V262.838C144.519 263.183 144.822 263.389 145.391 263.454L145.349 264.126C144.631 264.126 144.103 263.939 143.767 263.566C142.89 263.949 142.013 264.14 141.135 264.14C140.51 264.14 140.034 263.963 139.707 263.608C139.381 263.244 139.217 262.731 139.217 262.068C139.217 261.396 139.381 260.901 139.707 260.584C140.043 260.257 140.566 260.057 141.275 259.982L143.655 259.744V259.086C143.655 258.563 143.539 258.19 143.305 257.966C143.081 257.733 142.778 257.616 142.395 257.616C141.798 257.616 141.023 257.672 140.071 257.784L139.637 257.826L139.595 257.154C140.622 256.958 141.518 256.86 142.283 256.86C143.058 256.86 143.618 257.042 143.963 257.406C144.309 257.77 144.481 258.33 144.481 259.086ZM140.085 262.012C140.085 262.955 140.473 263.426 141.247 263.426C141.583 263.426 141.952 263.389 142.353 263.314C142.755 263.23 143.072 263.146 143.305 263.062L143.655 262.936V260.402L141.373 260.64C140.916 260.677 140.585 260.808 140.379 261.032C140.183 261.256 140.085 261.583 140.085 262.012ZM146.512 257H147.338V260.108H151.216V257H152.042V264H151.216V260.85H147.338V264H146.512V257ZM153.713 260.486C153.713 259.17 153.932 258.237 154.371 257.686C154.819 257.135 155.575 256.86 156.639 256.86C157.712 256.86 158.468 257.135 158.907 257.686C159.355 258.237 159.579 259.17 159.579 260.486C159.579 261.802 159.374 262.74 158.963 263.3C158.562 263.86 157.792 264.14 156.653 264.14C155.514 264.14 154.74 263.86 154.329 263.3C153.918 262.74 153.713 261.802 153.713 260.486ZM154.581 260.458C154.581 261.569 154.707 262.339 154.959 262.768C155.22 263.188 155.78 263.398 156.639 263.398C157.507 263.398 158.072 263.183 158.333 262.754C158.594 262.325 158.725 261.564 158.725 260.472C158.725 259.371 158.576 258.619 158.277 258.218C157.988 257.807 157.446 257.602 156.653 257.602C155.86 257.602 155.314 257.803 155.015 258.204C154.726 258.605 154.581 259.357 154.581 260.458ZM168.638 260.304C168.722 260.332 168.815 260.383 168.918 260.458C169.03 260.533 169.137 260.631 169.24 260.752C169.492 261.079 169.618 261.485 169.618 261.97C169.618 263.323 168.769 264 167.07 264H164.326V257H167.28C168.727 257 169.45 257.611 169.45 258.834C169.45 259.254 169.375 259.562 169.226 259.758C169.086 259.945 168.96 260.08 168.848 260.164C168.745 260.239 168.675 260.285 168.638 260.304ZM165.152 259.996H167.28C168.148 259.996 168.582 259.604 168.582 258.82C168.582 258.092 168.185 257.728 167.392 257.728H165.152V259.996ZM167.084 263.272C167.7 263.272 168.125 263.174 168.358 262.978C168.591 262.782 168.708 262.46 168.708 262.012C168.708 261.144 168.232 260.71 167.28 260.71H165.152V263.272H167.084ZM174.446 267.15V257H175.272V257.532C176 257.084 176.766 256.86 177.568 256.86C178.38 256.86 178.982 257.145 179.374 257.714C179.776 258.283 179.976 259.212 179.976 260.5C179.976 261.779 179.743 262.707 179.276 263.286C178.81 263.855 178.035 264.14 176.952 264.14C176.374 264.14 175.814 264.079 175.272 263.958V267.15H174.446ZM177.4 257.616C177.092 257.616 176.761 257.667 176.406 257.77C176.052 257.873 175.776 257.98 175.58 258.092L175.272 258.246V263.23C175.907 263.342 176.458 263.398 176.924 263.398C177.727 263.398 178.292 263.174 178.618 262.726C178.945 262.269 179.108 261.522 179.108 260.486C179.108 259.441 178.964 258.703 178.674 258.274C178.394 257.835 177.97 257.616 177.4 257.616ZM184.421 260.64C184.897 260.64 185.228 260.747 185.415 260.962C185.601 261.167 185.695 261.503 185.695 261.97C185.695 262.437 185.601 262.768 185.415 262.964C185.228 263.16 184.897 263.258 184.421 263.258H182.461V260.64H184.421ZM184.435 264C185.153 264 185.676 263.841 186.003 263.524C186.339 263.207 186.507 262.684 186.507 261.956C186.507 260.584 185.816 259.898 184.435 259.898H182.461V257H181.635V264H184.435ZM187.347 257V264H188.173V257H187.347ZM189.988 257H190.814V260.108H194.692V257H195.518V264H194.692V260.85H190.814V264H189.988V257ZM197.19 260.486C197.19 259.17 197.409 258.237 197.848 257.686C198.296 257.135 199.052 256.86 200.116 256.86C201.189 256.86 201.945 257.135 202.384 257.686C202.832 258.237 203.056 259.17 203.056 260.486C203.056 261.802 202.85 262.74 202.44 263.3C202.038 263.86 201.268 264.14 200.13 264.14C198.991 264.14 198.216 263.86 197.806 263.3C197.395 262.74 197.19 261.802 197.19 260.486ZM198.058 260.458C198.058 261.569 198.184 262.339 198.436 262.768C198.697 263.188 199.257 263.398 200.116 263.398C200.984 263.398 201.548 263.183 201.81 262.754C202.071 262.325 202.202 261.564 202.202 260.472C202.202 259.371 202.052 258.619 201.754 258.218C201.464 257.807 200.923 257.602 200.13 257.602C199.336 257.602 198.79 257.803 198.492 258.204C198.202 258.605 198.058 259.357 198.058 260.458ZM205.552 260.08L206.742 260.052L208.898 257H209.864L207.47 260.374L209.976 264H208.996L206.756 260.794L205.552 260.822V264H204.726V257H205.552V260.08ZM69.736 273.08L70.926 273.052L73.082 270H74.048L71.654 273.374L74.16 277H73.18L70.94 273.794L69.736 273.822V277H68.91V270H69.736V273.08ZM75.4895 280.15V270H76.3155V270.532C77.0435 270.084 77.8088 269.86 78.6115 269.86C79.4235 269.86 80.0255 270.145 80.4175 270.714C80.8188 271.283 81.0195 272.212 81.0195 273.5C81.0195 274.779 80.7861 275.707 80.3195 276.286C79.8528 276.855 79.0781 277.14 77.9955 277.14C77.4168 277.14 76.8568 277.079 76.3155 276.958V280.15H75.4895ZM78.4435 270.616C78.1355 270.616 77.8041 270.667 77.4495 270.77C77.0948 270.873 76.8195 270.98 76.6235 271.092L76.3155 271.246V276.23C76.9501 276.342 77.5008 276.398 77.9675 276.398C78.7701 276.398 79.3348 276.174 79.6615 275.726C79.9881 275.269 80.1515 274.522 80.1515 273.486C80.1515 272.441 80.0068 271.703 79.7175 271.274C79.4375 270.835 79.0128 270.616 78.4435 270.616ZM87.4936 277.014V270.812H87.3816L83.9936 277.014H82.6776V270H83.5036V276.146H83.6156L87.0036 270H88.3196V277.014H87.4936ZM90.1424 270H95.6724V277H94.8464V270.742H90.9684V277H90.1424V270ZM97.0079 270H102.874V270.742H100.354V277H99.5279V270.742H97.0079V270ZM104.043 273.486C104.043 272.17 104.262 271.237 104.701 270.686C105.149 270.135 105.905 269.86 106.969 269.86C108.042 269.86 108.798 270.135 109.237 270.686C109.685 271.237 109.909 272.17 109.909 273.486C109.909 274.802 109.704 275.74 109.293 276.3C108.892 276.86 108.122 277.14 106.983 277.14C105.844 277.14 105.07 276.86 104.659 276.3C104.248 275.74 104.043 274.802 104.043 273.486ZM104.911 273.458C104.911 274.569 105.037 275.339 105.289 275.768C105.55 276.188 106.11 276.398 106.969 276.398C107.837 276.398 108.402 276.183 108.663 275.754C108.924 275.325 109.055 274.564 109.055 273.472C109.055 272.371 108.906 271.619 108.607 271.218C108.318 270.807 107.776 270.602 106.983 270.602C106.19 270.602 105.644 270.803 105.345 271.204C105.056 271.605 104.911 272.357 104.911 273.458ZM115.892 273.304C115.976 273.332 116.069 273.383 116.172 273.458C116.284 273.533 116.391 273.631 116.494 273.752C116.746 274.079 116.872 274.485 116.872 274.97C116.872 276.323 116.023 277 114.324 277H111.58V270H114.534C115.981 270 116.704 270.611 116.704 271.834C116.704 272.254 116.629 272.562 116.48 272.758C116.34 272.945 116.214 273.08 116.102 273.164C115.999 273.239 115.929 273.285 115.892 273.304ZM112.406 272.996H114.534C115.402 272.996 115.836 272.604 115.836 271.82C115.836 271.092 115.439 270.728 114.646 270.728H112.406V272.996ZM114.338 276.272C114.954 276.272 115.379 276.174 115.612 275.978C115.845 275.782 115.962 275.46 115.962 275.012C115.962 274.144 115.486 273.71 114.534 273.71H112.406V276.272H114.338ZM123.44 272.086V275.838C123.478 276.183 123.781 276.389 124.35 276.454L124.308 277.126C123.59 277.126 123.062 276.939 122.726 276.566C121.849 276.949 120.972 277.14 120.094 277.14C119.469 277.14 118.993 276.963 118.666 276.608C118.34 276.244 118.176 275.731 118.176 275.068C118.176 274.396 118.34 273.901 118.666 273.584C119.002 273.257 119.525 273.057 120.234 272.982L122.614 272.744V272.086C122.614 271.563 122.498 271.19 122.264 270.966C122.04 270.733 121.737 270.616 121.354 270.616C120.757 270.616 119.982 270.672 119.03 270.784L118.596 270.826L118.554 270.154C119.581 269.958 120.477 269.86 121.242 269.86C122.017 269.86 122.577 270.042 122.922 270.406C123.268 270.77 123.44 271.33 123.44 272.086ZM119.044 275.012C119.044 275.955 119.432 276.426 120.206 276.426C120.542 276.426 120.911 276.389 121.312 276.314C121.714 276.23 122.031 276.146 122.264 276.062L122.614 275.936V273.402L120.332 273.64C119.875 273.677 119.544 273.808 119.338 274.032C119.142 274.256 119.044 274.583 119.044 275.012ZM129.685 277V270.742H127.011C126.927 272.179 126.852 273.178 126.787 273.738C126.721 274.298 126.633 274.877 126.521 275.474C126.418 276.062 126.25 276.473 126.017 276.706C125.783 276.939 125.363 277.061 124.757 277.07V276.356C125.102 276.337 125.34 276.249 125.471 276.09C125.611 275.931 125.718 275.651 125.793 275.25C125.951 274.419 126.068 273.239 126.143 271.708L126.227 270H130.511V277H129.685ZM132.334 270H133.16V273.136H134.672C134.7 271.988 134.928 271.157 135.358 270.644C135.796 270.121 136.501 269.86 137.472 269.86C138.47 269.86 139.184 270.14 139.614 270.7C140.043 271.251 140.258 272.179 140.258 273.486C140.258 274.793 140.062 275.726 139.67 276.286C139.278 276.846 138.559 277.126 137.514 277.126C136.468 277.126 135.745 276.879 135.344 276.384C134.942 275.889 134.723 275.054 134.686 273.878H133.16V277H132.334V270ZM135.54 273.458C135.54 274.559 135.661 275.325 135.904 275.754C136.146 276.183 136.664 276.398 137.458 276.398C138.26 276.398 138.783 276.183 139.026 275.754C139.278 275.325 139.404 274.564 139.404 273.472C139.404 272.371 139.264 271.619 138.984 271.218C138.704 270.807 138.2 270.602 137.472 270.602C136.744 270.602 136.24 270.807 135.96 271.218C135.68 271.619 135.54 272.366 135.54 273.458ZM141.428 270H147.294V270.742H144.774V277H143.948V270.742H141.428V270Z" fill="#B6B6DD"/>
<path d="M100.211 81.2432L87.8944 67.0488C87.7831 66.9204 87.6454 66.8174 87.4908 66.7468C87.3362 66.6762 87.1682 66.6396 86.9982 66.6396C86.8282 66.6396 86.6603 66.6762 86.5056 66.7468C86.351 66.8174 86.2134 66.9204 86.102 67.0488L73.7891 81.2432C73.7519 81.2859 73.7278 81.3385 73.7196 81.3946C73.7115 81.4507 73.7196 81.508 73.7431 81.5596C73.7665 81.6112 73.8043 81.655 73.852 81.6858C73.8996 81.7165 73.9551 81.7329 74.0118 81.733H77.0177C77.1884 81.733 77.3516 81.6588 77.4667 81.5289L85.5899 72.1662V93.0625C85.5899 93.2258 85.7235 93.3594 85.8868 93.3594H88.1134C88.2766 93.3594 88.4102 93.2258 88.4102 93.0625V72.1662L96.5335 81.5289C96.6448 81.6588 96.8081 81.733 96.9825 81.733H99.9884C100.241 81.733 100.378 81.4361 100.211 81.2432Z" fill="#D46BFE"/>
<rect x="49.5" y="45.5" width="279" height="254" rx="17.5" stroke="url(#paint1_linear_243_51)" shape-rendering="crispEdges"/>
</g>
<g filter="url(#filter2_bd_243_51)">
<rect x="353" y="109" width="280" height="255" rx="18" fill="url(#paint2_radial_243_51)" fill-opacity="0.8" shape-rendering="crispEdges"/>
<g filter="url(#filter3_ii_243_51)">
<rect x="373" y="196" width="240" height="106" rx="14" fill="#262637"/>
</g>
<path d="M476.812 274H448.116V269.58L461.24 255.776C463.506 253.419 465.161 251.628 466.204 250.404C467.246 249.18 468.176 247.729 468.992 246.052C469.853 244.375 470.284 242.697 470.284 241.02C470.284 238.119 469.49 236.079 467.904 234.9C466.317 233.721 463.846 233.132 460.492 233.132C457.545 233.132 454.258 233.517 450.632 234.288L448.864 234.628L448.456 230.276C452.762 229.052 457.205 228.44 461.784 228.44C466.362 228.44 469.808 229.415 472.12 231.364C474.477 233.268 475.656 236.305 475.656 240.476C475.656 243.649 474.953 246.415 473.548 248.772C472.142 251.129 469.717 253.963 466.272 257.272L454.304 269.444H476.812V274ZM505.955 274V265.228H484.195V261.148L496.979 229.12H502.691L489.703 260.604H505.955V246.596H511.191V260.604H516.903V265.228H511.191V274H505.955ZM538.497 228.372C542.215 228.372 545.229 229.075 547.541 230.48C552.437 233.381 554.885 240.635 554.885 252.24C554.885 260.445 553.525 266.248 550.805 269.648C548.085 273.003 544.005 274.68 538.565 274.68C533.125 274.68 529.023 273.025 526.257 269.716C523.537 266.361 522.177 260.423 522.177 251.9C522.177 243.332 523.515 237.28 526.189 233.744C528.909 230.163 533.012 228.372 538.497 228.372ZM538.565 233.064C535.981 233.064 533.941 233.608 532.445 234.696C529.227 236.917 527.617 242.788 527.617 252.308C527.617 259.017 528.501 263.664 530.269 266.248C532.037 268.787 534.803 270.056 538.565 270.056C542.328 270.056 545.093 268.764 546.861 266.18C548.629 263.596 549.513 258.813 549.513 251.832C549.513 244.805 548.652 239.932 546.929 237.212C545.252 234.447 542.464 233.064 538.565 233.064Z" fill="#D46BFE"/>
<path d="M565.65 274.12L571.8 253.57L573.24 254.05L567.09 274.54L565.65 274.12ZM561.84 258.04C561.84 255.28 562.94 253.9 565.14 253.9C567.34 253.9 568.44 255.28 568.44 258.04C568.44 259.46 568.15 260.52 567.57 261.22C566.99 261.92 566.18 262.27 565.14 262.27C564.1 262.27 563.29 261.92 562.71 261.22C562.13 260.52 561.84 259.46 561.84 258.04ZM563.67 258.04C563.67 259.84 564.16 260.74 565.14 260.74C566.14 260.74 566.64 259.84 566.64 258.04C566.64 257.14 566.52 256.48 566.28 256.06C566.06 255.64 565.68 255.43 565.14 255.43C564.62 255.43 564.24 255.64 564 256.06C563.78 256.48 563.67 257.14 563.67 258.04ZM570.39 270.04C570.39 267.3 571.48 265.93 573.66 265.93C575.86 265.93 576.96 267.31 576.96 270.07C576.96 271.47 576.67 272.53 576.09 273.25C575.51 273.95 574.7 274.3 573.66 274.3C572.62 274.3 571.81 273.95 571.23 273.25C570.67 272.53 570.39 271.46 570.39 270.04ZM572.19 270.04C572.19 271.86 572.68 272.77 573.66 272.77C574.22 272.77 574.61 272.55 574.83 272.11C575.05 271.67 575.16 270.99 575.16 270.07C575.16 269.15 575.05 268.49 574.83 268.09C574.61 267.67 574.23 267.46 573.69 267.46C573.15 267.46 572.76 267.67 572.52 268.09C572.3 268.49 572.19 269.14 572.19 270.04Z" fill="#D46BFE"/>
<path d="M403.95 259H405.72V265.66H414.03V259H415.8V274H414.03V267.25H405.72V274H403.95V259ZM430.332 263.47V271.51C430.412 272.25 431.062 272.69 432.282 272.83L432.192 274.27C430.652 274.27 429.522 273.87 428.802 273.07C426.922 273.89 425.042 274.3 423.162 274.3C421.822 274.3 420.802 273.92 420.102 273.16C419.402 272.38 419.052 271.28 419.052 269.86C419.052 268.42 419.402 267.36 420.102 266.68C420.822 265.98 421.942 265.55 423.462 265.39L428.562 264.88V263.47C428.562 262.35 428.312 261.55 427.812 261.07C427.332 260.57 426.682 260.32 425.862 260.32C424.582 260.32 422.922 260.44 420.882 260.68L419.952 260.77L419.862 259.33C422.062 258.91 423.982 258.7 425.622 258.7C427.282 258.7 428.482 259.09 429.222 259.87C429.962 260.65 430.332 261.85 430.332 263.47ZM420.912 269.74C420.912 271.76 421.742 272.77 423.402 272.77C424.122 272.77 424.912 272.69 425.772 272.53C426.632 272.35 427.312 272.17 427.812 271.99L428.562 271.72V266.29L423.672 266.8C422.692 266.88 421.982 267.16 421.542 267.64C421.122 268.12 420.912 268.82 420.912 269.74Z" fill="#D46BFE"/>
<path d="M378.222 324.304C378.306 324.332 378.399 324.383 378.502 324.458C378.614 324.533 378.721 324.631 378.824 324.752C379.076 325.079 379.202 325.485 379.202 325.97C379.202 327.323 378.353 328 376.654 328H373.91V321H376.864C378.311 321 379.034 321.611 379.034 322.834C379.034 323.254 378.959 323.562 378.81 323.758C378.67 323.945 378.544 324.08 378.432 324.164C378.329 324.239 378.259 324.285 378.222 324.304ZM374.736 323.996H376.864C377.732 323.996 378.166 323.604 378.166 322.82C378.166 322.092 377.769 321.728 376.976 321.728H374.736V323.996ZM376.668 327.272C377.284 327.272 377.709 327.174 377.942 326.978C378.175 326.782 378.292 326.46 378.292 326.012C378.292 325.144 377.816 324.71 376.864 324.71H374.736V327.272H376.668ZM383.6 324.64C384.076 324.64 384.408 324.747 384.594 324.962C384.781 325.167 384.874 325.503 384.874 325.97C384.874 326.437 384.781 326.768 384.594 326.964C384.408 327.16 384.076 327.258 383.6 327.258H381.64V324.64H383.6ZM383.614 328C384.333 328 384.856 327.841 385.182 327.524C385.518 327.207 385.686 326.684 385.686 325.956C385.686 324.584 384.996 323.898 383.614 323.898H381.64V321H380.814V328H383.614ZM386.526 321V328H387.352V321H386.526ZM389.308 331.15V321H390.134V321.532C390.862 321.084 391.627 320.86 392.43 320.86C393.242 320.86 393.844 321.145 394.236 321.714C394.637 322.283 394.838 323.212 394.838 324.5C394.838 325.779 394.604 326.707 394.138 327.286C393.671 327.855 392.896 328.14 391.814 328.14C391.235 328.14 390.675 328.079 390.134 327.958V331.15H389.308ZM392.262 321.616C391.954 321.616 391.622 321.667 391.268 321.77C390.913 321.873 390.638 321.98 390.442 322.092L390.134 322.246V327.23C390.768 327.342 391.319 327.398 391.786 327.398C392.588 327.398 393.153 327.174 393.48 326.726C393.806 326.269 393.97 325.522 393.97 324.486C393.97 323.441 393.825 322.703 393.536 322.274C393.256 321.835 392.831 321.616 392.262 321.616ZM396.342 324.486C396.342 323.17 396.561 322.237 397 321.686C397.448 321.135 398.204 320.86 399.268 320.86C400.341 320.86 401.097 321.135 401.536 321.686C401.984 322.237 402.208 323.17 402.208 324.486C402.208 325.802 402.003 326.74 401.592 327.3C401.191 327.86 400.421 328.14 399.282 328.14C398.143 328.14 397.369 327.86 396.958 327.3C396.547 326.74 396.342 325.802 396.342 324.486ZM397.21 324.458C397.21 325.569 397.336 326.339 397.588 326.768C397.849 327.188 398.409 327.398 399.268 327.398C400.136 327.398 400.701 327.183 400.962 326.754C401.223 326.325 401.354 325.564 401.354 324.472C401.354 323.371 401.205 322.619 400.906 322.218C400.617 321.807 400.075 321.602 399.282 321.602C398.489 321.602 397.943 321.803 397.644 322.204C397.355 322.605 397.21 323.357 397.21 324.458ZM406.486 320.86C406.906 320.86 407.405 320.907 407.984 321L408.306 321.042L408.264 321.756C407.527 321.663 406.981 321.616 406.626 321.616C405.795 321.616 405.226 321.821 404.918 322.232C404.61 322.633 404.456 323.38 404.456 324.472C404.456 325.555 404.596 326.311 404.876 326.74C405.156 327.169 405.739 327.384 406.626 327.384L408.292 327.258L408.32 327.972C407.489 328.084 406.873 328.14 406.472 328.14C405.361 328.14 404.601 327.865 404.19 327.314C403.789 326.763 403.588 325.816 403.588 324.472C403.588 323.128 403.807 322.19 404.246 321.658C404.694 321.126 405.441 320.86 406.486 320.86ZM414.013 328V321.742H411.339C411.255 323.179 411.18 324.178 411.115 324.738C411.049 325.298 410.961 325.877 410.849 326.474C410.746 327.062 410.578 327.473 410.345 327.706C410.111 327.939 409.691 328.061 409.085 328.07V327.356C409.43 327.337 409.668 327.249 409.799 327.09C409.939 326.931 410.046 326.651 410.121 326.25C410.279 325.419 410.396 324.239 410.471 322.708L410.555 321H414.839V328H414.013ZM421.618 323.086V326.838C421.655 327.183 421.959 327.389 422.528 327.454L422.486 328.126C421.767 328.126 421.24 327.939 420.904 327.566C420.027 327.949 419.149 328.14 418.272 328.14C417.647 328.14 417.171 327.963 416.844 327.608C416.517 327.244 416.354 326.731 416.354 326.068C416.354 325.396 416.517 324.901 416.844 324.584C417.18 324.257 417.703 324.057 418.412 323.982L420.792 323.744V323.086C420.792 322.563 420.675 322.19 420.442 321.966C420.218 321.733 419.915 321.616 419.532 321.616C418.935 321.616 418.16 321.672 417.208 321.784L416.774 321.826L416.732 321.154C417.759 320.958 418.655 320.86 419.42 320.86C420.195 320.86 420.755 321.042 421.1 321.406C421.445 321.77 421.618 322.33 421.618 323.086ZM417.222 326.012C417.222 326.955 417.609 327.426 418.384 327.426C418.72 327.426 419.089 327.389 419.49 327.314C419.891 327.23 420.209 327.146 420.442 327.062L420.792 326.936V324.402L418.51 324.64C418.053 324.677 417.721 324.808 417.516 325.032C417.32 325.256 417.222 325.583 417.222 326.012ZM429.468 320.86C429.888 320.86 430.388 320.907 430.966 321L431.288 321.042L431.246 321.756C430.509 321.663 429.963 321.616 429.608 321.616C428.778 321.616 428.208 321.821 427.9 322.232C427.592 322.633 427.438 323.38 427.438 324.472C427.438 325.555 427.578 326.311 427.858 326.74C428.138 327.169 428.722 327.384 429.608 327.384L431.274 327.258L431.302 327.972C430.472 328.084 429.856 328.14 429.454 328.14C428.344 328.14 427.583 327.865 427.172 327.314C426.771 326.763 426.57 325.816 426.57 324.472C426.57 323.128 426.79 322.19 427.228 321.658C427.676 321.126 428.423 320.86 429.468 320.86ZM432.291 321H438.157V321.742H435.637V328H434.811V321.742H432.291V321ZM439.326 324.486C439.326 323.17 439.546 322.237 439.984 321.686C440.432 321.135 441.188 320.86 442.252 320.86C443.326 320.86 444.082 321.135 444.52 321.686C444.968 322.237 445.192 323.17 445.192 324.486C445.192 325.802 444.987 326.74 444.576 327.3C444.175 327.86 443.405 328.14 442.266 328.14C441.128 328.14 440.353 327.86 439.942 327.3C439.532 326.74 439.326 325.802 439.326 324.486ZM440.194 324.458C440.194 325.569 440.32 326.339 440.572 326.768C440.834 327.188 441.394 327.398 442.252 327.398C443.12 327.398 443.685 327.183 443.946 326.754C444.208 326.325 444.338 325.564 444.338 324.472C444.338 323.371 444.189 322.619 443.89 322.218C443.601 321.807 443.06 321.602 442.266 321.602C441.473 321.602 440.927 321.803 440.628 322.204C440.339 322.605 440.194 323.357 440.194 324.458ZM451.679 328.014V321.812H451.567L448.179 328.014H446.863V321H447.689V327.146H447.801L451.189 321H452.505V328.014H451.679ZM461.496 321V328H460.684V321.812H460.614L458.43 327.384H457.562L455.364 321.812H455.294V328H454.482V321H455.896L458.01 326.502L460.11 321H461.496ZM463.32 324.486C463.32 323.17 463.54 322.237 463.978 321.686C464.426 321.135 465.182 320.86 466.246 320.86C467.32 320.86 468.076 321.135 468.514 321.686C468.962 322.237 469.186 323.17 469.186 324.486C469.186 325.802 468.981 326.74 468.57 327.3C468.169 327.86 467.399 328.14 466.26 328.14C465.122 328.14 464.347 327.86 463.936 327.3C463.526 326.74 463.32 325.802 463.32 324.486ZM464.188 324.458C464.188 325.569 464.314 326.339 464.566 326.768C464.828 327.188 465.388 327.398 466.246 327.398C467.114 327.398 467.679 327.183 467.94 326.754C468.202 326.325 468.332 325.564 468.332 324.472C468.332 323.371 468.183 322.619 467.884 322.218C467.595 321.807 467.054 321.602 466.26 321.602C465.467 321.602 464.921 321.803 464.622 322.204C464.333 322.605 464.188 323.357 464.188 324.458ZM473.465 320.86C473.885 320.86 474.384 320.907 474.963 321L475.285 321.042L475.243 321.756C474.505 321.663 473.959 321.616 473.605 321.616C472.774 321.616 472.205 321.821 471.897 322.232C471.589 322.633 471.435 323.38 471.435 324.472C471.435 325.555 471.575 326.311 471.855 326.74C472.135 327.169 472.718 327.384 473.605 327.384L475.271 327.258L475.299 327.972C474.468 328.084 473.852 328.14 473.451 328.14C472.34 328.14 471.579 327.865 471.169 327.314C470.767 326.763 470.567 325.816 470.567 324.472C470.567 323.128 470.786 322.19 471.225 321.658C471.673 321.126 472.419 320.86 473.465 320.86ZM476.287 321H482.153V321.742H479.633V328H478.807V321.742H476.287V321ZM487.242 323.898C488.624 323.898 489.314 324.584 489.314 325.956C489.314 326.656 489.151 327.174 488.824 327.51C488.507 327.837 487.98 328 487.242 328H484.442V321.742H482.846V321H485.268V323.898H487.242ZM487.228 327.258C487.686 327.258 488.012 327.165 488.208 326.978C488.404 326.782 488.502 326.446 488.502 325.97C488.502 325.494 488.404 325.153 488.208 324.948C488.012 324.743 487.686 324.64 487.228 324.64H485.268V327.258H487.228ZM494.693 324.08L495.883 324.052L498.039 321H499.005L496.611 324.374L499.117 328H498.137L495.897 324.794L494.693 324.822V328H493.867V321H494.693V324.08ZM500.446 331.15V321H501.272V321.532C502 321.084 502.766 320.86 503.568 320.86C504.38 320.86 504.982 321.145 505.374 321.714C505.776 322.283 505.976 323.212 505.976 324.5C505.976 325.779 505.743 326.707 505.276 327.286C504.81 327.855 504.035 328.14 502.952 328.14C502.374 328.14 501.814 328.079 501.272 327.958V331.15H500.446ZM503.4 321.616C503.092 321.616 502.761 321.667 502.406 321.77C502.052 321.873 501.776 321.98 501.58 322.092L501.272 322.246V327.23C501.907 327.342 502.458 327.398 502.924 327.398C503.727 327.398 504.292 327.174 504.618 326.726C504.945 326.269 505.108 325.522 505.108 324.486C505.108 323.441 504.964 322.703 504.674 322.274C504.394 321.835 503.97 321.616 503.4 321.616ZM512.451 328.014V321.812H512.339L508.951 328.014H507.635V321H508.461V327.146H508.573L511.961 321H513.277V328.014H512.451ZM515.099 321H520.629V328H519.803V321.742H515.925V328H515.099V321ZM521.965 321H527.831V321.742H525.311V328H524.485V321.742H521.965V321ZM529 324.486C529 323.17 529.219 322.237 529.658 321.686C530.106 321.135 530.862 320.86 531.926 320.86C532.999 320.86 533.755 321.135 534.194 321.686C534.642 322.237 534.866 323.17 534.866 324.486C534.866 325.802 534.661 326.74 534.25 327.3C533.849 327.86 533.079 328.14 531.94 328.14C530.801 328.14 530.027 327.86 529.616 327.3C529.205 326.74 529 325.802 529 324.486ZM529.868 324.458C529.868 325.569 529.994 326.339 530.246 326.768C530.507 327.188 531.067 327.398 531.926 327.398C532.794 327.398 533.359 327.183 533.62 326.754C533.881 326.325 534.012 325.564 534.012 324.472C534.012 323.371 533.863 322.619 533.564 322.218C533.275 321.807 532.733 321.602 531.94 321.602C531.147 321.602 530.601 321.803 530.302 322.204C530.013 322.605 529.868 323.357 529.868 324.458ZM544.569 323.086V326.838C544.606 327.183 544.91 327.389 545.479 327.454L545.437 328.126C544.718 328.126 544.191 327.939 543.855 327.566C542.978 327.949 542.1 328.14 541.223 328.14C540.598 328.14 540.122 327.963 539.795 327.608C539.468 327.244 539.305 326.731 539.305 326.068C539.305 325.396 539.468 324.901 539.795 324.584C540.131 324.257 540.654 324.057 541.363 323.982L543.743 323.744V323.086C543.743 322.563 543.626 322.19 543.393 321.966C543.169 321.733 542.866 321.616 542.483 321.616C541.886 321.616 541.111 321.672 540.159 321.784L539.725 321.826L539.683 321.154C540.71 320.958 541.606 320.86 542.371 320.86C543.146 320.86 543.706 321.042 544.051 321.406C544.396 321.77 544.569 322.33 544.569 323.086ZM540.173 326.012C540.173 326.955 540.56 327.426 541.335 327.426C541.671 327.426 542.04 327.389 542.441 327.314C542.842 327.23 543.16 327.146 543.393 327.062L543.743 326.936V324.402L541.461 324.64C541.004 324.677 540.672 324.808 540.467 325.032C540.271 325.256 540.173 325.583 540.173 326.012ZM547.425 324.08L548.615 324.052L550.771 321H551.737L549.343 324.374L551.849 328H550.869L548.629 324.794L547.425 324.822V328H546.599V321H547.425V324.08ZM552.549 321H558.415V321.742H555.895V328H555.069V321.742H552.549V321ZM564.554 328.014V321.812H564.442L561.054 328.014H559.738V321H560.564V327.146H560.676L564.064 321H565.38V328.014H564.554ZM571.515 324.304C571.599 324.332 571.692 324.383 571.795 324.458C571.907 324.533 572.014 324.631 572.117 324.752C572.369 325.079 572.495 325.485 572.495 325.97C572.495 327.323 571.646 328 569.947 328H567.203V321H570.157C571.604 321 572.327 321.611 572.327 322.834C572.327 323.254 572.252 323.562 572.103 323.758C571.963 323.945 571.837 324.08 571.725 324.164C571.622 324.239 571.552 324.285 571.515 324.304ZM568.029 323.996H570.157C571.025 323.996 571.459 323.604 571.459 322.82C571.459 322.092 571.062 321.728 570.269 321.728H568.029V323.996ZM569.961 327.272C570.577 327.272 571.002 327.174 571.235 326.978C571.468 326.782 571.585 326.46 571.585 326.012C571.585 325.144 571.109 324.71 570.157 324.71H568.029V327.272H569.961ZM573.953 324.486C573.953 323.17 574.173 322.237 574.611 321.686C575.059 321.135 575.815 320.86 576.879 320.86C577.953 320.86 578.709 321.135 579.147 321.686C579.595 322.237 579.819 323.17 579.819 324.486C579.819 325.802 579.614 326.74 579.203 327.3C578.802 327.86 578.032 328.14 576.893 328.14C575.755 328.14 574.98 327.86 574.569 327.3C574.159 326.74 573.953 325.802 573.953 324.486ZM574.821 324.458C574.821 325.569 574.947 326.339 575.199 326.768C575.461 327.188 576.021 327.398 576.879 327.398C577.747 327.398 578.312 327.183 578.573 326.754C578.835 326.325 578.965 325.564 578.965 324.472C578.965 323.371 578.816 322.619 578.517 322.218C578.228 321.807 577.687 321.602 576.893 321.602C576.1 321.602 575.554 321.803 575.255 322.204C574.966 322.605 574.821 323.357 574.821 324.458ZM585.802 324.304C585.886 324.332 585.979 324.383 586.082 324.458C586.194 324.533 586.301 324.631 586.404 324.752C586.656 325.079 586.782 325.485 586.782 325.97C586.782 327.323 585.933 328 584.234 328H581.49V321H584.444C585.891 321 586.614 321.611 586.614 322.834C586.614 323.254 586.539 323.562 586.39 323.758C586.25 323.945 586.124 324.08 586.012 324.164C585.909 324.239 585.839 324.285 585.802 324.304ZM582.316 323.996H584.444C585.312 323.996 585.746 323.604 585.746 322.82C585.746 322.092 585.349 321.728 584.556 321.728H582.316V323.996ZM584.248 327.272C584.864 327.272 585.289 327.174 585.522 326.978C585.755 326.782 585.872 326.46 585.872 326.012C585.872 325.144 585.396 324.71 584.444 324.71H582.316V327.272H584.248ZM378.222 337.304C378.306 337.332 378.399 337.383 378.502 337.458C378.614 337.533 378.721 337.631 378.824 337.752C379.076 338.079 379.202 338.485 379.202 338.97C379.202 340.323 378.353 341 376.654 341H373.91V334H376.864C378.311 334 379.034 334.611 379.034 335.834C379.034 336.254 378.959 336.562 378.81 336.758C378.67 336.945 378.544 337.08 378.432 337.164C378.329 337.239 378.259 337.285 378.222 337.304ZM374.736 336.996H376.864C377.732 336.996 378.166 336.604 378.166 335.82C378.166 335.092 377.769 334.728 376.976 334.728H374.736V336.996ZM376.668 340.272C377.284 340.272 377.709 340.174 377.942 339.978C378.175 339.782 378.292 339.46 378.292 339.012C378.292 338.144 377.816 337.71 376.864 337.71H374.736V340.272H376.668ZM389.854 341H383.96V340.272L386.844 337.22C387.311 336.725 387.647 336.357 387.852 336.114C388.067 335.862 388.258 335.559 388.426 335.204C388.604 334.849 388.692 334.49 388.692 334.126C388.692 333.501 388.515 333.057 388.16 332.796C387.815 332.535 387.278 332.404 386.55 332.404C385.934 332.404 385.248 332.488 384.492 332.656L384.114 332.74L384.044 331.998C384.922 331.746 385.822 331.62 386.746 331.62C387.68 331.62 388.384 331.816 388.86 332.208C389.346 332.591 389.588 333.207 389.588 334.056C389.588 334.7 389.444 335.26 389.154 335.736C388.865 336.212 388.38 336.791 387.698 337.472L385.01 340.244H389.854V341ZM391.822 333.552C392.093 332.815 392.457 332.311 392.914 332.04C393.381 331.76 393.936 331.62 394.58 331.62C395.234 331.62 395.756 331.699 396.148 331.858C396.54 332.007 396.881 332.264 397.17 332.628C397.749 333.337 398.038 334.593 398.038 336.394C398.038 338.186 397.758 339.427 397.198 340.118C396.648 340.799 395.822 341.14 394.72 341.14C393.619 341.14 392.793 340.804 392.242 340.132C391.692 339.451 391.416 338.256 391.416 336.548C391.416 335.288 391.552 334.289 391.822 333.552ZM396.092 332.74C395.756 332.507 395.299 332.39 394.72 332.39C394.151 332.39 393.698 332.502 393.362 332.726C392.662 333.202 392.312 334.481 392.312 336.562C392.312 338.009 392.508 339.003 392.9 339.544C393.292 340.085 393.904 340.356 394.734 340.356C395.276 340.356 395.714 340.253 396.05 340.048C396.778 339.6 397.142 338.433 397.142 336.548C397.142 334.495 396.792 333.225 396.092 332.74ZM405.522 341H399.628V340.272L402.512 337.22C402.979 336.725 403.315 336.357 403.52 336.114C403.735 335.862 403.926 335.559 404.094 335.204C404.272 334.849 404.36 334.49 404.36 334.126C404.36 333.501 404.183 333.057 403.828 332.796C403.483 332.535 402.946 332.404 402.218 332.404C401.602 332.404 400.916 332.488 400.16 332.656L399.782 332.74L399.712 331.998C400.59 331.746 401.49 331.62 402.414 331.62C403.348 331.62 404.052 331.816 404.528 332.208C405.014 332.591 405.256 333.207 405.256 334.056C405.256 334.7 405.112 335.26 404.822 335.736C404.533 336.212 404.048 336.791 403.366 337.472L400.678 340.244H405.522V341ZM411.816 331.76V341H410.962V332.712L408.498 334.364L408.092 333.692L411.004 331.76H411.816ZM418.303 334H422.517V334.742H419.129V341H418.303V334ZM423.412 337.486C423.412 336.17 423.632 335.237 424.07 334.686C424.518 334.135 425.274 333.86 426.338 333.86C427.412 333.86 428.168 334.135 428.606 334.686C429.054 335.237 429.278 336.17 429.278 337.486C429.278 338.802 429.073 339.74 428.662 340.3C428.261 340.86 427.491 341.14 426.352 341.14C425.214 341.14 424.439 340.86 424.028 340.3C423.618 339.74 423.412 338.802 423.412 337.486ZM424.28 337.458C424.28 338.569 424.406 339.339 424.658 339.768C424.92 340.188 425.48 340.398 426.338 340.398C427.206 340.398 427.771 340.183 428.032 339.754C428.294 339.325 428.424 338.564 428.424 337.472C428.424 336.371 428.275 335.619 427.976 335.218C427.687 334.807 427.146 334.602 426.352 334.602C425.559 334.602 425.013 334.803 424.714 335.204C424.425 335.605 424.28 336.357 424.28 337.458ZM430.907 340.272C431.159 339.805 431.369 339.273 431.537 338.676C431.705 338.069 431.789 337.407 431.789 336.688V334H436.311V340.272H436.955V342.736H436.143V341.014H431.201V342.736H430.389V340.272H430.907ZM432.587 336.786C432.587 337.505 432.512 338.144 432.363 338.704C432.223 339.264 432.041 339.787 431.817 340.272H435.485V334.742H432.587V336.786ZM439.152 343.422C439.367 343.431 439.526 343.431 439.628 343.422C439.992 343.394 440.277 343.077 440.482 342.47L440.972 341H440.202L438.102 334H438.956L440.818 340.286H441.224L443.226 334H444.052L441.252 342.596C441 343.221 440.748 343.641 440.496 343.856C440.254 344.071 439.927 344.178 439.516 344.178C439.367 344.187 439.246 344.178 439.152 344.15V343.422Z" fill="#B6B6DD"/>
<path d="M405.211 155.243L392.894 141.049C392.783 140.92 392.645 140.817 392.491 140.747C392.336 140.676 392.168 140.64 391.998 140.64C391.828 140.64 391.66 140.676 391.506 140.747C391.351 140.817 391.213 140.92 391.102 141.049L378.789 155.243C378.752 155.286 378.728 155.339 378.72 155.395C378.711 155.451 378.719 155.508 378.743 155.56C378.766 155.611 378.804 155.655 378.852 155.686C378.899 155.717 378.955 155.733 379.012 155.733H382.018C382.188 155.733 382.352 155.659 382.467 155.529L390.59 146.166V167.062C390.59 167.226 390.723 167.359 390.887 167.359H393.113C393.277 167.359 393.41 167.226 393.41 167.062V146.166L401.533 155.529C401.645 155.659 401.808 155.733 401.982 155.733H404.988C405.241 155.733 405.378 155.436 405.211 155.243Z" fill="#D46BFE"/>
<rect x="353.5" y="109.5" width="279" height="254" rx="17.5" stroke="url(#paint3_linear_243_51)" shape-rendering="crispEdges"/>
</g>
<g filter="url(#filter4_bd_243_51)">
<rect x="49" y="324" width="280" height="255" rx="18" fill="url(#paint4_radial_243_51)" fill-opacity="0.8" shape-rendering="crispEdges"/>
<g filter="url(#filter5_ii_243_51)">
<rect x="69" y="410" width="240" height="106" rx="14" fill="#262637"/>
</g>
<path d="M179.363 488H150.667V483.58L163.791 469.776C166.057 467.419 167.712 465.628 168.755 464.404C169.797 463.18 170.727 461.729 171.543 460.052C172.404 458.375 172.835 456.697 172.835 455.02C172.835 452.119 172.041 450.079 170.455 448.9C168.868 447.721 166.397 447.132 163.043 447.132C160.096 447.132 156.809 447.517 153.183 448.288L151.415 448.628L151.007 444.276C155.313 443.052 159.756 442.44 164.335 442.44C168.913 442.44 172.359 443.415 174.671 445.364C177.028 447.268 178.207 450.305 178.207 454.476C178.207 457.649 177.504 460.415 176.099 462.772C174.693 465.129 172.268 467.963 168.823 471.272L156.855 483.444H179.363V488Z" fill="white"/>
<path d="M140.82 482.18C140.82 486.24 138.71 488.27 134.49 488.27H134.04L133.62 491.72C132.6 491.66 132.09 491.59 132.09 491.51L132.51 488.18L128.22 487.64L128.46 485.81C130 486.03 131.43 486.18 132.75 486.26L133.74 478.76C131.7 478.28 130.24 477.67 129.36 476.93C128.5 476.17 128.07 474.93 128.07 473.21C128.07 469.67 130.19 467.9 134.43 467.9C134.73 467.9 134.96 467.91 135.12 467.93L135.63 464.06H137.16L136.65 468.02L140.4 468.47L140.22 470.33C138.84 470.17 137.57 470.04 136.41 469.94L135.51 476.93C137.45 477.39 138.82 477.98 139.62 478.7C140.42 479.42 140.82 480.58 140.82 482.18ZM130.29 473.09C130.29 474.17 130.56 474.94 131.1 475.4C131.64 475.86 132.61 476.26 134.01 476.6L134.88 469.85H134.58C131.72 469.85 130.29 470.93 130.29 473.09ZM138.6 482.33C138.6 481.37 138.35 480.66 137.85 480.2C137.35 479.74 136.48 479.36 135.24 479.06L134.31 486.32H134.37C137.19 486.32 138.6 484.99 138.6 482.33Z" fill="white"/>
<path d="M243.648 489.664V488.32H255.648V489.664H250.416V505H248.928V489.664H243.648ZM264.153 499.192H259.545V505H258.057V488.32H264.153C265.929 488.32 267.233 488.752 268.065 489.616C268.913 490.48 269.337 491.808 269.337 493.6C269.337 497.328 267.609 499.192 264.153 499.192ZM259.545 497.872H264.153C266.585 497.872 267.801 496.448 267.801 493.6C267.801 492.24 267.513 491.24 266.937 490.6C266.361 489.96 265.433 489.64 264.153 489.64H259.545V497.872ZM280.874 505V489.64H275.162L275.018 492.208C274.746 496.88 274.37 500.24 273.89 502.288C273.618 503.424 273.178 504.184 272.57 504.568C271.962 504.952 271.122 505.136 270.05 505.12V503.728C270.866 503.68 271.434 503.536 271.754 503.296C272.074 503.04 272.33 502.496 272.522 501.664C272.954 499.84 273.29 496.728 273.53 492.328L273.746 488.32H282.362V505H280.874ZM297.093 505V497.296H288.045V505H286.557V488.32H288.045V495.976H297.093V488.32H298.557V505H297.093Z" fill="white"/>
<path d="M69.756 538.486C69.756 537.17 69.9753 536.237 70.414 535.686C70.862 535.135 71.618 534.86 72.682 534.86C73.7553 534.86 74.5113 535.135 74.95 535.686C75.398 536.237 75.622 537.17 75.622 538.486C75.622 539.802 75.4167 540.74 75.006 541.3C74.6047 541.86 73.8347 542.14 72.696 542.14C71.5573 542.14 70.7827 541.86 70.372 541.3C69.9613 540.74 69.756 539.802 69.756 538.486ZM70.624 538.458C70.624 539.569 70.75 540.339 71.002 540.768C71.2633 541.188 71.8233 541.398 72.682 541.398C73.55 541.398 74.1147 541.183 74.376 540.754C74.6373 540.325 74.768 539.564 74.768 538.472C74.768 537.371 74.6187 536.619 74.32 536.218C74.0307 535.807 73.4893 535.602 72.696 535.602C71.9027 535.602 71.3567 535.803 71.058 536.204C70.7687 536.605 70.624 537.357 70.624 538.458ZM81.8848 538.472C81.8848 539.48 81.7495 540.203 81.4788 540.642C81.2081 541.081 80.6761 541.3 79.8828 541.3C79.4255 541.3 79.0615 541.225 78.7908 541.076C78.5295 540.927 78.3288 540.726 78.1888 540.474C78.0488 540.213 77.9555 539.909 77.9088 539.564C77.8715 539.219 77.8528 538.855 77.8528 538.472C77.8528 538.089 77.8761 537.73 77.9228 537.394C77.9695 537.049 78.0675 536.75 78.2168 536.498C78.3661 536.246 78.5761 536.05 78.8468 535.91C79.1175 535.761 79.4815 535.686 79.9388 535.686C80.7321 535.686 81.2548 535.896 81.5068 536.316C81.7588 536.745 81.8848 537.464 81.8848 538.472ZM79.9948 534.916C79.5841 534.916 79.2155 534.986 78.8888 535.126C78.5621 535.257 78.2728 535.481 78.0208 535.798C78.1701 535.005 78.4501 534.407 78.8608 534.006C79.2715 533.595 79.8828 533.357 80.6948 533.292C81.4788 533.236 81.9408 533.171 82.0808 533.096C82.2115 533.021 82.2955 532.9 82.3328 532.732C82.3795 532.564 82.4028 532.41 82.4028 532.27H81.7588C81.7121 532.363 81.6608 532.415 81.6048 532.424C81.5675 532.433 81.4975 532.443 81.3948 532.452C81.3015 532.461 81.1661 532.475 80.9888 532.494C79.4581 532.634 78.4408 533.082 77.9368 533.838C77.4141 534.594 77.1061 535.803 77.0128 537.464C77.0035 537.679 77.0035 537.945 77.0128 538.262C77.0221 538.579 77.0408 538.948 77.0688 539.368C77.1248 540.283 77.4001 540.964 77.8948 541.412C78.3988 541.86 79.1081 542.084 80.0228 542.084C80.6015 542.084 81.0635 541.991 81.4088 541.804C81.7635 541.617 82.0341 541.361 82.2208 541.034C82.4168 540.707 82.5475 540.325 82.6128 539.886C82.6875 539.447 82.7248 538.981 82.7248 538.486C82.7435 537.235 82.5475 536.325 82.1368 535.756C81.7355 535.196 81.0215 534.916 79.9948 534.916ZM84.4159 535H85.2419V541.258H87.6919V535H88.5179V541.258H90.9679V535H91.7939V541.258H92.5639V543.736H91.7519V542H84.4159V535ZM98.9148 537.086V540.838C98.9522 541.183 99.2555 541.389 99.8248 541.454L99.7828 542.126C99.0642 542.126 98.5368 541.939 98.2008 541.566C97.3235 541.949 96.4462 542.14 95.5688 542.14C94.9435 542.14 94.4675 541.963 94.1408 541.608C93.8142 541.244 93.6508 540.731 93.6508 540.068C93.6508 539.396 93.8142 538.901 94.1408 538.584C94.4768 538.257 94.9995 538.057 95.7088 537.982L98.0888 537.744V537.086C98.0888 536.563 97.9722 536.19 97.7388 535.966C97.5148 535.733 97.2115 535.616 96.8288 535.616C96.2315 535.616 95.4568 535.672 94.5048 535.784L94.0708 535.826L94.0288 535.154C95.0555 534.958 95.9515 534.86 96.7168 534.86C97.4915 534.86 98.0515 535.042 98.3968 535.406C98.7422 535.77 98.9148 536.33 98.9148 537.086ZM94.5188 540.012C94.5188 540.955 94.9062 541.426 95.6808 541.426C96.0168 541.426 96.3855 541.389 96.7868 541.314C97.1882 541.23 97.5055 541.146 97.7388 541.062L98.0888 540.936V538.402L95.8068 538.64C95.3495 538.677 95.0182 538.808 94.8128 539.032C94.6168 539.256 94.5188 539.583 94.5188 540.012ZM100.399 542L102.065 539.48C101.514 539.368 101.136 539.139 100.931 538.794C100.726 538.449 100.623 537.935 100.623 537.254C100.623 535.751 101.318 535 102.709 535H105.439V542H104.613V539.564H102.961L101.379 542H100.399ZM104.613 538.822V535.742H102.723C102.182 535.742 101.836 535.849 101.687 536.064C101.547 536.279 101.477 536.68 101.477 537.268C101.477 537.856 101.552 538.262 101.701 538.486C101.86 538.71 102.196 538.822 102.709 538.822H104.613ZM113.082 534.86C113.502 534.86 114.001 534.907 114.58 535L114.902 535.042L114.86 535.756C114.122 535.663 113.576 535.616 113.222 535.616C112.391 535.616 111.822 535.821 111.514 536.232C111.206 536.633 111.052 537.38 111.052 538.472C111.052 539.555 111.192 540.311 111.472 540.74C111.752 541.169 112.335 541.384 113.222 541.384L114.888 541.258L114.916 541.972C114.085 542.084 113.469 542.14 113.068 542.14C111.957 542.14 111.196 541.865 110.786 541.314C110.384 540.763 110.184 539.816 110.184 538.472C110.184 537.128 110.403 536.19 110.842 535.658C111.29 535.126 112.036 534.86 113.082 534.86ZM115.904 535H121.77V535.742H119.25V542H118.424V535.742H115.904V535ZM122.94 538.486C122.94 537.17 123.159 536.237 123.598 535.686C124.046 535.135 124.802 534.86 125.866 534.86C126.939 534.86 127.695 535.135 128.134 535.686C128.582 536.237 128.806 537.17 128.806 538.486C128.806 539.802 128.6 540.74 128.19 541.3C127.788 541.86 127.018 542.14 125.88 542.14C124.741 542.14 123.966 541.86 123.556 541.3C123.145 540.74 122.94 539.802 122.94 538.486ZM123.808 538.458C123.808 539.569 123.934 540.339 124.186 540.768C124.447 541.188 125.007 541.398 125.866 541.398C126.734 541.398 127.298 541.183 127.56 540.754C127.821 540.325 127.952 539.564 127.952 538.472C127.952 537.371 127.802 536.619 127.504 536.218C127.214 535.807 126.673 535.602 125.88 535.602C125.086 535.602 124.54 535.803 124.242 536.204C123.952 536.605 123.808 537.357 123.808 538.458ZM135.292 542.014V535.812H135.18L131.792 542.014H130.476V535H131.302V541.146H131.414L134.802 535H136.118V542.014H135.292ZM145.109 535V542H144.297V535.812H144.227L142.043 541.384H141.175L138.977 535.812H138.907V542H138.095V535H139.509L141.623 540.502L143.723 535H145.109ZM146.934 538.486C146.934 537.17 147.153 536.237 147.592 535.686C148.04 535.135 148.796 534.86 149.86 534.86C150.933 534.86 151.689 535.135 152.128 535.686C152.576 536.237 152.8 537.17 152.8 538.486C152.8 539.802 152.594 540.74 152.184 541.3C151.782 541.86 151.012 542.14 149.874 542.14C148.735 542.14 147.96 541.86 147.55 541.3C147.139 540.74 146.934 539.802 146.934 538.486ZM147.802 538.458C147.802 539.569 147.928 540.339 148.18 540.768C148.441 541.188 149.001 541.398 149.86 541.398C150.728 541.398 151.292 541.183 151.554 540.754C151.815 540.325 151.946 539.564 151.946 538.472C151.946 537.371 151.796 536.619 151.498 536.218C151.208 535.807 150.667 535.602 149.874 535.602C149.08 535.602 148.534 535.803 148.236 536.204C147.946 536.605 147.802 537.357 147.802 538.458ZM157.078 534.86C157.498 534.86 157.997 534.907 158.576 535L158.898 535.042L158.856 535.756C158.118 535.663 157.572 535.616 157.218 535.616C156.387 535.616 155.818 535.821 155.51 536.232C155.202 536.633 155.048 537.38 155.048 538.472C155.048 539.555 155.188 540.311 155.468 540.74C155.748 541.169 156.331 541.384 157.218 541.384L158.884 541.258L158.912 541.972C158.081 542.084 157.465 542.14 157.064 542.14C155.953 542.14 155.192 541.865 154.782 541.314C154.38 540.763 154.18 539.816 154.18 538.472C154.18 537.128 154.399 536.19 154.838 535.658C155.286 535.126 156.032 534.86 157.078 534.86ZM159.9 535H165.766V535.742H163.246V542H162.42V535.742H159.9V535ZM170.856 537.898C172.237 537.898 172.928 538.584 172.928 539.956C172.928 540.656 172.764 541.174 172.438 541.51C172.12 541.837 171.593 542 170.856 542H168.056V535.742H166.46V535H168.882V537.898H170.856ZM170.842 541.258C171.299 541.258 171.626 541.165 171.822 540.978C172.018 540.782 172.116 540.446 172.116 539.97C172.116 539.494 172.018 539.153 171.822 538.948C171.626 538.743 171.299 538.64 170.842 538.64H168.882V541.258H170.842ZM177.48 535H178.306V541.258H182.1V535H182.926V541.258H183.584V543.736H182.772V542H177.48V535ZM189.802 542.014V535.812H189.69L186.302 542.014H184.986V535H185.812V541.146H185.924L189.312 535H190.628V542.014H189.802ZM196.833 535.014C196.936 534.995 197.113 534.981 197.365 534.972C197.626 534.953 197.85 534.944 198.037 534.944C198.756 534.944 199.344 535.187 199.801 535.672C200.268 536.157 200.515 536.75 200.543 537.45C200.58 538.15 200.58 538.855 200.543 539.564C200.515 540.264 200.272 540.857 199.815 541.342C199.358 541.818 198.77 542.056 198.051 542.056C197.855 542.056 197.631 542.047 197.379 542.028C197.127 542.019 196.945 542.005 196.833 541.986V544.576H196.007V541.986C195.895 542.005 195.713 542.019 195.461 542.028C195.209 542.047 194.985 542.056 194.789 542.056C194.07 542.056 193.482 541.818 193.025 541.342C192.568 540.857 192.32 540.264 192.283 539.564C192.255 538.855 192.255 538.15 192.283 537.45C192.32 536.75 192.568 536.157 193.025 535.672C193.492 535.187 194.084 534.944 194.803 534.944C194.99 534.944 195.209 534.953 195.461 534.972C195.722 534.981 195.904 534.995 196.007 535.014V532.144H196.833V535.014ZM196.007 541.23V535.77C195.475 535.705 195.069 535.672 194.789 535.672C194.313 535.672 193.916 535.859 193.599 536.232C193.291 536.605 193.123 537.114 193.095 537.758C193.076 538.393 193.076 538.962 193.095 539.466C193.123 539.97 193.291 540.409 193.599 540.782C193.916 541.146 194.313 541.328 194.789 541.328C195.116 541.328 195.522 541.295 196.007 541.23ZM196.833 541.23C197.318 541.295 197.724 541.328 198.051 541.328C198.527 541.328 198.919 541.146 199.227 540.782C199.544 540.409 199.712 539.97 199.731 539.466C199.759 538.962 199.759 538.393 199.731 537.758C199.712 537.114 199.544 536.605 199.227 536.232C198.919 535.859 198.527 535.672 198.051 535.672C197.771 535.672 197.365 535.705 196.833 535.77V541.23ZM202.339 545.15V535H203.165V535.532C203.893 535.084 204.658 534.86 205.461 534.86C206.273 534.86 206.875 535.145 207.267 535.714C207.668 536.283 207.869 537.212 207.869 538.5C207.869 539.779 207.636 540.707 207.169 541.286C206.702 541.855 205.928 542.14 204.845 542.14C204.266 542.14 203.706 542.079 203.165 541.958V545.15H202.339ZM205.293 535.616C204.985 535.616 204.654 535.667 204.299 535.77C203.944 535.873 203.669 535.98 203.473 536.092L203.165 536.246V541.23C203.8 541.342 204.35 541.398 204.817 541.398C205.62 541.398 206.184 541.174 206.511 540.726C206.838 540.269 207.001 539.522 207.001 538.486C207.001 537.441 206.856 536.703 206.567 536.274C206.287 535.835 205.862 535.616 205.293 535.616ZM209.373 538.486C209.373 537.17 209.593 536.237 210.031 535.686C210.479 535.135 211.235 534.86 212.299 534.86C213.373 534.86 214.129 535.135 214.567 535.686C215.015 536.237 215.239 537.17 215.239 538.486C215.239 539.802 215.034 540.74 214.623 541.3C214.222 541.86 213.452 542.14 212.313 542.14C211.175 542.14 210.4 541.86 209.989 541.3C209.579 540.74 209.373 539.802 209.373 538.486ZM210.241 538.458C210.241 539.569 210.367 540.339 210.619 540.768C210.881 541.188 211.441 541.398 212.299 541.398C213.167 541.398 213.732 541.183 213.993 540.754C214.255 540.325 214.385 539.564 214.385 538.472C214.385 537.371 214.236 536.619 213.937 536.218C213.648 535.807 213.107 535.602 212.313 535.602C211.52 535.602 210.974 535.803 210.675 536.204C210.386 536.605 210.241 537.357 210.241 538.458ZM221.222 538.304C221.306 538.332 221.399 538.383 221.502 538.458C221.614 538.533 221.721 538.631 221.824 538.752C222.076 539.079 222.202 539.485 222.202 539.97C222.202 541.323 221.353 542 219.654 542H216.91V535H219.864C221.311 535 222.034 535.611 222.034 536.834C222.034 537.254 221.959 537.562 221.81 537.758C221.67 537.945 221.544 538.08 221.432 538.164C221.329 538.239 221.259 538.285 221.222 538.304ZM217.736 537.996H219.864C220.732 537.996 221.166 537.604 221.166 536.82C221.166 536.092 220.769 535.728 219.976 535.728H217.736V537.996ZM219.668 541.272C220.284 541.272 220.709 541.174 220.942 540.978C221.175 540.782 221.292 540.46 221.292 540.012C221.292 539.144 220.816 538.71 219.864 538.71H217.736V541.272H219.668ZM226.6 538.64C227.076 538.64 227.408 538.747 227.594 538.962C227.781 539.167 227.874 539.503 227.874 539.97C227.874 540.437 227.781 540.768 227.594 540.964C227.408 541.16 227.076 541.258 226.6 541.258H224.64V538.64H226.6ZM226.614 542C227.333 542 227.856 541.841 228.182 541.524C228.518 541.207 228.686 540.684 228.686 539.956C228.686 538.584 227.996 537.898 226.614 537.898H224.64V535H223.814V542H226.614ZM229.526 535V542H230.352V535H229.526ZM231.594 535H232.532L234.38 537.884L236.228 535H237.166L234.884 538.486L237.152 542H236.228L234.38 539.13L232.532 542H231.594L233.848 538.5L231.594 535ZM246.448 537.086V540.838C246.485 541.183 246.789 541.389 247.358 541.454L247.316 542.126C246.597 542.126 246.07 541.939 245.734 541.566C244.857 541.949 243.979 542.14 243.102 542.14C242.477 542.14 242.001 541.963 241.674 541.608C241.347 541.244 241.184 540.731 241.184 540.068C241.184 539.396 241.347 538.901 241.674 538.584C242.01 538.257 242.533 538.057 243.242 537.982L245.622 537.744V537.086C245.622 536.563 245.505 536.19 245.272 535.966C245.048 535.733 244.745 535.616 244.362 535.616C243.765 535.616 242.99 535.672 242.038 535.784L241.604 535.826L241.562 535.154C242.589 534.958 243.485 534.86 244.25 534.86C245.025 534.86 245.585 535.042 245.93 535.406C246.275 535.77 246.448 536.33 246.448 537.086ZM242.052 540.012C242.052 540.955 242.439 541.426 243.214 541.426C243.55 541.426 243.919 541.389 244.32 541.314C244.721 541.23 245.039 541.146 245.272 541.062L245.622 540.936V538.402L243.34 538.64C242.883 538.677 242.551 538.808 242.346 539.032C242.15 539.256 242.052 539.583 242.052 540.012ZM249.304 538.08L250.494 538.052L252.65 535H253.616L251.222 538.374L253.728 542H252.748L250.508 538.794L249.304 538.822V542H248.478V535H249.304V538.08ZM254.428 535H260.294V535.742H257.774V542H256.948V535.742H254.428V535ZM266.433 542.014V535.812H266.321L262.933 542.014H261.617V535H262.443V541.146H262.555L265.943 535H267.259V542.014H266.433ZM273.394 538.304C273.478 538.332 273.571 538.383 273.674 538.458C273.786 538.533 273.893 538.631 273.996 538.752C274.248 539.079 274.374 539.485 274.374 539.97C274.374 541.323 273.525 542 271.826 542H269.082V535H272.036C273.483 535 274.206 535.611 274.206 536.834C274.206 537.254 274.131 537.562 273.982 537.758C273.842 537.945 273.716 538.08 273.604 538.164C273.501 538.239 273.431 538.285 273.394 538.304ZM269.908 537.996H272.036C272.904 537.996 273.338 537.604 273.338 536.82C273.338 536.092 272.941 535.728 272.148 535.728H269.908V537.996ZM271.84 541.272C272.456 541.272 272.881 541.174 273.114 540.978C273.347 540.782 273.464 540.46 273.464 540.012C273.464 539.144 272.988 538.71 272.036 538.71H269.908V541.272H271.84ZM275.832 538.486C275.832 537.17 276.052 536.237 276.49 535.686C276.938 535.135 277.694 534.86 278.758 534.86C279.832 534.86 280.588 535.135 281.026 535.686C281.474 536.237 281.698 537.17 281.698 538.486C281.698 539.802 281.493 540.74 281.082 541.3C280.681 541.86 279.911 542.14 278.772 542.14C277.634 542.14 276.859 541.86 276.448 541.3C276.038 540.74 275.832 539.802 275.832 538.486ZM276.7 538.458C276.7 539.569 276.826 540.339 277.078 540.768C277.34 541.188 277.9 541.398 278.758 541.398C279.626 541.398 280.191 541.183 280.452 540.754C280.714 540.325 280.844 539.564 280.844 538.472C280.844 537.371 280.695 536.619 280.396 536.218C280.107 535.807 279.566 535.602 278.772 535.602C277.979 535.602 277.433 535.803 277.134 536.204C276.845 536.605 276.7 537.357 276.7 538.458ZM287.681 538.304C287.765 538.332 287.858 538.383 287.961 538.458C288.073 538.533 288.18 538.631 288.283 538.752C288.535 539.079 288.661 539.485 288.661 539.97C288.661 541.323 287.812 542 286.113 542H283.369V535H286.323C287.77 535 288.493 535.611 288.493 536.834C288.493 537.254 288.418 537.562 288.269 537.758C288.129 537.945 288.003 538.08 287.891 538.164C287.788 538.239 287.718 538.285 287.681 538.304ZM284.195 537.996H286.323C287.191 537.996 287.625 537.604 287.625 536.82C287.625 536.092 287.228 535.728 286.435 535.728H284.195V537.996ZM286.127 541.272C286.743 541.272 287.168 541.174 287.401 540.978C287.634 540.782 287.751 540.46 287.751 540.012C287.751 539.144 287.275 538.71 286.323 538.71H284.195V541.272H286.127Z" fill="#B6B6DD"/>
<path d="M101.211 370.243L88.8944 356.049C88.7831 355.92 88.6454 355.817 88.4908 355.747C88.3362 355.676 88.1682 355.64 87.9982 355.64C87.8282 355.64 87.6603 355.676 87.5056 355.747C87.351 355.817 87.2134 355.92 87.102 356.049L74.7891 370.243C74.7519 370.286 74.7278 370.339 74.7196 370.395C74.7115 370.451 74.7196 370.508 74.7431 370.56C74.7665 370.611 74.8043 370.655 74.852 370.686C74.8996 370.717 74.9551 370.733 75.0118 370.733H78.0177C78.1884 370.733 78.3516 370.659 78.4667 370.529L86.5899 361.166V382.062C86.5899 382.226 86.7235 382.359 86.8868 382.359H89.1134C89.2766 382.359 89.4102 382.226 89.4102 382.062V361.166L97.5335 370.529C97.6448 370.659 97.8081 370.733 97.9825 370.733H100.988C101.241 370.733 101.378 370.436 101.211 370.243Z" fill="#D46BFE"/>
<rect x="49.5" y="324.5" width="279" height="254" rx="17.5" stroke="url(#paint5_linear_243_51)" shape-rendering="crispEdges"/>
</g>
<g filter="url(#filter6_bd_243_51)">
<rect x="353" y="388" width="280" height="191" rx="18" fill="url(#paint6_radial_243_51)" fill-opacity="0.8" shape-rendering="crispEdges"/>
<g filter="url(#filter7_ii_243_51)">
<rect x="373" y="408" width="240" height="106" rx="14" fill="#262637"/>
</g>
<path d="M480.901 429.12V474H475.665V434.968L464.105 442.584L461.725 438.64L476.005 429.12H480.901ZM497.736 433.88V429.12H525.616V435.988L508.344 474.68L503.38 473.116L520.312 435.648V433.88H497.736Z" fill="white"/>
<path d="M458.19 466.08C458.37 466.14 458.57 466.25 458.79 466.41C459.03 466.57 459.26 466.78 459.48 467.04C460.02 467.74 460.29 468.61 460.29 469.65C460.29 472.55 458.47 474 454.83 474H448.95V459H455.28C458.38 459 459.93 460.31 459.93 462.93C459.93 463.83 459.77 464.49 459.45 464.91C459.15 465.31 458.88 465.6 458.64 465.78C458.42 465.94 458.27 466.04 458.19 466.08ZM450.72 465.42H455.28C457.14 465.42 458.07 464.58 458.07 462.9C458.07 461.34 457.22 460.56 455.52 460.56H450.72V465.42ZM454.86 472.44C456.18 472.44 457.09 472.23 457.59 471.81C458.09 471.39 458.34 470.7 458.34 469.74C458.34 467.88 457.32 466.95 455.28 466.95H450.72V472.44H454.86Z" fill="white"/>
<path d="M481.004 494.192H476.396V500H474.908V483.32H481.004C482.78 483.32 484.084 483.752 484.916 484.616C485.764 485.48 486.188 486.808 486.188 488.6C486.188 492.328 484.46 494.192 481.004 494.192ZM476.396 492.872H481.004C483.436 492.872 484.652 491.448 484.652 488.6C484.652 487.24 484.364 486.24 483.788 485.6C483.212 484.96 482.284 484.64 481.004 484.64H476.396V492.872ZM486.92 500L491.72 483.32H495.2L499.976 500H498.512L497.168 495.392H489.728L488.408 500H486.92ZM492.8 484.616L490.088 494.072H496.808L494.096 484.616H492.8ZM509.21 491.168C511.098 491.744 512.018 493.144 511.97 495.368C511.938 496.92 511.418 498.12 510.41 498.968C509.402 499.816 508.106 500.224 506.522 500.192C504.954 500.16 503.37 499.968 501.77 499.616L501.914 498.32C503.482 498.656 504.858 498.848 506.042 498.896C509.002 499.008 510.482 497.824 510.482 495.344C510.482 494.128 510.162 493.256 509.522 492.728C508.882 492.2 507.762 491.936 506.162 491.936H504.146V490.64H506.162C507.362 490.64 508.306 490.336 508.994 489.728C509.682 489.104 510.026 488.288 510.026 487.28C510.026 486.256 509.674 485.512 508.97 485.048C508.266 484.568 507.474 484.344 506.594 484.376C505.73 484.392 504.842 484.472 503.93 484.616C503.018 484.744 502.362 484.888 501.962 485.048L501.914 483.8C503.402 483.384 504.882 483.152 506.354 483.104C507.842 483.04 509.066 483.36 510.026 484.064C511.002 484.768 511.49 485.76 511.49 487.04C511.49 489.024 510.73 490.4 509.21 491.168Z" fill="white"/>
<path d="M378.222 538.304C378.306 538.332 378.399 538.383 378.502 538.458C378.614 538.533 378.721 538.631 378.824 538.752C379.076 539.079 379.202 539.485 379.202 539.97C379.202 541.323 378.353 542 376.654 542H373.91V535H376.864C378.311 535 379.034 535.611 379.034 536.834C379.034 537.254 378.959 537.562 378.81 537.758C378.67 537.945 378.544 538.08 378.432 538.164C378.329 538.239 378.259 538.285 378.222 538.304ZM374.736 537.996H376.864C377.732 537.996 378.166 537.604 378.166 536.82C378.166 536.092 377.769 535.728 376.976 535.728H374.736V537.996ZM376.668 541.272C377.284 541.272 377.709 541.174 377.942 540.978C378.175 540.782 378.292 540.46 378.292 540.012C378.292 539.144 377.816 538.71 376.864 538.71H374.736V541.272H376.668ZM383.6 538.64C384.076 538.64 384.408 538.747 384.594 538.962C384.781 539.167 384.874 539.503 384.874 539.97C384.874 540.437 384.781 540.768 384.594 540.964C384.408 541.16 384.076 541.258 383.6 541.258H381.64V538.64H383.6ZM383.614 542C384.333 542 384.856 541.841 385.182 541.524C385.518 541.207 385.686 540.684 385.686 539.956C385.686 538.584 384.996 537.898 383.614 537.898H381.64V535H380.814V542H383.614ZM386.526 535V542H387.352V535H386.526ZM389.308 545.15V535H390.134V535.532C390.862 535.084 391.627 534.86 392.43 534.86C393.242 534.86 393.844 535.145 394.236 535.714C394.637 536.283 394.838 537.212 394.838 538.5C394.838 539.779 394.604 540.707 394.138 541.286C393.671 541.855 392.896 542.14 391.814 542.14C391.235 542.14 390.675 542.079 390.134 541.958V545.15H389.308ZM392.262 535.616C391.954 535.616 391.622 535.667 391.268 535.77C390.913 535.873 390.638 535.98 390.442 536.092L390.134 536.246V541.23C390.768 541.342 391.319 541.398 391.786 541.398C392.588 541.398 393.153 541.174 393.48 540.726C393.806 540.269 393.97 539.522 393.97 538.486C393.97 537.441 393.825 536.703 393.536 536.274C393.256 535.835 392.831 535.616 392.262 535.616ZM396.342 538.486C396.342 537.17 396.561 536.237 397 535.686C397.448 535.135 398.204 534.86 399.268 534.86C400.341 534.86 401.097 535.135 401.536 535.686C401.984 536.237 402.208 537.17 402.208 538.486C402.208 539.802 402.003 540.74 401.592 541.3C401.191 541.86 400.421 542.14 399.282 542.14C398.143 542.14 397.369 541.86 396.958 541.3C396.547 540.74 396.342 539.802 396.342 538.486ZM397.21 538.458C397.21 539.569 397.336 540.339 397.588 540.768C397.849 541.188 398.409 541.398 399.268 541.398C400.136 541.398 400.701 541.183 400.962 540.754C401.223 540.325 401.354 539.564 401.354 538.472C401.354 537.371 401.205 536.619 400.906 536.218C400.617 535.807 400.075 535.602 399.282 535.602C398.489 535.602 397.943 535.803 397.644 536.204C397.355 536.605 397.21 537.357 397.21 538.458ZM406.486 534.86C406.906 534.86 407.405 534.907 407.984 535L408.306 535.042L408.264 535.756C407.527 535.663 406.981 535.616 406.626 535.616C405.795 535.616 405.226 535.821 404.918 536.232C404.61 536.633 404.456 537.38 404.456 538.472C404.456 539.555 404.596 540.311 404.876 540.74C405.156 541.169 405.739 541.384 406.626 541.384L408.292 541.258L408.32 541.972C407.489 542.084 406.873 542.14 406.472 542.14C405.361 542.14 404.601 541.865 404.19 541.314C403.789 540.763 403.588 539.816 403.588 538.472C403.588 537.128 403.807 536.19 404.246 535.658C404.694 535.126 405.441 534.86 406.486 534.86ZM413.015 545.15V535H413.841V535.532C414.569 535.084 415.334 534.86 416.137 534.86C416.949 534.86 417.551 535.145 417.943 535.714C418.344 536.283 418.545 537.212 418.545 538.5C418.545 539.779 418.312 540.707 417.845 541.286C417.378 541.855 416.604 542.14 415.521 542.14C414.942 542.14 414.382 542.079 413.841 541.958V545.15H413.015ZM415.969 535.616C415.661 535.616 415.33 535.667 414.975 535.77C414.62 535.873 414.345 535.98 414.149 536.092L413.841 536.246V541.23C414.476 541.342 415.026 541.398 415.493 541.398C416.296 541.398 416.86 541.174 417.187 540.726C417.514 540.269 417.677 539.522 417.677 538.486C417.677 537.441 417.532 536.703 417.243 536.274C416.963 535.835 416.538 535.616 415.969 535.616ZM422.989 538.64C423.465 538.64 423.796 538.747 423.983 538.962C424.17 539.167 424.263 539.503 424.263 539.97C424.263 540.437 424.17 540.768 423.983 540.964C423.796 541.16 423.465 541.258 422.989 541.258H421.029V538.64H422.989ZM423.003 542C423.722 542 424.244 541.841 424.571 541.524C424.907 541.207 425.075 540.684 425.075 539.956C425.075 538.584 424.384 537.898 423.003 537.898H421.029V535H420.203V542H423.003ZM425.915 535V542H426.741V535H425.915ZM428.556 535H429.382V538.108H433.26V535H434.086V542H433.26V538.85H429.382V542H428.556V535ZM435.758 538.486C435.758 537.17 435.977 536.237 436.416 535.686C436.864 535.135 437.62 534.86 438.684 534.86C439.757 534.86 440.513 535.135 440.952 535.686C441.4 536.237 441.624 537.17 441.624 538.486C441.624 539.802 441.419 540.74 441.008 541.3C440.607 541.86 439.837 542.14 438.698 542.14C437.559 542.14 436.785 541.86 436.374 541.3C435.963 540.74 435.758 539.802 435.758 538.486ZM436.626 538.458C436.626 539.569 436.752 540.339 437.004 540.768C437.265 541.188 437.825 541.398 438.684 541.398C439.552 541.398 440.117 541.183 440.378 540.754C440.639 540.325 440.77 539.564 440.77 538.472C440.77 537.371 440.621 536.619 440.322 536.218C440.033 535.807 439.491 535.602 438.698 535.602C437.905 535.602 437.359 535.803 437.06 536.204C436.771 536.605 436.626 537.357 436.626 538.458ZM444.121 538.08L445.311 538.052L447.467 535H448.433L446.039 538.374L448.545 542H447.565L445.325 538.794L444.121 538.822V542H443.295V535H444.121V538.08ZM453.636 538.08L454.826 538.052L456.982 535H457.948L455.554 538.374L458.06 542H457.08L454.84 538.794L453.636 538.822V542H452.81V535H453.636V538.08ZM459.39 545.15V535H460.216V535.532C460.944 535.084 461.709 534.86 462.512 534.86C463.324 534.86 463.926 535.145 464.318 535.714C464.719 536.283 464.92 537.212 464.92 538.5C464.92 539.779 464.687 540.707 464.22 541.286C463.753 541.855 462.979 542.14 461.896 542.14C461.317 542.14 460.757 542.079 460.216 541.958V545.15H459.39ZM462.344 535.616C462.036 535.616 461.705 535.667 461.35 535.77C460.995 535.873 460.72 535.98 460.524 536.092L460.216 536.246V541.23C460.851 541.342 461.401 541.398 461.868 541.398C462.671 541.398 463.235 541.174 463.562 540.726C463.889 540.269 464.052 539.522 464.052 538.486C464.052 537.441 463.907 536.703 463.618 536.274C463.338 535.835 462.913 535.616 462.344 535.616ZM471.394 542.014V535.812H471.282L467.894 542.014H466.578V535H467.404V541.146H467.516L470.904 535H472.22V542.014H471.394ZM474.043 535H479.573V542H478.747V535.742H474.869V542H474.043V535ZM480.908 535H486.774V535.742H484.254V542H483.428V535.742H480.908V535ZM487.944 538.486C487.944 537.17 488.163 536.237 488.602 535.686C489.05 535.135 489.806 534.86 490.87 534.86C491.943 534.86 492.699 535.135 493.138 535.686C493.586 536.237 493.81 537.17 493.81 538.486C493.81 539.802 493.604 540.74 493.194 541.3C492.792 541.86 492.022 542.14 490.883 542.14C489.745 542.14 488.97 541.86 488.56 541.3C488.149 540.74 487.944 539.802 487.944 538.486ZM488.812 538.458C488.812 539.569 488.938 540.339 489.19 540.768C489.451 541.188 490.011 541.398 490.87 541.398C491.738 541.398 492.302 541.183 492.564 540.754C492.825 540.325 492.956 539.564 492.956 538.472C492.956 537.371 492.806 536.619 492.508 536.218C492.218 535.807 491.677 535.602 490.883 535.602C490.09 535.602 489.544 535.803 489.245 536.204C488.956 536.605 488.812 537.357 488.812 538.458ZM499.792 538.304C499.876 538.332 499.97 538.383 500.072 538.458C500.184 538.533 500.292 538.631 500.394 538.752C500.646 539.079 500.772 539.485 500.772 539.97C500.772 541.323 499.923 542 498.224 542H495.48V535H498.434C499.881 535 500.604 535.611 500.604 536.834C500.604 537.254 500.53 537.562 500.38 537.758C500.24 537.945 500.114 538.08 500.002 538.164C499.9 538.239 499.83 538.285 499.792 538.304ZM496.306 537.996H498.434C499.302 537.996 499.736 537.604 499.736 536.82C499.736 536.092 499.34 535.728 498.546 535.728H496.306V537.996ZM498.238 541.272C498.854 541.272 499.279 541.174 499.512 540.978C499.746 540.782 499.862 540.46 499.862 540.012C499.862 539.144 499.386 538.71 498.434 538.71H496.306V541.272H498.238ZM507.341 537.086V540.838C507.378 541.183 507.681 541.389 508.251 541.454L508.209 542.126C507.49 542.126 506.963 541.939 506.627 541.566C505.749 541.949 504.872 542.14 503.995 542.14C503.369 542.14 502.893 541.963 502.567 541.608C502.24 541.244 502.077 540.731 502.077 540.068C502.077 539.396 502.24 538.901 502.567 538.584C502.903 538.257 503.425 538.057 504.135 537.982L506.515 537.744V537.086C506.515 536.563 506.398 536.19 506.165 535.966C505.941 535.733 505.637 535.616 505.255 535.616C504.657 535.616 503.883 535.672 502.931 535.784L502.497 535.826L502.455 535.154C503.481 534.958 504.377 534.86 505.143 534.86C505.917 534.86 506.477 535.042 506.823 535.406C507.168 535.77 507.341 536.33 507.341 537.086ZM502.945 540.012C502.945 540.955 503.332 541.426 504.107 541.426C504.443 541.426 504.811 541.389 505.213 541.314C505.614 541.23 505.931 541.146 506.165 541.062L506.515 540.936V538.402L504.233 538.64C503.775 538.677 503.444 538.808 503.239 539.032C503.043 539.256 502.945 539.583 502.945 540.012ZM513.585 542V535.742H510.911C510.827 537.179 510.752 538.178 510.687 538.738C510.622 539.298 510.533 539.877 510.421 540.474C510.318 541.062 510.15 541.473 509.917 541.706C509.684 541.939 509.264 542.061 508.657 542.07V541.356C509.002 541.337 509.24 541.249 509.371 541.09C509.511 540.931 509.618 540.651 509.693 540.25C509.852 539.419 509.968 538.239 510.043 536.708L510.127 535H514.411V542H513.585ZM516.234 535H517.06V538.136H518.572C518.6 536.988 518.829 536.157 519.258 535.644C519.697 535.121 520.402 534.86 521.372 534.86C522.371 534.86 523.085 535.14 523.514 535.7C523.944 536.251 524.158 537.179 524.158 538.486C524.158 539.793 523.962 540.726 523.57 541.286C523.178 541.846 522.46 542.126 521.414 542.126C520.369 542.126 519.646 541.879 519.244 541.384C518.843 540.889 518.624 540.054 518.586 538.878H517.06V542H516.234V535ZM519.44 538.458C519.44 539.559 519.562 540.325 519.804 540.754C520.047 541.183 520.565 541.398 521.358 541.398C522.161 541.398 522.684 541.183 522.926 540.754C523.178 540.325 523.304 539.564 523.304 538.472C523.304 537.371 523.164 536.619 522.884 536.218C522.604 535.807 522.1 535.602 521.372 535.602C520.644 535.602 520.14 535.807 519.86 536.218C519.58 536.619 519.44 537.366 519.44 538.458ZM525.328 535H531.194V535.742H528.674V542H527.848V535.742H525.328V535ZM539.906 538.304C539.99 538.332 540.083 538.383 540.186 538.458C540.298 538.533 540.405 538.631 540.508 538.752C540.76 539.079 540.886 539.485 540.886 539.97C540.886 541.323 540.036 542 538.338 542H535.594V535H538.548C539.994 535 540.718 535.611 540.718 536.834C540.718 537.254 540.643 537.562 540.494 537.758C540.354 537.945 540.228 538.08 540.116 538.164C540.013 538.239 539.943 538.285 539.906 538.304ZM536.42 537.996H538.548C539.416 537.996 539.85 537.604 539.85 536.82C539.85 536.092 539.453 535.728 538.66 535.728H536.42V537.996ZM538.352 541.272C538.968 541.272 539.392 541.174 539.626 540.978C539.859 540.782 539.976 540.46 539.976 540.012C539.976 539.144 539.5 538.71 538.548 538.71H536.42V541.272H538.352ZM551.538 542H545.644V541.272L548.528 538.22C548.995 537.725 549.331 537.357 549.536 537.114C549.751 536.862 549.942 536.559 550.11 536.204C550.287 535.849 550.376 535.49 550.376 535.126C550.376 534.501 550.199 534.057 549.844 533.796C549.499 533.535 548.962 533.404 548.234 533.404C547.618 533.404 546.932 533.488 546.176 533.656L545.798 533.74L545.728 532.998C546.605 532.746 547.506 532.62 548.43 532.62C549.363 532.62 550.068 532.816 550.544 533.208C551.029 533.591 551.272 534.207 551.272 535.056C551.272 535.7 551.127 536.26 550.838 536.736C550.549 537.212 550.063 537.791 549.382 538.472L546.694 541.244H551.538V542ZM553.506 534.552C553.777 533.815 554.141 533.311 554.598 533.04C555.065 532.76 555.62 532.62 556.264 532.62C556.917 532.62 557.44 532.699 557.832 532.858C558.224 533.007 558.565 533.264 558.854 533.628C559.433 534.337 559.722 535.593 559.722 537.394C559.722 539.186 559.442 540.427 558.882 541.118C558.331 541.799 557.505 542.14 556.404 542.14C555.303 542.14 554.477 541.804 553.926 541.132C553.375 540.451 553.1 539.256 553.1 537.548C553.1 536.288 553.235 535.289 553.506 534.552ZM557.776 533.74C557.44 533.507 556.983 533.39 556.404 533.39C555.835 533.39 555.382 533.502 555.046 533.726C554.346 534.202 553.996 535.481 553.996 537.562C553.996 539.009 554.192 540.003 554.584 540.544C554.976 541.085 555.587 541.356 556.418 541.356C556.959 541.356 557.398 541.253 557.734 541.048C558.462 540.6 558.826 539.433 558.826 537.548C558.826 535.495 558.476 534.225 557.776 533.74ZM567.206 542H561.312V541.272L564.196 538.22C564.663 537.725 564.999 537.357 565.204 537.114C565.419 536.862 565.61 536.559 565.778 536.204C565.955 535.849 566.044 535.49 566.044 535.126C566.044 534.501 565.867 534.057 565.512 533.796C565.167 533.535 564.63 533.404 563.902 533.404C563.286 533.404 562.6 533.488 561.844 533.656L561.466 533.74L561.396 532.998C562.273 532.746 563.174 532.62 564.098 532.62C565.031 532.62 565.736 532.816 566.212 533.208C566.697 533.591 566.94 534.207 566.94 535.056C566.94 535.7 566.795 536.26 566.506 536.736C566.217 537.212 565.731 537.791 565.05 538.472L562.362 541.244H567.206V542ZM573.5 532.76V542H572.646V533.712L570.182 535.364L569.776 534.692L572.688 532.76H573.5ZM579.986 535H584.2V535.742H580.812V542H579.986V535ZM585.096 538.486C585.096 537.17 585.315 536.237 585.754 535.686C586.202 535.135 586.958 534.86 588.022 534.86C589.095 534.86 589.851 535.135 590.29 535.686C590.738 536.237 590.962 537.17 590.962 538.486C590.962 539.802 590.757 540.74 590.346 541.3C589.945 541.86 589.175 542.14 588.036 542.14C586.897 542.14 586.123 541.86 585.712 541.3C585.301 540.74 585.096 539.802 585.096 538.486ZM585.964 538.458C585.964 539.569 586.09 540.339 586.342 540.768C586.603 541.188 587.163 541.398 588.022 541.398C588.89 541.398 589.455 541.183 589.716 540.754C589.977 540.325 590.108 539.564 590.108 538.472C590.108 537.371 589.959 536.619 589.66 536.218C589.371 535.807 588.829 535.602 588.036 535.602C587.243 535.602 586.697 535.803 586.398 536.204C586.109 536.605 585.964 537.357 585.964 538.458ZM592.591 541.272C592.843 540.805 593.053 540.273 593.221 539.676C593.389 539.069 593.473 538.407 593.473 537.688V535H597.995V541.272H598.639V543.736H597.827V542.014H592.885V543.736H592.073V541.272H592.591ZM594.271 537.786C594.271 538.505 594.196 539.144 594.047 539.704C593.907 540.264 593.725 540.787 593.501 541.272H597.169V535.742H594.271V537.786ZM600.836 544.422C601.051 544.431 601.209 544.431 601.312 544.422C601.676 544.394 601.961 544.077 602.166 543.47L602.656 542H601.886L599.786 535H600.64L602.502 541.286H602.908L604.91 535H605.736L602.936 543.596C602.684 544.221 602.432 544.641 602.18 544.856C601.937 545.071 601.611 545.178 601.2 545.178C601.051 545.187 600.929 545.178 600.836 545.15V544.422Z" fill="#B6B6DD"/>
<rect x="353.5" y="388.5" width="279" height="190" rx="17.5" stroke="url(#paint7_linear_243_51)" shape-rendering="crispEdges"/>
</g>
<defs>
<filter id="filter0_bd_243_51" x="0" y="0" width="378" height="353" filterUnits="userSpaceOnUse" color-interpolation-filters="sRGB">
<feFlood flood-opacity="0" result="BackgroundImageFix"/>
<feGaussianBlur in="BackgroundImageFix" stdDeviation="10.5"/>
<feComposite in2="SourceAlpha" operator="in" result="effect1_backgroundBlur_243_51"/>
<feColorMatrix in="SourceAlpha" type="matrix" values="0 0 0 0 0 0 0 0 0 0 0 0 0 0 0 0 0 0 127 0" result="hardAlpha"/>
<feOffset dy="4"/>
<feGaussianBlur stdDeviation="24.5"/>
<feComposite in2="hardAlpha" operator="out"/>
<feColorMatrix type="matrix" values="0 0 0 0 0 0 0 0 0 0 0 0 0 0 0 0 0 0 0.3 0"/>
<feBlend mode="normal" in2="effect1_backgroundBlur_243_51" result="effect2_dropShadow_243_51"/>
<feBlend mode="normal" in="SourceGraphic" in2="effect2_dropShadow_243_51" result="shape"/>
</filter>
<filter id="filter1_ii_243_51" x="66" y="111" width="244" height="129" filterUnits="userSpaceOnUse" color-interpolation-filters="sRGB">
<feFlood flood-opacity="0" result="BackgroundImageFix"/>
<feBlend mode="normal" in="SourceGraphic" in2="BackgroundImageFix" result="shape"/>
<feColorMatrix in="SourceAlpha" type="matrix" values="0 0 0 0 0 0 0 0 0 0 0 0 0 0 0 0 0 0 127 0" result="hardAlpha"/>
<feOffset dx="2" dy="2"/>
<feGaussianBlur stdDeviation="2"/>
<feComposite in2="hardAlpha" operator="arithmetic" k2="-1" k3="1"/>
<feColorMatrix type="matrix" values="0 0 0 0 0 0 0 0 0 0 0 0 0 0 0 0 0 0 0.15 0"/>
<feBlend mode="normal" in2="shape" result="effect1_innerShadow_243_51"/>
<feColorMatrix in="SourceAlpha" type="matrix" values="0 0 0 0 0 0 0 0 0 0 0 0 0 0 0 0 0 0 127 0" result="hardAlpha"/>
<feOffset dx="-2" dy="-2"/>
<feGaussianBlur stdDeviation="2"/>
<feComposite in2="hardAlpha" operator="arithmetic" k2="-1" k3="1"/>
<feColorMatrix type="matrix" values="0 0 0 0 1 0 0 0 0 1 0 0 0 0 1 0 0 0 0.15 0"/>
<feBlend mode="normal" in2="effect1_innerShadow_243_51" result="effect2_innerShadow_243_51"/>
</filter>
<filter id="filter2_bd_243_51" x="304" y="64" width="378" height="353" filterUnits="userSpaceOnUse" color-interpolation-filters="sRGB">
<feFlood flood-opacity="0" result="BackgroundImageFix"/>
<feGaussianBlur in="BackgroundImageFix" stdDeviation="10.5"/>
<feComposite in2="SourceAlpha" operator="in" result="effect1_backgroundBlur_243_51"/>
<feColorMatrix in="SourceAlpha" type="matrix" values="0 0 0 0 0 0 0 0 0 0 0 0 0 0 0 0 0 0 127 0" result="hardAlpha"/>
<feOffset dy="4"/>
<feGaussianBlur stdDeviation="24.5"/>
<feComposite in2="hardAlpha" operator="out"/>
<feColorMatrix type="matrix" values="0 0 0 0 0 0 0 0 0 0 0 0 0 0 0 0 0 0 0.3 0"/>
<feBlend mode="normal" in2="effect1_backgroundBlur_243_51" result="effect2_dropShadow_243_51"/>
<feBlend mode="normal" in="SourceGraphic" in2="effect2_dropShadow_243_51" result="shape"/>
</filter>
<filter id="filter3_ii_243_51" x="371" y="194" width="244" height="110" filterUnits="userSpaceOnUse" color-interpolation-filters="sRGB">
<feFlood flood-opacity="0" result="BackgroundImageFix"/>
<feBlend mode="normal" in="SourceGraphic" in2="BackgroundImageFix" result="shape"/>
<feColorMatrix in="SourceAlpha" type="matrix" values="0 0 0 0 0 0 0 0 0 0 0 0 0 0 0 0 0 0 127 0" result="hardAlpha"/>
<feOffset dx="2" dy="2"/>
<feGaussianBlur stdDeviation="2"/>
<feComposite in2="hardAlpha" operator="arithmetic" k2="-1" k3="1"/>
<feColorMatrix type="matrix" values="0 0 0 0 0 0 0 0 0 0 0 0 0 0 0 0 0 0 0.15 0"/>
<feBlend mode="normal" in2="shape" result="effect1_innerShadow_243_51"/>
<feColorMatrix in="SourceAlpha" type="matrix" values="0 0 0 0 0 0 0 0 0 0 0 0 0 0 0 0 0 0 127 0" result="hardAlpha"/>
<feOffset dx="-2" dy="-2"/>
<feGaussianBlur stdDeviation="2"/>
<feComposite in2="hardAlpha" operator="arithmetic" k2="-1" k3="1"/>
<feColorMatrix type="matrix" values="0 0 0 0 1 0 0 0 0 1 0 0 0 0 1 0 0 0 0.15 0"/>
<feBlend mode="normal" in2="effect1_innerShadow_243_51" result="effect2_innerShadow_243_51"/>
</filter>
<filter id="filter4_bd_243_51" x="0" y="279" width="378" height="353" filterUnits="userSpaceOnUse" color-interpolation-filters="sRGB">
<feFlood flood-opacity="0" result="BackgroundImageFix"/>
<feGaussianBlur in="BackgroundImageFix" stdDeviation="10.5"/>
<feComposite in2="SourceAlpha" operator="in" result="effect1_backgroundBlur_243_51"/>
<feColorMatrix in="SourceAlpha" type="matrix" values="0 0 0 0 0 0 0 0 0 0 0 0 0 0 0 0 0 0 127 0" result="hardAlpha"/>
<feOffset dy="4"/>
<feGaussianBlur stdDeviation="24.5"/>
<feComposite in2="hardAlpha" operator="out"/>
<feColorMatrix type="matrix" values="0 0 0 0 0 0 0 0 0 0 0 0 0 0 0 0 0 0 0.3 0"/>
<feBlend mode="normal" in2="effect1_backgroundBlur_243_51" result="effect2_dropShadow_243_51"/>
<feBlend mode="normal" in="SourceGraphic" in2="effect2_dropShadow_243_51" result="shape"/>
</filter>
<filter id="filter5_ii_243_51" x="67" y="408" width="244" height="110" filterUnits="userSpaceOnUse" color-interpolation-filters="sRGB">
<feFlood flood-opacity="0" result="BackgroundImageFix"/>
<feBlend mode="normal" in="SourceGraphic" in2="BackgroundImageFix" result="shape"/>
<feColorMatrix in="SourceAlpha" type="matrix" values="0 0 0 0 0 0 0 0 0 0 0 0 0 0 0 0 0 0 127 0" result="hardAlpha"/>
<feOffset dx="2" dy="2"/>
<feGaussianBlur stdDeviation="2"/>
<feComposite in2="hardAlpha" operator="arithmetic" k2="-1" k3="1"/>
<feColorMatrix type="matrix" values="0 0 0 0 0 0 0 0 0 0 0 0 0 0 0 0 0 0 0.15 0"/>
<feBlend mode="normal" in2="shape" result="effect1_innerShadow_243_51"/>
<feColorMatrix in="SourceAlpha" type="matrix" values="0 0 0 0 0 0 0 0 0 0 0 0 0 0 0 0 0 0 127 0" result="hardAlpha"/>
<feOffset dx="-2" dy="-2"/>
<feGaussianBlur stdDeviation="2"/>
<feComposite in2="hardAlpha" operator="arithmetic" k2="-1" k3="1"/>
<feColorMatrix type="matrix" values="0 0 0 0 1 0 0 0 0 1 0 0 0 0 1 0 0 0 0.15 0"/>
<feBlend mode="normal" in2="effect1_innerShadow_243_51" result="effect2_innerShadow_243_51"/>
</filter>
<filter id="filter6_bd_243_51" x="304" y="343" width="378" height="289" filterUnits="userSpaceOnUse" color-interpolation-filters="sRGB">
<feFlood flood-opacity="0" result="BackgroundImageFix"/>
<feGaussianBlur in="BackgroundImageFix" stdDeviation="10.5"/>
<feComposite in2="SourceAlpha" operator="in" result="effect1_backgroundBlur_243_51"/>
<feColorMatrix in="SourceAlpha" type="matrix" values="0 0 0 0 0 0 0 0 0 0 0 0 0 0 0 0 0 0 127 0" result="hardAlpha"/>
<feOffset dy="4"/>
<feGaussianBlur stdDeviation="24.5"/>
<feComposite in2="hardAlpha" operator="out"/>
<feColorMatrix type="matrix" values="0 0 0 0 0 0 0 0 0 0 0 0 0 0 0 0 0 0 0.3 0"/>
<feBlend mode="normal" in2="effect1_backgroundBlur_243_51" result="effect2_dropShadow_243_51"/>
<feBlend mode="normal" in="SourceGraphic" in2="effect2_dropShadow_243_51" result="shape"/>
</filter>
<filter id="filter7_ii_243_51" x="371" y="406" width="244" height="110" filterUnits="userSpaceOnUse" color-interpolation-filters="sRGB">
<feFlood flood-opacity="0" result="BackgroundImageFix"/>
<feBlend mode="normal" in="SourceGraphic" in2="BackgroundImageFix" result="shape"/>
<feColorMatrix in="SourceAlpha" type="matrix" values="0 0 0 0 0 0 0 0 0 0 0 0 0 0 0 0 0 0 127 0" result="hardAlpha"/>
<feOffset dx="2" dy="2"/>
<feGaussianBlur stdDeviation="2"/>
<feComposite in2="hardAlpha" operator="arithmetic" k2="-1" k3="1"/>
<feColorMatrix type="matrix" values="0 0 0 0 0 0 0 0 0 0 0 0 0 0 0 0 0 0 0.15 0"/>
<feBlend mode="normal" in2="shape" result="effect1_innerShadow_243_51"/>
<feColorMatrix in="SourceAlpha" type="matrix" values="0 0 0 0 0 0 0 0 0 0 0 0 0 0 0 0 0 0 127 0" result="hardAlpha"/>
<feOffset dx="-2" dy="-2"/>
<feGaussianBlur stdDeviation="2"/>
<feComposite in2="hardAlpha" operator="arithmetic" k2="-1" k3="1"/>
<feColorMatrix type="matrix" values="0 0 0 0 1 0 0 0 0 1 0 0 0 0 1 0 0 0 0.15 0"/>
<feBlend mode="normal" in2="effect1_innerShadow_243_51" result="effect2_innerShadow_243_51"/>
</filter>
<radialGradient id="paint0_radial_243_51" cx="0" cy="0" r="1" gradientUnits="userSpaceOnUse" gradientTransform="translate(57.2895 57.8881) rotate(107.293) scale(319.138 350.394)">
<stop stop-color="#656579"/>
<stop offset="1" stop-color="#282839"/>
</radialGradient>
<linearGradient id="paint1_linear_243_51" x1="49" y1="45" x2="328.858" y2="319.476" gradientUnits="userSpaceOnUse">
<stop stop-opacity="0"/>
<stop offset="1" stop-color="white" stop-opacity="0.42"/>
</linearGradient>
<radialGradient id="paint2_radial_243_51" cx="0" cy="0" r="1" gradientUnits="userSpaceOnUse" gradientTransform="translate(361.289 121.888) rotate(107.293) scale(319.138 350.394)">
<stop stop-color="#656579"/>
<stop offset="1" stop-color="#282839"/>
</radialGradient>
<linearGradient id="paint3_linear_243_51" x1="353" y1="109" x2="632.858" y2="383.476" gradientUnits="userSpaceOnUse">
<stop stop-opacity="0"/>
<stop offset="1" stop-color="white" stop-opacity="0.42"/>
</linearGradient>
<radialGradient id="paint4_radial_243_51" cx="0" cy="0" r="1" gradientUnits="userSpaceOnUse" gradientTransform="translate(57.2895 336.888) rotate(107.293) scale(319.138 350.394)">
<stop stop-color="#656579"/>
<stop offset="1" stop-color="#282839"/>
</radialGradient>
<linearGradient id="paint5_linear_243_51" x1="49" y1="324" x2="328.858" y2="598.476" gradientUnits="userSpaceOnUse">
<stop stop-opacity="0"/>
<stop offset="1" stop-color="white" stop-opacity="0.42"/>
</linearGradient>
<radialGradient id="paint6_radial_243_51" cx="0" cy="0" r="1" gradientUnits="userSpaceOnUse" gradientTransform="translate(361.289 397.653) rotate(112.571) scale(247.166 338.875)">
<stop stop-color="#656579"/>
<stop offset="1" stop-color="#282839"/>
</radialGradient>
<linearGradient id="paint7_linear_243_51" x1="353" y1="388" x2="555.265" y2="652.847" gradientUnits="userSpaceOnUse">
<stop stop-opacity="0"/>
<stop offset="1" stop-color="white" stop-opacity="0.42"/>
</linearGradient>
</defs>
</svg>
