<svg width="174" height="51" viewBox="0 0 174 51" fill="none" xmlns="http://www.w3.org/2000/svg">
<g clip-path="url(#clip0_117_1456)">
<path d="M59.125 13.9056C59.9243 14.1916 60.3203 14.815 60.313 15.7756C60.2983 16.487 60.0563 17.0406 59.587 17.4366C59.1177 17.84 58.4797 18.0306 57.673 18.0086C57.255 17.994 56.804 17.9463 56.32 17.8656C56.1513 17.8436 55.9937 17.818 55.847 17.7886C55.7883 17.774 55.737 17.763 55.693 17.7556C55.649 17.7483 55.6197 17.741 55.605 17.7336L55.66 17.0076C55.7187 17.0223 55.8103 17.0406 55.935 17.0626C56.0817 17.092 56.2357 17.1176 56.397 17.1396C56.8517 17.213 57.2367 17.257 57.552 17.2716C58.8207 17.301 59.455 16.7913 59.455 15.7426C59.455 15.244 59.323 14.8883 59.059 14.6756C58.773 14.4556 58.289 14.3456 57.607 14.3456H56.595V13.6086H57.618C58.1387 13.6086 58.5457 13.4766 58.839 13.2126C59.125 12.9486 59.268 12.5783 59.268 12.1016C59.268 11.2876 58.696 10.899 57.552 10.9356C57.3247 10.9356 57.024 10.965 56.65 11.0236C56.254 11.0823 55.935 11.152 55.693 11.2326L55.66 10.5286C56.3053 10.338 56.9763 10.2316 57.673 10.2096C58.3917 10.1803 58.9747 10.327 59.422 10.6496C59.8693 10.987 60.0967 11.4453 60.104 12.0246C60.1187 12.9046 59.7923 13.5316 59.125 13.9056ZM65.5402 14.0926V16.9086C65.5622 17.18 65.7749 17.3413 66.1782 17.3926L66.1452 18.0416C65.5659 18.0416 65.1296 17.895 64.8362 17.6016C64.1762 17.895 63.5162 18.0416 62.8562 18.0416C62.3502 18.0416 61.9652 17.8986 61.7012 17.6126C61.4372 17.3266 61.3052 16.916 61.3052 16.3806C61.3052 15.8453 61.4409 15.453 61.7122 15.2036C61.9836 14.947 62.4089 14.7893 62.9882 14.7306L64.7152 14.5656V14.0926C64.7152 13.7186 64.6346 13.451 64.4732 13.2896C64.3119 13.1283 64.0919 13.0476 63.8132 13.0476C63.2266 13.0476 62.6179 13.0843 61.9872 13.1576L61.6462 13.1906L61.6132 12.5636C62.4199 12.4023 63.1349 12.3216 63.7582 12.3216C64.3816 12.3216 64.8326 12.4646 65.1112 12.7506C65.3972 13.0366 65.5402 13.484 65.5402 14.0926ZM62.1522 16.3366C62.1522 17.0113 62.4309 17.3486 62.9882 17.3486C63.4869 17.3486 63.9782 17.2643 64.4622 17.0956L64.7152 17.0076V15.1926L63.0872 15.3466C62.7572 15.376 62.5189 15.4713 62.3722 15.6326C62.2256 15.794 62.1522 16.0286 62.1522 16.3366ZM67.168 12.4316H70.633V13.1466H67.982V17.9316H67.168V12.4316ZM71.7549 20.3736V12.4316H72.5689V12.8276C73.1262 12.4903 73.6762 12.3216 74.2189 12.3216C74.9156 12.3216 75.4216 12.5453 75.7369 12.9926C76.0522 13.4326 76.2099 14.1623 76.2099 15.1816C76.2099 16.201 76.0229 16.9343 75.6489 17.3816C75.2822 17.8216 74.6699 18.0416 73.8119 18.0416C73.3646 18.0416 72.9539 18.0013 72.5799 17.9206V20.3736H71.7549ZM74.0979 13.0586C73.8779 13.0586 73.6396 13.0953 73.3829 13.1686C73.1336 13.242 72.9356 13.3153 72.7889 13.3886L72.5799 13.4986V17.2056C73.1006 17.2863 73.4966 17.3266 73.7679 17.3266C74.3619 17.3266 74.7762 17.158 75.0109 16.8206C75.2529 16.4833 75.3739 15.9333 75.3739 15.1706C75.3739 14.408 75.2639 13.8653 75.0439 13.5426C74.8312 13.22 74.5159 13.0586 74.0979 13.0586ZM77.8857 19.6916C78.069 19.699 78.2083 19.699 78.3037 19.6916C78.5823 19.6696 78.795 19.4386 78.9417 18.9986L79.2937 17.9316H78.7107L77.0387 12.4316H77.8747L79.2827 17.2056H79.5467L81.0647 12.4316H81.8677L79.6457 19.2076C79.455 19.677 79.2607 19.996 79.0627 20.1646C78.872 20.3333 78.6557 20.4176 78.4137 20.4176C78.179 20.4176 78.003 20.403 77.8857 20.3736V19.6916ZM84.1255 14.8296C84.5215 14.8296 84.8515 14.7563 85.1155 14.6096C85.4162 14.4483 85.5665 14.2136 85.5665 13.9056C85.5665 13.5976 85.4638 13.3813 85.2585 13.2566C85.0532 13.132 84.7085 13.066 84.2245 13.0586C83.7405 13.0513 83.2198 13.1136 82.6625 13.2456L82.6295 12.5856C82.7175 12.5636 82.8055 12.5453 82.8935 12.5306C82.9815 12.5086 83.1575 12.4756 83.4215 12.4316C83.6928 12.3803 84.0082 12.3546 84.3675 12.3546C85.6802 12.3546 86.3402 12.8533 86.3475 13.8506C86.3622 14.4153 86.1458 14.826 85.6985 15.0826C85.9918 15.2073 86.2045 15.3686 86.3365 15.5666C86.4685 15.7646 86.5345 16.0433 86.5345 16.4026C86.5345 17.5173 85.7828 18.0563 84.2795 18.0196C83.6195 18.005 83.0548 17.939 82.5855 17.8216L82.6295 17.1286C82.9668 17.1946 83.2345 17.2423 83.4325 17.2716C83.6305 17.301 83.9458 17.3156 84.3785 17.3156C84.8112 17.3156 85.1448 17.2496 85.3795 17.1176C85.6142 16.9856 85.7315 16.7436 85.7315 16.3916C85.7315 16.0323 85.5848 15.783 85.2915 15.6436C85.0422 15.5263 84.6535 15.4676 84.1255 15.4676H83.4655V14.8296H84.1255ZM91.6409 17.9426V13.3116H91.5529L89.0999 17.9426H87.8789V12.4316H88.6929V17.0076H88.7809L91.2339 12.4316H92.4439V17.9426H91.6409ZM93.5614 12.4316H98.2254V13.1356H96.3004V17.9316H95.4864V13.1356H93.5614V12.4316ZM103.092 17.2496L103.411 17.2166L103.433 17.8656C102.597 17.983 101.882 18.0416 101.288 18.0416C100.496 18.0416 99.9346 17.8143 99.6046 17.3596C99.2746 16.8976 99.1096 16.1826 99.1096 15.2146C99.1096 13.286 99.8759 12.3216 101.409 12.3216C102.149 12.3216 102.703 12.5306 103.07 12.9486C103.436 13.3593 103.62 14.0083 103.62 14.8956L103.576 15.5226H99.9456C99.9456 16.1313 100.056 16.5823 100.276 16.8756C100.496 17.169 100.877 17.3156 101.42 17.3156C101.97 17.3156 102.527 17.2936 103.092 17.2496ZM102.795 14.8626C102.795 14.188 102.685 13.7113 102.465 13.4326C102.252 13.154 101.9 13.0146 101.409 13.0146C100.925 13.0146 100.558 13.1613 100.309 13.4546C100.067 13.748 99.9419 14.2173 99.9346 14.8626H102.795ZM110.721 16.3476C110.729 16.663 110.644 16.894 110.468 17.0406C110.3 17.18 109.995 17.2496 109.555 17.2496H108.136V15.4236H109.676C110.366 15.4236 110.714 15.7316 110.721 16.3476ZM110.622 13.9386C110.622 14.4813 110.303 14.7526 109.665 14.7526H108.136V13.1246H109.731C110.325 13.1246 110.622 13.396 110.622 13.9386ZM109.544 17.9316C110.908 17.9316 111.59 17.4036 111.59 16.3476C111.59 16.0836 111.528 15.8233 111.403 15.5666C111.279 15.3026 111.084 15.123 110.82 15.0276C110.908 14.991 110.985 14.9433 111.051 14.8846C111.117 14.8186 111.18 14.749 111.238 14.6756C111.392 14.4483 111.466 14.1733 111.458 13.8506C111.451 12.9046 110.868 12.4316 109.709 12.4316H107.322V17.9316H109.544Z" fill="white"/>
<path d="M55.4 39.9316L58.78 26.2316H63.2L66.6 39.9316H64.36L63.62 36.9916H58.36L57.62 39.9316H55.4ZM60.5 28.0916L58.8 35.0316H63.18L61.5 28.0916H60.5ZM68.2927 44.2316V29.9316H70.4527V30.5516C71.3727 29.9916 72.2327 29.7116 73.0327 29.7116C74.3527 29.7116 75.3193 30.1183 75.9327 30.9316C76.546 31.7316 76.8527 33.085 76.8527 34.9916C76.8527 36.885 76.4993 38.2183 75.7927 38.9916C75.0993 39.765 73.9593 40.1516 72.3727 40.1516C71.826 40.1516 71.1927 40.0916 70.4727 39.9716V44.2316H68.2927ZM72.6527 31.6516C72.026 31.6516 71.3993 31.7916 70.7727 32.0716L70.4727 32.2116V38.1116C71.006 38.2183 71.5927 38.2716 72.2327 38.2716C73.1393 38.2716 73.766 38.0116 74.1127 37.4916C74.4593 36.9716 74.6327 36.085 74.6327 34.8316C74.6327 32.7116 73.9727 31.6516 72.6527 31.6516ZM79.0348 44.2316V29.9316H81.1948V30.5516C82.1148 29.9916 82.9748 29.7116 83.7748 29.7116C85.0948 29.7116 86.0615 30.1183 86.6748 30.9316C87.2882 31.7316 87.5948 33.085 87.5948 34.9916C87.5948 36.885 87.2415 38.2183 86.5348 38.9916C85.8415 39.765 84.7015 40.1516 83.1148 40.1516C82.5682 40.1516 81.9348 40.0916 81.2148 39.9716V44.2316H79.0348ZM83.3948 31.6516C82.7682 31.6516 82.1415 31.7916 81.5148 32.0716L81.2148 32.2116V38.1116C81.7482 38.2183 82.3348 38.2716 82.9748 38.2716C83.8815 38.2716 84.5082 38.0116 84.8548 37.4916C85.2015 36.9716 85.3748 36.085 85.3748 34.8316C85.3748 32.7116 84.7148 31.6516 83.3948 31.6516ZM98.4516 27.9516C96.7582 27.9516 95.9116 28.545 95.9116 29.7316C95.9116 30.345 96.1116 30.785 96.5116 31.0516C96.9116 31.305 97.7916 31.625 99.1516 32.0116C100.525 32.385 101.492 32.8383 102.052 33.3716C102.612 33.8916 102.892 34.7183 102.892 35.8516C102.892 37.2916 102.478 38.3716 101.652 39.0916C100.838 39.7983 99.7249 40.1516 98.3116 40.1516C97.1782 40.1516 95.9249 40.0183 94.5516 39.7516L93.8316 39.6116L94.0516 37.8316C95.8516 38.0716 97.2249 38.1916 98.1716 38.1916C99.8249 38.1916 100.652 37.4583 100.652 35.9916C100.652 35.4183 100.465 34.9983 100.092 34.7316C99.7182 34.4516 98.8782 34.1516 97.5716 33.8316C96.2649 33.4983 95.2916 33.045 94.6516 32.4716C94.0116 31.8983 93.6916 30.9916 93.6916 29.7516C93.6916 28.5116 94.0916 27.5783 94.8916 26.9516C95.7049 26.3116 96.8249 25.9916 98.2516 25.9916C99.2782 25.9916 100.492 26.1116 101.892 26.3516L102.592 26.4716L102.412 28.2716C100.545 28.0583 99.2249 27.9516 98.4516 27.9516ZM110.274 31.7916H107.514V36.1916C107.514 37.005 107.574 37.545 107.694 37.8116C107.814 38.0783 108.121 38.2116 108.614 38.2116L110.254 38.1516L110.354 39.8916C109.461 40.065 108.781 40.1516 108.314 40.1516C107.181 40.1516 106.401 39.8916 105.974 39.3716C105.561 38.8516 105.354 37.8716 105.354 36.4316V31.7916H104.074V29.9316H105.354V27.0316H107.514V29.9316H110.274V31.7916ZM112.602 31.0116C113.296 30.145 114.442 29.7116 116.042 29.7116C117.642 29.7116 118.782 30.145 119.462 31.0116C120.156 31.8783 120.502 33.1783 120.502 34.9116C120.502 36.645 120.169 37.9516 119.502 38.8316C118.836 39.7116 117.682 40.1516 116.042 40.1516C114.402 40.1516 113.249 39.7116 112.582 38.8316C111.916 37.9516 111.582 36.645 111.582 34.9116C111.582 33.1783 111.922 31.8783 112.602 31.0116ZM114.242 37.5116C114.549 38.045 115.149 38.3116 116.042 38.3116C116.936 38.3116 117.536 38.045 117.842 37.5116C118.149 36.9783 118.302 36.105 118.302 34.8916C118.302 33.6783 118.136 32.8183 117.802 32.3116C117.482 31.805 116.896 31.5516 116.042 31.5516C115.189 31.5516 114.596 31.805 114.262 32.3116C113.942 32.8183 113.782 33.6783 113.782 34.8916C113.782 36.105 113.936 36.9783 114.242 37.5116ZM122.668 39.9316V29.9316H124.828V31.1316C125.961 30.3983 127.094 29.925 128.228 29.7116V31.8916C127.081 32.1183 126.101 32.4116 125.288 32.7716L124.848 32.9516V39.9316H122.668ZM136.936 38.1316L137.496 38.0716L137.536 39.6916C136.016 39.9983 134.669 40.1516 133.496 40.1516C132.016 40.1516 130.949 39.745 130.296 38.9316C129.656 38.1183 129.336 36.8183 129.336 35.0316C129.336 31.485 130.783 29.7116 133.676 29.7116C136.476 29.7116 137.876 31.2383 137.876 34.2916L137.736 35.8516H131.536C131.549 36.6783 131.729 37.285 132.076 37.6716C132.423 38.0583 133.069 38.2516 134.016 38.2516C134.963 38.2516 135.936 38.2116 136.936 38.1316ZM135.736 34.1716C135.736 33.185 135.576 32.4983 135.256 32.1116C134.949 31.7116 134.423 31.5116 133.676 31.5116C132.929 31.5116 132.383 31.7183 132.036 32.1316C131.703 32.545 131.529 33.225 131.516 34.1716H135.736Z" fill="white"/>
<path d="M35.5389 32.1935C35.1439 33.1019 34.6764 33.938 34.1347 34.7068C33.3963 35.7548 32.7917 36.4802 32.3258 36.883C31.6036 37.5442 30.8297 37.8829 30.001 37.9021C29.4061 37.9021 28.6887 37.7336 27.8536 37.3918C27.0157 37.0515 26.2457 36.883 25.5417 36.883C24.8033 36.883 24.0114 37.0515 23.1644 37.3918C22.316 37.7336 21.6326 37.9118 21.1101 37.9294C20.3155 37.9631 19.5234 37.6148 18.7328 36.883C18.2281 36.4449 17.597 35.6938 16.8408 34.6298C16.0296 33.4935 15.3626 32.1759 14.8401 30.6737C14.2805 29.0512 14 27.48 14 25.9589C14 24.2164 14.3782 22.7136 15.1358 21.4543C15.7312 20.4427 16.5232 19.6448 17.5146 19.059C18.5059 18.4732 19.5771 18.1747 20.7306 18.1556C21.3618 18.1556 22.1895 18.3499 23.218 18.7319C24.2437 19.1152 24.9023 19.3095 25.191 19.3095C25.4069 19.3095 26.1385 19.0822 27.3788 18.6292C28.5517 18.209 29.5415 18.035 30.3525 18.1036C32.5499 18.2801 34.2008 19.1424 35.2987 20.696C33.3334 21.8813 32.3613 23.5416 32.3806 25.6714C32.3984 27.3304 33.0029 28.7109 34.1911 29.8071C34.7296 30.3158 35.3309 30.709 36 30.9883C35.8549 31.4071 35.7017 31.8084 35.5389 32.1935V32.1935ZM30.4992 12.4518C30.4992 13.7521 30.022 14.9662 29.0708 16.0899C27.9229 17.4258 26.5345 18.1978 25.0289 18.076C25.0087 17.9125 24.9986 17.748 24.9985 17.5833C24.9985 16.335 25.5444 14.9991 26.5139 13.9068C26.9978 13.3537 27.6134 12.8939 28.3598 12.5271C29.1046 12.1657 29.8092 11.9659 30.4718 11.9316C30.4912 12.1055 30.4992 12.2793 30.4992 12.4518V12.4518Z" fill="white"/>
</g>
<rect x="0.5" y="1.43164" width="173" height="48.752" rx="5.5" stroke="white"/>
<defs>
<clipPath id="clip0_117_1456">
<rect y="0.931641" width="174" height="49.752" rx="6" fill="white"/>
</clipPath>
</defs>
</svg>
