<svg width="174" height="51" viewBox="0 0 174 51" fill="none" xmlns="http://www.w3.org/2000/svg">
<path d="M59.125 13.5536C59.9243 13.8396 60.3203 14.4629 60.313 15.4236C60.2983 16.1349 60.0563 16.6886 59.587 17.0846C59.1177 17.4879 58.4797 17.6786 57.673 17.6566C57.255 17.6419 56.804 17.5943 56.32 17.5136C56.1513 17.4916 55.9937 17.4659 55.847 17.4366C55.7883 17.4219 55.737 17.4109 55.693 17.4036C55.649 17.3963 55.6197 17.3889 55.605 17.3816L55.66 16.6556C55.7187 16.6703 55.8103 16.6886 55.935 16.7106C56.0817 16.7399 56.2357 16.7656 56.397 16.7876C56.8517 16.8609 57.2367 16.9049 57.552 16.9196C58.8207 16.9489 59.455 16.4393 59.455 15.3906C59.455 14.8919 59.323 14.5363 59.059 14.3236C58.773 14.1036 58.289 13.9936 57.607 13.9936H56.595V13.2566H57.618C58.1387 13.2566 58.5457 13.1246 58.839 12.8606C59.125 12.5966 59.268 12.2263 59.268 11.7496C59.268 10.9356 58.696 10.5469 57.552 10.5836C57.3247 10.5836 57.024 10.6129 56.65 10.6716C56.254 10.7303 55.935 10.7999 55.693 10.8806L55.66 10.1766C56.3053 9.98592 56.9763 9.87959 57.673 9.85759C58.3917 9.82826 58.9747 9.97492 59.422 10.2976C59.8693 10.6349 60.0967 11.0933 60.104 11.6726C60.1187 12.5526 59.7923 13.1796 59.125 13.5536ZM65.5402 13.7406V16.5566C65.5622 16.8279 65.7749 16.9893 66.1782 17.0406L66.1452 17.6896C65.5659 17.6896 65.1296 17.5429 64.8362 17.2496C64.1762 17.5429 63.5162 17.6896 62.8562 17.6896C62.3502 17.6896 61.9652 17.5466 61.7012 17.2606C61.4372 16.9746 61.3052 16.5639 61.3052 16.0286C61.3052 15.4933 61.4409 15.1009 61.7122 14.8516C61.9836 14.5949 62.4089 14.4373 62.9882 14.3786L64.7152 14.2136V13.7406C64.7152 13.3666 64.6346 13.0989 64.4732 12.9376C64.3119 12.7763 64.0919 12.6956 63.8132 12.6956C63.2266 12.6956 62.6179 12.7323 61.9872 12.8056L61.6462 12.8386L61.6132 12.2116C62.4199 12.0503 63.1349 11.9696 63.7582 11.9696C64.3816 11.9696 64.8326 12.1126 65.1112 12.3986C65.3972 12.6846 65.5402 13.1319 65.5402 13.7406ZM62.1522 15.9846C62.1522 16.6593 62.4309 16.9966 62.9882 16.9966C63.4869 16.9966 63.9782 16.9123 64.4622 16.7436L64.7152 16.6556V14.8406L63.0872 14.9946C62.7572 15.0239 62.5189 15.1193 62.3722 15.2806C62.2256 15.4419 62.1522 15.6766 62.1522 15.9846ZM67.168 12.0796H70.633V12.7946H67.982V17.5796H67.168V12.0796ZM71.7549 20.0216V12.0796H72.5689V12.4756C73.1262 12.1383 73.6762 11.9696 74.2189 11.9696C74.9156 11.9696 75.4216 12.1933 75.7369 12.6406C76.0522 13.0806 76.2099 13.8103 76.2099 14.8296C76.2099 15.8489 76.0229 16.5823 75.6489 17.0296C75.2822 17.4696 74.6699 17.6896 73.8119 17.6896C73.3646 17.6896 72.9539 17.6493 72.5799 17.5686V20.0216H71.7549ZM74.0979 12.7066C73.8779 12.7066 73.6396 12.7433 73.3829 12.8166C73.1336 12.8899 72.9356 12.9633 72.7889 13.0366L72.5799 13.1466V16.8536C73.1006 16.9343 73.4966 16.9746 73.7679 16.9746C74.3619 16.9746 74.7762 16.8059 75.0109 16.4686C75.2529 16.1313 75.3739 15.5813 75.3739 14.8186C75.3739 14.0559 75.2639 13.5133 75.0439 13.1906C74.8312 12.8679 74.5159 12.7066 74.0979 12.7066ZM77.8857 19.3396C78.069 19.3469 78.2083 19.3469 78.3037 19.3396C78.5823 19.3176 78.795 19.0866 78.9417 18.6466L79.2937 17.5796H78.7107L77.0387 12.0796H77.8747L79.2827 16.8536H79.5467L81.0647 12.0796H81.8677L79.6457 18.8556C79.455 19.3249 79.2607 19.6439 79.0627 19.8126C78.872 19.9813 78.6557 20.0656 78.4137 20.0656C78.179 20.0656 78.003 20.0509 77.8857 20.0216V19.3396ZM84.1255 14.4776C84.5215 14.4776 84.8515 14.4043 85.1155 14.2576C85.4162 14.0963 85.5665 13.8616 85.5665 13.5536C85.5665 13.2456 85.4638 13.0293 85.2585 12.9046C85.0532 12.7799 84.7085 12.7139 84.2245 12.7066C83.7405 12.6993 83.2198 12.7616 82.6625 12.8936L82.6295 12.2336C82.7175 12.2116 82.8055 12.1933 82.8935 12.1786C82.9815 12.1566 83.1575 12.1236 83.4215 12.0796C83.6928 12.0283 84.0082 12.0026 84.3675 12.0026C85.6802 12.0026 86.3402 12.5013 86.3475 13.4986C86.3622 14.0633 86.1458 14.4739 85.6985 14.7306C85.9918 14.8553 86.2045 15.0166 86.3365 15.2146C86.4685 15.4126 86.5345 15.6913 86.5345 16.0506C86.5345 17.1653 85.7828 17.7043 84.2795 17.6676C83.6195 17.6529 83.0548 17.5869 82.5855 17.4696L82.6295 16.7766C82.9668 16.8426 83.2345 16.8903 83.4325 16.9196C83.6305 16.9489 83.9458 16.9636 84.3785 16.9636C84.8112 16.9636 85.1448 16.8976 85.3795 16.7656C85.6142 16.6336 85.7315 16.3916 85.7315 16.0396C85.7315 15.6803 85.5848 15.4309 85.2915 15.2916C85.0422 15.1743 84.6535 15.1156 84.1255 15.1156H83.4655V14.4776H84.1255ZM91.6409 17.5906V12.9596H91.5529L89.0999 17.5906H87.8789V12.0796H88.6929V16.6556H88.7809L91.2339 12.0796H92.4439V17.5906H91.6409ZM93.5614 12.0796H98.2254V12.7836H96.3004V17.5796H95.4864V12.7836H93.5614V12.0796ZM103.092 16.8976L103.411 16.8646L103.433 17.5136C102.597 17.6309 101.882 17.6896 101.288 17.6896C100.496 17.6896 99.9346 17.4623 99.6046 17.0076C99.2746 16.5456 99.1096 15.8306 99.1096 14.8626C99.1096 12.9339 99.8759 11.9696 101.409 11.9696C102.149 11.9696 102.703 12.1786 103.07 12.5966C103.436 13.0073 103.62 13.6563 103.62 14.5436L103.576 15.1706H99.9456C99.9456 15.7793 100.056 16.2303 100.276 16.5236C100.496 16.8169 100.877 16.9636 101.42 16.9636C101.97 16.9636 102.527 16.9416 103.092 16.8976ZM102.795 14.5106C102.795 13.8359 102.685 13.3593 102.465 13.0806C102.252 12.8019 101.9 12.6626 101.409 12.6626C100.925 12.6626 100.558 12.8093 100.309 13.1026C100.067 13.3959 99.9419 13.8653 99.9346 14.5106H102.795ZM110.721 15.9956C110.729 16.3109 110.644 16.5419 110.468 16.6886C110.3 16.8279 109.995 16.8976 109.555 16.8976H108.136V15.0716H109.676C110.366 15.0716 110.714 15.3796 110.721 15.9956ZM110.622 13.5866C110.622 14.1293 110.303 14.4006 109.665 14.4006H108.136V12.7726H109.731C110.325 12.7726 110.622 13.0439 110.622 13.5866ZM109.544 17.5796C110.908 17.5796 111.59 17.0516 111.59 15.9956C111.59 15.7316 111.528 15.4713 111.403 15.2146C111.279 14.9506 111.084 14.7709 110.82 14.6756C110.908 14.6389 110.985 14.5913 111.051 14.5326C111.117 14.4666 111.18 14.3969 111.238 14.3236C111.392 14.0963 111.466 13.8213 111.458 13.4986C111.451 12.5526 110.868 12.0796 109.709 12.0796H107.322V17.5796H109.544Z" fill="white"/>
<path d="M62.16 34.3396V32.3796H66.06V39.3396C65.7 39.4329 64.9667 39.5329 63.86 39.6396C62.7667 39.7463 61.9733 39.7996 61.48 39.7996C59.4 39.7996 57.9667 39.2263 57.18 38.0796C56.3933 36.9329 56 35.1396 56 32.6996C56 30.2463 56.4 28.4596 57.2 27.3396C58.0133 26.2196 59.4133 25.6596 61.4 25.6596C62.5733 25.6596 63.8933 25.7929 65.36 26.0596L66.06 26.1996L65.98 27.9596C64.3667 27.7463 62.92 27.6396 61.64 27.6396C60.36 27.6396 59.48 27.9996 59 28.7196C58.5333 29.4396 58.3 30.7729 58.3 32.7196C58.3 34.6663 58.52 36.0129 58.96 36.7596C59.4133 37.4929 60.32 37.8596 61.68 37.8596C62.6533 37.8596 63.38 37.7996 63.86 37.6796V34.3396H62.16ZM69.1256 30.6596C69.819 29.7929 70.9656 29.3596 72.5656 29.3596C74.1656 29.3596 75.3056 29.7929 75.9856 30.6596C76.679 31.5263 77.0256 32.8263 77.0256 34.5596C77.0256 36.2929 76.6923 37.5996 76.0256 38.4796C75.359 39.3596 74.2056 39.7996 72.5656 39.7996C70.9256 39.7996 69.7723 39.3596 69.1056 38.4796C68.439 37.5996 68.1056 36.2929 68.1056 34.5596C68.1056 32.8263 68.4456 31.5263 69.1256 30.6596ZM70.7656 37.1596C71.0723 37.6929 71.6723 37.9596 72.5656 37.9596C73.459 37.9596 74.059 37.6929 74.3656 37.1596C74.6723 36.6263 74.8256 35.7529 74.8256 34.5396C74.8256 33.3263 74.659 32.4663 74.3256 31.9596C74.0056 31.4529 73.419 31.1996 72.5656 31.1996C71.7123 31.1996 71.119 31.4529 70.7856 31.9596C70.4656 32.4663 70.3056 33.3263 70.3056 34.5396C70.3056 35.7529 70.459 36.6263 70.7656 37.1596ZM79.7311 30.6596C80.4244 29.7929 81.5711 29.3596 83.1711 29.3596C84.7711 29.3596 85.9111 29.7929 86.5911 30.6596C87.2844 31.5263 87.6311 32.8263 87.6311 34.5596C87.6311 36.2929 87.2978 37.5996 86.6311 38.4796C85.9644 39.3596 84.8111 39.7996 83.1711 39.7996C81.5311 39.7996 80.3778 39.3596 79.7111 38.4796C79.0444 37.5996 78.7111 36.2929 78.7111 34.5596C78.7111 32.8263 79.0511 31.5263 79.7311 30.6596ZM81.3711 37.1596C81.6778 37.6929 82.2778 37.9596 83.1711 37.9596C84.0644 37.9596 84.6644 37.6929 84.9711 37.1596C85.2778 36.6263 85.4311 35.7529 85.4311 34.5396C85.4311 33.3263 85.2644 32.4663 84.9311 31.9596C84.6111 31.4529 84.0244 31.1996 83.1711 31.1996C82.3178 31.1996 81.7244 31.4529 81.3911 31.9596C81.0711 32.4663 80.9111 33.3263 80.9111 34.5396C80.9111 35.7529 81.0644 36.6263 81.3711 37.1596ZM98.5366 40.9396C98.5366 43.1263 96.9566 44.2196 93.7966 44.2196C92.2766 44.2196 91.1499 44.0129 90.4166 43.5996C89.6832 43.1863 89.3166 42.4329 89.3166 41.3396C89.3166 40.8463 89.4366 40.4196 89.6766 40.0596C89.9166 39.7129 90.3032 39.3329 90.8366 38.9196C90.3966 38.6263 90.1766 38.1396 90.1766 37.4596C90.1766 37.1929 90.3566 36.7596 90.7166 36.1596L90.8966 35.8596C89.9366 35.2863 89.4566 34.2863 89.4566 32.8596C89.4566 31.6596 89.8166 30.7796 90.5366 30.2196C91.2566 29.6596 92.2299 29.3796 93.4566 29.3796C94.0432 29.3796 94.6232 29.4463 95.1966 29.5796L95.4966 29.6396L98.5966 29.5596V31.3196L96.9366 31.2196C97.2966 31.6863 97.4766 32.2329 97.4766 32.8596C97.4766 34.1663 97.1432 35.0729 96.4766 35.5796C95.8232 36.0729 94.7966 36.3196 93.3966 36.3196C93.0499 36.3196 92.7566 36.2929 92.5166 36.2396C92.3299 36.6929 92.2366 37.0463 92.2366 37.2996C92.2366 37.5396 92.3566 37.7063 92.5966 37.7996C92.8499 37.8929 93.4499 37.9463 94.3966 37.9596C95.9832 37.9729 97.0699 38.1863 97.6566 38.5996C98.2432 39.0129 98.5366 39.7929 98.5366 40.9396ZM91.4566 41.1396C91.4566 41.6063 91.6432 41.9396 92.0166 42.1396C92.3899 42.3396 93.0299 42.4396 93.9366 42.4396C95.5499 42.4396 96.3566 41.9796 96.3566 41.0596C96.3566 40.5396 96.2099 40.2063 95.9166 40.0596C95.6366 39.9263 95.0699 39.8529 94.2166 39.8396L92.2566 39.7196C91.9632 39.9596 91.7566 40.1796 91.6366 40.3796C91.5166 40.5929 91.4566 40.8463 91.4566 41.1396ZM91.6166 32.8596C91.6166 33.4729 91.7632 33.9263 92.0566 34.2196C92.3499 34.4996 92.8232 34.6396 93.4766 34.6396C94.1299 34.6396 94.5966 34.4996 94.8766 34.2196C95.1699 33.9263 95.3166 33.4729 95.3166 32.8596C95.3166 32.2463 95.1699 31.7996 94.8766 31.5196C94.5832 31.2263 94.1099 31.0796 93.4566 31.0796C92.2299 31.0796 91.6166 31.6729 91.6166 32.8596ZM100.424 39.5796V25.4196H102.604V39.5796H100.424ZM112.483 37.7796L113.043 37.7196L113.083 39.3396C111.563 39.6463 110.216 39.7996 109.043 39.7996C107.563 39.7996 106.496 39.3929 105.843 38.5796C105.203 37.7663 104.883 36.4663 104.883 34.6796C104.883 31.1329 106.33 29.3596 109.223 29.3596C112.023 29.3596 113.423 30.8863 113.423 33.9396L113.283 35.4996H107.083C107.096 36.3263 107.276 36.9329 107.623 37.3196C107.97 37.7063 108.616 37.8996 109.563 37.8996C110.51 37.8996 111.483 37.8596 112.483 37.7796ZM111.283 33.8196C111.283 32.8329 111.123 32.1463 110.803 31.7596C110.496 31.3596 109.97 31.1596 109.223 31.1596C108.476 31.1596 107.93 31.3663 107.583 31.7796C107.25 32.1929 107.076 32.8729 107.063 33.8196H111.283ZM125.194 35.3196H122.394V39.5796H120.174V25.8796H125.194C128.3 25.8796 129.854 27.4129 129.854 30.4796C129.854 32.0529 129.46 33.2529 128.674 34.0796C127.9 34.9063 126.74 35.3196 125.194 35.3196ZM122.394 33.3996H125.174C126.774 33.3996 127.574 32.4263 127.574 30.4796C127.574 29.5463 127.38 28.8663 126.994 28.4396C126.607 28.0129 126 27.7996 125.174 27.7996H122.394V33.3996ZM131.85 39.5796V25.4196H134.03V39.5796H131.85ZM144.189 32.6596V37.2196C144.202 37.5129 144.275 37.7329 144.409 37.8796C144.555 38.0129 144.775 38.0996 145.069 38.1396L145.009 39.7996C143.862 39.7996 142.975 39.5529 142.349 39.0596C141.282 39.5529 140.209 39.7996 139.129 39.7996C137.142 39.7996 136.149 38.7396 136.149 36.6196C136.149 35.6063 136.415 34.8729 136.949 34.4196C137.495 33.9663 138.329 33.6929 139.449 33.5996L142.029 33.3796V32.6596C142.029 32.1263 141.909 31.7529 141.669 31.5396C141.442 31.3263 141.102 31.2196 140.649 31.2196C139.795 31.2196 138.729 31.2729 137.449 31.3796L136.809 31.4196L136.729 29.8796C138.182 29.5329 139.515 29.3596 140.729 29.3596C141.955 29.3596 142.835 29.6263 143.369 30.1596C143.915 30.6796 144.189 31.5129 144.189 32.6596ZM139.709 35.1396C138.789 35.2196 138.329 35.7196 138.329 36.6396C138.329 37.5596 138.735 38.0196 139.549 38.0196C140.215 38.0196 140.922 37.9129 141.669 37.6996L142.029 37.5796V34.9196L139.709 35.1396ZM145.888 29.5796H148.028L150.148 37.7196H150.688L152.808 29.5796H154.968L151.168 43.8796H149.028L150.228 39.5796H148.508L145.888 29.5796Z" fill="white"/>
<g clip-path="url(#clip0_117_1457)">
<path d="M30.2483 24.9958L19.9028 14.1903L33.0653 22.0614L30.2483 24.9958ZM17.2035 13.5552C16.5938 13.8872 16.1865 14.4927 16.1865 15.2786V36.8263C16.1865 37.6122 16.5945 38.2177 17.2035 38.5497L29.232 26.0497L17.2035 13.5552ZM37.134 24.5708L34.3733 22.906L31.2938 26.0552L34.3733 29.2044L37.1903 27.5395C38.034 26.8419 38.034 25.2692 37.134 24.5708ZM19.9035 37.9208L33.066 30.0497L30.249 27.1153L19.9035 37.9208Z" fill="white"/>
</g>
<rect x="0.5" y="1.07959" width="173" height="48.752" rx="5.5" stroke="white"/>
<defs>
<clipPath id="clip0_117_1457">
<rect width="24" height="25" fill="white" transform="translate(15 13.5552)"/>
</clipPath>
</defs>
</svg>
