<svg width="142" height="142" viewBox="0 0 142 142" fill="none" xmlns="http://www.w3.org/2000/svg">
<g filter="url(#filter0_d_22_118)">
<rect x="40" y="36" width="62" height="62" rx="31" fill="#9949FF"/>
<path d="M64.28 72.5201V62.6001H58.2C56.44 62.6001 55 64.0401 55 65.8001V75.4001C55 77.1601 56.44 78.6001 58.2 78.6001H59.8V83.4001L64.6 78.6001H72.6C74.36 78.6001 75.8 77.1601 75.8 75.4001V72.4881C75.6948 72.5107 75.5876 72.5219 75.48 72.5217H64.28V72.5201V72.5201ZM83.8 54.6001H69.4C67.64 54.6001 66.2 56.0401 66.2 57.8001V70.6001H77.4L82.2 75.4001V70.6001H83.8C85.56 70.6001 87 69.1617 87 67.4001V57.8001C87 56.0401 85.56 54.6001 83.8 54.6001Z" fill="white"/>
</g>
<defs>
<filter id="filter0_d_22_118" x="0" y="0" width="142" height="142" filterUnits="userSpaceOnUse" color-interpolation-filters="sRGB">
<feFlood flood-opacity="0" result="BackgroundImageFix"/>
<feColorMatrix in="SourceAlpha" type="matrix" values="0 0 0 0 0 0 0 0 0 0 0 0 0 0 0 0 0 0 127 0" result="hardAlpha"/>
<feOffset dy="4"/>
<feGaussianBlur stdDeviation="20"/>
<feComposite in2="hardAlpha" operator="out"/>
<feColorMatrix type="matrix" values="0 0 0 0 0 0 0 0 0 0 0 0 0 0 0 0 0 0 0.25 0"/>
<feBlend mode="normal" in2="BackgroundImageFix" result="effect1_dropShadow_22_118"/>
<feBlend mode="normal" in="SourceGraphic" in2="effect1_dropShadow_22_118" result="shape"/>
</filter>
</defs>
</svg>
