<svg width="561" height="259" viewBox="0 0 561 259" fill="none" xmlns="http://www.w3.org/2000/svg">
<g filter="url(#filter0_bd_34_218)">
<g clip-path="url(#clip0_34_218)">
<rect x="49" y="45" width="150" height="114" rx="10" fill="url(#paint0_radial_34_218)" fill-opacity="0.5" shape-rendering="crispEdges"/>
<path d="M80.0651 107.18C80.0651 111.24 77.9551 113.27 73.7351 113.27H73.2851L72.8651 116.72C71.8451 116.66 71.3351 116.59 71.3351 116.51L71.7551 113.18L67.4651 112.64L67.7051 110.81C69.2451 111.03 70.6751 111.18 71.9951 111.26L72.9851 103.76C70.9451 103.28 69.4851 102.67 68.6051 101.93C67.7451 101.17 67.3151 99.93 67.3151 98.21C67.3151 94.67 69.4351 92.9 73.6751 92.9C73.9751 92.9 74.2051 92.91 74.3651 92.93L74.8751 89.06H76.4051L75.8951 93.02L79.6451 93.47L79.4651 95.33C78.0851 95.17 76.8151 95.04 75.6551 94.94L74.7551 101.93C76.6951 102.39 78.0651 102.98 78.8651 103.7C79.6651 104.42 80.0651 105.58 80.0651 107.18ZM69.5351 98.09C69.5351 99.17 69.8051 99.94 70.3451 100.4C70.8851 100.86 71.8551 101.26 73.2551 101.6L74.1251 94.85H73.8251C70.9651 94.85 69.5351 95.93 69.5351 98.09ZM77.8451 107.33C77.8451 106.37 77.5951 105.66 77.0951 105.2C76.5951 104.74 75.7251 104.36 74.4851 104.06L73.5551 111.32H73.6151C76.4351 111.32 77.8451 109.99 77.8451 107.33ZM105.372 73.4V113H100.752V78.56L90.5522 85.28L88.4522 81.8L101.052 73.4H105.372ZM132.346 72.74C135.626 72.74 138.286 73.36 140.326 74.6C144.646 77.16 146.806 83.56 146.806 93.8C146.806 101.04 145.606 106.16 143.206 109.16C140.806 112.12 137.206 113.6 132.406 113.6C127.606 113.6 123.986 112.14 121.546 109.22C119.146 106.26 117.946 101.02 117.946 93.5C117.946 85.94 119.126 80.6 121.486 77.48C123.886 74.32 127.506 72.74 132.346 72.74ZM132.406 76.88C130.126 76.88 128.326 77.36 127.006 78.32C124.166 80.28 122.746 85.46 122.746 93.86C122.746 99.78 123.526 103.88 125.086 106.16C126.646 108.4 129.086 109.52 132.406 109.52C135.726 109.52 138.166 108.38 139.726 106.1C141.286 103.82 142.066 99.6 142.066 93.44C142.066 87.24 141.306 82.94 139.786 80.54C138.306 78.1 135.846 76.88 132.406 76.88ZM165.921 72.74C169.201 72.74 171.861 73.36 173.901 74.6C178.221 77.16 180.381 83.56 180.381 93.8C180.381 101.04 179.181 106.16 176.781 109.16C174.381 112.12 170.781 113.6 165.981 113.6C161.181 113.6 157.561 112.14 155.121 109.22C152.721 106.26 151.521 101.02 151.521 93.5C151.521 85.94 152.701 80.6 155.061 77.48C157.461 74.32 161.081 72.74 165.921 72.74ZM165.981 76.88C163.701 76.88 161.901 77.36 160.581 78.32C157.741 80.28 156.321 85.46 156.321 93.86C156.321 99.78 157.101 103.88 158.661 106.16C160.221 108.4 162.661 109.52 165.981 109.52C169.301 109.52 171.741 108.38 173.301 106.1C174.861 103.82 175.641 99.6 175.641 93.44C175.641 87.24 174.881 82.94 173.361 80.54C171.881 78.1 169.421 76.88 165.981 76.88ZM123.953 163.74C127.233 163.74 129.893 164.36 131.933 165.6C136.253 168.16 138.413 174.56 138.413 184.8C138.413 192.04 137.213 197.16 134.813 200.16C132.413 203.12 128.813 204.6 124.013 204.6C119.213 204.6 115.593 203.14 113.153 200.22C110.753 197.26 109.553 192.02 109.553 184.5C109.553 176.94 110.733 171.6 113.093 168.48C115.493 165.32 119.113 163.74 123.953 163.74ZM124.013 167.88C121.733 167.88 119.933 168.36 118.613 169.32C115.773 171.28 114.353 176.46 114.353 184.86C114.353 190.78 115.133 194.88 116.693 197.16C118.253 199.4 120.693 200.52 124.013 200.52C127.333 200.52 129.773 199.38 131.333 197.1C132.893 194.82 133.673 190.6 133.673 184.44C133.673 178.24 132.913 173.94 131.393 171.54C129.913 169.1 127.453 167.88 124.013 167.88Z" fill="white"/>
<path d="M90.1028 134.012V128.96H90.0068L87.3308 134.012H85.9988V128H86.8868V132.992H86.9828L89.6588 128H90.9788V134.012H90.1028ZM92.7019 128H93.5899V130.58H96.6979V128H97.5859V134H96.6979V131.36H93.5899V134H92.7019V128ZM103.019 132.272C103.027 132.616 102.935 132.868 102.743 133.028C102.559 133.18 102.227 133.256 101.747 133.256H100.199V131.264H101.879C102.631 131.264 103.011 131.6 103.019 132.272ZM102.911 129.644C102.911 130.236 102.563 130.532 101.867 130.532H100.199V128.756H101.939C102.587 128.756 102.911 129.052 102.911 129.644ZM101.735 134C103.223 134 103.967 133.424 103.967 132.272C103.967 131.984 103.899 131.7 103.763 131.42C103.627 131.132 103.415 130.936 103.127 130.832C103.223 130.792 103.307 130.74 103.379 130.676C103.451 130.604 103.519 130.528 103.583 130.448C103.751 130.2 103.831 129.9 103.823 129.548C103.815 128.516 103.179 128 101.915 128H99.3113V134H101.735ZM109.274 133.256L109.622 133.22L109.646 133.928C108.734 134.056 107.954 134.12 107.306 134.12C106.442 134.12 105.83 133.872 105.47 133.376C105.11 132.872 104.93 132.092 104.93 131.036C104.93 128.932 105.766 127.88 107.438 127.88C108.246 127.88 108.85 128.108 109.25 128.564C109.65 129.012 109.85 129.72 109.85 130.688L109.802 131.372H105.842C105.842 132.036 105.962 132.528 106.202 132.848C106.442 133.168 106.858 133.328 107.45 133.328C108.05 133.328 108.658 133.304 109.274 133.256ZM108.95 130.652C108.95 129.916 108.83 129.396 108.59 129.092C108.358 128.788 107.974 128.636 107.438 128.636C106.91 128.636 106.51 128.796 106.238 129.116C105.974 129.436 105.838 129.948 105.83 130.652H108.95ZM113.497 127.88C113.761 127.88 114.209 127.928 114.841 128.024L115.129 128.06L115.093 128.792C114.453 128.72 113.981 128.684 113.677 128.684C112.997 128.684 112.533 128.848 112.285 129.176C112.045 129.496 111.925 130.096 111.925 130.976C111.925 131.848 112.037 132.456 112.261 132.8C112.493 133.144 112.969 133.316 113.689 133.316L115.105 133.208L115.141 133.952C114.397 134.064 113.841 134.12 113.473 134.12C112.537 134.12 111.889 133.88 111.529 133.4C111.177 132.92 111.001 132.112 111.001 130.976C111.001 129.832 111.193 129.032 111.577 128.576C111.961 128.112 112.601 127.88 113.497 127.88ZM115.975 128H121.063V128.768H118.963V134H118.075V128.768H115.975V128ZM126.396 134.012V128.96H126.3L123.624 134.012H122.292V128H123.18V132.992H123.276L125.952 128H127.272V134.012H126.396ZM128.995 128H129.883V133.22H132.895V128H133.783V133.22H134.419V135.332H133.543V134H128.995V128ZM139.872 134.012V128.96H139.776L137.1 134.012H135.768V128H136.656V132.992H136.752L139.428 128H140.748V134.012H139.872ZM146.575 134.012V128.96H146.479L143.803 134.012H142.471V128H143.359V132.992H143.455L146.131 128H147.451V134.012H146.575ZM151.547 130.988C151.547 129.892 151.743 129.1 152.135 128.612C152.527 128.124 153.187 127.88 154.115 127.88C155.051 127.88 155.711 128.124 156.095 128.612C156.487 129.1 156.683 129.892 156.683 130.988C156.683 132.084 156.499 132.88 156.131 133.376C155.763 133.872 155.091 134.12 154.115 134.12C153.139 134.12 152.467 133.872 152.099 133.376C151.731 132.88 151.547 132.084 151.547 130.988ZM152.471 130.964C152.471 131.844 152.575 132.46 152.783 132.812C152.999 133.164 153.443 133.34 154.115 133.34C154.795 133.34 155.239 133.168 155.447 132.824C155.655 132.472 155.759 131.856 155.759 130.976C155.759 130.096 155.643 129.492 155.411 129.164C155.179 128.828 154.747 128.66 154.115 128.66C153.491 128.66 153.059 128.828 152.819 129.164C152.587 129.492 152.471 130.092 152.471 130.964ZM157.413 128H162.501V128.768H160.401V134H159.513V128.768H157.413V128Z" fill="#A5A5C2"/>
</g>
<rect x="49.5" y="45.5" width="149" height="113" rx="9.5" stroke="url(#paint1_linear_34_218)" shape-rendering="crispEdges"/>
</g>
<g filter="url(#filter1_bd_34_218)">
<rect x="49" y="165" width="150" height="41" rx="6" fill="url(#paint2_radial_34_218)" fill-opacity="0.5" shape-rendering="crispEdges"/>
<path d="M67.6396 183L69.9196 174.696H71.9356L74.2156 183H73.3036L72.7036 180.864H69.1516L68.5516 183H67.6396ZM70.6156 175.488L69.3556 180.036H72.4996L71.2396 175.488H70.6156ZM79.072 181.272C79.08 181.616 78.988 181.868 78.796 182.028C78.612 182.18 78.28 182.256 77.8 182.256H76.252V180.264H77.932C78.684 180.264 79.064 180.6 79.072 181.272ZM78.964 178.644C78.964 179.236 78.616 179.532 77.92 179.532H76.252V177.756H77.992C78.64 177.756 78.964 178.052 78.964 178.644ZM77.788 183C79.276 183 80.02 182.424 80.02 181.272C80.02 180.984 79.952 180.7 79.816 180.42C79.68 180.132 79.468 179.936 79.18 179.832C79.276 179.792 79.36 179.74 79.432 179.676C79.504 179.604 79.572 179.528 79.636 179.448C79.804 179.2 79.884 178.9 79.876 178.548C79.868 177.516 79.232 177 77.968 177H75.364V183H77.788ZM80.7428 177H85.8308V177.768H83.7308V183H82.8428V177.768H80.7428V177ZM86.7953 179.988C86.7953 178.892 86.9913 178.1 87.3833 177.612C87.7753 177.124 88.4353 176.88 89.3633 176.88C90.2993 176.88 90.9593 177.124 91.3433 177.612C91.7353 178.1 91.9313 178.892 91.9313 179.988C91.9313 181.084 91.7473 181.88 91.3793 182.376C91.0113 182.872 90.3393 183.12 89.3633 183.12C88.3873 183.12 87.7153 182.872 87.3473 182.376C86.9793 181.88 86.7953 181.084 86.7953 179.988ZM87.7193 179.964C87.7193 180.844 87.8233 181.46 88.0313 181.812C88.2473 182.164 88.6913 182.34 89.3633 182.34C90.0433 182.34 90.4873 182.168 90.6953 181.824C90.9033 181.472 91.0073 180.856 91.0073 179.976C91.0073 179.096 90.8913 178.492 90.6593 178.164C90.4273 177.828 89.9953 177.66 89.3633 177.66C88.7393 177.66 88.3073 177.828 88.0673 178.164C87.8353 178.492 87.7193 179.092 87.7193 179.964ZM99.6632 177V183H98.7992V177.816H98.7032L96.9872 182.52H96.0992L94.3592 177.816H94.2632V183H93.3992V177H94.9232L96.5432 181.56L98.1632 177H99.6632ZM105.627 178.812V181.884C105.651 182.18 105.883 182.356 106.323 182.412L106.287 183.12C105.655 183.12 105.179 182.96 104.859 182.64C104.139 182.96 103.419 183.12 102.699 183.12C102.147 183.12 101.727 182.964 101.439 182.652C101.151 182.34 101.007 181.892 101.007 181.308C101.007 180.724 101.155 180.296 101.451 180.024C101.747 179.744 102.211 179.572 102.843 179.508L104.727 179.328V178.812C104.727 178.404 104.639 178.112 104.463 177.936C104.287 177.76 104.047 177.672 103.743 177.672C103.103 177.672 102.439 177.712 101.751 177.792L101.379 177.828L101.343 177.144C102.223 176.968 103.003 176.88 103.683 176.88C104.363 176.88 104.855 177.036 105.159 177.348C105.471 177.66 105.627 178.148 105.627 178.812ZM101.931 181.26C101.931 181.996 102.235 182.364 102.843 182.364C103.387 182.364 103.923 182.272 104.451 182.088L104.727 181.992V180.012L102.951 180.18C102.591 180.212 102.331 180.316 102.171 180.492C102.011 180.668 101.931 180.924 101.931 181.26ZM106.899 177H111.987V177.768H109.887V183H108.999V177.768H106.899V177ZM117.32 183.012V177.96H117.224L114.548 183.012H113.216V177H114.104V181.992H114.2L116.876 177H118.196V183.012H117.32ZM121.215 179.616C121.647 179.616 122.007 179.536 122.295 179.376C122.623 179.2 122.787 178.944 122.787 178.608C122.787 178.272 122.675 178.036 122.451 177.9C122.227 177.764 121.851 177.692 121.323 177.684C120.795 177.676 120.227 177.744 119.619 177.888L119.583 177.168C119.679 177.144 119.775 177.124 119.871 177.108C119.967 177.084 120.159 177.048 120.447 177C120.743 176.944 121.087 176.916 121.479 176.916C122.911 176.916 123.631 177.46 123.639 178.548C123.655 179.164 123.419 179.612 122.931 179.892C123.251 180.028 123.483 180.204 123.627 180.42C123.771 180.636 123.843 180.94 123.843 181.332C123.843 182.548 123.023 183.136 121.383 183.096C120.663 183.08 120.047 183.008 119.535 182.88L119.583 182.124C119.951 182.196 120.243 182.248 120.459 182.28C120.675 182.312 121.019 182.328 121.491 182.328C121.963 182.328 122.327 182.256 122.583 182.112C122.839 181.968 122.967 181.704 122.967 181.32C122.967 180.928 122.807 180.656 122.487 180.504C122.215 180.376 121.791 180.312 121.215 180.312H120.495V179.616H121.215ZM129.413 183.012V177.96H129.317L126.641 183.012H125.309V177H126.197V181.992H126.293L128.969 177H130.289V183.012H129.413ZM132.012 185.664V177H132.9V177.432C133.508 177.064 134.108 176.88 134.7 176.88C135.46 176.88 136.012 177.124 136.356 177.612C136.7 178.092 136.872 178.888 136.872 180C136.872 181.112 136.668 181.912 136.26 182.4C135.86 182.88 135.192 183.12 134.256 183.12C133.768 183.12 133.32 183.076 132.912 182.988V185.664H132.012ZM134.568 177.684C134.328 177.684 134.068 177.724 133.788 177.804C133.516 177.884 133.3 177.964 133.14 178.044L132.912 178.164V182.208C133.48 182.296 133.912 182.34 134.208 182.34C134.856 182.34 135.308 182.156 135.564 181.788C135.828 181.42 135.96 180.82 135.96 179.988C135.96 179.156 135.84 178.564 135.6 178.212C135.368 177.86 135.024 177.684 134.568 177.684ZM138.077 179.988C138.077 178.892 138.273 178.1 138.665 177.612C139.057 177.124 139.717 176.88 140.645 176.88C141.581 176.88 142.241 177.124 142.625 177.612C143.017 178.1 143.213 178.892 143.213 179.988C143.213 181.084 143.029 181.88 142.661 182.376C142.293 182.872 141.621 183.12 140.645 183.12C139.669 183.12 138.997 182.872 138.629 182.376C138.261 181.88 138.077 181.084 138.077 179.988ZM139.001 179.964C139.001 180.844 139.105 181.46 139.313 181.812C139.529 182.164 139.973 182.34 140.645 182.34C141.325 182.34 141.769 182.168 141.977 181.824C142.185 181.472 142.289 180.856 142.289 179.976C142.289 179.096 142.173 178.492 141.941 178.164C141.709 177.828 141.277 177.66 140.645 177.66C140.021 177.66 139.589 177.828 139.349 178.164C139.117 178.492 139.001 179.092 139.001 179.964ZM148.388 181.272C148.396 181.616 148.304 181.868 148.112 182.028C147.928 182.18 147.596 182.256 147.116 182.256H145.568V180.264H147.248C148 180.264 148.38 180.6 148.388 181.272ZM148.28 178.644C148.28 179.236 147.932 179.532 147.236 179.532H145.568V177.756H147.308C147.956 177.756 148.28 178.052 148.28 178.644ZM147.104 183C148.592 183 149.336 182.424 149.336 181.272C149.336 180.984 149.268 180.7 149.132 180.42C148.996 180.132 148.784 179.936 148.496 179.832C148.592 179.792 148.676 179.74 148.748 179.676C148.82 179.604 148.888 179.528 148.952 179.448C149.12 179.2 149.2 178.9 149.192 178.548C149.184 177.516 148.548 177 147.284 177H144.68V183H147.104ZM154.799 178.812V181.884C154.823 182.18 155.055 182.356 155.495 182.412L155.459 183.12C154.827 183.12 154.351 182.96 154.031 182.64C153.311 182.96 152.591 183.12 151.871 183.12C151.319 183.12 150.899 182.964 150.611 182.652C150.323 182.34 150.179 181.892 150.179 181.308C150.179 180.724 150.327 180.296 150.623 180.024C150.919 179.744 151.383 179.572 152.015 179.508L153.899 179.328V178.812C153.899 178.404 153.811 178.112 153.635 177.936C153.459 177.76 153.219 177.672 152.915 177.672C152.275 177.672 151.611 177.712 150.923 177.792L150.551 177.828L150.515 177.144C151.395 176.968 152.175 176.88 152.855 176.88C153.535 176.88 154.027 177.036 154.331 177.348C154.643 177.66 154.799 178.148 154.799 178.812ZM151.103 181.26C151.103 181.996 151.407 182.364 152.015 182.364C152.559 182.364 153.095 182.272 153.623 182.088L153.899 181.992V180.012L152.123 180.18C151.763 180.212 151.503 180.316 151.343 180.492C151.183 180.668 151.103 180.924 151.103 181.26ZM156.575 177H157.463V179.58H160.571V177H161.459V183H160.571V180.36H157.463V183H156.575V177ZM163.184 177H164.072V179.58H167.18V177H168.068V183H167.18V180.36H164.072V183H163.184V177ZM174.03 178.812V181.884C174.054 182.18 174.286 182.356 174.726 182.412L174.69 183.12C174.058 183.12 173.582 182.96 173.262 182.64C172.542 182.96 171.822 183.12 171.102 183.12C170.55 183.12 170.13 182.964 169.842 182.652C169.554 182.34 169.41 181.892 169.41 181.308C169.41 180.724 169.558 180.296 169.854 180.024C170.15 179.744 170.614 179.572 171.246 179.508L173.13 179.328V178.812C173.13 178.404 173.042 178.112 172.866 177.936C172.69 177.76 172.45 177.672 172.146 177.672C171.506 177.672 170.842 177.712 170.154 177.792L169.782 177.828L169.746 177.144C170.626 176.968 171.406 176.88 172.086 176.88C172.766 176.88 173.258 177.036 173.562 177.348C173.874 177.66 174.03 178.148 174.03 178.812ZM170.334 181.26C170.334 181.996 170.638 182.364 171.246 182.364C171.79 182.364 172.326 182.272 172.854 182.088L173.13 181.992V180.012L171.354 180.18C170.994 180.212 170.734 180.316 170.574 180.492C170.414 180.668 170.334 180.924 170.334 181.26ZM175.265 183L176.669 180.876C176.221 180.764 175.909 180.548 175.733 180.228C175.581 179.948 175.497 179.52 175.481 178.944C175.457 177.648 176.081 177 177.353 177H179.789V183H178.901V180.984H177.605L176.285 183H175.265ZM178.901 180.192V177.792H177.473C177.033 177.792 176.737 177.884 176.585 178.068C176.449 178.236 176.385 178.54 176.393 178.98C176.401 179.428 176.473 179.736 176.609 179.904C176.769 180.096 177.057 180.192 177.473 180.192H178.901ZM106.688 197.664V189H107.576V189.432C108.184 189.064 108.784 188.88 109.376 188.88C110.136 188.88 110.688 189.124 111.032 189.612C111.376 190.092 111.548 190.888 111.548 192C111.548 193.112 111.344 193.912 110.936 194.4C110.536 194.88 109.868 195.12 108.932 195.12C108.444 195.12 107.996 195.076 107.588 194.988V197.664H106.688ZM109.244 189.684C109.004 189.684 108.744 189.724 108.464 189.804C108.192 189.884 107.976 189.964 107.816 190.044L107.588 190.164V194.208C108.156 194.296 108.588 194.34 108.884 194.34C109.532 194.34 109.984 194.156 110.24 193.788C110.504 193.42 110.636 192.82 110.636 191.988C110.636 191.156 110.516 190.564 110.276 190.212C110.044 189.86 109.7 189.684 109.244 189.684ZM117.252 190.812V193.884C117.276 194.18 117.508 194.356 117.948 194.412L117.912 195.12C117.28 195.12 116.804 194.96 116.484 194.64C115.764 194.96 115.044 195.12 114.324 195.12C113.772 195.12 113.352 194.964 113.064 194.652C112.776 194.34 112.632 193.892 112.632 193.308C112.632 192.724 112.78 192.296 113.076 192.024C113.372 191.744 113.836 191.572 114.468 191.508L116.352 191.328V190.812C116.352 190.404 116.264 190.112 116.088 189.936C115.912 189.76 115.672 189.672 115.368 189.672C114.728 189.672 114.064 189.712 113.376 189.792L113.004 189.828L112.968 189.144C113.848 188.968 114.628 188.88 115.308 188.88C115.988 188.88 116.48 189.036 116.784 189.348C117.096 189.66 117.252 190.148 117.252 190.812ZM113.556 193.26C113.556 193.996 113.86 194.364 114.468 194.364C115.012 194.364 115.548 194.272 116.076 194.088L116.352 193.992V192.012L114.576 192.18C114.216 192.212 113.956 192.316 113.796 192.492C113.636 192.668 113.556 192.924 113.556 193.26ZM122.808 192.036C122.816 192.828 122.712 193.396 122.496 193.74C122.28 194.084 121.848 194.256 121.2 194.256C120.832 194.256 120.54 194.2 120.324 194.088C120.108 193.968 119.944 193.808 119.832 193.608C119.72 193.408 119.648 193.172 119.616 192.9C119.584 192.62 119.568 192.324 119.568 192.012C119.568 191.7 119.584 191.408 119.616 191.136C119.656 190.856 119.732 190.612 119.844 190.404C119.964 190.196 120.132 190.032 120.348 189.912C120.564 189.792 120.856 189.732 121.224 189.732C121.848 189.732 122.268 189.916 122.484 190.284C122.684 190.652 122.792 191.236 122.808 192.036ZM121.284 188.928C120.948 188.928 120.656 188.984 120.408 189.096C120.16 189.208 119.92 189.38 119.688 189.612C119.792 189.22 119.908 188.904 120.036 188.664C120.172 188.416 120.34 188.22 120.54 188.076C120.74 187.932 120.98 187.832 121.26 187.776C121.54 187.712 121.88 187.672 122.28 187.656C122.456 187.64 122.612 187.624 122.748 187.608C122.884 187.584 123 187.54 123.096 187.476C123.192 187.412 123.264 187.32 123.312 187.2C123.368 187.08 123.396 186.912 123.396 186.696H122.712C122.672 186.776 122.628 186.82 122.58 186.828C122.548 186.836 122.48 186.844 122.376 186.852C122.28 186.86 122.148 186.872 121.98 186.888C120.716 186.968 119.86 187.356 119.412 188.052C118.972 188.732 118.732 189.784 118.692 191.208C118.684 191.368 118.684 191.576 118.692 191.832C118.708 192.08 118.724 192.38 118.74 192.732C118.78 193.532 119.02 194.124 119.46 194.508C119.9 194.884 120.512 195.072 121.296 195.072C121.792 195.072 122.192 194.996 122.496 194.844C122.808 194.684 123.048 194.468 123.216 194.196C123.392 193.924 123.512 193.604 123.576 193.236C123.64 192.86 123.672 192.456 123.672 192.024C123.672 191.584 123.64 191.176 123.576 190.8C123.52 190.424 123.404 190.1 123.228 189.828C123.052 189.548 122.808 189.328 122.496 189.168C122.192 189.008 121.788 188.928 121.284 188.928ZM124.846 191.988C124.846 190.892 125.042 190.1 125.434 189.612C125.826 189.124 126.486 188.88 127.414 188.88C128.35 188.88 129.01 189.124 129.394 189.612C129.786 190.1 129.982 190.892 129.982 191.988C129.982 193.084 129.798 193.88 129.43 194.376C129.062 194.872 128.39 195.12 127.414 195.12C126.438 195.12 125.766 194.872 125.398 194.376C125.03 193.88 124.846 193.084 124.846 191.988ZM125.77 191.964C125.77 192.844 125.874 193.46 126.082 193.812C126.298 194.164 126.742 194.34 127.414 194.34C128.094 194.34 128.538 194.168 128.746 193.824C128.954 193.472 129.058 192.856 129.058 191.976C129.058 191.096 128.942 190.492 128.71 190.164C128.478 189.828 128.046 189.66 127.414 189.66C126.79 189.66 126.358 189.828 126.118 190.164C125.886 190.492 125.77 191.092 125.77 191.964ZM130.712 189H135.8V189.768H133.7V195H132.812V189.768H130.712V189ZM141.264 190.812V193.884C141.288 194.18 141.52 194.356 141.96 194.412L141.924 195.12C141.292 195.12 140.816 194.96 140.496 194.64C139.776 194.96 139.056 195.12 138.336 195.12C137.784 195.12 137.364 194.964 137.076 194.652C136.788 194.34 136.644 193.892 136.644 193.308C136.644 192.724 136.792 192.296 137.088 192.024C137.384 191.744 137.848 191.572 138.48 191.508L140.364 191.328V190.812C140.364 190.404 140.276 190.112 140.1 189.936C139.924 189.76 139.684 189.672 139.38 189.672C138.74 189.672 138.076 189.712 137.388 189.792L137.016 189.828L136.98 189.144C137.86 188.968 138.64 188.88 139.32 188.88C140 188.88 140.492 189.036 140.796 189.348C141.108 189.66 141.264 190.148 141.264 190.812ZM137.568 193.26C137.568 193.996 137.872 194.364 138.48 194.364C139.024 194.364 139.56 194.272 140.088 194.088L140.364 193.992V192.012L138.588 192.18C138.228 192.212 137.968 192.316 137.808 192.492C137.648 192.668 137.568 192.924 137.568 193.26Z" fill="#A5A5C2"/>
<rect x="49.5" y="165.5" width="149" height="40" rx="5.5" stroke="url(#paint3_linear_34_218)" shape-rendering="crispEdges"/>
</g>
<g filter="url(#filter2_bd_34_218)">
<rect x="205" y="45" width="150" height="41" rx="6" fill="url(#paint4_radial_34_218)" fill-opacity="0.5" shape-rendering="crispEdges"/>
<path d="M226.579 59.252H226.615L228.835 53.696H229.783L226.891 60.776C226.595 61.512 226.195 61.92 225.691 62C225.187 62.072 224.787 62.068 224.491 61.988L224.551 61.196C224.735 61.22 224.903 61.232 225.055 61.232C225.215 61.232 225.371 61.212 225.523 61.172C225.683 61.124 225.811 61.024 225.907 60.872C226.003 60.72 226.143 60.404 226.327 59.924H225.895L223.495 53.696H224.491L226.579 59.252ZM229.863 61.232C230.327 60.36 230.559 59.384 230.559 58.304V56H234.627V61.232H235.203V63.332H234.327V62.012H230.247V63.332H229.383V61.232H229.863ZM231.411 58.388C231.411 58.972 231.355 59.496 231.243 59.96C231.131 60.416 230.987 60.84 230.811 61.232H233.751V56.78H231.411V58.388ZM236.221 58.988C236.221 57.892 236.417 57.1 236.809 56.612C237.201 56.124 237.861 55.88 238.789 55.88C239.725 55.88 240.385 56.124 240.769 56.612C241.161 57.1 241.357 57.892 241.357 58.988C241.357 60.084 241.173 60.88 240.805 61.376C240.437 61.872 239.765 62.12 238.789 62.12C237.813 62.12 237.141 61.872 236.773 61.376C236.405 60.88 236.221 60.084 236.221 58.988ZM237.145 58.964C237.145 59.844 237.249 60.46 237.457 60.812C237.673 61.164 238.117 61.34 238.789 61.34C239.469 61.34 239.913 61.168 240.121 60.824C240.329 60.472 240.433 59.856 240.433 58.976C240.433 58.096 240.317 57.492 240.085 57.164C239.853 56.828 239.421 56.66 238.789 56.66C238.165 56.66 237.733 56.828 237.493 57.164C237.261 57.492 237.145 58.092 237.145 58.964ZM246.605 59.036C246.613 59.828 246.509 60.396 246.293 60.74C246.077 61.084 245.645 61.256 244.997 61.256C244.629 61.256 244.337 61.2 244.121 61.088C243.905 60.968 243.741 60.808 243.629 60.608C243.517 60.408 243.445 60.172 243.413 59.9C243.381 59.62 243.365 59.324 243.365 59.012C243.365 58.7 243.381 58.408 243.413 58.136C243.453 57.856 243.529 57.612 243.641 57.404C243.761 57.196 243.929 57.032 244.145 56.912C244.361 56.792 244.653 56.732 245.021 56.732C245.645 56.732 246.065 56.916 246.281 57.284C246.481 57.652 246.589 58.236 246.605 59.036ZM245.081 55.928C244.745 55.928 244.453 55.984 244.205 56.096C243.957 56.208 243.717 56.38 243.485 56.612C243.589 56.22 243.705 55.904 243.833 55.664C243.969 55.416 244.137 55.22 244.337 55.076C244.537 54.932 244.777 54.832 245.057 54.776C245.337 54.712 245.677 54.672 246.077 54.656C246.253 54.64 246.409 54.624 246.545 54.608C246.681 54.584 246.797 54.54 246.893 54.476C246.989 54.412 247.061 54.32 247.109 54.2C247.165 54.08 247.193 53.912 247.193 53.696H246.509C246.469 53.776 246.425 53.82 246.377 53.828C246.345 53.836 246.277 53.844 246.173 53.852C246.077 53.86 245.945 53.872 245.777 53.888C244.513 53.968 243.657 54.356 243.209 55.052C242.769 55.732 242.529 56.784 242.489 58.208C242.481 58.368 242.481 58.576 242.489 58.832C242.505 59.08 242.521 59.38 242.537 59.732C242.577 60.532 242.817 61.124 243.257 61.508C243.697 61.884 244.309 62.072 245.093 62.072C245.589 62.072 245.989 61.996 246.293 61.844C246.605 61.684 246.845 61.468 247.013 61.196C247.189 60.924 247.309 60.604 247.373 60.236C247.437 59.86 247.469 59.456 247.469 59.024C247.469 58.584 247.437 58.176 247.373 57.8C247.317 57.424 247.201 57.1 247.025 56.828C246.849 56.548 246.605 56.328 246.293 56.168C245.989 56.008 245.585 55.928 245.081 55.928ZM248.907 56H249.795V58.58H252.903V56H253.791V62H252.903V59.36H249.795V62H248.907V56ZM257.916 59.192C258.276 59.192 258.528 59.268 258.672 59.42C258.816 59.58 258.884 59.852 258.876 60.236C258.868 60.612 258.804 60.872 258.684 61.016C258.564 61.16 258.308 61.232 257.916 61.232H256.404V59.192H257.916ZM257.916 62C258.54 62 259.004 61.868 259.308 61.604C259.612 61.332 259.764 60.876 259.764 60.236C259.764 59.612 259.616 59.156 259.32 58.868C259.032 58.572 258.576 58.424 257.952 58.424H256.404V56H255.516V62H257.916ZM260.628 56V62H261.504V56H260.628ZM267.331 62.012V56.96H267.235L264.559 62.012H263.227V56H264.115V60.992H264.211L266.887 56H268.207V62.012H267.331ZM264.655 53.288C264.671 53.592 264.771 53.836 264.955 54.02C265.139 54.204 265.387 54.296 265.699 54.296C266.019 54.296 266.271 54.204 266.455 54.02C266.639 53.836 266.735 53.592 266.743 53.288H267.487C267.463 53.768 267.291 54.168 266.971 54.488C266.651 54.808 266.227 54.968 265.699 54.968C265.179 54.968 264.759 54.808 264.439 54.488C264.119 54.168 263.947 53.768 263.923 53.288H264.655ZM276.371 56.012C276.459 55.996 276.599 55.984 276.791 55.976C276.983 55.96 277.159 55.952 277.319 55.952C277.967 55.96 278.495 56.168 278.903 56.576C279.311 56.976 279.527 57.48 279.551 58.088C279.583 58.696 279.583 59.304 279.551 59.912C279.527 60.52 279.307 61.028 278.891 61.436C278.483 61.844 277.967 62.048 277.343 62.048C277.191 62.048 277.019 62.04 276.827 62.024C276.635 62.016 276.483 62.004 276.371 61.988V64.232H275.471V61.988C275.359 62.004 275.207 62.016 275.015 62.024C274.823 62.04 274.651 62.048 274.499 62.048C273.875 62.048 273.355 61.844 272.939 61.436C272.531 61.028 272.311 60.52 272.279 59.912C272.255 59.304 272.255 58.696 272.279 58.088C272.311 57.48 272.531 56.976 272.939 56.576C273.347 56.168 273.875 55.96 274.523 55.952C274.683 55.952 274.859 55.96 275.051 55.976C275.243 55.984 275.383 55.996 275.471 56.012V53.564H276.371V56.012ZM275.471 61.184V56.804C275.063 56.764 274.703 56.744 274.391 56.744C274.079 56.744 273.799 56.892 273.551 57.188C273.311 57.476 273.179 57.876 273.155 58.388C273.139 58.9 273.139 59.36 273.155 59.768C273.179 60.168 273.311 60.516 273.551 60.812C273.799 61.1 274.091 61.244 274.427 61.244C274.771 61.244 275.119 61.224 275.471 61.184ZM276.371 61.184C276.723 61.224 277.067 61.244 277.403 61.244C277.747 61.244 278.039 61.1 278.279 60.812C278.527 60.516 278.659 60.168 278.675 59.768C278.699 59.36 278.699 58.9 278.675 58.388C278.659 57.876 278.527 57.476 278.279 57.188C278.039 56.892 277.763 56.744 277.451 56.744C277.139 56.744 276.779 56.764 276.371 56.804V61.184ZM281.365 63.92C281.565 63.928 281.717 63.928 281.821 63.92C282.125 63.896 282.357 63.644 282.517 63.164L282.901 62H282.265L280.441 56H281.353L282.889 61.208H283.177L284.833 56H285.709L283.285 63.392C283.077 63.904 282.865 64.252 282.649 64.436C282.441 64.62 282.205 64.712 281.941 64.712C281.685 64.712 281.493 64.696 281.365 64.664V63.92ZM286.876 56H287.764V58.58H290.872V56H291.76V62H290.872V59.36H287.764V62H286.876V56ZM294.373 58.604L295.321 58.556L297.037 56H298.057L296.089 58.892L298.141 62H297.109L295.333 59.348L294.373 59.384V62H293.485V56H294.373V58.604ZM299.368 56H300.256V61.22H303.268V56H304.156V61.22H304.792V63.332H303.916V62H299.368V56ZM310.245 62.012V56.96H310.149L307.473 62.012H306.141V56H307.029V60.992H307.125L309.801 56H311.121V62.012H310.245ZM312.58 58.988C312.58 57.892 312.776 57.1 313.168 56.612C313.56 56.124 314.22 55.88 315.148 55.88C316.084 55.88 316.744 56.124 317.128 56.612C317.52 57.1 317.716 57.892 317.716 58.988C317.716 60.084 317.532 60.88 317.164 61.376C316.796 61.872 316.124 62.12 315.148 62.12C314.172 62.12 313.5 61.872 313.132 61.376C312.764 60.88 312.58 60.084 312.58 58.988ZM313.504 58.964C313.504 59.844 313.608 60.46 313.816 60.812C314.032 61.164 314.476 61.34 315.148 61.34C315.828 61.34 316.272 61.168 316.48 60.824C316.688 60.472 316.792 59.856 316.792 58.976C316.792 58.096 316.676 57.492 316.444 57.164C316.212 56.828 315.78 56.66 315.148 56.66C314.524 56.66 314.092 56.828 313.852 57.164C313.62 57.492 313.504 58.092 313.504 58.964ZM319.184 56H320.072V58.58H323.18V56H324.068V62H323.18V59.36H320.072V62H319.184V56ZM330.03 57.812V60.884C330.054 61.18 330.286 61.356 330.726 61.412L330.69 62.12C330.058 62.12 329.582 61.96 329.262 61.64C328.542 61.96 327.822 62.12 327.102 62.12C326.55 62.12 326.13 61.964 325.842 61.652C325.554 61.34 325.41 60.892 325.41 60.308C325.41 59.724 325.558 59.296 325.854 59.024C326.15 58.744 326.614 58.572 327.246 58.508L329.13 58.328V57.812C329.13 57.404 329.042 57.112 328.866 56.936C328.69 56.76 328.45 56.672 328.146 56.672C327.506 56.672 326.842 56.712 326.154 56.792L325.782 56.828L325.746 56.144C326.626 55.968 327.406 55.88 328.086 55.88C328.766 55.88 329.258 56.036 329.562 56.348C329.874 56.66 330.03 57.148 330.03 57.812ZM326.334 60.26C326.334 60.996 326.638 61.364 327.246 61.364C327.79 61.364 328.326 61.272 328.854 61.088L329.13 60.992V59.012L327.354 59.18C326.994 59.212 326.734 59.316 326.574 59.492C326.414 59.668 326.334 59.924 326.334 60.26ZM335.393 62V56.78H333.269C333.197 57.956 333.133 58.78 333.077 59.252C333.021 59.716 332.981 60.028 332.957 60.188C332.933 60.34 332.913 60.464 332.897 60.56C332.777 61.16 332.605 61.56 332.381 61.76C332.157 61.952 331.757 62.052 331.181 62.06V61.292C331.477 61.284 331.685 61.22 331.805 61.1C331.925 60.972 332.029 60.676 332.117 60.212C332.213 59.748 332.301 58.832 332.381 57.464L332.465 56H336.281V62H335.393ZM272.638 71.036C272.646 71.828 272.542 72.396 272.326 72.74C272.11 73.084 271.678 73.256 271.03 73.256C270.662 73.256 270.37 73.2 270.154 73.088C269.938 72.968 269.774 72.808 269.662 72.608C269.55 72.408 269.478 72.172 269.446 71.9C269.414 71.62 269.398 71.324 269.398 71.012C269.398 70.7 269.414 70.408 269.446 70.136C269.486 69.856 269.562 69.612 269.674 69.404C269.794 69.196 269.962 69.032 270.178 68.912C270.394 68.792 270.686 68.732 271.054 68.732C271.678 68.732 272.098 68.916 272.314 69.284C272.514 69.652 272.622 70.236 272.638 71.036ZM271.114 67.928C270.778 67.928 270.486 67.984 270.238 68.096C269.99 68.208 269.75 68.38 269.518 68.612C269.622 68.22 269.738 67.904 269.866 67.664C270.002 67.416 270.17 67.22 270.37 67.076C270.57 66.932 270.81 66.832 271.09 66.776C271.37 66.712 271.71 66.672 272.11 66.656C272.286 66.64 272.442 66.624 272.578 66.608C272.714 66.584 272.83 66.54 272.926 66.476C273.022 66.412 273.094 66.32 273.142 66.2C273.198 66.08 273.226 65.912 273.226 65.696H272.542C272.502 65.776 272.458 65.82 272.41 65.828C272.378 65.836 272.31 65.844 272.206 65.852C272.11 65.86 271.978 65.872 271.81 65.888C270.546 65.968 269.69 66.356 269.242 67.052C268.802 67.732 268.562 68.784 268.522 70.208C268.514 70.368 268.514 70.576 268.522 70.832C268.538 71.08 268.554 71.38 268.57 71.732C268.61 72.532 268.85 73.124 269.29 73.508C269.73 73.884 270.342 74.072 271.126 74.072C271.622 74.072 272.022 73.996 272.326 73.844C272.638 73.684 272.878 73.468 273.046 73.196C273.222 72.924 273.342 72.604 273.406 72.236C273.47 71.86 273.502 71.456 273.502 71.024C273.502 70.584 273.47 70.176 273.406 69.8C273.35 69.424 273.234 69.1 273.058 68.828C272.882 68.548 272.638 68.328 272.326 68.168C272.022 68.008 271.618 67.928 271.114 67.928ZM274.676 70.988C274.676 69.892 274.872 69.1 275.264 68.612C275.656 68.124 276.316 67.88 277.244 67.88C278.18 67.88 278.84 68.124 279.224 68.612C279.616 69.1 279.812 69.892 279.812 70.988C279.812 72.084 279.628 72.88 279.26 73.376C278.892 73.872 278.22 74.12 277.244 74.12C276.268 74.12 275.596 73.872 275.228 73.376C274.86 72.88 274.676 72.084 274.676 70.988ZM275.6 70.964C275.6 71.844 275.704 72.46 275.912 72.812C276.128 73.164 276.572 73.34 277.244 73.34C277.924 73.34 278.368 73.168 278.576 72.824C278.784 72.472 278.888 71.856 278.888 70.976C278.888 70.096 278.772 69.492 278.54 69.164C278.308 68.828 277.876 68.66 277.244 68.66C276.62 68.66 276.188 68.828 275.948 69.164C275.716 69.492 275.6 70.092 275.6 70.964ZM280.542 68H285.63V68.768H283.53V74H282.642V68.768H280.542V68ZM291.094 69.812V72.884C291.118 73.18 291.35 73.356 291.79 73.412L291.754 74.12C291.122 74.12 290.646 73.96 290.326 73.64C289.606 73.96 288.886 74.12 288.166 74.12C287.614 74.12 287.194 73.964 286.906 73.652C286.618 73.34 286.474 72.892 286.474 72.308C286.474 71.724 286.622 71.296 286.918 71.024C287.214 70.744 287.678 70.572 288.31 70.508L290.194 70.328V69.812C290.194 69.404 290.106 69.112 289.93 68.936C289.754 68.76 289.514 68.672 289.21 68.672C288.57 68.672 287.906 68.712 287.218 68.792L286.846 68.828L286.81 68.144C287.69 67.968 288.47 67.88 289.15 67.88C289.83 67.88 290.322 68.036 290.626 68.348C290.938 68.66 291.094 69.148 291.094 69.812ZM287.398 72.26C287.398 72.996 287.702 73.364 288.31 73.364C288.854 73.364 289.39 73.272 289.918 73.088L290.194 72.992V71.012L288.418 71.18C288.058 71.212 287.798 71.316 287.638 71.492C287.478 71.668 287.398 71.924 287.398 72.26Z" fill="#A5A5C2"/>
<rect x="205.5" y="45.5" width="149" height="40" rx="5.5" stroke="url(#paint5_linear_34_218)" shape-rendering="crispEdges"/>
</g>
<g filter="url(#filter3_bd_34_218)">
<rect x="205" y="92" width="150" height="114" rx="10" fill="url(#paint6_radial_34_218)" fill-opacity="0.5" shape-rendering="crispEdges"/>
<path d="M261.766 120.4V160H257.146V125.56L246.946 132.28L244.846 128.8L257.446 120.4H261.766ZM301.46 160H276.14V156.1L287.72 143.92C289.72 141.84 291.18 140.26 292.1 139.18C293.02 138.1 293.84 136.82 294.56 135.34C295.32 133.86 295.7 132.38 295.7 130.9C295.7 128.34 295 126.54 293.6 125.5C292.2 124.46 290.02 123.94 287.06 123.94C284.46 123.94 281.56 124.28 278.36 124.96L276.8 125.26L276.44 121.42C280.24 120.34 284.16 119.8 288.2 119.8C292.24 119.8 295.28 120.66 297.32 122.38C299.4 124.06 300.44 126.74 300.44 130.42C300.44 133.22 299.82 135.66 298.58 137.74C297.34 139.82 295.2 142.32 292.16 145.24L281.6 155.98H301.46V160Z" fill="white"/>
<path d="M220.239 181.012V175.96H220.143L217.467 181.012H216.135V175H217.023V179.992H217.119L219.795 175H221.115V181.012H220.239ZM222.839 175H223.727V177.58H226.835V175H227.723V181H226.835V178.36H223.727V181H222.839V175ZM233.156 179.272C233.164 179.616 233.072 179.868 232.88 180.028C232.696 180.18 232.364 180.256 231.884 180.256H230.336V178.264H232.016C232.768 178.264 233.148 178.6 233.156 179.272ZM233.048 176.644C233.048 177.236 232.7 177.532 232.004 177.532H230.336V175.756H232.076C232.724 175.756 233.048 176.052 233.048 176.644ZM231.872 181C233.36 181 234.104 180.424 234.104 179.272C234.104 178.984 234.036 178.7 233.9 178.42C233.764 178.132 233.552 177.936 233.264 177.832C233.36 177.792 233.444 177.74 233.516 177.676C233.588 177.604 233.656 177.528 233.72 177.448C233.888 177.2 233.968 176.9 233.96 176.548C233.952 175.516 233.316 175 232.052 175H229.448V181H231.872ZM239.411 180.256L239.759 180.22L239.783 180.928C238.871 181.056 238.091 181.12 237.443 181.12C236.579 181.12 235.967 180.872 235.607 180.376C235.247 179.872 235.067 179.092 235.067 178.036C235.067 175.932 235.903 174.88 237.575 174.88C238.383 174.88 238.987 175.108 239.387 175.564C239.787 176.012 239.987 176.72 239.987 177.688L239.939 178.372H235.979C235.979 179.036 236.099 179.528 236.339 179.848C236.579 180.168 236.995 180.328 237.587 180.328C238.187 180.328 238.795 180.304 239.411 180.256ZM239.087 177.652C239.087 176.916 238.967 176.396 238.727 176.092C238.495 175.788 238.111 175.636 237.575 175.636C237.047 175.636 236.647 175.796 236.375 176.116C236.111 176.436 235.975 176.948 235.967 177.652H239.087ZM243.633 174.88C243.897 174.88 244.345 174.928 244.977 175.024L245.265 175.06L245.229 175.792C244.589 175.72 244.117 175.684 243.813 175.684C243.133 175.684 242.669 175.848 242.421 176.176C242.181 176.496 242.061 177.096 242.061 177.976C242.061 178.848 242.173 179.456 242.397 179.8C242.629 180.144 243.105 180.316 243.825 180.316L245.241 180.208L245.277 180.952C244.533 181.064 243.977 181.12 243.609 181.12C242.673 181.12 242.025 180.88 241.665 180.4C241.313 179.92 241.137 179.112 241.137 177.976C241.137 176.832 241.329 176.032 241.713 175.576C242.097 175.112 242.737 174.88 243.633 174.88ZM246.112 175H251.2V175.768H249.1V181H248.212V175.768H246.112V175ZM256.532 181.012V175.96H256.436L253.76 181.012H252.428V175H253.316V179.992H253.412L256.088 175H257.408V181.012H256.532ZM259.132 175H260.02V180.22H263.032V175H263.92V180.22H264.556V182.332H263.68V181H259.132V175ZM270.009 181.012V175.96H269.913L267.237 181.012H265.905V175H266.793V179.992H266.889L269.565 175H270.885V181.012H270.009ZM272.344 177.988C272.344 176.892 272.54 176.1 272.932 175.612C273.324 175.124 273.984 174.88 274.912 174.88C275.848 174.88 276.508 175.124 276.892 175.612C277.284 176.1 277.48 176.892 277.48 177.988C277.48 179.084 277.296 179.88 276.928 180.376C276.56 180.872 275.888 181.12 274.912 181.12C273.936 181.12 273.264 180.872 272.896 180.376C272.528 179.88 272.344 179.084 272.344 177.988ZM273.268 177.964C273.268 178.844 273.372 179.46 273.58 179.812C273.796 180.164 274.24 180.34 274.912 180.34C275.592 180.34 276.036 180.168 276.244 179.824C276.452 179.472 276.556 178.856 276.556 177.976C276.556 177.096 276.44 176.492 276.208 176.164C275.976 175.828 275.544 175.66 274.912 175.66C274.288 175.66 273.856 175.828 273.616 176.164C273.384 176.492 273.268 177.092 273.268 177.964ZM278.948 175H279.836V177.58H282.944V175H283.832V181H282.944V178.36H279.836V181H278.948V175ZM285.557 175H286.445V177.58H289.553V175H290.441V181H289.553V178.36H286.445V181H285.557V175ZM294.567 178.192C294.927 178.192 295.179 178.268 295.323 178.42C295.467 178.58 295.535 178.852 295.527 179.236C295.519 179.612 295.455 179.872 295.335 180.016C295.215 180.16 294.959 180.232 294.567 180.232H293.055V178.192H294.567ZM294.567 181C295.191 181 295.655 180.868 295.959 180.604C296.263 180.332 296.415 179.876 296.415 179.236C296.415 178.612 296.267 178.156 295.971 177.868C295.683 177.572 295.227 177.424 294.603 177.424H293.055V175H292.167V181H294.567ZM297.279 175V181H298.155V175H297.279ZM299.278 175H300.262L301.726 177.352L303.19 175H304.174L302.266 177.976L304.162 181H303.178L301.726 178.66L300.262 181H299.278L301.162 178L299.278 175ZM307.94 175H312.824V181H311.936V175.78H308.828V181H307.94V175ZM318.138 181V175.78H316.014C315.942 176.956 315.878 177.78 315.822 178.252C315.766 178.716 315.726 179.028 315.702 179.188C315.678 179.34 315.658 179.464 315.642 179.56C315.522 180.16 315.35 180.56 315.126 180.76C314.902 180.952 314.502 181.052 313.926 181.06V180.292C314.222 180.284 314.43 180.22 314.55 180.1C314.67 179.972 314.774 179.676 314.862 179.212C314.958 178.748 315.046 177.832 315.126 176.464L315.21 175H319.026V181H318.138ZM324.985 176.812V179.884C325.009 180.18 325.241 180.356 325.681 180.412L325.645 181.12C325.013 181.12 324.537 180.96 324.217 180.64C323.497 180.96 322.777 181.12 322.057 181.12C321.505 181.12 321.085 180.964 320.797 180.652C320.509 180.34 320.365 179.892 320.365 179.308C320.365 178.724 320.513 178.296 320.809 178.024C321.105 177.744 321.569 177.572 322.201 177.508L324.085 177.328V176.812C324.085 176.404 323.997 176.112 323.821 175.936C323.645 175.76 323.405 175.672 323.101 175.672C322.461 175.672 321.797 175.712 321.109 175.792L320.737 175.828L320.701 175.144C321.581 174.968 322.361 174.88 323.041 174.88C323.721 174.88 324.213 175.036 324.517 175.348C324.829 175.66 324.985 176.148 324.985 176.812ZM321.289 179.26C321.289 179.996 321.593 180.364 322.201 180.364C322.745 180.364 323.281 180.272 323.809 180.088L324.085 179.992V178.012L322.309 178.18C321.949 178.212 321.689 178.316 321.529 178.492C321.369 178.668 321.289 178.924 321.289 179.26ZM326.76 175H327.648V177.58H330.756V175H331.644V181H330.756V178.36H327.648V181H326.76V175ZM333.106 177.988C333.106 176.892 333.302 176.1 333.694 175.612C334.086 175.124 334.746 174.88 335.674 174.88C336.61 174.88 337.27 175.124 337.654 175.612C338.046 176.1 338.242 176.892 338.242 177.988C338.242 179.084 338.058 179.88 337.69 180.376C337.322 180.872 336.65 181.12 335.674 181.12C334.698 181.12 334.026 180.872 333.658 180.376C333.29 179.88 333.106 179.084 333.106 177.988ZM334.03 177.964C334.03 178.844 334.134 179.46 334.342 179.812C334.558 180.164 335.002 180.34 335.674 180.34C336.354 180.34 336.798 180.168 337.006 179.824C337.214 179.472 337.318 178.856 337.318 177.976C337.318 177.096 337.202 176.492 336.97 176.164C336.738 175.828 336.306 175.66 335.674 175.66C335.05 175.66 334.618 175.828 334.378 176.164C334.146 176.492 334.03 177.092 334.03 177.964ZM343.418 179.272C343.426 179.616 343.334 179.868 343.142 180.028C342.958 180.18 342.626 180.256 342.146 180.256H340.598V178.264H342.278C343.03 178.264 343.41 178.6 343.418 179.272ZM343.31 176.644C343.31 177.236 342.962 177.532 342.266 177.532H340.598V175.756H342.338C342.986 175.756 343.31 176.052 343.31 176.644ZM342.134 181C343.622 181 344.366 180.424 344.366 179.272C344.366 178.984 344.298 178.7 344.162 178.42C344.026 178.132 343.814 177.936 343.526 177.832C343.622 177.792 343.706 177.74 343.778 177.676C343.85 177.604 343.918 177.528 343.982 177.448C344.15 177.2 344.23 176.9 344.222 176.548C344.214 175.516 343.578 175 342.314 175H339.71V181H342.134Z" fill="#B6B6DD"/>
<rect x="205.5" y="92.5" width="149" height="113" rx="9.5" stroke="url(#paint7_linear_34_218)" shape-rendering="crispEdges"/>
</g>
<g filter="url(#filter4_bd_34_218)">
<rect x="362" y="45" width="150" height="114" rx="10" fill="url(#paint8_radial_34_218)" fill-opacity="0.5" shape-rendering="crispEdges"/>
<path d="M377.325 80.16C379.512 80.16 381.285 80.5733 382.645 81.4C385.525 83.1067 386.965 87.3733 386.965 94.2C386.965 99.0267 386.165 102.44 384.565 104.44C382.965 106.413 380.565 107.4 377.365 107.4C374.165 107.4 371.752 106.427 370.125 104.48C368.525 102.507 367.725 99.0133 367.725 94C367.725 88.96 368.512 85.4 370.085 83.32C371.685 81.2133 374.098 80.16 377.325 80.16ZM377.365 82.92C375.845 82.92 374.645 83.24 373.765 83.88C371.872 85.1867 370.925 88.64 370.925 94.24C370.925 98.1867 371.445 100.92 372.485 102.44C373.525 103.933 375.152 104.68 377.365 104.68C379.578 104.68 381.205 103.92 382.245 102.4C383.285 100.88 383.805 98.0667 383.805 93.96C383.805 89.8267 383.298 86.96 382.285 85.36C381.298 83.7333 379.658 82.92 377.365 82.92ZM389.908 111.92L391.748 102.72H395.068L392.388 111.92H389.908ZM400.334 81.28C402.841 80.5333 405.521 80.16 408.374 80.16C411.254 80.16 413.334 80.7067 414.614 81.8C415.894 82.8933 416.534 84.64 416.534 87.04C416.534 88.2667 416.361 89.16 416.014 89.72C415.694 90.2533 415.427 90.6667 415.214 90.96C415.027 91.2533 414.774 91.5333 414.454 91.8C413.867 92.2533 413.401 92.5733 413.054 92.76L412.614 93.04C414.161 93.6 415.307 94.32 416.054 95.2C416.801 96.0533 417.174 97.4667 417.174 99.44C417.174 102.133 416.481 104.133 415.094 105.44C413.734 106.747 411.574 107.4 408.614 107.4C406.267 107.4 403.787 107.133 401.174 106.6L399.934 106.32L400.214 103.8C403.094 104.387 405.787 104.68 408.294 104.68C412.107 104.653 414.014 102.947 414.014 99.56C414.014 96.3867 412.201 94.7333 408.574 94.6H403.254V91.96H408.574C409.694 91.96 410.774 91.52 411.814 90.64C412.854 89.7333 413.374 88.5467 413.374 87.08C413.374 85.6133 412.961 84.56 412.134 83.92C411.307 83.2533 409.921 82.92 407.974 82.92C405.841 82.92 403.734 83.12 401.654 83.52L400.614 83.72L400.334 81.28ZM422.557 97.4V94.6H434.677V97.4H422.557ZM452.936 80.6V107H449.856V84.04L443.056 88.52L441.656 86.2L450.056 80.6H452.936ZM461.119 111.92L462.959 102.72H466.279L463.599 111.92H461.119ZM472.865 81.92C474.545 80.7467 476.852 80.16 479.785 80.16C482.718 80.16 485.038 80.7467 486.745 81.92C488.478 83.0667 489.345 84.7733 489.345 87.04C489.345 88.6933 489.012 89.96 488.345 90.84C487.678 91.6933 486.545 92.48 484.945 93.2C486.545 93.92 487.745 94.7733 488.545 95.76C489.345 96.72 489.745 98.08 489.745 99.84C489.745 104.88 486.438 107.4 479.825 107.4C473.238 107.4 469.945 105.027 469.945 100.28C469.945 98.3867 470.305 96.9467 471.025 95.96C471.772 94.9733 472.932 94.0533 474.505 93.2C473.065 92.48 472.012 91.6667 471.345 90.76C470.705 89.8267 470.385 88.5733 470.385 87C470.385 84.76 471.212 83.0667 472.865 81.92ZM473.225 99.76C473.225 102.987 475.425 104.6 479.825 104.6C484.252 104.6 486.465 102.907 486.465 99.52C486.465 98.1067 486.065 97.0667 485.265 96.4C484.492 95.7067 483.332 95.1333 481.785 94.68H477.585C476.118 95.08 475.025 95.68 474.305 96.48C473.585 97.2533 473.225 98.3467 473.225 99.76ZM486.065 87.4C486.065 84.44 483.998 82.96 479.865 82.96C475.732 82.96 473.665 84.4267 473.665 87.36C473.665 88.5333 473.985 89.48 474.625 90.2C475.265 90.92 476.252 91.52 477.585 92H481.785C483.225 91.5467 484.292 90.96 484.985 90.24C485.705 89.52 486.065 88.5733 486.065 87.4ZM495.698 107.12L501.848 86.57L503.288 87.05L497.138 107.54L495.698 107.12ZM491.888 91.04C491.888 88.28 492.988 86.9 495.188 86.9C497.388 86.9 498.488 88.28 498.488 91.04C498.488 92.46 498.198 93.52 497.618 94.22C497.038 94.92 496.228 95.27 495.188 95.27C494.148 95.27 493.338 94.92 492.758 94.22C492.178 93.52 491.888 92.46 491.888 91.04ZM493.718 91.04C493.718 92.84 494.208 93.74 495.188 93.74C496.188 93.74 496.688 92.84 496.688 91.04C496.688 90.14 496.568 89.48 496.328 89.06C496.108 88.64 495.728 88.43 495.188 88.43C494.668 88.43 494.288 88.64 494.048 89.06C493.828 89.48 493.718 90.14 493.718 91.04ZM500.438 103.04C500.438 100.3 501.528 98.93 503.708 98.93C505.908 98.93 507.008 100.31 507.008 103.07C507.008 104.47 506.718 105.53 506.138 106.25C505.558 106.95 504.748 107.3 503.708 107.3C502.668 107.3 501.858 106.95 501.278 106.25C500.718 105.53 500.438 104.46 500.438 103.04ZM502.238 103.04C502.238 104.86 502.728 105.77 503.708 105.77C504.268 105.77 504.658 105.55 504.878 105.11C505.098 104.67 505.208 103.99 505.208 103.07C505.208 102.15 505.098 101.49 504.878 101.09C504.658 100.67 504.278 100.46 503.738 100.46C503.198 100.46 502.808 100.67 502.568 101.09C502.348 101.49 502.238 102.14 502.238 103.04Z" fill="white"/>
<path d="M389.606 128.232C390.07 127.36 390.302 126.384 390.302 125.304V123H394.37V128.232H394.946V130.332H394.07V129.012H389.99V130.332H389.126V128.232H389.606ZM391.154 125.388C391.154 125.972 391.098 126.496 390.986 126.96C390.874 127.416 390.73 127.84 390.554 128.232H393.494V123.78H391.154V125.388ZM395.963 125.988C395.963 124.892 396.159 124.1 396.551 123.612C396.943 123.124 397.603 122.88 398.531 122.88C399.467 122.88 400.127 123.124 400.511 123.612C400.903 124.1 401.099 124.892 401.099 125.988C401.099 127.084 400.915 127.88 400.547 128.376C400.179 128.872 399.507 129.12 398.531 129.12C397.555 129.12 396.883 128.872 396.515 128.376C396.147 127.88 395.963 127.084 395.963 125.988ZM396.887 125.964C396.887 126.844 396.991 127.46 397.199 127.812C397.415 128.164 397.859 128.34 398.531 128.34C399.211 128.34 399.655 128.168 399.863 127.824C400.071 127.472 400.175 126.856 400.175 125.976C400.175 125.096 400.059 124.492 399.827 124.164C399.595 123.828 399.163 123.66 398.531 123.66C397.907 123.66 397.475 123.828 397.235 124.164C397.003 124.492 396.887 125.092 396.887 125.964ZM401.85 123H402.834L404.298 125.352L405.762 123H406.746L404.838 125.976L406.734 129H405.75L404.298 126.66L402.834 129H401.85L403.734 126L401.85 123ZM407.495 125.988C407.495 124.892 407.691 124.1 408.083 123.612C408.475 123.124 409.135 122.88 410.063 122.88C410.999 122.88 411.659 123.124 412.043 123.612C412.435 124.1 412.631 124.892 412.631 125.988C412.631 127.084 412.447 127.88 412.079 128.376C411.711 128.872 411.039 129.12 410.063 129.12C409.087 129.12 408.415 128.872 408.047 128.376C407.679 127.88 407.495 127.084 407.495 125.988ZM408.419 125.964C408.419 126.844 408.523 127.46 408.731 127.812C408.947 128.164 409.391 128.34 410.063 128.34C410.743 128.34 411.187 128.168 411.395 127.824C411.603 127.472 411.707 126.856 411.707 125.976C411.707 125.096 411.591 124.492 411.359 124.164C411.127 123.828 410.695 123.66 410.063 123.66C409.439 123.66 409.007 123.828 408.767 124.164C408.535 124.492 408.419 125.092 408.419 125.964ZM414.074 128.232C414.538 127.36 414.77 126.384 414.77 125.304V123H418.838V128.232H419.414V130.332H418.538V129.012H414.458V130.332H413.594V128.232H414.074ZM415.622 125.388C415.622 125.972 415.566 126.496 415.454 126.96C415.342 127.416 415.198 127.84 415.022 128.232H417.962V123.78H415.622V125.388ZM420.696 123H421.584V125.58H424.692V123H425.58V129H424.692V126.36H421.584V129H420.696V123ZM427.041 125.988C427.041 124.892 427.237 124.1 427.629 123.612C428.021 123.124 428.681 122.88 429.609 122.88C430.545 122.88 431.205 123.124 431.589 123.612C431.981 124.1 432.177 124.892 432.177 125.988C432.177 127.084 431.993 127.88 431.625 128.376C431.257 128.872 430.585 129.12 429.609 129.12C428.633 129.12 427.961 128.872 427.593 128.376C427.225 127.88 427.041 127.084 427.041 125.988ZM427.965 125.964C427.965 126.844 428.069 127.46 428.277 127.812C428.493 128.164 428.937 128.34 429.609 128.34C430.289 128.34 430.733 128.168 430.941 127.824C431.149 127.472 431.253 126.856 431.253 125.976C431.253 125.096 431.137 124.492 430.905 124.164C430.673 123.828 430.241 123.66 429.609 123.66C428.985 123.66 428.553 123.828 428.313 124.164C428.081 124.492 427.965 125.092 427.965 125.964ZM435.889 122.88C436.153 122.88 436.601 122.928 437.233 123.024L437.521 123.06L437.485 123.792C436.845 123.72 436.373 123.684 436.069 123.684C435.389 123.684 434.925 123.848 434.677 124.176C434.437 124.496 434.317 125.096 434.317 125.976C434.317 126.848 434.429 127.456 434.653 127.8C434.885 128.144 435.361 128.316 436.081 128.316L437.497 128.208L437.533 128.952C436.789 129.064 436.233 129.12 435.865 129.12C434.929 129.12 434.281 128.88 433.921 128.4C433.569 127.92 433.393 127.112 433.393 125.976C433.393 124.832 433.585 124.032 433.969 123.576C434.353 123.112 434.993 122.88 435.889 122.88ZM438.368 123H443.456V123.768H441.356V129H440.468V123.768H438.368V123ZM447.084 126.192C447.444 126.192 447.696 126.268 447.84 126.42C447.984 126.58 448.052 126.852 448.044 127.236C448.036 127.612 447.972 127.872 447.852 128.016C447.732 128.16 447.476 128.232 447.084 128.232H445.572V126.192H447.084ZM447.084 129C447.708 129 448.172 128.868 448.476 128.604C448.78 128.332 448.932 127.876 448.932 127.236C448.932 126.612 448.784 126.156 448.488 125.868C448.2 125.572 447.744 125.424 447.12 125.424H445.572V123H444.684V129H447.084ZM456.525 127.272C456.533 127.616 456.441 127.868 456.249 128.028C456.065 128.18 455.733 128.256 455.253 128.256H453.705V126.264H455.385C456.137 126.264 456.517 126.6 456.525 127.272ZM456.417 124.644C456.417 125.236 456.069 125.532 455.373 125.532H453.705V123.756H455.445C456.093 123.756 456.417 124.052 456.417 124.644ZM455.241 129C456.729 129 457.473 128.424 457.473 127.272C457.473 126.984 457.405 126.7 457.269 126.42C457.133 126.132 456.921 125.936 456.633 125.832C456.729 125.792 456.813 125.74 456.885 125.676C456.957 125.604 457.025 125.528 457.089 125.448C457.257 125.2 457.337 124.9 457.329 124.548C457.321 123.516 456.685 123 455.421 123H452.817V129H455.241ZM461.313 128.232C461.777 127.36 462.009 126.384 462.009 125.304V123H466.077V128.232H466.653V130.332H465.777V129.012H461.697V130.332H460.833V128.232H461.313ZM462.861 125.388C462.861 125.972 462.805 126.496 462.693 126.96C462.581 127.416 462.437 127.84 462.261 128.232H465.201V123.78H462.861V125.388ZM472.014 128.256L472.362 128.22L472.386 128.928C471.474 129.056 470.694 129.12 470.046 129.12C469.182 129.12 468.57 128.872 468.21 128.376C467.85 127.872 467.67 127.092 467.67 126.036C467.67 123.932 468.506 122.88 470.178 122.88C470.986 122.88 471.59 123.108 471.99 123.564C472.39 124.012 472.59 124.72 472.59 125.688L472.542 126.372H468.582C468.582 127.036 468.702 127.528 468.942 127.848C469.182 128.168 469.598 128.328 470.19 128.328C470.79 128.328 471.398 128.304 472.014 128.256ZM471.69 125.652C471.69 124.916 471.57 124.396 471.33 124.092C471.098 123.788 470.714 123.636 470.178 123.636C469.65 123.636 469.25 123.796 468.978 124.116C468.714 124.436 468.578 124.948 468.57 125.652H471.69ZM473.993 123H474.881V125.58H477.989V123H478.877V129H477.989V126.36H474.881V129H473.993V123ZM483.002 126.192C483.362 126.192 483.614 126.268 483.758 126.42C483.902 126.58 483.97 126.852 483.962 127.236C483.954 127.612 483.89 127.872 483.77 128.016C483.65 128.16 483.394 128.232 483.002 128.232H481.49V126.192H483.002ZM483.002 129C483.626 129 484.09 128.868 484.394 128.604C484.698 128.332 484.85 127.876 484.85 127.236C484.85 126.612 484.702 126.156 484.406 125.868C484.118 125.572 483.662 125.424 483.038 125.424H481.49V123H480.602V129H483.002Z" fill="#B6B6DD"/>
<rect x="362.5" y="45.5" width="149" height="113" rx="9.5" stroke="url(#paint9_linear_34_218)" shape-rendering="crispEdges"/>
</g>
<defs>
<filter id="filter0_bd_34_218" x="0" y="0" width="248" height="212" filterUnits="userSpaceOnUse" color-interpolation-filters="sRGB">
<feFlood flood-opacity="0" result="BackgroundImageFix"/>
<feGaussianBlur in="BackgroundImageFix" stdDeviation="10.5"/>
<feComposite in2="SourceAlpha" operator="in" result="effect1_backgroundBlur_34_218"/>
<feColorMatrix in="SourceAlpha" type="matrix" values="0 0 0 0 0 0 0 0 0 0 0 0 0 0 0 0 0 0 127 0" result="hardAlpha"/>
<feOffset dy="4"/>
<feGaussianBlur stdDeviation="24.5"/>
<feComposite in2="hardAlpha" operator="out"/>
<feColorMatrix type="matrix" values="0 0 0 0 0 0 0 0 0 0 0 0 0 0 0 0 0 0 0.15 0"/>
<feBlend mode="normal" in2="effect1_backgroundBlur_34_218" result="effect2_dropShadow_34_218"/>
<feBlend mode="normal" in="SourceGraphic" in2="effect2_dropShadow_34_218" result="shape"/>
</filter>
<filter id="filter1_bd_34_218" x="0" y="120" width="248" height="139" filterUnits="userSpaceOnUse" color-interpolation-filters="sRGB">
<feFlood flood-opacity="0" result="BackgroundImageFix"/>
<feGaussianBlur in="BackgroundImageFix" stdDeviation="10.5"/>
<feComposite in2="SourceAlpha" operator="in" result="effect1_backgroundBlur_34_218"/>
<feColorMatrix in="SourceAlpha" type="matrix" values="0 0 0 0 0 0 0 0 0 0 0 0 0 0 0 0 0 0 127 0" result="hardAlpha"/>
<feOffset dy="4"/>
<feGaussianBlur stdDeviation="24.5"/>
<feComposite in2="hardAlpha" operator="out"/>
<feColorMatrix type="matrix" values="0 0 0 0 0 0 0 0 0 0 0 0 0 0 0 0 0 0 0.15 0"/>
<feBlend mode="normal" in2="effect1_backgroundBlur_34_218" result="effect2_dropShadow_34_218"/>
<feBlend mode="normal" in="SourceGraphic" in2="effect2_dropShadow_34_218" result="shape"/>
</filter>
<filter id="filter2_bd_34_218" x="156" y="0" width="248" height="139" filterUnits="userSpaceOnUse" color-interpolation-filters="sRGB">
<feFlood flood-opacity="0" result="BackgroundImageFix"/>
<feGaussianBlur in="BackgroundImageFix" stdDeviation="10.5"/>
<feComposite in2="SourceAlpha" operator="in" result="effect1_backgroundBlur_34_218"/>
<feColorMatrix in="SourceAlpha" type="matrix" values="0 0 0 0 0 0 0 0 0 0 0 0 0 0 0 0 0 0 127 0" result="hardAlpha"/>
<feOffset dy="4"/>
<feGaussianBlur stdDeviation="24.5"/>
<feComposite in2="hardAlpha" operator="out"/>
<feColorMatrix type="matrix" values="0 0 0 0 0 0 0 0 0 0 0 0 0 0 0 0 0 0 0.15 0"/>
<feBlend mode="normal" in2="effect1_backgroundBlur_34_218" result="effect2_dropShadow_34_218"/>
<feBlend mode="normal" in="SourceGraphic" in2="effect2_dropShadow_34_218" result="shape"/>
</filter>
<filter id="filter3_bd_34_218" x="156" y="47" width="248" height="212" filterUnits="userSpaceOnUse" color-interpolation-filters="sRGB">
<feFlood flood-opacity="0" result="BackgroundImageFix"/>
<feGaussianBlur in="BackgroundImageFix" stdDeviation="10.5"/>
<feComposite in2="SourceAlpha" operator="in" result="effect1_backgroundBlur_34_218"/>
<feColorMatrix in="SourceAlpha" type="matrix" values="0 0 0 0 0 0 0 0 0 0 0 0 0 0 0 0 0 0 127 0" result="hardAlpha"/>
<feOffset dy="4"/>
<feGaussianBlur stdDeviation="24.5"/>
<feComposite in2="hardAlpha" operator="out"/>
<feColorMatrix type="matrix" values="0 0 0 0 0 0 0 0 0 0 0 0 0 0 0 0 0 0 0.15 0"/>
<feBlend mode="normal" in2="effect1_backgroundBlur_34_218" result="effect2_dropShadow_34_218"/>
<feBlend mode="normal" in="SourceGraphic" in2="effect2_dropShadow_34_218" result="shape"/>
</filter>
<filter id="filter4_bd_34_218" x="313" y="0" width="248" height="212" filterUnits="userSpaceOnUse" color-interpolation-filters="sRGB">
<feFlood flood-opacity="0" result="BackgroundImageFix"/>
<feGaussianBlur in="BackgroundImageFix" stdDeviation="10.5"/>
<feComposite in2="SourceAlpha" operator="in" result="effect1_backgroundBlur_34_218"/>
<feColorMatrix in="SourceAlpha" type="matrix" values="0 0 0 0 0 0 0 0 0 0 0 0 0 0 0 0 0 0 127 0" result="hardAlpha"/>
<feOffset dy="4"/>
<feGaussianBlur stdDeviation="24.5"/>
<feComposite in2="hardAlpha" operator="out"/>
<feColorMatrix type="matrix" values="0 0 0 0 0 0 0 0 0 0 0 0 0 0 0 0 0 0 0.15 0"/>
<feBlend mode="normal" in2="effect1_backgroundBlur_34_218" result="effect2_dropShadow_34_218"/>
<feBlend mode="normal" in="SourceGraphic" in2="effect2_dropShadow_34_218" result="shape"/>
</filter>
<radialGradient id="paint0_radial_34_218" cx="0" cy="0" r="1" gradientUnits="userSpaceOnUse" gradientTransform="translate(53.4408 50.7617) rotate(110.46) scale(145.395 184.197)">
<stop stop-color="#656579"/>
<stop offset="1" stop-color="#282839"/>
</radialGradient>
<linearGradient id="paint1_linear_34_218" x1="49" y1="45" x2="172.523" y2="190.172" gradientUnits="userSpaceOnUse">
<stop stop-opacity="0"/>
<stop offset="1" stop-color="white" stop-opacity="0.42"/>
</linearGradient>
<radialGradient id="paint2_radial_34_218" cx="0" cy="0" r="1" gradientUnits="userSpaceOnUse" gradientTransform="translate(53.4408 167.072) rotate(136.05) scale(70.5918 136.445)">
<stop stop-color="#656579"/>
<stop offset="1" stop-color="#282839"/>
</radialGradient>
<linearGradient id="paint3_linear_34_218" x1="49" y1="165" x2="74.1861" y2="247.303" gradientUnits="userSpaceOnUse">
<stop stop-opacity="0"/>
<stop offset="1" stop-color="white" stop-opacity="0.42"/>
</linearGradient>
<radialGradient id="paint4_radial_34_218" cx="0" cy="0" r="1" gradientUnits="userSpaceOnUse" gradientTransform="translate(209.441 47.0722) rotate(136.05) scale(70.5918 136.445)">
<stop stop-color="#656579"/>
<stop offset="1" stop-color="#282839"/>
</radialGradient>
<linearGradient id="paint5_linear_34_218" x1="205" y1="45" x2="230.186" y2="127.303" gradientUnits="userSpaceOnUse">
<stop stop-opacity="0"/>
<stop offset="1" stop-color="white" stop-opacity="0.42"/>
</linearGradient>
<radialGradient id="paint6_radial_34_218" cx="0" cy="0" r="1" gradientUnits="userSpaceOnUse" gradientTransform="translate(209.441 97.7617) rotate(110.46) scale(145.395 184.197)">
<stop stop-color="#656579"/>
<stop offset="1" stop-color="#282839"/>
</radialGradient>
<linearGradient id="paint7_linear_34_218" x1="205" y1="92" x2="328.523" y2="237.172" gradientUnits="userSpaceOnUse">
<stop stop-opacity="0"/>
<stop offset="1" stop-color="white" stop-opacity="0.42"/>
</linearGradient>
<radialGradient id="paint8_radial_34_218" cx="0" cy="0" r="1" gradientUnits="userSpaceOnUse" gradientTransform="translate(366.441 50.7617) rotate(110.46) scale(145.395 184.197)">
<stop stop-color="#656579"/>
<stop offset="1" stop-color="#282839"/>
</radialGradient>
<linearGradient id="paint9_linear_34_218" x1="362" y1="45" x2="485.523" y2="190.172" gradientUnits="userSpaceOnUse">
<stop stop-opacity="0"/>
<stop offset="1" stop-color="white" stop-opacity="0.42"/>
</linearGradient>
<clipPath id="clip0_34_218">
<rect x="49" y="45" width="150" height="114" rx="10" fill="white"/>
</clipPath>
</defs>
</svg>
