<svg width="1440" height="1065" viewBox="0 0 1440 1065" fill="none" xmlns="http://www.w3.org/2000/svg">
<path d="M715.5 31.4998L527.138 189M509.326 598.84L198.394 484.171C189.086 480.739 187.704 472.82 195.303 466.465L206 457.521M509.326 598.84L559 555.996M509.326 598.84L417 674.572M731.5 1013.5L822.829 913.106M729.464 794.545L757.22 771.455C764.862 765.097 778.619 762.732 787.946 766.172L806.833 773.137" stroke="#6F6F82"/>
<circle cx="41.0452" cy="41.0452" r="41.0452" transform="matrix(0.768766 -0.639527 0.938229 0.346012 657 1036.5)" fill="#7000FF"/>
<path d="M704.567 1032.55C704.016 1031.18 704.701 1029.7 706.623 1028.1C708.545 1026.5 710.733 1025.58 713.187 1025.35C715.642 1025.11 718.605 1025.63 722.076 1026.91C725.529 1028.18 727.493 1029.49 727.97 1030.82C728.442 1032.14 727.718 1033.6 725.796 1035.2C723.889 1036.79 721.739 1037.72 719.344 1038C716.965 1038.27 714.049 1037.76 710.596 1036.49C707.124 1035.21 705.115 1033.9 704.567 1032.55ZM713.277 1027.7C711.768 1027.72 710.46 1028.19 709.353 1029.11C708.246 1030.03 707.963 1030.89 708.503 1031.68C709.039 1032.45 710.593 1033.3 713.164 1034.25C715.734 1035.2 717.763 1035.65 719.25 1035.61C720.733 1035.55 722.012 1035.07 723.089 1034.17C724.18 1033.27 724.477 1032.43 723.978 1031.68C723.475 1030.9 721.938 1030.04 719.368 1029.09C716.797 1028.14 714.767 1027.68 713.277 1027.7ZM715.493 1021.8C716.323 1020.39 717.591 1018.98 719.298 1017.56C721.004 1016.14 722.645 1015.26 724.221 1014.92C725.793 1014.55 727.443 1014.69 729.169 1015.33C729.92 1015.61 730.472 1015.96 730.827 1016.38C731.196 1016.8 731.399 1017.16 731.434 1017.47C731.451 1017.77 731.425 1018.13 731.356 1018.54C732.64 1018.04 733.741 1017.74 734.657 1017.66C735.57 1017.55 736.646 1017.73 737.885 1018.18C739.855 1018.91 740.911 1019.79 741.053 1020.82C741.192 1021.83 740.377 1023.07 738.609 1024.54C737.917 1025.12 737.081 1025.72 736.101 1026.36C735.139 1027 734.337 1027.5 733.695 1027.85L732.755 1028.36L730.496 1027.34C732.562 1026.07 734.241 1024.9 735.533 1023.82C737.359 1022.28 737.287 1021.15 735.317 1020.42C734.416 1020.09 733.493 1020.03 732.547 1020.26C731.601 1020.48 730.727 1020.92 729.924 1021.56L726.857 1024.11L724.239 1023.15L727.307 1020.6C727.875 1020.12 728.117 1019.58 728.03 1018.98C727.941 1018.36 727.492 1017.89 726.686 1017.6C725.86 1017.29 725.035 1017.25 724.21 1017.46C723.401 1017.66 722.627 1018.07 721.889 1018.68C720.675 1019.69 719.553 1020.78 718.524 1021.95L718.065 1022.5L715.493 1021.8Z" fill="white"/>
<circle cx="41.0452" cy="41.0452" r="40.5452" transform="matrix(0.768766 -0.639527 0.938229 0.346012 509.999 102.496)" stroke="#7000FF"/>
<g clip-path="url(#clip0_147_71)">
<path d="M577.89 77.9775L589.345 82.2018C589.345 82.2018 590.484 82.622 591.928 83.5284C590.851 83.9091 589.833 84.384 588.917 84.9459C588.408 85.2576 587.931 85.5969 587.493 85.9611C583.566 89.2278 584.268 93.3082 589.06 95.0756C590.434 95.5823 591.995 95.8435 593.616 95.8815C594.905 95.9127 596.231 95.8019 597.532 95.5614C597.235 96.8241 596.716 98.1867 595.921 99.6532C577.68 107.952 564.316 103.023 564.316 103.023L552.861 98.7989C559.119 93.5935 557.739 85.5719 557.739 85.5719C557.739 85.5719 571.633 83.1828 577.89 77.9775Z" stroke="#B6B6DD" stroke-miterlimit="10" stroke-linecap="round" stroke-linejoin="round"/>
<path d="M603.28 83.2466C608.072 85.014 608.774 89.0944 604.847 92.3611C602.942 93.946 600.297 95.0477 597.532 95.5614C596.231 95.8019 594.905 95.9127 593.616 95.8815C591.995 95.8435 590.434 95.5823 589.06 95.0756C584.268 93.3082 583.566 89.2278 587.493 85.9611C587.931 85.5969 588.408 85.2576 588.917 84.9459C589.833 84.384 590.851 83.9091 591.928 83.5284C593.25 83.0613 594.662 82.736 596.079 82.5687L597.202 89.1039L597.058 89.1288L593.46 89.7474L590.119 90.3219L590.541 92.7761L601.875 90.8272L601.453 88.373L600.456 82.5712C601.451 82.7003 602.404 82.9236 603.28 83.2466Z" stroke="#B6B6DD" stroke-miterlimit="10" stroke-linecap="round" stroke-linejoin="round"/>
<path d="M599.766 78.5566L600.456 82.5712L601.453 88.373L601.875 90.8272L590.541 92.7761L590.119 90.322L593.46 89.7474L597.057 89.1288L597.202 89.1039L596.079 82.5688L595.515 79.2875L599.766 78.5566Z" stroke="#B6B6DD" stroke-miterlimit="10" stroke-linecap="round" stroke-linejoin="round"/>
<path d="M577.701 80.5802L587.119 84.0534C587.119 84.0534 587.889 84.3372 588.917 84.9458C588.408 85.2576 587.931 85.5969 587.493 85.9611C583.566 89.2277 584.268 93.3082 589.06 95.0756C590.434 95.5823 591.995 95.8434 593.616 95.8815C593.364 96.6764 593.007 97.5159 592.527 98.4013C577.529 105.224 566.541 101.172 566.541 101.172L557.123 97.6989C562.268 93.4191 561.134 86.8237 561.134 86.8237C561.134 86.8237 572.557 84.86 577.701 80.5802Z" stroke="#B6B6DD" stroke-miterlimit="10" stroke-linecap="round" stroke-linejoin="round"/>
</g>
<circle cx="41.0452" cy="41.0452" r="41.0452" transform="matrix(0.768766 -0.639527 0.938229 0.346012 603.648 137.033)" fill="#7000FF"/>
<path d="M651.214 133.084C650.663 131.718 651.348 130.235 653.27 128.637C655.192 127.038 657.38 126.119 659.835 125.879C662.289 125.64 665.252 126.16 668.724 127.441C672.176 128.714 674.141 130.02 674.617 131.359C675.09 132.678 674.365 134.136 672.443 135.735C670.537 137.321 668.386 138.254 665.992 138.534C663.612 138.801 660.696 138.298 657.243 137.025C653.772 135.745 651.762 134.431 651.214 133.084ZM659.924 128.238C658.415 128.254 657.108 128.723 656.001 129.644C654.894 130.564 654.61 131.42 655.15 132.21C655.687 132.98 657.241 133.839 659.811 134.787C662.382 135.735 664.411 136.188 665.897 136.146C667.38 136.083 668.66 135.605 669.736 134.709C670.828 133.801 671.124 132.969 670.625 132.212C670.123 131.436 668.586 130.574 666.015 129.626C663.444 128.678 661.414 128.216 659.924 128.238ZM669.368 115.617L687.945 122.468L685.385 124.597L670.355 119.054L669.595 123.066L666.082 123.183L667.016 117.574L669.368 115.617Z" fill="white"/>
<line y1="-0.5" x2="17.724" y2="-0.5" transform="matrix(0.93825 0.345995 -0.768805 0.639513 618.573 104.651)" stroke="#B6B6DD"/>
<circle cx="41.0452" cy="41.0452" r="41.0452" transform="matrix(0.768766 -0.639527 0.938229 0.346012 495 569.499)" fill="#7000FF"/>
<path d="M542.567 565.55C542.016 564.184 542.701 562.701 544.623 561.103C546.545 559.504 548.733 558.585 551.187 558.345C553.642 558.106 556.605 558.626 560.076 559.907C563.529 561.18 565.493 562.486 565.97 563.825C566.443 565.144 565.718 566.602 563.796 568.201C561.89 569.787 559.739 570.72 557.344 571C554.965 571.267 552.049 570.764 548.596 569.491C545.125 568.21 543.115 566.897 542.567 565.55ZM551.277 560.704C549.768 560.72 548.46 561.189 547.353 562.11C546.246 563.03 545.963 563.886 546.503 564.676C547.039 565.446 548.593 566.305 551.164 567.253C553.735 568.201 555.763 568.654 557.25 568.612C558.733 568.549 560.013 568.07 561.089 567.175C562.181 566.267 562.477 565.435 561.978 564.678C561.475 563.902 559.939 563.04 557.368 562.092C554.797 561.144 552.767 560.682 551.277 560.704ZM581.304 553.265L571.502 561.419L568.829 560.432L567.859 555.561C567.571 554.089 567.254 553.012 566.908 552.331C566.563 551.649 565.911 551.132 564.954 550.779C563.979 550.42 563.061 550.349 562.203 550.568C561.344 550.786 560.407 551.318 559.392 552.162C558.439 552.955 557.517 553.88 556.627 554.936L556.163 555.457L553.524 554.678C554.472 553.236 555.745 551.851 557.344 550.52C560.527 547.873 563.844 547.186 567.297 548.459C568.648 548.957 569.575 549.594 570.077 550.37C570.595 551.134 570.935 552.293 571.097 553.848L571.701 557.975L578.574 552.258L581.304 553.265Z" fill="white"/>
<defs>
<clipPath id="clip0_147_71">
<rect width="43.8437" height="43.8437" fill="white" transform="matrix(0.768763 -0.639529 0.938227 0.346013 542.563 96.4237)"/>
</clipPath>
</defs>
</svg>
