<svg width="609" height="231" viewBox="0 0 609 231" fill="none" xmlns="http://www.w3.org/2000/svg">
<path d="M151.049 14.432C151.049 16.764 151.357 18.4433 151.973 19.47C152.589 20.482 153.799 20.988 155.603 20.988C157.422 20.988 158.639 20.4893 159.255 19.492C159.871 18.4947 160.179 16.83 160.179 14.498C160.179 12.1513 159.857 10.4353 159.211 9.35C158.566 8.26467 157.363 7.722 155.603 7.722C153.785 7.722 152.56 8.30867 151.929 9.482C151.592 10.0833 151.357 10.7727 151.225 11.55C151.108 12.3273 151.049 13.288 151.049 14.432ZM161.587 14.476C161.587 17.204 161.155 19.1767 160.289 20.394C159.439 21.6113 157.877 22.22 155.603 22.22C153.345 22.22 151.783 21.5967 150.917 20.35C150.067 19.1033 149.641 17.138 149.641 14.454C149.641 11.7553 150.074 9.75333 150.939 8.448C151.805 7.14267 153.359 6.49 155.603 6.49C157.847 6.49 159.402 7.14267 160.267 8.448C161.147 9.73867 161.587 11.748 161.587 14.476ZM171.534 16.456C171.534 18.04 171.321 19.1767 170.896 19.866C170.47 20.5553 169.634 20.9 168.388 20.9C167.669 20.9 167.097 20.7827 166.672 20.548C166.261 20.3133 165.946 19.998 165.726 19.602C165.506 19.1913 165.359 18.7147 165.286 18.172C165.227 17.6293 165.198 17.0573 165.198 16.456C165.198 15.8547 165.234 15.29 165.308 14.762C165.381 14.2193 165.535 13.75 165.77 13.354C166.004 12.958 166.334 12.65 166.76 12.43C167.185 12.1953 167.757 12.078 168.476 12.078C169.722 12.078 170.544 12.408 170.94 13.068C171.336 13.7427 171.534 14.872 171.534 16.456ZM168.564 10.868C167.918 10.868 167.339 10.978 166.826 11.198C166.312 11.4033 165.858 11.7553 165.462 12.254C165.696 11.0073 166.136 10.0687 166.782 9.438C167.427 8.79267 168.388 8.41867 169.664 8.316C170.896 8.228 171.622 8.12533 171.842 8.008C172.047 7.89067 172.179 7.7 172.238 7.436C172.311 7.172 172.348 6.93 172.348 6.71H171.336C171.262 6.85667 171.182 6.93733 171.094 6.952C171.035 6.96667 170.925 6.98133 170.764 6.996C170.617 7.01067 170.404 7.03267 170.126 7.062C167.72 7.282 166.122 7.986 165.33 9.174C164.508 10.362 164.024 12.2613 163.878 14.872C163.863 15.2093 163.863 15.6273 163.878 16.126C163.892 16.6247 163.922 17.204 163.966 17.864C164.054 19.3013 164.486 20.372 165.264 21.076C166.056 21.78 167.17 22.132 168.608 22.132C169.517 22.132 170.243 21.9853 170.786 21.692C171.343 21.3987 171.768 20.9953 172.062 20.482C172.37 19.9687 172.575 19.3673 172.678 18.678C172.795 17.9887 172.854 17.2553 172.854 16.478C172.883 14.5127 172.575 13.0827 171.93 12.188C171.299 11.308 170.177 10.868 168.564 10.868ZM175.511 11H176.809V20.834H180.659V11H181.957V20.834H185.807V11H187.105V20.834H188.315V24.728H187.039V22H175.511V11ZM198.075 22.022V12.276H197.899L192.575 22.022H190.507V11H191.805V20.658H191.981L197.305 11H199.373V22.022H198.075ZM209.806 22.022V12.276H209.63L204.306 22.022H202.238V11H203.536V20.658H203.712L209.036 11H211.104V22.022H209.806ZM205.186 7.458C205.538 7.82467 206.029 8.008 206.66 8.008C207.29 8.008 207.782 7.82467 208.134 7.458C208.5 7.09133 208.691 6.622 208.706 6.05H209.85C209.82 6.91533 209.512 7.634 208.926 8.206C208.354 8.76333 207.598 9.042 206.66 9.042C205.721 9.042 204.966 8.76333 204.394 8.206C203.822 7.634 203.521 6.91533 203.492 6.05H204.614C204.628 6.63667 204.819 7.106 205.186 7.458ZM218.56 16.478C218.56 14.41 218.905 12.9433 219.594 12.078C220.298 11.2127 221.486 10.78 223.158 10.78C224.845 10.78 226.033 11.2127 226.722 12.078C227.426 12.9433 227.778 14.41 227.778 16.478C227.778 18.546 227.455 20.02 226.81 20.9C226.179 21.78 224.969 22.22 223.18 22.22C221.391 22.22 220.173 21.78 219.528 20.9C218.883 20.02 218.56 18.546 218.56 16.478ZM219.924 16.434C219.924 18.1793 220.122 19.3893 220.518 20.064C220.929 20.724 221.809 21.054 223.158 21.054C224.522 21.054 225.409 20.7167 225.82 20.042C226.231 19.3673 226.436 18.172 226.436 16.456C226.436 14.7253 226.201 13.5447 225.732 12.914C225.277 12.2687 224.427 11.946 223.18 11.946C221.933 11.946 221.075 12.2613 220.606 12.892C220.151 13.5227 219.924 14.7033 219.924 16.434ZM237.62 16.456C237.62 18.04 237.407 19.1767 236.982 19.866C236.556 20.5553 235.72 20.9 234.474 20.9C233.755 20.9 233.183 20.7827 232.758 20.548C232.347 20.3133 232.032 19.998 231.812 19.602C231.592 19.1913 231.445 18.7147 231.372 18.172C231.313 17.6293 231.284 17.0573 231.284 16.456C231.284 15.8547 231.32 15.29 231.394 14.762C231.467 14.2193 231.621 13.75 231.856 13.354C232.09 12.958 232.42 12.65 232.846 12.43C233.271 12.1953 233.843 12.078 234.562 12.078C235.808 12.078 236.63 12.408 237.026 13.068C237.422 13.7427 237.62 14.872 237.62 16.456ZM234.65 10.868C234.004 10.868 233.425 10.978 232.912 11.198C232.398 11.4033 231.944 11.7553 231.548 12.254C231.782 11.0073 232.222 10.0687 232.868 9.438C233.513 8.79267 234.474 8.41867 235.75 8.316C236.982 8.228 237.708 8.12533 237.928 8.008C238.133 7.89067 238.265 7.7 238.324 7.436C238.397 7.172 238.434 6.93 238.434 6.71H237.422C237.348 6.85667 237.268 6.93733 237.18 6.952C237.121 6.96667 237.011 6.98133 236.85 6.996C236.703 7.01067 236.49 7.03267 236.212 7.062C233.806 7.282 232.208 7.986 231.416 9.174C230.594 10.362 230.11 12.2613 229.964 14.872C229.949 15.2093 229.949 15.6273 229.964 16.126C229.978 16.6247 230.008 17.204 230.052 17.864C230.14 19.3013 230.572 20.372 231.35 21.076C232.142 21.78 233.256 22.132 234.694 22.132C235.603 22.132 236.329 21.9853 236.872 21.692C237.429 21.3987 237.854 20.9953 238.148 20.482C238.456 19.9687 238.661 19.3673 238.764 18.678C238.881 17.9887 238.94 17.2553 238.94 16.478C238.969 14.5127 238.661 13.0827 238.016 12.188C237.385 11.308 236.263 10.868 234.65 10.868ZM241.355 16.478C241.355 14.41 241.7 12.9433 242.389 12.078C243.093 11.2127 244.281 10.78 245.953 10.78C247.64 10.78 248.828 11.2127 249.517 12.078C250.221 12.9433 250.573 14.41 250.573 16.478C250.573 18.546 250.25 20.02 249.605 20.9C248.974 21.78 247.764 22.22 245.975 22.22C244.186 22.22 242.968 21.78 242.323 20.9C241.678 20.02 241.355 18.546 241.355 16.478ZM242.719 16.434C242.719 18.1793 242.917 19.3893 243.313 20.064C243.724 20.724 244.604 21.054 245.953 21.054C247.317 21.054 248.204 20.7167 248.615 20.042C249.026 19.3673 249.231 18.172 249.231 16.456C249.231 14.7253 248.996 13.5447 248.527 12.914C248.072 12.2687 247.222 11.946 245.975 11.946C244.728 11.946 243.87 12.2613 243.401 12.892C242.946 13.5227 242.719 14.7033 242.719 16.434ZM253.419 26.95V11H254.717V11.836C255.861 11.132 257.063 10.78 258.325 10.78C259.601 10.78 260.547 11.2273 261.163 12.122C261.793 13.0167 262.109 14.476 262.109 16.5C262.109 18.5093 261.742 19.9687 261.009 20.878C260.275 21.7727 259.058 22.22 257.357 22.22C256.447 22.22 255.567 22.1247 254.717 21.934V26.95H253.419ZM258.061 11.968C257.577 11.968 257.056 12.0487 256.499 12.21C255.941 12.3713 255.509 12.54 255.201 12.716L254.717 12.958V20.79C255.714 20.966 256.579 21.054 257.313 21.054C258.574 21.054 259.461 20.702 259.975 19.998C260.488 19.2793 260.745 18.106 260.745 16.478C260.745 14.8353 260.517 13.6767 260.063 13.002C259.623 12.3127 258.955 11.968 258.061 11.968ZM264.472 16.478C264.472 14.41 264.817 12.9433 265.506 12.078C266.21 11.2127 267.398 10.78 269.07 10.78C270.757 10.78 271.945 11.2127 272.634 12.078C273.338 12.9433 273.69 14.41 273.69 16.478C273.69 18.546 273.368 20.02 272.722 20.9C272.092 21.78 270.882 22.22 269.092 22.22C267.303 22.22 266.086 21.78 265.44 20.9C264.795 20.02 264.472 18.546 264.472 16.478ZM265.836 16.434C265.836 18.1793 266.034 19.3893 266.43 20.064C266.841 20.724 267.721 21.054 269.07 21.054C270.434 21.054 271.322 20.7167 271.732 20.042C272.143 19.3673 272.348 18.172 272.348 16.456C272.348 14.7253 272.114 13.5447 271.644 12.914C271.19 12.2687 270.339 11.946 269.092 11.946C267.846 11.946 266.988 12.2613 266.518 12.892C266.064 13.5227 265.836 14.7033 265.836 16.434ZM275.331 11H284.549V12.166H280.589V22H279.291V12.166H275.331V11ZM295.774 10.78C296.434 10.78 297.219 10.8533 298.128 11L298.634 11.066L298.568 12.188C297.41 12.0413 296.552 11.968 295.994 11.968C294.689 11.968 293.794 12.2907 293.31 12.936C292.826 13.5667 292.584 14.74 292.584 16.456C292.584 18.1573 292.804 19.3453 293.244 20.02C293.684 20.6947 294.601 21.032 295.994 21.032L298.612 20.834L298.656 21.956C297.351 22.132 296.383 22.22 295.752 22.22C294.007 22.22 292.812 21.7873 292.166 20.922C291.536 20.0567 291.22 18.568 291.22 16.456C291.22 14.344 291.565 12.87 292.254 12.034C292.958 11.198 294.132 10.78 295.774 10.78ZM300.21 11H309.428V12.166H305.468V22H304.17V12.166H300.21V11ZM311.727 26.95V11H313.025V11.836C314.169 11.132 315.372 10.78 316.633 10.78C317.909 10.78 318.855 11.2273 319.471 12.122C320.102 13.0167 320.417 14.476 320.417 16.5C320.417 18.5093 320.05 19.9687 319.317 20.878C318.584 21.7727 317.366 22.22 315.665 22.22C314.756 22.22 313.876 22.1247 313.025 21.934V26.95H311.727ZM316.369 11.968C315.885 11.968 315.364 12.0487 314.807 12.21C314.25 12.3713 313.817 12.54 313.509 12.716L313.025 12.958V20.79C314.022 20.966 314.888 21.054 315.621 21.054C316.882 21.054 317.77 20.702 318.283 19.998C318.796 19.2793 319.053 18.106 319.053 16.478C319.053 14.8353 318.826 13.6767 318.371 13.002C317.931 12.3127 317.264 11.968 316.369 11.968ZM323.947 25.806C324.284 25.8207 324.533 25.8207 324.695 25.806C325.267 25.762 325.714 25.2633 326.037 24.31L326.807 22H325.597L322.297 11H323.639L326.565 20.878H327.203L330.349 11H331.647L327.247 24.508C326.851 25.4907 326.455 26.1507 326.059 26.488C325.677 26.8253 325.164 26.994 324.519 26.994C324.284 27.0087 324.093 26.994 323.947 26.95V25.806ZM334.805 15.84L336.675 15.796L340.063 11H341.581L337.819 16.302L341.757 22H340.217L336.697 16.962L334.805 17.006V22H333.507V11H334.805V15.84ZM342.856 11H352.074V12.166H348.114V22H346.816V12.166H342.856V11ZM355.078 25.806C355.415 25.8207 355.664 25.8207 355.826 25.806C356.398 25.762 356.845 25.2633 357.168 24.31L357.938 22H356.728L353.428 11H354.77L357.696 20.878H358.334L361.48 11H362.778L358.378 24.508C357.982 25.4907 357.586 26.1507 357.19 26.488C356.808 26.8253 356.295 26.994 355.65 26.994C355.415 27.0087 355.224 26.994 355.078 26.95V25.806ZM364.858 26.95V11H366.156V11.836C367.3 11.132 368.503 10.78 369.764 10.78C371.04 10.78 371.986 11.2273 372.602 12.122C373.233 13.0167 373.548 14.476 373.548 16.5C373.548 18.5093 373.181 19.9687 372.448 20.878C371.715 21.7727 370.497 22.22 368.796 22.22C367.887 22.22 367.007 22.1247 366.156 21.934V26.95H364.858ZM369.5 11.968C369.016 11.968 368.495 12.0487 367.938 12.21C367.381 12.3713 366.948 12.54 366.64 12.716L366.156 12.958V20.79C367.153 20.966 368.019 21.054 368.752 21.054C370.013 21.054 370.901 20.702 371.414 19.998C371.927 19.2793 372.184 18.106 372.184 16.478C372.184 14.8353 371.957 13.6767 371.502 13.002C371.062 12.3127 370.395 11.968 369.5 11.968ZM380.532 16.72C381.28 16.72 381.8 16.8887 382.094 17.226C382.387 17.5487 382.534 18.0767 382.534 18.81C382.534 19.5433 382.387 20.064 382.094 20.372C381.8 20.68 381.28 20.834 380.532 20.834H377.452V16.72H380.532ZM380.554 22C381.683 22 382.504 21.7507 383.018 21.252C383.546 20.7533 383.81 19.932 383.81 18.788C383.81 16.632 382.724 15.554 380.554 15.554H377.452V11H376.154V22H380.554ZM385.13 11V22H386.428V11H385.13ZM388.687 24.706L389.655 19.822H391.129L389.787 24.706H388.687ZM408.148 17.754C408.148 19.3087 407.759 20.438 406.982 21.142C406.219 21.8313 405.09 22.176 403.594 22.176H403.22L402.89 24.706C402.23 24.662 401.9 24.6107 401.9 24.552L402.208 22.11L399.062 21.78L399.216 20.658C400.345 20.8047 401.394 20.9073 402.362 20.966L403.132 15.07C402.384 14.9233 401.775 14.7693 401.306 14.608C400.851 14.432 400.433 14.1973 400.052 13.904C399.319 13.3613 398.952 12.4153 398.952 11.066C398.952 8.52867 400.485 7.26 403.55 7.26C403.799 7.26 403.997 7.26733 404.144 7.282L404.496 4.51H405.486L405.112 7.348L407.818 7.656L407.73 8.778C406.733 8.66067 405.809 8.56533 404.958 8.492L404.254 14.014C405.647 14.3073 406.645 14.718 407.246 15.246C407.847 15.7593 408.148 16.5953 408.148 17.754ZM400.272 10.978C400.272 11.902 400.485 12.5473 400.91 12.914C401.35 13.2807 402.142 13.5813 403.286 13.816L403.99 8.426H403.638C401.394 8.426 400.272 9.27667 400.272 10.978ZM403.55 21.01C405.735 21.01 406.828 20.0347 406.828 18.084C406.828 17.1307 406.623 16.478 406.212 16.126C405.816 15.774 405.112 15.488 404.1 15.268L403.374 21.01H403.55Z" fill="#D46BFE"/>
<path d="M454.049 16.874H450.177V22H448.483V6.776H454.049C455.707 6.776 456.931 7.17933 457.723 7.986C458.515 8.79267 458.911 10.0247 458.911 11.682C458.911 15.1433 457.291 16.874 454.049 16.874ZM450.177 15.378H454.027C456.125 15.378 457.173 14.146 457.173 11.682C457.173 10.5087 456.924 9.65067 456.425 9.108C455.927 8.55067 455.127 8.272 454.027 8.272H450.177V15.378ZM468.897 14.322V19.954C468.941 20.4967 469.366 20.8193 470.173 20.922L470.107 22.22C468.948 22.22 468.076 21.9267 467.489 21.34C466.169 21.9267 464.849 22.22 463.529 22.22C462.517 22.22 461.747 21.934 461.219 21.362C460.691 20.79 460.427 19.9687 460.427 18.898C460.427 17.8273 460.698 17.0427 461.241 16.544C461.784 16.0307 462.634 15.7153 463.793 15.598L467.247 15.268V14.322C467.247 13.574 467.086 13.0387 466.763 12.716C466.44 12.3933 466 12.232 465.443 12.232C464.27 12.232 463.052 12.3053 461.791 12.452L461.109 12.518L461.043 11.264C462.656 10.9413 464.086 10.78 465.333 10.78C466.58 10.78 467.482 11.066 468.039 11.638C468.611 12.21 468.897 13.1047 468.897 14.322ZM462.121 18.81C462.121 20.1593 462.678 20.834 463.793 20.834C464.79 20.834 465.773 20.6653 466.741 20.328L467.247 20.152V16.522L463.991 16.83C463.331 16.8887 462.854 17.0793 462.561 17.402C462.268 17.7247 462.121 18.194 462.121 18.81ZM472.152 22V11H473.78V12.496C475.056 11.616 476.398 11.0367 477.806 10.758V12.43C477.19 12.5473 476.545 12.7307 475.87 12.98C475.21 13.2293 474.704 13.4493 474.352 13.64L473.802 13.926V22H472.152ZM485.456 12.43H481.958V17.688C481.958 18.9493 482.046 19.778 482.222 20.174C482.412 20.57 482.852 20.768 483.542 20.768L485.5 20.636L485.61 22C484.627 22.1613 483.879 22.242 483.366 22.242C482.222 22.242 481.43 21.9633 480.99 21.406C480.55 20.8487 480.33 19.7853 480.33 18.216V12.43H478.768V11H480.33V7.634H481.958V11H485.456V12.43ZM489.121 22H487.471V11H489.099V11.77C490.287 11.11 491.423 10.78 492.509 10.78C493.975 10.78 494.958 11.176 495.457 11.968C495.97 12.76 496.227 14.168 496.227 16.192V22H494.599V16.236C494.599 14.7107 494.445 13.6693 494.137 13.112C493.843 12.54 493.205 12.254 492.223 12.254C491.753 12.254 491.255 12.3273 490.727 12.474C490.213 12.606 489.817 12.738 489.539 12.87L489.121 13.068V22ZM506.767 20.636L507.405 20.57L507.449 21.868C505.777 22.1027 504.347 22.22 503.159 22.22C501.575 22.22 500.453 21.7653 499.793 20.856C499.133 19.932 498.803 18.502 498.803 16.566C498.803 12.7087 500.336 10.78 503.401 10.78C504.882 10.78 505.99 11.198 506.723 12.034C507.456 12.8553 507.823 14.1533 507.823 15.928L507.735 17.182H500.475C500.475 18.3993 500.695 19.3013 501.135 19.888C501.575 20.4747 502.338 20.768 503.423 20.768C504.523 20.768 505.638 20.724 506.767 20.636ZM506.173 15.862C506.173 14.5127 505.953 13.5593 505.513 13.002C505.088 12.4447 504.384 12.166 503.401 12.166C502.433 12.166 501.7 12.4593 501.201 13.046C500.717 13.6327 500.468 14.5713 500.453 15.862H506.173ZM510.395 22V11H512.023V12.496C513.299 11.616 514.641 11.0367 516.049 10.758V12.43C515.433 12.5473 514.787 12.7307 514.113 12.98C513.453 13.2293 512.947 13.4493 512.595 13.64L512.045 13.926V22H510.395ZM521.454 12.254C519.855 12.254 519.056 12.8113 519.056 13.926C519.056 14.4393 519.239 14.806 519.606 15.026C519.973 15.2313 520.809 15.4513 522.114 15.686C523.419 15.906 524.343 16.2213 524.886 16.632C525.429 17.0427 525.7 17.8127 525.7 18.942C525.7 20.0713 525.333 20.9 524.6 21.428C523.881 21.956 522.825 22.22 521.432 22.22C520.523 22.22 519.452 22.1173 518.22 21.912L517.56 21.802L517.648 20.372C519.32 20.6213 520.581 20.746 521.432 20.746C522.283 20.746 522.928 20.614 523.368 20.35C523.823 20.0713 524.05 19.6167 524.05 18.986C524.05 18.3407 523.859 17.908 523.478 17.688C523.097 17.4533 522.261 17.2333 520.97 17.028C519.679 16.8227 518.763 16.522 518.22 16.126C517.677 15.73 517.406 14.9967 517.406 13.926C517.406 12.8553 517.78 12.0633 518.528 11.55C519.291 11.0367 520.237 10.78 521.366 10.78C522.261 10.78 523.383 10.8827 524.732 11.088L525.348 11.198L525.304 12.606C523.676 12.3713 522.393 12.254 521.454 12.254ZM533.347 6.776H538.869C540.379 6.776 541.509 7.09133 542.257 7.722C543.019 8.338 543.401 9.31333 543.401 10.648C543.401 11.6013 543.232 12.3493 542.895 12.892C542.572 13.42 542.088 13.838 541.443 14.146C543.056 14.7033 543.863 15.8987 543.863 17.732C543.863 19.2573 543.459 20.35 542.653 21.01C541.846 21.67 540.68 22 539.155 22H533.347V6.776ZM538.979 15.004H535.041V20.504H539.089C540.086 20.504 540.841 20.2987 541.355 19.888C541.883 19.4627 542.147 18.722 542.147 17.666C542.147 17.1087 542.037 16.6393 541.817 16.258C541.611 15.8767 541.333 15.6053 540.981 15.444C540.335 15.1507 539.668 15.004 538.979 15.004ZM538.803 8.272H535.041V13.53H538.957C539.895 13.53 540.577 13.31 541.003 12.87C541.443 12.4153 541.663 11.7407 541.663 10.846C541.663 9.93667 541.428 9.284 540.959 8.888C540.504 8.47733 539.785 8.272 538.803 8.272ZM546.133 16.478C546.133 14.4687 546.493 13.0167 547.211 12.122C547.93 11.2273 549.14 10.78 550.841 10.78C552.557 10.78 553.767 11.2273 554.471 12.122C555.19 13.0167 555.549 14.4687 555.549 16.478C555.549 18.4873 555.212 19.9467 554.537 20.856C553.863 21.7653 552.631 22.22 550.841 22.22C549.052 22.22 547.82 21.7653 547.145 20.856C546.471 19.9467 546.133 18.4873 546.133 16.478ZM547.827 16.456C547.827 18.0547 548.018 19.1767 548.399 19.822C548.795 20.4673 549.609 20.79 550.841 20.79C552.088 20.79 552.902 20.4747 553.283 19.844C553.665 19.1987 553.855 18.0693 553.855 16.456C553.855 14.8427 553.643 13.7353 553.217 13.134C552.792 12.518 552 12.21 550.841 12.21C549.697 12.21 548.905 12.518 548.465 13.134C548.04 13.7353 547.827 14.8427 547.827 16.456ZM559.89 22H558.24V11H559.868V11.77C561.056 11.11 562.193 10.78 563.278 10.78C564.745 10.78 565.728 11.176 566.226 11.968C566.74 12.76 566.996 14.168 566.996 16.192V22H565.368V16.236C565.368 14.7107 565.214 13.6693 564.906 13.112C564.613 12.54 563.975 12.254 562.992 12.254C562.523 12.254 562.024 12.3273 561.496 12.474C560.983 12.606 560.587 12.738 560.308 12.87L559.89 13.068V22ZM576.921 11H578.571V22H576.921V21.23C575.821 21.89 574.735 22.22 573.665 22.22C572.169 22.22 571.171 21.8313 570.673 21.054C570.189 20.2767 569.947 18.8393 569.947 16.742V11H571.597V16.72C571.597 18.3187 571.736 19.3893 572.015 19.932C572.293 20.4747 572.924 20.746 573.907 20.746C574.391 20.746 574.882 20.68 575.381 20.548C575.879 20.4013 576.261 20.262 576.525 20.13L576.921 19.932V11ZM585.198 12.254C583.599 12.254 582.8 12.8113 582.8 13.926C582.8 14.4393 582.983 14.806 583.35 15.026C583.717 15.2313 584.553 15.4513 585.858 15.686C587.163 15.906 588.087 16.2213 588.63 16.632C589.173 17.0427 589.444 17.8127 589.444 18.942C589.444 20.0713 589.077 20.9 588.344 21.428C587.625 21.956 586.569 22.22 585.176 22.22C584.267 22.22 583.196 22.1173 581.964 21.912L581.304 21.802L581.392 20.372C583.064 20.6213 584.325 20.746 585.176 20.746C586.027 20.746 586.672 20.614 587.112 20.35C587.567 20.0713 587.794 19.6167 587.794 18.986C587.794 18.3407 587.603 17.908 587.222 17.688C586.841 17.4533 586.005 17.2333 584.714 17.028C583.423 16.8227 582.507 16.522 581.964 16.126C581.421 15.73 581.15 14.9967 581.15 13.926C581.15 12.8553 581.524 12.0633 582.272 11.55C583.035 11.0367 583.981 10.78 585.11 10.78C586.005 10.78 587.127 10.8827 588.476 11.088L589.092 11.198L589.048 12.606C587.42 12.3713 586.137 12.254 585.198 12.254Z" fill="#D46BFE"/>
<path d="M248.772 50.12V62H247.386V51.668L244.326 53.684L243.696 52.64L247.476 50.12H248.772ZM256.864 49.922C257.848 49.922 258.646 50.108 259.258 50.48C260.554 51.248 261.202 53.168 261.202 56.24C261.202 58.412 260.842 59.948 260.122 60.848C259.402 61.736 258.322 62.18 256.882 62.18C255.442 62.18 254.356 61.742 253.624 60.866C252.904 59.978 252.544 58.406 252.544 56.15C252.544 53.882 252.898 52.28 253.606 51.344C254.326 50.396 255.412 49.922 256.864 49.922ZM256.882 51.164C256.198 51.164 255.658 51.308 255.262 51.596C254.41 52.184 253.984 53.738 253.984 56.258C253.984 58.034 254.218 59.264 254.686 59.948C255.154 60.62 255.886 60.956 256.882 60.956C257.878 60.956 258.61 60.614 259.078 59.93C259.546 59.246 259.78 57.98 259.78 56.132C259.78 54.272 259.552 52.982 259.096 52.262C258.652 51.53 257.914 51.164 256.882 51.164ZM266.936 49.922C267.92 49.922 268.718 50.108 269.33 50.48C270.626 51.248 271.274 53.168 271.274 56.24C271.274 58.412 270.914 59.948 270.194 60.848C269.474 61.736 268.394 62.18 266.954 62.18C265.514 62.18 264.428 61.742 263.696 60.866C262.976 59.978 262.616 58.406 262.616 56.15C262.616 53.882 262.97 52.28 263.678 51.344C264.398 50.396 265.484 49.922 266.936 49.922ZM266.954 51.164C266.27 51.164 265.73 51.308 265.334 51.596C264.482 52.184 264.056 53.738 264.056 56.258C264.056 58.034 264.29 59.264 264.758 59.948C265.226 60.62 265.958 60.956 266.954 60.956C267.95 60.956 268.682 60.614 269.15 59.93C269.618 59.246 269.852 57.98 269.852 56.132C269.852 54.272 269.624 52.982 269.168 52.262C268.724 51.53 267.986 51.164 266.954 51.164ZM280.963 49.922C281.947 49.922 282.745 50.108 283.357 50.48C284.653 51.248 285.301 53.168 285.301 56.24C285.301 58.412 284.941 59.948 284.221 60.848C283.501 61.736 282.421 62.18 280.981 62.18C279.541 62.18 278.455 61.742 277.723 60.866C277.003 59.978 276.643 58.406 276.643 56.15C276.643 53.882 276.997 52.28 277.705 51.344C278.425 50.396 279.511 49.922 280.963 49.922ZM280.981 51.164C280.297 51.164 279.757 51.308 279.361 51.596C278.509 52.184 278.083 53.738 278.083 56.258C278.083 58.034 278.317 59.264 278.785 59.948C279.253 60.62 279.985 60.956 280.981 60.956C281.977 60.956 282.709 60.614 283.177 59.93C283.645 59.246 283.879 57.98 283.879 56.132C283.879 54.272 283.651 52.982 283.195 52.262C282.751 51.53 282.013 51.164 280.981 51.164ZM291.036 49.922C292.02 49.922 292.818 50.108 293.43 50.48C294.726 51.248 295.374 53.168 295.374 56.24C295.374 58.412 295.014 59.948 294.294 60.848C293.574 61.736 292.494 62.18 291.054 62.18C289.614 62.18 288.528 61.742 287.796 60.866C287.076 59.978 286.716 58.406 286.716 56.15C286.716 53.882 287.07 52.28 287.778 51.344C288.498 50.396 289.584 49.922 291.036 49.922ZM291.054 51.164C290.37 51.164 289.83 51.308 289.434 51.596C288.582 52.184 288.156 53.738 288.156 56.258C288.156 58.034 288.39 59.264 288.858 59.948C289.326 60.62 290.058 60.956 291.054 60.956C292.05 60.956 292.782 60.614 293.25 59.93C293.718 59.246 293.952 57.98 293.952 56.132C293.952 54.272 293.724 52.982 293.268 52.262C292.824 51.53 292.086 51.164 291.054 51.164ZM301.108 49.922C302.092 49.922 302.89 50.108 303.502 50.48C304.798 51.248 305.446 53.168 305.446 56.24C305.446 58.412 305.086 59.948 304.366 60.848C303.646 61.736 302.566 62.18 301.126 62.18C299.686 62.18 298.6 61.742 297.868 60.866C297.148 59.978 296.788 58.406 296.788 56.15C296.788 53.882 297.142 52.28 297.85 51.344C298.57 50.396 299.656 49.922 301.108 49.922ZM301.126 51.164C300.442 51.164 299.902 51.308 299.506 51.596C298.654 52.184 298.228 53.738 298.228 56.258C298.228 58.034 298.462 59.264 298.93 59.948C299.398 60.62 300.13 60.956 301.126 60.956C302.122 60.956 302.854 60.614 303.322 59.93C303.79 59.246 304.024 57.98 304.024 56.132C304.024 54.272 303.796 52.982 303.34 52.262C302.896 51.53 302.158 51.164 301.126 51.164ZM315.05 58.508C315.05 60.944 313.784 62.162 311.252 62.162H310.982L310.73 64.232C310.118 64.196 309.812 64.154 309.812 64.106L310.064 62.108L307.49 61.784L307.634 60.686C308.558 60.818 309.416 60.908 310.208 60.956L310.802 56.456C309.578 56.168 308.702 55.802 308.174 55.358C307.658 54.902 307.4 54.158 307.4 53.126C307.4 51.002 308.672 49.94 311.216 49.94C311.396 49.94 311.534 49.946 311.63 49.958L311.936 47.636H312.854L312.548 50.012L314.798 50.282L314.69 51.398C313.862 51.302 313.1 51.224 312.404 51.164L311.864 55.358C313.028 55.634 313.85 55.988 314.33 56.42C314.81 56.852 315.05 57.548 315.05 58.508ZM308.732 53.054C308.732 53.702 308.894 54.164 309.218 54.44C309.542 54.716 310.124 54.956 310.964 55.16L311.486 51.11H311.306C309.59 51.11 308.732 51.758 308.732 53.054ZM313.718 58.598C313.718 58.022 313.568 57.596 313.268 57.32C312.968 57.044 312.446 56.816 311.702 56.636L311.144 60.992H311.18C312.872 60.992 313.718 60.194 313.718 58.598Z" fill="white"/>
<path d="M250.608 101H243.012V99.83L246.486 96.176C247.086 95.552 247.524 95.078 247.8 94.754C248.076 94.43 248.322 94.046 248.538 93.602C248.766 93.158 248.88 92.714 248.88 92.27C248.88 91.502 248.67 90.962 248.25 90.65C247.83 90.338 247.176 90.182 246.288 90.182C245.508 90.182 244.638 90.284 243.678 90.488L243.21 90.578L243.102 89.426C244.242 89.102 245.418 88.94 246.63 88.94C247.842 88.94 248.754 89.198 249.366 89.714C249.99 90.218 250.302 91.022 250.302 92.126C250.302 92.966 250.116 93.698 249.744 94.322C249.372 94.946 248.73 95.696 247.818 96.572L244.65 99.794H250.608V101ZM260.428 89.12V90.38H254.65L254.326 94.25C255.25 93.758 256.18 93.512 257.116 93.512C259.636 93.512 260.896 94.682 260.896 97.022C260.896 98.366 260.548 99.392 259.852 100.1C259.156 100.808 258.178 101.162 256.918 101.162C255.91 101.162 254.794 101.03 253.57 100.766L252.976 100.64L253.138 99.542C254.518 99.806 255.676 99.938 256.612 99.938C257.56 99.938 258.274 99.698 258.754 99.218C259.234 98.726 259.474 98.042 259.474 97.166C259.474 96.29 259.252 95.672 258.808 95.312C258.376 94.94 257.758 94.754 256.954 94.754C256.522 94.754 256.066 94.814 255.586 94.934C255.118 95.054 254.758 95.174 254.506 95.294L254.128 95.474L253.174 95.294L253.498 89.12H260.428ZM266.936 88.922C267.92 88.922 268.718 89.108 269.33 89.48C270.626 90.248 271.274 92.168 271.274 95.24C271.274 97.412 270.914 98.948 270.194 99.848C269.474 100.736 268.394 101.18 266.954 101.18C265.514 101.18 264.428 100.742 263.696 99.866C262.976 98.978 262.616 97.406 262.616 95.15C262.616 92.882 262.97 91.28 263.678 90.344C264.398 89.396 265.484 88.922 266.936 88.922ZM266.954 90.164C266.27 90.164 265.73 90.308 265.334 90.596C264.482 91.184 264.056 92.738 264.056 95.258C264.056 97.034 264.29 98.264 264.758 98.948C265.226 99.62 265.958 99.956 266.954 99.956C267.95 99.956 268.682 99.614 269.15 98.93C269.618 98.246 269.852 96.98 269.852 95.132C269.852 93.272 269.624 91.982 269.168 91.262C268.724 90.53 267.986 90.164 266.954 90.164ZM280.963 88.922C281.947 88.922 282.745 89.108 283.357 89.48C284.653 90.248 285.301 92.168 285.301 95.24C285.301 97.412 284.941 98.948 284.221 99.848C283.501 100.736 282.421 101.18 280.981 101.18C279.541 101.18 278.455 100.742 277.723 99.866C277.003 98.978 276.643 97.406 276.643 95.15C276.643 92.882 276.997 91.28 277.705 90.344C278.425 89.396 279.511 88.922 280.963 88.922ZM280.981 90.164C280.297 90.164 279.757 90.308 279.361 90.596C278.509 91.184 278.083 92.738 278.083 95.258C278.083 97.034 278.317 98.264 278.785 98.948C279.253 99.62 279.985 99.956 280.981 99.956C281.977 99.956 282.709 99.614 283.177 98.93C283.645 98.246 283.879 96.98 283.879 95.132C283.879 93.272 283.651 91.982 283.195 91.262C282.751 90.53 282.013 90.164 280.981 90.164ZM291.036 88.922C292.02 88.922 292.818 89.108 293.43 89.48C294.726 90.248 295.374 92.168 295.374 95.24C295.374 97.412 295.014 98.948 294.294 99.848C293.574 100.736 292.494 101.18 291.054 101.18C289.614 101.18 288.528 100.742 287.796 99.866C287.076 98.978 286.716 97.406 286.716 95.15C286.716 92.882 287.07 91.28 287.778 90.344C288.498 89.396 289.584 88.922 291.036 88.922ZM291.054 90.164C290.37 90.164 289.83 90.308 289.434 90.596C288.582 91.184 288.156 92.738 288.156 95.258C288.156 97.034 288.39 98.264 288.858 98.948C289.326 99.62 290.058 99.956 291.054 99.956C292.05 99.956 292.782 99.614 293.25 98.93C293.718 98.246 293.952 96.98 293.952 95.132C293.952 93.272 293.724 91.982 293.268 91.262C292.824 90.53 292.086 90.164 291.054 90.164ZM301.108 88.922C302.092 88.922 302.89 89.108 303.502 89.48C304.798 90.248 305.446 92.168 305.446 95.24C305.446 97.412 305.086 98.948 304.366 99.848C303.646 100.736 302.566 101.18 301.126 101.18C299.686 101.18 298.6 100.742 297.868 99.866C297.148 98.978 296.788 97.406 296.788 95.15C296.788 92.882 297.142 91.28 297.85 90.344C298.57 89.396 299.656 88.922 301.108 88.922ZM301.126 90.164C300.442 90.164 299.902 90.308 299.506 90.596C298.654 91.184 298.228 92.738 298.228 95.258C298.228 97.034 298.462 98.264 298.93 98.948C299.398 99.62 300.13 99.956 301.126 99.956C302.122 99.956 302.854 99.614 303.322 98.93C303.79 98.246 304.024 96.98 304.024 95.132C304.024 93.272 303.796 91.982 303.34 91.262C302.896 90.53 302.158 90.164 301.126 90.164ZM315.05 97.508C315.05 99.944 313.784 101.162 311.252 101.162H310.982L310.73 103.232C310.118 103.196 309.812 103.154 309.812 103.106L310.064 101.108L307.49 100.784L307.634 99.686C308.558 99.818 309.416 99.908 310.208 99.956L310.802 95.456C309.578 95.168 308.702 94.802 308.174 94.358C307.658 93.902 307.4 93.158 307.4 92.126C307.4 90.002 308.672 88.94 311.216 88.94C311.396 88.94 311.534 88.946 311.63 88.958L311.936 86.636H312.854L312.548 89.012L314.798 89.282L314.69 90.398C313.862 90.302 313.1 90.224 312.404 90.164L311.864 94.358C313.028 94.634 313.85 94.988 314.33 95.42C314.81 95.852 315.05 96.548 315.05 97.508ZM308.732 92.054C308.732 92.702 308.894 93.164 309.218 93.44C309.542 93.716 310.124 93.956 310.964 94.16L311.486 90.11H311.306C309.59 90.11 308.732 90.758 308.732 92.054ZM313.718 97.598C313.718 97.022 313.568 96.596 313.268 96.32C312.968 96.044 312.446 95.816 311.702 95.636L311.144 99.992H311.18C312.872 99.992 313.718 99.194 313.718 97.598Z" fill="white"/>
<path d="M250.356 128.12V129.38H244.578L244.254 133.25C245.178 132.758 246.108 132.512 247.044 132.512C249.564 132.512 250.824 133.682 250.824 136.022C250.824 137.366 250.476 138.392 249.78 139.1C249.084 139.808 248.106 140.162 246.846 140.162C245.838 140.162 244.722 140.03 243.498 139.766L242.904 139.64L243.066 138.542C244.446 138.806 245.604 138.938 246.54 138.938C247.488 138.938 248.202 138.698 248.682 138.218C249.162 137.726 249.402 137.042 249.402 136.166C249.402 135.29 249.18 134.672 248.736 134.312C248.304 133.94 247.686 133.754 246.882 133.754C246.45 133.754 245.994 133.814 245.514 133.934C245.046 134.054 244.686 134.174 244.434 134.294L244.056 134.474L243.102 134.294L243.426 128.12H250.356ZM256.864 127.922C257.848 127.922 258.646 128.108 259.258 128.48C260.554 129.248 261.202 131.168 261.202 134.24C261.202 136.412 260.842 137.948 260.122 138.848C259.402 139.736 258.322 140.18 256.882 140.18C255.442 140.18 254.356 139.742 253.624 138.866C252.904 137.978 252.544 136.406 252.544 134.15C252.544 131.882 252.898 130.28 253.606 129.344C254.326 128.396 255.412 127.922 256.864 127.922ZM256.882 129.164C256.198 129.164 255.658 129.308 255.262 129.596C254.41 130.184 253.984 131.738 253.984 134.258C253.984 136.034 254.218 137.264 254.686 137.948C255.154 138.62 255.886 138.956 256.882 138.956C257.878 138.956 258.61 138.614 259.078 137.93C259.546 137.246 259.78 135.98 259.78 134.132C259.78 132.272 259.552 130.982 259.096 130.262C258.652 129.53 257.914 129.164 256.882 129.164ZM266.936 127.922C267.92 127.922 268.718 128.108 269.33 128.48C270.626 129.248 271.274 131.168 271.274 134.24C271.274 136.412 270.914 137.948 270.194 138.848C269.474 139.736 268.394 140.18 266.954 140.18C265.514 140.18 264.428 139.742 263.696 138.866C262.976 137.978 262.616 136.406 262.616 134.15C262.616 131.882 262.97 130.28 263.678 129.344C264.398 128.396 265.484 127.922 266.936 127.922ZM266.954 129.164C266.27 129.164 265.73 129.308 265.334 129.596C264.482 130.184 264.056 131.738 264.056 134.258C264.056 136.034 264.29 137.264 264.758 137.948C265.226 138.62 265.958 138.956 266.954 138.956C267.95 138.956 268.682 138.614 269.15 137.93C269.618 137.246 269.852 135.98 269.852 134.132C269.852 132.272 269.624 130.982 269.168 130.262C268.724 129.53 267.986 129.164 266.954 129.164ZM280.963 127.922C281.947 127.922 282.745 128.108 283.357 128.48C284.653 129.248 285.301 131.168 285.301 134.24C285.301 136.412 284.941 137.948 284.221 138.848C283.501 139.736 282.421 140.18 280.981 140.18C279.541 140.18 278.455 139.742 277.723 138.866C277.003 137.978 276.643 136.406 276.643 134.15C276.643 131.882 276.997 130.28 277.705 129.344C278.425 128.396 279.511 127.922 280.963 127.922ZM280.981 129.164C280.297 129.164 279.757 129.308 279.361 129.596C278.509 130.184 278.083 131.738 278.083 134.258C278.083 136.034 278.317 137.264 278.785 137.948C279.253 138.62 279.985 138.956 280.981 138.956C281.977 138.956 282.709 138.614 283.177 137.93C283.645 137.246 283.879 135.98 283.879 134.132C283.879 132.272 283.651 130.982 283.195 130.262C282.751 129.53 282.013 129.164 280.981 129.164ZM291.036 127.922C292.02 127.922 292.818 128.108 293.43 128.48C294.726 129.248 295.374 131.168 295.374 134.24C295.374 136.412 295.014 137.948 294.294 138.848C293.574 139.736 292.494 140.18 291.054 140.18C289.614 140.18 288.528 139.742 287.796 138.866C287.076 137.978 286.716 136.406 286.716 134.15C286.716 131.882 287.07 130.28 287.778 129.344C288.498 128.396 289.584 127.922 291.036 127.922ZM291.054 129.164C290.37 129.164 289.83 129.308 289.434 129.596C288.582 130.184 288.156 131.738 288.156 134.258C288.156 136.034 288.39 137.264 288.858 137.948C289.326 138.62 290.058 138.956 291.054 138.956C292.05 138.956 292.782 138.614 293.25 137.93C293.718 137.246 293.952 135.98 293.952 134.132C293.952 132.272 293.724 130.982 293.268 130.262C292.824 129.53 292.086 129.164 291.054 129.164ZM301.108 127.922C302.092 127.922 302.89 128.108 303.502 128.48C304.798 129.248 305.446 131.168 305.446 134.24C305.446 136.412 305.086 137.948 304.366 138.848C303.646 139.736 302.566 140.18 301.126 140.18C299.686 140.18 298.6 139.742 297.868 138.866C297.148 137.978 296.788 136.406 296.788 134.15C296.788 131.882 297.142 130.28 297.85 129.344C298.57 128.396 299.656 127.922 301.108 127.922ZM301.126 129.164C300.442 129.164 299.902 129.308 299.506 129.596C298.654 130.184 298.228 131.738 298.228 134.258C298.228 136.034 298.462 137.264 298.93 137.948C299.398 138.62 300.13 138.956 301.126 138.956C302.122 138.956 302.854 138.614 303.322 137.93C303.79 137.246 304.024 135.98 304.024 134.132C304.024 132.272 303.796 130.982 303.34 130.262C302.896 129.53 302.158 129.164 301.126 129.164ZM315.05 136.508C315.05 138.944 313.784 140.162 311.252 140.162H310.982L310.73 142.232C310.118 142.196 309.812 142.154 309.812 142.106L310.064 140.108L307.49 139.784L307.634 138.686C308.558 138.818 309.416 138.908 310.208 138.956L310.802 134.456C309.578 134.168 308.702 133.802 308.174 133.358C307.658 132.902 307.4 132.158 307.4 131.126C307.4 129.002 308.672 127.94 311.216 127.94C311.396 127.94 311.534 127.946 311.63 127.958L311.936 125.636H312.854L312.548 128.012L314.798 128.282L314.69 129.398C313.862 129.302 313.1 129.224 312.404 129.164L311.864 133.358C313.028 133.634 313.85 133.988 314.33 134.42C314.81 134.852 315.05 135.548 315.05 136.508ZM308.732 131.054C308.732 131.702 308.894 132.164 309.218 132.44C309.542 132.716 310.124 132.956 310.964 133.16L311.486 129.11H311.306C309.59 129.11 308.732 129.758 308.732 131.054ZM313.718 136.598C313.718 136.022 313.568 135.596 313.268 135.32C312.968 135.044 312.446 134.816 311.702 134.636L311.144 138.992H311.18C312.872 138.992 313.718 138.194 313.718 136.598Z" fill="white"/>
<path d="M243.156 168.38V167.12H250.536V168.938L245.964 179.18L244.65 178.766L249.132 168.848V168.38H243.156ZM260.428 167.12V168.38H254.65L254.326 172.25C255.25 171.758 256.18 171.512 257.116 171.512C259.636 171.512 260.896 172.682 260.896 175.022C260.896 176.366 260.548 177.392 259.852 178.1C259.156 178.808 258.178 179.162 256.918 179.162C255.91 179.162 254.794 179.03 253.57 178.766L252.976 178.64L253.138 177.542C254.518 177.806 255.676 177.938 256.612 177.938C257.56 177.938 258.274 177.698 258.754 177.218C259.234 176.726 259.474 176.042 259.474 175.166C259.474 174.29 259.252 173.672 258.808 173.312C258.376 172.94 257.758 172.754 256.954 172.754C256.522 172.754 256.066 172.814 255.586 172.934C255.118 173.054 254.758 173.174 254.506 173.294L254.128 173.474L253.174 173.294L253.498 167.12H260.428ZM266.936 166.922C267.92 166.922 268.718 167.108 269.33 167.48C270.626 168.248 271.274 170.168 271.274 173.24C271.274 175.412 270.914 176.948 270.194 177.848C269.474 178.736 268.394 179.18 266.954 179.18C265.514 179.18 264.428 178.742 263.696 177.866C262.976 176.978 262.616 175.406 262.616 173.15C262.616 170.882 262.97 169.28 263.678 168.344C264.398 167.396 265.484 166.922 266.936 166.922ZM266.954 168.164C266.27 168.164 265.73 168.308 265.334 168.596C264.482 169.184 264.056 170.738 264.056 173.258C264.056 175.034 264.29 176.264 264.758 176.948C265.226 177.62 265.958 177.956 266.954 177.956C267.95 177.956 268.682 177.614 269.15 176.93C269.618 176.246 269.852 174.98 269.852 173.132C269.852 171.272 269.624 169.982 269.168 169.262C268.724 168.53 267.986 168.164 266.954 168.164ZM280.963 166.922C281.947 166.922 282.745 167.108 283.357 167.48C284.653 168.248 285.301 170.168 285.301 173.24C285.301 175.412 284.941 176.948 284.221 177.848C283.501 178.736 282.421 179.18 280.981 179.18C279.541 179.18 278.455 178.742 277.723 177.866C277.003 176.978 276.643 175.406 276.643 173.15C276.643 170.882 276.997 169.28 277.705 168.344C278.425 167.396 279.511 166.922 280.963 166.922ZM280.981 168.164C280.297 168.164 279.757 168.308 279.361 168.596C278.509 169.184 278.083 170.738 278.083 173.258C278.083 175.034 278.317 176.264 278.785 176.948C279.253 177.62 279.985 177.956 280.981 177.956C281.977 177.956 282.709 177.614 283.177 176.93C283.645 176.246 283.879 174.98 283.879 173.132C283.879 171.272 283.651 169.982 283.195 169.262C282.751 168.53 282.013 168.164 280.981 168.164ZM291.036 166.922C292.02 166.922 292.818 167.108 293.43 167.48C294.726 168.248 295.374 170.168 295.374 173.24C295.374 175.412 295.014 176.948 294.294 177.848C293.574 178.736 292.494 179.18 291.054 179.18C289.614 179.18 288.528 178.742 287.796 177.866C287.076 176.978 286.716 175.406 286.716 173.15C286.716 170.882 287.07 169.28 287.778 168.344C288.498 167.396 289.584 166.922 291.036 166.922ZM291.054 168.164C290.37 168.164 289.83 168.308 289.434 168.596C288.582 169.184 288.156 170.738 288.156 173.258C288.156 175.034 288.39 176.264 288.858 176.948C289.326 177.62 290.058 177.956 291.054 177.956C292.05 177.956 292.782 177.614 293.25 176.93C293.718 176.246 293.952 174.98 293.952 173.132C293.952 171.272 293.724 169.982 293.268 169.262C292.824 168.53 292.086 168.164 291.054 168.164ZM301.108 166.922C302.092 166.922 302.89 167.108 303.502 167.48C304.798 168.248 305.446 170.168 305.446 173.24C305.446 175.412 305.086 176.948 304.366 177.848C303.646 178.736 302.566 179.18 301.126 179.18C299.686 179.18 298.6 178.742 297.868 177.866C297.148 176.978 296.788 175.406 296.788 173.15C296.788 170.882 297.142 169.28 297.85 168.344C298.57 167.396 299.656 166.922 301.108 166.922ZM301.126 168.164C300.442 168.164 299.902 168.308 299.506 168.596C298.654 169.184 298.228 170.738 298.228 173.258C298.228 175.034 298.462 176.264 298.93 176.948C299.398 177.62 300.13 177.956 301.126 177.956C302.122 177.956 302.854 177.614 303.322 176.93C303.79 176.246 304.024 174.98 304.024 173.132C304.024 171.272 303.796 169.982 303.34 169.262C302.896 168.53 302.158 168.164 301.126 168.164ZM315.05 175.508C315.05 177.944 313.784 179.162 311.252 179.162H310.982L310.73 181.232C310.118 181.196 309.812 181.154 309.812 181.106L310.064 179.108L307.49 178.784L307.634 177.686C308.558 177.818 309.416 177.908 310.208 177.956L310.802 173.456C309.578 173.168 308.702 172.802 308.174 172.358C307.658 171.902 307.4 171.158 307.4 170.126C307.4 168.002 308.672 166.94 311.216 166.94C311.396 166.94 311.534 166.946 311.63 166.958L311.936 164.636H312.854L312.548 167.012L314.798 167.282L314.69 168.398C313.862 168.302 313.1 168.224 312.404 168.164L311.864 172.358C313.028 172.634 313.85 172.988 314.33 173.42C314.81 173.852 315.05 174.548 315.05 175.508ZM308.732 170.054C308.732 170.702 308.894 171.164 309.218 171.44C309.542 171.716 310.124 171.956 310.964 172.16L311.486 168.11H311.306C309.59 168.11 308.732 168.758 308.732 170.054ZM313.718 175.598C313.718 175.022 313.568 174.596 313.268 174.32C312.968 174.044 312.446 173.816 311.702 173.636L311.144 177.992H311.18C312.872 177.992 313.718 177.194 313.718 175.598Z" fill="white"/>
<path d="M241.758 206.12V218H240.372V207.668L237.312 209.684L236.682 208.64L240.462 206.12H241.758ZM253.805 205.922C254.789 205.922 255.587 206.108 256.199 206.48C257.495 207.248 258.143 209.168 258.143 212.24C258.143 214.412 257.783 215.948 257.063 216.848C256.343 217.736 255.263 218.18 253.823 218.18C252.383 218.18 251.297 217.742 250.565 216.866C249.845 215.978 249.485 214.406 249.485 212.15C249.485 209.882 249.839 208.28 250.547 207.344C251.267 206.396 252.353 205.922 253.805 205.922ZM253.823 207.164C253.139 207.164 252.599 207.308 252.203 207.596C251.351 208.184 250.925 209.738 250.925 212.258C250.925 214.034 251.159 215.264 251.627 215.948C252.095 216.62 252.827 216.956 253.823 216.956C254.819 216.956 255.551 216.614 256.019 215.93C256.487 215.246 256.721 213.98 256.721 212.132C256.721 210.272 256.493 208.982 256.037 208.262C255.593 207.53 254.855 207.164 253.823 207.164ZM263.877 205.922C264.861 205.922 265.659 206.108 266.271 206.48C267.567 207.248 268.215 209.168 268.215 212.24C268.215 214.412 267.855 215.948 267.135 216.848C266.415 217.736 265.335 218.18 263.895 218.18C262.455 218.18 261.369 217.742 260.637 216.866C259.917 215.978 259.557 214.406 259.557 212.15C259.557 209.882 259.911 208.28 260.619 207.344C261.339 206.396 262.425 205.922 263.877 205.922ZM263.895 207.164C263.211 207.164 262.671 207.308 262.275 207.596C261.423 208.184 260.997 209.738 260.997 212.258C260.997 214.034 261.231 215.264 261.699 215.948C262.167 216.62 262.899 216.956 263.895 216.956C264.891 216.956 265.623 216.614 266.091 215.93C266.559 215.246 266.793 213.98 266.793 212.132C266.793 210.272 266.565 208.982 266.109 208.262C265.665 207.53 264.927 207.164 263.895 207.164ZM273.95 205.922C274.934 205.922 275.732 206.108 276.344 206.48C277.64 207.248 278.288 209.168 278.288 212.24C278.288 214.412 277.928 215.948 277.208 216.848C276.488 217.736 275.408 218.18 273.968 218.18C272.528 218.18 271.442 217.742 270.71 216.866C269.99 215.978 269.63 214.406 269.63 212.15C269.63 209.882 269.984 208.28 270.692 207.344C271.412 206.396 272.498 205.922 273.95 205.922ZM273.968 207.164C273.284 207.164 272.744 207.308 272.348 207.596C271.496 208.184 271.07 209.738 271.07 212.258C271.07 214.034 271.304 215.264 271.772 215.948C272.24 216.62 272.972 216.956 273.968 216.956C274.964 216.956 275.696 216.614 276.164 215.93C276.632 215.246 276.866 213.98 276.866 212.132C276.866 210.272 276.638 208.982 276.182 208.262C275.738 207.53 275 207.164 273.968 207.164ZM287.977 205.922C288.961 205.922 289.759 206.108 290.371 206.48C291.667 207.248 292.315 209.168 292.315 212.24C292.315 214.412 291.955 215.948 291.235 216.848C290.515 217.736 289.435 218.18 287.995 218.18C286.555 218.18 285.469 217.742 284.737 216.866C284.017 215.978 283.657 214.406 283.657 212.15C283.657 209.882 284.011 208.28 284.719 207.344C285.439 206.396 286.525 205.922 287.977 205.922ZM287.995 207.164C287.311 207.164 286.771 207.308 286.375 207.596C285.523 208.184 285.097 209.738 285.097 212.258C285.097 214.034 285.331 215.264 285.799 215.948C286.267 216.62 286.999 216.956 287.995 216.956C288.991 216.956 289.723 216.614 290.191 215.93C290.659 215.246 290.893 213.98 290.893 212.132C290.893 210.272 290.665 208.982 290.209 208.262C289.765 207.53 289.027 207.164 287.995 207.164ZM298.049 205.922C299.033 205.922 299.831 206.108 300.443 206.48C301.739 207.248 302.387 209.168 302.387 212.24C302.387 214.412 302.027 215.948 301.307 216.848C300.587 217.736 299.507 218.18 298.067 218.18C296.627 218.18 295.541 217.742 294.809 216.866C294.089 215.978 293.729 214.406 293.729 212.15C293.729 209.882 294.083 208.28 294.791 207.344C295.511 206.396 296.597 205.922 298.049 205.922ZM298.067 207.164C297.383 207.164 296.843 207.308 296.447 207.596C295.595 208.184 295.169 209.738 295.169 212.258C295.169 214.034 295.403 215.264 295.871 215.948C296.339 216.62 297.071 216.956 298.067 216.956C299.063 216.956 299.795 216.614 300.263 215.93C300.731 215.246 300.965 213.98 300.965 212.132C300.965 210.272 300.737 208.982 300.281 208.262C299.837 207.53 299.099 207.164 298.067 207.164ZM308.122 205.922C309.106 205.922 309.904 206.108 310.516 206.48C311.812 207.248 312.46 209.168 312.46 212.24C312.46 214.412 312.1 215.948 311.38 216.848C310.66 217.736 309.58 218.18 308.14 218.18C306.7 218.18 305.614 217.742 304.882 216.866C304.162 215.978 303.802 214.406 303.802 212.15C303.802 209.882 304.156 208.28 304.864 207.344C305.584 206.396 306.67 205.922 308.122 205.922ZM308.14 207.164C307.456 207.164 306.916 207.308 306.52 207.596C305.668 208.184 305.242 209.738 305.242 212.258C305.242 214.034 305.476 215.264 305.944 215.948C306.412 216.62 307.144 216.956 308.14 216.956C309.136 216.956 309.868 216.614 310.336 215.93C310.804 215.246 311.038 213.98 311.038 212.132C311.038 210.272 310.81 208.982 310.354 208.262C309.91 207.53 309.172 207.164 308.14 207.164ZM322.064 214.508C322.064 216.944 320.798 218.162 318.266 218.162H317.996L317.744 220.232C317.132 220.196 316.826 220.154 316.826 220.106L317.078 218.108L314.504 217.784L314.648 216.686C315.572 216.818 316.43 216.908 317.222 216.956L317.816 212.456C316.592 212.168 315.716 211.802 315.188 211.358C314.672 210.902 314.414 210.158 314.414 209.126C314.414 207.002 315.686 205.94 318.23 205.94C318.41 205.94 318.548 205.946 318.644 205.958L318.95 203.636H319.868L319.562 206.012L321.812 206.282L321.704 207.398C320.876 207.302 320.114 207.224 319.418 207.164L318.878 211.358C320.042 211.634 320.864 211.988 321.344 212.42C321.824 212.852 322.064 213.548 322.064 214.508ZM315.746 209.054C315.746 209.702 315.908 210.164 316.232 210.44C316.556 210.716 317.138 210.956 317.978 211.16L318.5 207.11H318.32C316.604 207.11 315.746 207.758 315.746 209.054ZM320.732 214.598C320.732 214.022 320.582 213.596 320.282 213.32C319.982 213.044 319.46 212.816 318.716 212.636L318.158 216.992H318.194C319.886 216.992 320.732 216.194 320.732 214.598Z" fill="white"/>
<path d="M499.928 50.12V51.38H494.15L493.826 55.25C494.75 54.758 495.68 54.512 496.616 54.512C499.136 54.512 500.396 55.682 500.396 58.022C500.396 59.366 500.048 60.392 499.352 61.1C498.656 61.808 497.678 62.162 496.418 62.162C495.41 62.162 494.294 62.03 493.07 61.766L492.476 61.64L492.638 60.542C494.018 60.806 495.176 60.938 496.112 60.938C497.06 60.938 497.774 60.698 498.254 60.218C498.734 59.726 498.974 59.042 498.974 58.166C498.974 57.29 498.752 56.672 498.308 56.312C497.876 55.94 497.258 55.754 496.454 55.754C496.022 55.754 495.566 55.814 495.086 55.934C494.618 56.054 494.258 56.174 494.006 56.294L493.628 56.474L492.674 56.294L492.998 50.12H499.928ZM510.391 49.922C511.375 49.922 512.173 50.108 512.785 50.48C514.081 51.248 514.729 53.168 514.729 56.24C514.729 58.412 514.369 59.948 513.649 60.848C512.929 61.736 511.849 62.18 510.409 62.18C508.969 62.18 507.883 61.742 507.151 60.866C506.431 59.978 506.071 58.406 506.071 56.15C506.071 53.882 506.425 52.28 507.133 51.344C507.853 50.396 508.939 49.922 510.391 49.922ZM510.409 51.164C509.725 51.164 509.185 51.308 508.789 51.596C507.937 52.184 507.511 53.738 507.511 56.258C507.511 58.034 507.745 59.264 508.213 59.948C508.681 60.62 509.413 60.956 510.409 60.956C511.405 60.956 512.137 60.614 512.605 59.93C513.073 59.246 513.307 57.98 513.307 56.132C513.307 54.272 513.079 52.982 512.623 52.262C512.179 51.53 511.441 51.164 510.409 51.164ZM520.463 49.922C521.447 49.922 522.245 50.108 522.857 50.48C524.153 51.248 524.801 53.168 524.801 56.24C524.801 58.412 524.441 59.948 523.721 60.848C523.001 61.736 521.921 62.18 520.481 62.18C519.041 62.18 517.955 61.742 517.223 60.866C516.503 59.978 516.143 58.406 516.143 56.15C516.143 53.882 516.497 52.28 517.205 51.344C517.925 50.396 519.011 49.922 520.463 49.922ZM520.481 51.164C519.797 51.164 519.257 51.308 518.861 51.596C518.009 52.184 517.583 53.738 517.583 56.258C517.583 58.034 517.817 59.264 518.285 59.948C518.753 60.62 519.485 60.956 520.481 60.956C521.477 60.956 522.209 60.614 522.677 59.93C523.145 59.246 523.379 57.98 523.379 56.132C523.379 54.272 523.151 52.982 522.695 52.262C522.251 51.53 521.513 51.164 520.481 51.164ZM530.536 49.922C531.52 49.922 532.318 50.108 532.93 50.48C534.226 51.248 534.874 53.168 534.874 56.24C534.874 58.412 534.514 59.948 533.794 60.848C533.074 61.736 531.994 62.18 530.554 62.18C529.114 62.18 528.028 61.742 527.296 60.866C526.576 59.978 526.216 58.406 526.216 56.15C526.216 53.882 526.57 52.28 527.278 51.344C527.998 50.396 529.084 49.922 530.536 49.922ZM530.554 51.164C529.87 51.164 529.33 51.308 528.934 51.596C528.082 52.184 527.656 53.738 527.656 56.258C527.656 58.034 527.89 59.264 528.358 59.948C528.826 60.62 529.558 60.956 530.554 60.956C531.55 60.956 532.282 60.614 532.75 59.93C533.218 59.246 533.452 57.98 533.452 56.132C533.452 54.272 533.224 52.982 532.768 52.262C532.324 51.53 531.586 51.164 530.554 51.164ZM544.478 58.508C544.478 60.944 543.212 62.162 540.68 62.162H540.41L540.158 64.232C539.546 64.196 539.24 64.154 539.24 64.106L539.492 62.108L536.918 61.784L537.062 60.686C537.986 60.818 538.844 60.908 539.636 60.956L540.23 56.456C539.006 56.168 538.13 55.802 537.602 55.358C537.086 54.902 536.828 54.158 536.828 53.126C536.828 51.002 538.1 49.94 540.644 49.94C540.824 49.94 540.962 49.946 541.058 49.958L541.364 47.636H542.282L541.976 50.012L544.226 50.282L544.118 51.398C543.29 51.302 542.528 51.224 541.832 51.164L541.292 55.358C542.456 55.634 543.278 55.988 543.758 56.42C544.238 56.852 544.478 57.548 544.478 58.508ZM538.16 53.054C538.16 53.702 538.322 54.164 538.646 54.44C538.97 54.716 539.552 54.956 540.392 55.16L540.914 51.11H540.734C539.018 51.11 538.16 51.758 538.16 53.054ZM543.146 58.598C543.146 58.022 542.996 57.596 542.696 57.32C542.396 57.044 541.874 56.816 541.13 56.636L540.572 60.992H540.608C542.3 60.992 543.146 60.194 543.146 58.598Z" fill="white"/>
<path d="M493.308 88.12V100H491.922V89.668L488.862 91.684L488.232 90.64L492.012 88.12H493.308ZM504.964 88.12V89.38H499.186L498.862 93.25C499.786 92.758 500.716 92.512 501.652 92.512C504.172 92.512 505.432 93.682 505.432 96.022C505.432 97.366 505.084 98.392 504.388 99.1C503.692 99.808 502.714 100.162 501.454 100.162C500.446 100.162 499.33 100.03 498.106 99.766L497.512 99.64L497.674 98.542C499.054 98.806 500.212 98.938 501.148 98.938C502.096 98.938 502.81 98.698 503.29 98.218C503.77 97.726 504.01 97.042 504.01 96.166C504.01 95.29 503.788 94.672 503.344 94.312C502.912 93.94 502.294 93.754 501.49 93.754C501.058 93.754 500.602 93.814 500.122 93.934C499.654 94.054 499.294 94.174 499.042 94.294L498.664 94.474L497.71 94.294L498.034 88.12H504.964ZM515.427 87.922C516.411 87.922 517.209 88.108 517.821 88.48C519.117 89.248 519.765 91.168 519.765 94.24C519.765 96.412 519.405 97.948 518.685 98.848C517.965 99.736 516.885 100.18 515.445 100.18C514.005 100.18 512.919 99.742 512.187 98.866C511.467 97.978 511.107 96.406 511.107 94.15C511.107 91.882 511.461 90.28 512.169 89.344C512.889 88.396 513.975 87.922 515.427 87.922ZM515.445 89.164C514.761 89.164 514.221 89.308 513.825 89.596C512.973 90.184 512.547 91.738 512.547 94.258C512.547 96.034 512.781 97.264 513.249 97.948C513.717 98.62 514.449 98.956 515.445 98.956C516.441 98.956 517.173 98.614 517.641 97.93C518.109 97.246 518.343 95.98 518.343 94.132C518.343 92.272 518.115 90.982 517.659 90.262C517.215 89.53 516.477 89.164 515.445 89.164ZM525.5 87.922C526.484 87.922 527.282 88.108 527.894 88.48C529.19 89.248 529.838 91.168 529.838 94.24C529.838 96.412 529.478 97.948 528.758 98.848C528.038 99.736 526.958 100.18 525.518 100.18C524.078 100.18 522.992 99.742 522.26 98.866C521.54 97.978 521.18 96.406 521.18 94.15C521.18 91.882 521.534 90.28 522.242 89.344C522.962 88.396 524.048 87.922 525.5 87.922ZM525.518 89.164C524.834 89.164 524.294 89.308 523.898 89.596C523.046 90.184 522.62 91.738 522.62 94.258C522.62 96.034 522.854 97.264 523.322 97.948C523.79 98.62 524.522 98.956 525.518 98.956C526.514 98.956 527.246 98.614 527.714 97.93C528.182 97.246 528.416 95.98 528.416 94.132C528.416 92.272 528.188 90.982 527.732 90.262C527.288 89.53 526.55 89.164 525.518 89.164ZM535.572 87.922C536.556 87.922 537.354 88.108 537.966 88.48C539.262 89.248 539.91 91.168 539.91 94.24C539.91 96.412 539.55 97.948 538.83 98.848C538.11 99.736 537.03 100.18 535.59 100.18C534.15 100.18 533.064 99.742 532.332 98.866C531.612 97.978 531.252 96.406 531.252 94.15C531.252 91.882 531.606 90.28 532.314 89.344C533.034 88.396 534.12 87.922 535.572 87.922ZM535.59 89.164C534.906 89.164 534.366 89.308 533.97 89.596C533.118 90.184 532.692 91.738 532.692 94.258C532.692 96.034 532.926 97.264 533.394 97.948C533.862 98.62 534.594 98.956 535.59 98.956C536.586 98.956 537.318 98.614 537.786 97.93C538.254 97.246 538.488 95.98 538.488 94.132C538.488 92.272 538.26 90.982 537.804 90.262C537.36 89.53 536.622 89.164 535.59 89.164ZM549.514 96.508C549.514 98.944 548.248 100.162 545.716 100.162H545.446L545.194 102.232C544.582 102.196 544.276 102.154 544.276 102.106L544.528 100.108L541.954 99.784L542.098 98.686C543.022 98.818 543.88 98.908 544.672 98.956L545.266 94.456C544.042 94.168 543.166 93.802 542.638 93.358C542.122 92.902 541.864 92.158 541.864 91.126C541.864 89.002 543.136 87.94 545.68 87.94C545.86 87.94 545.998 87.946 546.094 87.958L546.4 85.636H547.318L547.012 88.012L549.262 88.282L549.154 89.398C548.326 89.302 547.564 89.224 546.868 89.164L546.328 93.358C547.492 93.634 548.314 93.988 548.794 94.42C549.274 94.852 549.514 95.548 549.514 96.508ZM543.196 91.054C543.196 91.702 543.358 92.164 543.682 92.44C544.006 92.716 544.588 92.956 545.428 93.16L545.95 89.11H545.77C544.054 89.11 543.196 89.758 543.196 91.054ZM548.182 96.598C548.182 96.022 548.032 95.596 547.732 95.32C547.432 95.044 546.91 94.816 546.166 94.636L545.608 98.992H545.644C547.336 98.992 548.182 98.194 548.182 96.598Z" fill="white"/>
<path d="M492.786 140V137.678H487.026V136.598L490.41 128.12H491.922L488.484 136.454H492.786V132.746H494.172V136.454H495.684V137.678H494.172V140H492.786ZM501.4 127.922C502.384 127.922 503.182 128.108 503.794 128.48C505.09 129.248 505.738 131.168 505.738 134.24C505.738 136.412 505.378 137.948 504.658 138.848C503.938 139.736 502.858 140.18 501.418 140.18C499.978 140.18 498.892 139.742 498.16 138.866C497.44 137.978 497.08 136.406 497.08 134.15C497.08 131.882 497.434 130.28 498.142 129.344C498.862 128.396 499.948 127.922 501.4 127.922ZM501.418 129.164C500.734 129.164 500.194 129.308 499.798 129.596C498.946 130.184 498.52 131.738 498.52 134.258C498.52 136.034 498.754 137.264 499.222 137.948C499.69 138.62 500.422 138.956 501.418 138.956C502.414 138.956 503.146 138.614 503.614 137.93C504.082 137.246 504.316 135.98 504.316 134.132C504.316 132.272 504.088 130.982 503.632 130.262C503.188 129.53 502.45 129.164 501.418 129.164ZM515.427 127.922C516.411 127.922 517.209 128.108 517.821 128.48C519.117 129.248 519.765 131.168 519.765 134.24C519.765 136.412 519.405 137.948 518.685 138.848C517.965 139.736 516.885 140.18 515.445 140.18C514.005 140.18 512.919 139.742 512.187 138.866C511.467 137.978 511.107 136.406 511.107 134.15C511.107 131.882 511.461 130.28 512.169 129.344C512.889 128.396 513.975 127.922 515.427 127.922ZM515.445 129.164C514.761 129.164 514.221 129.308 513.825 129.596C512.973 130.184 512.547 131.738 512.547 134.258C512.547 136.034 512.781 137.264 513.249 137.948C513.717 138.62 514.449 138.956 515.445 138.956C516.441 138.956 517.173 138.614 517.641 137.93C518.109 137.246 518.343 135.98 518.343 134.132C518.343 132.272 518.115 130.982 517.659 130.262C517.215 129.53 516.477 129.164 515.445 129.164ZM525.5 127.922C526.484 127.922 527.282 128.108 527.894 128.48C529.19 129.248 529.838 131.168 529.838 134.24C529.838 136.412 529.478 137.948 528.758 138.848C528.038 139.736 526.958 140.18 525.518 140.18C524.078 140.18 522.992 139.742 522.26 138.866C521.54 137.978 521.18 136.406 521.18 134.15C521.18 131.882 521.534 130.28 522.242 129.344C522.962 128.396 524.048 127.922 525.5 127.922ZM525.518 129.164C524.834 129.164 524.294 129.308 523.898 129.596C523.046 130.184 522.62 131.738 522.62 134.258C522.62 136.034 522.854 137.264 523.322 137.948C523.79 138.62 524.522 138.956 525.518 138.956C526.514 138.956 527.246 138.614 527.714 137.93C528.182 137.246 528.416 135.98 528.416 134.132C528.416 132.272 528.188 130.982 527.732 130.262C527.288 129.53 526.55 129.164 525.518 129.164ZM535.572 127.922C536.556 127.922 537.354 128.108 537.966 128.48C539.262 129.248 539.91 131.168 539.91 134.24C539.91 136.412 539.55 137.948 538.83 138.848C538.11 139.736 537.03 140.18 535.59 140.18C534.15 140.18 533.064 139.742 532.332 138.866C531.612 137.978 531.252 136.406 531.252 134.15C531.252 131.882 531.606 130.28 532.314 129.344C533.034 128.396 534.12 127.922 535.572 127.922ZM535.59 129.164C534.906 129.164 534.366 129.308 533.97 129.596C533.118 130.184 532.692 131.738 532.692 134.258C532.692 136.034 532.926 137.264 533.394 137.948C533.862 138.62 534.594 138.956 535.59 138.956C536.586 138.956 537.318 138.614 537.786 137.93C538.254 137.246 538.488 135.98 538.488 134.132C538.488 132.272 538.26 130.982 537.804 130.262C537.36 129.53 536.622 129.164 535.59 129.164ZM549.514 136.508C549.514 138.944 548.248 140.162 545.716 140.162H545.446L545.194 142.232C544.582 142.196 544.276 142.154 544.276 142.106L544.528 140.108L541.954 139.784L542.098 138.686C543.022 138.818 543.88 138.908 544.672 138.956L545.266 134.456C544.042 134.168 543.166 133.802 542.638 133.358C542.122 132.902 541.864 132.158 541.864 131.126C541.864 129.002 543.136 127.94 545.68 127.94C545.86 127.94 545.998 127.946 546.094 127.958L546.4 125.636H547.318L547.012 128.012L549.262 128.282L549.154 129.398C548.326 129.302 547.564 129.224 546.868 129.164L546.328 133.358C547.492 133.634 548.314 133.988 548.794 134.42C549.274 134.852 549.514 135.548 549.514 136.508ZM543.196 131.054C543.196 131.702 543.358 132.164 543.682 132.44C544.006 132.716 544.588 132.956 545.428 133.16L545.95 129.11H545.77C544.054 129.11 543.196 129.758 543.196 131.054ZM548.182 136.598C548.182 136.022 548.032 135.596 547.732 135.32C547.432 135.044 546.91 134.816 546.166 134.636L545.608 138.992H545.644C547.336 138.992 548.182 138.194 548.182 136.598Z" fill="white"/>
<path d="M487.692 167.38V166.12H495.072V167.938L490.5 178.18L489.186 177.766L493.668 167.848V167.38H487.692ZM504.964 166.12V167.38H499.186L498.862 171.25C499.786 170.758 500.716 170.512 501.652 170.512C504.172 170.512 505.432 171.682 505.432 174.022C505.432 175.366 505.084 176.392 504.388 177.1C503.692 177.808 502.714 178.162 501.454 178.162C500.446 178.162 499.33 178.03 498.106 177.766L497.512 177.64L497.674 176.542C499.054 176.806 500.212 176.938 501.148 176.938C502.096 176.938 502.81 176.698 503.29 176.218C503.77 175.726 504.01 175.042 504.01 174.166C504.01 173.29 503.788 172.672 503.344 172.312C502.912 171.94 502.294 171.754 501.49 171.754C501.058 171.754 500.602 171.814 500.122 171.934C499.654 172.054 499.294 172.174 499.042 172.294L498.664 172.474L497.71 172.294L498.034 166.12H504.964ZM515.427 165.922C516.411 165.922 517.209 166.108 517.821 166.48C519.117 167.248 519.765 169.168 519.765 172.24C519.765 174.412 519.405 175.948 518.685 176.848C517.965 177.736 516.885 178.18 515.445 178.18C514.005 178.18 512.919 177.742 512.187 176.866C511.467 175.978 511.107 174.406 511.107 172.15C511.107 169.882 511.461 168.28 512.169 167.344C512.889 166.396 513.975 165.922 515.427 165.922ZM515.445 167.164C514.761 167.164 514.221 167.308 513.825 167.596C512.973 168.184 512.547 169.738 512.547 172.258C512.547 174.034 512.781 175.264 513.249 175.948C513.717 176.62 514.449 176.956 515.445 176.956C516.441 176.956 517.173 176.614 517.641 175.93C518.109 175.246 518.343 173.98 518.343 172.132C518.343 170.272 518.115 168.982 517.659 168.262C517.215 167.53 516.477 167.164 515.445 167.164ZM525.5 165.922C526.484 165.922 527.282 166.108 527.894 166.48C529.19 167.248 529.838 169.168 529.838 172.24C529.838 174.412 529.478 175.948 528.758 176.848C528.038 177.736 526.958 178.18 525.518 178.18C524.078 178.18 522.992 177.742 522.26 176.866C521.54 175.978 521.18 174.406 521.18 172.15C521.18 169.882 521.534 168.28 522.242 167.344C522.962 166.396 524.048 165.922 525.5 165.922ZM525.518 167.164C524.834 167.164 524.294 167.308 523.898 167.596C523.046 168.184 522.62 169.738 522.62 172.258C522.62 174.034 522.854 175.264 523.322 175.948C523.79 176.62 524.522 176.956 525.518 176.956C526.514 176.956 527.246 176.614 527.714 175.93C528.182 175.246 528.416 173.98 528.416 172.132C528.416 170.272 528.188 168.982 527.732 168.262C527.288 167.53 526.55 167.164 525.518 167.164ZM535.572 165.922C536.556 165.922 537.354 166.108 537.966 166.48C539.262 167.248 539.91 169.168 539.91 172.24C539.91 174.412 539.55 175.948 538.83 176.848C538.11 177.736 537.03 178.18 535.59 178.18C534.15 178.18 533.064 177.742 532.332 176.866C531.612 175.978 531.252 174.406 531.252 172.15C531.252 169.882 531.606 168.28 532.314 167.344C533.034 166.396 534.12 165.922 535.572 165.922ZM535.59 167.164C534.906 167.164 534.366 167.308 533.97 167.596C533.118 168.184 532.692 169.738 532.692 172.258C532.692 174.034 532.926 175.264 533.394 175.948C533.862 176.62 534.594 176.956 535.59 176.956C536.586 176.956 537.318 176.614 537.786 175.93C538.254 175.246 538.488 173.98 538.488 172.132C538.488 170.272 538.26 168.982 537.804 168.262C537.36 167.53 536.622 167.164 535.59 167.164ZM549.514 174.508C549.514 176.944 548.248 178.162 545.716 178.162H545.446L545.194 180.232C544.582 180.196 544.276 180.154 544.276 180.106L544.528 178.108L541.954 177.784L542.098 176.686C543.022 176.818 543.88 176.908 544.672 176.956L545.266 172.456C544.042 172.168 543.166 171.802 542.638 171.358C542.122 170.902 541.864 170.158 541.864 169.126C541.864 167.002 543.136 165.94 545.68 165.94C545.86 165.94 545.998 165.946 546.094 165.958L546.4 163.636H547.318L547.012 166.012L549.262 166.282L549.154 167.398C548.326 167.302 547.564 167.224 546.868 167.164L546.328 171.358C547.492 171.634 548.314 171.988 548.794 172.42C549.274 172.852 549.514 173.548 549.514 174.508ZM543.196 169.054C543.196 169.702 543.358 170.164 543.682 170.44C544.006 170.716 544.588 170.956 545.428 171.16L545.95 167.11H545.77C544.054 167.11 543.196 167.758 543.196 169.054ZM548.182 174.598C548.182 174.022 548.032 173.596 547.732 173.32C547.432 173.044 546.91 172.816 546.166 172.636L545.608 176.992H545.644C547.336 176.992 548.182 176.194 548.182 174.598Z" fill="white"/>
<path d="M488.272 205.12V217H486.886V206.668L483.826 208.684L483.196 207.64L486.976 205.12H488.272ZM499.928 205.12V206.38H494.15L493.826 210.25C494.75 209.758 495.68 209.512 496.616 209.512C499.136 209.512 500.396 210.682 500.396 213.022C500.396 214.366 500.048 215.392 499.352 216.1C498.656 216.808 497.678 217.162 496.418 217.162C495.41 217.162 494.294 217.03 493.07 216.766L492.476 216.64L492.638 215.542C494.018 215.806 495.176 215.938 496.112 215.938C497.06 215.938 497.774 215.698 498.254 215.218C498.734 214.726 498.974 214.042 498.974 213.166C498.974 212.29 498.752 211.672 498.308 211.312C497.876 210.94 497.258 210.754 496.454 210.754C496.022 210.754 495.566 210.814 495.086 210.934C494.618 211.054 494.258 211.174 494.006 211.294L493.628 211.474L492.674 211.294L492.998 205.12H499.928ZM506.436 204.922C507.42 204.922 508.218 205.108 508.83 205.48C510.126 206.248 510.774 208.168 510.774 211.24C510.774 213.412 510.414 214.948 509.694 215.848C508.974 216.736 507.894 217.18 506.454 217.18C505.014 217.18 503.928 216.742 503.196 215.866C502.476 214.978 502.116 213.406 502.116 211.15C502.116 208.882 502.47 207.28 503.178 206.344C503.898 205.396 504.984 204.922 506.436 204.922ZM506.454 206.164C505.77 206.164 505.23 206.308 504.834 206.596C503.982 207.184 503.556 208.738 503.556 211.258C503.556 213.034 503.79 214.264 504.258 214.948C504.726 215.62 505.458 215.956 506.454 215.956C507.45 215.956 508.182 215.614 508.65 214.93C509.118 214.246 509.352 212.98 509.352 211.132C509.352 209.272 509.124 207.982 508.668 207.262C508.224 206.53 507.486 206.164 506.454 206.164ZM520.463 204.922C521.447 204.922 522.245 205.108 522.857 205.48C524.153 206.248 524.801 208.168 524.801 211.24C524.801 213.412 524.441 214.948 523.721 215.848C523.001 216.736 521.921 217.18 520.481 217.18C519.041 217.18 517.955 216.742 517.223 215.866C516.503 214.978 516.143 213.406 516.143 211.15C516.143 208.882 516.497 207.28 517.205 206.344C517.925 205.396 519.011 204.922 520.463 204.922ZM520.481 206.164C519.797 206.164 519.257 206.308 518.861 206.596C518.009 207.184 517.583 208.738 517.583 211.258C517.583 213.034 517.817 214.264 518.285 214.948C518.753 215.62 519.485 215.956 520.481 215.956C521.477 215.956 522.209 215.614 522.677 214.93C523.145 214.246 523.379 212.98 523.379 211.132C523.379 209.272 523.151 207.982 522.695 207.262C522.251 206.53 521.513 206.164 520.481 206.164ZM530.536 204.922C531.52 204.922 532.318 205.108 532.93 205.48C534.226 206.248 534.874 208.168 534.874 211.24C534.874 213.412 534.514 214.948 533.794 215.848C533.074 216.736 531.994 217.18 530.554 217.18C529.114 217.18 528.028 216.742 527.296 215.866C526.576 214.978 526.216 213.406 526.216 211.15C526.216 208.882 526.57 207.28 527.278 206.344C527.998 205.396 529.084 204.922 530.536 204.922ZM530.554 206.164C529.87 206.164 529.33 206.308 528.934 206.596C528.082 207.184 527.656 208.738 527.656 211.258C527.656 213.034 527.89 214.264 528.358 214.948C528.826 215.62 529.558 215.956 530.554 215.956C531.55 215.956 532.282 215.614 532.75 214.93C533.218 214.246 533.452 212.98 533.452 211.132C533.452 209.272 533.224 207.982 532.768 207.262C532.324 206.53 531.586 206.164 530.554 206.164ZM540.608 204.922C541.592 204.922 542.39 205.108 543.002 205.48C544.298 206.248 544.946 208.168 544.946 211.24C544.946 213.412 544.586 214.948 543.866 215.848C543.146 216.736 542.066 217.18 540.626 217.18C539.186 217.18 538.1 216.742 537.368 215.866C536.648 214.978 536.288 213.406 536.288 211.15C536.288 208.882 536.642 207.28 537.35 206.344C538.07 205.396 539.156 204.922 540.608 204.922ZM540.626 206.164C539.942 206.164 539.402 206.308 539.006 206.596C538.154 207.184 537.728 208.738 537.728 211.258C537.728 213.034 537.962 214.264 538.43 214.948C538.898 215.62 539.63 215.956 540.626 215.956C541.622 215.956 542.354 215.614 542.822 214.93C543.29 214.246 543.524 212.98 543.524 211.132C543.524 209.272 543.296 207.982 542.84 207.262C542.396 206.53 541.658 206.164 540.626 206.164ZM554.55 213.508C554.55 215.944 553.284 217.162 550.752 217.162H550.482L550.23 219.232C549.618 219.196 549.312 219.154 549.312 219.106L549.564 217.108L546.99 216.784L547.134 215.686C548.058 215.818 548.916 215.908 549.708 215.956L550.302 211.456C549.078 211.168 548.202 210.802 547.674 210.358C547.158 209.902 546.9 209.158 546.9 208.126C546.9 206.002 548.172 204.94 550.716 204.94C550.896 204.94 551.034 204.946 551.13 204.958L551.436 202.636H552.354L552.048 205.012L554.298 205.282L554.19 206.398C553.362 206.302 552.6 206.224 551.904 206.164L551.364 210.358C552.528 210.634 553.35 210.988 553.83 211.42C554.31 211.852 554.55 212.548 554.55 213.508ZM548.232 208.054C548.232 208.702 548.394 209.164 548.718 209.44C549.042 209.716 549.624 209.956 550.464 210.16L550.986 206.11H550.806C549.09 206.11 548.232 206.758 548.232 208.054ZM553.218 213.598C553.218 213.022 553.068 212.596 552.768 212.32C552.468 212.044 551.946 211.816 551.202 211.636L550.644 215.992H550.68C552.372 215.992 553.218 215.194 553.218 213.598Z" fill="white"/>
<path fill-rule="evenodd" clip-rule="evenodd" d="M437.5 194V231H438.5V194H609V193H438.5V155H608V154H438.5V116H608V115H438.5V77H608V76H438.5V37H608V36H438.5V0H437.5V36H130V37H437.5V76H130V77H437.5V115H130V116H437.5V154H130V155H437.5V193H131V194H437.5Z" fill="#68688D"/>
</svg>
