<svg width="673" height="328" viewBox="0 0 673 328" fill="none" xmlns="http://www.w3.org/2000/svg">
<g filter="url(#filter0_bd_147_162)">
<g clip-path="url(#clip0_147_162)">
<rect x="49" y="142" width="139" height="133" rx="10" fill="url(#paint0_radial_147_162)" fill-opacity="0.8" shape-rendering="crispEdges"/>
<path d="M65.054 166.19H71.814C73.634 166.19 74.9947 166.563 75.896 167.308C76.7973 168.036 77.248 169.206 77.248 170.818C77.248 171.875 77.0747 172.707 76.728 173.314C76.3987 173.921 75.87 174.423 75.142 174.822C76.8407 175.481 77.69 176.859 77.69 178.956C77.69 182.319 75.8007 184 72.022 184H65.054V166.19ZM71.814 176.226H67.94V181.504H71.866C72.8193 181.504 73.53 181.305 73.998 180.906C74.4833 180.507 74.726 179.823 74.726 178.852C74.726 177.881 74.4487 177.205 73.894 176.824C73.3393 176.425 72.646 176.226 71.814 176.226ZM71.658 168.686H67.94V173.782H71.762C73.4607 173.782 74.31 172.907 74.31 171.156C74.31 169.509 73.426 168.686 71.658 168.686ZM90.2559 175.004V180.932C90.2733 181.313 90.3686 181.599 90.5419 181.79C90.7326 181.963 91.0186 182.076 91.3999 182.128L91.3219 184.286C89.8313 184.286 88.6786 183.965 87.8639 183.324C86.4773 183.965 85.0819 184.286 83.6779 184.286C81.0953 184.286 79.8039 182.908 79.8039 180.152C79.8039 178.835 80.1506 177.881 80.8439 177.292C81.5546 176.703 82.6379 176.347 84.0939 176.226L87.4479 175.94V175.004C87.4479 174.311 87.2919 173.825 86.9799 173.548C86.6853 173.271 86.2433 173.132 85.6539 173.132C84.5446 173.132 83.1579 173.201 81.4939 173.34L80.6619 173.392L80.5579 171.39C82.4473 170.939 84.1806 170.714 85.7579 170.714C87.3526 170.714 88.4966 171.061 89.1899 171.754C89.9006 172.43 90.2559 173.513 90.2559 175.004ZM84.4319 178.228C83.2359 178.332 82.6379 178.982 82.6379 180.178C82.6379 181.374 83.1666 181.972 84.2239 181.972C85.0906 181.972 86.0093 181.833 86.9799 181.556L87.4479 181.4V177.942L84.4319 178.228ZM102.836 173.678C100.79 173.401 99.3083 173.262 98.3897 173.262C97.471 173.262 96.8297 173.375 96.4657 173.6C96.119 173.808 95.9457 174.146 95.9457 174.614C95.9457 175.082 96.1363 175.411 96.5177 175.602C96.9163 175.793 97.835 176.018 99.2737 176.278C100.73 176.521 101.761 176.911 102.368 177.448C102.974 177.985 103.278 178.939 103.278 180.308C103.278 181.677 102.836 182.683 101.952 183.324C101.085 183.965 99.811 184.286 98.1297 184.286C97.0723 184.286 95.7377 184.139 94.1257 183.844L93.3197 183.714L93.4237 181.348C95.5037 181.625 97.003 181.764 97.9217 181.764C98.8403 181.764 99.4903 181.651 99.8717 181.426C100.27 181.201 100.47 180.828 100.47 180.308C100.47 179.788 100.279 179.433 99.8977 179.242C99.5337 179.034 98.641 178.817 97.2197 178.592C95.8157 178.349 94.7843 177.977 94.1257 177.474C93.467 176.971 93.1377 176.053 93.1377 174.718C93.1377 173.383 93.5883 172.387 94.4897 171.728C95.4083 171.069 96.5783 170.74 97.9997 170.74C99.109 170.74 100.47 170.879 102.082 171.156L102.888 171.312L102.836 173.678ZM106.001 184V171H108.835V184H106.001ZM106.001 168.79V165.8H108.835V168.79H106.001ZM117.135 170.714C118.053 170.714 119.137 170.835 120.385 171.078L121.035 171.208L120.931 173.444C119.561 173.305 118.547 173.236 117.889 173.236C116.571 173.236 115.687 173.531 115.237 174.12C114.786 174.709 114.561 175.819 114.561 177.448C114.561 179.077 114.777 180.204 115.211 180.828C115.644 181.452 116.545 181.764 117.915 181.764L120.957 181.556L121.035 183.818C119.284 184.13 117.967 184.286 117.083 184.286C115.107 184.286 113.711 183.757 112.897 182.7C112.099 181.625 111.701 179.875 111.701 177.448C111.701 175.021 112.125 173.297 112.975 172.274C113.824 171.234 115.211 170.714 117.135 170.714Z" fill="white"/>
<path d="M63.864 216.984C63.864 215.48 64.1147 214.413 64.616 213.784C65.128 213.155 65.992 212.84 67.208 212.84C68.4347 212.84 69.2987 213.155 69.8 213.784C70.312 214.413 70.568 215.48 70.568 216.984C70.568 218.488 70.3333 219.56 69.864 220.2C69.4053 220.84 68.5253 221.16 67.224 221.16C65.9227 221.16 65.0373 220.84 64.568 220.2C64.0987 219.56 63.864 218.488 63.864 216.984ZM64.856 216.952C64.856 218.221 65 219.101 65.288 219.592C65.5867 220.072 66.2267 220.312 67.208 220.312C68.2 220.312 68.8453 220.067 69.144 219.576C69.4427 219.085 69.592 218.216 69.592 216.968C69.592 215.709 69.4213 214.851 69.08 214.392C68.7493 213.923 68.1307 213.688 67.224 213.688C66.3173 213.688 65.6933 213.917 65.352 214.376C65.0213 214.835 64.856 215.693 64.856 216.952ZM71.7613 213H78.4653V213.848H75.5853V221H74.6413V213.848H71.7613V213ZM90.2931 217.912C90.2931 219.043 90.0105 219.864 89.4451 220.376C88.8905 220.877 88.0691 221.128 86.9811 221.128H86.7091L86.4691 222.968C85.9891 222.936 85.7491 222.899 85.7491 222.856L85.9731 221.08L83.6851 220.84L83.7971 220.024C84.6185 220.131 85.3811 220.205 86.0851 220.248L86.6451 215.96C86.1011 215.853 85.6585 215.741 85.3171 215.624C84.9865 215.496 84.6825 215.325 84.4051 215.112C83.8718 214.717 83.6051 214.029 83.6051 213.048C83.6051 211.203 84.7198 210.28 86.9491 210.28C87.1305 210.28 87.2745 210.285 87.3811 210.296L87.6371 208.28H88.3571L88.0851 210.344L90.0531 210.568L89.9891 211.384C89.2638 211.299 88.5918 211.229 87.9731 211.176L87.4611 215.192C88.4745 215.405 89.1998 215.704 89.6371 216.088C90.0745 216.461 90.2931 217.069 90.2931 217.912ZM84.5651 212.984C84.5651 213.656 84.7198 214.125 85.0291 214.392C85.3491 214.659 85.9251 214.877 86.7571 215.048L87.2691 211.128H87.0131C85.3811 211.128 84.5651 211.747 84.5651 212.984ZM86.9491 220.28C88.5385 220.28 89.3331 219.571 89.3331 218.152C89.3331 217.459 89.1838 216.984 88.8851 216.728C88.5971 216.472 88.0851 216.264 87.3491 216.104L86.8211 220.28H86.9491ZM97.5023 210.44V221H96.5263V211.528L93.7103 213.416L93.2463 212.648L96.5743 210.44H97.5023ZM101.511 212.488C101.821 211.645 102.237 211.069 102.759 210.76C103.293 210.44 103.927 210.28 104.663 210.28C105.41 210.28 106.007 210.371 106.455 210.552C106.903 210.723 107.293 211.016 107.623 211.432C108.285 212.243 108.615 213.677 108.615 215.736C108.615 217.784 108.295 219.203 107.655 219.992C107.026 220.771 106.082 221.16 104.823 221.16C103.565 221.16 102.621 220.776 101.991 220.008C101.362 219.229 101.047 217.864 101.047 215.912C101.047 214.472 101.202 213.331 101.511 212.488ZM106.391 211.56C106.007 211.293 105.485 211.16 104.823 211.16C104.173 211.16 103.655 211.288 103.271 211.544C102.471 212.088 102.071 213.549 102.071 215.928C102.071 217.581 102.295 218.717 102.743 219.336C103.191 219.955 103.89 220.264 104.839 220.264C105.458 220.264 105.959 220.147 106.343 219.912C107.175 219.4 107.591 218.067 107.591 215.912C107.591 213.565 107.191 212.115 106.391 211.56ZM110.465 212.488C110.774 211.645 111.19 211.069 111.713 210.76C112.246 210.44 112.881 210.28 113.617 210.28C114.363 210.28 114.961 210.371 115.409 210.552C115.857 210.723 116.246 211.016 116.577 211.432C117.238 212.243 117.569 213.677 117.569 215.736C117.569 217.784 117.249 219.203 116.609 219.992C115.979 220.771 115.035 221.16 113.777 221.16C112.518 221.16 111.574 220.776 110.945 220.008C110.315 219.229 110.001 217.864 110.001 215.912C110.001 214.472 110.155 213.331 110.465 212.488ZM115.345 211.56C114.961 211.293 114.438 211.16 113.777 211.16C113.126 211.16 112.609 211.288 112.225 211.544C111.425 212.088 111.025 213.549 111.025 215.928C111.025 217.581 111.249 218.717 111.697 219.336C112.145 219.955 112.843 220.264 113.793 220.264C114.411 220.264 114.913 220.147 115.297 219.912C116.129 219.4 116.545 218.067 116.545 215.912C116.545 213.565 116.145 212.115 115.345 211.56ZM63.992 242.168C64.28 241.635 64.52 241.027 64.712 240.344C64.904 239.651 65 238.893 65 238.072V235H70.168V242.168H70.904V244.984H69.976V243.016H64.328V244.984H63.4V242.168H63.992ZM65.912 238.184C65.912 239.005 65.8267 239.736 65.656 240.376C65.496 241.016 65.288 241.613 65.032 242.168H69.224V235.848H65.912V238.184ZM72.2546 238.984C72.2546 237.48 72.5053 236.413 73.0066 235.784C73.5186 235.155 74.3826 234.84 75.5986 234.84C76.8253 234.84 77.6893 235.155 78.1906 235.784C78.7026 236.413 78.9586 237.48 78.9586 238.984C78.9586 240.488 78.724 241.56 78.2546 242.2C77.796 242.84 76.916 243.16 75.6146 243.16C74.3133 243.16 73.428 242.84 72.9586 242.2C72.4893 241.56 72.2546 240.488 72.2546 238.984ZM73.2466 238.952C73.2466 240.221 73.3906 241.101 73.6786 241.592C73.9773 242.072 74.6173 242.312 75.5986 242.312C76.5906 242.312 77.236 242.067 77.5346 241.576C77.8333 241.085 77.9826 240.216 77.9826 238.968C77.9826 237.709 77.812 236.851 77.4706 236.392C77.14 235.923 76.5213 235.688 75.6146 235.688C74.708 235.688 74.084 235.917 73.7426 236.376C73.412 236.835 73.2466 237.693 73.2466 238.952ZM91.1838 239.912C91.1838 241.043 90.9011 241.864 90.3358 242.376C89.7811 242.877 88.9598 243.128 87.8718 243.128H87.5998L87.3598 244.968C86.8798 244.936 86.6398 244.899 86.6398 244.856L86.8638 243.08L84.5758 242.84L84.6878 242.024C85.5091 242.131 86.2718 242.205 86.9758 242.248L87.5358 237.96C86.9918 237.853 86.5491 237.741 86.2078 237.624C85.8771 237.496 85.5731 237.325 85.2958 237.112C84.7624 236.717 84.4958 236.029 84.4958 235.048C84.4958 233.203 85.6104 232.28 87.8398 232.28C88.0211 232.28 88.1651 232.285 88.2718 232.296L88.5278 230.28H89.2478L88.9758 232.344L90.9438 232.568L90.8798 233.384C90.1544 233.299 89.4824 233.229 88.8638 233.176L88.3518 237.192C89.3651 237.405 90.0904 237.704 90.5278 238.088C90.9651 238.461 91.1838 239.069 91.1838 239.912ZM85.4557 234.984C85.4557 235.656 85.6104 236.125 85.9198 236.392C86.2398 236.659 86.8158 236.877 87.6478 237.048L88.1598 233.128H87.9038C86.2718 233.128 85.4557 233.747 85.4557 234.984ZM87.8398 242.28C89.4291 242.28 90.2238 241.571 90.2238 240.152C90.2238 239.459 90.0744 238.984 89.7758 238.728C89.4878 238.472 88.9758 238.264 88.2398 238.104L87.7118 242.28H87.8398ZM100.153 243H93.4169V242.168L96.7129 238.68C97.2462 238.115 97.6302 237.693 97.8649 237.416C98.1102 237.128 98.3289 236.781 98.5209 236.376C98.7235 235.971 98.8249 235.56 98.8249 235.144C98.8249 234.429 98.6222 233.923 98.2169 233.624C97.8222 233.325 97.2089 233.176 96.3769 233.176C95.6729 233.176 94.8889 233.272 94.0249 233.464L93.5929 233.56L93.5129 232.712C94.5155 232.424 95.5449 232.28 96.6009 232.28C97.6675 232.28 98.4729 232.504 99.0169 232.952C99.5715 233.389 99.8489 234.093 99.8489 235.064C99.8489 235.8 99.6835 236.44 99.3529 236.984C99.0222 237.528 98.4675 238.189 97.6889 238.968L94.6169 242.136H100.153V243ZM102.402 234.488C102.711 233.645 103.127 233.069 103.65 232.76C104.183 232.44 104.818 232.28 105.554 232.28C106.301 232.28 106.898 232.371 107.346 232.552C107.794 232.723 108.183 233.016 108.514 233.432C109.175 234.243 109.506 235.677 109.506 237.736C109.506 239.784 109.186 241.203 108.546 241.992C107.917 242.771 106.973 243.16 105.714 243.16C104.455 243.16 103.511 242.776 102.882 242.008C102.253 241.229 101.938 239.864 101.938 237.912C101.938 236.472 102.093 235.331 102.402 234.488ZM107.282 233.56C106.898 233.293 106.375 233.16 105.714 233.16C105.063 233.16 104.546 233.288 104.162 233.544C103.362 234.088 102.962 235.549 102.962 237.928C102.962 239.581 103.186 240.717 103.634 241.336C104.082 241.955 104.781 242.264 105.73 242.264C106.349 242.264 106.85 242.147 107.234 241.912C108.066 241.4 108.482 240.067 108.482 237.912C108.482 235.565 108.082 234.115 107.282 233.56ZM111.355 234.488C111.664 233.645 112.08 233.069 112.603 232.76C113.136 232.44 113.771 232.28 114.507 232.28C115.254 232.28 115.851 232.371 116.299 232.552C116.747 232.723 117.136 233.016 117.467 233.432C118.128 234.243 118.459 235.677 118.459 237.736C118.459 239.784 118.139 241.203 117.499 241.992C116.87 242.771 115.926 243.16 114.667 243.16C113.408 243.16 112.464 242.776 111.835 242.008C111.206 241.229 110.891 239.864 110.891 237.912C110.891 236.472 111.046 235.331 111.355 234.488ZM116.235 233.56C115.851 233.293 115.328 233.16 114.667 233.16C114.016 233.16 113.499 233.288 113.115 233.544C112.315 234.088 111.915 235.549 111.915 237.928C111.915 239.581 112.139 240.717 112.587 241.336C113.035 241.955 113.734 242.264 114.683 242.264C115.302 242.264 115.803 242.147 116.187 241.912C117.019 241.4 117.435 240.067 117.435 237.912C117.435 235.565 117.035 234.115 116.235 233.56ZM120.308 234.488C120.618 233.645 121.034 233.069 121.556 232.76C122.09 232.44 122.724 232.28 123.46 232.28C124.207 232.28 124.804 232.371 125.252 232.552C125.7 232.723 126.09 233.016 126.42 233.432C127.082 234.243 127.412 235.677 127.412 237.736C127.412 239.784 127.092 241.203 126.452 241.992C125.823 242.771 124.879 243.16 123.62 243.16C122.362 243.16 121.418 242.776 120.788 242.008C120.159 241.229 119.844 239.864 119.844 237.912C119.844 236.472 119.999 235.331 120.308 234.488ZM125.188 233.56C124.804 233.293 124.282 233.16 123.62 233.16C122.97 233.16 122.452 233.288 122.068 233.544C121.268 234.088 120.868 235.549 120.868 237.928C120.868 239.581 121.092 240.717 121.54 241.336C121.988 241.955 122.687 242.264 123.636 242.264C124.255 242.264 124.756 242.147 125.14 241.912C125.972 241.4 126.388 240.067 126.388 237.912C126.388 235.565 125.988 234.115 125.188 233.56Z" fill="white"/>
</g>
<rect x="49.5" y="142.5" width="138" height="132" rx="9.5" stroke="url(#paint1_linear_147_162)" shape-rendering="crispEdges"/>
</g>
<g filter="url(#filter1_bd_147_162)">
<g clip-path="url(#clip1_147_162)">
<rect x="340" y="85" width="139" height="190" rx="10" fill="url(#paint2_radial_147_162)" fill-opacity="0.8" shape-rendering="crispEdges"/>
<path d="M362.58 121.462H358.94V127H356.054V109.19H362.58C366.619 109.19 368.638 111.183 368.638 115.17C368.638 117.215 368.127 118.775 367.104 119.85C366.099 120.925 364.591 121.462 362.58 121.462ZM358.94 118.966H362.554C364.634 118.966 365.674 117.701 365.674 115.17C365.674 113.957 365.423 113.073 364.92 112.518C364.417 111.963 363.629 111.686 362.554 111.686H358.94V118.966ZM371.077 127V114H373.885V115.56C375.359 114.607 376.832 113.991 378.305 113.714V116.548C376.815 116.843 375.541 117.224 374.483 117.692L373.911 117.926V127H371.077ZM389.626 124.66L390.354 124.582L390.406 126.688C388.43 127.087 386.68 127.286 385.154 127.286C383.23 127.286 381.844 126.757 380.994 125.7C380.162 124.643 379.746 122.953 379.746 120.63C379.746 116.019 381.627 113.714 385.388 113.714C389.028 113.714 390.848 115.699 390.848 119.668L390.666 121.696H382.606C382.624 122.771 382.858 123.559 383.308 124.062C383.759 124.565 384.6 124.816 385.83 124.816C387.061 124.816 388.326 124.764 389.626 124.66ZM388.066 119.512C388.066 118.229 387.858 117.337 387.442 116.834C387.044 116.314 386.359 116.054 385.388 116.054C384.418 116.054 383.707 116.323 383.256 116.86C382.823 117.397 382.598 118.281 382.58 119.512H388.066ZM396.407 127H393.573V114H396.381V114.806C397.612 114.078 398.739 113.714 399.761 113.714C401.269 113.714 402.37 114.139 403.063 114.988C404.641 114.139 406.209 113.714 407.769 113.714C409.329 113.714 410.43 114.199 411.071 115.17C411.713 116.123 412.033 117.744 412.033 120.032V127H409.225V120.11C409.225 118.706 409.078 117.709 408.783 117.12C408.506 116.531 407.917 116.236 407.015 116.236C406.235 116.236 405.395 116.409 404.493 116.756L404.051 116.938C404.19 117.285 404.259 118.394 404.259 120.266V127H401.451V120.318C401.451 118.775 401.313 117.709 401.035 117.12C400.758 116.531 400.151 116.236 399.215 116.236C398.349 116.236 397.543 116.409 396.797 116.756L396.407 116.912V127ZM415.359 127V114H418.193V127H415.359ZM415.359 111.79V108.8H418.193V111.79H415.359ZM429.508 114H432.316V127H429.508V126.194C428.243 126.922 427.073 127.286 425.998 127.286C424.213 127.286 423.017 126.809 422.41 125.856C421.803 124.885 421.5 123.195 421.5 120.786V114H424.334V120.812C424.334 122.372 424.464 123.421 424.724 123.958C424.984 124.495 425.591 124.764 426.544 124.764C427.48 124.764 428.338 124.591 429.118 124.244L429.508 124.088V114ZM438.581 127H435.747V114H438.555V114.806C439.786 114.078 440.913 113.714 441.935 113.714C443.443 113.714 444.544 114.139 445.237 114.988C446.815 114.139 448.383 113.714 449.943 113.714C451.503 113.714 452.604 114.199 453.245 115.17C453.887 116.123 454.207 117.744 454.207 120.032V127H451.399V120.11C451.399 118.706 451.252 117.709 450.957 117.12C450.68 116.531 450.091 116.236 449.189 116.236C448.409 116.236 447.569 116.409 446.667 116.756L446.225 116.938C446.364 117.285 446.433 118.394 446.433 120.266V127H443.625V120.318C443.625 118.775 443.487 117.709 443.209 117.12C442.932 116.531 442.325 116.236 441.389 116.236C440.523 116.236 439.717 116.409 438.971 116.756L438.581 116.912V127Z" fill="white"/>
<path d="M354.864 216.984C354.864 215.48 355.115 214.413 355.616 213.784C356.128 213.155 356.992 212.84 358.208 212.84C359.435 212.84 360.299 213.155 360.8 213.784C361.312 214.413 361.568 215.48 361.568 216.984C361.568 218.488 361.333 219.56 360.864 220.2C360.405 220.84 359.525 221.16 358.224 221.16C356.923 221.16 356.037 220.84 355.568 220.2C355.099 219.56 354.864 218.488 354.864 216.984ZM355.856 216.952C355.856 218.221 356 219.101 356.288 219.592C356.587 220.072 357.227 220.312 358.208 220.312C359.2 220.312 359.845 220.067 360.144 219.576C360.443 219.085 360.592 218.216 360.592 216.968C360.592 215.709 360.421 214.851 360.08 214.392C359.749 213.923 359.131 213.688 358.224 213.688C357.317 213.688 356.693 213.917 356.352 214.376C356.021 214.835 355.856 215.693 355.856 216.952ZM362.761 213H369.465V213.848H366.585V221H365.641V213.848H362.761V213ZM381.293 217.912C381.293 219.043 381.01 219.864 380.445 220.376C379.89 220.877 379.069 221.128 377.981 221.128H377.709L377.469 222.968C376.989 222.936 376.749 222.899 376.749 222.856L376.973 221.08L374.685 220.84L374.797 220.024C375.618 220.131 376.381 220.205 377.085 220.248L377.645 215.96C377.101 215.853 376.658 215.741 376.317 215.624C375.986 215.496 375.682 215.325 375.405 215.112C374.872 214.717 374.605 214.029 374.605 213.048C374.605 211.203 375.72 210.28 377.949 210.28C378.13 210.28 378.274 210.285 378.381 210.296L378.637 208.28H379.357L379.085 210.344L381.053 210.568L380.989 211.384C380.264 211.299 379.592 211.229 378.973 211.176L378.461 215.192C379.474 215.405 380.2 215.704 380.637 216.088C381.074 216.461 381.293 217.069 381.293 217.912ZM375.565 212.984C375.565 213.656 375.72 214.125 376.029 214.392C376.349 214.659 376.925 214.877 377.757 215.048L378.269 211.128H378.013C376.381 211.128 375.565 211.747 375.565 212.984ZM377.949 220.28C379.538 220.28 380.333 219.571 380.333 218.152C380.333 217.459 380.184 216.984 379.885 216.728C379.597 216.472 379.085 216.264 378.349 216.104L377.821 220.28H377.949ZM389.974 210.44V211.352H384.742L384.454 215.08C385.308 214.611 386.182 214.376 387.078 214.376C389.318 214.376 390.438 215.411 390.438 217.48C390.438 218.675 390.129 219.581 389.51 220.2C388.892 220.819 388.028 221.128 386.918 221.128C386.012 221.128 385.03 221.021 383.974 220.808L383.462 220.696L383.59 219.88C384.796 220.125 385.836 220.248 386.71 220.248C387.585 220.248 388.252 220.013 388.71 219.544C389.18 219.075 389.414 218.419 389.414 217.576C389.414 216.723 389.201 216.125 388.774 215.784C388.348 215.432 387.75 215.256 386.982 215.256C386.577 215.256 386.156 215.32 385.718 215.448C385.281 215.565 384.945 215.688 384.71 215.816L384.342 215.992L383.606 215.864L383.91 210.44H389.974ZM392.511 212.488C392.821 211.645 393.237 211.069 393.759 210.76C394.293 210.44 394.927 210.28 395.663 210.28C396.41 210.28 397.007 210.371 397.455 210.552C397.903 210.723 398.293 211.016 398.623 211.432C399.285 212.243 399.615 213.677 399.615 215.736C399.615 217.784 399.295 219.203 398.655 219.992C398.026 220.771 397.082 221.16 395.823 221.16C394.565 221.16 393.621 220.776 392.991 220.008C392.362 219.229 392.047 217.864 392.047 215.912C392.047 214.472 392.202 213.331 392.511 212.488ZM397.391 211.56C397.007 211.293 396.485 211.16 395.823 211.16C395.173 211.16 394.655 211.288 394.271 211.544C393.471 212.088 393.071 213.549 393.071 215.928C393.071 217.581 393.295 218.717 393.743 219.336C394.191 219.955 394.89 220.264 395.839 220.264C396.458 220.264 396.959 220.147 397.343 219.912C398.175 219.4 398.591 218.067 398.591 215.912C398.591 213.565 398.191 212.115 397.391 211.56ZM401.465 212.488C401.774 211.645 402.19 211.069 402.713 210.76C403.246 210.44 403.881 210.28 404.617 210.28C405.363 210.28 405.961 210.371 406.409 210.552C406.857 210.723 407.246 211.016 407.577 211.432C408.238 212.243 408.569 213.677 408.569 215.736C408.569 217.784 408.249 219.203 407.609 219.992C406.979 220.771 406.035 221.16 404.777 221.16C403.518 221.16 402.574 220.776 401.945 220.008C401.315 219.229 401.001 217.864 401.001 215.912C401.001 214.472 401.155 213.331 401.465 212.488ZM406.345 211.56C405.961 211.293 405.438 211.16 404.777 211.16C404.126 211.16 403.609 211.288 403.225 211.544C402.425 212.088 402.025 213.549 402.025 215.928C402.025 217.581 402.249 218.717 402.697 219.336C403.145 219.955 403.843 220.264 404.793 220.264C405.411 220.264 405.913 220.147 406.297 219.912C407.129 219.4 407.545 218.067 407.545 215.912C407.545 213.565 407.145 212.115 406.345 211.56ZM415.362 210.44V221H414.386V211.528L411.57 213.416L411.106 212.648L414.434 210.44H415.362ZM354.992 242.168C355.28 241.635 355.52 241.027 355.712 240.344C355.904 239.651 356 238.893 356 238.072V235H361.168V242.168H361.904V244.984H360.976V243.016H355.328V244.984H354.4V242.168H354.992ZM356.912 238.184C356.912 239.005 356.827 239.736 356.656 240.376C356.496 241.016 356.288 241.613 356.032 242.168H360.224V235.848H356.912V238.184ZM363.255 238.984C363.255 237.48 363.505 236.413 364.007 235.784C364.519 235.155 365.383 234.84 366.599 234.84C367.825 234.84 368.689 235.155 369.191 235.784C369.703 236.413 369.959 237.48 369.959 238.984C369.959 240.488 369.724 241.56 369.255 242.2C368.796 242.84 367.916 243.16 366.615 243.16C365.313 243.16 364.428 242.84 363.959 242.2C363.489 241.56 363.255 240.488 363.255 238.984ZM364.247 238.952C364.247 240.221 364.391 241.101 364.679 241.592C364.977 242.072 365.617 242.312 366.599 242.312C367.591 242.312 368.236 242.067 368.535 241.576C368.833 241.085 368.983 240.216 368.983 238.968C368.983 237.709 368.812 236.851 368.471 236.392C368.14 235.923 367.521 235.688 366.615 235.688C365.708 235.688 365.084 235.917 364.743 236.376C364.412 236.835 364.247 237.693 364.247 238.952ZM382.184 239.912C382.184 241.043 381.901 241.864 381.336 242.376C380.781 242.877 379.96 243.128 378.872 243.128H378.6L378.36 244.968C377.88 244.936 377.64 244.899 377.64 244.856L377.864 243.08L375.576 242.84L375.688 242.024C376.509 242.131 377.272 242.205 377.976 242.248L378.536 237.96C377.992 237.853 377.549 237.741 377.208 237.624C376.877 237.496 376.573 237.325 376.296 237.112C375.762 236.717 375.496 236.029 375.496 235.048C375.496 233.203 376.61 232.28 378.84 232.28C379.021 232.28 379.165 232.285 379.272 232.296L379.528 230.28H380.248L379.976 232.344L381.944 232.568L381.88 233.384C381.154 233.299 380.482 233.229 379.864 233.176L379.352 237.192C380.365 237.405 381.09 237.704 381.528 238.088C381.965 238.461 382.184 239.069 382.184 239.912ZM376.456 234.984C376.456 235.656 376.61 236.125 376.92 236.392C377.24 236.659 377.816 236.877 378.648 237.048L379.16 233.128H378.904C377.272 233.128 376.456 233.747 376.456 234.984ZM378.84 242.28C380.429 242.28 381.224 241.571 381.224 240.152C381.224 239.459 381.074 238.984 380.776 238.728C380.488 238.472 379.976 238.264 379.24 238.104L378.712 242.28H378.84ZM391.153 243H384.417V242.168L387.713 238.68C388.246 238.115 388.63 237.693 388.865 237.416C389.11 237.128 389.329 236.781 389.521 236.376C389.724 235.971 389.825 235.56 389.825 235.144C389.825 234.429 389.622 233.923 389.217 233.624C388.822 233.325 388.209 233.176 387.377 233.176C386.673 233.176 385.889 233.272 385.025 233.464L384.593 233.56L384.513 232.712C385.516 232.424 386.545 232.28 387.601 232.28C388.668 232.28 389.473 232.504 390.017 232.952C390.572 233.389 390.849 234.093 390.849 235.064C390.849 235.8 390.684 236.44 390.353 236.984C390.022 237.528 389.468 238.189 388.689 238.968L385.617 242.136H391.153V243ZM399.818 232.44V233.352H394.586L394.298 237.08C395.151 236.611 396.026 236.376 396.922 236.376C399.162 236.376 400.282 237.411 400.282 239.48C400.282 240.675 399.973 241.581 399.354 242.2C398.735 242.819 397.871 243.128 396.762 243.128C395.855 243.128 394.874 243.021 393.818 242.808L393.306 242.696L393.434 241.88C394.639 242.125 395.679 242.248 396.554 242.248C397.429 242.248 398.095 242.013 398.554 241.544C399.023 241.075 399.258 240.419 399.258 239.576C399.258 238.723 399.045 238.125 398.618 237.784C398.191 237.432 397.594 237.256 396.826 237.256C396.421 237.256 395.999 237.32 395.562 237.448C395.125 237.565 394.789 237.688 394.554 237.816L394.186 237.992L393.45 237.864L393.754 232.44H399.818ZM405.871 234.488C406.18 233.645 406.596 233.069 407.119 232.76C407.652 232.44 408.287 232.28 409.023 232.28C409.769 232.28 410.367 232.371 410.815 232.552C411.263 232.723 411.652 233.016 411.983 233.432C412.644 234.243 412.975 235.677 412.975 237.736C412.975 239.784 412.655 241.203 412.015 241.992C411.385 242.771 410.441 243.16 409.183 243.16C407.924 243.16 406.98 242.776 406.351 242.008C405.721 241.229 405.407 239.864 405.407 237.912C405.407 236.472 405.561 235.331 405.871 234.488ZM410.751 233.56C410.367 233.293 409.844 233.16 409.183 233.16C408.532 233.16 408.015 233.288 407.631 233.544C406.831 234.088 406.431 235.549 406.431 237.928C406.431 239.581 406.655 240.717 407.103 241.336C407.551 241.955 408.249 242.264 409.199 242.264C409.817 242.264 410.319 242.147 410.703 241.912C411.535 241.4 411.951 240.067 411.951 237.912C411.951 235.565 411.551 234.115 410.751 233.56ZM414.824 234.488C415.133 233.645 415.549 233.069 416.072 232.76C416.605 232.44 417.24 232.28 417.976 232.28C418.723 232.28 419.32 232.371 419.768 232.552C420.216 232.723 420.605 233.016 420.936 233.432C421.597 234.243 421.928 235.677 421.928 237.736C421.928 239.784 421.608 241.203 420.968 241.992C420.339 242.771 419.395 243.16 418.136 243.16C416.877 243.16 415.933 242.776 415.304 242.008C414.675 241.229 414.36 239.864 414.36 237.912C414.36 236.472 414.515 235.331 414.824 234.488ZM419.704 233.56C419.32 233.293 418.797 233.16 418.136 233.16C417.485 233.16 416.968 233.288 416.584 233.544C415.784 234.088 415.384 235.549 415.384 237.928C415.384 239.581 415.608 240.717 416.056 241.336C416.504 241.955 417.203 242.264 418.152 242.264C418.771 242.264 419.272 242.147 419.656 241.912C420.488 241.4 420.904 240.067 420.904 237.912C420.904 235.565 420.504 234.115 419.704 233.56ZM423.777 234.488C424.086 233.645 424.502 233.069 425.025 232.76C425.558 232.44 426.193 232.28 426.929 232.28C427.676 232.28 428.273 232.371 428.721 232.552C429.169 232.723 429.558 233.016 429.889 233.432C430.55 234.243 430.881 235.677 430.881 237.736C430.881 239.784 430.561 241.203 429.921 241.992C429.292 242.771 428.348 243.16 427.089 243.16C425.83 243.16 424.886 242.776 424.257 242.008C423.628 241.229 423.313 239.864 423.313 237.912C423.313 236.472 423.468 235.331 423.777 234.488ZM428.657 233.56C428.273 233.293 427.75 233.16 427.089 233.16C426.438 233.16 425.921 233.288 425.537 233.544C424.737 234.088 424.337 235.549 424.337 237.928C424.337 239.581 424.561 240.717 425.009 241.336C425.457 241.955 426.156 242.264 427.105 242.264C427.724 242.264 428.225 242.147 428.609 241.912C429.441 241.4 429.857 240.067 429.857 237.912C429.857 235.565 429.457 234.115 428.657 233.56Z" fill="white"/>
</g>
<rect x="340.5" y="85.5" width="138" height="189" rx="9.5" stroke="url(#paint3_linear_147_162)" shape-rendering="crispEdges"/>
</g>
<g filter="url(#filter2_bd_147_162)">
<g clip-path="url(#clip2_147_162)">
<rect x="485" y="45" width="139" height="230" rx="10" fill="url(#paint4_radial_147_162)" fill-opacity="0.8" shape-rendering="crispEdges"/>
<path d="M510.908 69.19H513.924L509.556 87H503.888L499.52 69.19H502.536L506.072 84.452H507.372L510.908 69.19ZM516.492 87V69.19H519.378V87H516.492ZM530 81.462H526.36V87H523.474V69.19H530C534.039 69.19 536.058 71.1833 536.058 75.17C536.058 77.2153 535.547 78.7753 534.524 79.85C533.519 80.9247 532.011 81.462 530 81.462ZM526.36 78.966H529.974C532.054 78.966 533.094 77.7007 533.094 75.17C533.094 73.9567 532.843 73.0727 532.34 72.518C531.837 71.9633 531.049 71.686 529.974 71.686H526.36V78.966Z" fill="white"/>
<path d="M499.864 216.984C499.864 215.48 500.115 214.413 500.616 213.784C501.128 213.155 501.992 212.84 503.208 212.84C504.435 212.84 505.299 213.155 505.8 213.784C506.312 214.413 506.568 215.48 506.568 216.984C506.568 218.488 506.333 219.56 505.864 220.2C505.405 220.84 504.525 221.16 503.224 221.16C501.923 221.16 501.037 220.84 500.568 220.2C500.099 219.56 499.864 218.488 499.864 216.984ZM500.856 216.952C500.856 218.221 501 219.101 501.288 219.592C501.587 220.072 502.227 220.312 503.208 220.312C504.2 220.312 504.845 220.067 505.144 219.576C505.443 219.085 505.592 218.216 505.592 216.968C505.592 215.709 505.421 214.851 505.08 214.392C504.749 213.923 504.131 213.688 503.224 213.688C502.317 213.688 501.693 213.917 501.352 214.376C501.021 214.835 500.856 215.693 500.856 216.952ZM507.761 213H514.465V213.848H511.585V221H510.641V213.848H507.761V213ZM526.293 217.912C526.293 219.043 526.01 219.864 525.445 220.376C524.89 220.877 524.069 221.128 522.981 221.128H522.709L522.469 222.968C521.989 222.936 521.749 222.899 521.749 222.856L521.973 221.08L519.685 220.84L519.797 220.024C520.618 220.131 521.381 220.205 522.085 220.248L522.645 215.96C522.101 215.853 521.658 215.741 521.317 215.624C520.986 215.496 520.682 215.325 520.405 215.112C519.872 214.717 519.605 214.029 519.605 213.048C519.605 211.203 520.72 210.28 522.949 210.28C523.13 210.28 523.274 210.285 523.381 210.296L523.637 208.28H524.357L524.085 210.344L526.053 210.568L525.989 211.384C525.264 211.299 524.592 211.229 523.973 211.176L523.461 215.192C524.474 215.405 525.2 215.704 525.637 216.088C526.074 216.461 526.293 217.069 526.293 217.912ZM520.565 212.984C520.565 213.656 520.72 214.125 521.029 214.392C521.349 214.659 521.925 214.877 522.757 215.048L523.269 211.128H523.013C521.381 211.128 520.565 211.747 520.565 212.984ZM522.949 220.28C524.538 220.28 525.333 219.571 525.333 218.152C525.333 217.459 525.184 216.984 524.885 216.728C524.597 216.472 524.085 216.264 523.349 216.104L522.821 220.28H522.949ZM535.262 221H528.526V220.168L531.822 216.68C532.356 216.115 532.74 215.693 532.974 215.416C533.22 215.128 533.438 214.781 533.63 214.376C533.833 213.971 533.934 213.56 533.934 213.144C533.934 212.429 533.732 211.923 533.326 211.624C532.932 211.325 532.318 211.176 531.486 211.176C530.782 211.176 529.998 211.272 529.134 211.464L528.702 211.56L528.622 210.712C529.625 210.424 530.654 210.28 531.71 210.28C532.777 210.28 533.582 210.504 534.126 210.952C534.681 211.389 534.958 212.093 534.958 213.064C534.958 213.8 534.793 214.44 534.462 214.984C534.132 215.528 533.577 216.189 532.798 216.968L529.726 220.136H535.262V221ZM543.927 210.44V211.352H538.695L538.407 215.08C539.261 214.611 540.135 214.376 541.031 214.376C543.271 214.376 544.391 215.411 544.391 217.48C544.391 218.675 544.082 219.581 543.463 220.2C542.845 220.819 541.981 221.128 540.871 221.128C539.965 221.128 538.983 221.021 537.927 220.808L537.415 220.696L537.543 219.88C538.749 220.125 539.789 220.248 540.663 220.248C541.538 220.248 542.205 220.013 542.663 219.544C543.133 219.075 543.367 218.419 543.367 217.576C543.367 216.723 543.154 216.125 542.727 215.784C542.301 215.432 541.703 215.256 540.935 215.256C540.53 215.256 540.109 215.32 539.671 215.448C539.234 215.565 538.898 215.688 538.663 215.816L538.295 215.992L537.559 215.864L537.863 210.44H543.927ZM546.465 212.488C546.774 211.645 547.19 211.069 547.713 210.76C548.246 210.44 548.881 210.28 549.617 210.28C550.363 210.28 550.961 210.371 551.409 210.552C551.857 210.723 552.246 211.016 552.577 211.432C553.238 212.243 553.569 213.677 553.569 215.736C553.569 217.784 553.249 219.203 552.609 219.992C551.979 220.771 551.035 221.16 549.777 221.16C548.518 221.16 547.574 220.776 546.945 220.008C546.315 219.229 546.001 217.864 546.001 215.912C546.001 214.472 546.155 213.331 546.465 212.488ZM551.345 211.56C550.961 211.293 550.438 211.16 549.777 211.16C549.126 211.16 548.609 211.288 548.225 211.544C547.425 212.088 547.025 213.549 547.025 215.928C547.025 217.581 547.249 218.717 547.697 219.336C548.145 219.955 548.843 220.264 549.793 220.264C550.411 220.264 550.913 220.147 551.297 219.912C552.129 219.4 552.545 218.067 552.545 215.912C552.545 213.565 552.145 212.115 551.345 211.56ZM555.418 212.488C555.727 211.645 556.143 211.069 556.666 210.76C557.199 210.44 557.834 210.28 558.57 210.28C559.316 210.28 559.914 210.371 560.362 210.552C560.81 210.723 561.199 211.016 561.53 211.432C562.191 212.243 562.522 213.677 562.522 215.736C562.522 217.784 562.202 219.203 561.562 219.992C560.932 220.771 559.988 221.16 558.73 221.16C557.471 221.16 556.527 220.776 555.898 220.008C555.268 219.229 554.954 217.864 554.954 215.912C554.954 214.472 555.108 213.331 555.418 212.488ZM560.298 211.56C559.914 211.293 559.391 211.16 558.73 211.16C558.079 211.16 557.562 211.288 557.178 211.544C556.378 212.088 555.978 213.549 555.978 215.928C555.978 217.581 556.202 218.717 556.65 219.336C557.098 219.955 557.796 220.264 558.746 220.264C559.364 220.264 559.866 220.147 560.25 219.912C561.082 219.4 561.498 218.067 561.498 215.912C561.498 213.565 561.098 212.115 560.298 211.56ZM569.315 210.44V221H568.339V211.528L565.523 213.416L565.059 212.648L568.387 210.44H569.315ZM505.544 243.016V235.928H505.416L501.544 243.016H500.04V235H500.984V242.024H501.112L504.984 235H506.488V243.016H505.544ZM517.015 238.776C517.111 238.808 517.218 238.867 517.335 238.952C517.463 239.037 517.586 239.149 517.703 239.288C517.991 239.661 518.135 240.125 518.135 240.68C518.135 242.227 517.164 243 515.223 243H512.087V235H515.463C517.116 235 517.943 235.699 517.943 237.096C517.943 237.576 517.858 237.928 517.687 238.152C517.527 238.365 517.383 238.52 517.255 238.616C517.138 238.701 517.058 238.755 517.015 238.776ZM513.031 238.424H515.463C516.455 238.424 516.951 237.976 516.951 237.08C516.951 236.248 516.498 235.832 515.591 235.832H513.031V238.424ZM515.239 242.168C515.943 242.168 516.428 242.056 516.695 241.832C516.962 241.608 517.095 241.24 517.095 240.728C517.095 239.736 516.551 239.24 515.463 239.24H513.031V242.168H515.239ZM523.161 239.16C523.706 239.16 524.084 239.283 524.298 239.528C524.511 239.763 524.618 240.147 524.618 240.68C524.618 241.213 524.511 241.592 524.298 241.816C524.084 242.04 523.706 242.152 523.161 242.152H520.922V239.16H523.161ZM523.178 243C523.999 243 524.596 242.819 524.97 242.456C525.354 242.093 525.546 241.496 525.546 240.664C525.546 239.096 524.756 238.312 523.178 238.312H520.922V235H519.978V243H523.178ZM526.506 235V243H527.45V235H526.506ZM529.524 235H530.468V242.152H533.268V235H534.212V242.152H537.012V235H537.956V243H529.524V235ZM545.496 242.2L545.976 242.152L546.008 242.936C544.803 243.085 543.784 243.16 542.952 243.16C541.8 243.149 540.995 242.808 540.536 242.136C540.077 241.464 539.848 240.429 539.848 239.032C539.848 236.237 540.947 234.84 543.144 234.84C544.2 234.84 544.989 235.144 545.512 235.752C546.035 236.349 546.296 237.309 546.296 238.632L546.264 239.4H540.824C540.824 240.381 540.989 241.112 541.32 241.592C541.661 242.061 542.237 242.296 543.048 242.296C543.869 242.296 544.685 242.264 545.496 242.2ZM540.824 238.6H545.336C545.336 237.544 545.16 236.792 544.808 236.344C544.467 235.896 543.912 235.672 543.144 235.672C542.387 235.672 541.811 235.907 541.416 236.376C541.021 236.835 540.824 237.576 540.824 238.6Z" fill="white"/>
</g>
<rect x="485.5" y="45.5" width="138" height="229" rx="9.5" stroke="url(#paint5_linear_147_162)" shape-rendering="crispEdges"/>
</g>
<g filter="url(#filter3_bd_147_162)">
<g clip-path="url(#clip3_147_162)">
<rect x="194" y="126" width="139" height="149" rx="10" fill="url(#paint6_radial_147_162)" fill-opacity="0.8" shape-rendering="crispEdges"/>
<path d="M215.28 152.426C213.079 152.426 211.978 153.197 211.978 154.74C211.978 155.537 212.238 156.109 212.758 156.456C213.278 156.785 214.422 157.201 216.19 157.704C217.975 158.189 219.232 158.779 219.96 159.472C220.688 160.148 221.052 161.223 221.052 162.696C221.052 164.568 220.515 165.972 219.44 166.908C218.383 167.827 216.935 168.286 215.098 168.286C213.625 168.286 211.995 168.113 210.21 167.766L209.274 167.584L209.56 165.27C211.9 165.582 213.685 165.738 214.916 165.738C217.065 165.738 218.14 164.785 218.14 162.878C218.14 162.133 217.897 161.587 217.412 161.24C216.927 160.876 215.835 160.486 214.136 160.07C212.437 159.637 211.172 159.047 210.34 158.302C209.508 157.557 209.092 156.378 209.092 154.766C209.092 153.154 209.612 151.941 210.652 151.126C211.709 150.294 213.165 149.878 215.02 149.878C216.355 149.878 217.932 150.034 219.752 150.346L220.662 150.502L220.428 152.842C218.001 152.565 216.285 152.426 215.28 152.426ZM230.649 157.418H227.061V163.138C227.061 164.195 227.139 164.897 227.295 165.244C227.451 165.591 227.85 165.764 228.491 165.764L230.623 165.686L230.753 167.948C229.592 168.173 228.708 168.286 228.101 168.286C226.628 168.286 225.614 167.948 225.059 167.272C224.522 166.596 224.253 165.322 224.253 163.45V157.418H222.589V155H224.253V151.23H227.061V155H230.649V157.418ZM242.594 159.004V164.932C242.611 165.313 242.706 165.599 242.88 165.79C243.07 165.963 243.356 166.076 243.738 166.128L243.66 168.286C242.169 168.286 241.016 167.965 240.202 167.324C238.815 167.965 237.42 168.286 236.016 168.286C233.433 168.286 232.142 166.908 232.142 164.152C232.142 162.835 232.488 161.881 233.182 161.292C233.892 160.703 234.976 160.347 236.432 160.226L239.786 159.94V159.004C239.786 158.311 239.63 157.825 239.318 157.548C239.023 157.271 238.581 157.132 237.992 157.132C236.882 157.132 235.496 157.201 233.832 157.34L233 157.392L232.896 155.39C234.785 154.939 236.518 154.714 238.096 154.714C239.69 154.714 240.834 155.061 241.528 155.754C242.238 156.43 242.594 157.513 242.594 159.004ZM236.77 162.228C235.574 162.332 234.976 162.982 234.976 164.178C234.976 165.374 235.504 165.972 236.562 165.972C237.428 165.972 238.347 165.833 239.318 165.556L239.786 165.4V161.942L236.77 162.228ZM248.986 168H246.152V155H248.96V155.806C250.225 155.078 251.421 154.714 252.548 154.714C254.281 154.714 255.46 155.208 256.084 156.196C256.725 157.167 257.046 158.779 257.046 161.032V168H254.238V161.11C254.238 159.706 254.082 158.709 253.77 158.12C253.475 157.531 252.86 157.236 251.924 157.236C251.04 157.236 250.19 157.409 249.376 157.756L248.986 157.912V168ZM270.953 149.592V168H268.145V167.324C266.88 167.965 265.718 168.286 264.661 168.286C262.962 168.286 261.714 167.775 260.917 166.752C260.137 165.729 259.747 164.013 259.747 161.604C259.747 159.195 260.18 157.444 261.047 156.352C261.931 155.26 263.3 154.714 265.155 154.714C265.779 154.714 266.767 154.827 268.119 155.052V149.592H270.953ZM267.677 165.296L268.119 165.114V157.418C267.079 157.245 266.117 157.158 265.233 157.158C263.482 157.158 262.607 158.614 262.607 161.526C262.607 163.121 262.806 164.23 263.205 164.854C263.621 165.461 264.271 165.764 265.155 165.764C266.039 165.764 266.88 165.608 267.677 165.296ZM284.006 159.004V164.932C284.023 165.313 284.119 165.599 284.292 165.79C284.483 165.963 284.769 166.076 285.15 166.128L285.072 168.286C283.581 168.286 282.429 167.965 281.614 167.324C280.227 167.965 278.832 168.286 277.428 168.286C274.845 168.286 273.554 166.908 273.554 164.152C273.554 162.835 273.901 161.881 274.594 161.292C275.305 160.703 276.388 160.347 277.844 160.226L281.198 159.94V159.004C281.198 158.311 281.042 157.825 280.73 157.548C280.435 157.271 279.993 157.132 279.404 157.132C278.295 157.132 276.908 157.201 275.244 157.34L274.412 157.392L274.308 155.39C276.197 154.939 277.931 154.714 279.508 154.714C281.103 154.714 282.247 155.061 282.94 155.754C283.651 156.43 284.006 157.513 284.006 159.004ZM278.182 162.228C276.986 162.332 276.388 162.982 276.388 164.178C276.388 165.374 276.917 165.972 277.974 165.972C278.841 165.972 279.759 165.833 280.73 165.556L281.198 165.4V161.942L278.182 162.228ZM287.564 168V155H290.372V156.56C291.845 155.607 293.318 154.991 294.792 154.714V157.548C293.301 157.843 292.027 158.224 290.97 158.692L290.398 158.926V168H287.564ZM307.439 149.592V168H304.631V167.324C303.366 167.965 302.205 168.286 301.147 168.286C299.449 168.286 298.201 167.775 297.403 166.752C296.623 165.729 296.233 164.013 296.233 161.604C296.233 159.195 296.667 157.444 297.533 156.352C298.417 155.26 299.787 154.714 301.641 154.714C302.265 154.714 303.253 154.827 304.605 155.052V149.592H307.439ZM304.163 165.296L304.605 165.114V157.418C303.565 157.245 302.603 157.158 301.719 157.158C299.969 157.158 299.093 158.614 299.093 161.526C299.093 163.121 299.293 164.23 299.691 164.854C300.107 165.461 300.757 165.764 301.641 165.764C302.525 165.764 303.366 165.608 304.163 165.296Z" fill="white"/>
<path d="M208.864 216.984C208.864 215.48 209.115 214.413 209.616 213.784C210.128 213.155 210.992 212.84 212.208 212.84C213.435 212.84 214.299 213.155 214.8 213.784C215.312 214.413 215.568 215.48 215.568 216.984C215.568 218.488 215.333 219.56 214.864 220.2C214.405 220.84 213.525 221.16 212.224 221.16C210.923 221.16 210.037 220.84 209.568 220.2C209.099 219.56 208.864 218.488 208.864 216.984ZM209.856 216.952C209.856 218.221 210 219.101 210.288 219.592C210.587 220.072 211.227 220.312 212.208 220.312C213.2 220.312 213.845 220.067 214.144 219.576C214.443 219.085 214.592 218.216 214.592 216.968C214.592 215.709 214.421 214.851 214.08 214.392C213.749 213.923 213.131 213.688 212.224 213.688C211.317 213.688 210.693 213.917 210.352 214.376C210.021 214.835 209.856 215.693 209.856 216.952ZM216.761 213H223.465V213.848H220.585V221H219.641V213.848H216.761V213ZM235.293 217.912C235.293 219.043 235.01 219.864 234.445 220.376C233.89 220.877 233.069 221.128 231.981 221.128H231.709L231.469 222.968C230.989 222.936 230.749 222.899 230.749 222.856L230.973 221.08L228.685 220.84L228.797 220.024C229.618 220.131 230.381 220.205 231.085 220.248L231.645 215.96C231.101 215.853 230.658 215.741 230.317 215.624C229.986 215.496 229.682 215.325 229.405 215.112C228.872 214.717 228.605 214.029 228.605 213.048C228.605 211.203 229.72 210.28 231.949 210.28C232.13 210.28 232.274 210.285 232.381 210.296L232.637 208.28H233.357L233.085 210.344L235.053 210.568L234.989 211.384C234.264 211.299 233.592 211.229 232.973 211.176L232.461 215.192C233.474 215.405 234.2 215.704 234.637 216.088C235.074 216.461 235.293 217.069 235.293 217.912ZM229.565 212.984C229.565 213.656 229.72 214.125 230.029 214.392C230.349 214.659 230.925 214.877 231.757 215.048L232.269 211.128H232.013C230.381 211.128 229.565 211.747 229.565 212.984ZM231.949 220.28C233.538 220.28 234.333 219.571 234.333 218.152C234.333 217.459 234.184 216.984 233.885 216.728C233.597 216.472 233.085 216.264 232.349 216.104L231.821 220.28H231.949ZM244.262 221H237.526V220.168L240.822 216.68C241.356 216.115 241.74 215.693 241.974 215.416C242.22 215.128 242.438 214.781 242.63 214.376C242.833 213.971 242.934 213.56 242.934 213.144C242.934 212.429 242.732 211.923 242.326 211.624C241.932 211.325 241.318 211.176 240.486 211.176C239.782 211.176 238.998 211.272 238.134 211.464L237.702 211.56L237.622 210.712C238.625 210.424 239.654 210.28 240.71 210.28C241.777 210.28 242.582 210.504 243.126 210.952C243.681 211.389 243.958 212.093 243.958 213.064C243.958 213.8 243.793 214.44 243.462 214.984C243.132 215.528 242.577 216.189 241.798 216.968L238.726 220.136H244.262V221ZM246.511 212.488C246.821 211.645 247.237 211.069 247.759 210.76C248.293 210.44 248.927 210.28 249.663 210.28C250.41 210.28 251.007 210.371 251.455 210.552C251.903 210.723 252.293 211.016 252.623 211.432C253.285 212.243 253.615 213.677 253.615 215.736C253.615 217.784 253.295 219.203 252.655 219.992C252.026 220.771 251.082 221.16 249.823 221.16C248.565 221.16 247.621 220.776 246.991 220.008C246.362 219.229 246.047 217.864 246.047 215.912C246.047 214.472 246.202 213.331 246.511 212.488ZM251.391 211.56C251.007 211.293 250.485 211.16 249.823 211.16C249.173 211.16 248.655 211.288 248.271 211.544C247.471 212.088 247.071 213.549 247.071 215.928C247.071 217.581 247.295 218.717 247.743 219.336C248.191 219.955 248.89 220.264 249.839 220.264C250.458 220.264 250.959 220.147 251.343 219.912C252.175 219.4 252.591 218.067 252.591 215.912C252.591 213.565 252.191 212.115 251.391 211.56ZM255.465 212.488C255.774 211.645 256.19 211.069 256.713 210.76C257.246 210.44 257.881 210.28 258.617 210.28C259.363 210.28 259.961 210.371 260.409 210.552C260.857 210.723 261.246 211.016 261.577 211.432C262.238 212.243 262.569 213.677 262.569 215.736C262.569 217.784 262.249 219.203 261.609 219.992C260.979 220.771 260.035 221.16 258.777 221.16C257.518 221.16 256.574 220.776 255.945 220.008C255.315 219.229 255.001 217.864 255.001 215.912C255.001 214.472 255.155 213.331 255.465 212.488ZM260.345 211.56C259.961 211.293 259.438 211.16 258.777 211.16C258.126 211.16 257.609 211.288 257.225 211.544C256.425 212.088 256.025 213.549 256.025 215.928C256.025 217.581 256.249 218.717 256.697 219.336C257.145 219.955 257.843 220.264 258.793 220.264C259.411 220.264 259.913 220.147 260.297 219.912C261.129 219.4 261.545 218.067 261.545 215.912C261.545 213.565 261.145 212.115 260.345 211.56ZM269.362 210.44V221H268.386V211.528L265.57 213.416L265.106 212.648L268.434 210.44H269.362ZM208.992 242.168C209.28 241.635 209.52 241.027 209.712 240.344C209.904 239.651 210 238.893 210 238.072V235H215.168V242.168H215.904V244.984H214.976V243.016H209.328V244.984H208.4V242.168H208.992ZM210.912 238.184C210.912 239.005 210.827 239.736 210.656 240.376C210.496 241.016 210.288 241.613 210.032 242.168H214.224V235.848H210.912V238.184ZM217.255 238.984C217.255 237.48 217.505 236.413 218.007 235.784C218.519 235.155 219.383 234.84 220.599 234.84C221.825 234.84 222.689 235.155 223.191 235.784C223.703 236.413 223.959 237.48 223.959 238.984C223.959 240.488 223.724 241.56 223.255 242.2C222.796 242.84 221.916 243.16 220.615 243.16C219.313 243.16 218.428 242.84 217.959 242.2C217.489 241.56 217.255 240.488 217.255 238.984ZM218.247 238.952C218.247 240.221 218.391 241.101 218.679 241.592C218.977 242.072 219.617 242.312 220.599 242.312C221.591 242.312 222.236 242.067 222.535 241.576C222.833 241.085 222.983 240.216 222.983 238.968C222.983 237.709 222.812 236.851 222.471 236.392C222.14 235.923 221.521 235.688 220.615 235.688C219.708 235.688 219.084 235.917 218.743 236.376C218.412 236.835 218.247 237.693 218.247 238.952ZM236.184 239.912C236.184 241.043 235.901 241.864 235.336 242.376C234.781 242.877 233.96 243.128 232.872 243.128H232.6L232.36 244.968C231.88 244.936 231.64 244.899 231.64 244.856L231.864 243.08L229.576 242.84L229.688 242.024C230.509 242.131 231.272 242.205 231.976 242.248L232.536 237.96C231.992 237.853 231.549 237.741 231.208 237.624C230.877 237.496 230.573 237.325 230.296 237.112C229.762 236.717 229.496 236.029 229.496 235.048C229.496 233.203 230.61 232.28 232.84 232.28C233.021 232.28 233.165 232.285 233.272 232.296L233.528 230.28H234.248L233.976 232.344L235.944 232.568L235.88 233.384C235.154 233.299 234.482 233.229 233.864 233.176L233.352 237.192C234.365 237.405 235.09 237.704 235.528 238.088C235.965 238.461 236.184 239.069 236.184 239.912ZM230.456 234.984C230.456 235.656 230.61 236.125 230.92 236.392C231.24 236.659 231.816 236.877 232.648 237.048L233.16 233.128H232.904C231.272 233.128 230.456 233.747 230.456 234.984ZM232.84 242.28C234.429 242.28 235.224 241.571 235.224 240.152C235.224 239.459 235.074 238.984 234.776 238.728C234.488 238.472 233.976 238.264 233.24 238.104L232.712 242.28H232.84ZM244.865 232.44V233.352H239.633L239.345 237.08C240.198 236.611 241.073 236.376 241.969 236.376C244.209 236.376 245.329 237.411 245.329 239.48C245.329 240.675 245.02 241.581 244.401 242.2C243.782 242.819 242.918 243.128 241.809 243.128C240.902 243.128 239.921 243.021 238.865 242.808L238.353 242.696L238.481 241.88C239.686 242.125 240.726 242.248 241.601 242.248C242.476 242.248 243.142 242.013 243.601 241.544C244.07 241.075 244.305 240.419 244.305 239.576C244.305 238.723 244.092 238.125 243.665 237.784C243.238 237.432 242.641 237.256 241.873 237.256C241.468 237.256 241.046 237.32 240.609 237.448C240.172 237.565 239.836 237.688 239.601 237.816L239.233 237.992L238.497 237.864L238.801 232.44H244.865ZM247.402 234.488C247.711 233.645 248.127 233.069 248.65 232.76C249.183 232.44 249.818 232.28 250.554 232.28C251.301 232.28 251.898 232.371 252.346 232.552C252.794 232.723 253.183 233.016 253.514 233.432C254.175 234.243 254.506 235.677 254.506 237.736C254.506 239.784 254.186 241.203 253.546 241.992C252.917 242.771 251.973 243.16 250.714 243.16C249.455 243.16 248.511 242.776 247.882 242.008C247.253 241.229 246.938 239.864 246.938 237.912C246.938 236.472 247.093 235.331 247.402 234.488ZM252.282 233.56C251.898 233.293 251.375 233.16 250.714 233.16C250.063 233.16 249.546 233.288 249.162 233.544C248.362 234.088 247.962 235.549 247.962 237.928C247.962 239.581 248.186 240.717 248.634 241.336C249.082 241.955 249.781 242.264 250.73 242.264C251.349 242.264 251.85 242.147 252.234 241.912C253.066 241.4 253.482 240.067 253.482 237.912C253.482 235.565 253.082 234.115 252.282 233.56ZM256.355 234.488C256.664 233.645 257.08 233.069 257.603 232.76C258.136 232.44 258.771 232.28 259.507 232.28C260.254 232.28 260.851 232.371 261.299 232.552C261.747 232.723 262.136 233.016 262.467 233.432C263.128 234.243 263.459 235.677 263.459 237.736C263.459 239.784 263.139 241.203 262.499 241.992C261.87 242.771 260.926 243.16 259.667 243.16C258.408 243.16 257.464 242.776 256.835 242.008C256.206 241.229 255.891 239.864 255.891 237.912C255.891 236.472 256.046 235.331 256.355 234.488ZM261.235 233.56C260.851 233.293 260.328 233.16 259.667 233.16C259.016 233.16 258.499 233.288 258.115 233.544C257.315 234.088 256.915 235.549 256.915 237.928C256.915 239.581 257.139 240.717 257.587 241.336C258.035 241.955 258.734 242.264 259.683 242.264C260.302 242.264 260.803 242.147 261.187 241.912C262.019 241.4 262.435 240.067 262.435 237.912C262.435 235.565 262.035 234.115 261.235 233.56ZM265.308 234.488C265.618 233.645 266.034 233.069 266.556 232.76C267.09 232.44 267.724 232.28 268.46 232.28C269.207 232.28 269.804 232.371 270.252 232.552C270.7 232.723 271.09 233.016 271.42 233.432C272.082 234.243 272.412 235.677 272.412 237.736C272.412 239.784 272.092 241.203 271.452 241.992C270.823 242.771 269.879 243.16 268.62 243.16C267.362 243.16 266.418 242.776 265.788 242.008C265.159 241.229 264.844 239.864 264.844 237.912C264.844 236.472 264.999 235.331 265.308 234.488ZM270.188 233.56C269.804 233.293 269.282 233.16 268.62 233.16C267.97 233.16 267.452 233.288 267.068 233.544C266.268 234.088 265.868 235.549 265.868 237.928C265.868 239.581 266.092 240.717 266.54 241.336C266.988 241.955 267.687 242.264 268.636 242.264C269.255 242.264 269.756 242.147 270.14 241.912C270.972 241.4 271.388 240.067 271.388 237.912C271.388 235.565 270.988 234.115 270.188 233.56Z" fill="white"/>
</g>
<rect x="194.5" y="126.5" width="138" height="148" rx="9.5" stroke="url(#paint7_linear_147_162)" shape-rendering="crispEdges"/>
</g>
<defs>
<filter id="filter0_bd_147_162" x="0" y="97" width="237" height="231" filterUnits="userSpaceOnUse" color-interpolation-filters="sRGB">
<feFlood flood-opacity="0" result="BackgroundImageFix"/>
<feGaussianBlur in="BackgroundImageFix" stdDeviation="10.5"/>
<feComposite in2="SourceAlpha" operator="in" result="effect1_backgroundBlur_147_162"/>
<feColorMatrix in="SourceAlpha" type="matrix" values="0 0 0 0 0 0 0 0 0 0 0 0 0 0 0 0 0 0 127 0" result="hardAlpha"/>
<feOffset dy="4"/>
<feGaussianBlur stdDeviation="24.5"/>
<feComposite in2="hardAlpha" operator="out"/>
<feColorMatrix type="matrix" values="0 0 0 0 0 0 0 0 0 0 0 0 0 0 0 0 0 0 0.3 0"/>
<feBlend mode="normal" in2="effect1_backgroundBlur_147_162" result="effect2_dropShadow_147_162"/>
<feBlend mode="normal" in="SourceGraphic" in2="effect2_dropShadow_147_162" result="shape"/>
</filter>
<filter id="filter1_bd_147_162" x="291" y="40" width="237" height="288" filterUnits="userSpaceOnUse" color-interpolation-filters="sRGB">
<feFlood flood-opacity="0" result="BackgroundImageFix"/>
<feGaussianBlur in="BackgroundImageFix" stdDeviation="10.5"/>
<feComposite in2="SourceAlpha" operator="in" result="effect1_backgroundBlur_147_162"/>
<feColorMatrix in="SourceAlpha" type="matrix" values="0 0 0 0 0 0 0 0 0 0 0 0 0 0 0 0 0 0 127 0" result="hardAlpha"/>
<feOffset dy="4"/>
<feGaussianBlur stdDeviation="24.5"/>
<feComposite in2="hardAlpha" operator="out"/>
<feColorMatrix type="matrix" values="0 0 0 0 0 0 0 0 0 0 0 0 0 0 0 0 0 0 0.3 0"/>
<feBlend mode="normal" in2="effect1_backgroundBlur_147_162" result="effect2_dropShadow_147_162"/>
<feBlend mode="normal" in="SourceGraphic" in2="effect2_dropShadow_147_162" result="shape"/>
</filter>
<filter id="filter2_bd_147_162" x="436" y="0" width="237" height="328" filterUnits="userSpaceOnUse" color-interpolation-filters="sRGB">
<feFlood flood-opacity="0" result="BackgroundImageFix"/>
<feGaussianBlur in="BackgroundImageFix" stdDeviation="10.5"/>
<feComposite in2="SourceAlpha" operator="in" result="effect1_backgroundBlur_147_162"/>
<feColorMatrix in="SourceAlpha" type="matrix" values="0 0 0 0 0 0 0 0 0 0 0 0 0 0 0 0 0 0 127 0" result="hardAlpha"/>
<feOffset dy="4"/>
<feGaussianBlur stdDeviation="24.5"/>
<feComposite in2="hardAlpha" operator="out"/>
<feColorMatrix type="matrix" values="0 0 0 0 0 0 0 0 0 0 0 0 0 0 0 0 0 0 0.3 0"/>
<feBlend mode="normal" in2="effect1_backgroundBlur_147_162" result="effect2_dropShadow_147_162"/>
<feBlend mode="normal" in="SourceGraphic" in2="effect2_dropShadow_147_162" result="shape"/>
</filter>
<filter id="filter3_bd_147_162" x="145" y="81" width="237" height="247" filterUnits="userSpaceOnUse" color-interpolation-filters="sRGB">
<feFlood flood-opacity="0" result="BackgroundImageFix"/>
<feGaussianBlur in="BackgroundImageFix" stdDeviation="10.5"/>
<feComposite in2="SourceAlpha" operator="in" result="effect1_backgroundBlur_147_162"/>
<feColorMatrix in="SourceAlpha" type="matrix" values="0 0 0 0 0 0 0 0 0 0 0 0 0 0 0 0 0 0 127 0" result="hardAlpha"/>
<feOffset dy="4"/>
<feGaussianBlur stdDeviation="24.5"/>
<feComposite in2="hardAlpha" operator="out"/>
<feColorMatrix type="matrix" values="0 0 0 0 0 0 0 0 0 0 0 0 0 0 0 0 0 0 0.3 0"/>
<feBlend mode="normal" in2="effect1_backgroundBlur_147_162" result="effect2_dropShadow_147_162"/>
<feBlend mode="normal" in="SourceGraphic" in2="effect2_dropShadow_147_162" result="shape"/>
</filter>
<radialGradient id="paint0_radial_147_162" cx="0" cy="0" r="1" gradientUnits="userSpaceOnUse" gradientTransform="translate(53.1151 148.722) rotate(106.506) scale(165.759 174.673)">
<stop stop-color="#656579"/>
<stop offset="1" stop-color="#282839"/>
</radialGradient>
<linearGradient id="paint1_linear_147_162" x1="49" y1="142" x2="194.648" y2="277.962" gradientUnits="userSpaceOnUse">
<stop stop-opacity="0"/>
<stop offset="1" stop-color="white" stop-opacity="0.42"/>
</linearGradient>
<radialGradient id="paint2_radial_147_162" cx="0" cy="0" r="1" gradientUnits="userSpaceOnUse" gradientTransform="translate(344.115 94.6029) rotate(101.719) scale(231.873 178.384)">
<stop stop-color="#656579"/>
<stop offset="1" stop-color="#282839"/>
</radialGradient>
<linearGradient id="paint3_linear_147_162" x1="340" y1="85" x2="531.008" y2="209.814" gradientUnits="userSpaceOnUse">
<stop stop-opacity="0"/>
<stop offset="1" stop-color="white" stop-opacity="0.42"/>
</linearGradient>
<radialGradient id="paint4_radial_147_162" cx="0" cy="0" r="1" gradientUnits="userSpaceOnUse" gradientTransform="translate(489.115 56.6245) rotate(99.7236) scale(278.843 179.564)">
<stop stop-color="#D46BFE"/>
<stop offset="1" stop-color="#7000FF"/>
</radialGradient>
<linearGradient id="paint5_linear_147_162" x1="485" y1="45" x2="696.065" y2="158.934" gradientUnits="userSpaceOnUse">
<stop stop-opacity="0"/>
<stop offset="1" stop-color="white" stop-opacity="0.42"/>
</linearGradient>
<radialGradient id="paint6_radial_147_162" cx="0" cy="0" r="1" gradientUnits="userSpaceOnUse" gradientTransform="translate(198.115 133.531) rotate(104.816) scale(184.17 176.124)">
<stop stop-color="#656579"/>
<stop offset="1" stop-color="#282839"/>
</radialGradient>
<linearGradient id="paint7_linear_147_162" x1="194" y1="126" x2="354.872" y2="260.047" gradientUnits="userSpaceOnUse">
<stop stop-opacity="0"/>
<stop offset="1" stop-color="white" stop-opacity="0.42"/>
</linearGradient>
<clipPath id="clip0_147_162">
<rect x="49" y="142" width="139" height="133" rx="10" fill="white"/>
</clipPath>
<clipPath id="clip1_147_162">
<rect x="340" y="85" width="139" height="190" rx="10" fill="white"/>
</clipPath>
<clipPath id="clip2_147_162">
<rect x="485" y="45" width="139" height="230" rx="10" fill="white"/>
</clipPath>
<clipPath id="clip3_147_162">
<rect x="194" y="126" width="139" height="149" rx="10" fill="white"/>
</clipPath>
</defs>
</svg>
