<svg width="479" height="205" viewBox="0 0 479 205" fill="none" xmlns="http://www.w3.org/2000/svg">
<path d="M23.72 10.14C23.72 12.1667 23.9867 13.6267 24.52 14.52C25.0533 15.4 26.08 15.84 27.6 15.84C29.1333 15.84 30.16 15.4067 30.68 14.54C31.2133 13.6733 31.48 12.22 31.48 10.18C31.48 8.14 31.2067 6.65333 30.66 5.72C30.1133 4.78667 29.0867 4.32 27.58 4.32C26.0867 4.32 25.0667 4.78667 24.52 5.72C23.9867 6.64 23.72 8.11333 23.72 10.14ZM33.08 10.18C33.08 12.6467 32.6867 14.4333 31.9 15.54C31.1133 16.6467 29.68 17.2 27.6 17.2C25.5333 17.2 24.1067 16.6333 23.32 15.5C22.5333 14.3667 22.14 12.5867 22.14 10.16C22.14 7.72 22.54 5.91333 23.34 4.74C24.14 3.55333 25.56 2.96 27.6 2.96C29.64 2.96 31.06 3.54667 31.86 4.72C32.6733 5.89333 33.08 7.71333 33.08 10.18ZM41.9431 12.06C41.9565 13.38 41.7831 14.3267 41.4231 14.9C41.0631 15.4733 40.3431 15.76 39.2631 15.76C38.6498 15.76 38.1631 15.6667 37.8031 15.48C37.4431 15.28 37.1698 15.0133 36.9831 14.68C36.7965 14.3467 36.6765 13.9533 36.6231 13.5C36.5698 13.0333 36.5431 12.54 36.5431 12.02C36.5431 11.5 36.5698 11.0133 36.6231 10.56C36.6898 10.0933 36.8165 9.68667 37.0031 9.34C37.2031 8.99333 37.4831 8.72 37.8431 8.52C38.2031 8.32 38.6898 8.22 39.3031 8.22C40.3431 8.22 41.0431 8.52667 41.4031 9.14C41.7365 9.75333 41.9165 10.7267 41.9431 12.06ZM39.4031 6.88C38.8431 6.88 38.3565 6.97333 37.9431 7.16C37.5298 7.34667 37.1298 7.63333 36.7431 8.02C36.9165 7.36667 37.1098 6.84 37.3231 6.44C37.5498 6.02667 37.8298 5.7 38.1631 5.46C38.4965 5.22 38.8965 5.05333 39.3631 4.96C39.8298 4.85333 40.3965 4.78667 41.0631 4.76C41.3565 4.73333 41.6165 4.70667 41.8431 4.68C42.0698 4.64 42.2631 4.56667 42.4231 4.46C42.5831 4.35333 42.7031 4.2 42.7831 4C42.8765 3.8 42.9231 3.52 42.9231 3.16H41.7831C41.7165 3.29333 41.6431 3.36667 41.5631 3.38C41.5098 3.39333 41.3965 3.40667 41.2231 3.42C41.0631 3.43333 40.8431 3.45333 40.5631 3.48C38.4565 3.61333 37.0298 4.26 36.2831 5.42C35.5498 6.55333 35.1498 8.30667 35.0831 10.68C35.0698 10.9467 35.0698 11.2933 35.0831 11.72C35.1098 12.1333 35.1365 12.6333 35.1631 13.22C35.2298 14.5533 35.6298 15.54 36.3631 16.18C37.0965 16.8067 38.1165 17.12 39.4231 17.12C40.2498 17.12 40.9165 16.9933 41.4231 16.74C41.9431 16.4733 42.3431 16.1133 42.6231 15.66C42.9165 15.2067 43.1165 14.6733 43.2231 14.06C43.3298 13.4333 43.3831 12.76 43.3831 12.04C43.3831 11.3067 43.3298 10.6267 43.2231 10C43.1298 9.37333 42.9365 8.83333 42.6431 8.38C42.3498 7.91333 41.9431 7.54667 41.4231 7.28C40.9165 7.01333 40.2431 6.88 39.4031 6.88ZM49.7798 12.32C50.3798 12.32 50.7998 12.4467 51.0398 12.7C51.2798 12.9667 51.3932 13.42 51.3798 14.06C51.3665 14.6867 51.2598 15.12 51.0598 15.36C50.8598 15.6 50.4332 15.72 49.7798 15.72H47.2598V12.32H49.7798ZM49.7798 17C50.8198 17 51.5932 16.78 52.0998 16.34C52.6065 15.8867 52.8598 15.1267 52.8598 14.06C52.8598 13.02 52.6132 12.26 52.1198 11.78C51.6398 11.2867 50.8798 11.04 49.8398 11.04H47.2598V7H45.7798V17H49.7798ZM61.74 15.76L62.32 15.7L62.36 16.88C60.84 17.0933 59.54 17.2 58.46 17.2C57.02 17.2 56 16.7867 55.4 15.96C54.8 15.12 54.5 13.82 54.5 12.06C54.5 8.55333 55.8933 6.8 58.68 6.8C60.0267 6.8 61.0333 7.18 61.7 7.94C62.3667 8.68667 62.7 9.86667 62.7 11.48L62.62 12.62H56.02C56.02 13.7267 56.22 14.5467 56.62 15.08C57.02 15.6133 57.7133 15.88 58.7 15.88C59.7 15.88 60.7133 15.84 61.74 15.76ZM61.2 11.42C61.2 10.1933 61 9.32667 60.6 8.82C60.2133 8.31333 59.5733 8.06 58.68 8.06C57.8 8.06 57.1333 8.32667 56.68 8.86C56.24 9.39333 56.0133 10.2467 56 11.42H61.2ZM75.4777 7V17H74.0377V8.36H73.8777L71.0177 16.2H69.5377L66.6377 8.36H66.4777V17H65.0377V7H67.5777L70.2777 14.6L72.9777 7H75.4777ZM82.7125 15.72C83.4858 14.2667 83.8725 12.64 83.8725 10.84V7H90.6525V15.72H91.6125V19.22H90.1525V17.02H83.3525V19.22H81.9125V15.72H82.7125ZM85.2925 10.98C85.2925 11.9533 85.1992 12.8267 85.0125 13.6C84.8258 14.36 84.5858 15.0667 84.2925 15.72H89.1925V8.3H85.2925V10.98ZM100.549 15.76L101.129 15.7L101.169 16.88C99.6486 17.0933 98.3486 17.2 97.2686 17.2C95.8286 17.2 94.8086 16.7867 94.2086 15.96C93.6086 15.12 93.3086 13.82 93.3086 12.06C93.3086 8.55333 94.7019 6.8 97.4886 6.8C98.8353 6.8 99.8419 7.18 100.509 7.94C101.175 8.68667 101.509 9.86667 101.509 11.48L101.429 12.62H94.8286C94.8286 13.7267 95.0286 14.5467 95.4286 15.08C95.8286 15.6133 96.5219 15.88 97.5086 15.88C98.5086 15.88 99.5219 15.84 100.549 15.76ZM100.009 11.42C100.009 10.1933 99.8086 9.32667 99.4086 8.82C99.0219 8.31333 98.3819 8.06 97.4886 8.06C96.6086 8.06 95.9419 8.32667 95.4886 8.86C95.0486 9.39333 94.8219 10.2467 94.8086 11.42H100.009ZM103.846 7H111.986V17H110.506V8.3H105.326V17H103.846V7ZM114.422 11.98C114.422 10.1533 114.749 8.83333 115.402 8.02C116.055 7.20667 117.155 6.8 118.702 6.8C120.262 6.8 121.362 7.20667 122.002 8.02C122.655 8.83333 122.982 10.1533 122.982 11.98C122.982 13.8067 122.675 15.1333 122.062 15.96C121.449 16.7867 120.329 17.2 118.702 17.2C117.075 17.2 115.955 16.7867 115.342 15.96C114.729 15.1333 114.422 13.8067 114.422 11.98ZM115.962 11.94C115.962 13.4067 116.135 14.4333 116.482 15.02C116.842 15.6067 117.582 15.9 118.702 15.9C119.835 15.9 120.575 15.6133 120.922 15.04C121.269 14.4533 121.442 13.4267 121.442 11.96C121.442 10.4933 121.249 9.48667 120.862 8.94C120.475 8.38 119.755 8.1 118.702 8.1C117.662 8.1 116.942 8.38 116.542 8.94C116.155 9.48667 115.962 10.4867 115.962 11.94ZM127.393 11.36C128.113 11.36 128.713 11.2267 129.193 10.96C129.74 10.6667 130.013 10.24 130.013 9.68C130.013 9.12 129.826 8.72667 129.453 8.5C129.08 8.27333 128.453 8.15333 127.573 8.14C126.693 8.12667 125.746 8.24 124.733 8.48L124.673 7.28C124.833 7.24 124.993 7.20667 125.153 7.18C125.313 7.14 125.633 7.08 126.113 7C126.606 6.90667 127.18 6.86 127.833 6.86C130.22 6.86 131.42 7.76667 131.433 9.58C131.46 10.6067 131.066 11.3533 130.253 11.82C130.786 12.0467 131.173 12.34 131.413 12.7C131.653 13.06 131.773 13.5667 131.773 14.22C131.773 16.2467 130.406 17.2267 127.673 17.16C126.473 17.1333 125.446 17.0133 124.593 16.8L124.673 15.54C125.286 15.66 125.773 15.7467 126.133 15.8C126.493 15.8533 127.066 15.88 127.853 15.88C128.64 15.88 129.246 15.76 129.673 15.52C130.1 15.28 130.313 14.84 130.313 14.2C130.313 13.5467 130.046 13.0933 129.513 12.84C129.06 12.6267 128.353 12.52 127.393 12.52H126.193V11.36H127.393ZM141.057 17.02V8.6H140.897L136.437 17.02H134.217V7H135.697V15.32H135.857L140.317 7H142.517V17.02H141.057ZM144.549 7H153.029V8.28H149.529V17H148.049V8.28H144.549V7ZM154.637 11.98C154.637 10.1533 154.963 8.83333 155.617 8.02C156.27 7.20667 157.37 6.8 158.917 6.8C160.477 6.8 161.577 7.20667 162.217 8.02C162.87 8.83333 163.197 10.1533 163.197 11.98C163.197 13.8067 162.89 15.1333 162.277 15.96C161.663 16.7867 160.543 17.2 158.917 17.2C157.29 17.2 156.17 16.7867 155.557 15.96C154.943 15.1333 154.637 13.8067 154.637 11.98ZM156.177 11.94C156.177 13.4067 156.35 14.4333 156.697 15.02C157.057 15.6067 157.797 15.9 158.917 15.9C160.05 15.9 160.79 15.6133 161.137 15.04C161.483 14.4533 161.657 13.4267 161.657 11.96C161.657 10.4933 161.463 9.48667 161.077 8.94C160.69 8.38 159.97 8.1 158.917 8.1C157.877 8.1 157.157 8.38 156.757 8.94C156.37 9.48667 156.177 10.4867 156.177 11.94ZM171.823 14.12C171.836 14.6933 171.683 15.1133 171.363 15.38C171.056 15.6333 170.503 15.76 169.703 15.76H167.123V12.44H169.923C171.176 12.44 171.81 13 171.823 14.12ZM171.643 9.74C171.643 10.7267 171.063 11.22 169.903 11.22H167.123V8.26H170.023C171.103 8.26 171.643 8.75333 171.643 9.74ZM169.683 17C172.163 17 173.403 16.04 173.403 14.12C173.403 13.64 173.29 13.1667 173.063 12.7C172.836 12.22 172.483 11.8933 172.003 11.72C172.163 11.6533 172.303 11.5667 172.423 11.46C172.543 11.34 172.656 11.2133 172.763 11.08C173.043 10.6667 173.176 10.1667 173.163 9.58C173.15 7.86 172.09 7 169.983 7H165.643V17H169.683ZM186.022 14.12C186.036 14.6933 185.882 15.1133 185.562 15.38C185.256 15.6333 184.702 15.76 183.902 15.76H181.322V12.44H184.122C185.376 12.44 186.009 13 186.022 14.12ZM185.842 9.74C185.842 10.7267 185.262 11.22 184.102 11.22H181.322V8.26H184.222C185.302 8.26 185.842 8.75333 185.842 9.74ZM183.882 17C186.362 17 187.602 16.04 187.602 14.12C187.602 13.64 187.489 13.1667 187.262 12.7C187.036 12.22 186.682 11.8933 186.202 11.72C186.362 11.6533 186.502 11.5667 186.622 11.46C186.742 11.34 186.856 11.2133 186.962 11.08C187.242 10.6667 187.376 10.1667 187.362 9.58C187.349 7.86 186.289 7 184.182 7H179.842V17H183.882ZM200.222 14.12C200.235 14.6933 200.082 15.1133 199.762 15.38C199.455 15.6333 198.902 15.76 198.102 15.76H195.522V12.44H198.322C199.575 12.44 200.208 13 200.222 14.12ZM200.042 9.74C200.042 10.7267 199.462 11.22 198.302 11.22H195.522V8.26H198.422C199.502 8.26 200.042 8.75333 200.042 9.74ZM198.082 17C200.562 17 201.802 16.04 201.802 14.12C201.802 13.64 201.688 13.1667 201.462 12.7C201.235 12.22 200.882 11.8933 200.402 11.72C200.562 11.6533 200.702 11.5667 200.822 11.46C200.942 11.34 201.055 11.2133 201.162 11.08C201.442 10.6667 201.575 10.1667 201.562 9.58C201.548 7.86 200.488 7 198.382 7H194.042V17H198.082ZM210.906 10.02V15.14C210.946 15.6333 211.333 15.9267 212.066 16.02L212.006 17.2C210.953 17.2 210.16 16.9333 209.626 16.4C208.426 16.9333 207.226 17.2 206.026 17.2C205.106 17.2 204.406 16.94 203.926 16.42C203.446 15.9 203.206 15.1533 203.206 14.18C203.206 13.2067 203.453 12.4933 203.946 12.04C204.44 11.5733 205.213 11.2867 206.266 11.18L209.406 10.88V10.02C209.406 9.34 209.26 8.85333 208.966 8.56C208.673 8.26667 208.273 8.12 207.766 8.12C206.7 8.12 205.593 8.18667 204.446 8.32L203.826 8.38L203.766 7.24C205.233 6.94667 206.533 6.8 207.666 6.8C208.8 6.8 209.62 7.06 210.126 7.58C210.646 8.1 210.906 8.91333 210.906 10.02ZM204.746 14.1C204.746 15.3267 205.253 15.94 206.266 15.94C207.173 15.94 208.066 15.7867 208.946 15.48L209.406 15.32V12.02L206.446 12.3C205.846 12.3533 205.413 12.5267 205.146 12.82C204.88 13.1133 204.746 13.54 204.746 14.1ZM213.866 7H215.346V15.7H218.546V7H220.026V15.7H223.226V7H224.706V17H213.866V7ZM234.377 15.76L234.957 15.7L234.997 16.88C233.477 17.0933 232.177 17.2 231.097 17.2C229.657 17.2 228.637 16.7867 228.037 15.96C227.437 15.12 227.137 13.82 227.137 12.06C227.137 8.55333 228.53 6.8 231.317 6.8C232.663 6.8 233.67 7.18 234.337 7.94C235.003 8.68667 235.337 9.86667 235.337 11.48L235.257 12.62H228.657C228.657 13.7267 228.857 14.5467 229.257 15.08C229.657 15.6133 230.35 15.88 231.337 15.88C232.337 15.88 233.35 15.84 234.377 15.76ZM233.837 11.42C233.837 10.1933 233.637 9.32667 233.237 8.82C232.85 8.31333 232.21 8.06 231.317 8.06C230.437 8.06 229.77 8.32667 229.317 8.86C228.877 9.39333 228.65 10.2467 228.637 11.42H233.837ZM244.514 17.02V8.6H244.354L239.894 17.02H237.674V7H239.154V15.32H239.314L243.774 7H245.974V17.02H244.514ZM240.054 2.48C240.081 2.98667 240.248 3.39333 240.554 3.7C240.861 4.00667 241.274 4.16 241.794 4.16C242.328 4.16 242.748 4.00667 243.054 3.7C243.361 3.39333 243.521 2.98667 243.534 2.48H244.774C244.734 3.28 244.448 3.94667 243.914 4.48C243.381 5.01333 242.674 5.28 241.794 5.28C240.928 5.28 240.228 5.01333 239.694 4.48C239.161 3.94667 238.874 3.28 238.834 2.48H240.054ZM22.44 26H30.58V36H29.1V27.3H23.92V36H22.44V26ZM40.2556 34.76L40.8356 34.7L40.8756 35.88C39.3556 36.0933 38.0556 36.2 36.9756 36.2C35.5356 36.2 34.5156 35.7867 33.9156 34.96C33.3156 34.12 33.0156 32.82 33.0156 31.06C33.0156 27.5533 34.409 25.8 37.1956 25.8C38.5423 25.8 39.549 26.18 40.2156 26.94C40.8823 27.6867 41.2156 28.8667 41.2156 30.48L41.1356 31.62H34.5356C34.5356 32.7267 34.7356 33.5467 35.1356 34.08C35.5356 34.6133 36.229 34.88 37.2156 34.88C38.2156 34.88 39.229 34.84 40.2556 34.76ZM39.7156 30.42C39.7156 29.1933 39.5156 28.3267 39.1156 27.82C38.729 27.3133 38.089 27.06 37.1956 27.06C36.3156 27.06 35.649 27.3267 35.1956 27.86C34.7556 28.3933 34.529 29.2467 34.5156 30.42H39.7156ZM43.5533 40.44V26H45.0333V26.72C46.0466 26.1067 47.0466 25.8 48.0333 25.8C49.2999 25.8 50.2199 26.2067 50.7933 27.02C51.3666 27.82 51.6533 29.1467 51.6533 31C51.6533 32.8533 51.3133 34.1867 50.6333 35C49.9666 35.8 48.8533 36.2 47.2933 36.2C46.4799 36.2 45.7333 36.1267 45.0533 35.98V40.44H43.5533ZM47.8133 27.14C47.4133 27.14 46.9799 27.2067 46.5133 27.34C46.0599 27.4733 45.6999 27.6067 45.4333 27.74L45.0533 27.94V34.68C45.9999 34.8267 46.7199 34.9 47.2133 34.9C48.2933 34.9 49.0466 34.5933 49.4733 33.98C49.9133 33.3667 50.1333 32.3667 50.1333 30.98C50.1333 29.5933 49.9333 28.6067 49.5333 28.02C49.1466 27.4333 48.5733 27.14 47.8133 27.14ZM60.2802 33.12C60.2935 33.6933 60.1402 34.1133 59.8202 34.38C59.5135 34.6333 58.9602 34.76 58.1602 34.76H55.5802V31.44H58.3802C59.6335 31.44 60.2668 32 60.2802 33.12ZM60.1002 28.74C60.1002 29.7267 59.5202 30.22 58.3602 30.22H55.5802V27.26H58.4802C59.5602 27.26 60.1002 27.7533 60.1002 28.74ZM58.1402 36C60.6202 36 61.8602 35.04 61.8602 33.12C61.8602 32.64 61.7468 32.1667 61.5202 31.7C61.2935 31.22 60.9402 30.8933 60.4602 30.72C60.6202 30.6533 60.7602 30.5667 60.8802 30.46C61.0002 30.34 61.1135 30.2133 61.2202 30.08C61.5002 29.6667 61.6335 29.1667 61.6202 28.58C61.6068 26.86 60.5468 26 58.4402 26H54.1002V36H58.1402ZM63.4648 30.98C63.4648 29.1533 63.7915 27.8333 64.4448 27.02C65.0982 26.2067 66.1982 25.8 67.7448 25.8C69.3048 25.8 70.4048 26.2067 71.0448 27.02C71.6982 27.8333 72.0248 29.1533 72.0248 30.98C72.0248 32.8067 71.7182 34.1333 71.1048 34.96C70.4915 35.7867 69.3715 36.2 67.7448 36.2C66.1182 36.2 64.9982 35.7867 64.3848 34.96C63.7715 34.1333 63.4648 32.8067 63.4648 30.98ZM65.0048 30.94C65.0048 32.4067 65.1782 33.4333 65.5248 34.02C65.8848 34.6067 66.6248 34.9 67.7448 34.9C68.8782 34.9 69.6182 34.6133 69.9648 34.04C70.3115 33.4533 70.4848 32.4267 70.4848 30.96C70.4848 29.4933 70.2915 28.4867 69.9048 27.94C69.5182 27.38 68.7982 27.1 67.7448 27.1C66.7048 27.1 65.9848 27.38 65.5848 27.94C65.1982 28.4867 65.0048 29.4867 65.0048 30.94ZM81.3113 36.02V27.6H81.1513L76.6913 36.02H74.4713V26H75.9513V34.32H76.1113L80.5713 26H82.7713V36.02H81.3113ZM76.8513 21.48C76.8779 21.9867 77.0446 22.3933 77.3513 22.7C77.6579 23.0067 78.0713 23.16 78.5913 23.16C79.1246 23.16 79.5446 23.0067 79.8513 22.7C80.1579 22.3933 80.3179 21.9867 80.3313 21.48H81.5713C81.5313 22.28 81.2446 22.9467 80.7113 23.48C80.1779 24.0133 79.4713 24.28 78.5913 24.28C77.7246 24.28 77.0246 24.0133 76.4913 23.48C75.9579 22.9467 75.6713 22.28 75.6313 21.48H76.8513ZM96.0177 36V27.3H92.4777C92.3577 29.26 92.251 30.6333 92.1577 31.42C92.0643 32.1933 91.9977 32.7133 91.9577 32.98C91.9177 33.2333 91.8843 33.44 91.8577 33.6C91.6577 34.6 91.371 35.2667 90.9977 35.6C90.6243 35.92 89.9577 36.0867 88.9977 36.1V34.82C89.491 34.8067 89.8377 34.7 90.0377 34.5C90.2377 34.2867 90.411 33.7933 90.5577 33.02C90.7177 32.2467 90.8643 30.72 90.9977 28.44L91.1377 26H97.4977V36H96.0177ZM107.21 36.02V27.6H107.05L102.59 36.02H100.37V26H101.85V34.32H102.01L106.47 26H108.67V36.02H107.21ZM111.542 26H113.022V30.3H118.202V26H119.682V36H118.202V31.6H113.022V36H111.542V26ZM129.397 36.02V27.6H129.237L124.777 36.02H122.557V26H124.037V34.32H124.197L128.657 26H130.857V36.02H129.397ZM140.569 36.02V27.6H140.409L135.949 36.02H133.729V26H135.209V34.32H135.369L139.829 26H142.029V36.02H140.569ZM144.141 38.46L145.061 33.86H146.721L145.381 38.46H144.141ZM162.189 32.12C162.189 34.8267 160.782 36.18 157.969 36.18H157.669L157.389 38.48C156.709 38.44 156.369 38.3933 156.369 38.34L156.649 36.12L153.789 35.76L153.949 34.54C154.975 34.6867 155.929 34.7867 156.809 34.84L157.469 29.84C156.109 29.52 155.135 29.1133 154.549 28.62C153.975 28.1133 153.689 27.2867 153.689 26.14C153.689 23.78 155.102 22.6 157.929 22.6C158.129 22.6 158.282 22.6067 158.389 22.62L158.729 20.04H159.749L159.409 22.68L161.909 22.98L161.789 24.22C160.869 24.1133 160.022 24.0267 159.249 23.96L158.649 28.62C159.942 28.9267 160.855 29.32 161.389 29.8C161.922 30.28 162.189 31.0533 162.189 32.12ZM155.169 26.06C155.169 26.78 155.349 27.2933 155.709 27.6C156.069 27.9067 156.715 28.1733 157.649 28.4L158.229 23.9H158.029C156.122 23.9 155.169 24.62 155.169 26.06ZM160.709 32.22C160.709 31.58 160.542 31.1067 160.209 30.8C159.875 30.4933 159.295 30.24 158.469 30.04L157.849 34.88H157.889C159.769 34.88 160.709 33.9933 160.709 32.22Z" fill="#D46BFE"/>
<path d="M339.808 5.03C337.608 5.03 336.508 5.85867 336.508 7.516C336.508 8.44 336.758 9.078 337.256 9.43C337.77 9.76733 338.796 10.112 340.336 10.464C341.891 10.8013 342.991 11.2487 343.636 11.806C344.282 12.3487 344.604 13.2507 344.604 14.512C344.604 17.636 342.984 19.198 339.742 19.198C338.672 19.198 337.33 19.0733 335.716 18.824L334.924 18.714L335.1 17.306C337.095 17.57 338.613 17.702 339.654 17.702C341.825 17.702 342.91 16.6827 342.91 14.644C342.91 13.8227 342.668 13.236 342.184 12.884C341.715 12.5173 340.828 12.2093 339.522 11.96C337.806 11.5933 336.589 11.124 335.87 10.552C335.152 9.96533 334.792 8.99 334.792 7.626C334.792 4.898 336.428 3.534 339.698 3.534C340.769 3.534 342.052 3.644 343.548 3.864L344.296 3.974L344.142 5.404C342.104 5.15467 340.659 5.03 339.808 5.03ZM352.749 9.43H349.251V14.688C349.251 15.9493 349.339 16.778 349.515 17.174C349.705 17.57 350.145 17.768 350.835 17.768L352.793 17.636L352.903 19C351.92 19.1613 351.172 19.242 350.659 19.242C349.515 19.242 348.723 18.9633 348.283 18.406C347.843 17.8487 347.623 16.7853 347.623 15.216V9.43H346.061V8H347.623V4.634H349.251V8H352.749V9.43ZM362.53 11.322V16.954C362.574 17.4967 362.999 17.8193 363.806 17.922L363.74 19.22C362.581 19.22 361.708 18.9267 361.122 18.34C359.802 18.9267 358.482 19.22 357.162 19.22C356.15 19.22 355.38 18.934 354.852 18.362C354.324 17.79 354.06 16.9687 354.06 15.898C354.06 14.8273 354.331 14.0427 354.874 13.544C355.416 13.0307 356.267 12.7153 357.426 12.598L360.88 12.268V11.322C360.88 10.574 360.718 10.0387 360.396 9.716C360.073 9.39333 359.633 9.232 359.076 9.232C357.902 9.232 356.685 9.30533 355.424 9.452L354.742 9.518L354.676 8.264C356.289 7.94133 357.719 7.78 358.966 7.78C360.212 7.78 361.114 8.066 361.672 8.638C362.244 9.21 362.53 10.1047 362.53 11.322ZM355.754 15.81C355.754 17.1593 356.311 17.834 357.426 17.834C358.423 17.834 359.406 17.6653 360.374 17.328L360.88 17.152V13.522L357.624 13.83C356.964 13.8887 356.487 14.0793 356.194 14.402C355.9 14.7247 355.754 15.194 355.754 15.81ZM365.785 19V8H367.413V9.496C368.689 8.616 370.031 8.03667 371.439 7.758V9.43C370.823 9.54733 370.178 9.73067 369.503 9.98C368.843 10.2293 368.337 10.4493 367.985 10.64L367.435 10.926V19H365.785ZM379.089 9.43H375.591V14.688C375.591 15.9493 375.679 16.778 375.855 17.174C376.045 17.57 376.485 17.768 377.175 17.768L379.133 17.636L379.243 19C378.26 19.1613 377.512 19.242 376.999 19.242C375.855 19.242 375.063 18.9633 374.623 18.406C374.183 17.8487 373.963 16.7853 373.963 15.216V9.43H372.401V8H373.963V4.634H375.591V8H379.089V9.43ZM386.224 3.776H391.746C393.256 3.776 394.386 4.09133 395.134 4.722C395.896 5.338 396.278 6.31333 396.278 7.648C396.278 8.60133 396.109 9.34933 395.772 9.892C395.449 10.42 394.965 10.838 394.32 11.146C395.933 11.7033 396.74 12.8987 396.74 14.732C396.74 16.2573 396.336 17.35 395.53 18.01C394.723 18.67 393.557 19 392.032 19H386.224V3.776ZM391.856 12.004H387.918V17.504H391.966C392.963 17.504 393.718 17.2987 394.232 16.888C394.76 16.4627 395.024 15.722 395.024 14.666C395.024 14.1087 394.914 13.6393 394.694 13.258C394.488 12.8767 394.21 12.6053 393.858 12.444C393.212 12.1507 392.545 12.004 391.856 12.004ZM391.68 5.272H387.918V10.53H391.834C392.772 10.53 393.454 10.31 393.88 9.87C394.32 9.41533 394.54 8.74067 394.54 7.846C394.54 6.93667 394.305 6.284 393.836 5.888C393.381 5.47733 392.662 5.272 391.68 5.272ZM399.01 13.478C399.01 11.4687 399.369 10.0167 400.088 9.122C400.807 8.22733 402.017 7.78 403.718 7.78C405.434 7.78 406.644 8.22733 407.348 9.122C408.067 10.0167 408.426 11.4687 408.426 13.478C408.426 15.4873 408.089 16.9467 407.414 17.856C406.739 18.7653 405.507 19.22 403.718 19.22C401.929 19.22 400.697 18.7653 400.022 17.856C399.347 16.9467 399.01 15.4873 399.01 13.478ZM400.704 13.456C400.704 15.0547 400.895 16.1767 401.276 16.822C401.672 17.4673 402.486 17.79 403.718 17.79C404.965 17.79 405.779 17.4747 406.16 16.844C406.541 16.1987 406.732 15.0693 406.732 13.456C406.732 11.8427 406.519 10.7353 406.094 10.134C405.669 9.518 404.877 9.21 403.718 9.21C402.574 9.21 401.782 9.518 401.342 10.134C400.917 10.7353 400.704 11.8427 400.704 13.456ZM412.767 19H411.117V8H412.745V8.77C413.933 8.11 415.07 7.78 416.155 7.78C417.622 7.78 418.605 8.176 419.103 8.968C419.617 9.76 419.873 11.168 419.873 13.192V19H418.245V13.236C418.245 11.7107 418.091 10.6693 417.783 10.112C417.49 9.54 416.852 9.254 415.869 9.254C415.4 9.254 414.901 9.32733 414.373 9.474C413.86 9.606 413.464 9.738 413.185 9.87L412.767 10.068V19ZM429.798 8H431.448V19H429.798V18.23C428.698 18.89 427.612 19.22 426.542 19.22C425.046 19.22 424.048 18.8313 423.55 18.054C423.066 17.2767 422.824 15.8393 422.824 13.742V8H424.474V13.72C424.474 15.3187 424.613 16.3893 424.892 16.932C425.17 17.4747 425.801 17.746 426.784 17.746C427.268 17.746 427.759 17.68 428.258 17.548C428.756 17.4013 429.138 17.262 429.402 17.13L429.798 16.932V8ZM438.075 9.254C436.476 9.254 435.677 9.81133 435.677 10.926C435.677 11.4393 435.86 11.806 436.227 12.026C436.594 12.2313 437.43 12.4513 438.735 12.686C440.04 12.906 440.964 13.2213 441.507 13.632C442.05 14.0427 442.321 14.8127 442.321 15.942C442.321 17.0713 441.954 17.9 441.221 18.428C440.502 18.956 439.446 19.22 438.053 19.22C437.144 19.22 436.073 19.1173 434.841 18.912L434.181 18.802L434.269 17.372C435.941 17.6213 437.202 17.746 438.053 17.746C438.904 17.746 439.549 17.614 439.989 17.35C440.444 17.0713 440.671 16.6167 440.671 15.986C440.671 15.3407 440.48 14.908 440.099 14.688C439.718 14.4533 438.882 14.2333 437.591 14.028C436.3 13.8227 435.384 13.522 434.841 13.126C434.298 12.73 434.027 11.9967 434.027 10.926C434.027 9.85533 434.401 9.06333 435.149 8.55C435.912 8.03667 436.858 7.78 437.987 7.78C438.882 7.78 440.004 7.88267 441.353 8.088L441.969 8.198L441.925 9.606C440.297 9.37133 439.014 9.254 438.075 9.254Z" fill="#D46BFE"/>
<path d="M137.441 61.12V62.38H131.663L131.339 66.25C132.263 65.758 133.193 65.512 134.129 65.512C136.649 65.512 137.909 66.682 137.909 69.022C137.909 70.366 137.561 71.392 136.865 72.1C136.169 72.808 135.191 73.162 133.931 73.162C132.923 73.162 131.807 73.03 130.583 72.766L129.989 72.64L130.151 71.542C131.531 71.806 132.689 71.938 133.625 71.938C134.573 71.938 135.287 71.698 135.767 71.218C136.247 70.726 136.487 70.042 136.487 69.166C136.487 68.29 136.265 67.672 135.821 67.312C135.389 66.94 134.771 66.754 133.967 66.754C133.535 66.754 133.079 66.814 132.599 66.934C132.131 67.054 131.771 67.174 131.519 67.294L131.141 67.474L130.187 67.294L130.511 61.12H137.441ZM143.95 60.922C144.934 60.922 145.732 61.108 146.344 61.48C147.64 62.248 148.288 64.168 148.288 67.24C148.288 69.412 147.928 70.948 147.208 71.848C146.488 72.736 145.408 73.18 143.968 73.18C142.528 73.18 141.442 72.742 140.71 71.866C139.99 70.978 139.63 69.406 139.63 67.15C139.63 64.882 139.984 63.28 140.692 62.344C141.412 61.396 142.498 60.922 143.95 60.922ZM143.968 62.164C143.284 62.164 142.744 62.308 142.348 62.596C141.496 63.184 141.07 64.738 141.07 67.258C141.07 69.034 141.304 70.264 141.772 70.948C142.24 71.62 142.972 71.956 143.968 71.956C144.964 71.956 145.696 71.614 146.164 70.93C146.632 70.246 146.866 68.98 146.866 67.132C146.866 65.272 146.638 63.982 146.182 63.262C145.738 62.53 145 62.164 143.968 62.164ZM154.022 60.922C155.006 60.922 155.804 61.108 156.416 61.48C157.712 62.248 158.36 64.168 158.36 67.24C158.36 69.412 158 70.948 157.28 71.848C156.56 72.736 155.48 73.18 154.04 73.18C152.6 73.18 151.514 72.742 150.782 71.866C150.062 70.978 149.702 69.406 149.702 67.15C149.702 64.882 150.056 63.28 150.764 62.344C151.484 61.396 152.57 60.922 154.022 60.922ZM154.04 62.164C153.356 62.164 152.816 62.308 152.42 62.596C151.568 63.184 151.142 64.738 151.142 67.258C151.142 69.034 151.376 70.264 151.844 70.948C152.312 71.62 153.044 71.956 154.04 71.956C155.036 71.956 155.768 71.614 156.236 70.93C156.704 70.246 156.938 68.98 156.938 67.132C156.938 65.272 156.71 63.982 156.254 63.262C155.81 62.53 155.072 62.164 154.04 62.164ZM167.964 69.508C167.964 71.944 166.698 73.162 164.166 73.162H163.896L163.644 75.232C163.032 75.196 162.726 75.154 162.726 75.106L162.978 73.108L160.404 72.784L160.548 71.686C161.472 71.818 162.33 71.908 163.122 71.956L163.716 67.456C162.492 67.168 161.616 66.802 161.088 66.358C160.572 65.902 160.314 65.158 160.314 64.126C160.314 62.002 161.586 60.94 164.13 60.94C164.31 60.94 164.448 60.946 164.544 60.958L164.85 58.636H165.768L165.462 61.012L167.712 61.282L167.604 62.398C166.776 62.302 166.014 62.224 165.318 62.164L164.778 66.358C165.942 66.634 166.764 66.988 167.244 67.42C167.724 67.852 167.964 68.548 167.964 69.508ZM161.646 64.054C161.646 64.702 161.808 65.164 162.132 65.44C162.456 65.716 163.038 65.956 163.878 66.16L164.4 62.11H164.22C162.504 62.11 161.646 62.758 161.646 64.054ZM166.632 69.598C166.632 69.022 166.482 68.596 166.182 68.32C165.882 68.044 165.36 67.816 164.616 67.636L164.058 71.992H164.094C165.786 71.992 166.632 71.194 166.632 69.598Z" fill="white"/>
<path d="M123.808 100.12V112H122.422V101.668L119.362 103.684L118.732 102.64L122.512 100.12H123.808ZM135.464 100.12V101.38H129.686L129.362 105.25C130.286 104.758 131.216 104.512 132.152 104.512C134.672 104.512 135.932 105.682 135.932 108.022C135.932 109.366 135.584 110.392 134.888 111.1C134.192 111.808 133.214 112.162 131.954 112.162C130.946 112.162 129.83 112.03 128.606 111.766L128.012 111.64L128.174 110.542C129.554 110.806 130.712 110.938 131.648 110.938C132.596 110.938 133.31 110.698 133.79 110.218C134.27 109.726 134.51 109.042 134.51 108.166C134.51 107.29 134.288 106.672 133.844 106.312C133.412 105.94 132.794 105.754 131.99 105.754C131.558 105.754 131.102 105.814 130.622 105.934C130.154 106.054 129.794 106.174 129.542 106.294L129.164 106.474L128.21 106.294L128.534 100.12H135.464ZM145.927 99.922C146.911 99.922 147.709 100.108 148.321 100.48C149.617 101.248 150.265 103.168 150.265 106.24C150.265 108.412 149.905 109.948 149.185 110.848C148.465 111.736 147.385 112.18 145.945 112.18C144.505 112.18 143.419 111.742 142.687 110.866C141.967 109.978 141.607 108.406 141.607 106.15C141.607 103.882 141.961 102.28 142.669 101.344C143.389 100.396 144.475 99.922 145.927 99.922ZM145.945 101.164C145.261 101.164 144.721 101.308 144.325 101.596C143.473 102.184 143.047 103.738 143.047 106.258C143.047 108.034 143.281 109.264 143.749 109.948C144.217 110.62 144.949 110.956 145.945 110.956C146.941 110.956 147.673 110.614 148.141 109.93C148.609 109.246 148.843 107.98 148.843 106.132C148.843 104.272 148.615 102.982 148.159 102.262C147.715 101.53 146.977 101.164 145.945 101.164ZM156 99.922C156.984 99.922 157.782 100.108 158.394 100.48C159.69 101.248 160.338 103.168 160.338 106.24C160.338 108.412 159.978 109.948 159.258 110.848C158.538 111.736 157.458 112.18 156.018 112.18C154.578 112.18 153.492 111.742 152.76 110.866C152.04 109.978 151.68 108.406 151.68 106.15C151.68 103.882 152.034 102.28 152.742 101.344C153.462 100.396 154.548 99.922 156 99.922ZM156.018 101.164C155.334 101.164 154.794 101.308 154.398 101.596C153.546 102.184 153.12 103.738 153.12 106.258C153.12 108.034 153.354 109.264 153.822 109.948C154.29 110.62 155.022 110.956 156.018 110.956C157.014 110.956 157.746 110.614 158.214 109.93C158.682 109.246 158.916 107.98 158.916 106.132C158.916 104.272 158.688 102.982 158.232 102.262C157.788 101.53 157.05 101.164 156.018 101.164ZM166.072 99.922C167.056 99.922 167.854 100.108 168.466 100.48C169.762 101.248 170.41 103.168 170.41 106.24C170.41 108.412 170.05 109.948 169.33 110.848C168.61 111.736 167.53 112.18 166.09 112.18C164.65 112.18 163.564 111.742 162.832 110.866C162.112 109.978 161.752 108.406 161.752 106.15C161.752 103.882 162.106 102.28 162.814 101.344C163.534 100.396 164.62 99.922 166.072 99.922ZM166.09 101.164C165.406 101.164 164.866 101.308 164.47 101.596C163.618 102.184 163.192 103.738 163.192 106.258C163.192 108.034 163.426 109.264 163.894 109.948C164.362 110.62 165.094 110.956 166.09 110.956C167.086 110.956 167.818 110.614 168.286 109.93C168.754 109.246 168.988 107.98 168.988 106.132C168.988 104.272 168.76 102.982 168.304 102.262C167.86 101.53 167.122 101.164 166.09 101.164ZM180.014 108.508C180.014 110.944 178.748 112.162 176.216 112.162H175.946L175.694 114.232C175.082 114.196 174.776 114.154 174.776 114.106L175.028 112.108L172.454 111.784L172.598 110.686C173.522 110.818 174.38 110.908 175.172 110.956L175.766 106.456C174.542 106.168 173.666 105.802 173.138 105.358C172.622 104.902 172.364 104.158 172.364 103.126C172.364 101.002 173.636 99.94 176.18 99.94C176.36 99.94 176.498 99.946 176.594 99.958L176.9 97.636H177.818L177.512 100.012L179.762 100.282L179.654 101.398C178.826 101.302 178.064 101.224 177.368 101.164L176.828 105.358C177.992 105.634 178.814 105.988 179.294 106.42C179.774 106.852 180.014 107.548 180.014 108.508ZM173.696 103.054C173.696 103.702 173.858 104.164 174.182 104.44C174.506 104.716 175.088 104.956 175.928 105.16L176.45 101.11H176.27C174.554 101.11 173.696 101.758 173.696 103.054ZM178.682 108.598C178.682 108.022 178.532 107.596 178.232 107.32C177.932 107.044 177.41 106.816 176.666 106.636L176.108 110.992H176.144C177.836 110.992 178.682 110.194 178.682 108.598Z" fill="white"/>
<path d="M118.102 139.426C119.23 139.09 120.436 138.922 121.72 138.922C123.016 138.922 123.952 139.168 124.528 139.66C125.104 140.152 125.392 140.938 125.392 142.018C125.392 142.57 125.314 142.972 125.158 143.224C125.014 143.464 124.894 143.65 124.798 143.782C124.714 143.914 124.6 144.04 124.456 144.16C124.192 144.364 123.982 144.508 123.826 144.592L123.628 144.718C124.324 144.97 124.84 145.294 125.176 145.69C125.512 146.074 125.68 146.71 125.68 147.598C125.68 148.81 125.368 149.71 124.744 150.298C124.132 150.886 123.16 151.18 121.828 151.18C120.772 151.18 119.656 151.06 118.48 150.82L117.922 150.694L118.048 149.56C119.344 149.824 120.556 149.956 121.684 149.956C123.4 149.944 124.258 149.176 124.258 147.652C124.258 146.224 123.442 145.48 121.81 145.42H119.416V144.232H121.81C122.314 144.232 122.8 144.034 123.268 143.638C123.736 143.23 123.97 142.696 123.97 142.036C123.97 141.376 123.784 140.902 123.412 140.614C123.04 140.314 122.416 140.164 121.54 140.164C120.58 140.164 119.632 140.254 118.696 140.434L118.228 140.524L118.102 139.426ZM135.464 139.12V140.38H129.686L129.362 144.25C130.286 143.758 131.216 143.512 132.152 143.512C134.672 143.512 135.932 144.682 135.932 147.022C135.932 148.366 135.584 149.392 134.888 150.1C134.192 150.808 133.214 151.162 131.954 151.162C130.946 151.162 129.83 151.03 128.606 150.766L128.012 150.64L128.174 149.542C129.554 149.806 130.712 149.938 131.648 149.938C132.596 149.938 133.31 149.698 133.79 149.218C134.27 148.726 134.51 148.042 134.51 147.166C134.51 146.29 134.288 145.672 133.844 145.312C133.412 144.94 132.794 144.754 131.99 144.754C131.558 144.754 131.102 144.814 130.622 144.934C130.154 145.054 129.794 145.174 129.542 145.294L129.164 145.474L128.21 145.294L128.534 139.12H135.464ZM145.927 138.922C146.911 138.922 147.709 139.108 148.321 139.48C149.617 140.248 150.265 142.168 150.265 145.24C150.265 147.412 149.905 148.948 149.185 149.848C148.465 150.736 147.385 151.18 145.945 151.18C144.505 151.18 143.419 150.742 142.687 149.866C141.967 148.978 141.607 147.406 141.607 145.15C141.607 142.882 141.961 141.28 142.669 140.344C143.389 139.396 144.475 138.922 145.927 138.922ZM145.945 140.164C145.261 140.164 144.721 140.308 144.325 140.596C143.473 141.184 143.047 142.738 143.047 145.258C143.047 147.034 143.281 148.264 143.749 148.948C144.217 149.62 144.949 149.956 145.945 149.956C146.941 149.956 147.673 149.614 148.141 148.93C148.609 148.246 148.843 146.98 148.843 145.132C148.843 143.272 148.615 141.982 148.159 141.262C147.715 140.53 146.977 140.164 145.945 140.164ZM156 138.922C156.984 138.922 157.782 139.108 158.394 139.48C159.69 140.248 160.338 142.168 160.338 145.24C160.338 147.412 159.978 148.948 159.258 149.848C158.538 150.736 157.458 151.18 156.018 151.18C154.578 151.18 153.492 150.742 152.76 149.866C152.04 148.978 151.68 147.406 151.68 145.15C151.68 142.882 152.034 141.28 152.742 140.344C153.462 139.396 154.548 138.922 156 138.922ZM156.018 140.164C155.334 140.164 154.794 140.308 154.398 140.596C153.546 141.184 153.12 142.738 153.12 145.258C153.12 147.034 153.354 148.264 153.822 148.948C154.29 149.62 155.022 149.956 156.018 149.956C157.014 149.956 157.746 149.614 158.214 148.93C158.682 148.246 158.916 146.98 158.916 145.132C158.916 143.272 158.688 141.982 158.232 141.262C157.788 140.53 157.05 140.164 156.018 140.164ZM166.072 138.922C167.056 138.922 167.854 139.108 168.466 139.48C169.762 140.248 170.41 142.168 170.41 145.24C170.41 147.412 170.05 148.948 169.33 149.848C168.61 150.736 167.53 151.18 166.09 151.18C164.65 151.18 163.564 150.742 162.832 149.866C162.112 148.978 161.752 147.406 161.752 145.15C161.752 142.882 162.106 141.28 162.814 140.344C163.534 139.396 164.62 138.922 166.072 138.922ZM166.09 140.164C165.406 140.164 164.866 140.308 164.47 140.596C163.618 141.184 163.192 142.738 163.192 145.258C163.192 147.034 163.426 148.264 163.894 148.948C164.362 149.62 165.094 149.956 166.09 149.956C167.086 149.956 167.818 149.614 168.286 148.93C168.754 148.246 168.988 146.98 168.988 145.132C168.988 143.272 168.76 141.982 168.304 141.262C167.86 140.53 167.122 140.164 166.09 140.164ZM180.014 147.508C180.014 149.944 178.748 151.162 176.216 151.162H175.946L175.694 153.232C175.082 153.196 174.776 153.154 174.776 153.106L175.028 151.108L172.454 150.784L172.598 149.686C173.522 149.818 174.38 149.908 175.172 149.956L175.766 145.456C174.542 145.168 173.666 144.802 173.138 144.358C172.622 143.902 172.364 143.158 172.364 142.126C172.364 140.002 173.636 138.94 176.18 138.94C176.36 138.94 176.498 138.946 176.594 138.958L176.9 136.636H177.818L177.512 139.012L179.762 139.282L179.654 140.398C178.826 140.302 178.064 140.224 177.368 140.164L176.828 144.358C177.992 144.634 178.814 144.988 179.294 145.42C179.774 145.852 180.014 146.548 180.014 147.508ZM173.696 142.054C173.696 142.702 173.858 143.164 174.182 143.44C174.506 143.716 175.088 143.956 175.928 144.16L176.45 140.11H176.27C174.554 140.11 173.696 140.758 173.696 142.054ZM178.682 147.598C178.682 147.022 178.532 146.596 178.232 146.32C177.932 146.044 177.41 145.816 176.666 145.636L176.108 149.992H176.144C177.836 149.992 178.682 149.194 178.682 147.598Z" fill="white"/>
<path d="M125.392 178.12V179.38H119.614L119.29 183.25C120.214 182.758 121.144 182.512 122.08 182.512C124.6 182.512 125.86 183.682 125.86 186.022C125.86 187.366 125.512 188.392 124.816 189.1C124.12 189.808 123.142 190.162 121.882 190.162C120.874 190.162 119.758 190.03 118.534 189.766L117.94 189.64L118.102 188.542C119.482 188.806 120.64 188.938 121.576 188.938C122.524 188.938 123.238 188.698 123.718 188.218C124.198 187.726 124.438 187.042 124.438 186.166C124.438 185.29 124.216 184.672 123.772 184.312C123.34 183.94 122.722 183.754 121.918 183.754C121.486 183.754 121.03 183.814 120.55 183.934C120.082 184.054 119.722 184.174 119.47 184.294L119.092 184.474L118.138 184.294L118.462 178.12H125.392ZM131.9 177.922C132.884 177.922 133.682 178.108 134.294 178.48C135.59 179.248 136.238 181.168 136.238 184.24C136.238 186.412 135.878 187.948 135.158 188.848C134.438 189.736 133.358 190.18 131.918 190.18C130.478 190.18 129.392 189.742 128.66 188.866C127.94 187.978 127.58 186.406 127.58 184.15C127.58 181.882 127.934 180.28 128.642 179.344C129.362 178.396 130.448 177.922 131.9 177.922ZM131.918 179.164C131.234 179.164 130.694 179.308 130.298 179.596C129.446 180.184 129.02 181.738 129.02 184.258C129.02 186.034 129.254 187.264 129.722 187.948C130.19 188.62 130.922 188.956 131.918 188.956C132.914 188.956 133.646 188.614 134.114 187.93C134.582 187.246 134.816 185.98 134.816 184.132C134.816 182.272 134.588 180.982 134.132 180.262C133.688 179.53 132.95 179.164 131.918 179.164ZM145.927 177.922C146.911 177.922 147.709 178.108 148.321 178.48C149.617 179.248 150.265 181.168 150.265 184.24C150.265 186.412 149.905 187.948 149.185 188.848C148.465 189.736 147.385 190.18 145.945 190.18C144.505 190.18 143.419 189.742 142.687 188.866C141.967 187.978 141.607 186.406 141.607 184.15C141.607 181.882 141.961 180.28 142.669 179.344C143.389 178.396 144.475 177.922 145.927 177.922ZM145.945 179.164C145.261 179.164 144.721 179.308 144.325 179.596C143.473 180.184 143.047 181.738 143.047 184.258C143.047 186.034 143.281 187.264 143.749 187.948C144.217 188.62 144.949 188.956 145.945 188.956C146.941 188.956 147.673 188.614 148.141 187.93C148.609 187.246 148.843 185.98 148.843 184.132C148.843 182.272 148.615 180.982 148.159 180.262C147.715 179.53 146.977 179.164 145.945 179.164ZM156 177.922C156.984 177.922 157.782 178.108 158.394 178.48C159.69 179.248 160.338 181.168 160.338 184.24C160.338 186.412 159.978 187.948 159.258 188.848C158.538 189.736 157.458 190.18 156.018 190.18C154.578 190.18 153.492 189.742 152.76 188.866C152.04 187.978 151.68 186.406 151.68 184.15C151.68 181.882 152.034 180.28 152.742 179.344C153.462 178.396 154.548 177.922 156 177.922ZM156.018 179.164C155.334 179.164 154.794 179.308 154.398 179.596C153.546 180.184 153.12 181.738 153.12 184.258C153.12 186.034 153.354 187.264 153.822 187.948C154.29 188.62 155.022 188.956 156.018 188.956C157.014 188.956 157.746 188.614 158.214 187.93C158.682 187.246 158.916 185.98 158.916 184.132C158.916 182.272 158.688 180.982 158.232 180.262C157.788 179.53 157.05 179.164 156.018 179.164ZM166.072 177.922C167.056 177.922 167.854 178.108 168.466 178.48C169.762 179.248 170.41 181.168 170.41 184.24C170.41 186.412 170.05 187.948 169.33 188.848C168.61 189.736 167.53 190.18 166.09 190.18C164.65 190.18 163.564 189.742 162.832 188.866C162.112 187.978 161.752 186.406 161.752 184.15C161.752 181.882 162.106 180.28 162.814 179.344C163.534 178.396 164.62 177.922 166.072 177.922ZM166.09 179.164C165.406 179.164 164.866 179.308 164.47 179.596C163.618 180.184 163.192 181.738 163.192 184.258C163.192 186.034 163.426 187.264 163.894 187.948C164.362 188.62 165.094 188.956 166.09 188.956C167.086 188.956 167.818 188.614 168.286 187.93C168.754 187.246 168.988 185.98 168.988 184.132C168.988 182.272 168.76 180.982 168.304 180.262C167.86 179.53 167.122 179.164 166.09 179.164ZM180.014 186.508C180.014 188.944 178.748 190.162 176.216 190.162H175.946L175.694 192.232C175.082 192.196 174.776 192.154 174.776 192.106L175.028 190.108L172.454 189.784L172.598 188.686C173.522 188.818 174.38 188.908 175.172 188.956L175.766 184.456C174.542 184.168 173.666 183.802 173.138 183.358C172.622 182.902 172.364 182.158 172.364 181.126C172.364 179.002 173.636 177.94 176.18 177.94C176.36 177.94 176.498 177.946 176.594 177.958L176.9 175.636H177.818L177.512 178.012L179.762 178.282L179.654 179.398C178.826 179.302 178.064 179.224 177.368 179.164L176.828 183.358C177.992 183.634 178.814 183.988 179.294 184.42C179.774 184.852 180.014 185.548 180.014 186.508ZM173.696 181.054C173.696 181.702 173.858 182.164 174.182 182.44C174.506 182.716 175.088 182.956 175.928 183.16L176.45 179.11H176.27C174.554 179.11 173.696 179.758 173.696 181.054ZM178.682 186.598C178.682 186.022 178.532 185.596 178.232 185.32C177.932 185.044 177.41 184.816 176.666 184.636L176.108 188.992H176.144C177.836 188.992 178.682 188.194 178.682 186.598Z" fill="white"/>
<path d="M377.193 73H369.597V71.83L373.071 68.176C373.671 67.552 374.109 67.078 374.385 66.754C374.661 66.43 374.907 66.046 375.123 65.602C375.351 65.158 375.465 64.714 375.465 64.27C375.465 63.502 375.255 62.962 374.835 62.65C374.415 62.338 373.761 62.182 372.873 62.182C372.093 62.182 371.223 62.284 370.263 62.488L369.795 62.578L369.687 61.426C370.827 61.102 372.003 60.94 373.215 60.94C374.427 60.94 375.339 61.198 375.951 61.714C376.575 62.218 376.887 63.022 376.887 64.126C376.887 64.966 376.701 65.698 376.329 66.322C375.957 66.946 375.315 67.696 374.403 68.572L371.235 71.794H377.193V73ZM383.45 60.922C384.434 60.922 385.232 61.108 385.844 61.48C387.14 62.248 387.788 64.168 387.788 67.24C387.788 69.412 387.428 70.948 386.708 71.848C385.988 72.736 384.908 73.18 383.468 73.18C382.028 73.18 380.942 72.742 380.21 71.866C379.49 70.978 379.13 69.406 379.13 67.15C379.13 64.882 379.484 63.28 380.192 62.344C380.912 61.396 381.998 60.922 383.45 60.922ZM383.468 62.164C382.784 62.164 382.244 62.308 381.848 62.596C380.996 63.184 380.57 64.738 380.57 67.258C380.57 69.034 380.804 70.264 381.272 70.948C381.74 71.62 382.472 71.956 383.468 71.956C384.464 71.956 385.196 71.614 385.664 70.93C386.132 70.246 386.366 68.98 386.366 67.132C386.366 65.272 386.138 63.982 385.682 63.262C385.238 62.53 384.5 62.164 383.468 62.164ZM393.522 60.922C394.506 60.922 395.304 61.108 395.916 61.48C397.212 62.248 397.86 64.168 397.86 67.24C397.86 69.412 397.5 70.948 396.78 71.848C396.06 72.736 394.98 73.18 393.54 73.18C392.1 73.18 391.014 72.742 390.282 71.866C389.562 70.978 389.202 69.406 389.202 67.15C389.202 64.882 389.556 63.28 390.264 62.344C390.984 61.396 392.07 60.922 393.522 60.922ZM393.54 62.164C392.856 62.164 392.316 62.308 391.92 62.596C391.068 63.184 390.642 64.738 390.642 67.258C390.642 69.034 390.876 70.264 391.344 70.948C391.812 71.62 392.544 71.956 393.54 71.956C394.536 71.956 395.268 71.614 395.736 70.93C396.204 70.246 396.438 68.98 396.438 67.132C396.438 65.272 396.21 63.982 395.754 63.262C395.31 62.53 394.572 62.164 393.54 62.164ZM407.464 69.508C407.464 71.944 406.198 73.162 403.666 73.162H403.396L403.144 75.232C402.532 75.196 402.226 75.154 402.226 75.106L402.478 73.108L399.904 72.784L400.048 71.686C400.972 71.818 401.83 71.908 402.622 71.956L403.216 67.456C401.992 67.168 401.116 66.802 400.588 66.358C400.072 65.902 399.814 65.158 399.814 64.126C399.814 62.002 401.086 60.94 403.63 60.94C403.81 60.94 403.948 60.946 404.044 60.958L404.35 58.636H405.268L404.962 61.012L407.212 61.282L407.104 62.398C406.276 62.302 405.514 62.224 404.818 62.164L404.278 66.358C405.442 66.634 406.264 66.988 406.744 67.42C407.224 67.852 407.464 68.548 407.464 69.508ZM401.146 64.054C401.146 64.702 401.308 65.164 401.632 65.44C401.956 65.716 402.538 65.956 403.378 66.16L403.9 62.11H403.72C402.004 62.11 401.146 62.758 401.146 64.054ZM406.132 69.598C406.132 69.022 405.982 68.596 405.682 68.32C405.382 68.044 404.86 67.816 404.116 67.636L403.558 71.992H403.594C405.286 71.992 406.132 71.194 406.132 69.598Z" fill="white"/>
<path d="M376.941 99.12V100.38H371.163L370.839 104.25C371.763 103.758 372.693 103.512 373.629 103.512C376.149 103.512 377.409 104.682 377.409 107.022C377.409 108.366 377.061 109.392 376.365 110.1C375.669 110.808 374.691 111.162 373.431 111.162C372.423 111.162 371.307 111.03 370.083 110.766L369.489 110.64L369.651 109.542C371.031 109.806 372.189 109.938 373.125 109.938C374.073 109.938 374.787 109.698 375.267 109.218C375.747 108.726 375.987 108.042 375.987 107.166C375.987 106.29 375.765 105.672 375.321 105.312C374.889 104.94 374.271 104.754 373.467 104.754C373.035 104.754 372.579 104.814 372.099 104.934C371.631 105.054 371.271 105.174 371.019 105.294L370.641 105.474L369.687 105.294L370.011 99.12H376.941ZM383.45 98.922C384.434 98.922 385.232 99.108 385.844 99.48C387.14 100.248 387.788 102.168 387.788 105.24C387.788 107.412 387.428 108.948 386.708 109.848C385.988 110.736 384.908 111.18 383.468 111.18C382.028 111.18 380.942 110.742 380.21 109.866C379.49 108.978 379.13 107.406 379.13 105.15C379.13 102.882 379.484 101.28 380.192 100.344C380.912 99.396 381.998 98.922 383.45 98.922ZM383.468 100.164C382.784 100.164 382.244 100.308 381.848 100.596C380.996 101.184 380.57 102.738 380.57 105.258C380.57 107.034 380.804 108.264 381.272 108.948C381.74 109.62 382.472 109.956 383.468 109.956C384.464 109.956 385.196 109.614 385.664 108.93C386.132 108.246 386.366 106.98 386.366 105.132C386.366 103.272 386.138 101.982 385.682 101.262C385.238 100.53 384.5 100.164 383.468 100.164ZM393.522 98.922C394.506 98.922 395.304 99.108 395.916 99.48C397.212 100.248 397.86 102.168 397.86 105.24C397.86 107.412 397.5 108.948 396.78 109.848C396.06 110.736 394.98 111.18 393.54 111.18C392.1 111.18 391.014 110.742 390.282 109.866C389.562 108.978 389.202 107.406 389.202 105.15C389.202 102.882 389.556 101.28 390.264 100.344C390.984 99.396 392.07 98.922 393.522 98.922ZM393.54 100.164C392.856 100.164 392.316 100.308 391.92 100.596C391.068 101.184 390.642 102.738 390.642 105.258C390.642 107.034 390.876 108.264 391.344 108.948C391.812 109.62 392.544 109.956 393.54 109.956C394.536 109.956 395.268 109.614 395.736 108.93C396.204 108.246 396.438 106.98 396.438 105.132C396.438 103.272 396.21 101.982 395.754 101.262C395.31 100.53 394.572 100.164 393.54 100.164ZM407.464 107.508C407.464 109.944 406.198 111.162 403.666 111.162H403.396L403.144 113.232C402.532 113.196 402.226 113.154 402.226 113.106L402.478 111.108L399.904 110.784L400.048 109.686C400.972 109.818 401.83 109.908 402.622 109.956L403.216 105.456C401.992 105.168 401.116 104.802 400.588 104.358C400.072 103.902 399.814 103.158 399.814 102.126C399.814 100.002 401.086 98.94 403.63 98.94C403.81 98.94 403.948 98.946 404.044 98.958L404.35 96.636H405.268L404.962 99.012L407.212 99.282L407.104 100.398C406.276 100.302 405.514 100.224 404.818 100.164L404.278 104.358C405.442 104.634 406.264 104.988 406.744 105.42C407.224 105.852 407.464 106.548 407.464 107.508ZM401.146 102.054C401.146 102.702 401.308 103.164 401.632 103.44C401.956 103.716 402.538 103.956 403.378 104.16L403.9 100.11H403.72C402.004 100.11 401.146 100.758 401.146 102.054ZM406.132 107.598C406.132 107.022 405.982 106.596 405.682 106.32C405.382 106.044 404.86 105.816 404.116 105.636L403.558 109.992H403.594C405.286 109.992 406.132 109.194 406.132 107.598Z" fill="white"/>
<path d="M362.638 139.426C363.766 139.09 364.972 138.922 366.256 138.922C367.552 138.922 368.488 139.168 369.064 139.66C369.64 140.152 369.928 140.938 369.928 142.018C369.928 142.57 369.85 142.972 369.694 143.224C369.55 143.464 369.43 143.65 369.334 143.782C369.25 143.914 369.136 144.04 368.992 144.16C368.728 144.364 368.518 144.508 368.362 144.592L368.164 144.718C368.86 144.97 369.376 145.294 369.712 145.69C370.048 146.074 370.216 146.71 370.216 147.598C370.216 148.81 369.904 149.71 369.28 150.298C368.668 150.886 367.696 151.18 366.364 151.18C365.308 151.18 364.192 151.06 363.016 150.82L362.458 150.694L362.584 149.56C363.88 149.824 365.092 149.956 366.22 149.956C367.936 149.944 368.794 149.176 368.794 147.652C368.794 146.224 367.978 145.48 366.346 145.42H363.952V144.232H366.346C366.85 144.232 367.336 144.034 367.804 143.638C368.272 143.23 368.506 142.696 368.506 142.036C368.506 141.376 368.32 140.902 367.948 140.614C367.576 140.314 366.952 140.164 366.076 140.164C365.116 140.164 364.168 140.254 363.232 140.434L362.764 140.524L362.638 139.426ZM380.391 138.922C381.375 138.922 382.173 139.108 382.785 139.48C384.081 140.248 384.729 142.168 384.729 145.24C384.729 147.412 384.369 148.948 383.649 149.848C382.929 150.736 381.849 151.18 380.409 151.18C378.969 151.18 377.883 150.742 377.151 149.866C376.431 148.978 376.071 147.406 376.071 145.15C376.071 142.882 376.425 141.28 377.133 140.344C377.853 139.396 378.939 138.922 380.391 138.922ZM380.409 140.164C379.725 140.164 379.185 140.308 378.789 140.596C377.937 141.184 377.511 142.738 377.511 145.258C377.511 147.034 377.745 148.264 378.213 148.948C378.681 149.62 379.413 149.956 380.409 149.956C381.405 149.956 382.137 149.614 382.605 148.93C383.073 148.246 383.307 146.98 383.307 145.132C383.307 143.272 383.079 141.982 382.623 141.262C382.179 140.53 381.441 140.164 380.409 140.164ZM390.463 138.922C391.447 138.922 392.245 139.108 392.857 139.48C394.153 140.248 394.801 142.168 394.801 145.24C394.801 147.412 394.441 148.948 393.721 149.848C393.001 150.736 391.921 151.18 390.481 151.18C389.041 151.18 387.955 150.742 387.223 149.866C386.503 148.978 386.143 147.406 386.143 145.15C386.143 142.882 386.497 141.28 387.205 140.344C387.925 139.396 389.011 138.922 390.463 138.922ZM390.481 140.164C389.797 140.164 389.257 140.308 388.861 140.596C388.009 141.184 387.583 142.738 387.583 145.258C387.583 147.034 387.817 148.264 388.285 148.948C388.753 149.62 389.485 149.956 390.481 149.956C391.477 149.956 392.209 149.614 392.677 148.93C393.145 148.246 393.379 146.98 393.379 145.132C393.379 143.272 393.151 141.982 392.695 141.262C392.251 140.53 391.513 140.164 390.481 140.164ZM400.536 138.922C401.52 138.922 402.318 139.108 402.93 139.48C404.226 140.248 404.874 142.168 404.874 145.24C404.874 147.412 404.514 148.948 403.794 149.848C403.074 150.736 401.994 151.18 400.554 151.18C399.114 151.18 398.028 150.742 397.296 149.866C396.576 148.978 396.216 147.406 396.216 145.15C396.216 142.882 396.57 141.28 397.278 140.344C397.998 139.396 399.084 138.922 400.536 138.922ZM400.554 140.164C399.87 140.164 399.33 140.308 398.934 140.596C398.082 141.184 397.656 142.738 397.656 145.258C397.656 147.034 397.89 148.264 398.358 148.948C398.826 149.62 399.558 149.956 400.554 149.956C401.55 149.956 402.282 149.614 402.75 148.93C403.218 148.246 403.452 146.98 403.452 145.132C403.452 143.272 403.224 141.982 402.768 141.262C402.324 140.53 401.586 140.164 400.554 140.164ZM414.478 147.508C414.478 149.944 413.212 151.162 410.68 151.162H410.41L410.158 153.232C409.546 153.196 409.24 153.154 409.24 153.106L409.492 151.108L406.918 150.784L407.062 149.686C407.986 149.818 408.844 149.908 409.636 149.956L410.23 145.456C409.006 145.168 408.13 144.802 407.602 144.358C407.086 143.902 406.828 143.158 406.828 142.126C406.828 140.002 408.1 138.94 410.644 138.94C410.824 138.94 410.962 138.946 411.058 138.958L411.364 136.636H412.282L411.976 139.012L414.226 139.282L414.118 140.398C413.29 140.302 412.528 140.224 411.832 140.164L411.292 144.358C412.456 144.634 413.278 144.988 413.758 145.42C414.238 145.852 414.478 146.548 414.478 147.508ZM408.16 142.054C408.16 142.702 408.322 143.164 408.646 143.44C408.97 143.716 409.552 143.956 410.392 144.16L410.914 140.11H410.734C409.018 140.11 408.16 140.758 408.16 142.054ZM413.146 147.598C413.146 147.022 412.996 146.596 412.696 146.32C412.396 146.044 411.874 145.816 411.13 145.636L410.572 149.992H410.608C412.3 149.992 413.146 149.194 413.146 147.598Z" fill="white"/>
<path d="M369.928 177.12V178.38H364.15L363.826 182.25C364.75 181.758 365.68 181.512 366.616 181.512C369.136 181.512 370.396 182.682 370.396 185.022C370.396 186.366 370.048 187.392 369.352 188.1C368.656 188.808 367.678 189.162 366.418 189.162C365.41 189.162 364.294 189.03 363.07 188.766L362.476 188.64L362.638 187.542C364.018 187.806 365.176 187.938 366.112 187.938C367.06 187.938 367.774 187.698 368.254 187.218C368.734 186.726 368.974 186.042 368.974 185.166C368.974 184.29 368.752 183.672 368.308 183.312C367.876 182.94 367.258 182.754 366.454 182.754C366.022 182.754 365.566 182.814 365.086 182.934C364.618 183.054 364.258 183.174 364.006 183.294L363.628 183.474L362.674 183.294L362.998 177.12H369.928ZM380.391 176.922C381.375 176.922 382.173 177.108 382.785 177.48C384.081 178.248 384.729 180.168 384.729 183.24C384.729 185.412 384.369 186.948 383.649 187.848C382.929 188.736 381.849 189.18 380.409 189.18C378.969 189.18 377.883 188.742 377.151 187.866C376.431 186.978 376.071 185.406 376.071 183.15C376.071 180.882 376.425 179.28 377.133 178.344C377.853 177.396 378.939 176.922 380.391 176.922ZM380.409 178.164C379.725 178.164 379.185 178.308 378.789 178.596C377.937 179.184 377.511 180.738 377.511 183.258C377.511 185.034 377.745 186.264 378.213 186.948C378.681 187.62 379.413 187.956 380.409 187.956C381.405 187.956 382.137 187.614 382.605 186.93C383.073 186.246 383.307 184.98 383.307 183.132C383.307 181.272 383.079 179.982 382.623 179.262C382.179 178.53 381.441 178.164 380.409 178.164ZM390.463 176.922C391.447 176.922 392.245 177.108 392.857 177.48C394.153 178.248 394.801 180.168 394.801 183.24C394.801 185.412 394.441 186.948 393.721 187.848C393.001 188.736 391.921 189.18 390.481 189.18C389.041 189.18 387.955 188.742 387.223 187.866C386.503 186.978 386.143 185.406 386.143 183.15C386.143 180.882 386.497 179.28 387.205 178.344C387.925 177.396 389.011 176.922 390.463 176.922ZM390.481 178.164C389.797 178.164 389.257 178.308 388.861 178.596C388.009 179.184 387.583 180.738 387.583 183.258C387.583 185.034 387.817 186.264 388.285 186.948C388.753 187.62 389.485 187.956 390.481 187.956C391.477 187.956 392.209 187.614 392.677 186.93C393.145 186.246 393.379 184.98 393.379 183.132C393.379 181.272 393.151 179.982 392.695 179.262C392.251 178.53 391.513 178.164 390.481 178.164ZM400.536 176.922C401.52 176.922 402.318 177.108 402.93 177.48C404.226 178.248 404.874 180.168 404.874 183.24C404.874 185.412 404.514 186.948 403.794 187.848C403.074 188.736 401.994 189.18 400.554 189.18C399.114 189.18 398.028 188.742 397.296 187.866C396.576 186.978 396.216 185.406 396.216 183.15C396.216 180.882 396.57 179.28 397.278 178.344C397.998 177.396 399.084 176.922 400.536 176.922ZM400.554 178.164C399.87 178.164 399.33 178.308 398.934 178.596C398.082 179.184 397.656 180.738 397.656 183.258C397.656 185.034 397.89 186.264 398.358 186.948C398.826 187.62 399.558 187.956 400.554 187.956C401.55 187.956 402.282 187.614 402.75 186.93C403.218 186.246 403.452 184.98 403.452 183.132C403.452 181.272 403.224 179.982 402.768 179.262C402.324 178.53 401.586 178.164 400.554 178.164ZM414.478 185.508C414.478 187.944 413.212 189.162 410.68 189.162H410.41L410.158 191.232C409.546 191.196 409.24 191.154 409.24 191.106L409.492 189.108L406.918 188.784L407.062 187.686C407.986 187.818 408.844 187.908 409.636 187.956L410.23 183.456C409.006 183.168 408.13 182.802 407.602 182.358C407.086 181.902 406.828 181.158 406.828 180.126C406.828 178.002 408.1 176.94 410.644 176.94C410.824 176.94 410.962 176.946 411.058 176.958L411.364 174.636H412.282L411.976 177.012L414.226 177.282L414.118 178.398C413.29 178.302 412.528 178.224 411.832 178.164L411.292 182.358C412.456 182.634 413.278 182.988 413.758 183.42C414.238 183.852 414.478 184.548 414.478 185.508ZM408.16 180.054C408.16 180.702 408.322 181.164 408.646 181.44C408.97 181.716 409.552 181.956 410.392 182.16L410.914 178.11H410.734C409.018 178.11 408.16 178.758 408.16 180.054ZM413.146 185.598C413.146 185.022 412.996 184.596 412.696 184.32C412.396 184.044 411.874 183.816 411.13 183.636L410.572 187.992H410.608C412.3 187.992 413.146 187.194 413.146 185.598Z" fill="white"/>
<path fill-rule="evenodd" clip-rule="evenodd" d="M298 166V204H1V205H298H299H479V204H299V166H478V165H299V127H478V126H299V88H478V87H299V48H478V47H299V0H298V47H0V48H298V87H0V88H298V126H0V127H298V165H0V166H298Z" fill="#68688D"/>
</svg>
