<svg width="575" height="195" viewBox="0 0 575 195" fill="none" xmlns="http://www.w3.org/2000/svg">
<path d="M29.8155 18.3935H29.8375L33.8855 7.78947H35.3155L30.0795 21.0775C29.6102 22.2361 28.8988 22.9035 27.9455 23.0795C27.2415 23.1968 26.6548 23.2041 26.1855 23.1015L26.2515 21.8475C26.8968 21.9061 27.4028 21.8841 27.7695 21.7815C28.1362 21.6788 28.4148 21.4808 28.6055 21.1875C28.7962 20.8941 29.0748 20.2561 29.4415 19.2735H28.7375L24.3155 7.78947H25.7895L29.8155 18.3935ZM36.8072 28.0295V12.0795H38.1052V12.9155C39.2492 12.2115 40.4519 11.8595 41.7132 11.8595C42.9892 11.8595 43.9352 12.3068 44.5512 13.2015C45.1819 14.0961 45.4972 15.5555 45.4972 17.5795C45.4972 19.5888 45.1305 21.0481 44.3972 21.9575C43.6639 22.8521 42.4465 23.2995 40.7452 23.2995C39.8359 23.2995 38.9559 23.2041 38.1052 23.0135V28.0295H36.8072ZM41.4492 13.0475C40.9652 13.0475 40.4445 13.1281 39.8872 13.2895C39.3299 13.4508 38.8972 13.6195 38.5892 13.7955L38.1052 14.0375V21.8695C39.1025 22.0455 39.9679 22.1335 40.7012 22.1335C41.9625 22.1335 42.8499 21.7815 43.3632 21.0775C43.8765 20.3588 44.1332 19.1855 44.1332 17.5575C44.1332 15.9148 43.9059 14.7561 43.4512 14.0815C43.0112 13.3921 42.3439 13.0475 41.4492 13.0475ZM47.8608 17.5575C47.8608 15.4895 48.2055 14.0228 48.8948 13.1575C49.5988 12.2921 50.7868 11.8595 52.4588 11.8595C54.1455 11.8595 55.3335 12.2921 56.0228 13.1575C56.7268 14.0228 57.0788 15.4895 57.0788 17.5575C57.0788 19.6255 56.7562 21.0995 56.1108 21.9795C55.4802 22.8595 54.2702 23.2995 52.4808 23.2995C50.6915 23.2995 49.4742 22.8595 48.8288 21.9795C48.1835 21.0995 47.8608 19.6255 47.8608 17.5575ZM49.2248 17.5135C49.2248 19.2588 49.4228 20.4688 49.8188 21.1435C50.2295 21.8035 51.1095 22.1335 52.4588 22.1335C53.8228 22.1335 54.7102 21.7961 55.1208 21.1215C55.5315 20.4468 55.7368 19.2515 55.7368 17.5355C55.7368 15.8048 55.5022 14.6241 55.0328 13.9935C54.5782 13.3481 53.7275 13.0255 52.4808 13.0255C51.2342 13.0255 50.3762 13.3408 49.9068 13.9715C49.4522 14.6021 49.2248 15.7828 49.2248 17.5135ZM66.4804 17.2715C66.6124 17.3155 66.7591 17.3961 66.9204 17.5135C67.0964 17.6308 67.2651 17.7848 67.4264 17.9755C67.8224 18.4888 68.0204 19.1268 68.0204 19.8895C68.0204 22.0161 66.6857 23.0795 64.0164 23.0795H59.7044V12.0795H64.3464C66.6197 12.0795 67.7564 13.0401 67.7564 14.9615C67.7564 15.6215 67.6391 16.1055 67.4044 16.4135C67.1844 16.7068 66.9864 16.9195 66.8104 17.0515C66.6491 17.1688 66.5391 17.2421 66.4804 17.2715ZM61.0024 16.7875H64.3464C65.7104 16.7875 66.3924 16.1715 66.3924 14.9395C66.3924 13.7955 65.7691 13.2235 64.5224 13.2235H61.0024V16.7875ZM64.0384 21.9355C65.0064 21.9355 65.6737 21.7815 66.0404 21.4735C66.4071 21.1655 66.5904 20.6595 66.5904 19.9555C66.5904 18.5915 65.8424 17.9095 64.3464 17.9095H61.0024V21.9355H64.0384ZM70.554 12.0795H71.852V16.9635H77.946V12.0795H79.244V23.0795H77.946V18.1295H71.852V23.0795H70.554V12.0795ZM89.6806 23.1015V13.3555H89.5046L84.1806 23.1015H82.1126V12.0795H83.4106V21.7375H83.5866L88.9106 12.0795H90.9786V23.1015H89.6806Z" fill="#D46BFE"/>
<path d="M150.159 7.71H155.593C158.6 7.71 160.103 8.99333 160.103 11.56C160.103 13.364 159.428 14.552 158.079 15.124C159.766 15.652 160.609 16.862 160.609 18.754C160.609 20.294 160.206 21.3867 159.399 22.032C158.607 22.6773 157.448 23 155.923 23H150.159V7.71ZM155.769 15.806H151.523V21.79H155.901C156.972 21.79 157.793 21.5627 158.365 21.108C158.937 20.6533 159.223 19.854 159.223 18.71C159.223 16.774 158.072 15.806 155.769 15.806ZM155.549 8.92H151.523V14.618H155.747C156.774 14.618 157.522 14.376 157.991 13.892C158.475 13.3933 158.717 12.66 158.717 11.692C158.717 10.724 158.453 10.02 157.925 9.58C157.412 9.14 156.62 8.92 155.549 8.92ZM171.041 15.278V21.174C171.1 21.7167 171.577 22.0393 172.471 22.142L172.405 23.198C171.276 23.198 170.447 22.9047 169.919 22.318C168.541 22.9193 167.162 23.22 165.783 23.22C164.801 23.22 164.053 22.9413 163.539 22.384C163.026 21.812 162.769 21.0053 162.769 19.964C162.769 18.908 163.026 18.1307 163.539 17.632C164.067 17.1187 164.889 16.8033 166.003 16.686L169.743 16.312V15.278C169.743 14.4567 169.56 13.87 169.193 13.518C168.841 13.1513 168.365 12.968 167.763 12.968C166.825 12.968 165.607 13.056 164.111 13.232L163.429 13.298L163.363 12.242C164.977 11.934 166.385 11.78 167.587 11.78C168.805 11.78 169.685 12.066 170.227 12.638C170.77 13.21 171.041 14.09 171.041 15.278ZM164.133 19.876C164.133 21.3573 164.742 22.098 165.959 22.098C166.487 22.098 167.067 22.0393 167.697 21.922C168.328 21.79 168.827 21.658 169.193 21.526L169.743 21.328V17.346L166.157 17.72C165.439 17.7787 164.918 17.984 164.595 18.336C164.287 18.688 164.133 19.2013 164.133 19.876ZM177.774 12.99C176.043 12.99 175.178 13.6133 175.178 14.86C175.178 15.432 175.368 15.8353 175.75 16.07C176.131 16.3047 176.989 16.5393 178.324 16.774C179.673 16.994 180.619 17.302 181.162 17.698C181.719 18.094 181.998 18.8567 181.998 19.986C181.998 21.1007 181.638 21.922 180.92 22.45C180.201 22.9633 179.145 23.22 177.752 23.22C176.945 23.22 175.904 23.1173 174.628 22.912L173.99 22.824L174.078 21.658C175.72 21.9073 176.982 22.032 177.862 22.032C178.742 22.032 179.424 21.878 179.908 21.57C180.406 21.262 180.656 20.7413 180.656 20.008C180.656 19.2747 180.45 18.7907 180.04 18.556C179.644 18.3067 178.778 18.0793 177.444 17.874C176.124 17.6687 175.192 17.3753 174.65 16.994C174.107 16.6127 173.836 15.894 173.836 14.838C173.836 13.782 174.21 13.012 174.958 12.528C175.706 12.044 176.63 11.802 177.73 11.802C178.61 11.802 179.71 11.8973 181.03 12.088L181.624 12.176L181.58 13.342C180.01 13.1073 178.742 12.99 177.774 12.99ZM184.657 23V12H185.955V23H184.657ZM184.657 9.25V7.6H185.955V9.25H184.657ZM193.347 11.78C194.007 11.78 194.791 11.8533 195.701 12L196.207 12.066L196.141 13.188C194.982 13.0413 194.124 12.968 193.567 12.968C192.261 12.968 191.367 13.2907 190.883 13.936C190.399 14.5667 190.157 15.74 190.157 17.456C190.157 19.1573 190.377 20.3453 190.817 21.02C191.257 21.6947 192.173 22.032 193.567 22.032L196.185 21.834L196.229 22.956C194.923 23.132 193.955 23.22 193.325 23.22C191.579 23.22 190.384 22.7873 189.739 21.922C189.108 21.0567 188.793 19.568 188.793 17.456C188.793 15.344 189.137 13.87 189.827 13.034C190.531 12.198 191.704 11.78 193.347 11.78Z" fill="#D46BFE"/>
<path d="M253.934 9.678C251.572 9.678 250.392 10.58 250.392 12.384C250.392 13.44 250.656 14.1513 251.184 14.518C251.726 14.8847 252.775 15.222 254.33 15.53C255.899 15.838 257.014 16.2633 257.674 16.806C258.348 17.3487 258.686 18.258 258.686 19.534C258.686 21.1767 258.275 22.3647 257.454 23.098C256.647 23.8167 255.459 24.176 253.89 24.176C252.746 24.176 251.418 24.0733 249.908 23.868L249.116 23.758L249.27 22.592C251.279 22.8413 252.834 22.966 253.934 22.966C255.034 22.966 255.87 22.702 256.442 22.174C257.014 21.6313 257.3 20.8467 257.3 19.82C257.3 18.7787 257.043 18.0747 256.53 17.708C256.031 17.3267 255.224 17.0333 254.11 16.828C253.01 16.6227 252.203 16.4393 251.69 16.278C251.176 16.102 250.692 15.86 250.238 15.552C249.798 15.2293 249.482 14.826 249.292 14.342C249.101 13.8433 249.006 13.22 249.006 12.472C249.006 9.80267 250.619 8.468 253.846 8.468C254.814 8.468 256.075 8.57067 257.63 8.776L258.356 8.886L258.246 10.052C256.222 9.80267 254.784 9.678 253.934 9.678ZM266.787 14.166H263.113V19.6C263.113 21.0227 263.216 21.954 263.421 22.394C263.627 22.834 264.111 23.054 264.873 23.054L266.897 22.9L266.985 24.022C266.017 24.1687 265.277 24.242 264.763 24.242C263.649 24.242 262.871 23.9707 262.431 23.428C262.006 22.8707 261.793 21.8147 261.793 20.26V14.166H260.165V13H261.793V9.546H263.113V13H266.787V14.166ZM276.416 16.278V22.174C276.475 22.7167 276.952 23.0393 277.846 23.142L277.78 24.198C276.651 24.198 275.822 23.9047 275.294 23.318C273.916 23.9193 272.537 24.22 271.158 24.22C270.176 24.22 269.428 23.9413 268.914 23.384C268.401 22.812 268.144 22.0053 268.144 20.964C268.144 19.908 268.401 19.1307 268.914 18.632C269.442 18.1187 270.264 17.8033 271.378 17.686L275.118 17.312V16.278C275.118 15.4567 274.935 14.87 274.568 14.518C274.216 14.1513 273.74 13.968 273.138 13.968C272.2 13.968 270.982 14.056 269.486 14.232L268.804 14.298L268.738 13.242C270.352 12.934 271.76 12.78 272.962 12.78C274.18 12.78 275.06 13.066 275.602 13.638C276.145 14.21 276.416 15.09 276.416 16.278ZM269.508 20.876C269.508 22.3573 270.117 23.098 271.334 23.098C271.862 23.098 272.442 23.0393 273.072 22.922C273.703 22.79 274.202 22.658 274.568 22.526L275.118 22.328V18.346L271.532 18.72C270.814 18.7787 270.293 18.984 269.97 19.336C269.662 19.688 269.508 20.2013 269.508 20.876ZM281.125 24H279.827V13H281.125V13.814C282.357 13.1247 283.552 12.78 284.711 12.78C286.177 12.78 287.153 13.1687 287.637 13.946C288.135 14.7233 288.385 16.146 288.385 18.214V24H287.065V18.28C287.065 16.5933 286.903 15.4567 286.581 14.87C286.258 14.2687 285.569 13.968 284.513 13.968C283.999 13.968 283.457 14.0487 282.885 14.21C282.327 14.3567 281.895 14.5107 281.587 14.672L281.125 14.892V24ZM299.785 8.116V24H298.465V23.186C297.307 23.8753 296.133 24.22 294.945 24.22C294.403 24.22 293.933 24.154 293.537 24.022C293.141 23.9047 292.738 23.6627 292.327 23.296C291.491 22.548 291.073 21.0887 291.073 18.918C291.073 16.7327 291.425 15.1633 292.129 14.21C292.833 13.2567 294.021 12.78 295.693 12.78C296.339 12.78 297.263 12.8753 298.465 13.066V8.116H299.785ZM293.295 22.306C293.574 22.5847 293.845 22.7753 294.109 22.878C294.388 22.9807 294.74 23.032 295.165 23.032C295.605 23.032 296.104 22.9513 296.661 22.79C297.233 22.6287 297.681 22.4747 298.003 22.328L298.465 22.086V14.21C297.292 14.034 296.383 13.946 295.737 13.946C294.491 13.946 293.625 14.3273 293.141 15.09C292.672 15.8527 292.437 17.0333 292.437 18.632C292.437 20.5093 292.723 21.734 293.295 22.306ZM310.641 16.278V22.174C310.7 22.7167 311.176 23.0393 312.071 23.142L312.005 24.198C310.876 24.198 310.047 23.9047 309.519 23.318C308.14 23.9193 306.762 24.22 305.383 24.22C304.4 24.22 303.652 23.9413 303.139 23.384C302.626 22.812 302.369 22.0053 302.369 20.964C302.369 19.908 302.626 19.1307 303.139 18.632C303.667 18.1187 304.488 17.8033 305.603 17.686L309.343 17.312V16.278C309.343 15.4567 309.16 14.87 308.793 14.518C308.441 14.1513 307.964 13.968 307.363 13.968C306.424 13.968 305.207 14.056 303.711 14.232L303.029 14.298L302.963 13.242C304.576 12.934 305.984 12.78 307.187 12.78C308.404 12.78 309.284 13.066 309.827 13.638C310.37 14.21 310.641 15.09 310.641 16.278ZM303.733 20.876C303.733 22.3573 304.342 23.098 305.559 23.098C306.087 23.098 306.666 23.0393 307.297 22.922C307.928 22.79 308.426 22.658 308.793 22.526L309.343 22.328V18.346L305.757 18.72C305.038 18.7787 304.518 18.984 304.195 19.336C303.887 19.688 303.733 20.2013 303.733 20.876ZM314.051 24V13H315.349V14.584C315.892 14.2027 316.552 13.836 317.329 13.484C318.121 13.132 318.847 12.8973 319.507 12.78V14.1C318.877 14.232 318.217 14.4373 317.527 14.716C316.838 14.98 316.303 15.2147 315.921 15.42L315.349 15.75V24H314.051ZM327.072 14.166H323.398V19.6C323.398 21.0227 323.501 21.954 323.706 22.394C323.912 22.834 324.396 23.054 325.158 23.054L327.182 22.9L327.27 24.022C326.302 24.1687 325.562 24.242 325.048 24.242C323.934 24.242 323.156 23.9707 322.716 23.428C322.291 22.8707 322.078 21.8147 322.078 20.26V14.166H320.45V13H322.078V9.546H323.398V13H327.072V14.166Z" fill="#D46BFE"/>
<path d="M367.587 17.7555H363.363V23.0795H361.999V7.78947H367.587C369.215 7.78947 370.41 8.18547 371.173 8.97747C371.95 9.76947 372.339 10.9868 372.339 12.6295C372.339 16.0468 370.755 17.7555 367.587 17.7555ZM363.363 16.5455H367.587C369.816 16.5455 370.931 15.2401 370.931 12.6295C370.931 11.3828 370.667 10.4661 370.139 9.87947C369.611 9.2928 368.76 8.99947 367.587 8.99947H363.363V16.5455ZM374.776 23.0795V12.0795H376.074V13.6635C376.617 13.2821 377.277 12.9155 378.054 12.5635C378.846 12.2115 379.572 11.9768 380.232 11.8595V13.1795C379.601 13.3115 378.941 13.5168 378.252 13.7955C377.563 14.0595 377.027 14.2941 376.646 14.4995L376.074 14.8295V23.0795H374.776ZM389.234 21.9795L389.894 21.9135L389.938 22.9915C388.281 23.1968 386.88 23.2995 385.736 23.2995C384.152 23.2848 383.045 22.8155 382.414 21.8915C381.783 20.9675 381.468 19.5448 381.468 17.6235C381.468 13.7808 382.979 11.8595 386 11.8595C387.452 11.8595 388.537 12.2775 389.256 13.1135C389.975 13.9348 390.334 15.2548 390.334 17.0735L390.29 18.1295H382.81C382.81 19.4788 383.037 20.4835 383.492 21.1435C383.961 21.7888 384.753 22.1115 385.868 22.1115C386.997 22.1115 388.119 22.0675 389.234 21.9795ZM382.81 17.0295H389.014C389.014 15.5775 388.772 14.5435 388.288 13.9275C387.819 13.3115 387.056 13.0035 386 13.0035C384.959 13.0035 384.167 13.3261 383.624 13.9715C383.081 14.6021 382.81 15.6215 382.81 17.0295ZM394.336 23.0795H393.038V12.0795H394.336V12.8935C395.45 12.2041 396.638 11.8595 397.9 11.8595C399.161 11.8595 400.056 12.2481 400.584 13.0255C401.112 12.7028 401.75 12.4315 402.498 12.2115C403.26 11.9768 403.943 11.8595 404.544 11.8595C406.01 11.8595 406.986 12.2481 407.47 13.0255C407.969 13.7881 408.218 15.2108 408.218 17.2935V23.0795H406.92V17.3595C406.92 15.6728 406.758 14.5361 406.436 13.9495C406.128 13.3481 405.446 13.0475 404.39 13.0475C403.862 13.0475 403.319 13.1281 402.762 13.2895C402.204 13.4361 401.779 13.5901 401.486 13.7515L401.046 13.9715C401.266 14.5288 401.376 15.6581 401.376 17.3595V23.0795H400.056V17.4035C400.056 15.6875 399.894 14.5361 399.572 13.9495C399.264 13.3481 398.589 13.0475 397.548 13.0475C397.034 13.0475 396.506 13.1281 395.964 13.2895C395.436 13.4361 395.032 13.5901 394.754 13.7515L394.336 13.9715V23.0795ZM411.407 23.0795V12.0795H412.705V23.0795H411.407ZM411.407 9.32947V7.67947H412.705V9.32947H411.407ZM422.957 12.0795H424.255V23.0795H422.957V22.2655C421.827 22.9548 420.698 23.2995 419.569 23.2995C418.073 23.2995 417.083 22.9181 416.599 22.1555C416.129 21.3928 415.895 19.9481 415.895 17.8215V12.0795H417.193V17.7995C417.193 19.5008 417.347 20.6448 417.655 21.2315C417.977 21.8181 418.667 22.1115 419.723 22.1115C420.236 22.1115 420.764 22.0381 421.307 21.8915C421.849 21.7301 422.26 21.5688 422.539 21.4075L422.957 21.1875V12.0795ZM428.861 23.0795H427.563V12.0795H428.861V12.8935C429.976 12.2041 431.164 11.8595 432.425 11.8595C433.687 11.8595 434.581 12.2481 435.109 13.0255C435.637 12.7028 436.275 12.4315 437.023 12.2115C437.786 11.9768 438.468 11.8595 439.069 11.8595C440.536 11.8595 441.511 12.2481 441.995 13.0255C442.494 13.7881 442.743 15.2108 442.743 17.2935V23.0795H441.445V17.3595C441.445 15.6728 441.284 14.5361 440.961 13.9495C440.653 13.3481 439.971 13.0475 438.915 13.0475C438.387 13.0475 437.845 13.1281 437.287 13.2895C436.73 13.4361 436.305 13.5901 436.011 13.7515L435.571 13.9715C435.791 14.5288 435.901 15.6581 435.901 17.3595V23.0795H434.581V17.4035C434.581 15.6875 434.42 14.5361 434.097 13.9495C433.789 13.3481 433.115 13.0475 432.073 13.0475C431.56 13.0475 431.032 13.1281 430.489 13.2895C429.961 13.4361 429.558 13.5901 429.279 13.7515L428.861 13.9715V23.0795Z" fill="#D46BFE"/>
<path d="M512.903 7.78947H514.289L510.197 23.0795H506.875L502.761 7.78947H504.169L507.887 21.8695H509.185L512.903 7.78947ZM516.801 23.0795V7.78947H518.165V23.0795H516.801ZM527.588 17.7555H523.364V23.0795H522V7.78947H527.588C529.216 7.78947 530.411 8.18547 531.174 8.97747C531.951 9.76947 532.34 10.9868 532.34 12.6295C532.34 16.0468 530.756 17.7555 527.588 17.7555ZM523.364 16.5455H527.588C529.817 16.5455 530.932 15.2401 530.932 12.6295C530.932 11.3828 530.668 10.4661 530.14 9.87947C529.612 9.2928 528.761 8.99947 527.588 8.99947H523.364V16.5455Z" fill="#D46BFE"/>
<path d="M59.7031 51.2581V63.1381H58.3171V52.8061L55.2571 54.8221L54.6271 53.7781L58.4071 51.2581H59.7031Z" fill="white"/>
<path d="M393.682 51.2581V63.1381H392.296V52.8061L389.236 54.8221L388.606 53.7781L392.386 51.2581H393.682ZM405.59 63.1381H397.994V61.9681L401.468 58.3141C402.068 57.6901 402.506 57.2161 402.782 56.8921C403.058 56.5681 403.304 56.1841 403.52 55.7401C403.748 55.2961 403.862 54.8521 403.862 54.4081C403.862 53.6401 403.652 53.1001 403.232 52.7881C402.812 52.4761 402.158 52.3201 401.27 52.3201C400.49 52.3201 399.62 52.4221 398.66 52.6261L398.192 52.7161L398.084 51.5641C399.224 51.2401 400.4 51.0781 401.612 51.0781C402.824 51.0781 403.736 51.3361 404.348 51.8521C404.972 52.3561 405.284 53.1601 405.284 54.2641C405.284 55.1041 405.098 55.8361 404.726 56.4601C404.354 57.0841 403.712 57.8341 402.8 58.7101L399.632 61.9321H405.59V63.1381ZM409.614 63.2101L413.304 50.8801L414.168 51.1681L410.478 63.4621L409.614 63.2101ZM407.328 53.5621C407.328 51.9061 407.988 51.0781 409.308 51.0781C410.628 51.0781 411.288 51.9061 411.288 53.5621C411.288 54.4141 411.114 55.0501 410.766 55.4701C410.418 55.8901 409.932 56.1001 409.308 56.1001C408.684 56.1001 408.198 55.8901 407.85 55.4701C407.502 55.0501 407.328 54.4141 407.328 53.5621ZM408.426 53.5621C408.426 54.6421 408.72 55.1821 409.308 55.1821C409.908 55.1821 410.208 54.6421 410.208 53.5621C410.208 53.0221 410.136 52.6261 409.992 52.3741C409.86 52.1221 409.632 51.9961 409.308 51.9961C408.996 51.9961 408.768 52.1221 408.624 52.3741C408.492 52.6261 408.426 53.0221 408.426 53.5621ZM412.458 60.7621C412.458 59.1181 413.112 58.2961 414.42 58.2961C415.74 58.2961 416.4 59.1241 416.4 60.7801C416.4 61.6201 416.226 62.2561 415.878 62.6881C415.53 63.1081 415.044 63.3181 414.42 63.3181C413.796 63.3181 413.31 63.1081 412.962 62.6881C412.626 62.2561 412.458 61.6141 412.458 60.7621ZM413.538 60.7621C413.538 61.8541 413.832 62.4001 414.42 62.4001C414.756 62.4001 414.99 62.2681 415.122 62.0041C415.254 61.7401 415.32 61.3321 415.32 60.7801C415.32 60.2281 415.254 59.8321 415.122 59.5921C414.99 59.3401 414.762 59.2141 414.438 59.2141C414.114 59.2141 413.88 59.3401 413.736 59.5921C413.604 59.8321 413.538 60.2221 413.538 60.7621Z" fill="white"/>
<path d="M509.156 51.2581V63.1381H507.77V52.8061L504.71 54.8221L504.08 53.7781L507.86 51.2581H509.156ZM518.707 63.1381V60.8161H512.947V59.7361L516.331 51.2581H517.843L514.405 59.5921H518.707V55.8841H520.093V59.5921H521.605V60.8161H520.093V63.1381H518.707ZM525.089 63.2101L528.779 50.8801L529.643 51.1681L525.953 63.4621L525.089 63.2101ZM522.803 53.5621C522.803 51.9061 523.463 51.0781 524.783 51.0781C526.103 51.0781 526.763 51.9061 526.763 53.5621C526.763 54.4141 526.589 55.0501 526.241 55.4701C525.893 55.8901 525.407 56.1001 524.783 56.1001C524.159 56.1001 523.673 55.8901 523.325 55.4701C522.977 55.0501 522.803 54.4141 522.803 53.5621ZM523.901 53.5621C523.901 54.6421 524.195 55.1821 524.783 55.1821C525.383 55.1821 525.683 54.6421 525.683 53.5621C525.683 53.0221 525.611 52.6261 525.467 52.3741C525.335 52.1221 525.107 51.9961 524.783 51.9961C524.471 51.9961 524.243 52.1221 524.099 52.3741C523.967 52.6261 523.901 53.0221 523.901 53.5621ZM527.933 60.7621C527.933 59.1181 528.587 58.2961 529.895 58.2961C531.215 58.2961 531.875 59.1241 531.875 60.7801C531.875 61.6201 531.701 62.2561 531.353 62.6881C531.005 63.1081 530.519 63.3181 529.895 63.3181C529.271 63.3181 528.785 63.1081 528.437 62.6881C528.101 62.2561 527.933 61.6141 527.933 60.7621ZM529.013 60.7621C529.013 61.8541 529.307 62.4001 529.895 62.4001C530.231 62.4001 530.465 62.2681 530.597 62.0041C530.729 61.7401 530.795 61.3321 530.795 60.7801C530.795 60.2281 530.729 59.8321 530.597 59.5921C530.465 59.3401 530.237 59.2141 529.913 59.2141C529.589 59.2141 529.355 59.3401 529.211 59.5921C529.079 59.8321 529.013 60.2221 529.013 60.7621Z" fill="white"/>
<path d="M164.239 51.8521C164.995 51.3241 166.033 51.0601 167.353 51.0601C168.673 51.0601 169.717 51.3241 170.485 51.8521C171.265 52.3681 171.655 53.1361 171.655 54.1561C171.655 54.9001 171.505 55.4701 171.205 55.8661C170.905 56.2501 170.395 56.6041 169.675 56.9281C170.395 57.2521 170.935 57.6361 171.295 58.0801C171.655 58.5121 171.835 59.1241 171.835 59.9161C171.835 62.1841 170.347 63.3181 167.371 63.3181C164.407 63.3181 162.925 62.2501 162.925 60.1141C162.925 59.2621 163.087 58.6141 163.411 58.1701C163.747 57.7261 164.269 57.3121 164.977 56.9281C164.329 56.6041 163.855 56.2381 163.555 55.8301C163.267 55.4101 163.123 54.8461 163.123 54.1381C163.123 53.1301 163.495 52.3681 164.239 51.8521ZM164.401 59.8801C164.401 61.3321 165.391 62.0581 167.371 62.0581C169.363 62.0581 170.359 61.2961 170.359 59.7721C170.359 59.1361 170.179 58.6681 169.819 58.3681C169.471 58.0561 168.949 57.7981 168.253 57.5941H166.363C165.703 57.7741 165.211 58.0441 164.887 58.4041C164.563 58.7521 164.401 59.2441 164.401 59.8801ZM170.179 54.3181C170.179 52.9861 169.249 52.3201 167.389 52.3201C165.529 52.3201 164.599 52.9801 164.599 54.3001C164.599 54.8281 164.743 55.2541 165.031 55.5781C165.319 55.9021 165.763 56.1721 166.363 56.3881H168.253C168.901 56.1841 169.381 55.9201 169.693 55.5961C170.017 55.2721 170.179 54.8461 170.179 54.3181ZM175.211 63.2101L178.901 50.8801L179.765 51.1681L176.075 63.4621L175.211 63.2101ZM172.925 53.5621C172.925 51.9061 173.585 51.0781 174.905 51.0781C176.225 51.0781 176.885 51.9061 176.885 53.5621C176.885 54.4141 176.711 55.0501 176.363 55.4701C176.015 55.8901 175.529 56.1001 174.905 56.1001C174.281 56.1001 173.795 55.8901 173.447 55.4701C173.099 55.0501 172.925 54.4141 172.925 53.5621ZM174.023 53.5621C174.023 54.6421 174.317 55.1821 174.905 55.1821C175.505 55.1821 175.805 54.6421 175.805 53.5621C175.805 53.0221 175.733 52.6261 175.589 52.3741C175.457 52.1221 175.229 51.9961 174.905 51.9961C174.593 51.9961 174.365 52.1221 174.221 52.3741C174.089 52.6261 174.023 53.0221 174.023 53.5621ZM178.055 60.7621C178.055 59.1181 178.709 58.2961 180.017 58.2961C181.337 58.2961 181.997 59.1241 181.997 60.7801C181.997 61.6201 181.823 62.2561 181.475 62.6881C181.127 63.1081 180.641 63.3181 180.017 63.3181C179.393 63.3181 178.907 63.1081 178.559 62.6881C178.223 62.2561 178.055 61.6141 178.055 60.7621ZM179.135 60.7621C179.135 61.8541 179.429 62.4001 180.017 62.4001C180.353 62.4001 180.587 62.2681 180.719 62.0041C180.851 61.7401 180.917 61.3321 180.917 60.7801C180.917 60.2281 180.851 59.8321 180.719 59.5921C180.587 59.3401 180.359 59.2141 180.035 59.2141C179.711 59.2141 179.477 59.3401 179.333 59.5921C179.201 59.8321 179.135 60.2221 179.135 60.7621Z" fill="white"/>
<path d="M279.789 51.2581V63.1381H278.403V52.8061L275.343 54.8221L274.713 53.7781L278.493 51.2581H279.789ZM287.881 51.0601C288.865 51.0601 289.663 51.2461 290.275 51.6181C291.571 52.3861 292.219 54.3061 292.219 57.3781C292.219 59.5501 291.859 61.0861 291.139 61.9861C290.419 62.8741 289.339 63.3181 287.899 63.3181C286.459 63.3181 285.373 62.8801 284.641 62.0041C283.921 61.1161 283.561 59.5441 283.561 57.2881C283.561 55.0201 283.915 53.4181 284.623 52.4821C285.343 51.5341 286.429 51.0601 287.881 51.0601ZM287.899 52.3021C287.215 52.3021 286.675 52.4461 286.279 52.7341C285.427 53.3221 285.001 54.8761 285.001 57.3961C285.001 59.1721 285.235 60.4021 285.703 61.0861C286.171 61.7581 286.903 62.0941 287.899 62.0941C288.895 62.0941 289.627 61.7521 290.095 61.0681C290.563 60.3841 290.797 59.1181 290.797 57.2701C290.797 55.4101 290.569 54.1201 290.113 53.4001C289.669 52.6681 288.931 52.3021 287.899 52.3021ZM295.721 63.2101L299.411 50.8801L300.275 51.1681L296.585 63.4621L295.721 63.2101ZM293.435 53.5621C293.435 51.9061 294.095 51.0781 295.415 51.0781C296.735 51.0781 297.395 51.9061 297.395 53.5621C297.395 54.4141 297.221 55.0501 296.873 55.4701C296.525 55.8901 296.039 56.1001 295.415 56.1001C294.791 56.1001 294.305 55.8901 293.957 55.4701C293.609 55.0501 293.435 54.4141 293.435 53.5621ZM294.533 53.5621C294.533 54.6421 294.827 55.1821 295.415 55.1821C296.015 55.1821 296.315 54.6421 296.315 53.5621C296.315 53.0221 296.243 52.6261 296.099 52.3741C295.967 52.1221 295.739 51.9961 295.415 51.9961C295.103 51.9961 294.875 52.1221 294.731 52.3741C294.599 52.6261 294.533 53.0221 294.533 53.5621ZM298.565 60.7621C298.565 59.1181 299.219 58.2961 300.527 58.2961C301.847 58.2961 302.507 59.1241 302.507 60.7801C302.507 61.6201 302.333 62.2561 301.985 62.6881C301.637 63.1081 301.151 63.3181 300.527 63.3181C299.903 63.3181 299.417 63.1081 299.069 62.6881C298.733 62.2561 298.565 61.6141 298.565 60.7621ZM299.645 60.7621C299.645 61.8541 299.939 62.4001 300.527 62.4001C300.863 62.4001 301.097 62.2681 301.229 62.0041C301.361 61.7401 301.427 61.3321 301.427 60.7801C301.427 60.2281 301.361 59.8321 301.229 59.5921C301.097 59.3401 300.869 59.2141 300.545 59.2141C300.221 59.2141 299.987 59.3401 299.843 59.5921C299.711 59.8321 299.645 60.2221 299.645 60.7621Z" fill="white"/>
<path d="M61.5391 101.485H53.9431V100.315L57.4171 96.6614C58.0171 96.0374 58.4551 95.5634 58.7311 95.2394C59.0071 94.9154 59.2531 94.5314 59.4691 94.0874C59.6971 93.6434 59.8111 93.1994 59.8111 92.7554C59.8111 91.9874 59.6011 91.4474 59.1811 91.1354C58.7611 90.8234 58.1071 90.6674 57.2191 90.6674C56.4391 90.6674 55.5691 90.7694 54.6091 90.9734L54.1411 91.0634L54.0331 89.9114C55.1731 89.5874 56.3491 89.4254 57.5611 89.4254C58.7731 89.4254 59.6851 89.6834 60.2971 90.1994C60.9211 90.7034 61.2331 91.5074 61.2331 92.6114C61.2331 93.4514 61.0471 94.1834 60.6751 94.8074C60.3031 95.4314 59.6611 96.1814 58.7491 97.0574L55.5811 100.279H61.5391V101.485Z" fill="white"/>
<path d="M398.196 101.485V99.1634H392.436V98.0834L395.82 89.6054H397.332L393.894 97.9394H398.196V94.2314H399.582V97.9394H401.094V99.1634H399.582V101.485H398.196ZM404.578 101.557L408.268 89.2274L409.132 89.5154L405.442 101.809L404.578 101.557ZM402.292 91.9094C402.292 90.2534 402.952 89.4254 404.272 89.4254C405.592 89.4254 406.252 90.2534 406.252 91.9094C406.252 92.7614 406.078 93.3974 405.73 93.8174C405.382 94.2374 404.896 94.4474 404.272 94.4474C403.648 94.4474 403.162 94.2374 402.814 93.8174C402.466 93.3974 402.292 92.7614 402.292 91.9094ZM403.39 91.9094C403.39 92.9894 403.684 93.5294 404.272 93.5294C404.872 93.5294 405.172 92.9894 405.172 91.9094C405.172 91.3694 405.1 90.9734 404.956 90.7214C404.824 90.4694 404.596 90.3434 404.272 90.3434C403.96 90.3434 403.732 90.4694 403.588 90.7214C403.456 90.9734 403.39 91.3694 403.39 91.9094ZM407.422 99.1094C407.422 97.4654 408.076 96.6434 409.384 96.6434C410.704 96.6434 411.364 97.4714 411.364 99.1274C411.364 99.9674 411.19 100.603 410.842 101.035C410.494 101.455 410.008 101.665 409.384 101.665C408.76 101.665 408.274 101.455 407.926 101.035C407.59 100.603 407.422 99.9614 407.422 99.1094ZM408.502 99.1094C408.502 100.201 408.796 100.747 409.384 100.747C409.72 100.747 409.954 100.615 410.086 100.351C410.218 100.087 410.284 99.6794 410.284 99.1274C410.284 98.5754 410.218 98.1794 410.086 97.9394C409.954 97.6874 409.726 97.5614 409.402 97.5614C409.078 97.5614 408.844 97.6874 408.7 97.9394C408.568 98.1794 408.502 98.5694 408.502 99.1094Z" fill="white"/>
<path d="M515.776 89.6054V90.8654H509.998L509.674 94.7354C510.598 94.2434 511.528 93.9974 512.464 93.9974C514.984 93.9974 516.244 95.1674 516.244 97.5074C516.244 98.8514 515.896 99.8774 515.2 100.585C514.504 101.293 513.526 101.647 512.266 101.647C511.258 101.647 510.142 101.515 508.918 101.251L508.324 101.125L508.486 100.027C509.866 100.291 511.024 100.423 511.96 100.423C512.908 100.423 513.622 100.183 514.102 99.7034C514.582 99.2114 514.822 98.5274 514.822 97.6514C514.822 96.7754 514.6 96.1574 514.156 95.7974C513.724 95.4254 513.106 95.2394 512.302 95.2394C511.87 95.2394 511.414 95.2994 510.934 95.4194C510.466 95.5394 510.106 95.6594 509.854 95.7794L509.476 95.9594L508.522 95.7794L508.846 89.6054H515.776ZM520.053 101.557L523.743 89.2274L524.607 89.5154L520.917 101.809L520.053 101.557ZM517.767 91.9094C517.767 90.2534 518.427 89.4254 519.747 89.4254C521.067 89.4254 521.727 90.2534 521.727 91.9094C521.727 92.7614 521.553 93.3974 521.205 93.8174C520.857 94.2374 520.371 94.4474 519.747 94.4474C519.123 94.4474 518.637 94.2374 518.289 93.8174C517.941 93.3974 517.767 92.7614 517.767 91.9094ZM518.865 91.9094C518.865 92.9894 519.159 93.5294 519.747 93.5294C520.347 93.5294 520.647 92.9894 520.647 91.9094C520.647 91.3694 520.575 90.9734 520.431 90.7214C520.299 90.4694 520.071 90.3434 519.747 90.3434C519.435 90.3434 519.207 90.4694 519.063 90.7214C518.931 90.9734 518.865 91.3694 518.865 91.9094ZM522.897 99.1094C522.897 97.4654 523.551 96.6434 524.859 96.6434C526.179 96.6434 526.839 97.4714 526.839 99.1274C526.839 99.9674 526.665 100.603 526.317 101.035C525.969 101.455 525.483 101.665 524.859 101.665C524.235 101.665 523.749 101.455 523.401 101.035C523.065 100.603 522.897 99.9614 522.897 99.1094ZM523.977 99.1094C523.977 100.201 524.271 100.747 524.859 100.747C525.195 100.747 525.429 100.615 525.561 100.351C525.693 100.087 525.759 99.6794 525.759 99.1274C525.759 98.5754 525.693 98.1794 525.561 97.9394C525.429 97.6874 525.201 97.5614 524.877 97.5614C524.553 97.5614 524.319 97.6874 524.175 97.9394C524.043 98.1794 523.977 98.5694 523.977 99.1094Z" fill="white"/>
<path d="M171.187 101.485H163.591V100.315L167.065 96.6614C167.665 96.0374 168.103 95.5634 168.379 95.2394C168.655 94.9154 168.901 94.5314 169.117 94.0874C169.345 93.6434 169.459 93.1994 169.459 92.7554C169.459 91.9874 169.249 91.4474 168.829 91.1354C168.409 90.8234 167.755 90.6674 166.867 90.6674C166.087 90.6674 165.217 90.7694 164.257 90.9734L163.789 91.0634L163.681 89.9114C164.821 89.5874 165.997 89.4254 167.209 89.4254C168.421 89.4254 169.333 89.6834 169.945 90.1994C170.569 90.7034 170.881 91.5074 170.881 92.6114C170.881 93.4514 170.695 94.1834 170.323 94.8074C169.951 95.4314 169.309 96.1814 168.397 97.0574L165.229 100.279H171.187V101.485ZM175.211 101.557L178.901 89.2274L179.765 89.5154L176.075 101.809L175.211 101.557ZM172.925 91.9094C172.925 90.2534 173.585 89.4254 174.905 89.4254C176.225 89.4254 176.885 90.2534 176.885 91.9094C176.885 92.7614 176.711 93.3974 176.363 93.8174C176.015 94.2374 175.529 94.4474 174.905 94.4474C174.281 94.4474 173.795 94.2374 173.447 93.8174C173.099 93.3974 172.925 92.7614 172.925 91.9094ZM174.023 91.9094C174.023 92.9894 174.317 93.5294 174.905 93.5294C175.505 93.5294 175.805 92.9894 175.805 91.9094C175.805 91.3694 175.733 90.9734 175.589 90.7214C175.457 90.4694 175.229 90.3434 174.905 90.3434C174.593 90.3434 174.365 90.4694 174.221 90.7214C174.089 90.9734 174.023 91.3694 174.023 91.9094ZM178.055 99.1094C178.055 97.4654 178.709 96.6434 180.017 96.6434C181.337 96.6434 181.997 97.4714 181.997 99.1274C181.997 99.9674 181.823 100.603 181.475 101.035C181.127 101.455 180.641 101.665 180.017 101.665C179.393 101.665 178.907 101.455 178.559 101.035C178.223 100.603 178.055 99.9614 178.055 99.1094ZM179.135 99.1094C179.135 100.201 179.429 100.747 180.017 100.747C180.353 100.747 180.587 100.615 180.719 100.351C180.851 100.087 180.917 99.6794 180.917 99.1274C180.917 98.5754 180.851 98.1794 180.719 97.9394C180.587 97.6874 180.359 97.5614 180.035 97.5614C179.711 97.5614 179.477 97.6874 179.333 97.9394C179.201 98.1794 179.135 98.5694 179.135 99.1094Z" fill="white"/>
<path d="M279.119 89.9114C280.247 89.5754 281.453 89.4074 282.737 89.4074C284.033 89.4074 284.969 89.6534 285.545 90.1454C286.121 90.6374 286.409 91.4234 286.409 92.5034C286.409 93.0554 286.331 93.4574 286.175 93.7094C286.031 93.9494 285.911 94.1354 285.815 94.2674C285.731 94.3994 285.617 94.5254 285.473 94.6454C285.209 94.8494 284.999 94.9934 284.843 95.0774L284.645 95.2034C285.341 95.4554 285.857 95.7794 286.193 96.1754C286.529 96.5594 286.697 97.1954 286.697 98.0834C286.697 99.2954 286.385 100.195 285.761 100.783C285.149 101.371 284.177 101.665 282.845 101.665C281.789 101.665 280.673 101.545 279.497 101.305L278.939 101.179L279.065 100.045C280.361 100.309 281.573 100.441 282.701 100.441C284.417 100.429 285.275 99.6614 285.275 98.1374C285.275 96.7094 284.459 95.9654 282.827 95.9054H280.433V94.7174H282.827C283.331 94.7174 283.817 94.5194 284.285 94.1234C284.753 93.7154 284.987 93.1814 284.987 92.5214C284.987 91.8614 284.801 91.3874 284.429 91.0994C284.057 90.7994 283.433 90.6494 282.557 90.6494C281.597 90.6494 280.649 90.7394 279.713 90.9194L279.245 91.0094L279.119 89.9114ZM290.685 101.557L294.375 89.2274L295.239 89.5154L291.549 101.809L290.685 101.557ZM288.399 91.9094C288.399 90.2534 289.059 89.4254 290.379 89.4254C291.699 89.4254 292.359 90.2534 292.359 91.9094C292.359 92.7614 292.185 93.3974 291.837 93.8174C291.489 94.2374 291.003 94.4474 290.379 94.4474C289.755 94.4474 289.269 94.2374 288.921 93.8174C288.573 93.3974 288.399 92.7614 288.399 91.9094ZM289.497 91.9094C289.497 92.9894 289.791 93.5294 290.379 93.5294C290.979 93.5294 291.279 92.9894 291.279 91.9094C291.279 91.3694 291.207 90.9734 291.063 90.7214C290.931 90.4694 290.703 90.3434 290.379 90.3434C290.067 90.3434 289.839 90.4694 289.695 90.7214C289.563 90.9734 289.497 91.3694 289.497 91.9094ZM293.529 99.1094C293.529 97.4654 294.183 96.6434 295.491 96.6434C296.811 96.6434 297.471 97.4714 297.471 99.1274C297.471 99.9674 297.297 100.603 296.949 101.035C296.601 101.455 296.115 101.665 295.491 101.665C294.867 101.665 294.381 101.455 294.033 101.035C293.697 100.603 293.529 99.9614 293.529 99.1094ZM294.609 99.1094C294.609 100.201 294.903 100.747 295.491 100.747C295.827 100.747 296.061 100.615 296.193 100.351C296.325 100.087 296.391 99.6794 296.391 99.1274C296.391 98.5754 296.325 98.1794 296.193 97.9394C296.061 97.6874 295.833 97.5614 295.509 97.5614C295.185 97.5614 294.951 97.6874 294.807 97.9394C294.675 98.1794 294.609 98.5694 294.609 99.1094Z" fill="white"/>
<path d="M53.9971 128.259C55.1251 127.923 56.3311 127.755 57.6151 127.755C58.9111 127.755 59.8471 128.001 60.4231 128.493C60.9991 128.985 61.2871 129.771 61.2871 130.851C61.2871 131.403 61.2091 131.805 61.0531 132.057C60.9091 132.297 60.7891 132.483 60.6931 132.615C60.6091 132.747 60.4951 132.873 60.3511 132.993C60.0871 133.197 59.8771 133.341 59.7211 133.425L59.5231 133.551C60.2191 133.803 60.7351 134.127 61.0711 134.523C61.4071 134.907 61.5751 135.543 61.5751 136.431C61.5751 137.643 61.2631 138.543 60.6391 139.131C60.0271 139.719 59.0551 140.013 57.7231 140.013C56.6671 140.013 55.5511 139.893 54.3751 139.653L53.8171 139.527L53.9431 138.393C55.2391 138.657 56.4511 138.789 57.5791 138.789C59.2951 138.777 60.1531 138.009 60.1531 136.485C60.1531 135.057 59.3371 134.313 57.7051 134.253H55.3111V133.065H57.7051C58.2091 133.065 58.6951 132.867 59.1631 132.471C59.6311 132.063 59.8651 131.529 59.8651 130.869C59.8651 130.209 59.6791 129.735 59.3071 129.447C58.9351 129.147 58.3111 128.997 57.4351 128.997C56.4751 128.997 55.5271 129.087 54.5911 129.267L54.1231 129.357L53.9971 128.259Z" fill="white"/>
<path d="M400.554 139.833H392.958V138.663L396.432 135.009C397.032 134.385 397.47 133.911 397.746 133.587C398.022 133.263 398.268 132.879 398.484 132.435C398.712 131.991 398.826 131.547 398.826 131.103C398.826 130.335 398.616 129.795 398.196 129.483C397.776 129.171 397.122 129.015 396.234 129.015C395.454 129.015 394.584 129.117 393.624 129.321L393.156 129.411L393.048 128.259C394.188 127.935 395.364 127.773 396.576 127.773C397.788 127.773 398.7 128.031 399.312 128.547C399.936 129.051 400.248 129.855 400.248 130.959C400.248 131.799 400.062 132.531 399.69 133.155C399.318 133.779 398.676 134.529 397.764 135.405L394.596 138.627H400.554V139.833ZM404.578 139.905L408.268 127.575L409.132 127.863L405.442 140.157L404.578 139.905ZM402.292 130.257C402.292 128.601 402.952 127.773 404.272 127.773C405.592 127.773 406.252 128.601 406.252 130.257C406.252 131.109 406.078 131.745 405.73 132.165C405.382 132.585 404.896 132.795 404.272 132.795C403.648 132.795 403.162 132.585 402.814 132.165C402.466 131.745 402.292 131.109 402.292 130.257ZM403.39 130.257C403.39 131.337 403.684 131.877 404.272 131.877C404.872 131.877 405.172 131.337 405.172 130.257C405.172 129.717 405.1 129.321 404.956 129.069C404.824 128.817 404.596 128.691 404.272 128.691C403.96 128.691 403.732 128.817 403.588 129.069C403.456 129.321 403.39 129.717 403.39 130.257ZM407.422 137.457C407.422 135.813 408.076 134.991 409.384 134.991C410.704 134.991 411.364 135.819 411.364 137.475C411.364 138.315 411.19 138.951 410.842 139.383C410.494 139.803 410.008 140.013 409.384 140.013C408.76 140.013 408.274 139.803 407.926 139.383C407.59 138.951 407.422 138.309 407.422 137.457ZM408.502 137.457C408.502 138.549 408.796 139.095 409.384 139.095C409.72 139.095 409.954 138.963 410.086 138.699C410.218 138.435 410.284 138.027 410.284 137.475C410.284 136.923 410.218 136.527 410.086 136.287C409.954 136.035 409.726 135.909 409.402 135.909C409.078 135.909 408.844 136.035 408.7 136.287C408.568 136.527 408.502 136.917 408.502 137.457Z" fill="white"/>
<path d="M516.028 139.833H508.432V138.663L511.906 135.009C512.506 134.385 512.944 133.911 513.22 133.587C513.496 133.263 513.742 132.879 513.958 132.435C514.186 131.991 514.3 131.547 514.3 131.103C514.3 130.335 514.09 129.795 513.67 129.483C513.25 129.171 512.596 129.015 511.708 129.015C510.928 129.015 510.058 129.117 509.098 129.321L508.63 129.411L508.522 128.259C509.662 127.935 510.838 127.773 512.05 127.773C513.262 127.773 514.174 128.031 514.786 128.547C515.41 129.051 515.722 129.855 515.722 130.959C515.722 131.799 515.536 132.531 515.164 133.155C514.792 133.779 514.15 134.529 513.238 135.405L510.07 138.627H516.028V139.833ZM520.053 139.905L523.743 127.575L524.607 127.863L520.917 140.157L520.053 139.905ZM517.767 130.257C517.767 128.601 518.427 127.773 519.747 127.773C521.067 127.773 521.727 128.601 521.727 130.257C521.727 131.109 521.553 131.745 521.205 132.165C520.857 132.585 520.371 132.795 519.747 132.795C519.123 132.795 518.637 132.585 518.289 132.165C517.941 131.745 517.767 131.109 517.767 130.257ZM518.865 130.257C518.865 131.337 519.159 131.877 519.747 131.877C520.347 131.877 520.647 131.337 520.647 130.257C520.647 129.717 520.575 129.321 520.431 129.069C520.299 128.817 520.071 128.691 519.747 128.691C519.435 128.691 519.207 128.817 519.063 129.069C518.931 129.321 518.865 129.717 518.865 130.257ZM522.897 137.457C522.897 135.813 523.551 134.991 524.859 134.991C526.179 134.991 526.839 135.819 526.839 137.475C526.839 138.315 526.665 138.951 526.317 139.383C525.969 139.803 525.483 140.013 524.859 140.013C524.235 140.013 523.749 139.803 523.401 139.383C523.065 138.951 522.897 138.309 522.897 137.457ZM523.977 137.457C523.977 138.549 524.271 139.095 524.859 139.095C525.195 139.095 525.429 138.963 525.561 138.699C525.693 138.435 525.759 138.027 525.759 137.475C525.759 136.923 525.693 136.527 525.561 136.287C525.429 136.035 525.201 135.909 524.877 135.909C524.553 135.909 524.319 136.035 524.175 136.287C524.043 136.527 523.977 136.917 523.977 137.457Z" fill="white"/>
<path d="M169.351 127.953V139.833H167.965V129.501L164.905 131.517L164.275 130.473L168.055 127.953H169.351ZM175.211 139.905L178.901 127.575L179.765 127.863L176.075 140.157L175.211 139.905ZM172.925 130.257C172.925 128.601 173.585 127.773 174.905 127.773C176.225 127.773 176.885 128.601 176.885 130.257C176.885 131.109 176.711 131.745 176.363 132.165C176.015 132.585 175.529 132.795 174.905 132.795C174.281 132.795 173.795 132.585 173.447 132.165C173.099 131.745 172.925 131.109 172.925 130.257ZM174.023 130.257C174.023 131.337 174.317 131.877 174.905 131.877C175.505 131.877 175.805 131.337 175.805 130.257C175.805 129.717 175.733 129.321 175.589 129.069C175.457 128.817 175.229 128.691 174.905 128.691C174.593 128.691 174.365 128.817 174.221 129.069C174.089 129.321 174.023 129.717 174.023 130.257ZM178.055 137.457C178.055 135.813 178.709 134.991 180.017 134.991C181.337 134.991 181.997 135.819 181.997 137.475C181.997 138.315 181.823 138.951 181.475 139.383C181.127 139.803 180.641 140.013 180.017 140.013C179.393 140.013 178.907 139.803 178.559 139.383C178.223 138.951 178.055 138.309 178.055 137.457ZM179.135 137.457C179.135 138.549 179.429 139.095 180.017 139.095C180.353 139.095 180.587 138.963 180.719 138.699C180.851 138.435 180.917 138.027 180.917 137.475C180.917 136.923 180.851 136.527 180.719 136.287C180.587 136.035 180.359 135.909 180.035 135.909C179.711 135.909 179.477 136.035 179.333 136.287C179.201 136.527 179.135 136.917 179.135 137.457Z" fill="white"/>
<path d="M284.825 127.953V139.833H283.439V129.501L280.379 131.517L279.749 130.473L283.529 127.953H284.825ZM290.685 139.905L294.375 127.575L295.239 127.863L291.549 140.157L290.685 139.905ZM288.399 130.257C288.399 128.601 289.059 127.773 290.379 127.773C291.699 127.773 292.359 128.601 292.359 130.257C292.359 131.109 292.185 131.745 291.837 132.165C291.489 132.585 291.003 132.795 290.379 132.795C289.755 132.795 289.269 132.585 288.921 132.165C288.573 131.745 288.399 131.109 288.399 130.257ZM289.497 130.257C289.497 131.337 289.791 131.877 290.379 131.877C290.979 131.877 291.279 131.337 291.279 130.257C291.279 129.717 291.207 129.321 291.063 129.069C290.931 128.817 290.703 128.691 290.379 128.691C290.067 128.691 289.839 128.817 289.695 129.069C289.563 129.321 289.497 129.717 289.497 130.257ZM293.529 137.457C293.529 135.813 294.183 134.991 295.491 134.991C296.811 134.991 297.471 135.819 297.471 137.475C297.471 138.315 297.297 138.951 296.949 139.383C296.601 139.803 296.115 140.013 295.491 140.013C294.867 140.013 294.381 139.803 294.033 139.383C293.697 138.951 293.529 138.309 293.529 137.457ZM294.609 137.457C294.609 138.549 294.903 139.095 295.491 139.095C295.827 139.095 296.061 138.963 296.193 138.699C296.325 138.435 296.391 138.027 296.391 137.475C296.391 136.923 296.325 136.527 296.193 136.287C296.061 136.035 295.833 135.909 295.509 135.909C295.185 135.909 294.951 136.035 294.807 136.287C294.675 136.527 294.609 136.917 294.609 137.457Z" fill="white"/>
<path d="M59.1811 178.18V175.858H53.4211V174.778L56.8051 166.3H58.3171L54.8791 174.634H59.1811V170.926H60.5671V174.634H62.0791V175.858H60.5671V178.18H59.1811Z" fill="white"/>
<path d="M389.698 166.102C390.682 166.102 391.48 166.288 392.092 166.66C393.388 167.428 394.036 169.348 394.036 172.42C394.036 174.592 393.676 176.128 392.956 177.028C392.236 177.916 391.156 178.36 389.716 178.36C388.276 178.36 387.19 177.922 386.458 177.046C385.738 176.158 385.378 174.586 385.378 172.33C385.378 170.062 385.732 168.46 386.44 167.524C387.16 166.576 388.246 166.102 389.698 166.102ZM389.716 167.344C389.032 167.344 388.492 167.488 388.096 167.776C387.244 168.364 386.818 169.918 386.818 172.438C386.818 174.214 387.052 175.444 387.52 176.128C387.988 176.8 388.72 177.136 389.716 177.136C390.712 177.136 391.444 176.794 391.912 176.11C392.38 175.426 392.614 174.16 392.614 172.312C392.614 170.452 392.386 169.162 391.93 168.442C391.486 167.71 390.748 167.344 389.716 167.344ZM395.36 180.394L396.188 176.254H397.682L396.476 180.394H395.36ZM407.342 166.3V167.56H401.564L401.24 171.43C402.164 170.938 403.094 170.692 404.03 170.692C406.55 170.692 407.81 171.862 407.81 174.202C407.81 175.546 407.462 176.572 406.766 177.28C406.07 177.988 405.092 178.342 403.832 178.342C402.824 178.342 401.708 178.21 400.484 177.946L399.89 177.82L400.052 176.722C401.432 176.986 402.59 177.118 403.526 177.118C404.474 177.118 405.188 176.878 405.668 176.398C406.148 175.906 406.388 175.222 406.388 174.346C406.388 173.47 406.166 172.852 405.722 172.492C405.29 172.12 404.672 171.934 403.868 171.934C403.436 171.934 402.98 171.994 402.5 172.114C402.032 172.234 401.672 172.354 401.42 172.474L401.042 172.654L400.088 172.474L400.412 166.3H407.342ZM411.618 178.252L415.308 165.922L416.172 166.21L412.482 178.504L411.618 178.252ZM409.332 168.604C409.332 166.948 409.992 166.12 411.312 166.12C412.632 166.12 413.292 166.948 413.292 168.604C413.292 169.456 413.118 170.092 412.77 170.512C412.422 170.932 411.936 171.142 411.312 171.142C410.688 171.142 410.202 170.932 409.854 170.512C409.506 170.092 409.332 169.456 409.332 168.604ZM410.43 168.604C410.43 169.684 410.724 170.224 411.312 170.224C411.912 170.224 412.212 169.684 412.212 168.604C412.212 168.064 412.14 167.668 411.996 167.416C411.864 167.164 411.636 167.038 411.312 167.038C411 167.038 410.772 167.164 410.628 167.416C410.496 167.668 410.43 168.064 410.43 168.604ZM414.462 175.804C414.462 174.16 415.116 173.338 416.424 173.338C417.744 173.338 418.404 174.166 418.404 175.822C418.404 176.662 418.23 177.298 417.882 177.73C417.534 178.15 417.048 178.36 416.424 178.36C415.8 178.36 415.314 178.15 414.966 177.73C414.63 177.298 414.462 176.656 414.462 175.804ZM415.542 175.804C415.542 176.896 415.836 177.442 416.424 177.442C416.76 177.442 416.994 177.31 417.126 177.046C417.258 176.782 417.324 176.374 417.324 175.822C417.324 175.27 417.258 174.874 417.126 174.634C416.994 174.382 416.766 174.256 416.442 174.256C416.118 174.256 415.884 174.382 415.74 174.634C415.608 174.874 415.542 175.264 415.542 175.804Z" fill="white"/>
<path d="M514.192 166.3V178.18H512.806V167.848L509.746 169.864L509.116 168.82L512.896 166.3H514.192ZM520.053 178.252L523.743 165.922L524.607 166.21L520.917 178.504L520.053 178.252ZM517.767 168.604C517.767 166.948 518.427 166.12 519.747 166.12C521.067 166.12 521.727 166.948 521.727 168.604C521.727 169.456 521.553 170.092 521.205 170.512C520.857 170.932 520.371 171.142 519.747 171.142C519.123 171.142 518.637 170.932 518.289 170.512C517.941 170.092 517.767 169.456 517.767 168.604ZM518.865 168.604C518.865 169.684 519.159 170.224 519.747 170.224C520.347 170.224 520.647 169.684 520.647 168.604C520.647 168.064 520.575 167.668 520.431 167.416C520.299 167.164 520.071 167.038 519.747 167.038C519.435 167.038 519.207 167.164 519.063 167.416C518.931 167.668 518.865 168.064 518.865 168.604ZM522.897 175.804C522.897 174.16 523.551 173.338 524.859 173.338C526.179 173.338 526.839 174.166 526.839 175.822C526.839 176.662 526.665 177.298 526.317 177.73C525.969 178.15 525.483 178.36 524.859 178.36C524.235 178.36 523.749 178.15 523.401 177.73C523.065 177.298 522.897 176.656 522.897 175.804ZM523.977 175.804C523.977 176.896 524.271 177.442 524.859 177.442C525.195 177.442 525.429 177.31 525.561 177.046C525.693 176.782 525.759 176.374 525.759 175.822C525.759 175.27 525.693 174.874 525.561 174.634C525.429 174.382 525.201 174.256 524.877 174.256C524.553 174.256 524.319 174.382 524.175 174.634C524.043 174.874 523.977 175.264 523.977 175.804Z" fill="white"/>
<path fill-rule="evenodd" clip-rule="evenodd" d="M229.367 194.184V155.837H115.684V195H114.684V155.837H0V154.837H114.684V116.674H0V115.674H114.684V77.5105H0V76.5105H114.684V38.3473H0V37.3473H114.684V0.8159H115.684V37.3473H229.367V0H230.367V37.3473H344.051V0H345.051V37.3473H459.525V0.8159H460.525V37.3473H575V38.3473H460.525V76.5105H575V77.5105H460.525V115.674H575V116.674H460.525V154.837H575V155.837H460.525V195H459.525V155.837H345.051V194.184H344.051V155.837H230.367V194.184H229.367ZM345.051 154.837H459.525V116.674H345.051V154.837ZM344.051 116.674V154.837H230.367V116.674H344.051ZM345.051 115.674H459.525V77.5105H345.051V115.674ZM344.051 77.5105V115.674H230.367V77.5105H344.051ZM345.051 76.5105H459.525V38.3473H345.051V76.5105ZM344.051 38.3473V76.5105H230.367V38.3473H344.051ZM229.367 154.837V116.674H115.684V154.837H229.367ZM229.367 115.674V77.5105H115.684V115.674H229.367ZM229.367 76.5105V38.3473H115.684V76.5105H229.367Z" fill="#68688D"/>
</svg>
